<svg width="700" height="1563" viewBox="0 0 700 1563" fill="none" xmlns="http://www.w3.org/2000/svg" data-vsvg="002" class="theme_bookstore_svg_preview">
    <defs>
        <pattern id="theme_bookstore_s_cta_box_default_image_id" width="1" height="1" patternunits="objectBoundingBox">
            <image width="207" height="186" preserveAspectRatio="xMidYMid slice" href="#library_image_02_url"></image>
        </pattern>
        <pattern id="theme_bookstore_s_text_cover_default_image_id" width="1" height="1" patternunits="objectBoundingBox">
            <image width="700" height="228" preserveAspectRatio="xMidYMid slice" href="#s_cover_default_image_url"></image>
        </pattern>
        <pattern id="theme_bookstore_s_accordion_image_default_image_id" width="1" height="1" patternunits="objectBoundingBox">
            <image width="236" height="218" preserveAspectRatio="xMidYMid slice" href="#s_image_text_default_image_url"></image>
        </pattern>
        <pattern id="theme_bookstore_s_key_images_default_image_4_id" width="1" height="1" patternunits="objectBoundingBox">
            <image width="126" height="106" preserveAspectRatio="xMidYMid slice" href="#s_text_image_default_image_url"></image>
        </pattern>
        <pattern id="theme_bookstore_s_key_images_default_image_3_id" width="1" height="1" patternunits="objectBoundingBox">
            <image width="126" height="106" preserveAspectRatio="xMidYMid slice" href="#s_media_list_default_image_2_url"></image>
        </pattern>
        <pattern id="theme_bookstore_s_key_images_default_image_2_id" width="1" height="1" patternunits="objectBoundingBox">
            <image width="126" height="106" preserveAspectRatio="xMidYMid slice" href="#s_image_text_default_image_url"></image>
        </pattern>
        <pattern id="theme_bookstore_s_key_images_default_image_1_id" width="1" height="1" patternunits="objectBoundingBox">
            <image width="126" height="106" preserveAspectRatio="xMidYMid slice" href="#s_media_list_default_image_1_url"></image>
        </pattern>
        <pattern id="theme_bookstore_s_banner_default_image_2_id" width="1" height="1" patternunits="objectBoundingBox">
            <image width="137" height="191" preserveAspectRatio="xMidYMid slice" href="#s_image_text_default_image_url"></image>
        </pattern>
        <pattern id="theme_bookstore_s_banner_default_image_3_id" width="1" height="1" patternunits="objectBoundingBox">
            <image width="73" height="91" preserveAspectRatio="xMidYMid slice" href="#s_product_list_default_image_1_url"></image>
        </pattern>
        <filter id="filter_readability_theme_bookstore">
            <feColorMatrix in="SourceGraphic" type="saturate" values="0"></feColorMatrix>
            <feComponentTransfer>
                <feFuncR type="table" tableValues="1 0"></feFuncR>
                <feFuncG type="table" tableValues="1 0"></feFuncG>
                <feFuncB type="table" tableValues="1 0"></feFuncB>
            </feComponentTransfer>
            <feComponentTransfer>
                <feFuncR type="linear" slope="10000" intercept="-4999.5"></feFuncR>
                <feFuncG type="linear" slope="10000" intercept="-4999.5"></feFuncG>
                <feFuncB type="linear" slope="10000" intercept="-4999.5"></feFuncB>
            </feComponentTransfer>
        </filter>
    </defs>
    <rect width="700" height="1563" fill="#ACACAC"></rect>
    <g class="theme_bookstore">
        <rect width="700" height="1563" fill="#FFFFFF"></rect>
        <g class="svgc_footer">
            <path d="M700 1463H0V1563H700V1463Z" fill="#FOOTER_COLOR" class="svgc_footer_bg"></path>
            <path d="M115 1516H70V1518H115V1516Z" fill="#FOOTER_COLOR" class="svgc_invert" filter="url(#filter_readability_theme_bookstore)"></path>
            <path d="M108 1510H70V1512H108V1510Z" fill="#FOOTER_COLOR" class="svgc_invert" filter="url(#filter_readability_theme_bookstore)"></path>
            <path d="M525 1486H456V1490H525V1486Z" fill="#FOOTER_COLOR" class="svgc_invert" filter="url(#filter_readability_theme_bookstore)"></path>
            <path d="M377 1498H223V1500H377V1498Z" fill="#FOOTER_COLOR" fill-opacity="0.4" class="svgc_invert" filter="url(#filter_readability_theme_bookstore)"></path>
            <path d="M356 1504H223V1506H356V1504Z" fill="#FOOTER_COLOR" fill-opacity="0.4" class="svgc_invert" filter="url(#filter_readability_theme_bookstore)"></path>
            <path d="M377 1522H223V1524H377V1522Z" fill="#FOOTER_COLOR" fill-opacity="0.4" class="svgc_invert" filter="url(#filter_readability_theme_bookstore)"></path>
            <path d="M356 1528H223V1530H356V1528Z" fill="#FOOTER_COLOR" fill-opacity="0.4" class="svgc_invert" filter="url(#filter_readability_theme_bookstore)"></path>
            <path d="M592 1498H456V1500H592V1498Z" fill="#FOOTER_COLOR" fill-opacity="0.4" class="svgc_invert" filter="url(#filter_readability_theme_bookstore)"></path>
            <path d="M573 1504H456V1506H573V1504Z" fill="#FOOTER_COLOR" fill-opacity="0.4" class="svgc_invert" filter="url(#filter_readability_theme_bookstore)"></path>
            <path d="M108 1498H70V1500H108V1498Z" fill="#FOOTER_COLOR" class="svgc_invert" filter="url(#filter_readability_theme_bookstore)"></path>
            <path d="M115 1504H70V1506H115V1504Z" fill="#FOOTER_COLOR" class="svgc_invert" filter="url(#filter_readability_theme_bookstore)"></path>
            <path d="M500 1530C503.866 1530 507 1526.87 507 1523C507 1519.13 503.866 1516 500 1516C496.134 1516 493 1519.13 493 1523C493 1526.87 496.134 1530 500 1530Z" fill="#FOOTER_COLOR" class="svgc_invert" filter="url(#filter_readability_theme_bookstore)"></path>
            <path d="M481 1530C484.866 1530 488 1526.87 488 1523C488 1519.13 484.866 1516 481 1516C477.134 1516 474 1519.13 474 1523C474 1526.87 477.134 1530 481 1530Z" fill="#FOOTER_COLOR" class="svgc_invert" filter="url(#filter_readability_theme_bookstore)"></path>
            <path d="M462 1530C465.866 1530 469 1526.87 469 1523C469 1519.13 465.866 1516 462 1516C458.134 1516 455 1519.13 455 1523C455 1526.87 458.134 1530 462 1530Z" fill="#FOOTER_COLOR" class="svgc_invert" filter="url(#filter_readability_theme_bookstore)"></path>
            <path d="M139 1486H70V1490H139V1486Z" fill="#FOOTER_COLOR" class="svgc_invert" filter="url(#filter_readability_theme_bookstore)"></path>
            <path d="M292 1486H223V1490H292V1486Z" fill="#FOOTER_COLOR" class="svgc_invert" filter="url(#filter_readability_theme_bookstore)"></path>
        </g>
        <g class="s_cta_box">
            <rect y="1205" width="700" height="258" fill="#F6F6F6"></rect>
            <rect y="1204" width="700" height="132" fill="#FFFFFF"></rect>
            <g>
                <path d="M423 1241H626C628.209 1241 630 1242.79 630 1245V1423C630 1425.21 628.209 1427 626 1427H423V1241Z" fill="url(#theme_bookstore_s_cta_box_default_image_id)" class="img_reference_s_cta_box_default_image"></path>
                <path d="M423 1427L74 1427C71.7908 1427 70 1425.21 70 1423L70 1245C70 1242.79 71.7908 1241 74 1241L423 1241L423 1427Z" fill="#3AADAA"></path>
                <rect x="110.257" y="1325" width="174.208" height="2" fill="#3AADAA" fill-opacity="0.4" class="svgc_invert" filter="url(#filter_readability_theme_bookstore)"></rect>
                <rect x="110.257" y="1335" width="193.462" height="2" fill="#3AADAA" fill-opacity="0.4" class="svgc_invert" filter="url(#filter_readability_theme_bookstore)"></rect>
                <text fill="#3AADAA" xml:space="preserve" style="white-space: pre" font-family="DM Serif Display" font-size="24" letter-spacing="0em" class="svgc_invert" filter="url(#filter_readability_theme_bookstore)">
                    <tspan x="110" y="1302.91">Section Title</tspan>
                </text>
                <g>
                    <rect x="110" y="1361" width="96" height="30" rx="4" fill="#FFFFFF"></rect>
                    <text fill="#FFFFFF" xml:space="preserve" style="white-space: pre" font-family="Arial" font-size="11" font-weight="bold" letter-spacing="0em" class="svgc_invert" filter="url(#filter_readability_theme_bookstore)">
                        <tspan x="135" y="1379.69">Discover</tspan>
                    </text>
                </g>
            </g>
        </g>
        <g class="s_accordion_image">
            <rect y="899" width="700" height="306" fill="#FFFFFF"></rect>
            <path d="M394 947C394 944.791 395.791 943 398 943H626C628.209 943 630 944.791 630 947V1157C630 1159.21 628.209 1161 626 1161H398C395.791 1161 394 1159.21 394 1157V947Z" fill="url(#theme_bookstore_s_accordion_image_default_image_id)" class="img_reference_s_accordion_image_default_image"></path>
            <path d="M357 1007H76C73.7909 1007 72 1008.79 72 1011V1058C72 1060.21 73.7909 1062 76 1062H357C359.209 1062 361 1060.21 361 1058V1011C361 1008.79 359.209 1007 357 1007Z" fill="#F6F6F6"></path>
            <path d="M305 987.069H72V989.069H305V987.069Z" fill="#FFFFFF" fill-opacity="0.4" class="svgc_invert" filter="url(#filter_readability_theme_bookstore)"></path>
            <text fill="#FFFFFF" xml:space="preserve" style="white-space: pre" font-family="DM Serif Display" font-size="30" letter-spacing="0em" class="svgc_invert" filter="url(#filter_readability_theme_bookstore)">
                <tspan x="72" y="974.015">Section Title</tspan>
            </text>
            <path d="M325 1035H82V1037H325V1035Z" fill="#FFFFFF" fill-opacity="0.4" class="svgc_invert" filter="url(#filter_readability_theme_bookstore)"></path>
            <path d="M292 1045H82V1047H292V1045Z" fill="#FFFFFF" fill-opacity="0.4" class="svgc_invert" filter="url(#filter_readability_theme_bookstore)"></path>
            <path d="M205 1017H82V1021H205V1017Z" fill="#FFFFFF" fill-opacity="0.4" class="svgc_invert" filter="url(#filter_readability_theme_bookstore)"></path>
            <path d="M350 1040H82V1042H350V1040Z" fill="#FFFFFF" fill-opacity="0.4" class="svgc_invert" filter="url(#filter_readability_theme_bookstore)"></path>
            <path d="M335 1050H82V1052H335V1050Z" fill="#FFFFFF" fill-opacity="0.4" class="svgc_invert" filter="url(#filter_readability_theme_bookstore)"></path>
            <path d="M342 1021L346 1017L350 1021" stroke="black" class="svgc_invert" fill="#FFFFFF" filter="url(#filter_readability_theme_bookstore)"></path>
            <path d="M205 1074H82V1078H205V1074Z" fill="#FFFFFF" fill-opacity="0.4" class="svgc_invert" filter="url(#filter_readability_theme_bookstore)"></path>
            <path d="M350 1074L346 1078L342 1074" stroke="black" class="svgc_invert" fill="#FFFFFF" filter="url(#filter_readability_theme_bookstore)"></path>
            <path d="M205 1098H82V1102H205V1098Z" fill="#FFFFFF" fill-opacity="0.4" class="svgc_invert" filter="url(#filter_readability_theme_bookstore)"></path>
            <path d="M350 1098L346 1102L342 1098" stroke="black" class="svgc_invert" fill="#FFFFFF" filter="url(#filter_readability_theme_bookstore)"></path>
        </g>
        <g class="s_title">
            <path d="M0 671H700V899C700 899 486.684 878.826 350 878.826C213.316 878.826 0 899 0 899V671Z" fill="url(#theme_bookstore_s_text_cover_default_image_id)" class="img_reference_s_text_cover_default_image"></path>
            <path d="M0 671H700V899C700 899 486.684 878.826 350 878.826C213.316 878.826 0 899 0 899V671Z" fill="black" fill-opacity="0.5"></path>
            <text fill="#383E45" xml:space="preserve" style="white-space: pre" font-family="DM Serif Display" font-size="24" letter-spacing="0em" class="svgc_invert" filter="url(#filter_readability_theme_bookstore)">
                <tspan x="71" y="752.912">Lorem ipsum dolor sit amet, consectetur adipiscing </tspan>
                <tspan x="71" y="785.912">elit. Praesent tristique fringilla.</tspan>
            </text>
            <rect x="71" y="810" width="111" height="4" fill="#383E45" fill-opacity="0.4" class="svgc_invert" filter="url(#filter_readability_theme_bookstore)"></rect>
        </g>
        <g class="s_key_images">
            <path d="M0 323C0 323 213.183 340.98 350 340.98C486.817 340.98 700 323 700 323V671H0V323Z" fill="#F6F6F6"></path>
            <g>
                <path d="M592.75 602.002H505.005V604.002H592.75V602.002Z" fill="#F6F6F6" fill-opacity="0.4" class="svgc_invert" filter="url(#filter_readability_theme_bookstore)"></path>
                <path d="M617.005 607.002H505.005V609.002H617.005V607.002Z" fill="#F6F6F6" fill-opacity="0.4" class="svgc_invert" filter="url(#filter_readability_theme_bookstore)"></path>
                <text fill="#F6F6F6" xml:space="preserve" style="white-space: pre" font-family="Arial" font-size="24" letter-spacing="0em" class="svgc_invert" filter="url(#filter_readability_theme_bookstore)">
                    <tspan x="505.005" y="478.32">04</tspan>
                </text>
                <rect x="505" y="488" width="126" height="106" rx="4" fill="url(#theme_bookstore_s_key_images_default_image_4_id)" class="img_reference_s_key_images_default_image_4"></rect>
            </g>
            <g>
                <path d="M447.747 602.003H360.001V604.003H447.747V602.003Z" fill="#F6F6F6" fill-opacity="0.4" class="svgc_invert" filter="url(#filter_readability_theme_bookstore)"></path>
                <path d="M472.001 607.003H360.001V609.003H472.001V607.003Z" fill="#F6F6F6" fill-opacity="0.4" class="svgc_invert" filter="url(#filter_readability_theme_bookstore)"></path>
                <text fill="#F6F6F6" xml:space="preserve" style="white-space: pre" font-family="Arial" font-size="24" letter-spacing="0em" class="svgc_invert" filter="url(#filter_readability_theme_bookstore)">
                    <tspan x="360.001" y="478.32">03</tspan>
                </text>
                <rect x="360" y="488" width="126" height="106" rx="4" fill="url(#theme_bookstore_s_key_images_default_image_3_id)" class="img_reference_s_key_images_default_image_3"></rect>
            </g>
            <g>
                <path d="M302.745 601H215V603H302.745V601Z" fill="#F6F6F6" fill-opacity="0.4" class="svgc_invert" filter="url(#filter_readability_theme_bookstore)"></path>
                <path d="M327 606H215V608H327V606Z" fill="#F6F6F6" fill-opacity="0.4" class="svgc_invert" filter="url(#filter_readability_theme_bookstore)"></path>
                <text fill="#F6F6F6" xml:space="preserve" style="white-space: pre" font-family="Arial" font-size="24" letter-spacing="0em" class="svgc_invert" filter="url(#filter_readability_theme_bookstore)">
                    <tspan x="215" y="478.32">02</tspan>
                </text>
                <rect x="215" y="488" width="126" height="106" rx="4" fill="url(#theme_bookstore_s_key_images_default_image_2_id)" class="img_reference_s_key_images_default_image_2"></rect>
            </g>
            <g>
                <path d="M157.745 601H70V603H157.745V601Z" fill="#F6F6F6" fill-opacity="0.4" class="svgc_invert" filter="url(#filter_readability_theme_bookstore)"></path>
                <path d="M182 606H70V608H182V606Z" fill="#F6F6F6" fill-opacity="0.4" class="svgc_invert" filter="url(#filter_readability_theme_bookstore)"></path>
                <text fill="#F6F6F6" xml:space="preserve" style="white-space: pre" font-family="Arial" font-size="24" letter-spacing="0em" class="svgc_invert" filter="url(#filter_readability_theme_bookstore)">
                    <tspan x="70" y="478.32">01</tspan>
                </text>
                <rect x="70" y="488" width="126" height="106" rx="4" fill="url(#theme_bookstore_s_key_images_default_image_1_id)" class="img_reference_s_key_images_default_image_1"></rect>
            </g>
            <path d="M288 431H70V433H288V431Z" fill="#F6F6F6" fill-opacity="0.4" class="svgc_invert" filter="url(#filter_readability_theme_bookstore)"></path>
            <path d="M303 426H70V428H303V426Z" fill="#F6F6F6" fill-opacity="0.4" class="svgc_invert" filter="url(#filter_readability_theme_bookstore)"></path>
            <text fill="#F6F6F6" xml:space="preserve" style="white-space: pre" font-family="DM Serif Display" font-size="30" letter-spacing="0em" class="svgc_invert" filter="url(#filter_readability_theme_bookstore)">
                <tspan x="70" y="411.015">Section Title</tspan>
            </text>
        </g>
        <g class="s_banner">
            <rect y="55" width="700" height="268" fill="#FFFFFF"></rect>
            <rect x="72" y="189" width="173" height="2" fill="#FFFFFF" fill-opacity="0.4" class="svgc_invert" filter="url(#filter_readability_theme_bookstore)"></rect>
            <rect x="72" y="203" width="97" height="2" fill="#FFFFFF" fill-opacity="0.4" class="svgc_invert" filter="url(#filter_readability_theme_bookstore)"></rect>
            <rect x="70" y="221" width="96" height="30" rx="4" fill="#3AADAA"></rect>
            <text fill="#3AADAA" xml:space="preserve" style="white-space: pre" font-family="Arial" font-size="11" font-weight="bold" letter-spacing="0em" class="svgc_invert" filter="url(#filter_readability_theme_bookstore)">
                <tspan x="95" y="239.694">Discover</tspan>
            </text>
            <rect x="462" y="93" width="137" height="191" rx="4" fill="url(#theme_bookstore_s_banner_default_image_2_id)" class="img_reference_s_banner_default_image_2"></rect>
            <g>
                <rect x="368" y="186" width="178" height="78" rx="4" fill="#FFFFFF"></rect>
                <rect x="368.5" y="186.5" width="177" height="77" rx="3.5" stroke="black" stroke-opacity="0.1"></rect>
            </g>
            <rect x="389" y="205" width="132" height="2" fill="#FFFFFF" fill-opacity="0.4" class="svgc_invert" filter="url(#filter_readability_theme_bookstore)"></rect>
            <rect x="389" y="214" width="78" height="2" fill="#FFFFFF" fill-opacity="0.4" class="svgc_invert" filter="url(#filter_readability_theme_bookstore)"></rect>
            <rect x="410" y="245" width="34" height="2" fill="#FFFFFF" fill-opacity="0.4" class="svgc_invert" filter="url(#filter_readability_theme_bookstore)"></rect>
            <rect x="410" y="237" width="37" height="4" fill="#FFFFFF" fill-opacity="0.4" class="svgc_invert" filter="url(#filter_readability_theme_bookstore)"></rect>
            <rect x="557" y="115" width="73" height="91" rx="4" fill="url(#theme_bookstore_s_banner_default_image_3_id)" class="img_reference_s_banner_default_image_3"></rect>
            <circle cx="395" cy="242" r="12" fill="#D9D9D9"></circle>
            <text fill="#FFFFFF" xml:space="preserve" style="white-space: pre" font-family="DM Serif Display" font-size="38" letter-spacing="0em" class="svgc_invert" filter="url(#filter_readability_theme_bookstore)">
                <tspan x="72" y="120.319">Welcome </tspan>
                <tspan x="72" y="164.319">Message</tspan>
            </text>
        </g>
        <g class="svgc_menu">
            <g class="svgc_menu_bg" fill="#MENU_COLOR">
                <mask fill="#FFFFFF">
                    <path d="M0 18H700V55H0V18Z"></path>
                </mask>
                <path d="M0 18H700V55H0V18Z" fill="#FFFFFF"></path>
                <path d="M0 19H700V17H0V19ZM700 54H0V56H700V54Z" fill="black" fill-opacity="0.1" mask="url(#path-81-inside-1_265_8)"></path>
            </g>
            <path d="M339.485 39.8929V38.536H335.812V32.1072H334V39.8929H339.485ZM344.081 40C344.837 40 345.517 39.843 346.123 39.5298C346.731 39.2176 347.21 38.7626 347.564 38.1666C347.917 37.5716 348.093 36.849 348.093 35.9996C348.093 35.1512 347.916 34.4286 347.563 33.8326C347.21 33.2376 346.731 32.7835 346.124 32.4703C345.517 32.1572 344.836 32.0002 344.08 32.0002C343.319 32.0002 342.635 32.1572 342.029 32.4703C341.425 32.7826 340.945 33.2376 340.595 33.8326C340.243 34.4286 340.068 35.1512 340.068 36.0005C340.068 36.8463 340.243 37.5671 340.595 38.1631C340.919 38.7336 341.417 39.2075 342.029 39.5281C342.635 39.8421 343.319 39.9991 344.08 39.9991L344.081 40ZM344.081 38.5431C343.675 38.5513 343.276 38.4494 342.934 38.2505C342.607 38.0551 342.354 37.7687 342.174 37.3914C341.994 37.014 341.904 36.5501 341.904 35.9996C341.904 35.4501 341.994 34.9862 342.174 34.6079C342.354 34.2305 342.607 33.9441 342.934 33.7496C343.275 33.5506 343.674 33.4488 344.08 33.457C344.518 33.457 344.9 33.5543 345.227 33.7496C345.553 33.9441 345.806 34.2314 345.986 34.6088C346.166 34.9862 346.256 35.4501 346.256 36.0005C346.256 36.5501 346.166 37.014 345.986 37.3914C345.806 37.7687 345.554 38.0551 345.227 38.2505C344.885 38.4497 344.487 38.5516 344.081 38.5431ZM353.19 39.9991C353.91 39.9991 354.549 39.8671 355.107 39.6021C355.655 39.3459 356.111 38.9528 356.421 38.4691C356.739 37.9784 356.898 37.3914 356.898 36.7071V35.7257H353.312V36.9658H355.15L355.146 37.0782C355.13 37.2897 355.078 37.4815 354.992 37.6537L354.921 37.7786C354.764 38.0232 354.531 38.2199 354.251 38.3433C353.96 38.4771 353.609 38.5431 353.199 38.5431C352.748 38.5431 352.355 38.4441 352.023 38.2452C351.691 38.0462 351.434 37.7563 351.253 37.3762C351.072 36.9962 350.981 36.5349 350.981 35.9925C350.981 35.4501 351.073 34.9906 351.257 34.6141C351.442 34.2376 351.699 33.9504 352.03 33.7532C352.373 33.5523 352.774 33.4492 353.183 33.457C353.416 33.457 353.63 33.4838 353.825 33.5364C354.018 33.59 354.191 33.6667 354.343 33.7666C354.495 33.8665 354.624 33.9878 354.73 34.1315C354.836 34.2742 354.919 34.4384 354.978 34.6239H356.819C356.765 34.2505 356.629 33.8906 356.421 33.565C356.216 33.2446 355.945 32.9627 355.624 32.7344C355.289 32.4967 354.912 32.3135 354.509 32.1929C354.072 32.0619 353.614 31.9968 353.153 32.0002C352.613 31.9957 352.077 32.0875 351.575 32.2705C351.093 32.4481 350.658 32.7162 350.299 33.0573C349.921 33.4193 349.631 33.8486 349.447 34.3179C349.245 34.8131 349.144 35.376 349.144 36.0077C349.144 36.8284 349.314 37.5377 349.652 38.1345C349.969 38.7098 350.463 39.1892 351.073 39.5147C351.682 39.8376 352.387 39.9991 353.19 39.9991ZM361.987 39.9991C362.743 39.9991 363.423 39.843 364.03 39.5298C364.637 39.2176 365.117 38.7626 365.47 38.1666C365.823 37.5716 366 36.849 366 35.9996C366 35.1512 365.823 34.4286 365.47 33.8326C365.116 33.2376 364.637 32.7835 364.03 32.4703C363.423 32.1572 362.743 32.0002 361.987 32.0002C361.225 32.0002 360.541 32.1572 359.936 32.4703C359.331 32.7826 358.852 33.2376 358.501 33.8326C358.149 34.4286 357.973 35.1512 357.973 36.0005C357.973 36.8463 358.149 37.5671 358.501 38.1631C358.852 38.759 359.331 39.214 359.936 39.5281C360.541 39.8421 361.225 39.9991 361.987 39.9991ZM361.987 38.5431C361.549 38.5431 361.166 38.445 360.84 38.2505C360.514 38.0551 360.26 37.7687 360.081 37.3914C359.9 37.014 359.811 36.5501 359.811 35.9996C359.811 35.4501 359.9 34.9862 360.081 34.6079C360.26 34.2305 360.513 33.9441 360.84 33.7496C361.182 33.5505 361.581 33.4486 361.987 33.457C362.425 33.457 362.807 33.5543 363.133 33.7496C363.46 33.9441 363.712 34.2314 363.893 34.6088C364.072 34.9862 364.163 35.4501 364.163 36.0005C364.163 36.5501 364.072 37.014 363.893 37.3914C363.712 37.7687 363.46 38.0551 363.133 38.2505C362.791 38.4495 362.392 38.5514 361.987 38.5431Z" fill="#MENU_COLOR" class="svgc_invert" filter="url(#filter_readability_theme_bookstore)"></path>
            <path d="M70 32H106V40H70V32Z" fill="#MENU_COLOR" fill-opacity="0.4" class="svgc_invert" filter="url(#filter_readability_theme_bookstore)"></path>
            <path d="M70 8H163V10H70V8Z" fill="#MENU_COLOR" fill-opacity="0.4" class="svgc_invert" filter="url(#filter_readability_theme_bookstore)"></path>
            <path d="M588 8H630V10H588V8Z" fill="#MENU_COLOR" fill-opacity="0.4" class="svgc_invert" filter="url(#filter_readability_theme_bookstore)"></path>
            <path d="M114 32H150V40H114V32Z" fill="#MENU_COLOR" fill-opacity="0.4" class="svgc_invert" filter="url(#filter_readability_theme_bookstore)"></path>
            <path d="M158 32H194V40H158V32Z" fill="#MENU_COLOR" fill-opacity="0.4" class="svgc_invert" filter="url(#filter_readability_theme_bookstore)"></path>
            <path d="M202 32H238V40H202V32Z" fill="#MENU_COLOR" fill-opacity="0.4" class="svgc_invert" filter="url(#filter_readability_theme_bookstore)"></path>
            <path d="M594 32C594 29.7909 595.791 28 598 28H626C628.209 28 630 29.7909 630 32V40C630 42.2091 628.209 44 626 44H598C595.791 44 594 42.2091 594 40V32Z" fill="#3AADAA"></path>
            <path d="M550 32H586V40H550V32Z" fill="#MENU_COLOR" fill-opacity="0.4" class="svgc_invert" filter="url(#filter_readability_theme_bookstore)"></path>
        </g>
    </g>
</svg>
