<svg xmlns="http://www.w3.org/2000/svg" viewBox="0 0 299.95 299.95"><circle cx="149.97" cy="149.97" r="149.97" style="fill:#f8ebd6"/><path d="M218.16,73.58a4.2,4.2,0,0,0-4.31.2c-9.33,6.18-18.66,3.09-29.46-.49-9.33-3.09-19.69-6.52-30.22-2.79v-5a4.2,4.2,0,1,0-8.4,0V77.24h0v38.49h0v44.79a4.2,4.2,0,0,0,8.4,0V118.16c8.71-4.65,17.51-1.74,27.58,1.6,6.43,2.13,13.35,4.43,20.48,4.43a28.62,28.62,0,0,0,16.26-4.92,4.17,4.17,0,0,0,1.88-3.49V77.28A4.2,4.2,0,0,0,218.16,73.58ZM212,113.4c-8.71,4.65-17.5,1.73-27.58-1.61-9.33-3.09-19.69-6.52-30.22-2.79V79.66c8.71-4.64,17.51-1.74,27.58,1.6,9.33,3.1,19.69,6.53,30.22,2.8Z" style="fill:#6ea29c"/><path d="M198.18,238.63a4.2,4.2,0,0,1-4.2-4.2V164.74H184.7v7.56a4.2,4.2,0,0,1-4.2,4.2H162a4.2,4.2,0,0,1-4.2-4.2v-7.56H142.15v7.56a4.2,4.2,0,0,1-4.2,4.2h-18.5a4.2,4.2,0,0,1-4.2-4.2v-7.56H106v69.69a4.2,4.2,0,1,1-8.39,0V160.54a4.19,4.19,0,0,1,4.19-4.2h17.69a4.2,4.2,0,0,1,4.19,4.2v7.56h10.12v-7.56a4.19,4.19,0,0,1,4.19-4.2h24a4.2,4.2,0,0,1,4.2,4.2v7.56H176.3v-7.56a4.2,4.2,0,0,1,4.2-4.2h17.68a4.2,4.2,0,0,1,4.2,4.2v73.89A4.2,4.2,0,0,1,198.18,238.63Z" style="fill:#684672"/><path d="M230.68,238.63H69.27a4.2,4.2,0,1,1,0-8.39H230.68a4.2,4.2,0,0,1,0,8.39Z" style="fill:#6ea29c"/></svg>