<svg width="700" height="2453" viewBox="0 0 700 2453" fill="none" xmlns="http://www.w3.org/2000/svg" data-vsvg="002" class="theme_enark_svg_preview">
    <defs>
        <pattern id="theme_enark_library_image_03_id" width="1" height="1" patternunits="objectBoundingBox">
            <image href="#library_image_03_url" preserveAspectRatio="xMidYMid slice" width="47" height="173"/>
        </pattern>
        <pattern id="theme_enark_library_image_13_id" width="1" height="1" patternunits="objectBoundingBox">
            <image href="#library_image_13_url" preserveAspectRatio="xMidYMid slice" width="125" height="102"/>
        </pattern>
        <pattern id="theme_enark_library_image_10_id" width="1" height="1" patternunits="objectBoundingBox">
            <image href="#library_image_10_url" preserveAspectRatio="xMidYMid slice" width="125" height="102"/>
        </pattern>
        <pattern id="theme_enark_library_image_05_id" width="1" height="1" patternunits="objectBoundingBox">
            <image href="#library_image_05_url" preserveAspectRatio="xMidYMid slice" width="140" height="173"/>
        </pattern>
        <pattern id="theme_enark_library_image_14_id" width="1" height="1" patternunits="objectBoundingBox">
            <image href="#library_image_14_url" preserveAspectRatio="xMidYMid slice" width="123" height="209"/>
        </pattern>
        <pattern id="theme_enark_library_image_16_id" width="1" height="1" patternunits="objectBoundingBox">
            <image href="#library_image_16_url" preserveAspectRatio="xMidYMid slice" width="97" height="173"/>
        </pattern>
        <pattern id="theme_enark_library_image_16_2_id" width="1" height="1" patternunits="objectBoundingBox">
            <image href="#library_image_16_url" preserveAspectRatio="xMidYMid slice" width="152" height="196"/>
        </pattern>
        <pattern id="theme_enark_library_image_03_2_id" width="1" height="1" patternunits="objectBoundingBox">
            <image href="#library_image_03_url" preserveAspectRatio="xMidYMid slice" width="152" height="73"/>
        </pattern>
        <pattern id="theme_enark_library_image_13_2_id" width="1" height="1" patternunits="objectBoundingBox">
            <image href="#library_image_13_url" preserveAspectRatio="xMidYMid slice" width="152" height="96"/>
        </pattern>
        <pattern id="theme_enark_library_image_05_2_id" width="1" height="1" patternunits="objectBoundingBox">
            <image href="#library_image_05_url" preserveAspectRatio="xMidYMid slice" width="234" height="155"/>
        </pattern>
        <pattern id="theme_enark_library_image_10_2_id" width="1" height="1" patternunits="objectBoundingBox">
            <image href="#library_image_10_url" preserveAspectRatio="xMidYMid slice" width="234" height="155"/>
        </pattern>
        <pattern id="theme_enark_library_image_13_3_id" width="1" height="1" patternunits="objectBoundingBox">
            <image href="#library_image_13_url" preserveAspectRatio="xMidYMid slice" width="234" height="155"/>
        </pattern>
        <pattern id="theme_enark_library_image_14_2_id" width="1" height="1" patternunits="objectBoundingBox">
            <image href="#library_image_14_url" preserveAspectRatio="xMidYMid slice" width="234" height="155"/>
        </pattern>
        <pattern id="theme_enark_library_image_16_3_id" width="1" height="1" patternunits="objectBoundingBox">
            <image href="#library_image_16_url" preserveAspectRatio="xMidYMid slice" width="234" height="155"/>
        </pattern>
        <pattern id="theme_enark_library_image_03_3_id" width="1" height="1" patternunits="objectBoundingBox">
            <image href="#library_image_03_url" preserveAspectRatio="xMidYMid slice" width="234" height="155"/>
        </pattern>
        <pattern id="theme_enark_s_reference_demo_image_1_id" width="1" height="1" patternunits="objectBoundingBox">
            <image href="/web/image/website.s_reference_demo_image_1" width="84" height="84"/>
        </pattern>
        <pattern id="theme_enark_s_reference_demo_image_2_id" width="1" height="1" patternunits="objectBoundingBox">
            <image href="/web/image/website.s_reference_demo_image_2" width="84" height="84"/>
        </pattern>
        <pattern id="theme_enark_s_reference_demo_image_3_id" width="1" height="1" patternunits="objectBoundingBox">
            <image href="/web/image/website.s_reference_demo_image_3" width="84" height="84"/>
        </pattern>
        <pattern id="theme_enark_s_reference_demo_image_4_id" width="1" height="1" patternunits="objectBoundingBox">
            <image href="/web/image/website.s_reference_demo_image_4" width="84" height="84"/>
        </pattern>
        <pattern id="theme_enark_s_reference_demo_image_5_id" width="1" height="1" patternunits="objectBoundingBox">
            <image href="/web/image/website.s_reference_demo_image_1" width="84" height="84"/>
        </pattern>
        <pattern id="theme_enark_s_reference_demo_image_6_id" width="1" height="1" patternunits="objectBoundingBox">
            <image href="/web/image/website.s_reference_demo_image_2" width="84" height="84"/>
        </pattern>
        <pattern id="theme_enark_library_image_02_id" width="1" height="1" patternunits="objectBoundingBox">
            <image href="#library_image_02_url" preserveAspectRatio="xMidYMid slice" width="208" height="208"/>
        </pattern>
        <filter id="filter_readability_theme_enark">
            <feColorMatrix in="SourceGraphic" type="saturate" values="0"/>
            <feComponentTransfer>
                <feFuncR type="table" tableValues="1 0"/>
                <feFuncG type="table" tableValues="1 0"/>
                <feFuncB type="table" tableValues="1 0"/>
            </feComponentTransfer>
            <feComponentTransfer>
                <feFuncR type="linear" slope="10000" intercept="-4999.5"/>
                <feFuncG type="linear" slope="10000" intercept="-4999.5"/>
                <feFuncB type="linear" slope="10000" intercept="-4999.5"/>
            </feComponentTransfer>
        </filter>
    </defs>
	<rect width="700" height="2453" fill="#FFFFFF"/>
	<g class="svgc_menu">
		<path d="M700 0H0V28H700V0Z" fill="#MENU_COLOR" class="svgc_menu_bg"/>
		<path d="M630 0H569V28H630V0Z" fill="#3AADAA"/>
		<path d="M319.347 10H282.347V17H319.347V10Z" fill="#MENU_COLOR" fill-opacity="0.3" class="svgc_invert" filter="url(#filter_readability_theme_enark)"/>
		<path d="M265.347 10H228.347V17H265.347V10Z" fill="#MENU_COLOR" fill-opacity="0.3" class="svgc_invert" filter="url(#filter_readability_theme_enark)"/>
		<path d="M211.347 10H174.347V17H211.347V10Z" fill="#MENU_COLOR" fill-opacity="0.3" class="svgc_invert" filter="url(#filter_readability_theme_enark)"/>
		<path d="M157.347 10H120.347V17H157.347V10Z" fill="#MENU_COLOR" class="svgc_invert" filter="url(#filter_readability_theme_enark)"/>
		<path d="M76.345 18.8472V17.3262H72.604V10.1202H70.759V18.8472H76.345ZM81.025 18.9672C81.795 18.9672 82.488 18.7912 83.105 18.4402C83.724 18.0902 84.212 17.5802 84.572 16.9122C84.932 16.2452 85.111 15.4352 85.111 14.4832C85.111 13.5322 84.931 12.7222 84.571 12.0542C84.212 11.3872 83.724 10.8782 83.106 10.5272C82.488 10.1762 81.794 10.0002 81.024 10.0002C80.249 10.0002 79.553 10.1762 78.936 10.5272C78.32 10.8772 77.832 11.3872 77.475 12.0542C77.117 12.7222 76.938 13.5322 76.938 14.4842C76.938 15.4322 77.117 16.2402 77.475 16.9082C77.8052 17.5477 78.3124 18.0788 78.936 18.4382C79.553 18.7902 80.249 18.9662 81.024 18.9662L81.025 18.9672ZM81.025 17.3342C80.6118 17.3433 80.2051 17.2291 79.857 17.0062C79.524 16.7872 79.267 16.4662 79.083 16.0432C78.9 15.6202 78.808 15.1002 78.808 14.4832C78.808 13.8672 78.9 13.3472 79.083 12.9232C79.266 12.5002 79.524 12.1792 79.857 11.9612C80.2047 11.7381 80.6111 11.6239 81.024 11.6332C81.47 11.6332 81.859 11.7422 82.192 11.9612C82.524 12.1792 82.782 12.5012 82.965 12.9242C83.149 13.3472 83.24 13.8672 83.24 14.4842C83.24 15.1002 83.149 15.6202 82.965 16.0432C82.782 16.4662 82.525 16.7872 82.192 17.0062C81.8441 17.2294 81.4383 17.3436 81.025 17.3342ZM90.302 18.9662C91.035 18.9662 91.686 18.8182 92.254 18.5212C92.812 18.234 93.2762 17.7934 93.592 17.2512C93.916 16.7012 94.078 16.0432 94.078 15.2762V14.1762H90.426V15.5662H92.298L92.294 15.6922C92.277 15.9292 92.224 16.1442 92.137 16.3372L92.064 16.4772C91.9049 16.7514 91.6674 16.9719 91.382 17.1102C91.086 17.2602 90.728 17.3342 90.311 17.3342C89.851 17.3342 89.451 17.2232 89.113 17.0002C88.775 16.7772 88.513 16.4522 88.329 16.0262C88.145 15.6002 88.052 15.0832 88.052 14.4752C88.052 13.8672 88.146 13.3522 88.333 12.9302C88.521 12.5082 88.783 12.1862 89.12 11.9652C89.4695 11.74 89.8784 11.6244 90.294 11.6332C90.532 11.6332 90.75 11.6632 90.948 11.7222C91.145 11.7822 91.321 11.8682 91.476 11.9802C91.631 12.0922 91.762 12.2282 91.87 12.3892C91.978 12.5492 92.062 12.7332 92.122 12.9412H93.997C93.9419 12.5226 93.8043 12.1191 93.592 11.7542C93.383 11.3951 93.1074 11.0791 92.78 10.8232C92.4396 10.5568 92.0556 10.3514 91.645 10.2162C91.1996 10.0693 90.7331 9.99637 90.264 10.0002C89.7137 9.99517 89.1677 10.0981 88.657 10.3032C88.1664 10.5023 87.7234 10.8028 87.357 11.1852C86.973 11.5908 86.6777 12.0721 86.49 12.5982C86.284 13.1532 86.181 13.7842 86.181 14.4922C86.181 15.4122 86.354 16.2072 86.699 16.8762C87.0215 17.521 87.5242 18.0584 88.146 18.4232C88.766 18.7852 89.484 18.9662 90.302 18.9662ZM99.26 18.9662C100.03 18.9662 100.723 18.7912 101.341 18.4402C101.959 18.0902 102.448 17.5802 102.807 16.9122C103.167 16.2452 103.347 15.4352 103.347 14.4832C103.347 13.5322 103.167 12.7222 102.807 12.0542C102.447 11.3872 101.959 10.8782 101.341 10.5272C100.723 10.1762 100.03 10.0002 99.26 10.0002C98.484 10.0002 97.788 10.1762 97.172 10.5272C96.555 10.8772 96.068 11.3872 95.71 12.0542C95.352 12.7222 95.173 13.5322 95.173 14.4842C95.173 15.4322 95.352 16.2402 95.71 16.9082C96.068 17.5762 96.555 18.0862 97.172 18.4382C97.788 18.7902 98.484 18.9662 99.26 18.9662ZM99.26 17.3342C98.814 17.3342 98.424 17.2242 98.092 17.0062C97.76 16.7872 97.502 16.4662 97.319 16.0432C97.135 15.6202 97.044 15.1002 97.044 14.4832C97.044 13.8672 97.135 13.3472 97.319 12.9232C97.502 12.5002 97.759 12.1792 98.092 11.9612C98.44 11.7379 98.8467 11.6237 99.26 11.6332C99.706 11.6332 100.095 11.7422 100.427 11.9612C100.76 12.1792 101.017 12.5012 101.201 12.9242C101.384 13.3472 101.476 13.8672 101.476 14.4842C101.476 15.1002 101.384 15.6202 101.201 16.0432C101.017 16.4662 100.76 16.7872 100.427 17.0062C100.079 17.2292 99.673 17.3434 99.26 17.3342Z" fill="#MENU_COLOR" class="svgc_invert" filter="url(#filter_readability_theme_enark)"/>
		<rect x="111.347" width="1" height="28" fill="#MENU_COLOR" fill-opacity="0.2" class="svgc_invert" filter="url(#filter_readability_theme_enark)"/>
		<rect x="165.347" width="1" height="28" fill="#MENU_COLOR" fill-opacity="0.2" class="svgc_invert" filter="url(#filter_readability_theme_enark)"/>
		<rect x="273.347" width="1" height="28" fill="#MENU_COLOR" fill-opacity="0.2" class="svgc_invert" filter="url(#filter_readability_theme_enark)"/>
		<rect x="219.347" width="1" height="28" fill="#MENU_COLOR" fill-opacity="0.2" class="svgc_invert" filter="url(#filter_readability_theme_enark)"/>
		<rect x="327.347" width="1" height="28" fill="#MENU_COLOR" fill-opacity="0.2" class="svgc_invert" filter="url(#filter_readability_theme_enark)"/>
	</g>
	<g class="s_freegrid">
		<rect y="28" width="700" height="445" fill="#FFFFFF"/>
		<rect y="28" width="700" height="150" fill="#383E45"/>
		<rect x="70" y="112" width="47" height="173" fill="url(#theme_enark_library_image_03_id)" class="img_reference_library_image_03"/>
		<rect x="124" y="93" width="125" height="102" fill="url(#theme_enark_library_image_13_id)" class="img_reference_library_image_13"/>
		<rect x="124" y="202" width="125" height="102" fill="url(#theme_enark_library_image_10_id)" class="img_reference_library_image_10"/>
		<rect x="256" y="112" width="140" height="173" fill="url(#theme_enark_library_image_05_id)" class="img_reference_library_image_05"/>
		<rect x="403" y="93" width="123" height="209" fill="url(#theme_enark_library_image_14_id)" class="img_reference_library_image_14"/>
		<rect x="533" y="112" width="97" height="173" fill="url(#theme_enark_library_image_16_id)" class="img_reference_library_image_16"/>
		<text transform="translate(93 396)" text-anchor="Start" fill="#000000" font-size="30" font-family="Arial" font-weight="700"><tspan x="-22.471" y="0">Welcome Message</tspan></text>
		<path d="M398 412H70V414H398V412Z" fill="#FFFFFF" fill-opacity="0.4" class="svgc_invert" filter="url(#filter_readability_theme_enark)"/>
		<path d="M374 417H70V419H374V417Z" fill="#FFFFFF" fill-opacity="0.4" class="svgc_invert" filter="url(#filter_readability_theme_enark)"/>
		<path d="M290 422H70V424H290V422Z" fill="#FFFFFF" fill-opacity="0.4" class="svgc_invert" filter="url(#filter_readability_theme_enark)"/>
		<rect x="536" y="372" width="94" height="28" fill="#3AADAA"/>
		<text transform="translate(606 390)" text-anchor="Middle" fill="#FFFFFF" font-size="10" font-family="Arial" font-weight="700"><tspan x="-22.471" y="0">DISCOVER</tspan></text>
	</g>
	<g class="s_feature_wall">
		<rect y="473" width="700" height="623" fill="#FFFFFF"/>
		<g opacity="0.25">
			<path d="M697.4 811L0 1096L700 811H697.4Z" fill="#383E45"/>
			<path d="M0 1096L700 821.6V820.5L0 1096Z" fill="#383E45"/>
			<path d="M0 1096L700 832.55V831.5L0 1096Z" fill="#383E45"/>
			<path d="M0 1096L700 843.9V842.85L0 1096Z" fill="#383E45"/>
			<path d="M0 1096L700 855.6V854.55L0 1096Z" fill="#383E45"/>
			<path d="M700 813.5L689.05 814.4L689.1 815.4L700 814.5V813.5Z" fill="#383E45"/>
			<path d="M0 1096L700 867.7V866.65L0 1096Z" fill="#383E45"/>
			<path d="M700 819.55H676.45V820.55H700V819.55Z" fill="#383E45"/>
			<path d="M699.9 879.9L0 1096L700 880.95V880.3L699.9 879.9Z" fill="#383E45"/>
			<path d="M700 827.55L661.25 825.75L661.2 826.75L700 828.55V827.55Z" fill="#383E45"/>
			<path d="M0 1096L700 893.25V892.2L0 1096Z" fill="#383E45"/>
			<path d="M700 838.5L647.2 832.45L647.3 831.45L700 837.5V838.5Z" fill="#383E45"/>
			<path d="M0 1096L700 906.75V905.7L0 1096Z" fill="#383E45"/>
			<path d="M700 850.55L633.15 838.15L633.35 837.15L700 849.5V850.55Z" fill="#383E45"/>
			<path d="M0 1096L700 920.75V919.7L0 1096Z" fill="#383E45"/>
			<path d="M619.3 842.9L619.05 843.85L700 864.65V863.65L619.3 842.9Z" fill="#383E45"/>
			<path d="M0 1096L700 935.25V934.2L0 1096Z" fill="#383E45"/>
			<path d="M604.9 848.55L604.6 849.5L699.9 880.85L700 880.5V879.85L604.9 848.55Z" fill="#383E45"/>
			<path d="M0 1096L700 950.3V949.3L0 1096Z" fill="#383E45"/>
			<path d="M590.75 854.35L590.35 855.3L700 899.35V898.3L590.75 854.35Z" fill="#383E45"/>
			<path d="M0 1096L700 966V965L0 1096Z" fill="#383E45"/>
			<path d="M576.55 860.2L576.15 861.1L700 920.15V919L576.55 860.2Z" fill="#383E45"/>
			<path d="M0 1096L700 982.3V981.25L0 1096Z" fill="#383E45"/>
			<path d="M563.05 865.9L562.55 866.8L700 943.15V942L563.05 865.9Z" fill="#383E45"/>
			<path d="M0 1096L700 999.25V998.25L0 1096Z" fill="#383E45"/>
			<path d="M548.8 871.7L548.3 872.55L700 968.55V967.4L548.8 871.7Z" fill="#383E45"/>
			<path d="M0 1096L700 1017V1016L0 1096Z" fill="#383E45"/>
			<path d="M534.65 877.55L534.05 878.35L700 996.5V995.25L534.65 877.55Z" fill="#383E45"/>
			<path d="M0 1096L700 1035.45V1034.45L0 1096Z" fill="#383E45"/>
			<path d="M520.5 883.2L519.85 884L700 1026.8V1025.55L520.5 883.2Z" fill="#383E45"/>
			<path d="M0 1096L700 1054.7V1053.7L0 1096Z" fill="#383E45"/>
			<path d="M506.25 889L505.6 889.8L700 1059.8V1058.45L506.25 889Z" fill="#383E45"/>
			<path d="M0 1096L700 1074.85V1073.85L0 1096Z" fill="#383E45"/>
			<path d="M491.55 895.55L700 1096V1094.6L492.25 894.85L491.55 895.55Z" fill="#383E45"/>
			<path d="M0 1096L700 1095.5V1096H0Z" fill="#383E45"/>
		</g>
		<path d="M630 604H431V606H630V604Z" fill="#FFFFFF" fill-opacity="0.4" class="svgc_invert" filter="url(#filter_readability_theme_enark)"/>
		<path d="M630 616H482V618H630V616Z" fill="#FFFFFF" fill-opacity="0.4" class="svgc_invert" filter="url(#filter_readability_theme_enark)"/>
		<path d="M630 610H431V612H630V610Z" fill="#FFFFFF" fill-opacity="0.4" class="svgc_invert" filter="url(#filter_readability_theme_enark)"/>
		<text transform="translate(652 583)" text-anchor="End" fill="#000000" font-size="24" font-family="Arial" font-weight="700"><tspan x="-22.471" y="0">Section Title</tspan></text>
		<path d="M222 808H70V810H222V808Z" fill="#FFFFFF" fill-opacity="0.4" class="svgc_invert" filter="url(#filter_readability_theme_enark)"/>
		<path d="M381 661H229V663H381V661Z" fill="#FFFFFF" fill-opacity="0.4" class="svgc_invert" filter="url(#filter_readability_theme_enark)"/>
		<path d="M381 854H229V856H381V854Z" fill="#FFFFFF" fill-opacity="0.4" class="svgc_invert" filter="url(#filter_readability_theme_enark)"/>
		<path d="M222 814H70V816H222V814Z" fill="#FFFFFF" fill-opacity="0.4" class="svgc_invert" filter="url(#filter_readability_theme_enark)"/>
		<path d="M381 667H229V669H381V667Z" fill="#FFFFFF" fill-opacity="0.4" class="svgc_invert" filter="url(#filter_readability_theme_enark)"/>
		<path d="M381 679H229V681H381V679Z" fill="#FFFFFF" fill-opacity="0.4" class="svgc_invert" filter="url(#filter_readability_theme_enark)"/>
		<path d="M381 860H229V862H381V860Z" fill="#FFFFFF" fill-opacity="0.4" class="svgc_invert" filter="url(#filter_readability_theme_enark)"/>
		<path d="M195 820H70V822H195V820Z" fill="#FFFFFF" fill-opacity="0.4" class="svgc_invert" filter="url(#filter_readability_theme_enark)"/>
		<path d="M381 673H229V675H381V673Z" fill="#FFFFFF" fill-opacity="0.4" class="svgc_invert" filter="url(#filter_readability_theme_enark)"/>
		<path d="M354 685H229V687H354V685Z" fill="#FFFFFF" fill-opacity="0.4" class="svgc_invert" filter="url(#filter_readability_theme_enark)"/>
		<path d="M354 866H229V868H354V866Z" fill="#FFFFFF" fill-opacity="0.4" class="svgc_invert" filter="url(#filter_readability_theme_enark)"/>
		<text transform="translate(92 799)" text-anchor="Start" fill="#000000" font-size="14" font-family="Arial" font-weight="700"><tspan x="-22.471" y="0">Entry Title</tspan></text>
		<text transform="translate(252 652)" text-anchor="Start" fill="#000000" font-size="14" font-family="Arial" font-weight="700"><tspan x="-22.471" y="0">Entry Title</tspan></text>
		<text transform="translate(252 845)" text-anchor="Start" fill="#000000" font-size="14" font-family="Arial" font-weight="700"><tspan x="-22.471" y="0">Entry Title</tspan></text>
		<rect x="70" y="583" width="152" height="196" fill="url(#theme_enark_library_image_16_2_id)" class="img_reference_library_image_16_2"/>
		<rect x="229" y="560" width="152" height="73" fill="url(#theme_enark_library_image_03_2_id)" class="img_reference_library_image_03_2"/>
		<rect x="229" y="730" width="152" height="96" fill="url(#theme_enark_library_image_13_2_id)" class="img_reference_library_image_13_2"/>
	</g>
	<g class="s_numbers_list">
		<rect y="1096" width="700" height="365" fill="#FFFFFF"/>
		<path d="M630 1201H390V1202H630V1201Z" fill="#FFFFFF" fill-opacity="0.1" class="svgc_invert" filter="url(#filter_readability_theme_enark)"/>
		<path d="M630 1283H390V1284H630V1283Z" fill="#FFFFFF" fill-opacity="0.1" class="svgc_invert" filter="url(#filter_readability_theme_enark)"/>
		<path d="M265 1188H71V1190H265V1188Z" fill="#FFFFFF" fill-opacity="0.4" class="svgc_invert" filter="url(#filter_readability_theme_enark)"/>
		<path d="M251 1193H71V1195H251V1193Z" fill="#FFFFFF" fill-opacity="0.4" class="svgc_invert" filter="url(#filter_readability_theme_enark)"/>
		<path d="M201 1198H71V1200H201V1198Z" fill="#FFFFFF" fill-opacity="0.4" class="svgc_invert" filter="url(#filter_readability_theme_enark)"/>
		<path d="M224 1203H71V1205H224V1203Z" fill="#FFFFFF" fill-opacity="0.4" class="svgc_invert" filter="url(#filter_readability_theme_enark)"/>
		<text transform="translate(93 1170)" text-anchor="Start" fill="#000000" font-size="20" font-family="Arial" font-weight="700"><tspan x="-22.471" y="0">Entry Title</tspan></text>
		<path d="M489 1249H415V1251H489V1249Z" fill="#FFFFFF" fill-opacity="0.4" class="svgc_invert" filter="url(#filter_readability_theme_enark)"/>
		<path d="M452 1234H415V1244H452V1234Z" fill="#FFFFFF" class="svgc_invert" filter="url(#filter_readability_theme_enark)"/>
		<path d="M606 1249H532V1251H606V1249Z" fill="#FFFFFF" fill-opacity="0.4" class="svgc_invert" filter="url(#filter_readability_theme_enark)"/>
		<path d="M569 1234H532V1244H569V1234Z" fill="#FFFFFF" class="svgc_invert" filter="url(#filter_readability_theme_enark)"/>
		<path d="M489 1167H415V1169H489V1167Z" fill="#FFFFFF" fill-opacity="0.4" class="svgc_invert" filter="url(#filter_readability_theme_enark)"/>
		<path d="M452 1152H415V1162H452V1152Z" fill="#FFFFFF" class="svgc_invert" filter="url(#filter_readability_theme_enark)"/>
		<path d="M606 1167H532V1169H606V1167Z" fill="#FFFFFF" fill-opacity="0.4" class="svgc_invert" filter="url(#filter_readability_theme_enark)"/>
		<path d="M569 1152H532V1162H569V1152Z" fill="#FFFFFF" class="svgc_invert" filter="url(#filter_readability_theme_enark)"/>
		<path d="M489 1331H415V1333H489V1331Z" fill="#FFFFFF" fill-opacity="0.4" class="svgc_invert" filter="url(#filter_readability_theme_enark)"/>
		<path d="M452 1316H415V1326H452V1316Z" fill="#FFFFFF" class="svgc_invert" filter="url(#filter_readability_theme_enark)"/>
		<path d="M606 1331H532V1333H606V1331Z" fill="#FFFFFF" fill-opacity="0.4" class="svgc_invert" filter="url(#filter_readability_theme_enark)"/>
		<path d="M569 1316H532V1326H569V1316Z" fill="#FFFFFF" class="svgc_invert" filter="url(#filter_readability_theme_enark)"/>
		<rect x="70" y="1239" width="94" height="28" fill="#3AADAA"/>
		<text transform="translate(140 1255)" text-anchor="Middle" fill="#FFFFFF" font-size="10" font-family="Arial" font-weight="700"><tspan x="-22.471" y="0">DISCOVER</tspan></text>
	</g>
	<g class="s_title">
		<rect y="1461" width="700" height="102" fill="#FFFFFF"/>
		<text transform="translate(93 1520)" text-anchor="Start" fill="#000000" font-size="24" font-family="Arial" font-weight="700"><tspan x="-22.471" y="0">Section Title</tspan></text>
	</g>
	<g class="s_images_wall">
		<path d="M467 1718H234V1873H467V1718Z" fill="url(#theme_enark_library_image_05_2_id)" class="img_reference_library_image_05_2"/>
		<path d="M234 1718H0V1873H234V1718Z" fill="url(#theme_enark_library_image_10_2_id)" class="img_reference_library_image_10_2"/>
		<path d="M467 1563H234V1718H467V1563Z" fill="url(#theme_enark_library_image_13_3_id)" class="img_reference_library_image_13_3"/>
		<path d="M700 1563H467V1718H700V1563Z" fill="url(#theme_enark_library_image_14_2_id)" class="img_reference_library_image_14_2"/>
		<path d="M700 1718H467V1873H700V1718Z" fill="url(#theme_enark_library_image_16_3_id)" class="img_reference_library_image_16_3"/>
		<path d="M234 1563H0V1718H234V1563Z" fill="url(#theme_enark_library_image_03_3_id)" class="img_reference_library_image_03_3"/>
	</g>
	<g class="s_references">
		<rect y="1873" width="700" height="225" fill="#F6F6F6"/>
		<path d="M112 2054C135.196 2054 154 2035.2 154 2012C154 1988.8 135.196 1970 112 1970C88.804 1970 70 1988.8 70 2012C70 2035.2 88.804 2054 112 2054Z" fill="url(#theme_enark_s_reference_demo_image_1_id)" class="img_reference_s_reference_demo_image_1"/>
		<path d="M207.2 2054C230.396 2054 249.2 2035.2 249.2 2012C249.2 1988.8 230.396 1970 207.2 1970C184.004 1970 165.2 1988.8 165.2 2012C165.2 2035.2 184.004 2054 207.2 2054Z" fill="url(#theme_enark_s_reference_demo_image_2_id)" class="img_reference_s_reference_demo_image_2"/>
		<path d="M302.4 2054C325.596 2054 344.4 2035.2 344.4 2012C344.4 1988.8 325.596 1970 302.4 1970C279.204 1970 260.4 1988.8 260.4 2012C260.4 2035.2 279.204 2054 302.4 2054Z" fill="url(#theme_enark_s_reference_demo_image_3_id)" class="img_reference_s_reference_demo_image_3"/>
		<path d="M397.6 2054C420.796 2054 439.6 2035.2 439.6 2012C439.6 1988.8 420.796 1970 397.6 1970C374.404 1970 355.6 1988.8 355.6 2012C355.6 2035.2 374.404 2054 397.6 2054Z" fill="url(#theme_enark_s_reference_demo_image_4_id)" class="img_reference_s_reference_demo_image_4"/>
		<path d="M492.8 2054C515.996 2054 534.8 2035.2 534.8 2012C534.8 1988.8 515.996 1970 492.8 1970C469.604 1970 450.8 1988.8 450.8 2012C450.8 2035.2 469.604 2054 492.8 2054Z" fill="url(#theme_enark_s_reference_demo_image_5_id)" class="img_reference_s_reference_demo_image_5"/>
		<path d="M588 2054C611.196 2054 630 2035.2 630 2012C630 1988.8 611.196 1970 588 1970C564.804 1970 546 1988.8 546 2012C546 2035.2 564.804 2054 588 2054Z" fill="url(#theme_enark_s_reference_demo_image_6_id)" class="img_reference_s_reference_demo_image_6"/>
		<path d="M384 1942.52H290.559V1944.52H384V1942.52Z" fill="#F6F6F6" fill-opacity="0.4" class="svgc_invert" filter="url(#filter_readability_theme_enark)"/>
		<path d="M378.435 1947.52H296.559V1949.52H378.435V1947.52Z" fill="#F6F6F6" fill-opacity="0.4" class="svgc_invert" filter="url(#filter_readability_theme_enark)"/>
		<text transform="translate(360 1925)" text-anchor="Middle" fill="#000000" font-size="22" font-family="Arial" font-weight="700"><tspan x="-22.471" y="0">Section Title</tspan></text>
	</g>
	<g class="s_call_to_action">
		<path d="M700 2098H0V2353H700V2098Z" fill="#F6F6F6"/>
		<rect x="70" y="2106" width="560" height="208" fill="#383E45"/>
		<text transform="translate(146 2174)" text-anchor="Start" fill="#FFFFFF" font-size="20" font-family="Arial" font-weight="700"><tspan x="-22.471" y="0">Section Title</tspan></text>
		<path d="M282 2191H124V2193H282V2191Z" fill="#383E45" fill-opacity="0.4" class="svgc_invert" filter="url(#filter_readability_theme_enark)"/>
		<path d="M272 2196H124V2198H272V2196Z" fill="#383E45" fill-opacity="0.4" class="svgc_invert" filter="url(#filter_readability_theme_enark)"/>
		<rect x="124" y="2219" width="94" height="28" fill="#3AADAA"/>
		<text transform="translate(194 2236)" text-anchor="Middle" fill="#FFFFFF" font-size="10" font-family="Arial" font-weight="700"><tspan x="-22.471" y="0">DISCOVER</tspan></text>
		<rect x="420" y="2106" width="210" height="208" fill="url(#theme_enark_library_image_02_id)" class="img_reference_library_image_02"/>
	</g>
	<g class="svgc_footer">
		<path d="M700 2353H0V2453H700V2353Z" fill="#FOOTER_COLOR" class="svgc_footer_bg"/>
		<path d="M630 2401H578V2403H630V2401Z" fill="#FOOTER_COLOR" class="svgc_invert" filter="url(#filter_readability_theme_enark)"/>
		<path d="M615 2395H578V2397H615V2395Z" fill="#FOOTER_COLOR" class="svgc_invert" filter="url(#filter_readability_theme_enark)"/>
		<path d="M234 2399H70V2401H234V2399Z" fill="#FOOTER_COLOR" fill-opacity="0.4" class="svgc_invert" filter="url(#filter_readability_theme_enark)"/>
		<path d="M234 2405H70V2407H234V2405Z" fill="#FOOTER_COLOR" fill-opacity="0.4" class="svgc_invert" filter="url(#filter_readability_theme_enark)"/>
		<path d="M234 2411H70V2413H234V2411Z" fill="#FOOTER_COLOR" fill-opacity="0.4" class="svgc_invert" filter="url(#filter_readability_theme_enark)"/>
		<path d="M234 2417H70V2419H234V2417Z" fill="#FOOTER_COLOR" fill-opacity="0.4" class="svgc_invert" filter="url(#filter_readability_theme_enark)"/>
		<path d="M234 2423H70V2425H234V2423Z" fill="#FOOTER_COLOR" fill-opacity="0.4" class="svgc_invert" filter="url(#filter_readability_theme_enark)"/>
		<path d="M327 2399H280V2401H327V2399Z" fill="#FOOTER_COLOR" fill-opacity="0.4" class="svgc_invert" filter="url(#filter_readability_theme_enark)"/>
		<path d="M375 2405H280V2407H375V2405Z" fill="#FOOTER_COLOR" fill-opacity="0.4" class="svgc_invert" filter="url(#filter_readability_theme_enark)"/>
		<path d="M388 2411H280V2413H388V2411Z" fill="#FOOTER_COLOR" fill-opacity="0.4" class="svgc_invert" filter="url(#filter_readability_theme_enark)"/>
		<path d="M415 2417H280V2419H415V2417Z" fill="#FOOTER_COLOR" fill-opacity="0.4" class="svgc_invert" filter="url(#filter_readability_theme_enark)"/>
		<path d="M388 2423H280V2425H388V2423Z" fill="#FOOTER_COLOR" fill-opacity="0.4" class="svgc_invert" filter="url(#filter_readability_theme_enark)"/>
		<path d="M623 2424C626.866 2424 630 2420.87 630 2417C630 2413.13 626.866 2410 623 2410C619.134 2410 616 2413.13 616 2417C616 2420.87 619.134 2424 623 2424Z" fill="#FOOTER_COLOR" class="svgc_invert" filter="url(#filter_readability_theme_enark)"/>
		<path d="M604 2424C607.866 2424 611 2420.87 611 2417C611 2413.13 607.866 2410 604 2410C600.134 2410 597 2413.13 597 2417C597 2420.87 600.134 2424 604 2424Z" fill="#FOOTER_COLOR" class="svgc_invert" filter="url(#filter_readability_theme_enark)"/>
		<path d="M585 2424C588.866 2424 592 2420.87 592 2417C592 2413.13 588.866 2410 585 2410C581.134 2410 578 2413.13 578 2417C578 2420.87 581.134 2424 585 2424Z" fill="#FOOTER_COLOR" class="svgc_invert" filter="url(#filter_readability_theme_enark)"/>
		<path d="M139 2376H70V2386H139V2376Z" fill="#FOOTER_COLOR" class="svgc_invert" filter="url(#filter_readability_theme_enark)"/>
	</g>
</svg>
