<svg xmlns="http://www.w3.org/2000/svg" width="700" height="1850" viewBox="0 0 700 1850">
    <defs>
        <pattern width="1" height="1" id="theme_enark_s_banner_default_image_id" patternunits="objectBoundingBox">
            <image width="700" height="310" preserveAspectRatio="xMidYMid slice" href="#s_banner_default_image_url"/>
        </pattern>
        <pattern width="1" height="1" id="theme_enark_s_picture_default_image_id" patternunits="objectBoundingBox">
            <image width="348" height="348" preserveAspectRatio="xMidYMid slice" href="#s_picture_default_image_url"/>
        </pattern>
        <pattern width="1" height="1" id="theme_enark_s_text_image_default_image_id" patternunits="objectBoundingBox">
            <image width="233" height="168" preserveAspectRatio="xMidYMid slice" href="#s_text_image_default_image_url"/>
        </pattern>
        <pattern width="1" height="1" id="theme_enark_library_image_10_id" patternunits="objectBoundingBox">
            <image width="233" height="155" preserveAspectRatio="xMidYMid slice" href="#library_image_10_url"/>
        </pattern>
        <pattern width="1" height="1" id="theme_enark_library_image_05_id" patternunits="objectBoundingBox">
            <image width="233" height="155" preserveAspectRatio="xMidYMid slice" href="#library_image_05_url"/>
        </pattern>
        <pattern width="1" height="1" id="theme_enark_library_image_16_id" patternunits="objectBoundingBox">
            <image width="233" height="155" preserveAspectRatio="xMidYMid slice" href="#library_image_16_url"/>
        </pattern>
        <pattern width="1" height="1" id="theme_enark_library_image_13_id" patternunits="objectBoundingBox">
            <image width="233" height="155" preserveAspectRatio="xMidYMid slice" href="#library_image_13_url"/>
        </pattern>
        <pattern width="1" height="1" id="theme_enark_library_image_08_id" patternunits="objectBoundingBox">
            <image width="233" height="155" preserveAspectRatio="xMidYMid slice" href="#library_image_08_url"/>
        </pattern>
        <pattern width="1" height="1" id="theme_enark_library_image_02_id" patternunits="objectBoundingBox">
            <image width="233" height="155" preserveAspectRatio="xMidYMid slice" href="#library_image_02_url"/>
        </pattern>
        <filter id="filter_readability_enark">
            <feColorMatrix in="SourceGraphic" type="saturate" values="0"/>
            <feComponentTransfer>
                <feFuncR type="table" tableValues="1 0"/>
                <feFuncG type="table" tableValues="1 0"/>
                <feFuncB type="table" tableValues="1 0"/>
            </feComponentTransfer>
            <feComponentTransfer>
                <feFuncR type="linear" slope="10000" intercept="-4999.5"/>
                <feFuncG type="linear" slope="10000" intercept="-4999.5"/>
                <feFuncB type="linear" slope="10000" intercept="-4999.5"/>
            </feComponentTransfer>
        </filter>
    </defs>
    <g fill="none" fill-rule="evenodd" class="theme_enark">
        <rect width="700" height="1850" fill="#FFFFFF"/>
        <g class="svgc_menu">
            <rect width="700" height="37" class="svgc_menu_bg" fill="#MENU_COLOR"/>
            <path class="svgc_text" opacity="1" fill="#MENU_COLOR" filter="url(#filter_readability_enark)" fill-rule="nonzero" d="M76.345 23v-1.521h-3.741v-7.206h-1.845V23h5.586zm4.68.12c.77 0 1.463-.176 2.08-.527.619-.35 1.107-.86 1.467-1.528.36-.667.539-1.477.539-2.429 0-.951-.18-1.761-.54-2.429-.359-.667-.847-1.176-1.465-1.527-.618-.351-1.312-.527-2.082-.527-.775 0-1.471.176-2.088.527-.616.35-1.104.86-1.461 1.527-.358.668-.537 1.478-.537 2.43 0 .948.179 1.756.537 2.424a3.753 3.753 0 0 0 1.461 1.53c.617.352 1.313.528 2.088.528zm0-1.633a2.08 2.08 0 0 1-1.168-.328c-.333-.219-.59-.54-.774-.963-.183-.423-.275-.943-.275-1.56 0-.616.092-1.136.275-1.56.183-.423.441-.744.774-.962a2.075 2.075 0 0 1 1.167-.328c.446 0 .835.109 1.168.328.332.218.59.54.773.963.184.423.275.943.275 1.56 0 .616-.091 1.136-.275 1.559-.183.423-.44.744-.773.963a2.075 2.075 0 0 1-1.168.328zm9.277 1.632c.733 0 1.384-.148 1.952-.445a3.292 3.292 0 0 0 1.338-1.27c.324-.55.486-1.208.486-1.975v-1.1h-3.652v1.39h1.872l-.004.126c-.017.237-.07.452-.157.645l-.073.14a1.591 1.591 0 0 1-.682.633c-.296.15-.654.224-1.071.224-.46 0-.86-.111-1.198-.334-.338-.223-.6-.548-.784-.974-.184-.426-.277-.943-.277-1.551s.094-1.123.281-1.545c.188-.422.45-.744.787-.965a2.086 2.086 0 0 1 1.174-.332c.238 0 .456.03.654.089.197.06.373.146.528.258.155.112.286.248.394.409.108.16.192.344.252.552h1.875a3.19 3.19 0 0 0-.405-1.187 3.27 3.27 0 0 0-.812-.931 3.741 3.741 0 0 0-1.135-.607 4.3 4.3 0 0 0-1.381-.216 4.21 4.21 0 0 0-1.607.303 3.756 3.756 0 0 0-1.3.882 4.021 4.021 0 0 0-.867 1.413c-.206.555-.309 1.186-.309 1.894 0 .92.173 1.715.518 2.384a3.725 3.725 0 0 0 1.447 1.547c.62.362 1.338.543 2.156.543zm8.958 0c.77 0 1.463-.175 2.081-.526.618-.35 1.107-.86 1.466-1.528.36-.667.54-1.477.54-2.429 0-.951-.18-1.761-.54-2.429-.36-.667-.848-1.176-1.466-1.527s-1.311-.527-2.081-.527c-.776 0-1.472.176-2.088.527-.617.35-1.104.86-1.462 1.527-.358.668-.537 1.478-.537 2.43 0 .948.179 1.756.537 2.424.358.668.845 1.178 1.462 1.53.616.352 1.312.528 2.088.528zm0-1.632c-.446 0-.836-.11-1.168-.328-.332-.219-.59-.54-.773-.963-.184-.423-.275-.943-.275-1.56 0-.616.091-1.136.275-1.56.183-.423.44-.744.773-.962a2.075 2.075 0 0 1 1.168-.328c.446 0 .835.109 1.167.328.333.218.59.54.774.963.183.423.275.943.275 1.56 0 .616-.092 1.136-.275 1.559-.184.423-.441.744-.774.963a2.075 2.075 0 0 1-1.167.328z"/>
            <g opacity=".6" transform="translate(145 15)">
                <rect width="37" height="7" fill="#MENU_COLOR" class="svgc_text" filter="url(#filter_readability_enark)"/>
                <rect width="37" height="7" x="58" fill="#MENU_COLOR" class="svgc_text" filter="url(#filter_readability_enark)"/>
                <rect width="37" height="7" x="116" fill="#MENU_COLOR" class="svgc_text" filter="url(#filter_readability_enark)"/>
                <rect width="37" height="7" x="174" fill="#MENU_COLOR" class="svgc_text" filter="url(#filter_readability_enark)"/>
            </g>
            <rect width="37" height="7" x="593" y="15" fill="#MENU_COLOR" opacity="1" class="svgc_text" filter="url(#filter_readability_enark)"/>
        </g>
        <g class="s_banner" transform="translate(0 -27)">
			<rect fill="url(#theme_enark_s_banner_default_image_id)" class="img_reference_s_banner_default_image" width="700" height="310" transform="translate(0 64)"/>
			<rect width="281" height="186" rx="4" transform="translate(69 118)" fill="#FFFFFF"/>
			<g transform="translate(91 215)" opacity="0.2">
				<rect width="212" height="2" fill="#212529"/>
				<rect width="197" height="2" transform="translate(0 5)" fill="#212529"/>
				<rect width="123" height="2" transform="translate(0 10)" fill="#212529"/>
				<rect width="209" height="2" transform="translate(0 15)" fill="#212529"/>
			</g>
            <text transform="translate(91 167)" fill="#212529" font-size="28" font-family="Arial-BoldMT, Arial">
				<tspan x="0" y="0">Welcome</tspan>
				<tspan x="0" y="30">Message</tspan>
			</text>
			<rect x="0.5" y="0.5" width="93" height="28" rx="2.5" fill="none" transform="translate(91 250.352)" stroke="#212529" stroke-width="1"/>
            <text transform="translate(138 270)" text-anchor="middle" fill="#212529" font-size="13" font-family="Arial-BoldMT, Arial" font-weight="bold">Discover</text>
		</g>
        <g class="s_picture">
			<rect x="0.5" y="0.5" width="373" height="373" rx="2.5" transform="translate(163 470.16)" fill="#FFFFFF" stroke="#dee2e6" stroke-width="1"/>
			<rect fill="url(#theme_enark_s_picture_default_image_id)" class="img_reference_s_picture_default_image" width="347.286" height="347.286" transform="translate(176.357 483.02)"/>
			<rect width="167.811" height="2" transform="translate(266 859.395)" opacity="0.4"/>
			<g transform="translate(307.294 439.665)" opacity="0.4">
				<rect width="86.811" height="2" fill="#212529"/>
				<rect width="71.811" height="2" transform="translate(8 5)" fill="#212529"/>
			</g>
			<text transform="translate(350 424)" text-anchor="middle" fill="#212529" font-size="32" font-family="Arial-BoldMT, Arial">Section Title</text>
		</g>
        <g class="s_numbers" transform="translate(0 -51)">
			<rect width="69" height="4" transform="translate(153 1008.475)" opacity="0.4" fill="#212529"/>
			<path d="M2.871-14.854v-2.021a10.741,10.741,0,0,0,3.984-.93q1.128-.652,1.685-3.083h2.08V0H7.808V-14.854ZM17.622,0a12.234,12.234,0,0,1,1.121-4.717,9.072,9.072,0,0,1,3.8-3.647L25.356-9.99a13.241,13.241,0,0,0,2.651-1.875,3.852,3.852,0,0,0,1.2-2.783,3.885,3.885,0,0,0-1.1-2.908,4,4,0,0,0-2.93-1.077,3.828,3.828,0,0,0-3.75,2.051,7.342,7.342,0,0,0-.615,3.047H18.135A9.415,9.415,0,0,1,19.146-18q1.714-3.047,6.05-3.047,3.6,0,5.266,1.948a6.518,6.518,0,0,1,1.663,4.336,5.894,5.894,0,0,1-1.772,4.307,17.353,17.353,0,0,1-3.677,2.52L24.668-6.826a13,13,0,0,0-2.256,1.509A5.5,5.5,0,0,0,20.566-2.49H32.021V0Z" transform="translate(102.129 1021)" fill="#212529"/>
			<rect width="69" height="4" transform="translate(527 1008.475)" opacity="0.4" fill="#212529"/>
			<path d="M8.159-12.187a3.7,3.7,0,0,0,2.725-.974,3.158,3.158,0,0,0,.981-2.322,3.06,3.06,0,0,0-.937-2.153,3.779,3.779,0,0,0-2.856-.981,3.463,3.463,0,0,0-2.754.981,3.4,3.4,0,0,0-.85,2.3,2.744,2.744,0,0,0,1.1,2.314A4.163,4.163,0,0,0,8.159-12.187ZM8.32-1.8a4.642,4.642,0,0,0,3.04-.989,3.591,3.591,0,0,0,1.208-2.952,3.824,3.824,0,0,0-1.245-3.091A4.77,4.77,0,0,0,8.13-9.888,4.428,4.428,0,0,0,5.046-8.811,3.81,3.81,0,0,0,3.853-5.83,4.06,4.06,0,0,0,4.944-3,4.36,4.36,0,0,0,8.32-1.8ZM4.57-11.177a5.244,5.244,0,0,1-1.714-1.1A4.15,4.15,0,0,1,1.7-15.322a5.474,5.474,0,0,1,1.7-4.028,6.552,6.552,0,0,1,4.819-1.685,6.69,6.69,0,0,1,4.731,1.589,4.917,4.917,0,0,1,1.714,3.713,4.856,4.856,0,0,1-1,3.179,5.967,5.967,0,0,1-1.729,1.348,6.708,6.708,0,0,1,2.051,1.377,5.3,5.3,0,0,1,1.392,3.809,6.506,6.506,0,0,1-1.86,4.695A6.971,6.971,0,0,1,8.262.6,8.125,8.125,0,0,1,3.083-1.062,5.77,5.77,0,0,1,.967-5.889,5.638,5.638,0,0,1,1.875-9.1,5.673,5.673,0,0,1,4.57-11.177Z" transform="translate(485.033 1020.399)" fill="#212529"/>
			<rect width="69" height="4" transform="translate(340 1008.475)" opacity="0.4" fill="#212529"/>
			<path d="M9.917-7.427v-9.507L3.193-7.427ZM9.961,0V-5.127H.762V-7.705l9.609-13.33H12.6V-7.427h3.091v2.3H12.6V0Zm10.43-5.347a3.655,3.655,0,0,0,2.095,3.12,5.055,5.055,0,0,0,2.168.439,4.07,4.07,0,0,0,3.472-1.494,5.366,5.366,0,0,0,1.128-3.311,4.327,4.327,0,0,0-1.34-3.4,4.652,4.652,0,0,0-3.215-1.2,4.843,4.843,0,0,0-2.336.527A5.005,5.005,0,0,0,20.7-9.2l-2.285-.132,1.6-11.294h10.9v2.549H21.987l-.894,5.83a6.551,6.551,0,0,1,1.392-.835,7.064,7.064,0,0,1,2.71-.483,6.933,6.933,0,0,1,4.893,1.86,6.153,6.153,0,0,1,2.007,4.717,8.094,8.094,0,0,1-1.838,5.244Q28.418.527,24.39.527A7.472,7.472,0,0,1,19.856-.916a5.723,5.723,0,0,1-2.2-4.431Z" transform="translate(288.953 1020.035)" fill="#212529"/>
		</g>
		<g class="s_text_image" transform="translate(0 115)">
			<rect width="700" height="270" transform="translate(0 909)" fill="#383E45"/>
			<rect x="0.5" y="0.5" width="280" height="127" rx="3.5" transform="translate(69 980)" fill="none" stroke="#464d53" stroke-width="1"/>
			<g transform="translate(91 1055.352)" opacity="0.4">
				<rect width="212" height="2" fill="#FFFFFF"/>
				<rect width="197" height="2" transform="translate(0 5)" fill="#FFFFFF"/>
				<rect width="123" height="2" transform="translate(0 10)" fill="#FFFFFF"/>
				<rect width="208.446" height="2" transform="translate(0 15)" fill="#FFFFFF"/>
			</g>
			<text transform="translate(87 1038)" fill="#FFFFFF" font-size="32" font-family="Arial-BoldMT, Arial">Section Title</text>
			<rect fill="url(#theme_enark_s_text_image_default_image_id)" class="img_reference_s_text_image_default_image" width="233" height="168" transform="translate(397 960)"/>
		</g>
		<g class="s_images_wall" transform="translate(0 -138)">
			<rect fill="url(#theme_enark_library_image_02_id)" class="img_reference_library_image_02" width="234" height="155" transform="translate(466 1587)"/>
			<rect fill="url(#theme_enark_library_image_08_id)" class="img_reference_library_image_08" width="233" height="155" transform="translate(233 1587)"/>
			<rect fill="url(#theme_enark_library_image_13_id)" class="img_reference_library_image_13" width="233" height="155" transform="translate(0 1587)"/>
			<rect fill="url(#theme_enark_library_image_16_id)" class="img_reference_library_image_16" width="234" height="155" transform="translate(466 1432)"/>
			<rect fill="url(#theme_enark_library_image_05_id)" class="img_reference_library_image_05" width="233" height="155" transform="translate(233 1432)"/>
			<rect fill="url(#theme_enark_library_image_10_id)" class="img_reference_library_image_10" width="233" height="155" transform="translate(0 1432)"/>
		</g>
		<g class="s_call_to_action" transform="translate(0 76)">
			<rect width="700" height="100" transform="translate(0 1528)" fill="#7C6576"/>
			<rect x="0.5" y="0.5" width="93" height="28" rx="2.5" transform="translate(536 1563)" fill="none" stroke="#7C6576" class="svgc_text" stroke-width="1" filter="url(#filter_readability_enark)"/>
			<text transform="translate(582 1582)" text-anchor="middle" fill="#FFFFFF" font-size="12" font-family="Arial-BoldMT, Arial" font-weight="bold">Contact Us</text>
			<text transform="translate(65 1590)" fill="#FFFFFF" font-size="32" font-family="Arial-BoldMT, Arial">Section Title</text>
		</g>
		<g class="svgc_footer" transform="translate(0 1713)">
			<rect width="700" height="146" transform="translate(0 -9)" class="svgc_footer_bg" fill="#FOOTER_COLOR"/>
			<circle cx="7.5" cy="7.5" r="7.5" transform="translate(559 69)" class="svgc_text" opacity="1" fill="#FOOTER_COLOR" filter="url(#filter_readability_enark)"/>
			<circle cx="7.5" cy="7.5" r="7.5" transform="translate(587 69)" class="svgc_text" opacity="1" fill="#FOOTER_COLOR" filter="url(#filter_readability_enark)"/>
			<circle cx="7.5" cy="7.5" r="7.5" transform="translate(615 69)" class="svgc_text" opacity="1" fill="#FOOTER_COLOR" filter="url(#filter_readability_enark)"/>
			<rect width="71" height="2" transform="translate(559 56)" class="svgc_text" opacity="1" fill="#FOOTER_COLOR" filter="url(#filter_readability_enark)"/>
			<rect width="59" height="2" transform="translate(559 61)" class="svgc_text" opacity="1" fill="#FOOTER_COLOR" filter="url(#filter_readability_enark)"/>
			<g transform="translate(401.371 56)" opacity="0.4">
				<rect width="111" height="2" transform="translate(-4.372)" class="svgc_text" fill="#FOOTER_COLOR" filter="url(#filter_readability_enark)"/>
				<rect width="72" height="2" transform="translate(-4.372 5)" class="svgc_text" fill="#FOOTER_COLOR" filter="url(#filter_readability_enark)"/>
				<rect width="103" height="2" transform="translate(-4.372 10)" class="svgc_text" fill="#FOOTER_COLOR" filter="url(#filter_readability_enark)"/>
				<rect width="115" height="2" transform="translate(-4.372 15)" class="svgc_text" fill="#FOOTER_COLOR" filter="url(#filter_readability_enark)"/>
			</g>
			<g transform="translate(70 56)" opacity="0.4">
				<rect width="233" height="2" class="svgc_text" fill="#FOOTER_COLOR" filter="url(#filter_readability_enark)"/>
				<rect width="218" height="2" transform="translate(0 5)" class="svgc_text" fill="#FOOTER_COLOR" filter="url(#filter_readability_enark)"/>
				<rect width="233" height="2" transform="translate(0 10)" class="svgc_text" fill="#FOOTER_COLOR" filter="url(#filter_readability_enark)"/>
				<rect width="218" height="2" transform="translate(0 15)" class="svgc_text" fill="#FOOTER_COLOR" filter="url(#filter_readability_enark)"/>
			</g>
			<path d="M178.584-1941.841l.127-1.066c.144.023.281.04.406.055s.244.016.352.016a2.351,2.351,0,0,0,1.435-.406,3.081,3.081,0,0,0,.929-1.219,17.827,17.827,0,0,0,.651-1.665l-3.25-8.467-1.028-.174v-.775l3.953-.126v.792l-1.468.246,2.464,7.032,2.384-6.99-1.431-.179v-.775l3.827-.126v.792l-1.053.241-3.135,8.6q-.325.9-.679,1.68a6.928,6.928,0,0,1-.8,1.361,3.154,3.154,0,0,1-1.1.912,3.478,3.478,0,0,1-1.57.327A6.891,6.891,0,0,1,178.584-1941.841Zm42.749-4.612a3.738,3.738,0,0,1-1.454-1.617,5.866,5.866,0,0,1-.523-2.6,6.236,6.236,0,0,1,.543-2.705,4.1,4.1,0,0,1,1.533-1.76,4.279,4.279,0,0,1,2.328-.623,3.765,3.765,0,0,1,2.085.533,3.224,3.224,0,0,1,1.227,1.472,5.354,5.354,0,0,1,.407,2.146c0,.134-.006.266-.018.4s-.029.3-.053.486h-6.543a5.427,5.427,0,0,0,.332,1.9,2.885,2.885,0,0,0,1,1.327,2.7,2.7,0,0,0,1.615.469,4.7,4.7,0,0,0,1.464-.261,7.384,7.384,0,0,0,1.643-.8l.521.813a8.454,8.454,0,0,1-2.02,1.029,6.078,6.078,0,0,1-1.951.343A4.116,4.116,0,0,1,221.333-1946.453Zm.767-7.718a2.862,2.862,0,0,0-.937,1.336,4.975,4.975,0,0,0-.244,1.084h5.055a4.568,4.568,0,0,0-.191-1.391,2.246,2.246,0,0,0-.74-1.1,2.181,2.181,0,0,0-1.39-.413A2.474,2.474,0,0,0,222.1-1954.17Zm-12.707,7.68a2.543,2.543,0,0,1-.54-1.777v-6.319H207.23v-.792l1.624-.235v-2.131l1.443-.233v2.382h2.637l-.054,1.009H210.3v6.119a1.659,1.659,0,0,0,.3,1.1,1.048,1.048,0,0,0,.839.341,2.587,2.587,0,0,0,.7-.108,5.42,5.42,0,0,0,.813-.307l.307.832a4.994,4.994,0,0,1-2.382.7A1.923,1.923,0,0,1,209.393-1946.49Zm-43.425,0a2.543,2.543,0,0,1-.542-1.777v-6.319H163.8v-.792l1.624-.235v-2.131l1.445-.233v2.382h2.635l-.053,1.009h-2.582v6.119a1.665,1.665,0,0,0,.3,1.1,1.049,1.049,0,0,0,.839.341,2.594,2.594,0,0,0,.706-.108,5.4,5.4,0,0,0,.811-.307l.308.832a5,5,0,0,1-2.382.7A1.922,1.922,0,0,1,165.968-1946.49Zm47.812.425v-.776l1.426-.311v-11.65l-1.426-.3v-.776l2.871-.127v12.851l1.407.308v.776Zm-11.479,0v-.776l1.409-.309v-7.321l-1.409-.3v-.776l2.851-.108v8.5l1.409.309v.776Zm-8.087,0v-.776l1.805-.328v-10.394h-2.847l-.313,1.985h-.9v-3.086h9.585v3.086h-.9l-.318-1.985h-2.841v10.391l1.805.33v.776Zm-52.215,0v-.776l1.552-.329v-10.345L142-1957.8v-.777l3.014-.09H150.9v2.851h-.9l-.287-1.75h-4.676v4.513h4.548v1.083h-4.548v4.8h4.9l.283-1.859h.9v2.96Zm28.788,0v-.776l1.409-.3v-7.319l-1.409-.3v-.775l2.528-.126.171,1.535a7.654,7.654,0,0,1,1.416-1.156,3.216,3.216,0,0,1,1.7-.47,4.441,4.441,0,0,1,1.208.179l-.108,2.637h-.9l-.182-1.6c-.049-.009-.094-.021-.143-.027a2.448,2.448,0,0,0-.291-.02,2.58,2.58,0,0,0-1.4.434,6.209,6.209,0,0,0-1.147.977v6.027l1.751.305v.776Zm-11.731,0v-.776l1.354-.3v-5.318a2.294,2.294,0,0,0-.506-1.641,1.8,1.8,0,0,0-1.354-.526,3.546,3.546,0,0,0-1.454.361,5.354,5.354,0,0,0-1.417,1.012v6.122l1.354.285v.776h-4.207v-.776l1.409-.313v-7.312l-1.409-.3v-.775l2.528-.126.173,1.546a5.987,5.987,0,0,1,1.714-1.2,4.606,4.606,0,0,1,1.867-.434,2.78,2.78,0,0,1,1.976.73,2.907,2.907,0,0,1,.767,2.265v5.616l1.409.3v.776Zm44.579-11.8a1,1,0,0,1-.269-.738.977.977,0,0,1,.278-.75.978.978,0,0,1,.7-.263.987.987,0,0,1,.7.253.987.987,0,0,1,.271.76.956.956,0,0,1-.289.749,1.011,1.011,0,0,1-.7.26A.926.926,0,0,1,203.636-1957.871Z" transform="translate(-72 1987.88)" class="svgc_text" fill="#FOOTER_COLOR" opacity="1" filter="url(#filter_readability_enark)"/>
		</g>
    </g>
</svg>
