<svg width="700" height="2151" viewBox="0 0 700 2151" fill="none" xmlns="http://www.w3.org/2000/svg" data-vsvg="002" class="theme_avantgarde_svg_preview">
    <defs>
        <pattern id="theme_avantgarde_s_sidegrid_default_image_2_id" width="1" height="1" patternunits="objectBoundingBox">
            <image width="174" height="183" preserveAspectRatio="xMidYMid slice" href="#library_image_10_url"/>
        </pattern>
        <pattern id="theme_avantgarde_s_sidegrid_default_image_4_id" width="1" height="1" patternunits="objectBoundingBox">
            <image width="233" height="181" preserveAspectRatio="xMidYMid slice" href="#library_image_05_url"/>
        </pattern>
        <pattern id="theme_avantgarde_library_image_13_id" width="1" height="1" patternunits="objectBoundingBox">
            <image width="118" height="122" preserveAspectRatio="xMidYMid slice" href="#library_image_13_url"></image>
        </pattern>
        <pattern id="theme_avantgarde_library_image_03_id" width="1" height="1" patternunits="objectBoundingBox">
            <image width="118" height="122" preserveAspectRatio="xMidYMid slice" href="#library_image_03_url"></image>
        </pattern>
        <pattern id="theme_avantgarde_library_image_16_id" width="1" height="1" patternunits="objectBoundingBox">
            <image width="118" height="122" preserveAspectRatio="xMidYMid slice" href="#library_image_16_url"></image>
        </pattern>
        <pattern id="theme_avantgarde_s_masonry_block_default_image_1_id" width="1" height="1" patternunits="objectBoundingBox">
            <image width="350" height="202" preserveAspectRatio="xMidYMid slice" href="#s_masonry_block_default_image_1_url"></image>
        </pattern>
        <pattern id="theme_avantgarde_s_company_team_image_3_id" width="1" height="1" patternunits="objectBoundingBox">
            <image width="118" height="122" preserveAspectRatio="xMidYMid slice" href="/web/image/website.s_company_team_image_3"/>
        </pattern>
        <pattern id="theme_avantgarde_s_carousel_default_image_2_id" width="1" height="1" patternunits="objectBoundingBox">
            <image  width="700" height="200" preserveAspectRatio="xMidYMid slice" href="#s_carousel_default_image_2_url"></image>
        </pattern>
        <pattern id="theme_avantgarde_s_banner_default_image_id" width="1" height="1" patternunits="objectBoundingBox">
            <image width="118" height="87" preserveAspectRatio="xMidYMid slice" href="#s_banner_default_image_url"></image>
        </pattern>
        <pattern id="theme_avantgarde_s_quadrant_default_image_4_id" width="1" height="1" patternunits="objectBoundingBox">
            <image width="350" height="144" preserveAspectRatio="xMidYMid slice" href="#library_image_05_url"></image>
        </pattern>
        <pattern id="theme_avantgarde_s_quadrant_default_image_3_id" width="1" height="1" patternunits="objectBoundingBox">
            <image width="350" height="144" preserveAspectRatio="xMidYMid slice" href="#library_image_13_url"></image>
        </pattern>
        <pattern id="theme_avantgarde_s_quadrant_default_image_2_id" width="1" height="1" patternunits="objectBoundingBox">
            <image width="350" height="144" preserveAspectRatio="xMidYMid slice" href="#library_image_10_url"></image>
        </pattern>
        <pattern id="theme_avantgarde_s_quadrant_default_image_1_id" width="1" height="1" patternunits="objectBoundingBox">
            <image width="350" height="144" preserveAspectRatio="xMidYMid slice" href="#library_image_03_url"></image>
        </pattern>
        <filter id="filter_readability_theme_avantgarde">
            <feColorMatrix in="SourceGraphic" type="saturate" values="0"></feColorMatrix>
            <feComponentTransfer>
                <feFuncR type="table" tableValues="1 0"></feFuncR>
                <feFuncG type="table" tableValues="1 0"></feFuncG>
                <feFuncB type="table" tableValues="1 0"></feFuncB>
            </feComponentTransfer>
            <feComponentTransfer>
                <feFuncR type="linear" slope="10000" intercept="-4999.5"></feFuncR>
                <feFuncG type="linear" slope="10000" intercept="-4999.5"></feFuncG>
                <feFuncB type="linear" slope="10000" intercept="-4999.5"></feFuncB>
            </feComponentTransfer>
        </filter>
    </defs>
    <rect width="700" height="2151" fill="#ACACAC"></rect>
    <g clip-path="url(#clip0_136_2)" class="theme_avantgarde">
        <rect width="700" height="2151" fill="#FFFFFF"></rect>
        <g class="svgc_menu">
            <path d="M700 0H0V37H700V0Z" fill="#MENU_COLOR" class="svgc_menu_bg"></path>
            <path d="M630 17H614V19H630V17Z" fill="#MENU_COLOR" fill-opacity="0.4" class="svgc_invert" filter="url(#filter_readability_theme_avantgarde)"></path>
            <path d="M630 11H614V13H630V11Z" fill="#MENU_COLOR" fill-opacity="0.4" class="svgc_invert" filter="url(#filter_readability_theme_avantgarde)"></path>
            <path d="M630 23H614V25H630V23Z" fill="#MENU_COLOR" fill-opacity="0.4" class="svgc_invert" filter="url(#filter_readability_theme_avantgarde)"></path>
            <path d="M77 25C80.866 25 84 21.866 84 18C84 14.134 80.866 11 77 11C73.134 11 70 14.134 70 18C70 21.866 73.134 25 77 25Z" fill="#MENU_COLOR" fill-opacity="0.3" class="svgc_invert" filter="url(#filter_readability_theme_avantgarde)"></path>
            <path d="M99 25C102.866 25 106 21.866 106 18C106 14.134 102.866 11 99 11C95.134 11 92 14.134 92 18C92 21.866 95.134 25 99 25Z" fill="#MENU_COLOR" fill-opacity="0.3" class="svgc_invert" filter="url(#filter_readability_theme_avantgarde)"></path>
            <path d="M339.485 21.8929V20.536H335.812V14.1072H334V21.8929H339.485ZM344.081 22C344.837 22 345.517 21.843 346.123 21.5298C346.731 21.2176 347.21 20.7626 347.564 20.1666C347.917 19.5716 348.093 18.849 348.093 17.9996C348.093 17.1512 347.916 16.4286 347.563 15.8326C347.21 15.2376 346.731 14.7835 346.124 14.4703C345.517 14.1572 344.836 14.0002 344.08 14.0002C343.319 14.0002 342.635 14.1572 342.029 14.4703C341.425 14.7826 340.945 15.2376 340.595 15.8326C340.243 16.4286 340.068 17.1512 340.068 18.0005C340.068 18.8463 340.243 19.5671 340.595 20.1631C340.919 20.7336 341.417 21.2075 342.029 21.5281C342.635 21.8421 343.319 21.9991 344.08 21.9991L344.081 22ZM344.081 20.5431C343.675 20.5513 343.276 20.4494 342.934 20.2505C342.607 20.0551 342.354 19.7687 342.174 19.3914C341.994 19.014 341.904 18.5501 341.904 17.9996C341.904 17.4501 341.994 16.9862 342.174 16.6079C342.354 16.2305 342.607 15.9441 342.934 15.7496C343.275 15.5506 343.674 15.4488 344.08 15.457C344.518 15.457 344.9 15.5543 345.227 15.7496C345.553 15.9441 345.806 16.2314 345.986 16.6088C346.166 16.9862 346.256 17.4501 346.256 18.0005C346.256 18.5501 346.166 19.014 345.986 19.3914C345.806 19.7687 345.554 20.0551 345.227 20.2505C344.885 20.4497 344.487 20.5516 344.081 20.5431ZM353.19 21.9991C353.91 21.9991 354.549 21.8671 355.107 21.6021C355.655 21.3459 356.111 20.9528 356.421 20.4691C356.739 19.9784 356.898 19.3914 356.898 18.7071V17.7257H353.312V18.9658H355.15L355.146 19.0782C355.13 19.2897 355.078 19.4815 354.992 19.6537L354.921 19.7786C354.764 20.0232 354.531 20.2199 354.251 20.3433C353.96 20.4771 353.609 20.5431 353.199 20.5431C352.748 20.5431 352.355 20.4441 352.023 20.2452C351.691 20.0462 351.434 19.7563 351.253 19.3762C351.072 18.9962 350.981 18.5349 350.981 17.9925C350.981 17.4501 351.073 16.9906 351.257 16.6141C351.442 16.2376 351.699 15.9504 352.03 15.7532C352.373 15.5523 352.774 15.4492 353.183 15.457C353.416 15.457 353.63 15.4838 353.825 15.5364C354.018 15.59 354.191 15.6667 354.343 15.7666C354.495 15.8665 354.624 15.9878 354.73 16.1315C354.836 16.2742 354.919 16.4384 354.978 16.6239H356.819C356.765 16.2505 356.629 15.8906 356.421 15.565C356.216 15.2446 355.945 14.9627 355.624 14.7344C355.289 14.4967 354.912 14.3135 354.509 14.1929C354.072 14.0619 353.614 13.9968 353.153 14.0002C352.613 13.9957 352.077 14.0875 351.575 14.2705C351.093 14.4481 350.658 14.7162 350.299 15.0573C349.921 15.4193 349.631 15.8486 349.447 16.3179C349.245 16.8131 349.144 17.376 349.144 18.0077C349.144 18.8284 349.314 19.5377 349.652 20.1345C349.969 20.7098 350.463 21.1892 351.073 21.5147C351.682 21.8376 352.387 21.9991 353.19 21.9991ZM361.987 21.9991C362.743 21.9991 363.423 21.843 364.03 21.5298C364.637 21.2176 365.117 20.7626 365.47 20.1666C365.823 19.5716 366 18.849 366 17.9996C366 17.1512 365.823 16.4286 365.47 15.8326C365.116 15.2376 364.637 14.7835 364.03 14.4703C363.423 14.1572 362.743 14.0002 361.987 14.0002C361.225 14.0002 360.541 14.1572 359.936 14.4703C359.331 14.7826 358.852 15.2376 358.501 15.8326C358.149 16.4286 357.973 17.1512 357.973 18.0005C357.973 18.8463 358.149 19.5671 358.501 20.1631C358.852 20.759 359.331 21.214 359.936 21.5281C360.541 21.8421 361.225 21.9991 361.987 21.9991ZM361.987 20.5431C361.549 20.5431 361.166 20.445 360.84 20.2505C360.514 20.0551 360.26 19.7687 360.081 19.3914C359.9 19.014 359.811 18.5501 359.811 17.9996C359.811 17.4501 359.9 16.9862 360.081 16.6079C360.26 16.2305 360.513 15.9441 360.84 15.7496C361.182 15.5505 361.581 15.4486 361.987 15.457C362.425 15.457 362.807 15.5543 363.133 15.7496C363.46 15.9441 363.712 16.2314 363.893 16.6088C364.072 16.9862 364.163 17.4501 364.163 18.0005C364.163 18.5501 364.072 19.014 363.893 19.3914C363.712 19.7687 363.46 20.0551 363.133 20.2505C362.791 20.4495 362.392 20.5514 361.987 20.5431Z" fill="#MENU_COLOR" class="svgc_invert" filter="url(#filter_readability_theme_avantgarde)"></path>
        </g>
        <g class="s_sidegrid">
            <path d="M233 37H0V120H233V37Z" fill="#3AADAA"></path>
            <path d="M233 120H0V301H233V120Z" fill="url(#theme_avantgarde_s_sidegrid_default_image_4_id)" class="img_reference_s_sidegrid_default_image_4"></path>
            <path d="M407 37H233V220H407V37Z" fill="url(#theme_avantgarde_s_sidegrid_default_image_2_id)" class="img_reference_s_sidegrid_default_image_2"></path>
            <path d="M700 301H233V220H700V301Z" fill="#F6F6F6"></path>
            <path d="M700 37H407V220H700V37Z" fill="#FFFFFF"></path>
            <text transform="translate(675 85)" text-anchor="end" fill="#000000" class="svgc_text" filter="url(#filter_readability_anelusia)" font-size="28" font-family="Sans" font-weight="700">
                <tspan x="10" y="0">Welcome</tspan>
                <tspan x="0" y="37">Message</tspan>
            </text>
            <text transform="translate(272 262)" text-anchor="Start" fill="#000000" font-size="22" font-family="Sans" font-weight="700"><tspan x="-22.471" y="0">Second Title</tspan></text>
            <path d="M416 279H253V281H416V279Z" fill="#F6F6F6" fill-opacity="0.4" class="svgc_invert" filter="url(#filter_readability_theme_avantgarde)"></path>
        </g>
        <g class="s_features_wall">
            <rect y="301" width="700" height="509" fill="#7C6576"></rect>
            <g>
                <rect x="70" y="428" width="80" height="32" rx="4" fill="#F6F6F6"></rect>
                <text transform="translate(133 448)" text-anchor="Middle" fill="#000000" font-size="10" font-family="Sans" font-weight="700"><tspan x="-22.471" y="0">Discover</tspan></text>
            </g>
            <path d="M269 388H70V390H269V388Z" fill="#7C6576" fill-opacity="0.4" class="svgc_invert" filter="url(#filter_readability_theme_avantgarde)"></path>
            <path d="M207 402H70V404H207V402Z" fill="#7C6576" fill-opacity="0.4" class="svgc_invert" filter="url(#filter_readability_theme_avantgarde)"></path>
            <text transform="translate(97 365)" text-anchor="Start" fill="#FFFFFF" font-size="20" font-family="Sans" font-weight="700"><tspan x="-22.471" y="0">Section Title</tspan></text>
            <g>
                <path d="M474 725H356V727H474V725Z" fill="#7C6576" fill-opacity="0.4" class="svgc_invert" filter="url(#filter_readability_theme_avantgarde)"></path>
                <path d="M474 735H356V737H474V735Z" fill="#7C6576" fill-opacity="0.4" class="svgc_invert" filter="url(#filter_readability_theme_avantgarde)"></path>
                <path d="M438 745H356V747H438V745Z" fill="#7C6576" fill-opacity="0.4" class="svgc_invert" filter="url(#filter_readability_theme_avantgarde)"></path>
                <text transform="translate(378 710)" text-anchor="Start" fill="#FFFFFF" font-size="12" font-family="Sans" font-weight="700"><tspan x="-22.471" y="0">Entry Title</tspan></text>                
                <rect x="356" y="566" width="118" height="122" rx="4" fill="url(#theme_avantgarde_library_image_13_id)" class="img_reference_library_image_13"></rect>
            </g>
            <g>
                <path d="M604 603H486V605H604V603Z" fill="#7C6576" fill-opacity="0.4" class="svgc_invert" filter="url(#filter_readability_theme_avantgarde)"></path>
                <path d="M604 613H486V615H604V613Z" fill="#7C6576" fill-opacity="0.4" class="svgc_invert" filter="url(#filter_readability_theme_avantgarde)"></path>
                <path d="M568 623H486V625H568V623Z" fill="#7C6576" fill-opacity="0.4" class="svgc_invert" filter="url(#filter_readability_theme_avantgarde)"></path>
                <text transform="translate(509 590)" text-anchor="Start" fill="#FFFFFF" font-size="12" font-family="Sans" font-weight="700"><tspan x="-22.471" y="0">Entry Title</tspan></text>                
                <rect x="486" y="444" width="118" height="122" rx="4" fill="url(#theme_avantgarde_library_image_03_id)" class="img_reference_library_image_03"></rect>
            </g>
            <g>
                <path d="M475 503H357V505H475V503Z" fill="#7C6576" fill-opacity="0.4" class="svgc_invert" filter="url(#filter_readability_theme_avantgarde)"></path>
                <path d="M475 513H357V515H475V513Z" fill="#7C6576" fill-opacity="0.4" class="svgc_invert" filter="url(#filter_readability_theme_avantgarde)"></path>
                <path d="M439 523H357V525H439V523Z" fill="#7C6576" fill-opacity="0.4" class="svgc_invert" filter="url(#filter_readability_theme_avantgarde)"></path>
                <text transform="translate(378 490)" text-anchor="Start" fill="#FFFFFF" font-size="12" font-family="Sans" font-weight="700"><tspan x="-22.471" y="0">Entry Title</tspan></text>                
                <rect x="357" y="344" width="118" height="122" rx="4" fill="url(#theme_avantgarde_library_image_16_id)" class="img_reference_library_image_16"></rect>
            </g>
        </g>
        <g class="s_masonry_block">
            <path d="M175 810H0V1012H175V810Z" fill="#F6F6F6"></path>
            <path d="M525 810H175V1012H525V810Z" fill="url(#theme_avantgarde_s_masonry_block_default_image_1_id)" class="img_reference_s_masonry_block_default_image_1"></path>
            <path d="M700 1012H525V810H700V1012Z" fill="#3AADAA"></path>

            <text transform="translate(88 905)" text-anchor="Middle" fill="#000000" class="svgc_text" filter="url(#filter_readability_anelusia)" font-size="18" font-family="Sans" font-weight="700">
                <tspan x="0" y="0">Section</tspan>
                <tspan x="0" y="24">Title</tspan>
            </text>
            <text transform="translate(610 905)" text-anchor="Middle" fill="#FFFFFF" class="svgc_text" filter="url(#filter_readability_anelusia)" font-size="18" font-family="Sans" font-weight="700">
                <tspan x="0" y="0">Section</tspan>
                <tspan x="0" y="24">Title</tspan>
            </text>
        </g>
        <g class="s_carousel">
            <rect y="1012" width="700" height="200" fill="url(#theme_avantgarde_s_carousel_default_image_2_id)" class="img_reference_s_carousel_default_image_2"></rect>
            <g>
                <rect x="649" y="1097" width="28" height="28" rx="4" fill="#D9D9D9"></rect>
                <path d="M659 1119L667 1111L659 1103" stroke="black" stroke-opacity="0.4" stroke-width="3"></path>
            </g>
            <g>
                <rect x="51" y="1126" width="28" height="28" rx="4" transform="rotate(-180 51 1126)" fill="#D9D9D9"></rect>
                <path d="M41 1104L33 1112L41 1120" stroke="black" stroke-opacity="0.4" stroke-width="3"></path>
            </g>
            <g>
                <path d="M450 1119H251V1121H450V1119Z" fill="#383E45" class="svgc_invert" filter="url(#filter_readability_theme_avantgarde)"></path>
                <path d="M419 1133H282V1135H419V1133Z" fill="#383E45" class="svgc_invert" filter="url(#filter_readability_theme_avantgarde)"></path>
                <path d="M394 1147H308V1149H394V1147Z" fill="#383E45" class="svgc_invert" filter="url(#filter_readability_theme_avantgarde)"></path>
                <text transform="translate(375 1097)" text-anchor="Middle" fill="#FFFFFF" font-size="20" font-family="Sans" font-weight="700"><tspan x="-22.471" y="0">Section Title</tspan></text>
                <g>
                    <circle cx="336.5" cy="1193.5" r="2.5" fill="#383E45" class="svgc_invert" filter="url(#filter_readability_theme_avantgarde)"></circle>
                    <circle cx="350.5" cy="1193.5" r="3.5" fill="#383E45" class="svgc_invert" filter="url(#filter_readability_theme_avantgarde)"></circle>
                    <circle cx="364.5" cy="1193.5" r="2.5" fill="#383E45" class="svgc_invert" filter="url(#filter_readability_theme_avantgarde)"></circle>
                </g>
            </g>
        </g>
        <g class="s_timeline">
            <path d="M700 1763H0V1212H700V1763Z" fill="#FFFFFF"></path>
            <g>
                <rect x="350" y="1313" width="1" height="64" fill="black" fill-opacity="0.4"></rect>
                <rect x="350" y="1394" width="1" height="194" fill="black" fill-opacity="0.4"></rect>
                <rect width="1" height="128" transform="matrix(1 0 0 -1 350 1733)" fill="black" fill-opacity="0.4"></rect>
                <circle opacity="0.4" cx="350.5" cy="1304.5" r="5.5" fill="#3AADAA"></circle>
                <circle cx="350.5" cy="1304.5" r="2.5" fill="#3AADAA"></circle>
                <circle opacity="0.4" cx="350.5" cy="1385.5" r="5.5" fill="#3AADAA"></circle>
                <circle cx="350.5" cy="1385.5" r="2.5" fill="#3AADAA"></circle>
                <circle opacity="0.4" cx="350.5" cy="1596.5" r="5.5" fill="#3AADAA"></circle>
                <circle cx="350.5" cy="1596.5" r="2.5" fill="#3AADAA"></circle>
            </g>
            <g>
                <path d="M335 1323H217V1325H335V1323Z" fill="#FFFFFF" fill-opacity="0.4" class="svgc_invert" filter="url(#filter_readability_theme_avantgarde)"></path>
                <path d="M335 1333H217V1335H335V1333Z" fill="#FFFFFF" fill-opacity="0.4" class="svgc_invert" filter="url(#filter_readability_theme_avantgarde)"></path>
                <path d="M334 1343H252V1345H334V1343Z" fill="#FFFFFF" fill-opacity="0.4" class="svgc_invert" filter="url(#filter_readability_theme_avantgarde)"></path>
                <text transform="translate(359 1309)" text-anchor="End" fill="#000000" font-size="12" font-family="Sans" font-weight="700"><tspan x="-22.471" y="0">Entry Title</tspan></text>                
            </g>
            <g>
                <path d="M335 1404H217V1406H335V1404Z" fill="#FFFFFF" fill-opacity="0.4" class="svgc_invert" filter="url(#filter_readability_theme_avantgarde)"></path>
                <path d="M335 1414H217V1416H335V1414Z" fill="#FFFFFF" fill-opacity="0.4" class="svgc_invert" filter="url(#filter_readability_theme_avantgarde)"></path>
                <path d="M334 1424H252V1426H334V1424Z" fill="#FFFFFF" fill-opacity="0.4" class="svgc_invert" filter="url(#filter_readability_theme_avantgarde)"></path>
                <text transform="translate(359 1389)" text-anchor="End" fill="#000000" font-size="12" font-family="Sans" font-weight="700"><tspan x="-22.471" y="0">Entry Title</tspan></text>                
            </g>
            <g>
                <path d="M484 1404H366V1406H484V1404Z" fill="#FFFFFF" fill-opacity="0.4" class="svgc_invert" filter="url(#filter_readability_theme_avantgarde)"></path>
                <path d="M484 1414H366V1416H484V1414Z" fill="#FFFFFF" fill-opacity="0.4" class="svgc_invert" filter="url(#filter_readability_theme_avantgarde)"></path>
                <path d="M448 1424H366V1426H448V1424Z" fill="#FFFFFF" fill-opacity="0.4" class="svgc_invert" filter="url(#filter_readability_theme_avantgarde)"></path>
                <text transform="translate(389 1389)" text-anchor="Start" fill="#000000" font-size="12" font-family="Sans" font-weight="700"><tspan x="-22.471" y="0">Entry Title</tspan></text>                
                <rect x="366" y="1434" width="118" height="122" rx="4" fill="url(#theme_avantgarde_s_company_team_image_3_id)" class="img_reference_s_company_team_image_3"></rect>
            </g>
            <g>
                <path d="M335 1615H217V1617H335V1615Z" fill="#FFFFFF" fill-opacity="0.4" class="svgc_invert" filter="url(#filter_readability_theme_avantgarde)"></path>
                <path d="M335 1625H217V1627H335V1625Z" fill="#FFFFFF" fill-opacity="0.4" class="svgc_invert" filter="url(#filter_readability_theme_avantgarde)"></path>
                <path d="M334 1635H252V1637H334V1635Z" fill="#FFFFFF" fill-opacity="0.4" class="svgc_invert" filter="url(#filter_readability_theme_avantgarde)"></path>
                <text transform="translate(359 1599)" text-anchor="End" fill="#000000" font-size="12" font-family="Sans" font-weight="700"><tspan x="-22.471" y="0">Entry Title</tspan></text>                
                <rect x="217" y="1645" width="118" height="87" rx="4" fill="url(#theme_avantgarde_s_banner_default_image_id)" class="img_reference_s_banner_default_image"></rect>
            </g>
            <path d="M453 1273H254V1275H453V1273Z" fill="#FFFFFF" fill-opacity="0.4" class="svgc_invert" filter="url(#filter_readability_theme_avantgarde)"></path>
            <text transform="translate(375 1260)" text-anchor="Middle" fill="#000000" font-size="17" font-family="Sans" font-weight="700"><tspan x="-22.471" y="0">Section Title</tspan></text>
        </g>
        <g class="s_quadrant">
            <path d="M700 1907H350V2051H700V1907Z" fill="url(#theme_avantgarde_s_quadrant_default_image_4_id)" class="img_reference_s_quadrant_s_quadrant_default_image_4"></path>
            <path d="M350 1907H0V2051H350V1907Z" fill="url(#theme_avantgarde_s_quadrant_default_image_3_id)" class="img_reference_s_quadrant_default_image_3"></path>
            <path d="M700 1763H350V1907H700V1763Z" fill="url(#theme_avantgarde_s_quadrant_default_image_2_id)" class="img_reference_s_quadrant_default_image_2"></path>
            <path d="M350 1763H0V1907H350V1763Z" fill="url(#theme_avantgarde_s_quadrant_default_image_1_id)" class="img_reference_s_quadrant_default_image_1"></path>
            <g>
                <path d="M521 1974H179C176.791 1974 175 1972.21 175 1970V1818C175 1815.79 176.791 1814 179 1814H521C523.209 1814 525 1815.79 525 1818V1970C525 1972.21 523.209 1974 521 1974Z" fill="#FFFFFF"></path>
                <g>
                    <rect x="309" y="1915" width="80" height="22" rx="4" fill="#3AADAA"></rect>
                </g>
                <path d="M407 1877H292V1879H407V1877Z" fill="#FFFFFF" fill-opacity="0.4" class="svgc_invert" filter="url(#filter_readability_theme_avantgarde)"></path>
                <path d="M407 1887H292V1889H407V1887Z" fill="#FFFFFF" fill-opacity="0.4" class="svgc_invert" filter="url(#filter_readability_theme_avantgarde)"></path>
                <path d="M373 1897H326V1899H373V1897Z" fill="#FFFFFF" fill-opacity="0.4" class="svgc_invert" filter="url(#filter_readability_theme_avantgarde)"></path>
                <text transform="translate(371 1866)" text-anchor="Middle" fill="#000000" font-size="14" font-family="Sans" font-weight="700"><tspan x="-22.471" y="0">Section Title</tspan></text>
            </g>
        </g>
        <g class="svgc_footer">
            <path d="M700 2051H0V2151H700V2051Z" fill="#FOOTER_COLOR" class="svgc_footer_bg"></path>
            <path d="M355 2117H222V2119H355V2117Z" fill="#FOOTER_COLOR" class="svgc_invert" filter="url(#filter_readability_theme_avantgarde)"></path>
            <path d="M317 2111H222V2113H317V2111Z" fill="#FOOTER_COLOR" class="svgc_invert" filter="url(#filter_readability_theme_avantgarde)"></path>
            <path d="M468 2080H223V2082H468V2080Z" fill="#FOOTER_COLOR" fill-opacity="0.4" class="svgc_invert" filter="url(#filter_readability_theme_avantgarde)"></path>
            <path d="M434 2086H223V2088H434V2086Z" fill="#FOOTER_COLOR" fill-opacity="0.4" class="svgc_invert" filter="url(#filter_readability_theme_avantgarde)"></path>
            <path d="M108 2112H70V2114H108V2112Z" fill="#FOOTER_COLOR" class="svgc_invert" filter="url(#filter_readability_theme_avantgarde)"></path>
            <path d="M115 2118H70V2120H115V2118Z" fill="#FOOTER_COLOR" class="svgc_invert" filter="url(#filter_readability_theme_avantgarde)"></path>
            <path d="M623 2118C626.866 2118 630 2114.87 630 2111C630 2107.13 626.866 2104 623 2104C619.134 2104 616 2107.13 616 2111C616 2114.87 619.134 2118 623 2118Z" fill="#FOOTER_COLOR" class="svgc_invert" filter="url(#filter_readability_theme_avantgarde)"></path>
            <path d="M604 2118C607.866 2118 611 2114.87 611 2111C611 2107.13 607.866 2104 604 2104C600.134 2104 597 2107.13 597 2111C597 2114.87 600.134 2118 604 2118Z" fill="#FOOTER_COLOR" class="svgc_invert" filter="url(#filter_readability_theme_avantgarde)"></path>
            <path d="M585 2118C588.866 2118 592 2114.87 592 2111C592 2107.13 588.866 2104 585 2104C581.134 2104 578 2107.13 578 2111C578 2114.87 581.134 2118 585 2118Z" fill="#FOOTER_COLOR" class="svgc_invert" filter="url(#filter_readability_theme_avantgarde)"></path>
            <path d="M139 2074H70V2084H139V2074Z" fill="#FOOTER_COLOR" class="svgc_invert" filter="url(#filter_readability_theme_avantgarde)"></path>
            <path d="M160 2087H70V2097H160V2087Z" fill="#FOOTER_COLOR" class="svgc_invert" filter="url(#filter_readability_theme_avantgarde)"></path>
        </g>
    </g>
    <defs>
        <clipPath id="clip0_136_2">
            <rect width="700" height="2151" fill="#FFFFFF"></rect>
        </clipPath>
    </defs>
</svg>