<svg width="700" height="1949" viewBox="0 0 700 1949" fill="none" xmlns="http://www.w3.org/2000/svg" data-vsvg="002" class="theme_avantgarde_svg_preview">
    <defs>
        <pattern id="theme_avantgarde_s_sidegrid_default_image_2_id" width="1" height="1" patternunits="objectBoundingBox">
            <image width="174" height="183" preserveAspectRatio="xMidYMid slice" href="#library_image_10_url"/>
        </pattern>
        <pattern id="theme_avantgarde_s_sidegrid_default_image_4_id" width="1" height="1" patternunits="objectBoundingBox">
            <image width="233" height="181" preserveAspectRatio="xMidYMid slice" href="#library_image_05_url"/>
        </pattern>
        <pattern id="theme_avantgarde_library_image_13_id" width="1" height="1" patternunits="objectBoundingBox">
            <image width="118" height="122" preserveAspectRatio="xMidYMid slice" href="#library_image_13_url"></image>
        </pattern>
        <pattern id="theme_avantgarde_library_image_03_id" width="1" height="1" patternunits="objectBoundingBox">
            <image width="118" height="122" preserveAspectRatio="xMidYMid slice" href="#library_image_03_url"></image>
        </pattern>
        <pattern id="theme_avantgarde_library_image_16_id" width="1" height="1" patternunits="objectBoundingBox">
            <image width="118" height="122" preserveAspectRatio="xMidYMid slice" href="#library_image_16_url"></image>
        </pattern>
        <pattern id="theme_avantgarde_s_company_team_image_3_id" width="1" height="1" patternunits="objectBoundingBox">
            <image width="118" height="122" preserveAspectRatio="xMidYMid slice" href="/web/image/website.s_company_team_image_3"/>
        </pattern>
        <pattern id="theme_avantgarde_s_carousel_default_image_2_id" width="1" height="1" patternunits="objectBoundingBox">
            <image  width="700" height="200" preserveAspectRatio="xMidYMid slice" href="#s_carousel_default_image_2_url"></image>
        </pattern>
        <pattern id="theme_avantgarde_s_banner_default_image_id" width="1" height="1" patternunits="objectBoundingBox">
            <image width="118" height="87" preserveAspectRatio="xMidYMid slice" href="#s_banner_default_image_url"></image>
        </pattern>
        <pattern id="theme_avantgarde_s_quadrant_default_image_4_id" width="1" height="1" patternunits="objectBoundingBox">
            <image width="350" height="144" preserveAspectRatio="xMidYMid slice" href="#library_image_05_url"></image>
        </pattern>
        <pattern id="theme_avantgarde_s_quadrant_default_image_3_id" width="1" height="1" patternunits="objectBoundingBox">
            <image width="350" height="144" preserveAspectRatio="xMidYMid slice" href="#library_image_13_url"></image>
        </pattern>
        <pattern id="theme_avantgarde_s_quadrant_default_image_2_id" width="1" height="1" patternunits="objectBoundingBox">
            <image width="350" height="144" preserveAspectRatio="xMidYMid slice" href="#library_image_10_url"></image>
        </pattern>
        <pattern id="theme_avantgarde_s_quadrant_default_image_1_id" width="1" height="1" patternunits="objectBoundingBox">
            <image width="350" height="144" preserveAspectRatio="xMidYMid slice" href="#library_image_03_url"></image>
        </pattern>
        <filter id="filter_readability_theme_avantgarde">
            <feColorMatrix in="SourceGraphic" type="saturate" values="0"></feColorMatrix>
            <feComponentTransfer>
                <feFuncR type="table" tableValues="1 0"></feFuncR>
                <feFuncG type="table" tableValues="1 0"></feFuncG>
                <feFuncB type="table" tableValues="1 0"></feFuncB>
            </feComponentTransfer>
            <feComponentTransfer>
                <feFuncR type="linear" slope="10000" intercept="-4999.5"></feFuncR>
                <feFuncG type="linear" slope="10000" intercept="-4999.5"></feFuncG>
                <feFuncB type="linear" slope="10000" intercept="-4999.5"></feFuncB>
            </feComponentTransfer>
        </filter>
    </defs>
    <rect width="700" height="2151" fill="#ACACAC"></rect>
    <g clip-path="url(#clip0_136_2)" class="theme_avantgarde">
        <rect width="700" height="2151" fill="#FFFFFF"></rect>
        <g class="svgc_menu">
            <path d="M700 0H0V37H700V0Z" fill="#MENU_COLOR" class="svgc_menu_bg"></path>
            <path d="M630 17H614V19H630V17Z" fill="#MENU_COLOR" fill-opacity="0.4" class="svgc_invert" filter="url(#filter_readability_theme_avantgarde)"></path>
            <path d="M630 11H614V13H630V11Z" fill="#MENU_COLOR" fill-opacity="0.4" class="svgc_invert" filter="url(#filter_readability_theme_avantgarde)"></path>
            <path d="M630 23H614V25H630V23Z" fill="#MENU_COLOR" fill-opacity="0.4" class="svgc_invert" filter="url(#filter_readability_theme_avantgarde)"></path>
            <path d="M77 25C80.866 25 84 21.866 84 18C84 14.134 80.866 11 77 11C73.134 11 70 14.134 70 18C70 21.866 73.134 25 77 25Z" fill="#MENU_COLOR" fill-opacity="0.3" class="svgc_invert" filter="url(#filter_readability_theme_avantgarde)"></path>
            <path d="M99 25C102.866 25 106 21.866 106 18C106 14.134 102.866 11 99 11C95.134 11 92 14.134 92 18C92 21.866 95.134 25 99 25Z" fill="#MENU_COLOR" fill-opacity="0.3" class="svgc_invert" filter="url(#filter_readability_theme_avantgarde)"></path>
            <path d="M339.485 21.8929V20.536H335.812V14.1072H334V21.8929H339.485ZM344.081 22C344.837 22 345.517 21.843 346.123 21.5298C346.731 21.2176 347.21 20.7626 347.564 20.1666C347.917 19.5716 348.093 18.849 348.093 17.9996C348.093 17.1512 347.916 16.4286 347.563 15.8326C347.21 15.2376 346.731 14.7835 346.124 14.4703C345.517 14.1572 344.836 14.0002 344.08 14.0002C343.319 14.0002 342.635 14.1572 342.029 14.4703C341.425 14.7826 340.945 15.2376 340.595 15.8326C340.243 16.4286 340.068 17.1512 340.068 18.0005C340.068 18.8463 340.243 19.5671 340.595 20.1631C340.919 20.7336 341.417 21.2075 342.029 21.5281C342.635 21.8421 343.319 21.9991 344.08 21.9991L344.081 22ZM344.081 20.5431C343.675 20.5513 343.276 20.4494 342.934 20.2505C342.607 20.0551 342.354 19.7687 342.174 19.3914C341.994 19.014 341.904 18.5501 341.904 17.9996C341.904 17.4501 341.994 16.9862 342.174 16.6079C342.354 16.2305 342.607 15.9441 342.934 15.7496C343.275 15.5506 343.674 15.4488 344.08 15.457C344.518 15.457 344.9 15.5543 345.227 15.7496C345.553 15.9441 345.806 16.2314 345.986 16.6088C346.166 16.9862 346.256 17.4501 346.256 18.0005C346.256 18.5501 346.166 19.014 345.986 19.3914C345.806 19.7687 345.554 20.0551 345.227 20.2505C344.885 20.4497 344.487 20.5516 344.081 20.5431ZM353.19 21.9991C353.91 21.9991 354.549 21.8671 355.107 21.6021C355.655 21.3459 356.111 20.9528 356.421 20.4691C356.739 19.9784 356.898 19.3914 356.898 18.7071V17.7257H353.312V18.9658H355.15L355.146 19.0782C355.13 19.2897 355.078 19.4815 354.992 19.6537L354.921 19.7786C354.764 20.0232 354.531 20.2199 354.251 20.3433C353.96 20.4771 353.609 20.5431 353.199 20.5431C352.748 20.5431 352.355 20.4441 352.023 20.2452C351.691 20.0462 351.434 19.7563 351.253 19.3762C351.072 18.9962 350.981 18.5349 350.981 17.9925C350.981 17.4501 351.073 16.9906 351.257 16.6141C351.442 16.2376 351.699 15.9504 352.03 15.7532C352.373 15.5523 352.774 15.4492 353.183 15.457C353.416 15.457 353.63 15.4838 353.825 15.5364C354.018 15.59 354.191 15.6667 354.343 15.7666C354.495 15.8665 354.624 15.9878 354.73 16.1315C354.836 16.2742 354.919 16.4384 354.978 16.6239H356.819C356.765 16.2505 356.629 15.8906 356.421 15.565C356.216 15.2446 355.945 14.9627 355.624 14.7344C355.289 14.4967 354.912 14.3135 354.509 14.1929C354.072 14.0619 353.614 13.9968 353.153 14.0002C352.613 13.9957 352.077 14.0875 351.575 14.2705C351.093 14.4481 350.658 14.7162 350.299 15.0573C349.921 15.4193 349.631 15.8486 349.447 16.3179C349.245 16.8131 349.144 17.376 349.144 18.0077C349.144 18.8284 349.314 19.5377 349.652 20.1345C349.969 20.7098 350.463 21.1892 351.073 21.5147C351.682 21.8376 352.387 21.9991 353.19 21.9991ZM361.987 21.9991C362.743 21.9991 363.423 21.843 364.03 21.5298C364.637 21.2176 365.117 20.7626 365.47 20.1666C365.823 19.5716 366 18.849 366 17.9996C366 17.1512 365.823 16.4286 365.47 15.8326C365.116 15.2376 364.637 14.7835 364.03 14.4703C363.423 14.1572 362.743 14.0002 361.987 14.0002C361.225 14.0002 360.541 14.1572 359.936 14.4703C359.331 14.7826 358.852 15.2376 358.501 15.8326C358.149 16.4286 357.973 17.1512 357.973 18.0005C357.973 18.8463 358.149 19.5671 358.501 20.1631C358.852 20.759 359.331 21.214 359.936 21.5281C360.541 21.8421 361.225 21.9991 361.987 21.9991ZM361.987 20.5431C361.549 20.5431 361.166 20.445 360.84 20.2505C360.514 20.0551 360.26 19.7687 360.081 19.3914C359.9 19.014 359.811 18.5501 359.811 17.9996C359.811 17.4501 359.9 16.9862 360.081 16.6079C360.26 16.2305 360.513 15.9441 360.84 15.7496C361.182 15.5505 361.581 15.4486 361.987 15.457C362.425 15.457 362.807 15.5543 363.133 15.7496C363.46 15.9441 363.712 16.2314 363.893 16.6088C364.072 16.9862 364.163 17.4501 364.163 18.0005C364.163 18.5501 364.072 19.014 363.893 19.3914C363.712 19.7687 363.46 20.0551 363.133 20.2505C362.791 20.4495 362.392 20.5514 361.987 20.5431Z" fill="#MENU_COLOR" class="svgc_invert" filter="url(#filter_readability_theme_avantgarde)"></path>
        </g>
        <g class="s_sidegrid">
            <path d="M233 37H0V120H233V37Z" fill="#3AADAA"></path>
            <path d="M233 120H0V301H233V120Z" fill="url(#theme_avantgarde_s_sidegrid_default_image_4_id)" class="img_reference_s_sidegrid_default_image_4"></path>
            <path d="M407 37H233V220H407V37Z" fill="url(#theme_avantgarde_s_sidegrid_default_image_2_id)" class="img_reference_s_sidegrid_default_image_2"></path>
            <path d="M700 301H233V220H700V301Z" fill="#F6F6F6"></path>
            <path d="M700 37H407V220H700V37Z" fill="#FFFFFF"></path>
            <text transform="translate(675 85)" text-anchor="end" fill="#000000" class="svgc_text" filter="url(#filter_readability_anelusia)" font-size="28" font-family="Sans" font-weight="700">
                <tspan x="10" y="0">Welcome</tspan>
                <tspan x="0" y="37">Message</tspan>
            </text>
            <text transform="translate(272 262)" text-anchor="Start" fill="#000000" font-size="22" font-family="Sans" font-weight="700"><tspan x="-22.471" y="0">Second Title</tspan></text>
            <path d="M416 279H253V281H416V279Z" fill="#F6F6F6" fill-opacity="0.4" class="svgc_invert" filter="url(#filter_readability_theme_avantgarde)"></path>
        </g>
        <g class="s_features_wall">
            <rect y="301" width="700" height="509" fill="#7C6576"></rect>
            <g>
                <rect x="70" y="428" width="80" height="32" rx="4" fill="#F6F6F6"></rect>
                <text transform="translate(133 448)" text-anchor="Middle" fill="#000000" font-size="10" font-family="Sans" font-weight="700"><tspan x="-22.471" y="0">Discover</tspan></text>
            </g>
            <path d="M269 388H70V390H269V388Z" fill="#7C6576" fill-opacity="0.4" class="svgc_invert" filter="url(#filter_readability_theme_avantgarde)"></path>
            <path d="M207 402H70V404H207V402Z" fill="#7C6576" fill-opacity="0.4" class="svgc_invert" filter="url(#filter_readability_theme_avantgarde)"></path>
            <text transform="translate(97 365)" text-anchor="Start" fill="#FFFFFF" font-size="20" font-family="Sans" font-weight="700"><tspan x="-22.471" y="0">Section Title</tspan></text>
            <g>
                <path d="M474 725H356V727H474V725Z" fill="#7C6576" fill-opacity="0.4" class="svgc_invert" filter="url(#filter_readability_theme_avantgarde)"></path>
                <path d="M474 735H356V737H474V735Z" fill="#7C6576" fill-opacity="0.4" class="svgc_invert" filter="url(#filter_readability_theme_avantgarde)"></path>
                <path d="M438 745H356V747H438V745Z" fill="#7C6576" fill-opacity="0.4" class="svgc_invert" filter="url(#filter_readability_theme_avantgarde)"></path>
                <text transform="translate(378 710)" text-anchor="Start" fill="#FFFFFF" font-size="12" font-family="Sans" font-weight="700"><tspan x="-22.471" y="0">Entry Title</tspan></text>                
                <rect x="356" y="566" width="118" height="122" rx="4" fill="url(#theme_avantgarde_library_image_13_id)" class="img_reference_library_image_13"></rect>
            </g>
            <g>
                <path d="M604 603H486V605H604V603Z" fill="#7C6576" fill-opacity="0.4" class="svgc_invert" filter="url(#filter_readability_theme_avantgarde)"></path>
                <path d="M604 613H486V615H604V613Z" fill="#7C6576" fill-opacity="0.4" class="svgc_invert" filter="url(#filter_readability_theme_avantgarde)"></path>
                <path d="M568 623H486V625H568V623Z" fill="#7C6576" fill-opacity="0.4" class="svgc_invert" filter="url(#filter_readability_theme_avantgarde)"></path>
                <text transform="translate(509 590)" text-anchor="Start" fill="#FFFFFF" font-size="12" font-family="Sans" font-weight="700"><tspan x="-22.471" y="0">Entry Title</tspan></text>                
                <rect x="486" y="444" width="118" height="122" rx="4" fill="url(#theme_avantgarde_library_image_03_id)" class="img_reference_library_image_03"></rect>
            </g>
            <g>
                <path d="M475 503H357V505H475V503Z" fill="#7C6576" fill-opacity="0.4" class="svgc_invert" filter="url(#filter_readability_theme_avantgarde)"></path>
                <path d="M475 513H357V515H475V513Z" fill="#7C6576" fill-opacity="0.4" class="svgc_invert" filter="url(#filter_readability_theme_avantgarde)"></path>
                <path d="M439 523H357V525H439V523Z" fill="#7C6576" fill-opacity="0.4" class="svgc_invert" filter="url(#filter_readability_theme_avantgarde)"></path>
                <text transform="translate(378 490)" text-anchor="Start" fill="#FFFFFF" font-size="12" font-family="Sans" font-weight="700"><tspan x="-22.471" y="0">Entry Title</tspan></text>                
                <rect x="357" y="344" width="118" height="122" rx="4" fill="url(#theme_avantgarde_library_image_16_id)" class="img_reference_library_image_16"></rect>
            </g>
        </g>
        <g class="s_carousel">
            <rect y="810" width="700" height="200" fill="url(#theme_avantgarde_s_carousel_default_image_2_id)" class="img_reference_s_carousel_default_image_2"></rect>
            <g>
                <rect x="649" y="895" width="28" height="28" rx="4" fill="#D9D9D9"></rect>
                <path d="M659 917L667 909L659 901" stroke="black" stroke-opacity="0.4" stroke-width="3"></path>
            </g>
            <g>
                <rect x="51" y="924" width="28" height="28" rx="4" transform="rotate(-180 51 924)" fill="#D9D9D9"></rect>
                <path d="M41 902L33 910L41 918" stroke="black" stroke-opacity="0.4" stroke-width="3"></path>
            </g>
            <g>
                <path d="M450 917H251V919H450V917Z" fill="#383E45" class="svgc_invert" filter="url(#filter_readability_theme_avantgarde)"></path>
                <path d="M419 931H282V933H419V931Z" fill="#383E45" class="svgc_invert" filter="url(#filter_readability_theme_avantgarde)"></path>
                <path d="M394 945H308V947H394V945Z" fill="#383E45" class="svgc_invert" filter="url(#filter_readability_theme_avantgarde)"></path>
                <text transform="translate(373 894)" text-anchor="Middle" fill="#FFFFFF" font-size="20" font-family="Sans" font-weight="700"><tspan x="-22.471" y="0">Section Title</tspan></text>                
                <g>
                    <circle cx="336.5" cy="991.5" r="2.5" fill="#383E45" class="svgc_invert" filter="url(#filter_readability_theme_avantgarde)"></circle>
                    <circle cx="350.5" cy="991.5" r="3.5" fill="#383E45" class="svgc_invert" filter="url(#filter_readability_theme_avantgarde)"></circle>
                    <circle cx="364.5" cy="991.5" r="2.5" fill="#383E45" class="svgc_invert" filter="url(#filter_readability_theme_avantgarde)"></circle>
                </g>
            </g>
        </g>
        <g class="s_carousel">
            <rect y="1012" width="700" height="200" fill="url(#theme_avantgarde_s_carousel_default_image_2_id)" class="img_reference_s_carousel_default_image_2"></rect>
            <g>
                <rect x="649" y="1097" width="28" height="28" rx="4" fill="#D9D9D9"></rect>
                <path d="M659 1119L667 1111L659 1103" stroke="black" stroke-opacity="0.4" stroke-width="3"></path>
            </g>
            <g>
                <rect x="51" y="1126" width="28" height="28" rx="4" transform="rotate(-180 51 1126)" fill="#D9D9D9"></rect>
                <path d="M41 1104L33 1112L41 1120" stroke="black" stroke-opacity="0.4" stroke-width="3"></path>
            </g>
            <g>
                <path d="M450 1119H251V1121H450V1119Z" fill="#383E45" class="svgc_invert" filter="url(#filter_readability_theme_avantgarde)"></path>
                <path d="M419 1133H282V1135H419V1133Z" fill="#383E45" class="svgc_invert" filter="url(#filter_readability_theme_avantgarde)"></path>
                <path d="M394 1147H308V1149H394V1147Z" fill="#383E45" class="svgc_invert" filter="url(#filter_readability_theme_avantgarde)"></path>
                <text transform="translate(375 1097)" text-anchor="Middle" fill="#FFFFFF" font-size="20" font-family="Sans" font-weight="700"><tspan x="-22.471" y="0">Section Title</tspan></text>
                <g>
                    <circle cx="336.5" cy="1193.5" r="2.5" fill="#383E45" class="svgc_invert" filter="url(#filter_readability_theme_avantgarde)"></circle>
                    <circle cx="350.5" cy="1193.5" r="3.5" fill="#383E45" class="svgc_invert" filter="url(#filter_readability_theme_avantgarde)"></circle>
                    <circle cx="364.5" cy="1193.5" r="2.5" fill="#383E45" class="svgc_invert" filter="url(#filter_readability_theme_avantgarde)"></circle>
                </g>
            </g>
        </g>
        <g class="s_timeline">
            <path d="M700 1561H0V1010H700V1561Z" fill="#FFFFFF"></path>
            <g>
                <rect x="350" y="1111" width="1" height="64" fill="black" fill-opacity="0.4"></rect>
                <rect x="350" y="1192" width="1" height="194" fill="black" fill-opacity="0.4"></rect>
                <rect width="1" height="128" transform="matrix(1 0 0 -1 350 1531)" fill="black" fill-opacity="0.4"></rect>
                <circle opacity="0.4" cx="350.5" cy="1102.5" r="5.5" fill="#3AADAA"></circle>
                <circle cx="350.5" cy="1102.5" r="2.5" fill="#3AADAA"></circle>
                <circle opacity="0.4" cx="350.5" cy="1183.5" r="5.5" fill="#3AADAA"></circle>
                <circle cx="350.5" cy="1183.5" r="2.5" fill="#3AADAA"></circle>
                <circle opacity="0.4" cx="350.5" cy="1394.5" r="5.5" fill="#3AADAA"></circle>
                <circle cx="350.5" cy="1394.5" r="2.5" fill="#3AADAA"></circle>
            </g>
            <g>
                <path d="M335 1121H217V1123H335V1121Z" fill="#FFFFFF" fill-opacity="0.4" class="svgc_invert" filter="url(#filter_readability_theme_avantgarde)"></path>
                <path d="M335 1131H217V1133H335V1131Z" fill="#FFFFFF" fill-opacity="0.4" class="svgc_invert" filter="url(#filter_readability_theme_avantgarde)"></path>
                <path d="M334 1141H252V1143H334V1141Z" fill="#FFFFFF" fill-opacity="0.4" class="svgc_invert" filter="url(#filter_readability_theme_avantgarde)"></path>
                <text transform="translate(359 1106)" text-anchor="End" fill="#000000" font-size="12" font-family="Sans" font-weight="700"><tspan x="-22.471" y="0">Entry Title</tspan></text>                
            </g>
            <g>
                <path d="M335 1202H217V1204H335V1202Z" fill="#FFFFFF" fill-opacity="0.4" class="svgc_invert" filter="url(#filter_readability_theme_avantgarde)"></path>
                <path d="M335 1212H217V1214H335V1212Z" fill="#FFFFFF" fill-opacity="0.4" class="svgc_invert" filter="url(#filter_readability_theme_avantgarde)"></path>
                <path d="M334 1222H252V1224H334V1222Z" fill="#FFFFFF" fill-opacity="0.4" class="svgc_invert" filter="url(#filter_readability_theme_avantgarde)"></path>
                <text transform="translate(359 1187)" text-anchor="End" fill="#000000" font-size="12" font-family="Sans" font-weight="700"><tspan x="-22.471" y="0">Entry Title</tspan></text>                
            </g>
            <g>
                <path d="M484 1202H366V1204H484V1202Z" fill="#FFFFFF" fill-opacity="0.4" class="svgc_invert" filter="url(#filter_readability_theme_avantgarde)"></path>
                <path d="M484 1212H366V1214H484V1212Z" fill="#FFFFFF" fill-opacity="0.4" class="svgc_invert" filter="url(#filter_readability_theme_avantgarde)"></path>
                <path d="M448 1222H366V1224H448V1222Z" fill="#FFFFFF" fill-opacity="0.4" class="svgc_invert" filter="url(#filter_readability_theme_avantgarde)"></path>
                <text transform="translate(389 1187)" text-anchor="Start" fill="#000000" font-size="12" font-family="Sans" font-weight="700"><tspan x="-22.471" y="0">Entry Title</tspan></text>                
                <rect x="366" y="1232" width="118" height="122" rx="4" fill="url(#theme_avantgarde_s_company_team_image_3_id)" class="img_reference_s_company_team_image_3"></rect>
            </g>
            <g>
                <path d="M335 1413H217V1415H335V1413Z" fill="#FFFFFF" fill-opacity="0.4" class="svgc_invert" filter="url(#filter_readability_theme_avantgarde)"></path>
                <path d="M335 1423H217V1425H335V1423Z" fill="#FFFFFF" fill-opacity="0.4" class="svgc_invert" filter="url(#filter_readability_theme_avantgarde)"></path>
                <path d="M334 1433H252V1435H334V1433Z" fill="#FFFFFF" fill-opacity="0.4" class="svgc_invert" filter="url(#filter_readability_theme_avantgarde)"></path>
                <text transform="translate(359 1398)" text-anchor="End" fill="#000000" font-size="12" font-family="Sans" font-weight="700"><tspan x="-22.471" y="0">Entry Title</tspan></text>                
                <rect x="217" y="1443" width="118" height="87" rx="4" fill="url(#theme_avantgarde_s_banner_default_image_id)" class="img_reference_s_banner_default_image"></rect>
            </g>
            <path d="M453 1071H254V1073H453V1071Z" fill="#FFFFFF" fill-opacity="0.4" class="svgc_invert" filter="url(#filter_readability_theme_avantgarde)"></path>
            <path d="M293.406 1053.34L296.219 1053.07C296.388 1054.01 296.73 1054.71 297.244 1055.15C297.765 1055.59 298.465 1055.81 299.344 1055.81C300.275 1055.81 300.975 1055.62 301.443 1055.23C301.919 1054.83 302.156 1054.37 302.156 1053.84C302.156 1053.5 302.055 1053.21 301.854 1052.98C301.658 1052.74 301.313 1052.53 300.818 1052.36C300.48 1052.24 299.708 1052.03 298.504 1051.73C296.954 1051.35 295.867 1050.87 295.242 1050.31C294.363 1049.53 293.924 1048.57 293.924 1047.43C293.924 1046.7 294.129 1046.02 294.539 1045.39C294.956 1044.75 295.551 1044.27 296.326 1043.94C297.107 1043.61 298.048 1043.44 299.148 1043.44C300.945 1043.44 302.296 1043.83 303.201 1044.62C304.113 1045.41 304.591 1046.46 304.637 1047.78L301.746 1047.9C301.622 1047.17 301.355 1046.64 300.945 1046.32C300.542 1045.99 299.933 1045.83 299.119 1045.83C298.279 1045.83 297.622 1046 297.146 1046.35C296.84 1046.57 296.688 1046.87 296.688 1047.24C296.688 1047.58 296.831 1047.87 297.117 1048.11C297.482 1048.41 298.367 1048.73 299.773 1049.06C301.18 1049.4 302.218 1049.74 302.889 1050.1C303.566 1050.45 304.093 1050.94 304.471 1051.55C304.855 1052.17 305.047 1052.93 305.047 1053.83C305.047 1054.65 304.819 1055.42 304.363 1056.13C303.908 1056.85 303.263 1057.38 302.43 1057.74C301.596 1058.08 300.558 1058.25 299.314 1058.25C297.505 1058.25 296.115 1057.84 295.145 1057C294.174 1056.16 293.595 1054.94 293.406 1053.34ZM313.465 1054.7L316.199 1055.16C315.848 1056.16 315.291 1056.93 314.529 1057.45C313.774 1057.97 312.827 1058.23 311.688 1058.23C309.884 1058.23 308.549 1057.65 307.684 1056.47C307 1055.52 306.658 1054.33 306.658 1052.89C306.658 1051.17 307.107 1049.83 308.006 1048.86C308.904 1047.88 310.04 1047.39 311.414 1047.39C312.957 1047.39 314.174 1047.91 315.066 1048.93C315.958 1049.94 316.385 1051.5 316.346 1053.61H309.471C309.49 1054.42 309.712 1055.05 310.135 1055.51C310.558 1055.96 311.085 1056.18 311.717 1056.18C312.146 1056.18 312.508 1056.07 312.801 1055.83C313.094 1055.6 313.315 1055.22 313.465 1054.7ZM313.621 1051.93C313.602 1051.13 313.396 1050.53 313.006 1050.12C312.615 1049.7 312.14 1049.49 311.58 1049.49C310.981 1049.49 310.486 1049.71 310.096 1050.15C309.705 1050.58 309.513 1051.18 309.52 1051.93H313.621ZM327.635 1050.7L324.93 1051.18C324.839 1050.64 324.63 1050.24 324.305 1049.96C323.986 1049.69 323.569 1049.55 323.055 1049.55C322.371 1049.55 321.824 1049.79 321.414 1050.27C321.01 1050.73 320.809 1051.52 320.809 1052.63C320.809 1053.86 321.014 1054.73 321.424 1055.24C321.84 1055.74 322.397 1056 323.094 1056C323.615 1056 324.041 1055.85 324.373 1055.56C324.705 1055.26 324.939 1054.75 325.076 1054.03L327.771 1054.48C327.492 1055.72 326.954 1056.66 326.16 1057.29C325.366 1057.92 324.301 1058.23 322.967 1058.23C321.45 1058.23 320.239 1057.76 319.334 1056.8C318.436 1055.84 317.986 1054.52 317.986 1052.82C317.986 1051.11 318.439 1049.78 319.344 1048.83C320.249 1047.87 321.473 1047.39 323.016 1047.39C324.279 1047.39 325.281 1047.67 326.023 1048.21C326.772 1048.76 327.309 1049.58 327.635 1050.7ZM334.48 1047.63V1049.82H332.605V1054C332.605 1054.84 332.622 1055.34 332.654 1055.48C332.693 1055.62 332.775 1055.73 332.898 1055.82C333.029 1055.91 333.185 1055.96 333.367 1055.96C333.621 1055.96 333.989 1055.87 334.471 1055.7L334.705 1057.82C334.067 1058.1 333.344 1058.23 332.537 1058.23C332.042 1058.23 331.596 1058.15 331.199 1057.99C330.802 1057.82 330.509 1057.61 330.32 1057.35C330.138 1057.08 330.011 1056.72 329.939 1056.27C329.881 1055.95 329.852 1055.31 329.852 1054.34V1049.82H328.592V1047.63H329.852V1045.57L332.605 1043.97V1047.63H334.48ZM336.385 1046.22V1043.68H339.129V1046.22H336.385ZM336.385 1058V1047.63H339.129V1058H336.385ZM341.316 1052.67C341.316 1051.76 341.541 1050.87 341.99 1050.02C342.439 1049.17 343.074 1048.52 343.895 1048.07C344.721 1047.62 345.643 1047.39 346.658 1047.39C348.227 1047.39 349.513 1047.91 350.516 1048.93C351.518 1049.94 352.02 1051.23 352.02 1052.79C352.02 1054.35 351.512 1055.66 350.496 1056.69C349.487 1057.72 348.214 1058.23 346.678 1058.23C345.727 1058.23 344.819 1058.02 343.953 1057.59C343.094 1057.16 342.439 1056.53 341.99 1055.71C341.541 1054.87 341.316 1053.86 341.316 1052.67ZM344.129 1052.81C344.129 1053.84 344.373 1054.63 344.861 1055.18C345.35 1055.72 345.952 1056 346.668 1056C347.384 1056 347.983 1055.72 348.465 1055.18C348.953 1054.63 349.197 1053.84 349.197 1052.79C349.197 1051.78 348.953 1051 348.465 1050.45C347.983 1049.9 347.384 1049.63 346.668 1049.63C345.952 1049.63 345.35 1049.9 344.861 1050.45C344.373 1051 344.129 1051.79 344.129 1052.81ZM363.611 1058H360.867V1052.71C360.867 1051.59 360.809 1050.86 360.691 1050.54C360.574 1050.21 360.382 1049.95 360.115 1049.77C359.855 1049.59 359.539 1049.49 359.168 1049.49C358.693 1049.49 358.266 1049.62 357.889 1049.88C357.511 1050.15 357.251 1050.49 357.107 1050.92C356.971 1051.35 356.902 1052.14 356.902 1053.3V1058H354.158V1047.63H356.707V1049.15C357.612 1047.98 358.751 1047.39 360.125 1047.39C360.73 1047.39 361.284 1047.51 361.785 1047.73C362.286 1047.94 362.664 1048.22 362.918 1048.56C363.178 1048.9 363.357 1049.28 363.455 1049.71C363.559 1050.14 363.611 1050.75 363.611 1051.55V1058ZM375.213 1058V1046.11H370.965V1043.68H382.342V1046.11H378.104V1058H375.213ZM383.826 1046.22V1043.68H386.57V1046.22H383.826ZM383.826 1058V1047.63H386.57V1058H383.826ZM394.148 1047.63V1049.82H392.273V1054C392.273 1054.84 392.29 1055.34 392.322 1055.48C392.361 1055.62 392.443 1055.73 392.566 1055.82C392.697 1055.91 392.853 1055.96 393.035 1055.96C393.289 1055.96 393.657 1055.87 394.139 1055.7L394.373 1057.82C393.735 1058.1 393.012 1058.23 392.205 1058.23C391.71 1058.23 391.264 1058.15 390.867 1057.99C390.47 1057.82 390.177 1057.61 389.988 1057.35C389.806 1057.08 389.679 1056.72 389.607 1056.27C389.549 1055.95 389.52 1055.31 389.52 1054.34V1049.82H388.26V1047.63H389.52V1045.57L392.273 1043.97V1047.63H394.148ZM396.053 1058V1043.68H398.797V1058H396.053ZM407.625 1054.7L410.359 1055.16C410.008 1056.16 409.451 1056.93 408.689 1057.45C407.934 1057.97 406.987 1058.23 405.848 1058.23C404.044 1058.23 402.71 1057.65 401.844 1056.47C401.16 1055.52 400.818 1054.33 400.818 1052.89C400.818 1051.17 401.268 1049.83 402.166 1048.86C403.064 1047.88 404.201 1047.39 405.574 1047.39C407.117 1047.39 408.335 1047.91 409.227 1048.93C410.118 1049.94 410.545 1051.5 410.506 1053.61H403.631C403.65 1054.42 403.872 1055.05 404.295 1055.51C404.718 1055.96 405.245 1056.18 405.877 1056.18C406.307 1056.18 406.668 1056.07 406.961 1055.83C407.254 1055.6 407.475 1055.22 407.625 1054.7ZM407.781 1051.93C407.762 1051.13 407.557 1050.53 407.166 1050.12C406.775 1049.7 406.3 1049.49 405.74 1049.49C405.141 1049.49 404.646 1049.71 404.256 1050.15C403.865 1050.58 403.673 1051.18 403.68 1051.93H407.781Z" fill="#FFFFFF" class="svgc_invert" filter="url(#filter_readability_theme_avantgarde)"></path>
        </g>
        <g class="s_quadrant">
            <path d="M700 1705H350V1849H700V1705Z" fill="url(#theme_avantgarde_s_quadrant_default_image_4_id)" class="img_reference_s_quadrant_default_image_4"></path>
            <path d="M350 1705H0V1849H350V1705Z" fill="url(#theme_avantgarde_s_quadrant_default_image_3_id)" class="img_reference_s_quadrant_default_image_3"></path>
            <path d="M700 1561H350V1705H700V1561Z" fill="url(#theme_avantgarde_s_quadrant_default_image_2_id)" class="img_reference_s_quadrant_default_image_2"></path>
            <path d="M350 1561H0V1705H350V1561Z" fill="url(#theme_avantgarde_s_quadrant_default_image_1_id)" class="img_reference_s_quadrant_default_image_1"></path>
            <g>
                <path d="M521 1772H179C176.791 1772 175 1770.21 175 1768V1616C175 1613.79 176.791 1612 179 1612H521C523.209 1612 525 1613.79 525 1616V1768C525 1770.21 523.209 1772 521 1772Z" fill="#FFFFFF"></path>
                <g>
                    <rect x="309" y="1713" width="80" height="22" rx="4" fill="#3AADAA"></rect>
                </g>
                <path d="M407 1675H292V1677H407V1675Z" fill="#FFFFFF" fill-opacity="0.4" class="svgc_invert" filter="url(#filter_readability_theme_avantgarde)"></path>
                <path d="M407 1685H292V1687H407V1685Z" fill="#FFFFFF" fill-opacity="0.4" class="svgc_invert" filter="url(#filter_readability_theme_avantgarde)"></path>
                <path d="M373 1695H326V1697H373V1695Z" fill="#FFFFFF" fill-opacity="0.4" class="svgc_invert" filter="url(#filter_readability_theme_avantgarde)"></path>
                <text transform="translate(371 1664)" text-anchor="Middle" fill="#000000" font-size="14" font-family="Sans" font-weight="700"><tspan x="-22.471" y="0">Section Title</tspan></text> -->
            </g>
        </g>
        <g class="svgc_footer">
            <path d="M700 1849H0V1949H700V1849Z" fill="#FOOTER_COLOR" class="svgc_footer_bg"></path>
            <path d="M355 1915H222V1917H355V1915Z" fill="#FOOTER_COLOR" class="svgc_invert" filter="url(#filter_readability_theme_avantgarde)"></path>
            <path d="M317 1909H222V1911H317V1909Z" fill="#FOOTER_COLOR" class="svgc_invert" filter="url(#filter_readability_theme_avantgarde)"></path>
            <path d="M468 1878H223V1880H468V1878Z" fill="#FOOTER_COLOR" fill-opacity="0.4" class="svgc_invert" filter="url(#filter_readability_theme_avantgarde)"></path>
            <path d="M434 1884H223V1886H434V1884Z" fill="#FOOTER_COLOR" fill-opacity="0.4" class="svgc_invert" filter="url(#filter_readability_theme_avantgarde)"></path>
            <path d="M108 1910H70V1912H108V1910Z" fill="#FOOTER_COLOR" class="svgc_invert" filter="url(#filter_readability_theme_avantgarde)"></path>
            <path d="M115 1916H70V1918H115V1916Z" fill="#FOOTER_COLOR" class="svgc_invert" filter="url(#filter_readability_theme_avantgarde)"></path>
            <path d="M623 1916C626.866 1916 630 1912.87 630 1909C630 1905.13 626.866 1902 623 1902C619.134 1902 616 1905.13 616 1909C616 1912.87 619.134 1916 623 1916Z" fill="#FOOTER_COLOR" class="svgc_invert" filter="url(#filter_readability_theme_avantgarde)"></path>
            <path d="M604 1916C607.866 1916 611 1912.87 611 1909C611 1905.13 607.866 1902 604 1902C600.134 1902 597 1905.13 597 1909C597 1912.87 600.134 1916 604 1916Z" fill="#FOOTER_COLOR" class="svgc_invert" filter="url(#filter_readability_theme_avantgarde)"></path>
            <path d="M585 1916C588.866 1916 592 1912.87 592 1909C592 1905.13 588.866 1902 585 1902C581.134 1902 578 1905.13 578 1909C578 1912.87 581.134 1916 585 1916Z" fill="#FOOTER_COLOR" class="svgc_invert" filter="url(#filter_readability_theme_avantgarde)"></path>
            <path d="M139 1872H70V1882H139V1872Z" fill="#FOOTER_COLOR" class="svgc_invert" filter="url(#filter_readability_theme_avantgarde)"></path>
            <path d="M160 1885H70V1895H160V1885Z" fill="#FOOTER_COLOR" class="svgc_invert" filter="url(#filter_readability_theme_avantgarde)"></path>
        </g>
    </g>
    <defs>
        <clipPath id="clip0_136_2">
            <rect width="700" height="1949" fill="#FFFFFF"></rect>
        </clipPath>
    </defs>
</svg>
