<svg width="700" height="2227" viewBox="0 0 700 2227" fill="none" xmlns="http://www.w3.org/2000/svg" data-vsvg="002" class="theme_real_estate_svg_preview">
    <defs>
        <pattern id="theme_real_estate_s_cover_default_image_id" width="1" height="1" patternunits="objectBoundingBox">
            <image width="700" height="281" preserveAspectRatio="xMidYMid slice" href="#s_cover_default_image_url"></image>
        </pattern>
        <pattern id="theme_real_estate_s_text_image_default_image_id" width="1" height="1" patternunits="objectBoundingBox">
            <image width="254" height="205" preserveAspectRatio="xMidYMid slice" href="#s_text_image_default_image_url"></image>
        </pattern>
        <pattern id="theme_real_estate_s_image_text_default_image_id" width="1" height="1" patternunits="objectBoundingBox">
            <image width="254" height="205" preserveAspectRatio="xMidYMid slice" href="#s_image_text_default_image_url"></image>
        </pattern>
        <pattern id="theme_real_estate_s_three_columns_default_image_1_id" width="1" height="1" patternunits="objectBoundingBox">
            <image width="168" height="90" preserveAspectRatio="xMidYMid slice" href="#s_three_columns_default_image_1_url"></image>
        </pattern>
        <pattern id="theme_real_estate_s_three_columns_default_image_2_id" width="1" height="1" patternunits="objectBoundingBox">
            <image width="168" height="90" preserveAspectRatio="xMidYMid slice" href="#s_three_columns_default_image_2_url"></image>
        </pattern>
        <pattern id="theme_real_estate_s_three_columns_default_image_3_id" width="1" height="1" patternunits="objectBoundingBox">
            <image width="168" height="90" preserveAspectRatio="xMidYMid slice" href="#s_three_columns_default_image_3_url"></image>
        </pattern>
        <pattern id="theme_real_estate_s_reference_demo_image_6_id" width="1" height="1" patternunits="objectBoundingBox">
            <image width="64" height="36" preserveAspectRatio="xMidYMid slice" href="/web/image/website.s_reference_default_image_6"></image>
        </pattern>
        <pattern id="theme_real_estate_s_reference_demo_image_5_id" width="1" height="1" patternunits="objectBoundingBox">
            <image width="64" height="36" preserveAspectRatio="xMidYMid slice" href="/web/image/website.s_reference_demo_image_5"></image>
        </pattern>
        <pattern id="theme_real_estate_s_reference_demo_image_4_id" width="1" height="1" patternunits="objectBoundingBox">
            <image width="64" height="36" preserveAspectRatio="xMidYMid slice" href="/web/image/website.s_reference_demo_image_4"></image>
        </pattern>
        <pattern id="theme_real_estate_s_reference_demo_image_3_id" width="1" height="1" patternunits="objectBoundingBox">
            <image width="64" height="36" preserveAspectRatio="xMidYMid slice" href="/web/image/website.s_reference_demo_image_3"></image>
        </pattern>
        <pattern id="theme_real_estate_s_reference_demo_image_2_id" width="1" height="1" patternunits="objectBoundingBox">
            <image width="64" height="36" preserveAspectRatio="xMidYMid slice" href="/web/image/website.s_reference_demo_image_2"></image>
        </pattern>
        <pattern id="theme_real_estate_s_reference_demo_image_1_id" width="1" height="1" patternunits="objectBoundingBox">
            <image width="64" height="36" preserveAspectRatio="xMidYMid slice" href="/web/image/website.s_reference_demo_image_1"></image>
        </pattern>
        <pattern id="theme_real_estate_s_quotes_carousel_demo_image_0_id" width="1" height="1" patternunits="objectBoundingBox">
            <image width="700" height="200" preserveAspectRatio="xMidYMid slice" href="#s_quotes_carousel_demo_image_0_url"></image>
        </pattern>
        <filter id="filter_readability_theme_real_estate">
            <feColorMatrix in="SourceGraphic" type="saturate" values="0"></feColorMatrix>
            <feComponentTransfer>
                <feFuncR type="table" tableValues="1 0"></feFuncR>
                <feFuncG type="table" tableValues="1 0"></feFuncG>
                <feFuncB type="table" tableValues="1 0"></feFuncB>
            </feComponentTransfer>
            <feComponentTransfer>
                <feFuncR type="linear" slope="10000" intercept="-4999.5"></feFuncR>
                <feFuncG type="linear" slope="10000" intercept="-4999.5"></feFuncG>
                <feFuncB type="linear" slope="10000" intercept="-4999.5"></feFuncB>
            </feComponentTransfer>
        </filter>
    </defs>
    <rect width="700" height="2227" fill="#ACACAC"></rect>
    <g clip-path="url(#clip0_204_11)" class="theme_real_estate">
        <rect width="700" height="2227" fill="#FFFFFF"></rect>
        <g class="svgc_menu">
            <rect width="700" height="40" fill="#MENU_COLOR" class="svgc_menu_bg"></rect>
            <path d="M75.4852 22.8929V21.536H71.8117V15.1072H70V22.8929H75.4852ZM80.0808 23C80.8369 23 81.5174 22.843 82.1232 22.5298C82.7311 22.2176 83.2103 21.7626 83.5638 21.1666C83.9173 20.5716 84.093 19.849 84.093 18.9996C84.093 18.1512 83.9163 17.4286 83.5628 16.8326C83.2103 16.2376 82.7311 15.7835 82.1242 15.4703C81.5174 15.1572 80.8359 15.0002 80.0798 15.0002C79.3188 15.0002 78.6353 15.1572 78.0295 15.4703C77.4246 15.7826 76.9454 16.2376 76.5948 16.8326C76.2433 17.4286 76.0675 18.1512 76.0675 19.0005C76.0675 19.8463 76.2433 20.5671 76.5948 21.1631C76.9191 21.7336 77.4171 22.2075 78.0295 22.5281C78.6353 22.8421 79.3188 22.9991 80.0798 22.9991L80.0808 23ZM80.0808 21.5431C79.6749 21.5513 79.2757 21.4494 78.9338 21.2505C78.6068 21.0551 78.3545 20.7687 78.1738 20.3914C77.9941 20.014 77.9038 19.5501 77.9038 18.9996C77.9038 18.4501 77.9941 17.9862 78.1738 17.6079C78.3535 17.2305 78.6068 16.9441 78.9338 16.7496C79.2752 16.5506 79.6743 16.4488 80.0798 16.457C80.5177 16.457 80.8997 16.5543 81.2267 16.7496C81.5527 16.9441 81.8061 17.2314 81.9858 17.6088C82.1664 17.9862 82.2558 18.4501 82.2558 19.0005C82.2558 19.5501 82.1664 20.014 81.9858 20.3914C81.8061 20.7687 81.5537 21.0551 81.2267 21.2505C80.885 21.4497 80.4866 21.5516 80.0808 21.5431ZM89.1904 22.9991C89.9102 22.9991 90.5494 22.8671 91.1072 22.6021C91.655 22.3459 92.1109 21.9528 92.421 21.4691C92.7392 20.9784 92.8982 20.3914 92.8982 19.7071V18.7257H89.3121V19.9658H91.1504L91.1464 20.0782C91.1297 20.2897 91.0777 20.4815 90.9923 20.6537L90.9206 20.7786C90.7643 21.0232 90.5311 21.2199 90.2509 21.3433C89.9602 21.4771 89.6087 21.5431 89.1992 21.5431C88.7475 21.5431 88.3547 21.4441 88.0228 21.2452C87.6909 21.0462 87.4337 20.7563 87.253 20.3762C87.0723 19.9962 86.981 19.5349 86.981 18.9925C86.981 18.4501 87.0733 17.9906 87.2569 17.6141C87.4415 17.2376 87.6988 16.9504 88.0297 16.7532C88.3729 16.5523 88.7743 16.4492 89.1825 16.457C89.4162 16.457 89.6303 16.4838 89.8247 16.5364C90.0182 16.59 90.191 16.6667 90.3432 16.7666C90.4954 16.8665 90.624 16.9878 90.7301 17.1315C90.8361 17.2742 90.9186 17.4384 90.9775 17.6239H92.8187C92.7646 17.2505 92.6294 16.8906 92.421 16.565C92.2157 16.2446 91.9451 15.9627 91.6237 15.7344C91.2894 15.4967 90.9123 15.3135 90.5091 15.1929C90.0717 15.0619 89.6136 14.9968 89.1531 15.0002C88.6127 14.9957 88.0766 15.0875 87.5751 15.2705C87.0932 15.4481 86.6582 15.7162 86.2985 16.0573C85.9214 16.4193 85.6315 16.8486 85.4472 17.3179C85.2449 17.8131 85.1437 18.376 85.1437 19.0077C85.1437 19.8284 85.3136 20.5377 85.6524 21.1345C85.969 21.7098 86.4626 22.1892 87.0733 22.5147C87.6821 22.8376 88.3871 22.9991 89.1904 22.9991ZM97.9867 22.9991C98.7429 22.9991 99.4233 22.843 100.03 22.5298C100.637 22.2176 101.117 21.7626 101.47 21.1666C101.823 20.5716 102 19.849 102 18.9996C102 18.1512 101.823 17.4286 101.47 16.8326C101.116 16.2376 100.637 15.7835 100.03 15.4703C99.4233 15.1572 98.7429 15.0002 97.9867 15.0002C97.2247 15.0002 96.5413 15.1572 95.9364 15.4703C95.3305 15.7826 94.8523 16.2376 94.5008 16.8326C94.1493 17.4286 93.9735 18.1512 93.9735 19.0005C93.9735 19.8463 94.1493 20.5671 94.5008 21.1631C94.8523 21.759 95.3305 22.214 95.9364 22.5281C96.5413 22.8421 97.2247 22.9991 97.9867 22.9991ZM97.9867 21.5431C97.5488 21.5431 97.1658 21.445 96.8398 21.2505C96.5138 21.0551 96.2605 20.7687 96.0808 20.3914C95.9001 20.014 95.8107 19.5501 95.8107 18.9996C95.8107 18.4501 95.9001 17.9862 96.0808 17.6079C96.2605 17.2305 96.5128 16.9441 96.8398 16.7496C97.1815 16.5505 97.5809 16.4486 97.9867 16.457C98.4247 16.457 98.8067 16.5543 99.1327 16.7496C99.4597 16.9441 99.712 17.2314 99.8927 17.6088C100.072 17.9862 100.163 18.4501 100.163 19.0005C100.163 19.5501 100.072 20.014 99.8927 20.3914C99.712 20.7687 99.4597 21.0551 99.1327 21.2505C98.7913 21.4495 98.3923 21.5514 97.9867 21.5431Z" fill="#MENU_COLOR" class="svgc_invert" filter="url(#filter_readability_theme_real_estate)"></path>
            <rect x="184" y="15" width="44" height="8" fill="#MENU_COLOR" fill-opacity="0.4" class="svgc_invert" filter="url(#filter_readability_theme_real_estate)"></rect>
            <rect x="132" y="15" width="44" height="8" fill="#MENU_COLOR" fill-opacity="0.4" class="svgc_invert" filter="url(#filter_readability_theme_real_estate)"></rect>
            <rect x="236" y="15" width="44" height="8" fill="#MENU_COLOR" fill-opacity="0.4" class="svgc_invert" filter="url(#filter_readability_theme_real_estate)"></rect>
            <rect x="462" y="15" width="44" height="8" fill="#MENU_COLOR" fill-opacity="0.4" class="svgc_invert" filter="url(#filter_readability_theme_real_estate)"></rect>
            <rect x="514" y="15" width="44" height="8" fill="#MENU_COLOR" fill-opacity="0.4" class="svgc_invert" filter="url(#filter_readability_theme_real_estate)"></rect>
            <rect x="574" y="11" width="56" height="16" fill="#MENU_COLOR" class="svgc_invert" filter="url(#filter_readability_theme_real_estate)"></rect>
        </g>
        <g class="s_cover">
            <path d="M700 40H0V321H700V40Z" fill="url(#theme_real_estate_s_cover_default_image_id)" class="img_reference_s_cover_default_image"></path>
            <path d="M700 40H0V321H700V40Z" fill="black" fill-opacity="0.5"></path>
            <rect x="302" y="214" width="96" height="30" fill="#7C6576"></rect>
            <text transform="translate(373 232)" text-anchor="Middle" fill="#FFFFFF" font-size="11" font-family="Arial" font-weight="700"><tspan x="-22.471" y="0">Discover</tspan></text>
            <path d="M450 168H251V170H450V168Z" fill="#383E45" fill-opacity="0.4" class="svgc_invert" filter="url(#filter_readability_theme_real_estate)"></path>
            <path d="M419 182H282V184H419V182Z" fill="#383E45" fill-opacity="0.4" class="svgc_invert" filter="url(#filter_readability_theme_real_estate)"></path>
            <text transform="translate(373 144)" text-anchor="Middle" fill="#FFFFFF" font-size="30" font-family="Arial" font-weight="700"><tspan x="-22.471" y="0">Welcome</tspan></text>
        </g>
        <g class="s_text_image">
            <rect y="321" width="700" height="284" fill="#FFFFFF"></rect>
            <path d="M269 459H70V461H269V459Z" fill="#FFFFFF" fill-opacity="0.4" class="svgc_invert" filter="url(#filter_readability_theme_real_estate)"></path>
            <path d="M269 469H70V471H269V469Z" fill="#FFFFFF" fill-opacity="0.4" class="svgc_invert" filter="url(#filter_readability_theme_real_estate)"></path>
            <path d="M175 479H70V481H175V479Z" fill="#FFFFFF" fill-opacity="0.4" class="svgc_invert" filter="url(#filter_readability_theme_real_estate)"></path>
            <g>
                <rect x="70" y="493" width="63" height="15" fill="#7C6576"></rect>
            </g>
            <text transform="translate(92 439)" text-anchor="Start" fill="#000000" font-size="25" font-family="Arial" font-weight="700"><tspan x="-22.471" y="0">Section Title</tspan></text>
            <g>
                <g>
                    <mask id="mask0_204_11" style="mask-type:alpha" maskUnits="userSpaceOnUse" x="376" y="360" width="254" height="205">
                        <path fill-rule="evenodd" clip-rule="evenodd" d="M385 360C380.029 360 376 364.029 376 369V537C376 541.971 380.029 546 385 546H489C493.971 546 498 541.971 498 537V369C498 364.029 493.971 360 489 360H385ZM517 379C512.029 379 508 383.029 508 388V556C508 560.971 512.029 565 517 565H621C625.971 565 630 560.971 630 556V388C630 383.029 625.971 379 621 379H517Z" fill="#D9D9D9"></path>
                    </mask>
                    <g mask="url(#mask0_204_11)">
                        <rect x="376" y="360" width="254" height="205" fill="url(#theme_real_estate_s_text_image_default_image_id)" class="img_reference_s_text_image_default_image"></rect>
                    </g>
                </g>
            </g>
        </g>
        <g class="s_image_text">
            <rect y="605" width="700" height="284" fill="#FFFFFF"></rect>
            <path d="M599 742H400V744H599V742Z" fill="#FFFFFF" fill-opacity="0.4" class="svgc_invert" filter="url(#filter_readability_theme_real_estate)"></path>
            <path d="M599 752H400V754H599V752Z" fill="#FFFFFF" fill-opacity="0.4" class="svgc_invert" filter="url(#filter_readability_theme_real_estate)"></path>
            <path d="M505 762H400V764H505V762Z" fill="#FFFFFF" fill-opacity="0.4" class="svgc_invert" filter="url(#filter_readability_theme_real_estate)"></path>
            <g>
                <rect x="400" y="776" width="63" height="15" fill="#7C6576"></rect>
            </g>
            <text transform="translate(422 722)" text-anchor="Start" fill="#000000" font-size="25" font-family="Arial" font-weight="700"><tspan x="-22.471" y="0">Section Title</tspan></text>
            <g>
                <g>
                    <mask id="mask1_204_11" style="mask-type:alpha" maskUnits="userSpaceOnUse" x="70" y="644" width="254" height="205">
                        <path fill-rule="evenodd" clip-rule="evenodd" d="M79 644C74.0294 644 70 648.029 70 653V821C70 825.971 74.0294 830 79 830H183C187.971 830 192 825.971 192 821V653C192 648.029 187.971 644 183 644H79ZM211 663C206.029 663 202 667.029 202 672V840C202 844.971 206.029 849 211 849H315C319.971 849 324 844.971 324 840V672C324 667.029 319.971 663 315 663H211Z" fill="#D9D9D9"></path>
                    </mask>
                    <g mask="url(#mask1_204_11)">
                        <rect x="70" y="644" width="254" height="205" fill="url(#theme_real_estate_s_image_text_default_image_id)" class="img_reference_s_image_text_default_image"></rect>
                    </g>
                </g>
            </g>
        </g>
        <g class="s_three_columns">
            <rect y="889" width="700" height="336" fill="#FFFFFF"></rect>
            <text transform="translate(92 937)" text-anchor="Start" fill="#000000" font-size="25" font-family="Arial" font-weight="700"><tspan x="-22.471" y="0">Section Title</tspan></text>
            <g>
                <g>
                    <rect x="70" y="971" width="168" height="212" fill="#FFFFFF"></rect>
                    <rect x="70.5" y="971.5" width="167" height="211" stroke="black" stroke-opacity="0.1"></rect>
                </g>
                <rect x="70" y="971" width="168" height="90" fill="url(#theme_real_estate_s_three_columns_default_image_1_id)" class="img_reference_s_three_columns_default_image_1"></rect>
                <rect x="80" y="1070" width="42" height="4" fill="#FFFFFF" fill-opacity="0.4" class="svgc_invert" filter="url(#filter_readability_theme_real_estate)"></rect>
                <rect x="80" y="1156" width="42" height="18" fill="#FFFFFF" class="svgc_invert" filter="url(#filter_readability_theme_real_estate)"></rect>
                <rect x="80" y="1108" width="147" height="2" fill="#FFFFFF" fill-opacity="0.4" class="svgc_invert" filter="url(#filter_readability_theme_real_estate)"></rect>
                <rect x="80" y="1118" width="111.674" height="2" fill="#FFFFFF" fill-opacity="0.4" class="svgc_invert" filter="url(#filter_readability_theme_real_estate)"></rect>
                <rect x="80" y="1128" width="133.326" height="2" fill="#FFFFFF" fill-opacity="0.4" class="svgc_invert" filter="url(#filter_readability_theme_real_estate)"></rect>
                <rect x="80" y="1138" width="100.279" height="2" fill="#FFFFFF" fill-opacity="0.4" class="svgc_invert" filter="url(#filter_readability_theme_real_estate)"></rect>
                <text transform="translate(103 1094)" text-anchor="Start" fill="#000000" font-size="13" font-family="Arial" font-weight="700"><tspan x="-22.471" y="0">Entry Title</tspan></text>
            </g>
            <g>
                <g>
                    <rect x="266" y="971" width="168" height="212" fill="#FFFFFF"></rect>
                    <rect x="266.5" y="971.5" width="167" height="211" stroke="black" stroke-opacity="0.1"></rect>
                </g>
                <rect x="266" y="971" width="168" height="90" fill="url(#theme_real_estate_s_three_columns_default_image_2_id)" class="img_reference_s_three_columns_default_image_2"></rect>
                <rect x="276" y="1070" width="42" height="4" fill="#FFFFFF" fill-opacity="0.4" class="svgc_invert" filter="url(#filter_readability_theme_real_estate)"></rect>
                <rect x="276" y="1156" width="42" height="18" fill="#FFFFFF" class="svgc_invert" filter="url(#filter_readability_theme_real_estate)"></rect>
                <rect x="276" y="1108" width="147" height="2" fill="#FFFFFF" fill-opacity="0.4" class="svgc_invert" filter="url(#filter_readability_theme_real_estate)"></rect>
                <rect x="276" y="1118" width="111.674" height="2" fill="#FFFFFF" fill-opacity="0.4" class="svgc_invert" filter="url(#filter_readability_theme_real_estate)"></rect>
                <rect x="276" y="1128" width="133.326" height="2" fill="#FFFFFF" fill-opacity="0.4" class="svgc_invert" filter="url(#filter_readability_theme_real_estate)"></rect>
                <rect x="276" y="1138" width="100.279" height="2" fill="#FFFFFF" fill-opacity="0.4" class="svgc_invert" filter="url(#filter_readability_theme_real_estate)"></rect>
                <text transform="translate(299 1094)" text-anchor="Start" fill="#000000" font-size="13" font-family="Arial" font-weight="700"><tspan x="-22.471" y="0">Entry Title</tspan></text>
            </g>
            <g>
                <g>
                    <rect x="462" y="971" width="168" height="212" fill="#FFFFFF"></rect>
                    <rect x="462.5" y="971.5" width="167" height="211" stroke="black" stroke-opacity="0.1"></rect>
                </g>
                <rect x="462" y="971" width="168" height="90" fill="url(#theme_real_estate_s_three_columns_default_image_3_id)" class="img_reference_s_three_columns_default_image_3"></rect>
                <path d="M472 1070H514V1074H472V1070Z" fill="#FFFFFF" fill-opacity="0.4" class="svgc_invert" filter="url(#filter_readability_theme_real_estate)"></path>
                <rect x="472" y="1156" width="42" height="18" fill="#FFFFFF" class="svgc_invert" filter="url(#filter_readability_theme_real_estate)"></rect>
                <rect x="472" y="1108" width="147" height="2" fill="#FFFFFF" fill-opacity="0.4" class="svgc_invert" filter="url(#filter_readability_theme_real_estate)"></rect>
                <rect x="472" y="1118" width="111.674" height="2" fill="#FFFFFF" fill-opacity="0.4" class="svgc_invert" filter="url(#filter_readability_theme_real_estate)"></rect>
                <rect x="472" y="1128" width="133.326" height="2" fill="#FFFFFF" fill-opacity="0.4" class="svgc_invert" filter="url(#filter_readability_theme_real_estate)"></rect>
                <rect x="472" y="1138" width="100.279" height="2" fill="#FFFFFF" fill-opacity="0.4" class="svgc_invert" filter="url(#filter_readability_theme_real_estate)"></rect>
                <text transform="translate(495 1094)" text-anchor="Start" fill="#000000" font-size="13" font-family="Arial" font-weight="700"><tspan x="-22.471" y="0">Entry Title</tspan></text>
            </g>
        </g>
        <g class="s_masonry_block">
            <path d="M700 1225H0V1355H700V1225Z" fill="#3AADAA"></path>
            <g clip-path="url(#clip1_204_11)">
                <g opacity="0.7">
                    <path d="M355.282 1225.01C343.683 1258.32 335.984 1272.12 327.285 1283.59C318.378 1295.27 307.779 1305.43 295.731 1313.82C284.166 1321.93 270.771 1328.93 255.857 1334.58C242.014 1339.85 226.41 1344.12 209.494 1347.3C179.632 1352.85 145.696 1355.07 105.822 1354.06C69.7463 1353.13 7.08793 1346.68 1.01196 1346.06V1346.75C7.08793 1347.37 69.7118 1353.82 105.822 1354.76C112.036 1354.93 118.112 1355 124.05 1355C156.225 1355 184.396 1352.68 209.632 1348C226.582 1344.84 242.221 1340.55 256.134 1335.28C271.082 1329.59 284.546 1322.59 296.145 1314.44C308.228 1306.02 318.896 1295.83 327.837 1284.08C336.571 1272.47 344.339 1258.46 355.973 1225.01H355.282Z" fill="#FFFFFF" fill-opacity="0.2"></path>
                    <path d="M349.931 1225.01C338.47 1257.87 330.875 1271.5 322.313 1282.8C313.614 1294.23 303.153 1304.29 291.208 1312.61C279.747 1320.65 266.525 1327.55 251.887 1333.09C238.113 1338.33 222.75 1342.56 206.179 1345.64C176.801 1351.12 143.314 1353.27 103.786 1352.23C68.4 1351.29 7.77838 1344.98 1.01196 1344.29V1344.98C7.77838 1345.71 68.3654 1351.98 103.786 1352.95C110.207 1353.13 116.455 1353.2 122.531 1353.2C154.085 1353.2 181.634 1350.94 206.317 1346.33C222.923 1343.25 238.354 1339.02 252.163 1333.79C266.835 1328.21 280.127 1321.31 291.623 1313.23C303.602 1304.88 314.131 1294.79 322.866 1283.28C331.324 1272.12 339.057 1258.25 350.622 1225.08H349.931V1225.01Z" fill="#FFFFFF" fill-opacity="0.2"></path>
                    <path d="M345.202 1225.01C333.913 1257.39 326.421 1270.84 317.963 1282C309.298 1293.4 298.976 1303.28 287.307 1311.39C276.088 1319.3 263.038 1326.09 248.539 1331.6C235.04 1336.73 219.885 1340.89 203.487 1343.98C174.626 1349.38 141.553 1351.5 102.405 1350.46C68.0202 1349.52 7.74386 1343.28 1.01196 1342.56V1343.21C7.74386 1343.91 67.9857 1350.15 102.37 1351.08C108.826 1351.26 115.109 1351.33 121.254 1351.33C152.359 1351.33 179.459 1349.11 203.59 1344.57C220.057 1341.52 235.247 1337.32 248.78 1332.19C263.314 1326.68 276.398 1319.85 287.687 1311.91C299.39 1303.77 309.782 1293.82 318.481 1282.38C327.008 1271.15 334.534 1257.53 345.858 1224.98H345.202V1225.01Z" fill="#FFFFFF" fill-opacity="0.2"></path>
                    <path d="M340.299 1225.01C329.114 1257.01 321.726 1270.25 313.441 1281.17C304.914 1292.4 294.73 1302.14 283.199 1310.15C272.083 1317.94 259.241 1324.63 245.017 1330.08C231.726 1335.14 216.778 1339.23 200.587 1342.28C172.037 1347.62 139.413 1349.7 100.817 1348.62C66.6048 1347.65 8.46883 1341.62 1.01196 1340.82V1341.48C8.46883 1342.28 66.5703 1348.31 100.817 1349.28C107.41 1349.45 113.832 1349.56 120.08 1349.56C150.495 1349.56 177.008 1347.37 200.725 1342.94C216.95 1339.92 231.968 1335.8 245.293 1330.74C259.586 1325.29 272.463 1318.57 283.613 1310.73C295.179 1302.69 305.432 1292.88 313.993 1281.62C322.313 1270.59 329.736 1257.21 340.955 1225.05H340.299V1225.01Z" fill="#FFFFFF" fill-opacity="0.2"></path>
                    <path d="M335.432 1225.01C324.454 1256.49 317.169 1269.55 308.953 1280.37C300.495 1291.46 290.449 1301.06 279.16 1308.93C268.285 1316.59 255.616 1323.21 241.531 1328.59C228.412 1333.61 213.671 1337.67 197.756 1340.65C169.758 1345.92 137.549 1347.93 99.2976 1346.85C66.5358 1345.92 8.8831 1339.96 1.01196 1339.12V1339.78C8.8831 1340.61 66.5012 1346.54 99.2976 1347.48C105.926 1347.65 112.382 1347.76 118.699 1347.76C148.665 1347.76 174.729 1345.61 197.894 1341.27C213.843 1338.29 228.619 1334.24 241.807 1329.21C255.926 1323.8 268.631 1317.18 279.574 1309.49C290.932 1301.58 301.013 1291.91 309.505 1280.79C317.756 1269.87 325.075 1256.66 336.088 1225.01H335.432Z" fill="#FFFFFF" fill-opacity="0.2"></path>
                    <path d="M330.978 1225.01C320.173 1256.04 312.992 1268.9 304.914 1279.57C296.663 1290.39 286.79 1299.85 275.57 1307.68C264.799 1315.24 252.336 1321.76 238.493 1327.03C225.65 1331.95 211.116 1335.94 195.374 1338.92C167.894 1344.12 136.099 1346.09 98.1929 1345.02C66.225 1344.08 7.5022 1338.01 1.01196 1337.36V1338.01C7.5022 1338.71 66.1905 1344.77 98.1929 1345.68C104.89 1345.88 111.346 1345.95 117.664 1345.95C147.215 1345.95 172.831 1343.84 195.512 1339.57C211.323 1336.59 225.857 1332.61 238.769 1327.69C252.647 1322.42 265.178 1315.86 275.984 1308.27C287.273 1300.4 297.181 1290.91 305.466 1280.02C313.579 1269.28 320.829 1256.24 331.669 1225.05H330.978V1225.01Z" fill="#FFFFFF" fill-opacity="0.2"></path>
                    <path d="M326.49 1225.01C315.858 1255.55 308.78 1268.2 300.806 1278.77C292.624 1289.49 282.889 1298.81 271.876 1306.47C261.312 1313.89 249.022 1320.3 235.351 1325.54C222.75 1330.35 208.458 1334.31 192.888 1337.25C165.719 1342.38 134.373 1344.32 97.0192 1343.21C65.0168 1342.21 6.05225 1336.04 1.01196 1335.52V1336.14C6.05225 1336.66 64.9822 1342.83 96.9846 1343.8C103.786 1344.01 110.414 1344.12 116.835 1344.12C145.696 1344.12 170.759 1342.04 192.992 1337.84C208.596 1334.9 222.923 1330.94 235.593 1326.13C249.333 1320.89 261.657 1314.44 272.256 1306.99C283.337 1299.26 293.107 1289.9 301.324 1279.16C309.333 1268.55 316.444 1255.69 327.112 1225.01H326.49Z" fill="#FFFFFF" fill-opacity="0.2"></path>
                    <path d="M321.278 1225.01C310.748 1255.2 303.775 1267.68 295.973 1277.98C287.963 1288.48 278.366 1297.67 267.491 1305.26C257.066 1312.61 244.948 1318.92 231.519 1324.05C218.987 1328.86 204.902 1332.75 189.712 1335.59C163.061 1340.61 132.129 1342.52 95.1549 1341.41C64.3608 1340.44 8.46883 1334.62 1.01196 1333.86V1334.48C8.46883 1335.28 64.3263 1341.07 95.1204 1342.04C101.99 1342.24 108.653 1342.35 115.109 1342.35C143.486 1342.35 168.101 1340.3 189.816 1336.21C205.075 1333.37 219.16 1329.49 231.761 1324.67C245.224 1319.5 257.376 1313.16 267.871 1305.81C278.815 1298.19 288.412 1288.97 296.49 1278.39C304.327 1268.03 311.335 1255.41 321.899 1225.05H321.278V1225.01Z" fill="#FFFFFF" fill-opacity="0.2"></path>
                    <path d="M316.859 1225.01C306.536 1254.65 299.666 1266.95 291.933 1277.18C284.062 1287.54 274.638 1296.59 263.901 1304.04C253.579 1311.29 241.669 1317.53 228.515 1322.55C215.984 1327.3 202.14 1331.15 187.365 1333.92C161.058 1338.92 130.541 1340.75 94.0847 1339.61C62.4621 1338.6 6.77723 1332.71 1.01196 1332.09V1332.71C6.77723 1333.34 62.393 1339.23 94.0502 1340.23C101.058 1340.44 107.825 1340.58 114.384 1340.58C142.106 1340.58 166.168 1338.6 187.468 1334.55C202.313 1331.78 216.191 1327.93 228.757 1323.18C241.979 1318.12 253.924 1311.88 264.281 1304.6C275.052 1297.08 284.546 1288 292.451 1277.6C300.219 1267.3 307.123 1254.86 317.48 1225.05H316.859V1225.01Z" fill="#FFFFFF" fill-opacity="0.2"></path>
                    <path d="M312.026 1225.01C301.876 1254.2 295.109 1266.3 287.48 1276.35C279.678 1286.57 270.391 1295.48 259.896 1302.8C249.781 1309.9 238.078 1316.04 225.063 1321.03C213.049 1325.64 199.413 1329.42 184.534 1332.26C158.745 1337.18 128.676 1339.02 92.5657 1337.84C61.6681 1336.8 7.32959 1331.05 1.01196 1330.35V1330.98C7.32959 1331.67 61.599 1337.43 92.5312 1338.47C99.5738 1338.71 106.375 1338.81 112.934 1338.81C140.241 1338.81 163.82 1336.87 184.637 1332.88C199.551 1330.04 213.257 1326.26 225.305 1321.65C238.354 1316.63 250.127 1310.49 260.276 1303.35C270.84 1295.97 280.161 1287.02 287.998 1276.76C295.627 1266.61 302.428 1254.34 312.647 1225.01H312.026Z" fill="#FFFFFF" fill-opacity="0.2"></path>
                    <path d="M307.158 1225.01C297.181 1253.71 290.518 1265.64 282.992 1275.55C275.328 1285.6 266.18 1294.34 255.857 1301.55C245.984 1308.52 234.453 1314.55 221.576 1319.5C209.528 1324.11 196.099 1327.82 181.668 1330.56C156.398 1335.38 126.743 1337.18 91.0122 1336C59.0789 1334.93 7.57125 1329.35 1.01196 1328.62V1329.21C7.57125 1329.94 59.0444 1335.52 91.0122 1336.59C98.0893 1336.84 104.925 1336.94 111.553 1336.94C138.377 1336.94 161.507 1335.03 181.807 1331.15C196.237 1328.41 209.701 1324.7 221.818 1320.09C234.73 1315.14 246.329 1309.07 256.237 1302.07C266.628 1294.82 275.811 1286.05 283.51 1275.93C291.07 1265.98 297.768 1253.89 307.779 1225.05H307.158V1225.01Z" fill="#FFFFFF" fill-opacity="0.2"></path>
                    <path d="M303.395 1225.01C293.521 1253.3 286.997 1265.01 279.609 1274.75C272.014 1284.67 263.038 1293.26 252.923 1300.34C243.05 1307.27 231.692 1313.2 219.194 1317.98C207.353 1322.49 194.131 1326.16 179.942 1328.86C154.982 1333.65 125.776 1335.38 90.598 1334.17C56.973 1333.02 1.01196 1326.78 1.01196 1326.78V1327.37C1.01196 1327.37 56.9385 1333.61 90.5634 1334.76C97.7786 1335 104.718 1335.14 111.45 1335.14C137.583 1335.14 160.161 1333.27 180.046 1329.45C194.269 1326.75 207.491 1323.07 219.367 1318.57C231.933 1313.79 243.326 1307.82 253.234 1300.86C263.418 1293.75 272.428 1285.12 280.058 1275.14C287.48 1265.33 294.074 1253.44 303.982 1225.01H303.395Z" fill="#FFFFFF" fill-opacity="0.2"></path>
                    <path d="M298.665 1225.01C288.964 1252.85 282.543 1264.35 275.259 1273.92C267.871 1283.63 259.033 1292.09 248.987 1299.09C239.321 1305.88 228.17 1311.71 215.811 1316.45C204.246 1320.89 191.266 1324.5 177.215 1327.17C152.739 1331.88 123.947 1333.58 89.148 1332.33C55.9719 1331.15 1.01196 1324.98 1.01196 1324.98V1325.57C1.01196 1325.57 55.9028 1331.74 89.1135 1332.92C96.5013 1333.2 103.578 1333.3 110.448 1333.3C135.961 1333.3 157.986 1331.46 177.319 1327.72C191.369 1325.05 204.384 1321.45 215.984 1317.01C228.377 1312.26 239.597 1306.4 249.298 1299.57C259.379 1292.54 268.285 1284.04 275.708 1274.27C283.027 1264.67 289.482 1252.99 299.218 1225.01H298.665Z" fill="#FFFFFF" fill-opacity="0.2"></path>
                    <path d="M293.452 1225.01C283.924 1252.36 277.607 1263.7 270.46 1273.12C263.107 1282.73 254.442 1291.05 244.638 1297.87C235.213 1304.53 224.235 1310.25 212.048 1314.96C200.587 1319.37 187.813 1322.9 174.108 1325.5C150.218 1330.11 121.841 1331.78 87.3528 1330.56C56.4552 1329.42 4.7404 1323.73 1.01196 1323.32V1323.87C4.7404 1324.29 56.4206 1329.97 87.3183 1331.12C94.6026 1331.36 101.645 1331.5 108.412 1331.5C133.648 1331.5 155.328 1329.7 174.212 1326.06C187.952 1323.46 200.725 1319.92 212.221 1315.52C224.476 1310.8 235.489 1305.02 244.948 1298.36C254.787 1291.5 263.521 1283.11 270.909 1273.47C278.09 1263.97 284.442 1252.47 294.005 1225.01H293.452Z" fill="#FFFFFF" fill-opacity="0.2"></path>
                    <path d="M266.145 1272.29C258.964 1281.69 250.403 1289.9 240.771 1296.63C231.45 1303.18 220.679 1308.83 208.734 1313.44C197.514 1317.74 184.983 1321.24 171.45 1323.84C147.871 1328.41 119.908 1330.01 86.0065 1328.76C55.9718 1327.65 4.42969 1321.93 1.01196 1321.55V1322.1C4.42969 1322.49 55.9028 1328.21 85.9719 1329.31C93.3943 1329.59 100.506 1329.73 107.341 1329.73C131.921 1329.73 153.049 1327.96 171.519 1324.39C185.086 1321.79 197.652 1318.29 208.872 1313.99C220.851 1309.38 231.692 1303.7 241.047 1297.11C250.748 1290.32 259.344 1282.1 266.559 1272.64C276.053 1260.13 282.302 1245.08 289.275 1225.01H288.723C279.367 1251.95 273.153 1263.07 266.145 1272.29Z" fill="#FFFFFF" fill-opacity="0.2"></path>
                    <path d="M261.761 1271.5C254.787 1280.68 246.398 1288.72 236.835 1295.41C227.721 1301.83 217.158 1307.41 205.351 1311.95C194.235 1316.21 181.91 1319.64 168.688 1322.17C145.592 1326.65 118.043 1328.21 84.522 1326.96C54.9016 1325.85 4.36065 1320.2 1.01196 1319.82V1320.37C4.36065 1320.75 54.8671 1326.4 84.4875 1327.51C91.9443 1327.79 99.0905 1327.93 105.995 1327.93C130.092 1327.93 150.805 1326.19 168.792 1322.73C182.014 1320.23 194.373 1316.77 205.523 1312.5C217.365 1307.93 227.998 1302.35 237.146 1295.9C246.743 1289.17 255.201 1281.06 262.209 1271.84C271.531 1259.54 277.676 1244.74 284.546 1225.01H283.993C277.158 1244.63 271.047 1259.26 261.761 1271.5Z" fill="#FFFFFF" fill-opacity="0.2"></path>
                    <path d="M257.411 1270.66C250.506 1279.71 242.255 1287.61 232.9 1294.17C223.924 1300.47 213.498 1305.95 201.968 1310.42C191.059 1314.62 178.941 1317.98 165.961 1320.48C143.21 1324.88 116.11 1326.4 83.1066 1325.12C54.5564 1324.01 4.36065 1318.43 1.01196 1318.05V1318.6C4.36065 1318.98 54.5219 1324.57 83.072 1325.67C90.6325 1325.99 97.9167 1326.13 104.89 1326.13C128.331 1326.13 148.492 1324.43 166.064 1321.03C179.079 1318.53 191.197 1315.17 202.14 1310.98C213.74 1306.51 224.166 1300.99 233.211 1294.65C242.601 1288.06 250.886 1280.13 257.86 1271.01C267.043 1258.91 273.084 1244.39 279.816 1225.01H279.264C270.219 1251.01 264.212 1261.79 257.411 1270.66Z" fill="#FFFFFF" fill-opacity="0.2"></path>
                    <path d="M253.061 1269.87C246.295 1278.74 238.182 1286.5 228.999 1292.95C220.127 1299.19 209.908 1304.56 198.619 1308.9C187.986 1312.99 176.11 1316.32 163.268 1318.78C141.035 1323.14 114.349 1324.6 81.7257 1323.32C54.0731 1322.21 4.32613 1316.66 1.01196 1316.28V1316.8C4.32613 1317.18 54.0386 1322.73 81.6911 1323.84C89.2861 1324.15 96.5704 1324.29 103.544 1324.29C126.536 1324.29 146.248 1322.62 163.371 1319.3C176.214 1316.84 188.124 1313.51 198.792 1309.42C210.115 1305.05 220.403 1299.68 229.31 1293.4C238.562 1286.92 246.709 1279.09 253.51 1270.18C262.52 1258.29 268.458 1244.01 275.052 1225.01H274.534C267.94 1243.94 262.037 1258.05 253.061 1269.87Z" fill="#FFFFFF" fill-opacity="0.2"></path>
                    <path d="M269.701 1225.01C263.211 1243.63 257.411 1257.49 248.642 1269.1C241.945 1277.84 233.97 1285.47 225.029 1291.74C216.398 1297.84 206.352 1303.11 195.236 1307.41C184.879 1311.39 173.21 1314.65 160.541 1317.11C138.653 1321.38 112.382 1322.8 80.2757 1321.52C53.2446 1320.41 5.12015 1315 1.01196 1314.55V1315.07C5.12015 1315.52 53.21 1320.93 80.2067 1322.03C87.8016 1322.35 95.0859 1322.49 102.059 1322.49C124.568 1322.49 143.866 1320.89 160.61 1317.63C173.314 1315.21 184.983 1311.91 195.374 1307.93C206.559 1303.59 216.605 1298.33 225.305 1292.19C234.315 1285.88 242.29 1278.22 249.056 1269.42C257.894 1257.73 263.694 1243.7 270.219 1225.01H269.701Z" fill="#FFFFFF" fill-opacity="0.2"></path>
                    <path d="M264.937 1225.01C258.585 1243.28 252.923 1256.87 244.258 1268.27C237.699 1276.87 229.896 1284.36 221.093 1290.49C212.67 1296.45 202.831 1301.62 191.853 1305.88C181.703 1309.8 170.241 1312.99 157.813 1315.41C136.271 1319.61 110.414 1321 78.8603 1319.68C53.5898 1318.6 5.12015 1313.27 1.01196 1312.81V1313.33C5.12015 1313.79 53.5553 1319.16 78.7913 1320.2C86.4898 1320.51 93.8776 1320.68 100.92 1320.68C122.773 1320.68 141.553 1319.12 157.882 1315.93C170.345 1313.51 181.841 1310.32 191.991 1306.4C203.038 1302.14 212.911 1296.94 221.369 1290.94C230.242 1284.74 238.078 1277.25 244.672 1268.58C253.372 1257.11 259.068 1243.35 265.455 1225.01H264.937Z" fill="#FFFFFF" fill-opacity="0.2"></path>
                    <path d="M260.276 1225.01C254.062 1242.93 248.47 1256.28 239.977 1267.47C233.556 1275.86 225.926 1283.21 217.261 1289.28C208.941 1295.14 199.309 1300.23 188.573 1304.39C178.769 1308.17 167.549 1311.32 155.19 1313.78C134.062 1317.91 108.688 1319.26 77.5139 1317.91C52.6232 1316.8 4.56778 1311.43 1.01196 1311.05V1311.57C4.56778 1311.98 52.5541 1317.32 77.4794 1318.43C85.247 1318.78 92.6348 1318.92 99.6774 1318.92C121.047 1318.92 139.344 1317.39 155.224 1314.27C167.583 1311.84 178.838 1308.65 188.676 1304.88C199.448 1300.68 209.148 1295.59 217.503 1289.69C226.202 1283.59 233.901 1276.21 240.357 1267.75C248.918 1256.52 254.511 1243 260.76 1224.98H260.276V1225.01Z" fill="#FFFFFF" fill-opacity="0.2"></path>
                    <path d="M255.443 1225.01C249.333 1242.59 243.844 1255.65 235.524 1266.64C229.171 1274.93 221.68 1282.14 213.222 1288.03C205.006 1293.82 195.546 1298.81 185.086 1302.87C175.351 1306.64 164.338 1309.73 152.324 1312.09C131.576 1316.14 106.582 1317.46 75.9949 1316.07C51.7256 1314.96 5.0511 1309.73 1.01196 1309.28V1309.76C5.0511 1310.21 51.6911 1315.45 75.9259 1316.56C83.7625 1316.9 91.2539 1317.08 98.3655 1317.08C119.079 1317.08 136.893 1315.59 152.359 1312.57C164.407 1310.21 175.454 1307.13 185.19 1303.35C195.719 1299.26 205.213 1294.27 213.464 1288.45C221.956 1282.48 229.517 1275.27 235.903 1266.92C244.292 1255.9 249.781 1242.66 255.926 1224.98H255.443V1225.01Z" fill="#FFFFFF" fill-opacity="0.2"></path>
                    <path d="M250.714 1225.01C244.707 1242.31 239.321 1255.17 231.174 1265.85C225.029 1273.89 217.675 1280.96 209.321 1286.85C201.208 1292.57 191.922 1297.46 181.772 1301.38C172.244 1305.05 161.473 1308.1 149.666 1310.42C129.298 1314.41 104.752 1315.69 74.614 1314.31C51.553 1313.2 5.08562 1308.03 1.01196 1307.55V1308.03C5.08562 1308.48 51.4839 1313.68 74.545 1314.76C82.3816 1315.1 89.8385 1315.31 96.9501 1315.31C117.215 1315.31 134.649 1313.85 149.735 1310.87C161.542 1308.55 172.382 1305.5 181.91 1301.83C192.129 1297.91 201.45 1292.99 209.597 1287.23C218.021 1281.34 225.408 1274.23 231.588 1266.16C239.804 1255.41 245.19 1242.41 251.231 1225.05H250.714V1225.01Z" fill="#FFFFFF" fill-opacity="0.2"></path>
                    <path d="M245.915 1225.01C240.046 1241.93 234.764 1254.51 226.789 1265.01C220.782 1272.88 213.567 1279.81 205.385 1285.6C197.618 1291.12 188.504 1295.9 178.389 1299.85C169.137 1303.42 158.573 1306.44 146.939 1308.72C127.054 1312.64 102.922 1313.89 73.1641 1312.5C49.9304 1311.36 5.22371 1306.26 1.01196 1305.81V1306.3C5.22371 1306.78 49.8959 1311.84 73.095 1312.99C80.9662 1313.37 88.423 1313.54 95.5002 1313.54C115.351 1313.54 132.301 1312.12 146.973 1309.21C158.642 1306.92 169.24 1303.91 178.492 1300.34C188.676 1296.38 197.79 1291.57 205.593 1286.02C213.809 1280.2 221.059 1273.26 227.135 1265.36C235.213 1254.75 240.495 1242 246.398 1225.01H245.915Z" fill="#FFFFFF" fill-opacity="0.2"></path>
                    <path d="M241.219 1225.01C235.489 1241.51 230.345 1253.82 222.474 1264.22C216.536 1271.98 209.459 1278.78 201.484 1284.36C193.751 1289.83 184.844 1294.55 175.005 1298.33C165.788 1301.9 155.431 1304.81 144.211 1307.03C124.775 1310.87 101.092 1312.05 71.7828 1310.63C49.6884 1309.56 4.94714 1304.46 0.977051 1304.01V1304.5C4.94714 1304.95 49.6538 1310.01 71.7483 1311.12C79.7575 1311.5 87.3524 1311.71 94.5331 1311.71C113.728 1311.71 130.126 1310.32 144.28 1307.51C155.534 1305.33 165.926 1302.38 175.143 1298.81C184.982 1295 193.924 1290.28 201.691 1284.77C209.7 1279.16 216.777 1272.36 222.784 1264.56C230.725 1254.09 235.868 1241.65 241.634 1225.08H241.219V1225.01Z" fill="#FFFFFF" fill-opacity="0.2"></path>
                    <path d="M236.352 1225.01C230.69 1241.23 225.65 1253.3 217.986 1263.38C212.117 1271.05 205.178 1277.67 197.41 1283.11C189.781 1288.48 181.047 1293.09 171.484 1296.8C162.612 1300.27 152.462 1303.14 141.346 1305.36C122.255 1309.14 98.9865 1310.28 70.1947 1308.83C48.7908 1307.72 5.4995 1302.8 0.977051 1302.28V1302.73C5.4995 1303.25 48.7563 1308.2 70.1602 1309.28C78.273 1309.7 85.9025 1309.9 93.1868 1309.9C111.76 1309.9 127.709 1308.55 141.449 1305.81C152.6 1303.59 162.784 1300.72 171.656 1297.25C181.254 1293.54 190.022 1288.9 197.652 1283.49C205.454 1278.05 212.393 1271.39 218.296 1263.7C226.099 1253.54 231.173 1241.3 236.835 1225.01H236.352Z" fill="#FFFFFF" fill-opacity="0.2"></path>
                    <path d="M231.692 1225.01C226.168 1240.85 221.266 1252.67 213.705 1262.59C208.044 1270.01 201.277 1276.52 193.579 1281.89C186.156 1287.13 177.629 1291.67 168.205 1295.31C159.609 1298.67 149.701 1301.48 138.722 1303.7C120.149 1307.41 97.2953 1308.48 68.8833 1307.06C48.4805 1305.99 5.32728 1301.03 1.01196 1300.54V1300.99C5.32728 1301.48 48.4114 1306.44 68.8488 1307.51C76.8925 1307.93 84.4875 1308.13 91.6336 1308.13C109.896 1308.13 125.431 1306.82 138.791 1304.15C149.804 1301.93 159.747 1299.12 168.343 1295.76C177.802 1292.09 186.363 1287.54 193.786 1282.28C201.484 1276.87 208.285 1270.35 213.982 1262.9C221.646 1252.88 226.582 1240.96 232.14 1225.01H231.692Z" fill="#FFFFFF" fill-opacity="0.2"></path>
                    <path d="M226.927 1225.01C220.541 1243.42 215.742 1253.37 209.321 1261.76C203.797 1269 197.169 1275.34 189.643 1280.65C182.359 1285.81 174.004 1290.21 164.856 1293.78C156.363 1297.11 146.663 1299.89 135.995 1302C117.836 1305.6 95.4311 1306.68 67.4679 1305.19C48.0662 1304.15 5.32728 1299.26 1.01196 1298.78V1299.23C5.32728 1299.71 48.0317 1304.63 67.4333 1305.67C75.6152 1306.09 83.3137 1306.33 90.598 1306.33C108.204 1306.33 123.222 1305.05 136.099 1302.48C146.766 1300.37 156.501 1297.6 165.029 1294.27C174.212 1290.7 182.566 1286.26 189.885 1281.06C197.445 1275.76 204.108 1269.35 209.632 1262.1C216.156 1253.61 220.955 1243.52 227.376 1225.01H226.927Z" fill="#FFFFFF" fill-opacity="0.2"></path>
                    <path d="M222.163 1225.01C215.121 1245.32 210.184 1254.09 204.971 1260.96C199.517 1268.06 193.061 1274.27 185.742 1279.43C178.147 1284.74 169.965 1289.04 161.473 1292.26C153.187 1295.52 143.694 1298.22 133.268 1300.3C115.489 1303.91 93.4979 1304.91 66.0179 1303.39C46.9615 1302.31 5.46537 1297.53 1.01196 1297.04V1297.46C5.46537 1297.98 46.9269 1302.76 65.9834 1303.8C74.2343 1304.25 81.9673 1304.5 89.2516 1304.5C106.306 1304.5 120.874 1303.25 133.371 1300.72C143.797 1298.64 153.325 1295.93 161.645 1292.68C170.172 1289.45 178.354 1285.12 185.984 1279.78C193.337 1274.62 199.827 1268.38 205.282 1261.24C210.564 1254.3 215.501 1245.43 222.578 1225.01H222.163Z" fill="#FFFFFF" fill-opacity="0.2"></path>
                    <path d="M217.399 1225.01C211.323 1242.55 206.732 1252.05 200.587 1260.13C195.27 1267.06 188.987 1273.16 181.807 1278.19C174.833 1283.14 166.858 1287.37 158.124 1290.73C150.184 1293.85 140.897 1296.52 130.575 1298.64C113.245 1302.14 91.6682 1303.11 64.637 1301.58C46.1674 1300.54 5.39633 1295.79 1.01196 1295.27V1295.69C5.39633 1296.21 46.1329 1300.96 64.6025 1302C72.8879 1302.45 80.6209 1302.69 87.9052 1302.69C104.476 1302.69 118.596 1301.48 130.644 1299.05C141.001 1296.94 150.287 1294.27 158.262 1291.15C166.996 1287.75 175.006 1283.52 182.014 1278.53C189.194 1273.47 195.546 1267.37 200.863 1260.4C207.112 1252.26 211.703 1242.62 217.814 1225.01H217.399Z" fill="#FFFFFF" fill-opacity="0.2"></path>
                    <path d="M212.67 1225.01C205.938 1244.39 201.208 1252.78 196.237 1259.33C190.99 1266.16 184.81 1272.08 177.871 1276.97C171.105 1281.79 163.337 1285.92 154.741 1289.24C146.801 1292.36 137.756 1294.96 127.848 1296.97C110.828 1300.4 89.7004 1301.34 63.2216 1299.78C45.6841 1298.74 5.39633 1294.06 1.01196 1293.54V1293.96C5.39633 1294.48 45.6496 1299.19 63.1871 1300.2C71.507 1300.68 79.3091 1300.92 86.6279 1300.92C102.612 1300.92 116.248 1299.75 127.951 1297.39C137.894 1295.38 146.973 1292.78 154.913 1289.66C163.51 1286.3 171.312 1282.17 178.113 1277.32C185.086 1272.43 191.3 1266.47 196.548 1259.61C201.588 1252.99 206.318 1244.49 213.084 1225.01H212.67Z" fill="#FFFFFF" fill-opacity="0.2"></path>
                    <path d="M207.871 1225.01C202.071 1241.72 197.687 1250.8 191.818 1258.53C186.778 1265.12 180.736 1270.91 173.901 1275.76C166.962 1280.61 159.367 1284.67 151.323 1287.75C143.659 1290.77 134.856 1293.3 125.086 1295.31C108.446 1298.71 87.7326 1299.57 61.7716 1298.01C44.7865 1296.97 5.70703 1292.36 1.01196 1291.81V1292.22C5.67251 1292.78 44.752 1297.39 61.7371 1298.43C70.0225 1298.91 77.7556 1299.19 85.0053 1299.19C100.54 1299.19 113.797 1298.05 125.155 1295.73C134.925 1293.75 143.797 1291.18 151.461 1288.17C159.539 1285.05 167.169 1280.99 174.108 1276.11C180.978 1271.25 187.019 1265.43 192.094 1258.81C198.067 1251.01 202.451 1241.79 208.285 1225.01H207.871Z" fill="#FFFFFF" fill-opacity="0.2"></path>
                    <path d="M203.176 1225.01C197.514 1241.27 193.268 1250.14 187.503 1257.73C182.497 1264.22 176.628 1269.83 170.034 1274.51C163.233 1279.26 155.846 1283.21 148.043 1286.23C140.656 1289.14 132.06 1291.63 122.462 1293.61C106.306 1296.9 86.0064 1297.74 60.4253 1296.18C43.8199 1295.14 5.29276 1290.53 1.01196 1290.01V1290.39C5.29276 1290.91 43.7854 1295.48 60.4253 1296.52C68.7452 1297.04 76.5127 1297.29 83.7625 1297.29C98.8143 1297.29 111.657 1296.18 122.566 1293.96C132.198 1291.98 140.828 1289.49 148.216 1286.57C156.018 1283.52 163.44 1279.57 170.276 1274.79C176.904 1270.11 182.808 1264.42 187.813 1257.94C193.613 1250.32 197.859 1241.34 203.556 1224.98H203.176V1225.01Z" fill="#FFFFFF" fill-opacity="0.2"></path>
                    <path d="M198.412 1225.01C192.888 1240.89 188.746 1249.52 183.118 1256.9C178.354 1263.14 172.624 1268.65 166.099 1273.26C159.47 1277.91 152.255 1281.76 144.66 1284.7C137.307 1287.61 128.883 1290.04 119.7 1291.91C103.993 1295.17 84.1077 1295.97 58.9408 1294.34C43.1985 1293.3 5.63798 1288.83 1.01196 1288.27V1288.65C5.63798 1289.21 43.164 1293.68 58.9408 1294.72C67.3643 1295.27 75.2009 1295.52 82.4852 1295.52C96.9846 1295.52 109.309 1294.44 119.804 1292.26C129.022 1290.39 137.445 1287.96 144.833 1285.05C152.462 1282.1 159.712 1278.22 166.34 1273.54C172.865 1268.9 178.63 1263.38 183.429 1257.11C189.091 1249.73 193.268 1240.96 198.792 1225.01H198.412Z" fill="#FFFFFF" fill-opacity="0.2"></path>
                    <path d="M193.613 1225.01C188.331 1240.19 184.154 1248.93 178.699 1256.07C174.039 1262.14 168.48 1267.51 162.094 1272.02C155.673 1276.56 148.63 1280.3 141.208 1283.14C134.2 1285.95 126.018 1288.31 116.904 1290.21C101.645 1293.37 82.2086 1294.13 57.4559 1292.5C42.266 1291.5 5.63759 1287.06 0.977051 1286.47V1286.85C5.63759 1287.41 42.2315 1291.88 57.4214 1292.88C65.8794 1293.44 73.7161 1293.72 80.9658 1293.72C94.9819 1293.72 106.892 1292.68 116.938 1290.6C126.087 1288.69 134.269 1286.33 141.311 1283.52C148.768 1280.65 155.811 1276.9 162.266 1272.33C168.653 1267.79 174.28 1262.41 178.941 1256.31C184.43 1249.14 188.607 1240.3 193.924 1225.05H193.613V1225.01Z" fill="#FFFFFF" fill-opacity="0.2"></path>
                    <path d="M188.884 1225.01C183.774 1239.78 179.701 1248.27 174.35 1255.27C169.724 1261.27 164.304 1266.5 158.193 1270.8C151.841 1275.27 145.005 1278.91 137.859 1281.65C131.127 1284.36 123.153 1286.68 114.211 1288.55C99.2976 1291.67 80.2757 1292.36 56.0409 1290.7C41.6105 1289.69 5.63798 1285.29 1.01196 1284.74V1285.12C5.63798 1285.67 41.5759 1290.08 56.0409 1291.08C64.5334 1291.67 72.4046 1291.95 79.6543 1291.95C93.1181 1291.95 104.58 1290.94 114.28 1288.93C123.256 1287.06 131.231 1284.74 137.997 1282.03C145.144 1279.29 152.014 1275.62 158.4 1271.11C164.511 1266.78 169.965 1261.55 174.626 1255.52C180.011 1248.48 184.085 1239.88 189.229 1225.05H188.884V1225.01Z" fill="#FFFFFF" fill-opacity="0.2"></path>
                    <path d="M184.12 1225.01C179.114 1239.47 175.144 1247.72 169.965 1254.44C165.546 1260.23 160.264 1265.29 154.258 1269.55C148.251 1273.78 141.588 1277.35 134.511 1280.13C127.779 1282.8 120.046 1285.08 111.519 1286.85C96.9501 1289.9 78.3424 1290.56 54.66 1288.9C40.7129 1287.89 5.56894 1283.56 1.01196 1282.97V1283.32C5.56894 1283.87 40.6784 1288.24 54.66 1289.24C63.0835 1289.83 70.8856 1290.14 78.1008 1290.14C91.1503 1290.14 102.198 1289.17 111.622 1287.2C120.184 1285.43 127.951 1283.14 134.683 1280.47C141.795 1277.67 148.458 1274.1 154.499 1269.83C160.541 1265.57 165.857 1260.44 170.276 1254.65C175.454 1247.89 179.459 1239.54 184.499 1225.01H184.12Z" fill="#FFFFFF" fill-opacity="0.2"></path>
                    <path d="M179.355 1225.01C174.488 1239.09 170.621 1247.09 165.581 1253.61C161.231 1259.26 156.122 1264.18 150.322 1268.31C144.384 1272.5 137.928 1275.97 131.127 1278.6C124.741 1281.17 117.215 1283.39 108.791 1285.15C94.7061 1288.1 76.5473 1288.72 53.2446 1287.06C39.7463 1286.09 5.67251 1281.79 1.01196 1281.2V1281.55C5.67251 1282.14 39.7117 1286.4 53.2446 1287.41C61.7026 1288.03 69.5047 1288.31 76.6854 1288.31C89.2516 1288.31 99.8845 1287.37 108.895 1285.46C117.353 1283.7 124.879 1281.48 131.3 1278.91C138.101 1276.24 144.591 1272.74 150.564 1268.55C156.363 1264.42 161.542 1259.43 165.892 1253.78C170.932 1247.23 174.833 1239.12 179.735 1224.98H179.355V1225.01Z" fill="#FFFFFF" fill-opacity="0.2"></path>
                    <path d="M174.591 1225.01C169.93 1238.53 166.167 1246.33 161.231 1252.81C157.019 1258.29 152.013 1263.11 146.386 1267.06C140.655 1271.08 134.372 1274.48 127.744 1277.08C121.461 1279.61 114.349 1281.69 106.029 1283.45C92.3582 1286.37 74.6136 1286.96 51.7597 1285.22C38.9173 1284.25 5.56855 1280.02 0.977051 1279.43V1279.78C5.56855 1280.37 38.8828 1284.56 51.7252 1285.57C60.2523 1286.23 68.0889 1286.54 75.2696 1286.54C87.3179 1286.54 97.5021 1285.64 106.098 1283.8C114.453 1282.03 121.564 1279.95 127.882 1277.42C134.545 1274.79 140.862 1271.39 146.593 1267.34C152.255 1263.35 157.261 1258.53 161.507 1253.02C166.478 1246.5 170.241 1238.6 174.936 1225.01H174.591Z" fill="#FFFFFF" fill-opacity="0.2"></path>
                    <path d="M169.862 1225.01C165.305 1238.15 161.68 1245.74 156.881 1251.98C152.739 1257.35 147.905 1262 142.485 1265.81C136.927 1269.73 130.851 1273.02 124.396 1275.55C118.458 1277.94 111.588 1279.99 103.337 1281.79C90.1492 1284.6 72.8534 1285.15 50.3792 1283.45C37.9511 1282.48 5.53442 1278.32 1.01196 1277.74V1278.08C5.53442 1278.67 37.9511 1282.83 50.3792 1283.84C58.8717 1284.49 66.6393 1284.81 73.7164 1284.81C85.3851 1284.81 95.224 1283.94 103.44 1282.17C111.691 1280.37 118.596 1278.32 124.568 1275.93C131.058 1273.37 137.169 1270.07 142.727 1266.12C148.147 1262.28 153.015 1257.6 157.192 1252.22C162.025 1245.91 165.684 1238.25 170.241 1225.05H169.862V1225.01Z" fill="#FFFFFF" fill-opacity="0.2"></path>
                    <path d="M165.097 1225.01C160.644 1237.84 157.122 1245.19 152.496 1251.15C148.492 1256.35 143.797 1260.85 138.549 1264.56C133.129 1268.41 127.226 1271.6 121.012 1274.03C115.074 1276.42 108.204 1278.43 100.609 1280.09C87.7322 1282.87 70.8507 1283.35 48.9634 1281.62C37.2257 1280.65 5.46498 1276.52 0.977051 1275.97V1276.28C5.46498 1276.87 37.1567 1280.99 48.9289 1281.96C57.4214 1282.62 65.1545 1282.97 72.1971 1282.97C83.3478 1282.97 92.738 1282.14 100.644 1280.44C108.273 1278.81 115.143 1276.76 121.115 1274.37C127.33 1271.91 133.267 1268.69 138.722 1264.84C144.004 1261.13 148.734 1256.59 152.738 1251.36C157.399 1245.33 160.92 1237.91 165.408 1225.01H165.097Z" fill="#FFFFFF" fill-opacity="0.2"></path>
                    <path d="M160.368 1225.01C156.087 1237.35 152.669 1244.46 148.147 1250.35C144.35 1255.31 139.793 1259.68 134.649 1263.35C129.367 1267.09 123.671 1270.18 117.698 1272.5C112.071 1274.79 105.615 1276.73 97.9512 1278.39C85.385 1281.1 68.9178 1281.55 47.5829 1279.78C36.294 1278.84 5.56894 1274.82 1.01196 1274.2V1274.51C5.56894 1275.1 36.2595 1279.16 47.5483 1280.09C56.0409 1280.79 63.7739 1281.17 70.782 1281.17C81.415 1281.17 90.4253 1280.33 98.0203 1278.71C105.719 1277.04 112.175 1275.1 117.836 1272.81C123.843 1270.46 129.574 1267.37 134.856 1263.59C140.034 1259.92 144.591 1255.52 148.423 1250.52C152.946 1244.63 156.363 1237.42 160.679 1225.01H160.368Z" fill="#FFFFFF" fill-opacity="0.2"></path>
                    <path d="M155.604 1225.01C151.496 1236.94 148.182 1243.83 143.763 1249.52C140.034 1254.37 135.615 1258.6 130.679 1262.1C125.5 1265.74 120.011 1268.72 114.28 1271.01C108.929 1273.19 102.681 1275.07 95.1894 1276.73C83.072 1279.36 67.0536 1279.75 46.1329 1277.98C35.2238 1277.01 5.49989 1273.02 1.01196 1272.4V1272.71C5.49989 1273.3 35.1893 1277.28 46.0984 1278.26C54.5909 1278.98 62.2895 1279.33 69.263 1279.33C79.4472 1279.33 88.0433 1278.57 95.2585 1276.97C102.784 1275.31 109.033 1273.44 114.419 1271.25C120.149 1269 125.707 1265.98 130.886 1262.31C135.857 1258.77 140.276 1254.51 144.039 1249.66C148.423 1243.97 151.772 1237.01 155.915 1225.01H155.604Z" fill="#FFFFFF" fill-opacity="0.2"></path>
                    <path d="M150.874 1225.01C146.904 1236.55 143.694 1243.18 139.447 1248.72C135.926 1253.33 131.645 1257.42 126.812 1260.89C121.944 1264.35 116.593 1267.23 110.966 1269.52C105.719 1271.67 99.6774 1273.51 92.5312 1275.07C80.8626 1277.63 65.2584 1278.01 44.7865 1276.21C34.4643 1275.27 5.43085 1271.32 1.01196 1270.73V1271.05C5.43085 1271.63 34.4298 1275.59 44.752 1276.52C53.21 1277.28 60.8395 1277.63 67.744 1277.63C77.5139 1277.63 85.7303 1276.87 92.6003 1275.38C99.781 1273.82 105.822 1271.98 111.104 1269.83C116.766 1267.58 122.117 1264.67 127.019 1261.2C131.887 1257.7 136.168 1253.61 139.724 1248.96C144.004 1243.42 147.215 1236.69 151.22 1225.08H150.874V1225.01Z" fill="#FFFFFF" fill-opacity="0.2"></path>
                    <path d="M146.11 1225.01C142.278 1236.14 139.171 1242.55 135.063 1247.89C131.542 1252.43 127.434 1256.38 122.877 1259.64C118.112 1263 112.969 1265.81 107.583 1267.99C102.405 1270.07 96.6049 1271.84 89.7694 1273.4C78.446 1275.93 63.2561 1276.24 43.3366 1274.41C33.4977 1273.47 5.3618 1269.55 1.01196 1268.97V1269.24C5.3618 1269.83 33.4632 1273.75 43.3021 1274.68C51.7601 1275.48 59.3551 1275.86 66.156 1275.86C75.4426 1275.86 83.2792 1275.14 89.8039 1273.68C96.6394 1272.12 102.508 1270.35 107.687 1268.27C113.107 1266.09 118.251 1263.28 123.049 1259.92C127.641 1256.66 131.749 1252.67 135.305 1248.1C139.447 1242.72 142.554 1236.24 146.421 1225.05H146.11V1225.01Z" fill="#FFFFFF" fill-opacity="0.2"></path>
                    <path d="M141.312 1225.01C137.618 1235.72 134.649 1241.89 130.644 1247.09C127.261 1251.46 123.325 1255.27 118.906 1258.43C114.315 1261.69 109.378 1264.39 104.165 1266.5C98.5726 1268.76 92.7729 1270.49 87.0076 1271.74C76.0985 1274.16 61.3228 1274.44 41.8521 1272.6C32.3239 1271.63 5.49989 1267.86 1.01196 1267.2V1267.47C5.49989 1268.1 32.2894 1271.91 41.8176 1272.85C50.2756 1273.64 57.8361 1274.06 64.568 1274.06C73.4057 1274.06 80.8626 1273.37 87.0421 1271.98C92.8419 1270.73 98.6417 1269 104.269 1266.75C109.482 1264.63 114.488 1261.93 119.079 1258.67C123.532 1255.48 127.503 1251.67 130.886 1247.27C134.89 1242.03 137.894 1235.76 141.588 1225.01H141.312Z" fill="#FFFFFF" fill-opacity="0.2"></path>
                    <path d="M136.582 1225.01C133.026 1235.34 130.161 1241.3 126.294 1246.26C122.98 1250.52 119.148 1254.2 114.971 1257.14C110.587 1260.26 105.822 1262.86 100.817 1264.91C95.4656 1267.06 89.9075 1268.76 84.3149 1269.97C73.7164 1272.36 59.3896 1272.6 40.4712 1270.7C31.4263 1269.76 5.32728 1266.02 1.01196 1265.39V1265.67C5.32728 1266.3 31.3918 1270.04 40.4367 1270.94C48.8257 1271.77 56.3171 1272.19 63.0145 1272.19C71.4034 1272.19 78.446 1271.53 84.3839 1270.21C89.9766 1269 95.5692 1267.3 100.955 1265.15C105.995 1263.14 110.759 1260.51 115.178 1257.39C119.39 1254.41 123.222 1250.73 126.57 1246.43C130.437 1241.44 133.337 1235.41 136.927 1225.01H136.582Z" fill="#FFFFFF" fill-opacity="0.2"></path>
                    <path d="M131.852 1225.01C128.435 1234.93 125.638 1240.65 121.944 1245.43C118.837 1249.45 115.178 1252.99 111.07 1255.9C106.754 1258.95 102.163 1261.48 97.4679 1263.38C92.3931 1265.43 87.0421 1267.09 81.6221 1268.27C71.4725 1270.59 57.5599 1270.8 39.0903 1268.9C30.5633 1267.99 5.25823 1264.29 1.01196 1263.66V1263.9C5.22371 1264.53 30.5287 1268.24 39.0558 1269.14C47.4103 1270.01 54.8326 1270.42 61.3919 1270.42C69.3666 1270.42 76.0985 1269.8 81.6911 1268.48C87.1457 1267.3 92.4967 1265.64 97.606 1263.59C102.336 1261.69 106.927 1259.16 111.277 1256.11C115.42 1253.16 119.079 1249.62 122.221 1245.57C125.949 1240.75 128.745 1234.96 132.198 1225.01H131.852Z" fill="#FFFFFF" fill-opacity="0.2"></path>
                    <path d="M127.054 1225.01C123.809 1234.44 121.151 1239.95 117.56 1244.6C114.592 1248.44 111.07 1251.84 107.135 1254.65C103.061 1257.56 98.6421 1259.99 94.0851 1261.86C89.2865 1263.8 84.1772 1265.39 78.8952 1266.57C69.1599 1268.83 55.6615 1269 37.6408 1267.06C29.3899 1266.16 5.39672 1262.52 1.04688 1261.89V1262.14C5.36219 1262.8 29.3554 1266.4 37.6062 1267.3C45.9262 1268.2 53.314 1268.65 59.7697 1268.65C67.3302 1268.65 73.6823 1268.03 78.9297 1266.82C84.2117 1265.64 89.3555 1264.04 94.1887 1262.1C98.7802 1260.23 103.199 1257.8 107.307 1254.89C111.277 1252.05 114.799 1248.65 117.802 1244.77C121.392 1240.09 124.085 1234.51 127.365 1225.05H127.054V1225.01Z" fill="#FFFFFF" fill-opacity="0.2"></path>
                    <path d="M122.393 1225.01C119.286 1234.02 116.732 1239.29 113.279 1243.76C110.379 1247.47 107.031 1250.73 103.302 1253.4C99.2631 1256.28 95.0859 1258.6 90.8051 1260.33C86.041 1262.24 81.1733 1263.77 76.2711 1264.87C66.8464 1267.06 53.7624 1267.2 36.3285 1265.22C28.5955 1264.32 5.08562 1260.72 1.01196 1260.09V1260.33C5.08562 1260.96 28.5609 1264.56 36.2595 1265.46C44.5104 1266.4 51.7946 1266.85 58.1468 1266.85C65.2584 1266.85 71.2653 1266.26 76.2711 1265.12C81.1733 1264.01 86.11 1262.48 90.8741 1260.58C95.1549 1258.84 99.4012 1256.49 103.44 1253.64C107.203 1250.94 110.586 1247.68 113.486 1243.94C116.973 1239.43 119.528 1234.13 122.669 1225.05H122.393V1225.01Z" fill="#FFFFFF" fill-opacity="0.2"></path>
                    <path d="M117.595 1225.01C114.591 1233.68 112.14 1238.74 108.86 1242.97C106.237 1246.36 103.026 1249.48 99.3322 1252.19C95.6382 1254.86 91.5991 1257.08 87.4219 1258.81C82.8304 1260.68 78.1353 1262.17 73.4748 1263.21C64.3608 1265.36 51.7256 1265.43 34.8441 1263.42C27.3872 1262.52 5.15467 1259.02 1.01196 1258.36V1258.6C5.15467 1259.26 27.3527 1262.76 34.8095 1263.66C42.9914 1264.63 50.1375 1265.12 56.4206 1265.12C63.118 1265.12 68.7797 1264.56 73.5093 1263.45C78.1698 1262.41 82.8649 1260.92 87.4909 1259.05C91.7027 1257.32 95.7418 1255.1 99.4702 1252.43C103.199 1249.69 106.409 1246.57 109.068 1243.14C112.382 1238.88 114.833 1233.75 117.871 1225.05H117.595V1225.01Z" fill="#FFFFFF" fill-opacity="0.2"></path>
                    <path d="M112.761 1225.01C109.965 1233.16 107.549 1238.08 104.407 1242.1C101.783 1245.46 98.7108 1248.44 95.293 1250.91C91.8062 1253.44 87.9742 1255.59 83.9351 1257.28C79.5507 1259.09 75.0973 1260.51 70.6439 1261.51C62.0133 1263.59 49.8268 1263.63 33.3251 1261.58C26.3515 1260.72 5.22371 1257.28 1.01196 1256.59V1256.8C5.22371 1257.49 26.317 1260.92 33.2905 1261.79C41.4379 1262.8 48.5495 1263.32 54.729 1263.32C61.0121 1263.32 66.3286 1262.8 70.6784 1261.72C75.1319 1260.72 79.6198 1259.29 84.0041 1257.49C88.0778 1255.79 91.9098 1253.64 95.4311 1251.11C98.8834 1248.62 101.956 1245.64 104.614 1242.24C107.756 1238.22 110.207 1233.19 113.038 1225.01H112.761Z" fill="#FFFFFF" fill-opacity="0.2"></path>
                    <path d="M108.066 1225.01C105.443 1232.64 103.164 1237.35 100.126 1241.3C97.606 1244.53 94.7061 1247.34 91.461 1249.66C88.0433 1252.12 84.3839 1254.16 80.6555 1255.72C76.5818 1257.42 72.3355 1258.77 68.0202 1259.78C59.7348 1261.79 47.9626 1261.79 31.9787 1259.74C25.3849 1258.91 4.98205 1255.48 1.01196 1254.82V1255.03C4.98205 1255.69 25.3504 1259.12 31.9442 1259.95C39.9879 1260.99 46.9615 1261.51 52.9684 1261.51C58.9063 1261.51 63.912 1260.99 68.0547 1259.99C72.3701 1258.98 76.6163 1257.63 80.69 1255.93C84.4529 1254.37 88.1123 1252.33 91.5646 1249.87C94.8442 1247.51 97.7786 1244.7 100.299 1241.44C103.371 1237.46 105.684 1232.67 108.273 1225.01H108.066Z" fill="#FFFFFF" fill-opacity="0.2"></path>
                    <path d="M103.268 1225.01C100.817 1232.19 98.6417 1236.66 95.7073 1240.47C93.2562 1243.56 90.4944 1246.23 87.4909 1248.41C84.3494 1250.7 80.8971 1252.64 77.2377 1254.23C73.5093 1255.79 69.5047 1257.11 65.2584 1258.12C57.3873 1260.06 46.0294 1259.99 30.5287 1257.94C24.2802 1257.11 5.0511 1253.78 1.01196 1253.09V1253.3C5.0511 1253.99 24.2456 1257.32 30.4942 1258.18C38.4689 1259.26 45.3734 1259.78 51.2423 1259.78C56.8004 1259.78 61.4609 1259.29 65.2929 1258.36C69.5047 1257.35 73.5438 1256.04 77.2723 1254.48C80.9316 1252.88 84.4184 1250.94 87.5945 1248.65C90.6325 1246.43 93.4288 1243.76 95.8799 1240.65C98.8143 1236.8 101.024 1232.26 103.475 1225.05H103.268V1225.01Z" fill="#FFFFFF" fill-opacity="0.2"></path>
                    <path d="M98.5381 1225.01C96.2251 1231.81 94.1538 1236.03 91.3575 1239.61C89.148 1242.45 86.5243 1244.98 83.5899 1247.13C80.4483 1249.38 77.2032 1251.22 73.889 1252.64C70.2642 1254.16 66.4667 1255.45 62.5657 1256.38C55.0052 1258.29 44.3723 1258.22 29.1133 1256.11C23.21 1255.27 4.94753 1251.98 1.01196 1251.29V1251.49C4.94753 1252.19 23.1754 1255.48 29.0788 1256.31C37.0535 1257.42 43.7854 1257.98 49.4816 1257.98C54.66 1257.98 59.0098 1257.53 62.6002 1256.59C66.5012 1255.65 70.3332 1254.37 73.9236 1252.85C77.2377 1251.46 80.5174 1249.59 83.6934 1247.34C86.6624 1245.15 89.2861 1242.62 91.5301 1239.74C94.3609 1236.14 96.4668 1231.84 98.7453 1225.01H98.5381Z" fill="#FFFFFF" fill-opacity="0.2"></path>
                    <path d="M93.8086 1225.01C91.5991 1231.42 89.6313 1235.41 87.0076 1238.81C84.9363 1241.44 82.4852 1243.87 79.6888 1245.91C76.7889 1248.03 73.7164 1249.76 70.5749 1251.15C67.1917 1252.57 63.6013 1253.75 59.9074 1254.68C52.7267 1256.52 42.2319 1256.38 27.7669 1254.27C22.1743 1253.44 4.7404 1250.25 1.01196 1249.55V1249.73C4.7404 1250.42 22.1398 1253.61 27.7324 1254.44C35.4655 1255.58 42.0938 1256.14 47.6519 1256.14C52.5196 1256.14 56.5933 1255.72 59.9419 1254.86C63.6359 1253.92 67.2262 1252.74 70.6094 1251.32C73.7855 1249.93 76.858 1248.17 79.7924 1246.09C82.6233 1244.01 85.0744 1241.58 87.1802 1238.91C89.8385 1235.48 91.8408 1231.42 94.0157 1224.98H93.8086V1225.01Z" fill="#FFFFFF" fill-opacity="0.2"></path>
                    <path d="M89.0444 1225.01C87.0076 1231.04 85.1434 1234.79 82.6232 1237.98C80.5519 1240.61 78.2044 1242.86 75.6842 1244.7C72.9569 1246.68 70.0916 1248.34 67.1226 1249.66C63.843 1251.08 60.4598 1252.19 57.0766 1253.05C50.3101 1254.82 40.2296 1254.65 26.2479 1252.5C21.0005 1251.6 4.77492 1248.51 1.01196 1247.79V1247.96C4.77492 1248.69 20.966 1251.81 26.2134 1252.64C33.8774 1253.82 40.3677 1254.41 45.7877 1254.41C50.2756 1254.41 54.0386 1253.99 57.1111 1253.19C60.4943 1252.36 63.8775 1251.22 67.1572 1249.8C70.1606 1248.51 73.0605 1246.82 75.7533 1244.84C78.2734 1243 80.6209 1240.71 82.7268 1238.11C85.2815 1234.93 87.1457 1231.11 89.1825 1225.05H89.0444V1225.01Z" fill="#FFFFFF" fill-opacity="0.2"></path>
                    <path d="M84.2458 1225.01C82.4161 1230.45 80.6209 1234.09 78.2389 1237.14C76.3747 1239.54 74.1998 1241.65 71.7487 1243.45C69.3666 1245.22 66.6393 1246.78 63.7049 1248.13C60.7014 1249.45 57.5599 1250.52 54.3148 1251.36C47.8245 1253.09 38.1582 1252.85 24.798 1250.66C19.7232 1249.76 4.70587 1246.75 1.01196 1245.98V1246.16C4.67135 1246.88 19.7232 1249.93 24.798 1250.77C32.2894 1251.98 38.607 1252.6 43.8544 1252.6C47.9971 1252.6 51.5184 1252.22 54.3838 1251.46C57.6289 1250.63 60.7705 1249.55 63.7739 1248.24C66.7084 1246.92 69.4356 1245.32 71.8177 1243.56C74.2688 1241.75 76.4437 1239.64 78.3079 1237.25C80.7245 1234.16 82.5197 1230.49 84.3494 1225.01H84.2458Z" fill="#FFFFFF" fill-opacity="0.2"></path>
                    <path d="M79.5162 1225.01C77.7901 1230.11 76.0985 1233.47 73.8891 1236.31C72.1629 1238.5 70.1261 1240.47 67.8476 1242.2C65.5691 1243.9 63.0835 1245.36 60.3562 1246.57C57.3527 1247.89 54.5219 1248.89 51.622 1249.62C45.5115 1251.29 36.294 1251.04 23.3826 1248.83C18.722 1247.96 4.56778 1244.98 1.01196 1244.25V1244.42C4.56778 1245.15 18.6875 1248.1 23.3826 1248.93C30.7359 1250.18 36.8809 1250.8 41.9557 1250.8C45.8222 1250.8 49.0673 1250.42 51.6911 1249.69C54.5909 1248.96 57.4218 1247.96 60.4253 1246.64C63.118 1245.43 65.6727 1243.97 67.9167 1242.27C70.1951 1240.54 72.232 1238.57 73.9581 1236.38C76.2021 1233.54 77.8937 1230.11 79.6198 1224.98H79.5162V1225.01Z" fill="#FFFFFF" fill-opacity="0.2"></path>
                    <path d="M74.7521 1225.01C73.1641 1229.69 71.6106 1232.81 69.5047 1235.48C67.9166 1237.46 66.0524 1239.33 63.912 1240.96C61.7371 1242.59 59.3896 1243.97 57.0075 1245.05C54.3838 1246.23 51.6565 1247.2 48.8947 1247.96C43.1295 1249.59 34.3262 1249.28 21.9671 1246.99C17.5483 1246.12 4.42969 1243.24 1.01196 1242.48V1242.62C4.42969 1243.38 17.5137 1246.26 21.9671 1247.09C29.1824 1248.41 35.1893 1249.07 40.0915 1249.07C43.6128 1249.07 46.5472 1248.72 48.9638 1248.06C51.7256 1247.3 54.4529 1246.33 57.0766 1245.15C59.4586 1244.08 61.8062 1242.69 63.9811 1241.06C66.1215 1239.43 67.9857 1237.56 69.5737 1235.58C71.7141 1232.92 73.2676 1229.73 74.8557 1225.01H74.7521Z" fill="#FFFFFF" fill-opacity="0.2"></path>
                    <path d="M70.0225 1225.01C68.6416 1229.17 67.1917 1232.05 65.1548 1234.65C63.6704 1236.52 61.9443 1238.18 59.9765 1239.67C58.0087 1241.17 55.9028 1242.45 53.6243 1243.49C51.3113 1244.56 48.8257 1245.46 46.202 1246.23C40.8165 1247.82 32.4275 1247.44 20.5862 1245.15C16.3745 1244.28 4.25708 1241.48 1.01196 1240.71V1240.85C4.25708 1241.62 16.34 1244.42 20.5862 1245.26C27.6288 1246.61 33.4286 1247.3 38.1237 1247.3C41.3688 1247.3 44.0616 1246.99 46.271 1246.33C48.8947 1245.57 51.3804 1244.67 53.6934 1243.59C55.9373 1242.55 58.0777 1241.27 60.0455 1239.78C62.0133 1238.32 63.7394 1236.62 65.2239 1234.75C67.2952 1232.12 68.7452 1229.21 70.1261 1225.05H70.0225V1225.01Z" fill="#FFFFFF" fill-opacity="0.2"></path>
                    <path d="M65.2584 1225.01C63.9811 1228.82 62.6002 1231.53 60.736 1233.82C59.3205 1235.58 57.7325 1237.11 56.0064 1238.43C54.2112 1239.81 52.2779 1240.99 50.2066 1241.96C48.1698 1242.93 45.9603 1243.76 43.4402 1244.53C38.4344 1246.02 30.4597 1245.64 19.1018 1243.31C15.0972 1242.41 4.08447 1239.71 1.01196 1238.95V1239.09C4.08447 1239.85 15.0626 1242.55 19.1363 1243.42C26.0063 1244.84 31.668 1245.53 36.1559 1245.53C39.0903 1245.53 41.5414 1245.22 43.5437 1244.63C46.0639 1243.87 48.3078 1243.04 50.3102 1242.07C52.3815 1241.1 54.3148 1239.92 56.1099 1238.53C57.8361 1237.21 59.4586 1235.69 60.8395 1233.92C62.7037 1231.6 64.1192 1228.82 65.3965 1225.01H65.2584Z" fill="#FFFFFF" fill-opacity="0.2"></path>
                    <path d="M60.4598 1225.01C59.3551 1228.34 58.0777 1230.8 56.3516 1232.95C55.1088 1234.51 53.6588 1235.93 52.0708 1237.14C50.4137 1238.43 48.6531 1239.54 46.8234 1240.4C44.8901 1241.34 42.8533 1242.17 40.6784 1242.79C36.0178 1244.25 28.2502 1243.8 17.6518 1241.44C13.7508 1240.54 4.01542 1237.98 1.01196 1237.18V1237.32C3.9809 1238.11 13.7163 1240.68 17.6863 1241.55C24.2456 1243 29.7347 1243.73 34.0846 1243.73C36.7428 1243.73 38.9868 1243.45 40.7819 1242.9C42.9223 1242.27 44.9937 1241.44 46.9269 1240.51C48.7221 1239.64 50.5173 1238.53 52.1744 1237.25C53.7624 1236.03 55.2124 1234.61 56.4552 1233.05C58.1813 1230.9 59.4586 1228.41 60.5633 1225.05H60.4598V1225.01Z" fill="#FFFFFF" fill-opacity="0.2"></path>
                    <path d="M55.6957 1225.01C54.9016 1227.58 53.6588 1229.97 51.9672 1232.12C50.7935 1233.57 49.4816 1234.82 48.1352 1235.9C46.7889 1236.97 45.2008 1237.94 43.4402 1238.84C41.5414 1239.78 39.7463 1240.51 37.9511 1241.06C33.6012 1242.48 26.2825 1242 16.2364 1239.57C12.4044 1238.63 3.80829 1236.21 1.01196 1235.41V1235.51C3.77377 1236.31 12.4044 1238.74 16.2709 1239.64C22.6231 1241.17 27.8705 1241.93 31.9787 1241.93C34.3953 1241.93 36.4321 1241.65 38.0546 1241.13C39.8498 1240.58 41.645 1239.85 43.5437 1238.91C45.3044 1238.05 46.8924 1237.04 48.2388 1235.97C49.5852 1234.89 50.897 1233.64 52.0708 1232.19C53.7624 1230.04 55.0052 1227.61 55.7992 1225.01H55.6957Z" fill="#FFFFFF" fill-opacity="0.2"></path>
                    <path d="M51.0006 1225.01C50.3102 1227.3 49.1709 1229.41 47.6519 1231.29C46.6853 1232.5 45.5806 1233.57 44.2687 1234.65C42.9223 1235.69 41.5414 1236.59 40.126 1237.32C38.538 1238.11 36.9154 1238.81 35.2928 1239.36C31.3573 1240.71 24.4873 1240.19 14.89 1237.77C11.0925 1236.76 3.56663 1234.44 1.01196 1233.64V1233.75C3.56663 1234.54 11.058 1236.87 14.89 1237.87C21.0696 1239.43 26.0753 1240.19 29.9419 1240.19C32.1168 1240.19 33.9119 1239.95 35.3274 1239.47C36.9499 1238.91 38.5725 1238.22 40.1605 1237.42C41.5414 1236.69 42.9569 1235.79 44.3032 1234.75C45.6151 1233.68 46.7198 1232.57 47.6864 1231.39C49.2054 1229.52 50.3447 1227.37 51.0351 1225.05H51.0006V1225.01Z" fill="#FFFFFF" fill-opacity="0.2"></path>
                    <path d="M46.1329 1225.01C45.5115 1227.02 44.4758 1228.89 43.164 1230.42C42.2319 1231.53 41.2652 1232.5 40.195 1233.37C39.1594 1234.23 37.9511 1235.03 36.6392 1235.76C35.1548 1236.55 33.8084 1237.18 32.4965 1237.66C28.8717 1239.02 22.4159 1238.43 13.371 1235.93C9.36642 1234.82 3.3595 1232.74 1.01196 1231.91V1232.01C3.3595 1232.85 9.33189 1234.93 13.371 1236.03C19.2744 1237.66 24.073 1238.46 27.6979 1238.46C29.6657 1238.46 31.2537 1238.22 32.531 1237.77C33.8429 1237.28 35.1893 1236.66 36.6737 1235.86C37.9856 1235.13 39.1939 1234.34 40.2296 1233.47C41.2998 1232.6 42.2664 1231.63 43.1985 1230.52C44.5104 1228.96 45.546 1227.06 46.1674 1225.05H46.1329V1225.01Z" fill="#FFFFFF" fill-opacity="0.2"></path>
                    <path d="M41.9212 1225.01C41.2652 1227.13 39.8498 1229.28 37.882 1231.18C35.8107 1233.16 33.2215 1234.79 30.3216 1235.93C28.0431 1236.83 23.0719 1237.25 12.508 1234.06C10.264 1233.4 2.94523 1230.7 1.01196 1229.97V1230.07C2.94523 1230.8 10.264 1233.47 12.4734 1234.16C18.7911 1236.07 23.1064 1236.69 26.0408 1236.69C28.0431 1236.69 29.424 1236.42 30.3561 1236.03C33.256 1234.89 35.8452 1233.26 37.9511 1231.25C39.9534 1229.31 41.3688 1227.16 42.0247 1225.01H41.9212Z" fill="#FFFFFF" fill-opacity="0.2"></path>
                </g>
            </g>
            <text transform="translate(375 1300)" text-anchor="Middle" fill="#FFFFFF" font-size="25" font-family="Arial" font-weight="700"><tspan x="-22.471" y="0">Section longer title</tspan></text>
        </g>
        <g class="s_references">
            <rect y="1355" width="700" height="183" fill="#F6F6F6"></rect>
            <rect x="518" y="1461" width="64" height="36" fill="url(#theme_real_estate_s_reference_demo_image_6_id)" class="img_reference_s_reference_demo_image_6"></rect>
            <rect x="438" y="1461" width="64" height="36" fill="url(#theme_real_estate_s_reference_demo_image_5_id)" class="img_reference_s_reference_demo_image_5"></rect>
            <rect x="358" y="1461" width="64" height="36" fill="url(#theme_real_estate_s_reference_demo_image_4_id)" class="img_reference_s_reference_demo_image_4"></rect>
            <rect x="278" y="1461" width="64" height="36" fill="url(#theme_real_estate_s_reference_demo_image_3_id)" class="img_reference_s_reference_demo_image_3"></rect>
            <rect x="198" y="1461" width="64" height="36" fill="url(#theme_real_estate_s_reference_demo_image_2_id)" class="img_reference_s_reference_demo_image_2"></rect>
            <rect x="118" y="1461" width="64" height="36" fill="url(#theme_real_estate_s_reference_demo_image_1_id)" class="img_reference_s_reference_demo_image_1"></rect>
            <path d="M468 1427H223V1429H468V1427Z" fill="#F6F6F6" fill-opacity="0.4" class="svgc_invert" filter="url(#filter_readability_theme_real_estate)"></path>
            <path d="M403 1433H288V1435H403V1433Z" fill="#F6F6F6" fill-opacity="0.4" class="svgc_invert" filter="url(#filter_readability_theme_real_estate)"></path>
            <text transform="translate(375 1411)" text-anchor="Middle" fill="#000000" font-size="25" font-family="Arial" font-weight="700"><tspan x="-22.471" y="0">Section Title</tspan></text>
        </g>
        <g class="s_numbers_showcase">
            <rect y="1538" width="700" height="284" fill="#FFFFFF"></rect>
            <g>
                <rect x="285" y="1570" width="168" height="110" fill="#7C6576"></rect>
                <path d="M367 1637H299V1641H367V1637Z" fill="#7C6576" fill-opacity="0.4" class="svgc_invert" filter="url(#filter_readability_theme_real_estate)"></path>
                <path d="M439 1653H299V1655H439V1653Z" fill="#7C6576" fill-opacity="0.4" class="svgc_invert" filter="url(#filter_readability_theme_real_estate)"></path>
                <path d="M331 1663H299V1665H331V1663Z" fill="#7C6576" fill-opacity="0.4" class="svgc_invert" filter="url(#filter_readability_theme_real_estate)"></path>
                <path d="M308.445 1606H305.152V1593.59C303.949 1594.71 302.531 1595.55 300.898 1596.09V1593.1C301.758 1592.82 302.691 1592.29 303.699 1591.5C304.707 1590.71 305.398 1589.8 305.773 1588.75H308.445V1606ZM324.5 1602.94V1606H312.957C313.082 1604.84 313.457 1603.75 314.082 1602.72C314.707 1601.68 315.941 1600.3 317.785 1598.59C319.27 1597.21 320.18 1596.27 320.516 1595.78C320.969 1595.1 321.195 1594.43 321.195 1593.77C321.195 1593.03 320.996 1592.47 320.598 1592.08C320.207 1591.68 319.664 1591.48 318.969 1591.48C318.281 1591.48 317.734 1591.69 317.328 1592.1C316.922 1592.52 316.688 1593.2 316.625 1594.16L313.344 1593.84C313.539 1592.02 314.152 1590.72 315.184 1589.93C316.215 1589.14 317.504 1588.75 319.051 1588.75C320.746 1588.75 322.078 1589.21 323.047 1590.12C324.016 1591.04 324.5 1592.17 324.5 1593.53C324.5 1594.3 324.359 1595.04 324.078 1595.75C323.805 1596.44 323.367 1597.17 322.766 1597.94C322.367 1598.45 321.648 1599.18 320.609 1600.13C319.57 1601.08 318.91 1601.71 318.629 1602.03C318.355 1602.34 318.133 1602.64 317.961 1602.94H324.5ZM327.324 1606V1588.82H330.617V1597.94L334.473 1593.55H338.527L334.273 1598.1L338.832 1606H335.281L332.152 1600.41L330.617 1602.02V1606H327.324Z" fill="#7C6576" class="svgc_invert" filter="url(#filter_readability_theme_real_estate)"></path>
            </g>
            <g>
                <rect x="285" y="1690" width="345" height="110" fill="#3AADAA"></rect>
                <path d="M367 1757H299V1761H367V1757Z" fill="#3AADAA" fill-opacity="0.4" class="svgc_invert" filter="url(#filter_readability_theme_real_estate)"></path>
                <path d="M439 1773H299V1775H439V1773Z" fill="#3AADAA" fill-opacity="0.4" class="svgc_invert" filter="url(#filter_readability_theme_real_estate)"></path>
                <path d="M331 1783H299V1785H331V1783Z" fill="#3AADAA" fill-opacity="0.4" class="svgc_invert" filter="url(#filter_readability_theme_real_estate)"></path>
                <path d="M302.844 1716.73C301.992 1716.37 301.371 1715.88 300.98 1715.25C300.598 1714.62 300.406 1713.93 300.406 1713.18C300.406 1711.9 300.852 1710.84 301.742 1710C302.641 1709.17 303.914 1708.75 305.562 1708.75C307.195 1708.75 308.461 1709.17 309.359 1710C310.266 1710.84 310.719 1711.9 310.719 1713.18C310.719 1713.98 310.512 1714.69 310.098 1715.31C309.684 1715.93 309.102 1716.4 308.352 1716.73C309.305 1717.11 310.027 1717.67 310.52 1718.41C311.02 1719.14 311.27 1719.99 311.27 1720.95C311.27 1722.54 310.762 1723.82 309.746 1724.82C308.738 1725.81 307.395 1726.3 305.715 1726.3C304.152 1726.3 302.852 1725.89 301.812 1725.07C300.586 1724.11 299.973 1722.78 299.973 1721.09C299.973 1720.16 300.203 1719.31 300.664 1718.54C301.125 1717.75 301.852 1717.15 302.844 1716.73ZM303.523 1713.41C303.523 1714.07 303.707 1714.58 304.074 1714.95C304.449 1715.32 304.945 1715.5 305.562 1715.5C306.188 1715.5 306.688 1715.32 307.062 1714.95C307.438 1714.57 307.625 1714.06 307.625 1713.4C307.625 1712.79 307.438 1712.29 307.062 1711.93C306.695 1711.55 306.207 1711.36 305.598 1711.36C304.965 1711.36 304.461 1711.55 304.086 1711.93C303.711 1712.3 303.523 1712.8 303.523 1713.41ZM303.219 1720.77C303.219 1721.68 303.449 1722.39 303.91 1722.89C304.379 1723.4 304.961 1723.66 305.656 1723.66C306.336 1723.66 306.898 1723.41 307.344 1722.93C307.789 1722.44 308.012 1721.73 308.012 1720.81C308.012 1720 307.785 1719.36 307.332 1718.88C306.879 1718.38 306.305 1718.14 305.609 1718.14C304.805 1718.14 304.203 1718.41 303.805 1718.97C303.414 1719.52 303.219 1720.12 303.219 1720.77ZM317.855 1723.53V1719.06H313.355V1715.98H317.855V1711.52H320.855V1715.98H325.367V1719.06H320.855V1723.53H317.855Z" fill="#3AADAA" class="svgc_invert" filter="url(#filter_readability_theme_real_estate)"></path>
            </g>
            <g>
                <rect x="462" y="1570" width="168" height="110" fill="#383E45"></rect>
                <path d="M544 1637H476V1641H544V1637Z" fill="#383E45" fill-opacity="0.4" class="svgc_invert" filter="url(#filter_readability_theme_real_estate)"></path>
                <path d="M616 1653H476V1655H616V1653Z" fill="#383E45" fill-opacity="0.4" class="svgc_invert" filter="url(#filter_readability_theme_real_estate)"></path>
                <path d="M508 1663H476V1665H508V1663Z" fill="#383E45" fill-opacity="0.4" class="svgc_invert" filter="url(#filter_readability_theme_real_estate)"></path>
                <path d="M483.477 1606V1602.54H476.445V1599.66L483.898 1588.75H486.664V1599.65H488.797V1602.54H486.664V1606H483.477ZM483.477 1599.65V1593.78L479.527 1599.65H483.477ZM490.426 1601.58L493.707 1601.24C493.801 1601.98 494.078 1602.57 494.539 1603.01C495 1603.44 495.531 1603.66 496.133 1603.66C496.82 1603.66 497.402 1603.38 497.879 1602.82C498.355 1602.26 498.594 1601.42 498.594 1600.29C498.594 1599.24 498.355 1598.45 497.879 1597.93C497.41 1597.39 496.797 1597.13 496.039 1597.13C495.094 1597.13 494.246 1597.55 493.496 1598.38L490.824 1598L492.512 1589.05H501.219V1592.14H495.008L494.492 1595.05C495.227 1594.69 495.977 1594.5 496.742 1594.5C498.203 1594.5 499.441 1595.04 500.457 1596.1C501.473 1597.16 501.98 1598.54 501.98 1600.23C501.98 1601.65 501.57 1602.91 500.75 1604.02C499.633 1605.54 498.082 1606.29 496.098 1606.29C494.512 1606.29 493.219 1605.87 492.219 1605.02C491.219 1604.16 490.621 1603.02 490.426 1601.58ZM503.762 1593.06C503.762 1591.52 504.098 1590.38 504.77 1589.64C505.449 1588.9 506.367 1588.53 507.523 1588.53C508.719 1588.53 509.652 1588.9 510.324 1589.64C511.004 1590.38 511.344 1591.52 511.344 1593.06C511.344 1594.6 511.004 1595.74 510.324 1596.48C509.652 1597.23 508.738 1597.6 507.582 1597.6C506.387 1597.6 505.449 1597.23 504.77 1596.5C504.098 1595.75 503.762 1594.61 503.762 1593.06ZM506.328 1593.04C506.328 1594.16 506.457 1594.91 506.715 1595.29C506.91 1595.57 507.18 1595.71 507.523 1595.71C507.875 1595.71 508.148 1595.57 508.344 1595.29C508.594 1594.91 508.719 1594.16 508.719 1593.04C508.719 1591.92 508.594 1591.18 508.344 1590.8C508.148 1590.51 507.875 1590.37 507.523 1590.37C507.18 1590.37 506.91 1590.51 506.715 1590.79C506.457 1591.17 506.328 1591.92 506.328 1593.04ZM510.031 1606.66H507.594L516.746 1588.53H519.113L510.031 1606.66ZM515.352 1602.14C515.352 1600.61 515.688 1599.46 516.359 1598.72C517.039 1597.98 517.965 1597.61 519.137 1597.61C520.316 1597.61 521.242 1597.98 521.914 1598.72C522.594 1599.46 522.934 1600.61 522.934 1602.14C522.934 1603.69 522.594 1604.84 521.914 1605.58C521.242 1606.32 520.328 1606.69 519.172 1606.69C517.977 1606.69 517.039 1606.32 516.359 1605.58C515.688 1604.84 515.352 1603.69 515.352 1602.14ZM517.918 1602.13C517.918 1603.25 518.047 1604 518.305 1604.37C518.5 1604.66 518.77 1604.8 519.113 1604.8C519.465 1604.8 519.734 1604.66 519.922 1604.38C520.18 1604 520.309 1603.25 520.309 1602.13C520.309 1601.02 520.184 1600.27 519.934 1599.88C519.738 1599.6 519.465 1599.46 519.113 1599.46C518.762 1599.46 518.492 1599.6 518.305 1599.88C518.047 1600.27 517.918 1601.02 517.918 1602.13Z" fill="#383E45" class="svgc_invert" filter="url(#filter_readability_theme_real_estate)"></path>
            </g>
            <path d="M213 1615H70V1617H213V1615Z" fill="#FFFFFF" fill-opacity="0.4" class="svgc_invert" filter="url(#filter_readability_theme_real_estate)"></path>
            <path d="M213 1625H70V1627H213V1625Z" fill="#FFFFFF" fill-opacity="0.4" class="svgc_invert" filter="url(#filter_readability_theme_real_estate)"></path>
            <path d="M175 1635H70V1637H175V1635Z" fill="#FFFFFF" fill-opacity="0.4" class="svgc_invert" filter="url(#filter_readability_theme_real_estate)"></path>
            <g>
                <rect x="70" y="1649" width="63" height="15" fill="#3AADAA"></rect>
            </g>
            <text transform="translate(92 1595)" text-anchor="Start" fill="#000000" font-size="25" font-family="Arial" font-weight="700"><tspan x="-22.471" y="0">Section Title</tspan></text>
        </g>
        <g class="s_quotes_carousel">
            <rect y="1822" width="700" height="200" fill="url(#theme_real_estate_s_quotes_carousel_demo_image_0_id)" class="img_reference_s_quotes_carousel_demo_image_0"></rect>
            <g>
                <rect x="649" y="1907" width="28" height="28" rx="4" fill="#D9D9D9"></rect>
                <path d="M659 1929L667 1921L659 1913" stroke="black" stroke-opacity="0.4" stroke-width="3"></path>
            </g>
            <g>
                <rect x="51" y="1936" width="28" height="28" rx="4" transform="rotate(-180 51 1936)" fill="#D9D9D9"></rect>
                <path d="M41 1914L33 1922L41 1930" stroke="black" stroke-opacity="0.4" stroke-width="3"></path>
            </g>
            <g>
                <rect x="165" y="1860" width="370" height="126" fill="#FFFFFF"></rect>
                <g>
                    <circle cx="350" cy="1950" r="8" fill="#FFFFFF" fill-opacity="0.6" class="svgc_invert" filter="url(#filter_readability_theme_real_estate)"></circle>
                    <rect x="323" y="1962" width="54" height="2" fill="#FFFFFF" fill-opacity="0.4" class="svgc_invert" filter="url(#filter_readability_theme_real_estate)"></rect>
                    <rect x="332" y="1970" width="35" height="2" fill="#FFFFFF" fill-opacity="0.4" class="svgc_invert" filter="url(#filter_readability_theme_real_estate)"></rect>
                </g>
                <g>
                    <rect x="213" y="1888" width="275" height="2" fill="#FFFFFF" fill-opacity="0.4" class="svgc_invert" filter="url(#filter_readability_theme_real_estate)"></rect>
                    <rect x="246" y="1898" width="208.668" height="2" fill="#FFFFFF" fill-opacity="0.4" class="svgc_invert" filter="url(#filter_readability_theme_real_estate)"></rect>
                    <rect x="226" y="1908" width="248.744" height="2" fill="#FFFFFF" fill-opacity="0.4" class="svgc_invert" filter="url(#filter_readability_theme_real_estate)"></rect>
                    <rect x="265" y="1918" width="171.357" height="2" fill="#FFFFFF" fill-opacity="0.4" class="svgc_invert" filter="url(#filter_readability_theme_real_estate)"></rect>
                </g>
                <rect x="341" y="1850" width="19" height="19" fill="#FFFFFF" class="svgc_invert" filter="url(#filter_readability_theme_real_estate)"></rect>
            </g>
        </g>
        <g class="s_call_to_action">
            <path d="M700 2022H0V2127H700V2022Z" fill="#7C6576"></path>
            <rect x="524" y="2055" width="96" height="30" fill="#3AADAA"></rect>
            <text transform="translate(597 2074)" text-anchor="Middle" fill="#FFFFFF" font-size="12" font-family="Arial" font-weight="700"><tspan x="-22.471" y="0">Discover</tspan></text>
            <rect x="70" y="2091" width="248.744" height="2" fill="#FFFFFF" fill-opacity="0.4" class="svgc_invert" filter="url(#filter_readability_theme_real_estate)"></rect>
            <text transform="translate(92 2077)" text-anchor="Start" fill="#FFFFFF" font-size="25" font-family="Arial" font-weight="700"><tspan x="-22.471" y="0">Section Title</tspan></text>
        </g>
        <g class="svgc_footer">
            <path d="M700 2127H0V2227H700V2127Z" fill="#FOOTER_COLOR" class="svgc_footer_bg"></path>
            <path d="M115 2180H70V2182H115V2180Z" fill="#FOOTER_COLOR" class="svgc_invert" filter="url(#filter_readability_theme_real_estate)"></path>
            <path d="M108 2174H70V2176H108V2174Z" fill="#FOOTER_COLOR" class="svgc_invert" filter="url(#filter_readability_theme_real_estate)"></path>
            <path d="M525 2150H456V2154H525V2150Z" fill="#FOOTER_COLOR" class="svgc_invert" filter="url(#filter_readability_theme_real_estate)"></path>
            <path d="M377 2162H223V2164H377V2162Z" fill="#FOOTER_COLOR" fill-opacity="0.4" class="svgc_invert" filter="url(#filter_readability_theme_real_estate)"></path>
            <path d="M356 2168H223V2170H356V2168Z" fill="#FOOTER_COLOR" fill-opacity="0.4" class="svgc_invert" filter="url(#filter_readability_theme_real_estate)"></path>
            <path d="M377 2186H223V2188H377V2186Z" fill="#FOOTER_COLOR" fill-opacity="0.4" class="svgc_invert" filter="url(#filter_readability_theme_real_estate)"></path>
            <path d="M356 2192H223V2194H356V2192Z" fill="#FOOTER_COLOR" fill-opacity="0.4" class="svgc_invert" filter="url(#filter_readability_theme_real_estate)"></path>
            <path d="M592 2162H456V2164H592V2162Z" fill="#FOOTER_COLOR" fill-opacity="0.4" class="svgc_invert" filter="url(#filter_readability_theme_real_estate)"></path>
            <path d="M573 2168H456V2170H573V2168Z" fill="#FOOTER_COLOR" fill-opacity="0.4" class="svgc_invert" filter="url(#filter_readability_theme_real_estate)"></path>
            <path d="M108 2162H70V2164H108V2162Z" fill="#FOOTER_COLOR" class="svgc_invert" filter="url(#filter_readability_theme_real_estate)"></path>
            <path d="M115 2168H70V2170H115V2168Z" fill="#FOOTER_COLOR" class="svgc_invert" filter="url(#filter_readability_theme_real_estate)"></path>
            <path d="M500 2194C503.866 2194 507 2190.87 507 2187C507 2183.13 503.866 2180 500 2180C496.134 2180 493 2183.13 493 2187C493 2190.87 496.134 2194 500 2194Z" fill="#FOOTER_COLOR" class="svgc_invert" filter="url(#filter_readability_theme_real_estate)"></path>
            <path d="M481 2194C484.866 2194 488 2190.87 488 2187C488 2183.13 484.866 2180 481 2180C477.134 2180 474 2183.13 474 2187C474 2190.87 477.134 2194 481 2194Z" fill="#FOOTER_COLOR" class="svgc_invert" filter="url(#filter_readability_theme_real_estate)"></path>
            <path d="M462 2194C465.866 2194 469 2190.87 469 2187C469 2183.13 465.866 2180 462 2180C458.134 2180 455 2183.13 455 2187C455 2190.87 458.134 2194 462 2194Z" fill="#FOOTER_COLOR" class="svgc_invert" filter="url(#filter_readability_theme_real_estate)"></path>
            <path d="M139 2150H70V2154H139V2150Z" fill="#FOOTER_COLOR" class="svgc_invert" filter="url(#filter_readability_theme_real_estate)"></path>
            <path d="M292 2150H223V2154H292V2150Z" fill="#FOOTER_COLOR" class="svgc_invert" filter="url(#filter_readability_theme_real_estate)"></path>
        </g>
    </g>
    <defs>
        <clipPath id="clip0_204_11">
            <rect width="700" height="2227" fill="#FFFFFF"></rect>
        </clipPath>
        <clipPath id="clip1_204_11">
            <rect width="357" height="130" fill="#FFFFFF" transform="translate(1 1225)"></rect>
        </clipPath>
    </defs>
</svg>
