<svg width="700" height="1850" viewBox="0 0 700 1850" fill="none" xmlns="http://www.w3.org/2000/svg">
    <defs>
        <pattern width="1" height="1" id="theme_real_estate_s_banner_default_image_id" patternunits="objectBoundingBox">
            <image width="700" height="326" preserveAspectRatio="xMidYMid slice" href="#s_banner_default_image_url"></image>
        </pattern>
        <pattern width="1" height="1" id="theme_real_estate_s_text_image_default_image_id" patternunits="objectBoundingBox">
            <image width="238" height="176" preserveAspectRatio="xMidYMid slice" href="#s_text_image_default_image_url"></image>
        </pattern>
        <pattern width="1" height="1" id="theme_real_estate_s_image_text_default_image_id" patternunits="objectBoundingBox">
            <image width="238" height="176" preserveAspectRatio="xMidYMid slice" href="#s_image_text_default_image_url"></image>
        </pattern>
        <pattern width="1" height="1" id="theme_real_estate_s_three_columns_default_image_1_id" patternunits="objectBoundingBox">
            <image width="168" height="90" preserveAspectRatio="xMidYMid slice" href="#s_three_columns_default_image_1_url"></image>
        </pattern>
        <pattern width="1" height="1" id="theme_real_estate_s_three_columns_default_image_2_id" patternunits="objectBoundingBox">
            <image width="168" height="90" preserveAspectRatio="xMidYMid slice" href="#s_three_columns_default_image_2_url"></image>
        </pattern>
        <pattern width="1" height="1" id="theme_real_estate_s_three_columns_default_image_3_id" patternunits="objectBoundingBox">
            <image width="168" height="90" preserveAspectRatio="xMidYMid slice" href="#s_three_columns_default_image_3_url"></image>
        </pattern>
        <pattern width="1" height="1" id="theme_real_estate_s_masonry_block_default_image_1_id" patternunits="objectBoundingBox">
            <image width="282" height="240" preserveAspectRatio="xMidYMid slice" href="#s_masonry_block_default_image_1_url"></image>
        </pattern>
        <pattern width="1" height="1" id="theme_real_estate_s_quotes_carousel_demo_image_1_id" patternunits="objectBoundingBox">
            <image width="770" height="141" preserveAspectRatio="xMidYMid slice" href="#s_quotes_carousel_demo_image_1_url"></image>
        </pattern>
        <pattern id="theme_real_estate_s_quotes_carousel_demo_image_3_id" preserveAspectRatio="xMidYMid slice" width="100%" height="100%" viewBox="0 0 128 128">
            <image width="128" height="128" href="/web/image/website.s_quotes_carousel_demo_image_3"/>
        </pattern>
        <linearGradient id="theme_real_estate_paint0_linear" x1="700" y1="42" x2="-2.39696e-06" y2="364" gradientUnits="userSpaceOnUse">
            <stop stop-color="#7C6576" stop-opacity="0"/>
            <stop offset="1" stop-color="#7C6576" stop-opacity="0.66"/>
        </linearGradient>
        <filter id="filter_readability_real_estate">
            <feColorMatrix in="SourceGraphic" type="saturate" values="0"/>
            <feComponentTransfer>
                <feFuncR type="table" tableValues="1 0"/>
                <feFuncG type="table" tableValues="1 0"/>
                <feFuncB type="table" tableValues="1 0"/>
            </feComponentTransfer>
            <feComponentTransfer>
                <feFuncR type="linear" slope="10000" intercept="-4999.5"/>
                <feFuncG type="linear" slope="10000" intercept="-4999.5"/>
                <feFuncB type="linear" slope="10000" intercept="-4999.5"/>
            </feComponentTransfer>
        </filter>
    </defs>
    <g fill="none" fill-rule="evenodd" class="theme_real_estate">
        <rect width="700" height="1850" fill="#FFFFFF"/>
        <g class="svgc_menu">
            <!-- Menu Background -->
            <rect class="svgc_menu_bg" fill="#MENU_COLOR" width="700" height="38"></rect>
            <!-- Logo -->
            <path d="M72.0813 13.236V22.994H76.7393L76.4673 25H69.5823V13.236H72.0813ZM82.1423 12.964C83.2189 12.964 84.1483 13.2077 84.9303 13.695C85.7123 14.171 86.3129 14.868 86.7323 15.786C87.1516 16.704 87.3613 17.8147 87.3613 19.118C87.3613 20.3987 87.1516 21.5037 86.7323 22.433C86.3129 23.351 85.7123 24.0537 84.9303 24.541C84.1483 25.0283 83.2189 25.272 82.1423 25.272C81.0656 25.272 80.1306 25.034 79.3373 24.558C78.5553 24.0707 77.9546 23.368 77.5353 22.45C77.1159 21.5207 76.9063 20.41 76.9063 19.118C76.9063 17.8487 77.1159 16.755 77.5353 15.837C77.9659 14.9077 78.5723 14.1993 79.3543 13.712C80.1476 13.2133 81.0769 12.964 82.1423 12.964ZM82.1423 14.834C81.2809 14.834 80.6293 15.174 80.1873 15.854C79.7566 16.534 79.5413 17.622 79.5413 19.118C79.5413 20.614 79.7623 21.702 80.2043 22.382C80.6463 23.062 81.2923 23.402 82.1423 23.402C83.0036 23.402 83.6496 23.0677 84.0803 22.399C84.5109 21.719 84.7263 20.6253 84.7263 19.118C84.7263 17.6107 84.5109 16.5227 84.0803 15.854C83.6496 15.174 83.0036 14.834 82.1423 14.834ZM94.1682 12.964C94.9615 12.964 95.6642 13.0887 96.2762 13.338C96.8995 13.576 97.4775 13.9217 98.0102 14.375L96.7012 15.735C96.2818 15.4177 95.8852 15.1853 95.5112 15.038C95.1485 14.8907 94.7348 14.817 94.2702 14.817C93.3748 14.817 92.6495 15.174 92.0942 15.888C91.5502 16.5907 91.2782 17.6673 91.2782 19.118C91.2782 20.648 91.4878 21.7473 91.9072 22.416C92.3378 23.0733 93.0008 23.402 93.8962 23.402C94.5422 23.402 95.1258 23.2603 95.6472 22.977V20.104H93.9982L93.7432 18.285H98.0782V24.082C97.4662 24.456 96.8032 24.7507 96.0892 24.966C95.3865 25.17 94.6725 25.272 93.9472 25.272C92.2132 25.272 90.8985 24.7507 90.0032 23.708C89.1078 22.6653 88.6602 21.1297 88.6602 19.101C88.6602 17.8203 88.9038 16.7153 89.3912 15.786C89.8785 14.8567 90.5358 14.154 91.3632 13.678C92.2018 13.202 93.1368 12.964 94.1682 12.964ZM104.787 12.964C105.863 12.964 106.793 13.2077 107.575 13.695C108.357 14.171 108.957 14.868 109.377 15.786C109.796 16.704 110.006 17.8147 110.006 19.118C110.006 20.3987 109.796 21.5037 109.377 22.433C108.957 23.351 108.357 24.0537 107.575 24.541C106.793 25.0283 105.863 25.272 104.787 25.272C103.71 25.272 102.775 25.034 101.982 24.558C101.2 24.0707 100.599 23.368 100.18 22.45C99.7605 21.5207 99.5508 20.41 99.5508 19.118C99.5508 17.8487 99.7605 16.755 100.18 15.837C100.61 14.9077 101.217 14.1993 101.999 13.712C102.792 13.2133 103.721 12.964 104.787 12.964ZM104.787 14.834C103.925 14.834 103.274 15.174 102.832 15.854C102.401 16.534 102.186 17.622 102.186 19.118C102.186 20.614 102.407 21.702 102.849 22.382C103.291 23.062 103.937 23.402 104.787 23.402C105.648 23.402 106.294 23.0677 106.725 22.399C107.155 21.719 107.371 20.6253 107.371 19.118C107.371 17.6107 107.155 16.5227 106.725 15.854C106.294 15.174 105.648 14.834 104.787 14.834Z" opacity="1" fill="#MENU_COLOR" class="svgc_text" filter="url(#filter_readability_real_estate)"/>
            <!-- Menu Links -->
            <g opacity=".5">
                <rect x="138" y="15" width="40" height="10" fill="#MENU_COLOR" class="svgc_text" filter="url(#filter_readability_real_estate)"/>
                <rect x="190" y="15" width="40" height="10" fill="#MENU_COLOR" class="svgc_text" filter="url(#filter_readability_real_estate)"/>
                <rect x="242" y="15" width="40" height="10" fill="#MENU_COLOR" class="svgc_text" filter="url(#filter_readability_real_estate)"/>
                <rect x="294" y="15" width="40" height="10" fill="#MENU_COLOR" class="svgc_text" filter="url(#filter_readability_real_estate)"/>
            </g>
            <!-- Menu Button -->
            <rect x="592" y="14" width="40" height="12" opacity="1" fill="#MENU_COLOR" class="svgc_text" filter="url(#filter_readability_real_estate)"/>
        </g>
        <g class="s_cover">
            <!-- Background Image -->
            <rect y="38" width="700" height="326" fill="url(#theme_real_estate_s_banner_default_image_id)" class="img_reference_s_banner_default_image"></rect>
            <!-- Filter -->
            <rect  y="38" width="700" height="326" fill="#000" opacity=".343"></rect>
            <!-- Shapes -->
            <rect  y="38" width="700" height="326" fill="url(#theme_real_estate_paint0_linear)"></rect>
            <!-- Title -->
            <text transform="translate(70 140)" fill="#FFFFFF" font-size="32" font-family="Lovtony" font-weight="bold">
                <tspan x="0" y="0">A Welcoming</tspan>
                <tspan x="0" y="37">Message</tspan>
            </text>
            <!-- Title -->
            <rect x="68" y="205" width="226" height="7" fill="#FFFFFD" fill-opacity="0.66"/>
            <rect x="68" y="222" width="181" height="7" fill="#FFFFFD" fill-opacity="0.66"/>
            <!-- Button -->
            <rect width="89" height="28" transform="translate(68 252)" fill="#3AADAA"/>
        </g>
        <g class="s_text">
            <!-- Background -->
            <rect y="364" width="700" height="102" fill="#3AADAA"/>
            <!-- Text -->
            <rect x="68" y="403" width="560" height="7" fill="#FFF" fill-opacity="0.66"/>
            <rect x="68" y="420" width="533" height="7" fill="#FFF" fill-opacity="0.66"/>
        </g>
        <g class="s_text_image">
            <!-- Background -->
            <rect y="466" width="700" height="212" fill="#FFFFFF"/>
            <!-- Text -->
            <rect x="68" y="548" width="254" height="5" fill="#000" fill-opacity="0.33"/>
            <rect x="68" y="558" width="233.563" height="5" fill="#000" fill-opacity="0.33"/>
            <rect x="68" y="568" width="175.172" height="5" fill="#000" fill-opacity="0.33"/>
            <rect x="68" y="578" width="248.161" height="5" fill="#000" fill-opacity="0.33"/>
            <rect x="68" y="588" width="191.23" height="5" fill="#000" fill-opacity="0.33"/>
            <!-- Image -->
            <path d="M604.945 670L418.055 649.213L395 525.129L628 505L604.945 670Z" fill="#F6F6F6"/>
            <path d="M592.452 659L401.548 636.827L378 504.48L616 483L592.452 659Z" fill="url(#theme_real_estate_s_text_image_default_image_id)" class="img_reference_s_text_image_default_image"/>
            <!-- Button -->
            <rect width="66" height="20" transform="translate(68 612)" fill="#3AADAA"/>
            <!-- Title -->
            <text transform="translate(68 531)" fill="#000000" font-size="18" font-family="Lovtony" font-weight="bold">A Section Title</text>
        </g>
        <g class="s_image_text">
            <!-- Background -->
            <rect y="678" width="700" height="212" fill="#FFFFFF"/>
            <!-- Image -->
            <path d="M89.0547 872L275.945 851.213L299 727.129L66 707L89.0547 872Z" fill="#F6F6F6"/>
            <path d="M102.449 860L292.551 837.953L316 706.358L79 685L102.449 860Z"  fill="url(#theme_real_estate_s_image_text_default_image_id)" class="img_reference_s_image_text_default_image"/>
            <!-- Text -->
            <rect x="350" y="758" width="254" height="5" fill="#000" fill-opacity="0.33"/>
            <rect x="350" y="768" width="233.563" height="5" fill="#000" fill-opacity="0.33"/>
            <rect x="350" y="778" width="175.172" height="5" fill="#000" fill-opacity="0.33"/>
            <rect x="350" y="788" width="248.161" height="5" fill="#000" fill-opacity="0.33"/>
            <rect x="350" y="798" width="191.23" height="5" fill="#000" fill-opacity="0.33"/>
            <!-- Button -->
            <rect width="66" height="20" transform="translate(350 822)" fill="#3AADAA"/>
            <!-- Title -->
            <text transform="translate(350 741)" fill="#000000" font-size="18" font-family="Lovtony" font-weight="bold">A Section Title</text>
        </g>
        <g class="s_title">
            <rect y="890" width="700" height="81" fill="#7C6576"/>
            <text transform="translate(350 948)" text-anchor="middle" fill="#FFFFFF" font-size="26" font-family="Lovtony" font-weight="bold">A Section Title</text>
        </g>
        <g class="s_three_columns">
            <!-- Column 1 -->
            <!-- Background -->
            <rect y="970" width="700" height="265" fill="#7C6576"/>
            <!-- Card Image -->
            <rect x="68" y="998" width="168" height="90" fill="url(#theme_real_estate_s_three_columns_default_image_1_id)" class="img_reference_s_three_columns_default_image_1"></rect>
            <!-- Card -->
            <rect x="68" y="1086" width="168" height="122" fill="#FFFFFD"/>
            <!-- Card - Button -->
            <rect width="66" height="20" transform="translate(78 1179)" fill="#3AADAA"/>
            <!-- Card - Text -->
            <rect x="78" y="1095" width="42" height="5" fill="#000" fill-opacity="0.33"/>
            <rect x="78" y="1133" width="147" height="5" fill="#000" fill-opacity="0.33"/>
            <rect x="78" y="1143" width="111.674" height="5" fill="#000" fill-opacity="0.33"/>
            <rect x="78" y="1153" width="133.326" height="5" fill="#000" fill-opacity="0.33"/>
            <rect x="78" y="1163" width="100.279" height="5" fill="#000" fill-opacity="0.33"/>
            <!-- Card - Title -->
            <text transform="translate(78 1122)" fill="#000000" font-size="14" font-family="Lovtony" font-weight="bold">Entry Title</text>
            <!-- Column 2 -->
            <!-- Card - Image -->
            <rect x="264" y="998" width="168" height="90" fill="url(#theme_real_estate_s_three_columns_default_image_2_id)" class="img_reference_s_three_columns_default_image_2"></rect>
            <!-- Background -->
            <rect x="264" y="1088" width="168" height="122" fill="#FFFFFD"/>
            <!-- Card - Button -->
            <rect width="66" height="20" transform="translate(274 1181)" fill="#3AADAA"/>
            <!-- Card - Text -->
            <rect x="274" y="1097" width="42" height="5" fill="#000" fill-opacity="0.33"/>
            <rect x="274" y="1135" width="147" height="5" fill="#000" fill-opacity="0.33"/>
            <rect x="274" y="1145" width="111.674" height="5" fill="#000" fill-opacity="0.33"/>
            <rect x="274" y="1155" width="133.326" height="5" fill="#000" fill-opacity="0.33"/>
            <rect x="274" y="1165" width="100.279" height="5" fill="#000" fill-opacity="0.33"/>
            <!-- Card - Title -->
            <text transform="translate(274 1122)" fill="#000000" font-size="14" font-family="Lovtony" font-weight="bold">Entry Title</text>
            <!-- Column 3 -->
            <!-- Card - Image -->
            <rect x="460" y="998" width="168" height="90" fill="url(#theme_real_estate_s_three_columns_default_image_3_id)" class="img_reference_s_three_columns_default_image_3"></rect>
            <!-- Card - Background -->
            <rect x="460" y="1088" width="168" height="122" fill="#FFFFFD"/>
            <!-- Card - Button -->
            <rect width="66" height="20" transform="translate(470 1181)" fill="#3AADAA"/>
            <!-- Card - Text -->
            <rect x="470" y="1097" width="42" height="5" fill="#000" fill-opacity="0.33"/>
            <rect x="470" y="1135" width="147" height="5" fill="#000" fill-opacity="0.33"/>
            <rect x="470" y="1145" width="111.674" height="5" fill="#000" fill-opacity="0.33"/>
            <rect x="470" y="1155" width="133.326" height="5" fill="#000" fill-opacity="0.33" />
            <rect x="470" y="1165" width="100.279" height="5" fill="#000" fill-opacity="0.33"/>
            <text transform="translate(470 1122)" fill="#000000" font-size="14" font-family="Lovtony" font-weight="bold">Entry Title</text>
        </g>
        <!-- Start Title -->
        <g class="s_title">
            <rect y="1235" width="700" height="81" fill="#FFFFFF"/>
            <text transform="translate(350 1293)" text-anchor="middle" fill="#000000" font-size="27" font-family="Lovtony" font-weight="bold">A Section Title</text>
        </g>
        <!-- End Title -->
        <!-- Start Masonry -->
        <g class="s_masonry_block">
            <!-- Background -->
            <rect y="1316" width="700" height="240" fill="#FFFFFF"/>
            <!-- Image -->
            <rect x="68" y="1316" width="282" height="240" fill="url(#theme_real_estate_s_masonry_block_default_image_1_id)" class="img_reference_s_masonry_block_default_image_1"></rect>
            <!-- Box 1-->
            <!-- Background -->
            <rect x="350" y="1316" width="139" height="120" fill="#FFFFFF"/>
            <!-- Icon -->
            <circle cx="374" cy="1341" r="10" fill="#000" fill-opacity="0.33"/>
            <!-- Title -->
            <text transform="translate(365 1370)" fill="#000000" font-size="14" font-family="Lovtony" font-weight="bold">Entry Title</text>
            <!-- Text -->
            <rect x="364" y="1380" width="94" height="5" fill="#000" fill-opacity="0.33"/>
            <rect x="364" y="1390" width="71.4109" height="5" fill="#000" fill-opacity="0.33"/>
            <rect x="364" y="1400" width="85.2558" height="5" fill="#000" fill-opacity="0.33"/>
            <rect x="364" y="1410" width="64.124" height="5" fill="#000" fill-opacity="0.33"/>
            <!-- Box 2-->
            <!-- Background -->
            <rect x="489" y="1316" width="139" height="120" fill="#FFFFFF"/>
            <!-- Icon -->
            <circle cx="513" cy="1341" r="10" fill="#000" fill-opacity="0.33"/>
            <!-- Title -->
            <text transform="translate(503 1370)" fill="#000000" font-size="14" font-family="Lovtony" font-weight="bold">Entry Title</text>
            <!-- Text -->
            <rect x="503" y="1380" width="94" height="5" fill="#000" fill-opacity="0.33"/>
            <rect x="503" y="1390" width="71.4109" height="5" fill="#000" fill-opacity="0.33"/>
            <rect x="503" y="1400" width="85.2558" height="5" fill="#000" fill-opacity="0.33"/>
            <rect x="503" y="1410" width="64.124" height="5" fill="#000" fill-opacity="0.33"/>
            <!-- Box 2-->
            <!-- Background -->
            <rect x="350" y="1436" width="139" height="120" fill="#FFFFFF"/>
            <!-- Icon -->
            <circle cx="374" cy="1461" r="10" fill="#000" fill-opacity="0.33"/>
            <!-- Title -->
            <text transform="translate(365 1490)" fill="#000000" font-size="14" font-family="Lovtony" font-weight="bold">Entry Title</text>
            <!-- Text -->
            <rect x="364" y="1500" width="94" height="5" fill="#000" fill-opacity="0.33"/>
            <rect x="364" y="1510" width="71.4109" height="5" fill="#000" fill-opacity="0.33"/>
            <rect x="364" y="1520" width="85.2558" height="5" fill="#000" fill-opacity="0.33"/>
            <rect x="364" y="1530" width="64.124" height="5" fill="#000" fill-opacity="0.33"/>
            <!-- Box 2-->
            <!-- Background -->
            <rect x="489" y="1436" width="139" height="120" fill="#FFFFFF"/>
            <!-- Icon -->
            <circle cx="513" cy="1461" r="10" fill="#000" fill-opacity="0.33"/>
            <!-- Title -->
            <text transform="translate(503 1490)" fill="#000000" font-size="14" font-family="Lovtony" font-weight="bold">Entry Title</text>
            <!-- Text -->
            <rect x="503" y="1500" width="94" height="5" fill="#000" fill-opacity="0.33"/>
            <rect x="503" y="1510" width="71.4109" height="5" fill="#000" fill-opacity="0.33"/>
            <rect x="503" y="1520" width="85.2558" height="5" fill="#000" fill-opacity="0.33"/>
            <rect x="503" y="1530" width="64.124" height="5" fill="#000" fill-opacity="0.33"/>
        </g>
        <g class="s_numbers">
            <!-- Item 1 -->
            <path fill="#000" d="M121.669 1609H119.693V1601.38L117.335 1602.12V1600.51L121.457 1599.03H121.669V1609ZM130.754 1605.25H131.882V1606.85H130.754V1609H128.778V1606.85H124.697L124.608 1605.6L128.758 1599.05H130.754V1605.25ZM126.577 1605.25H128.778V1601.74L128.648 1601.97L126.577 1605.25ZM133.543 1611.5L132.511 1610.96L132.757 1610.51C133.062 1609.95 133.219 1609.4 133.229 1608.85V1607.32H134.896L134.89 1608.69C134.885 1609.19 134.757 1609.7 134.507 1610.22C134.256 1610.73 133.935 1611.16 133.543 1611.5ZM143.065 1604.88C143.065 1606.26 142.781 1607.31 142.211 1608.04C141.641 1608.77 140.807 1609.14 139.709 1609.14C138.624 1609.14 137.795 1608.78 137.221 1608.06C136.646 1607.35 136.353 1606.32 136.339 1604.99V1603.16C136.339 1601.77 136.626 1600.71 137.2 1599.99C137.779 1599.27 138.611 1598.91 139.695 1598.91C140.78 1598.91 141.609 1599.27 142.184 1599.98C142.758 1600.69 143.052 1601.72 143.065 1603.05V1604.88ZM141.09 1602.88C141.09 1602.05 140.976 1601.45 140.748 1601.08C140.525 1600.7 140.174 1600.51 139.695 1600.51C139.23 1600.51 138.886 1600.69 138.663 1601.05C138.444 1601.41 138.328 1601.96 138.314 1602.72V1605.14C138.314 1605.96 138.424 1606.56 138.643 1606.96C138.866 1607.35 139.221 1607.54 139.709 1607.54C140.192 1607.54 140.541 1607.35 140.755 1606.98C140.969 1606.6 141.081 1606.02 141.09 1605.24V1602.88ZM151.104 1604.88C151.104 1606.26 150.82 1607.31 150.25 1608.04C149.68 1608.77 148.846 1609.14 147.748 1609.14C146.663 1609.14 145.834 1608.78 145.26 1608.06C144.686 1607.35 144.392 1606.32 144.378 1604.99V1603.16C144.378 1601.77 144.665 1600.71 145.239 1599.99C145.818 1599.27 146.65 1598.91 147.734 1598.91C148.819 1598.91 149.648 1599.27 150.223 1599.98C150.797 1600.69 151.091 1601.72 151.104 1603.05V1604.88ZM149.129 1602.88C149.129 1602.05 149.015 1601.45 148.787 1601.08C148.564 1600.7 148.213 1600.51 147.734 1600.51C147.27 1600.51 146.925 1600.69 146.702 1601.05C146.483 1601.41 146.367 1601.96 146.354 1602.72V1605.14C146.354 1605.96 146.463 1606.56 146.682 1606.96C146.905 1607.35 147.26 1607.54 147.748 1607.54C148.231 1607.54 148.58 1607.35 148.794 1606.98C149.008 1606.6 149.12 1606.02 149.129 1605.24V1602.88ZM159.144 1604.88C159.144 1606.26 158.859 1607.31 158.289 1608.04C157.719 1608.77 156.885 1609.14 155.787 1609.14C154.702 1609.14 153.873 1608.78 153.299 1608.06C152.725 1607.35 152.431 1606.32 152.417 1604.99V1603.16C152.417 1601.77 152.704 1600.71 153.278 1599.99C153.857 1599.27 154.689 1598.91 155.773 1598.91C156.858 1598.91 157.688 1599.27 158.262 1599.98C158.836 1600.69 159.13 1601.72 159.144 1603.05V1604.88ZM157.168 1602.88C157.168 1602.05 157.054 1601.45 156.826 1601.08C156.603 1600.7 156.252 1600.51 155.773 1600.51C155.309 1600.51 154.965 1600.69 154.741 1601.05C154.522 1601.41 154.406 1601.96 154.393 1602.72V1605.14C154.393 1605.96 154.502 1606.56 154.721 1606.96C154.944 1607.35 155.299 1607.54 155.787 1607.54C156.27 1607.54 156.619 1607.35 156.833 1606.98C157.047 1606.6 157.159 1606.02 157.168 1605.24V1602.88Z"/>
            <rect x="98" y="1617" width="80" height="5" fill="#000" fill-opacity="0.33"/>
            <!-- Item 2 -->
            <path fill="#000" d="M272.091 1605.02C271.576 1605.53 270.974 1605.78 270.286 1605.78C269.407 1605.78 268.702 1605.48 268.174 1604.88C267.645 1604.27 267.381 1603.46 267.381 1602.43C267.381 1601.78 267.522 1601.18 267.805 1600.64C268.092 1600.09 268.491 1599.67 269.001 1599.37C269.511 1599.06 270.086 1598.91 270.724 1598.91C271.38 1598.91 271.963 1599.07 272.474 1599.4C272.984 1599.73 273.381 1600.2 273.663 1600.82C273.946 1601.43 274.089 1602.14 274.094 1602.93V1603.66C274.094 1605.32 273.681 1606.62 272.856 1607.57C272.032 1608.52 270.863 1609.03 269.35 1609.09L268.864 1609.1V1607.45L269.302 1607.44C271.02 1607.36 271.95 1606.56 272.091 1605.02ZM270.771 1604.27C271.09 1604.27 271.364 1604.19 271.592 1604.02C271.824 1603.86 272 1603.66 272.118 1603.43V1602.62C272.118 1601.95 271.991 1601.43 271.735 1601.06C271.48 1600.69 271.138 1600.5 270.71 1600.5C270.313 1600.5 269.988 1600.69 269.732 1601.05C269.477 1601.41 269.35 1601.86 269.35 1602.41C269.35 1602.95 269.473 1603.4 269.719 1603.75C269.969 1604.1 270.32 1604.27 270.771 1604.27ZM282.276 1600.15L278.428 1609H276.343L280.198 1600.65H275.249V1599.05H282.276V1600.15ZM283.521 1600.96C283.521 1600.35 283.719 1599.86 284.115 1599.48C284.512 1599.09 285.031 1598.9 285.674 1598.9C286.326 1598.9 286.85 1599.09 287.246 1599.47C287.643 1599.84 287.841 1600.35 287.841 1601V1601.49C287.841 1602.1 287.643 1602.6 287.246 1602.97C286.85 1603.34 286.33 1603.53 285.688 1603.53C285.04 1603.53 284.516 1603.34 284.115 1602.97C283.719 1602.59 283.521 1602.08 283.521 1601.45V1600.96ZM284.833 1601.49C284.833 1601.76 284.91 1601.98 285.065 1602.15C285.225 1602.31 285.432 1602.4 285.688 1602.4C285.943 1602.4 286.146 1602.31 286.296 1602.14C286.446 1601.97 286.521 1601.75 286.521 1601.47V1600.96C286.521 1600.69 286.446 1600.47 286.296 1600.3C286.146 1600.13 285.938 1600.04 285.674 1600.04C285.423 1600.04 285.22 1600.13 285.065 1600.3C284.91 1600.46 284.833 1600.69 284.833 1600.99V1601.49ZM288.278 1606.56C288.278 1605.94 288.479 1605.45 288.88 1605.08C289.281 1604.7 289.8 1604.51 290.438 1604.51C291.086 1604.51 291.607 1604.7 292.004 1605.07C292.405 1605.44 292.605 1605.95 292.605 1606.6V1607.09C292.605 1607.7 292.41 1608.2 292.018 1608.58C291.626 1608.95 291.104 1609.14 290.452 1609.14C289.796 1609.14 289.27 1608.95 288.873 1608.57C288.477 1608.19 288.278 1607.69 288.278 1607.07V1606.56ZM289.591 1607.09C289.591 1607.34 289.673 1607.56 289.837 1607.74C290.001 1607.91 290.206 1608 290.452 1608C291.008 1608 291.286 1607.69 291.286 1607.08V1606.56C291.286 1606.29 291.209 1606.07 291.054 1605.9C290.899 1605.73 290.694 1605.65 290.438 1605.65C290.183 1605.65 289.978 1605.73 289.823 1605.9C289.668 1606.07 289.591 1606.29 289.591 1606.58V1607.09ZM286.077 1608.25L285.113 1607.74L289.974 1599.96L290.938 1600.48L286.077 1608.25Z"/>
            <rect x="239" y="1617" width="80" height="5" fill="#000" fill-opacity="0.33"/>
            <!-- Item 3 -->
            <path fill="#000" d="M413.417 1609H411.441V1601.38L409.083 1602.12V1600.51L413.205 1599.03H413.417V1609ZM422.502 1605.25H423.63V1606.85H422.502V1609H420.526V1606.85H416.445L416.356 1605.6L420.506 1599.05H422.502V1605.25ZM418.325 1605.25H420.526V1601.74L420.396 1601.97L418.325 1605.25ZM431.519 1609H424.696V1607.65L427.916 1604.21C428.358 1603.73 428.684 1603.31 428.894 1602.95C429.108 1602.59 429.215 1602.25 429.215 1601.92C429.215 1601.48 429.103 1601.14 428.88 1600.89C428.657 1600.63 428.338 1600.5 427.923 1600.5C427.476 1600.5 427.123 1600.66 426.863 1600.97C426.608 1601.27 426.48 1601.68 426.48 1602.18H424.498C424.498 1601.57 424.642 1601.02 424.929 1600.52C425.22 1600.02 425.631 1599.62 426.159 1599.34C426.688 1599.05 427.287 1598.91 427.957 1598.91C428.982 1598.91 429.778 1599.16 430.343 1599.65C430.912 1600.14 431.197 1600.84 431.197 1601.73C431.197 1602.23 431.07 1602.73 430.814 1603.24C430.559 1603.75 430.122 1604.34 429.502 1605.02L427.239 1607.41H431.519V1609Z"/>
            <rect x="380" y="1617" width="80" height="5" fill="#000" fill-opacity="0.33"/>
            <!-- Item 4 -->
            <path fill="#000" d="M550.596 1609H548.62V1601.38L546.262 1602.12V1600.51L550.384 1599.03H550.596V1609ZM560.535 1604.88C560.535 1606.26 560.25 1607.31 559.681 1608.04C559.111 1608.77 558.277 1609.14 557.179 1609.14C556.094 1609.14 555.265 1608.78 554.69 1608.06C554.116 1607.35 553.822 1606.32 553.809 1604.99V1603.16C553.809 1601.77 554.096 1600.71 554.67 1599.99C555.249 1599.27 556.08 1598.91 557.165 1598.91C558.25 1598.91 559.079 1599.27 559.653 1599.98C560.228 1600.69 560.521 1601.72 560.535 1603.05V1604.88ZM558.56 1602.88C558.56 1602.05 558.446 1601.45 558.218 1601.08C557.994 1600.7 557.644 1600.51 557.165 1600.51C556.7 1600.51 556.356 1600.69 556.133 1601.05C555.914 1601.41 555.798 1601.96 555.784 1602.72V1605.14C555.784 1605.96 555.894 1606.56 556.112 1606.96C556.336 1607.35 556.691 1607.54 557.179 1607.54C557.662 1607.54 558.01 1607.35 558.225 1606.98C558.439 1606.6 558.55 1606.02 558.56 1605.24V1602.88ZM568.574 1604.88C568.574 1606.26 568.289 1607.31 567.72 1608.04C567.15 1608.77 566.316 1609.14 565.218 1609.14C564.133 1609.14 563.304 1608.78 562.729 1608.06C562.155 1607.35 561.861 1606.32 561.848 1604.99V1603.16C561.848 1601.77 562.135 1600.71 562.709 1599.99C563.288 1599.27 564.119 1598.91 565.204 1598.91C566.289 1598.91 567.118 1599.27 567.692 1599.98C568.267 1600.69 568.561 1601.72 568.574 1603.05V1604.88ZM566.599 1602.88C566.599 1602.05 566.485 1601.45 566.257 1601.08C566.034 1600.7 565.683 1600.51 565.204 1600.51C564.739 1600.51 564.395 1600.69 564.172 1601.05C563.953 1601.41 563.837 1601.96 563.823 1602.72V1605.14C563.823 1605.96 563.933 1606.56 564.151 1606.96C564.375 1607.35 564.73 1607.54 565.218 1607.54C565.701 1607.54 566.049 1607.35 566.264 1606.98C566.478 1606.6 566.59 1606.02 566.599 1605.24V1602.88ZM573.981 1603.43H576.449V1605.21H573.981V1608H572.102V1605.21H569.627V1603.43H572.102V1600.76H573.981V1603.43Z"/>
            <rect x="521" y="1617" width="80" height="5" fill="#000" fill-opacity="0.33"/>
        </g>
        <g class="s_blockquote_block">
            <!-- Background Image -->
            <rect y="1664" width="700" height="141" fill="url(#theme_real_estate_s_quotes_carousel_demo_image_1_id)" class="img_reference_s_quotes_carousel_demo_image_1"></rect>
            <rect y="1664" width="700" height="141" fill="#000" opacity=".4"/>
            <!-- Arrows -->
            <path d="M38 1723L30 1731L38 1739" stroke="#FFFFFD" stroke-width="3"/>
            <path d="M659 1743L667 1735L659 1727" stroke="#FFFFFD" stroke-width="3"/>
            <!-- Box - Background -->
            <rect x="228" y="1694" width="244" height="81" fill="#FFFFFD"/>
            <!-- Box - Avatar -->
            <circle cx="253" cy="1757" r="8" fill="url(#theme_real_estate_s_quotes_carousel_demo_image_3_id)"/>
            <!-- Box - Name -->
            <rect x="269" y="1755" width="54" height="5" fill="#000" fill-opacity="0.33"/>
            <!-- Box - Text -->
            <rect x="245" y="1705" width="199" height="5" fill="#000" fill-opacity="0.33"/>
            <rect x="245" y="1715" width="151" height="5" fill="#000" fill-opacity="0.33"/>
            <rect x="245" y="1725" width="180" height="5" fill="#000" fill-opacity="0.33"/>
            <rect x="245" y="1735" width="124" height="5" fill="#000" fill-opacity="0.33"/>
            <!-- Box - Symbol -->
            <rect x="209" y="1694" width="19" height="19" fill="#7C6576"/>
        </g>
        <g class="svgc_footer">
            <!-- Menu Background -->
            <rect y="1805" width="700" height="45" class="svgc_footer_bg" fill="#FOOTER_COLOR"/>
            <!-- Logo -->
            <path opacity="1" fill="#FOOTER_COLOR" class="svgc_text" filter="url(#filter_readability_real_estate)" d="M71.74 1821.24V1830.99H76.398L76.126 1833H69.241V1821.24H71.74ZM81.8009 1820.96C82.8776 1820.96 83.8069 1821.21 84.5889 1821.69C85.3709 1822.17 85.9716 1822.87 86.3909 1823.79C86.8103 1824.7 87.0199 1825.81 87.0199 1827.12C87.0199 1828.4 86.8103 1829.5 86.3909 1830.43C85.9716 1831.35 85.3709 1832.05 84.5889 1832.54C83.8069 1833.03 82.8776 1833.27 81.8009 1833.27C80.7243 1833.27 79.7893 1833.03 78.9959 1832.56C78.2139 1832.07 77.6133 1831.37 77.1939 1830.45C76.7746 1829.52 76.5649 1828.41 76.5649 1827.12C76.5649 1825.85 76.7746 1824.75 77.1939 1823.84C77.6246 1822.91 78.2309 1822.2 79.0129 1821.71C79.8063 1821.21 80.7356 1820.96 81.8009 1820.96ZM81.8009 1822.83C80.9396 1822.83 80.2879 1823.17 79.8459 1823.85C79.4153 1824.53 79.1999 1825.62 79.1999 1827.12C79.1999 1828.61 79.4209 1829.7 79.8629 1830.38C80.3049 1831.06 80.9509 1831.4 81.8009 1831.4C82.6623 1831.4 83.3083 1831.07 83.7389 1830.4C84.1696 1829.72 84.3849 1828.63 84.3849 1827.12C84.3849 1825.61 84.1696 1824.52 83.7389 1823.85C83.3083 1823.17 82.6623 1822.83 81.8009 1822.83ZM93.8269 1820.96C94.6202 1820.96 95.3229 1821.09 95.9349 1821.34C96.5582 1821.58 97.1362 1821.92 97.6689 1822.38L96.3599 1823.73C95.9405 1823.42 95.5439 1823.19 95.1699 1823.04C94.8072 1822.89 94.3935 1822.82 93.9289 1822.82C93.0335 1822.82 92.3082 1823.17 91.7529 1823.89C91.2089 1824.59 90.9369 1825.67 90.9369 1827.12C90.9369 1828.65 91.1465 1829.75 91.5659 1830.42C91.9965 1831.07 92.6595 1831.4 93.5549 1831.4C94.2009 1831.4 94.7845 1831.26 95.3059 1830.98V1828.1H93.6569L93.4019 1826.28H97.7369V1832.08C97.1249 1832.46 96.4619 1832.75 95.7479 1832.97C95.0452 1833.17 94.3312 1833.27 93.6059 1833.27C91.8719 1833.27 90.5572 1832.75 89.6619 1831.71C88.7665 1830.67 88.3189 1829.13 88.3189 1827.1C88.3189 1825.82 88.5625 1824.72 89.0499 1823.79C89.5372 1822.86 90.1945 1822.15 91.0219 1821.68C91.8605 1821.2 92.7955 1820.96 93.8269 1820.96ZM104.445 1820.96C105.522 1820.96 106.451 1821.21 107.233 1821.69C108.015 1822.17 108.616 1822.87 109.035 1823.79C109.455 1824.7 109.664 1825.81 109.664 1827.12C109.664 1828.4 109.455 1829.5 109.035 1830.43C108.616 1831.35 108.015 1832.05 107.233 1832.54C106.451 1833.03 105.522 1833.27 104.445 1833.27C103.369 1833.27 102.434 1833.03 101.64 1832.56C100.858 1832.07 100.258 1831.37 99.8385 1830.45C99.4191 1829.52 99.2095 1828.41 99.2095 1827.12C99.2095 1825.85 99.4191 1824.75 99.8385 1823.84C100.269 1822.91 100.875 1822.2 101.657 1821.71C102.451 1821.21 103.38 1820.96 104.445 1820.96ZM104.445 1822.83C103.584 1822.83 102.932 1823.17 102.49 1823.85C102.06 1824.53 101.844 1825.62 101.844 1827.12C101.844 1828.61 102.065 1829.7 102.507 1830.38C102.949 1831.06 103.595 1831.4 104.445 1831.4C105.307 1831.4 105.953 1831.07 106.383 1830.4C106.814 1829.72 107.029 1828.63 107.029 1827.12C107.029 1825.61 106.814 1824.52 106.383 1823.85C105.953 1823.17 105.307 1822.83 104.445 1822.83Z" />
            <!-- Links -->
            <g opacity=".5">
                <rect x="138" y="1823.04" width="40" height="10" fill="#FOOTER_COLOR" class="svgc_text" filter="url(#filter_readability_real_estate)"/>
                <rect x="190" y="1823.04" width="40" height="10" fill="#FOOTER_COLOR" class="svgc_text" filter="url(#filter_readability_real_estate)"/>
                <rect x="242" y="1823.04" width="40" height="10" fill="#FOOTER_COLOR" class="svgc_text" filter="url(#filter_readability_real_estate)"/>
                <rect x="294" y="1823.04" width="40" height="10" fill="#FOOTER_COLOR" class="svgc_text" filter="url(#filter_readability_real_estate)"/>
            </g>
            <!-- Social -->
            <g opacity=".5">
                <circle cx="567" cy="1827.04" r="6" fill="#FOOTER_COLOR" class="svgc_text" filter="url(#filter_readability_real_estate)"/>
                <circle cx="545" cy="1827.04" r="6" fill="#FOOTER_COLOR" class="svgc_text" filter="url(#filter_readability_real_estate)"/>
                <circle cx="523" cy="1827.04" r="6" fill="#FOOTER_COLOR" class="svgc_text" filter="url(#filter_readability_real_estate)"/>
            </g>
            <!-- Button -->
            <rect x="588" y="1821.04" width="40" height="12" opacity="1" fill="#FOOTER_COLOR" class="svgc_text" filter="url(#filter_readability_real_estate)"/>
        </g>
    </g>
</svg>
