<svg width="700" height="2624" viewBox="0 0 700 2624" fill="none" xmlns="http://www.w3.org/2000/svg" data-vsvg="002" class="theme_loftspace_svg_preview">
    <defs>
        <style type="text/css">
            @import url('https://fonts.googleapis.com/css2?family=Poppins:wght@500&amp;display=swap');
        </style>
        <pattern id="theme_loftspace_s_cta_box_default_image_id" width="1" height="1" patternunits="objectBoundingBox">
            <image width="209" height="209" preserveAspectRatio="xMidYMid slice" href="#library_image_02_url"></image>
        </pattern>
        <pattern id="theme_loftspace_s_key_images_default_image_1_id" width="1" height="1" patternunits="objectBoundingBox">
            <image width="147" height="195" preserveAspectRatio="xMidYMid slice" href="#s_media_list_default_image_1_url"></image>
        </pattern>
        <pattern id="theme_loftspace_s_key_images_default_image_2_id" width="1" height="1" patternunits="objectBoundingBox">
            <image width="147" height="195" preserveAspectRatio="xMidYMid slice" href="#s_image_text_default_image_url"></image>
        </pattern>
        <pattern id="theme_loftspace_s_key_images_default_image_3_id" width="1" height="1" patternunits="objectBoundingBox">
            <image width="147" height="195" preserveAspectRatio="xMidYMid slice" href="#s_media_list_default_image_2_url"></image>
        </pattern>
        <pattern id="theme_loftspace_s_key_images_default_image_4_id" width="1" height="1" patternunits="objectBoundingBox">
            <image width="147" height="195" preserveAspectRatio="xMidYMid slice" href="#s_text_image_default_image_url"></image>
        </pattern>
        <pattern id="theme_loftspace_s_striped_default_image_id" width="1" height="1" patternunits="objectBoundingBox">
            <image width="418" height="293" preserveAspectRatio="xMidYMid slice" href="#s_cover_default_image_url"></image>
        </pattern>
        <pattern id="theme_loftspace_s_banner_default_image_2_id" width="1" height="1" patternunits="objectBoundingBox">
            <image width="292" height="366" preserveAspectRatio="xMidYMid slice" href="#s_image_text_default_image_url"></image>
        </pattern>
        <pattern id="theme_loftspace_s_banner_default_image_3_id" width="1" height="1" patternunits="objectBoundingBox">
            <image width="251" height="315" preserveAspectRatio="xMidYMid slice" href="#s_product_list_default_image_1_url"></image>
        </pattern>
        <filter id="filter_readability_theme_loftspace">
            <feColorMatrix in="SourceGraphic" type="saturate" values="0"></feColorMatrix>
            <feComponentTransfer>
                <feFuncR type="table" tableValues="1 0"></feFuncR>
                <feFuncG type="table" tableValues="1 0"></feFuncG>
                <feFuncB type="table" tableValues="1 0"></feFuncB>
            </feComponentTransfer>
            <feComponentTransfer>
                <feFuncR type="linear" slope="10000" intercept="-4999.5"></feFuncR>
                <feFuncG type="linear" slope="10000" intercept="-4999.5"></feFuncG>
                <feFuncB type="linear" slope="10000" intercept="-4999.5"></feFuncB>
            </feComponentTransfer>
        </filter>
    </defs>
    <rect width="700" height="2624" fill="#ACACAC"></rect>
    <g clip-path="url(#clip0_28_2)" class="theme_loftspace">
        <rect width="700" height="2624" fill="#FFFFFF"></rect>
        <g class="svgc_menu">
            <rect width="700" height="60" fill="#MENU_COLOR" class="svgc_menu_bg"></rect>
            <rect opacity="0.3" x="32" y="22" width="36" height="16" fill="#MENU_COLOR" class="svgc_invert" filter="url(#filter_readability_theme_loftspace)"></rect>
            <rect opacity="0.3" x="75" y="22" width="36" height="16" fill="#MENU_COLOR" class="svgc_invert" filter="url(#filter_readability_theme_loftspace)"></rect>
            <rect opacity="0.3" x="118" y="22" width="36" height="16" fill="#MENU_COLOR" class="svgc_invert" filter="url(#filter_readability_theme_loftspace)"></rect>
            <rect opacity="0.3" x="161" y="22" width="36" height="16" fill="#MENU_COLOR" class="svgc_invert" filter="url(#filter_readability_theme_loftspace)"></rect>
            <rect opacity="0.3" x="631" y="22" width="36" height="16" fill="#MENU_COLOR" class="svgc_invert" filter="url(#filter_readability_theme_loftspace)"></rect>
            <rect opacity="0.3" x="586" y="22" width="36" height="16" fill="#MENU_COLOR" class="svgc_invert" filter="url(#filter_readability_theme_loftspace)"></rect>
            <g class="svgc_invert" fill="#MENU_COLOR" filter="url(#filter_readability_theme_loftspace)">
                <path d="M315.984 38V20.9609H319.453V35.1055H328.078V38H315.984Z" fill="#FFFFFF"></path>
                <path d="M329.859 29.5156C329.859 27.7656 330.121 26.2969 330.645 25.1094C331.035 24.2344 331.566 23.4492 332.238 22.7539C332.918 22.0586 333.66 21.543 334.465 21.207C335.535 20.7539 336.77 20.5273 338.168 20.5273C340.699 20.5273 342.723 21.3125 344.238 22.8828C345.762 24.4531 346.523 26.6367 346.523 29.4336C346.523 32.207 345.77 34.3789 344.262 35.9492C342.754 37.5117 340.738 38.293 338.215 38.293C335.66 38.293 333.629 37.5156 332.121 35.9609C330.613 34.3984 329.859 32.25 329.859 29.5156ZM333.434 29.3984C333.434 31.3438 333.883 32.8203 334.781 33.8281C335.68 34.8281 336.82 35.3281 338.203 35.3281C339.586 35.3281 340.719 34.832 341.602 33.8398C342.492 32.8398 342.938 31.3438 342.938 29.3516C342.938 27.3828 342.504 25.9141 341.637 24.9453C340.777 23.9766 339.633 23.4922 338.203 23.4922C336.773 23.4922 335.621 23.9844 334.746 24.9688C333.871 25.9453 333.434 27.4219 333.434 29.3984Z" fill="#FFFFFF"></path>
                <path d="M357.234 31.6836V28.7891H364.711V35.6328C363.984 36.3359 362.93 36.957 361.547 37.4961C360.172 38.0273 358.777 38.293 357.363 38.293C355.566 38.293 354 37.918 352.664 37.168C351.328 36.4102 350.324 35.332 349.652 33.9336C348.98 32.5273 348.645 31 348.645 29.3516C348.645 27.5625 349.02 25.9727 349.77 24.582C350.52 23.1914 351.617 22.125 353.062 21.3828C354.164 20.8125 355.535 20.5273 357.176 20.5273C359.309 20.5273 360.973 20.9766 362.168 21.875C363.371 22.7656 364.145 24 364.488 25.5781L361.043 26.2227C360.801 25.3789 360.344 24.7148 359.672 24.2305C359.008 23.7383 358.176 23.4922 357.176 23.4922C355.66 23.4922 354.453 23.9727 353.555 24.9336C352.664 25.8945 352.219 27.3203 352.219 29.2109C352.219 31.25 352.672 32.7812 353.578 33.8047C354.484 34.8203 355.672 35.3281 357.141 35.3281C357.867 35.3281 358.594 35.1875 359.32 34.9062C360.055 34.6172 360.684 34.2695 361.207 33.8633V31.6836H357.234Z" fill="#FFFFFF"></path>
                <path d="M367.219 29.5156C367.219 27.7656 367.48 26.2969 368.004 25.1094C368.395 24.2344 368.926 23.4492 369.598 22.7539C370.277 22.0586 371.02 21.543 371.824 21.207C372.895 20.7539 374.129 20.5273 375.527 20.5273C378.059 20.5273 380.082 21.3125 381.598 22.8828C383.121 24.4531 383.883 26.6367 383.883 29.4336C383.883 32.207 383.129 34.3789 381.621 35.9492C380.113 37.5117 378.098 38.293 375.574 38.293C373.02 38.293 370.988 37.5156 369.48 35.9609C367.973 34.3984 367.219 32.25 367.219 29.5156ZM370.793 29.3984C370.793 31.3438 371.242 32.8203 372.141 33.8281C373.039 34.8281 374.18 35.3281 375.562 35.3281C376.945 35.3281 378.078 34.832 378.961 33.8398C379.852 32.8398 380.297 31.3438 380.297 29.3516C380.297 27.3828 379.863 25.9141 378.996 24.9453C378.137 23.9766 376.992 23.4922 375.562 23.4922C374.133 23.4922 372.98 23.9844 372.105 24.9688C371.23 25.9453 370.793 27.4219 370.793 29.3984Z" fill="#FFFFFF"></path>
            </g>
        </g>
        <g class="s_cta_box">
            <rect y="2233" width="700" height="291" fill="#F6F6F6"></rect>
            <g>
                <path d="M455 2269H660C662.209 2269 664 2270.79 664 2273V2474C664 2476.21 662.209 2478 660 2478H455V2269Z" fill="url(#theme_loftspace_s_cta_box_default_image_id)" class="img_reference_s_cta_box_default_image"></path>
                <g>
                    <path d="M455 2478L40 2478C37.7909 2478 36 2476.21 36 2474L36 2273C36 2270.79 37.7909 2269 40 2269L455 2269L455 2478Z" fill="#FFFFFF"></path>
                    <rect x="69" y="2317" width="231" height="2" fill="#FFFFFF" fill-opacity="0.4" class="svgc_invert" filter="url(#filter_readability_theme_loftspace)"></rect>
                    <rect x="69" y="2332" width="190" height="2" fill="#FFFFFF" fill-opacity="0.4" class="svgc_invert" filter="url(#filter_readability_theme_loftspace)"></rect>
                    <rect x="69" y="2348" width="211" height="2" fill="#FFFFFF" fill-opacity="0.4" class="svgc_invert" filter="url(#filter_readability_theme_loftspace)"></rect>
                    <g>
                        <rect x="68" y="2380" width="63" height="20" rx="2" fill="#7C6576"></rect>
                    </g>
                </g>
            </g>
        </g>
        <g class="s_faq_collapse">
            <rect y="2035" width="700" height="198" fill="#F6F6F6"></rect>
            <text fill="#FFFFFF" style="white-space: pre" xml:space="preserve" font-family="Poppins" font-size="24" font-weight="500" letter-spacing="0em" class="svgc_invert" filter="url(#filter_readability_theme_loftspace)">
                <tspan x="37" y="2095.4">Section
                </tspan>
                <tspan x="37" y="2131.4">title</tspan>
            </text>
            <g>
                <rect x="316" y="2078" width="202" height="4" fill="#FFFFFF" class="svgc_invert" filter="url(#filter_readability_theme_loftspace)"></rect>
                <rect x="316" y="2105" width="323" height="2" fill="#FFFFFF" fill-opacity="0.4" class="svgc_invert" filter="url(#filter_readability_theme_loftspace)"></rect>
                <rect x="316" y="2117" width="332" height="2" fill="#FFFFFF" fill-opacity="0.4" class="svgc_invert" filter="url(#filter_readability_theme_loftspace)"></rect>
                <rect x="316" y="2129" width="112" height="2" fill="#FFFFFF" fill-opacity="0.4" class="svgc_invert" filter="url(#filter_readability_theme_loftspace)"></rect>
                <g clip-path="url(#clip1_28_2)">
                    <path d="M647 2076.71L651 2080.72L650.44 2081.29L647 2077.84L643.56 2081.29L643 2080.72L647 2076.71Z" fill="black"></path>
                </g>
                <path d="M663 2152H304" stroke="black" stroke-opacity="0.4"></path>
            </g>
            <g>
                <rect x="316" y="2164" width="132" height="4" fill="#FFFFFF" class="svgc_invert" filter="url(#filter_readability_theme_loftspace)"></rect>
                <g clip-path="url(#clip2_28_2)">
                    <path d="M647 2169.29L643 2165.28L643.56 2164.71L647 2168.16L650.44 2164.71L651 2165.28L647 2169.29Z" fill="black"></path>
                </g>
                <path d="M663 2180H304" stroke="black" stroke-opacity="0.4"></path>
            </g>
            <g>
                <g clip-path="url(#clip3_28_2)">
                    <path d="M647 2197.29L643 2193.28L643.56 2192.71L647 2196.16L650.44 2192.71L651 2193.28L647 2197.29Z" fill="black"></path>
                </g>
                <g>
                    <rect x="316" y="2192" width="94" height="4" fill="#FFFFFF" class="svgc_invert" filter="url(#filter_readability_theme_loftspace)"></rect>
                </g>
            </g>
            <path d="M700 2035L0 2035" stroke="black" stroke-opacity="0.4"></path>
        </g>
        <g class="s_quotes_carousel">
            <rect y="1760" width="700" height="275" fill="#F6F6F6"></rect>
            <path d="M350 1853C357.732 1853 364 1846.73 364 1839C364 1831.27 357.732 1825 350 1825C342.268 1825 336 1831.27 336 1839C336 1846.73 342.268 1853 350 1853Z" fill="#F6F6F6" class="svgc_invert" filter="url(#filter_readability_theme_loftspace)"></path>
            <text fill="#F6F6F6" style="white-space: pre" xml:space="preserve" font-family="Poppins" font-size="24" font-weight="500" letter-spacing="0em" class="svgc_invert" filter="url(#filter_readability_theme_loftspace)">
                <tspan x="258.211" y="1887.4">“A quote about</tspan>
            </text>
            <text fill="#F6F6F6" style="white-space: pre" xml:space="preserve" font-family="Poppins" font-size="24" font-weight="500" letter-spacing="0em" class="svgc_invert" filter="url(#filter_readability_theme_loftspace)">
                <tspan x="264.273" y="1918.4">your services”</tspan>
            </text>
            <path d="M349 1962C355.627 1962 361 1956.63 361 1950C361 1943.37 355.627 1938 349 1938C342.373 1938 337 1943.37 337 1950C337 1956.63 342.373 1962 349 1962Z" fill="#F6F6F6" class="svgc_invert" filter="url(#filter_readability_theme_loftspace)"></path>
            <path d="M366 1968H333V1970H366V1968Z" fill="#F6F6F6" fill-opacity="0.4" class="svgc_invert" filter="url(#filter_readability_theme_loftspace)"></path>
        </g>
        <g class="s_features">
            <rect y="1512" width="700" height="236" fill="#FFFFFF"></rect>
            <g>
                <text fill="#FFFFFF" style="white-space: pre" xml:space="preserve" font-family="Poppins" font-size="14" font-weight="500" letter-spacing="0em" class="svgc_invert" filter="url(#filter_readability_theme_loftspace)">
                    <tspan x="566" y="1663.4">Entry Title</tspan>
                </text>
                <path d="M639 1671H558V1673H639V1671Z" fill="#FFFFFF" fill-opacity="0.4" class="svgc_invert" filter="url(#filter_readability_theme_loftspace)"></path>
                <path d="M599 1642C606.732 1642 613 1635.73 613 1628C613 1620.27 606.732 1614 599 1614C591.268 1614 585 1620.27 585 1628C585 1635.73 591.268 1642 599 1642Z" fill="#FFFFFF" class="svgc_invert" filter="url(#filter_readability_theme_loftspace)"></path>
            </g>
            <g>
                <text fill="#FFFFFF" style="white-space: pre" xml:space="preserve" font-family="Poppins" font-size="14" font-weight="500" letter-spacing="0em" class="svgc_invert" filter="url(#filter_readability_theme_loftspace)">
                    <tspan x="402" y="1663.4">Entry Title</tspan>
                </text>
                <path d="M475 1671H394V1673H475V1671Z" fill="#FFFFFF" fill-opacity="0.4" class="svgc_invert" filter="url(#filter_readability_theme_loftspace)"></path>
                <path d="M435 1642C442.732 1642 449 1635.73 449 1628C449 1620.27 442.732 1614 435 1614C427.268 1614 421 1620.27 421 1628C421 1635.73 427.268 1642 435 1642Z" fill="#FFFFFF" class="svgc_invert" filter="url(#filter_readability_theme_loftspace)"></path>
            </g>
            <g>
                <text fill="#FFFFFF" style="white-space: pre" xml:space="preserve" font-family="Poppins" font-size="14" font-weight="500" letter-spacing="0em" class="svgc_invert" filter="url(#filter_readability_theme_loftspace)">
                    <tspan x="238" y="1663.4">Entry Title</tspan>
                </text>
                <path d="M311 1671H230V1673H311V1671Z" fill="#FFFFFF" fill-opacity="0.4" class="svgc_invert" filter="url(#filter_readability_theme_loftspace)"></path>
                <path d="M271 1642C278.732 1642 285 1635.73 285 1628C285 1620.27 278.732 1614 271 1614C263.268 1614 257 1620.27 257 1628C257 1635.73 263.268 1642 271 1642Z" fill="#FFFFFF" class="svgc_invert" filter="url(#filter_readability_theme_loftspace)"></path>
            </g>
            <g>
                <text fill="#FFFFFF" style="white-space: pre" xml:space="preserve" font-family="Poppins" font-size="14" font-weight="500" letter-spacing="0em" class="svgc_invert" filter="url(#filter_readability_theme_loftspace)">
                    <tspan x="74" y="1663.4">Entry Title</tspan>
                </text>
                <path d="M147 1671H66V1673H147V1671Z" fill="#FFFFFF" fill-opacity="0.4" class="svgc_invert" filter="url(#filter_readability_theme_loftspace)"></path>
                <path d="M107 1642C114.732 1642 121 1635.73 121 1628C121 1620.27 114.732 1614 107 1614C99.268 1614 93 1620.27 93 1628C93 1635.73 99.268 1642 107 1642Z" fill="#FFFFFF" class="svgc_invert" filter="url(#filter_readability_theme_loftspace)"></path>
            </g>
            <text fill="#FFFFFF" style="white-space: pre" xml:space="preserve" font-family="Poppins" font-size="24" font-weight="500" letter-spacing="0em" class="svgc_invert" filter="url(#filter_readability_theme_loftspace)">
                <tspan x="36" y="1568.4">Section title</tspan>
            </text>
            <rect x="36" y="1577" width="202" height="2" fill="#FFFFFF" fill-opacity="0.4" class="svgc_invert" filter="url(#filter_readability_theme_loftspace)"></rect>
        </g>
        <g class="s_key_images">
            <rect y="1176" width="700" height="348" fill="#FFFFFF"></rect>
            <rect x="37" y="1202" width="42" height="2" fill="#FFFFFF" fill-opacity="0.4" class="svgc_invert" filter="url(#filter_readability_theme_loftspace)"></rect>
            <rect x="37" y="1223" width="361" height="2" fill="#FFFFFF" fill-opacity="0.4" class="svgc_invert" filter="url(#filter_readability_theme_loftspace)"></rect>
            <rect x="37" y="1239" width="361" height="2" fill="#FFFFFF" fill-opacity="0.4" class="svgc_invert" filter="url(#filter_readability_theme_loftspace)"></rect>
            <g>
                <rect x="37" y="1496" width="26" height="2" fill="#FFFFFF" fill-opacity="0.4" class="svgc_invert" filter="url(#filter_readability_theme_loftspace)"></rect>
                <text fill="#FFFFFF" style="white-space: pre" xml:space="preserve" font-family="Poppins" font-size="14" font-weight="500" letter-spacing="0em" class="svgc_invert" filter="url(#filter_readability_theme_loftspace)">
                    <tspan x="37" y="1484.4">Entry Title</tspan>
                </text>
                <rect x="36" y="1270" width="147" height="195" fill="url(#theme_loftspace_s_key_images_default_image_1_id)" class="img_reference_s_key_images_default_image_1"></rect>
            </g>
            <g>
                <rect x="198" y="1496" width="26" height="2" fill="#FFFFFF" fill-opacity="0.4" class="svgc_invert" filter="url(#filter_readability_theme_loftspace)"></rect>
                <text fill="#FFFFFF" style="white-space: pre" xml:space="preserve" font-family="Poppins" font-size="14" font-weight="500" letter-spacing="0em" class="svgc_invert" filter="url(#filter_readability_theme_loftspace)">
                    <tspan x="198" y="1484.4">Entry Title</tspan>
                </text>
                <rect x="197" y="1270" width="147" height="195" fill="url(#theme_loftspace_s_key_images_default_image_2_id)" class="img_reference_s_key_images_default_image_2"></rect>
            </g>
            <g>
                <rect x="359" y="1496" width="26" height="2" fill="#FFFFFF" fill-opacity="0.4" class="svgc_invert" filter="url(#filter_readability_theme_loftspace)"></rect>
                <text fill="#FFFFFF" style="white-space: pre" xml:space="preserve" font-family="Poppins" font-size="14" font-weight="500" letter-spacing="0em" class="svgc_invert" filter="url(#filter_readability_theme_loftspace)">
                    <tspan x="359" y="1484.4">Entry Title</tspan>
                </text>
                <rect x="358" y="1270" width="147" height="195" fill="url(#theme_loftspace_s_key_images_default_image_3_id)" class="img_reference_s_key_images_default_image_3"></rect>
            </g>
            <g>
                <rect x="520" y="1496" width="26" height="2" fill="#FFFFFF" fill-opacity="0.4" class="svgc_invert" filter="url(#filter_readability_theme_loftspace)"></rect>
                <text fill="#FFFFFF" style="white-space: pre" xml:space="preserve" font-family="Poppins" font-size="14" font-weight="500" letter-spacing="0em" class="svgc_invert" filter="url(#filter_readability_theme_loftspace)">
                    <tspan x="520" y="1484.4">Entry Title</tspan>
                </text>
                <rect x="519" y="1270" width="147" height="195" fill="url(#theme_loftspace_s_key_images_default_image_4_id)" class="img_reference_s_key_images_default_image_4"></rect>
            </g>
        </g>
        <g class="s_striped">
            <rect y="851" width="700" height="171" fill="#383E45"></rect>
            <rect y="1022" width="700" height="153" fill="#FFFFFF"></rect>
            <rect x="37" y="851" width="418" height="293" fill="url(#theme_loftspace_s_striped_default_image_id)" class="img_reference_s_striped_default_image"></rect>
        </g>
        <g class="s_text_block">
            <rect y="533" width="700" height="318" fill="#383E45"></rect>
            <rect x="143" y="617" width="42" height="2" fill="#383E45" fill-opacity="0.4" class="svgc_invert" filter="url(#filter_readability_theme_loftspace)"></rect>
            <g>
                <rect x="410" y="666" width="190" height="2" fill="#383E45" fill-opacity="0.4" class="svgc_invert" filter="url(#filter_readability_theme_loftspace)"></rect>
                <rect x="410" y="676" width="185" height="2" fill="#383E45" fill-opacity="0.4" class="svgc_invert" filter="url(#filter_readability_theme_loftspace)"></rect>
                <rect x="410" y="686" width="198" height="2" fill="#383E45" fill-opacity="0.4" class="svgc_invert" filter="url(#filter_readability_theme_loftspace)"></rect>
                <rect x="410" y="696" width="161" height="2" fill="#383E45" fill-opacity="0.4" class="svgc_invert" filter="url(#filter_readability_theme_loftspace)"></rect>
                <rect x="410" y="706" width="196" height="2" fill="#383E45" fill-opacity="0.4" class="svgc_invert" filter="url(#filter_readability_theme_loftspace)"></rect>
                <rect x="410" y="718" width="110" height="2" fill="#383E45" fill-opacity="0.4" class="svgc_invert" filter="url(#filter_readability_theme_loftspace)"></rect>
            </g>
            <g>
                <rect x="143" y="666" width="174" height="2" fill="#383E45" fill-opacity="0.4" class="svgc_invert" filter="url(#filter_readability_theme_loftspace)"></rect>
                <rect x="143" y="676" width="194" height="2" fill="#383E45" fill-opacity="0.4" class="svgc_invert" filter="url(#filter_readability_theme_loftspace)"></rect>
                <rect x="143" y="686" width="186" height="2" fill="#383E45" fill-opacity="0.4" class="svgc_invert" filter="url(#filter_readability_theme_loftspace)"></rect>
                <rect x="143" y="696" width="194" height="2" fill="#383E45" fill-opacity="0.4" class="svgc_invert" filter="url(#filter_readability_theme_loftspace)"></rect>
                <rect x="143" y="706" width="162" height="2" fill="#383E45" fill-opacity="0.4" class="svgc_invert" filter="url(#filter_readability_theme_loftspace)"></rect>
                <rect x="143" y="716" width="187" height="2" fill="#383E45" fill-opacity="0.4" class="svgc_invert" filter="url(#filter_readability_theme_loftspace)"></rect>
                <rect x="143" y="726" width="138" height="2" fill="#383E45" fill-opacity="0.4" class="svgc_invert" filter="url(#filter_readability_theme_loftspace)"></rect>
            </g>
            <text fill="#383E45" style="white-space: pre" xml:space="preserve" font-family="Poppins" font-size="14" font-weight="500" letter-spacing="0em" class="svgc_invert" filter="url(#filter_readability_theme_loftspace)">
                <tspan x="143" y="653.4">Entry Title</tspan>
            </text>
        </g>
        <g class="s_banner">
            <rect y="60" width="700" height="473" fill="#383E45"></rect>
            <rect y="60" width="292" height="366" fill="url(#theme_loftspace_s_banner_default_image_2_id)" class="img_reference_s_banner_default_image_2"></rect>
            <rect x="450" y="218" width="251" height="315" fill="url(#theme_loftspace_s_banner_default_image_3_id)" class="img_reference_s_banner_default_image_3"></rect>
            <text fill="#383E45" style="white-space: pre" xml:space="preserve" font-family="Poppins" font-size="40" font-weight="500" letter-spacing="0em" class="svgc_invert" filter="url(#filter_readability_theme_loftspace)">
                <tspan x="274" y="266">Welcome</tspan>
            </text>
            <text fill="#383E45" style="white-space: pre" xml:space="preserve" font-family="Poppins" font-size="40" font-weight="500" letter-spacing="0em" class="svgc_invert" filter="url(#filter_readability_theme_loftspace)">
                <tspan x="279" y="316">Message</tspan>
            </text>
        </g>
        <g class="svgc_footer">
            <path d="M700 2524H0V2624H700V2524Z" fill="#FOOTER_COLOR" class="svgc_footer_bg"></path>
            <path d="M355 2590H222V2592H355V2590Z" fill="#FOOTER_COLOR" class="svgc_invert" filter="url(#filter_readability_theme_loftspace)"></path>
            <path d="M317 2584H222V2586H317V2584Z" fill="#FOOTER_COLOR" class="svgc_invert" filter="url(#filter_readability_theme_loftspace)"></path>
            <path d="M468 2553H223V2555H468V2553Z" fill="#FOOTER_COLOR" fill-opacity="0.4" class="svgc_invert" filter="url(#filter_readability_theme_loftspace)"></path>
            <path d="M434 2559H223V2561H434V2559Z" fill="#FOOTER_COLOR" fill-opacity="0.4" class="svgc_invert" filter="url(#filter_readability_theme_loftspace)"></path>
            <path d="M108 2585H70V2587H108V2585Z" fill="#FOOTER_COLOR" class="svgc_invert" filter="url(#filter_readability_theme_loftspace)"></path>
            <path d="M115 2591H70V2593H115V2591Z" fill="#FOOTER_COLOR" class="svgc_invert" filter="url(#filter_readability_theme_loftspace)"></path>
            <path d="M623 2591C626.866 2591 630 2587.87 630 2584C630 2580.13 626.866 2577 623 2577C619.134 2577 616 2580.13 616 2584C616 2587.87 619.134 2591 623 2591Z" fill="#FOOTER_COLOR" class="svgc_invert" filter="url(#filter_readability_theme_loftspace)"></path>
            <path d="M604 2591C607.866 2591 611 2587.87 611 2584C611 2580.13 607.866 2577 604 2577C600.134 2577 597 2580.13 597 2584C597 2587.87 600.134 2591 604 2591Z" fill="#FOOTER_COLOR" class="svgc_invert" filter="url(#filter_readability_theme_loftspace)"></path>
            <path d="M585 2591C588.866 2591 592 2587.87 592 2584C592 2580.13 588.866 2577 585 2577C581.134 2577 578 2580.13 578 2584C578 2587.87 581.134 2591 585 2591Z" fill="#FOOTER_COLOR" class="svgc_invert" filter="url(#filter_readability_theme_loftspace)"></path>
            <path d="M139 2547H70V2557H139V2547Z" fill="#FOOTER_COLOR" class="svgc_invert" filter="url(#filter_readability_theme_loftspace)"></path>
            <path d="M160 2560H70V2570H160V2560Z" fill="#FOOTER_COLOR" class="svgc_invert" filter="url(#filter_readability_theme_loftspace)"></path>
        </g>
    </g>
    <defs>
        <clipPath id="clip0_28_2">
            <rect width="700" height="2624" fill="#FFFFFF"></rect>
        </clipPath>
        <clipPath id="clip1_28_2">
            <rect width="8" height="8" fill="#FFFFFF" transform="translate(643 2075)"></rect>
        </clipPath>
        <clipPath id="clip2_28_2">
            <rect width="8" height="8" fill="#FFFFFF" transform="translate(643 2163)"></rect>
        </clipPath>
        <clipPath id="clip3_28_2">
            <rect width="8" height="8" fill="#FFFFFF" transform="translate(643 2191)"></rect>
        </clipPath>
    </defs>
</svg>