<svg xmlns="http://www.w3.org/2000/svg" width="700" height="1850" viewBox="0 0 700 1850">
    <defs>
        <pattern width="1" height="1" id="theme_loftspace_s_cover_default_image_id" patternunits="objectBoundingBox">
            <image width="700" height="310" preserveAspectRatio="xMidYMid slice" href="#s_cover_default_image_url"/>
        </pattern>
        <pattern width="1" height="1" id="theme_loftspace_s_three_columns_default_image_1_id" patternunits="objectBoundingBox">
            <image width="173" height="182" preserveAspectRatio="xMidYMid slice" href="#s_three_columns_default_image_1_url"/>
        </pattern>
        <pattern width="1" height="1" id="theme_loftspace_s_three_columns_default_image_2_id" patternunits="objectBoundingBox">
            <image width="173" height="182" preserveAspectRatio="xMidYMid slice" href="#s_three_columns_default_image_2_url"/>
        </pattern>
        <pattern width="1" height="1" id="theme_loftspace_s_three_columns_default_image_3_id" patternunits="objectBoundingBox">
            <image width="173" height="182" preserveAspectRatio="xMidYMid slice" href="#s_three_columns_default_image_3_url"/>
        </pattern>
        <pattern width="1" height="1" id="theme_loftspace_s_banner_default_image_id" patternunits="objectBoundingBox">
            <image width="700" height="250" preserveAspectRatio="xMidYMid slice" href="#s_banner_default_image_url"/>
        </pattern>
        <pattern width="1" height="1" id="theme_loftspace_library_image_03_id" patternunits="objectBoundingBox">
            <image width="180" height="134" preserveAspectRatio="xMidYMid slice" href="#library_image_03_url"/>
        </pattern>
        <pattern width="1" height="1" id="theme_loftspace_library_image_02_id" patternunits="objectBoundingBox">
            <image width="180" height="134" preserveAspectRatio="xMidYMid slice" href="#library_image_02_url"/>
        </pattern>
        <pattern width="1" height="1" id="theme_loftspace_library_image_10_id" patternunits="objectBoundingBox">
            <image width="180" height="134" preserveAspectRatio="xMidYMid slice" href="#library_image_10_url"/>
        </pattern>
        <pattern width="1" height="1" id="theme_loftspace_library_image_05_id" patternunits="objectBoundingBox">
            <image width="180" height="134" preserveAspectRatio="xMidYMid slice" href="#library_image_05_url"/>
        </pattern>
        <pattern width="1" height="1" id="theme_loftspace_library_image_16_id" patternunits="objectBoundingBox">
            <image width="180" height="134" preserveAspectRatio="xMidYMid slice" href="#library_image_16_url"/>
        </pattern>
        <pattern width="1" height="1" id="theme_loftspace_library_image_13_id" patternunits="objectBoundingBox">
            <image width="180" height="134" preserveAspectRatio="xMidYMid slice" href="#library_image_13_url"/>
        </pattern>
        <filter id="filter_readability_loftspace">
            <feColorMatrix in="SourceGraphic" type="saturate" values="0"/>
            <feComponentTransfer>
                <feFuncR type="table" tableValues="1 0"/>
                <feFuncG type="table" tableValues="1 0"/>
                <feFuncB type="table" tableValues="1 0"/>
            </feComponentTransfer>
            <feComponentTransfer>
                <feFuncR type="linear" slope="10000" intercept="-4999.5"/>
                <feFuncG type="linear" slope="10000" intercept="-4999.5"/>
                <feFuncB type="linear" slope="10000" intercept="-4999.5"/>
            </feComponentTransfer>
        </filter>
    </defs>
    <g fill="none" fill-rule="evenodd" class="theme_loftspace">
        <rect width="700" height="1850" fill="#FFFFFF"/>
        <g class="svgc_menu">
            <rect width="700" height="37" class="svgc_menu_bg" fill="#MENU_COLOR"/>
            <path d="M76.345,23V21.479H72.6V14.273H70.759V23Zm4.68.12a4.131,4.131,0,0,0,2.08-.527,3.749,3.749,0,0,0,1.467-1.528,5.054,5.054,0,0,0,.539-2.429,5.059,5.059,0,0,0-.54-2.429,3.755,3.755,0,0,0-1.465-1.527,4.388,4.388,0,0,0-4.17,0,3.739,3.739,0,0,0-1.461,1.527,5.084,5.084,0,0,0-.537,2.43,5.07,5.07,0,0,0,.537,2.424,3.753,3.753,0,0,0,1.461,1.53,4.138,4.138,0,0,0,2.088.528Zm0-1.633a2.08,2.08,0,0,1-1.168-.328,2.128,2.128,0,0,1-.774-.963,3.929,3.929,0,0,1-.275-1.56,3.935,3.935,0,0,1,.275-1.56,2.114,2.114,0,0,1,.774-.962,2.242,2.242,0,0,1,2.335,0,2.121,2.121,0,0,1,.773.963,3.911,3.911,0,0,1,.275,1.56,3.909,3.909,0,0,1-.275,1.559,2.12,2.12,0,0,1-.773.963,2.075,2.075,0,0,1-1.168.328ZM90.3,23.119a4.152,4.152,0,0,0,1.952-.445,3.292,3.292,0,0,0,1.338-1.27,3.823,3.823,0,0,0,.486-1.975v-1.1H90.426v1.39H92.3l0,.126a1.886,1.886,0,0,1-.157.645l-.073.14a1.591,1.591,0,0,1-.682.633,2.35,2.35,0,0,1-1.071.224,2.127,2.127,0,0,1-1.2-.334,2.151,2.151,0,0,1-.784-.974,3.9,3.9,0,0,1-.277-1.551,3.805,3.805,0,0,1,.281-1.545,2.174,2.174,0,0,1,.787-.965,2.086,2.086,0,0,1,1.174-.332,2.283,2.283,0,0,1,.654.089,1.778,1.778,0,0,1,.528.258,1.6,1.6,0,0,1,.394.409,1.94,1.94,0,0,1,.252.552H94a3.19,3.19,0,0,0-.4-1.187,3.27,3.27,0,0,0-.812-.931,3.741,3.741,0,0,0-1.135-.607,4.3,4.3,0,0,0-1.381-.216,4.21,4.21,0,0,0-1.607.3,3.756,3.756,0,0,0-1.3.882,4.021,4.021,0,0,0-.867,1.413,5.417,5.417,0,0,0-.309,1.894,5.141,5.141,0,0,0,.518,2.384,3.725,3.725,0,0,0,1.447,1.547,4.2,4.2,0,0,0,2.156.543Zm8.958,0a4.137,4.137,0,0,0,2.081-.526,3.747,3.747,0,0,0,1.466-1.528,5.054,5.054,0,0,0,.54-2.429,5.059,5.059,0,0,0-.54-2.429,3.763,3.763,0,0,0-1.466-1.527,4.386,4.386,0,0,0-4.169,0,3.742,3.742,0,0,0-1.462,1.527,5.084,5.084,0,0,0-.537,2.43,5.07,5.07,0,0,0,.537,2.424,3.756,3.756,0,0,0,1.462,1.53A4.133,4.133,0,0,0,99.26,23.119Zm0-1.632a2.081,2.081,0,0,1-1.168-.328,2.127,2.127,0,0,1-.773-.963,3.911,3.911,0,0,1-.275-1.56,3.918,3.918,0,0,1,.275-1.56,2.112,2.112,0,0,1,.773-.962,2.242,2.242,0,0,1,2.335,0,2.123,2.123,0,0,1,.774.963,3.929,3.929,0,0,1,.275,1.56A3.927,3.927,0,0,1,101.2,20.2a2.128,2.128,0,0,1-.774.963A2.075,2.075,0,0,1,99.26,21.487Z" transform="translate(263.24)" class="svgc_text" opacity="1" fill="#MENU_COLOR" filter="url(#filter_readability_loftspace)"/>
            <g transform="translate(70 15)" opacity="0.6">
                <rect width="37" height="7" fill="#MENU_COLOR" class="svgc_text" filter="url(#filter_readability_loftspace)"/>
                <rect width="37" height="7" transform="translate(58)" fill="#MENU_COLOR" class="svgc_text" filter="url(#filter_readability_loftspace)"/>
                <rect width="37" height="7" transform="translate(116)" fill="#MENU_COLOR" class="svgc_text" filter="url(#filter_readability_loftspace)"/>
                <rect width="37" height="7" transform="translate(174)" fill="#MENU_COLOR" class="svgc_text" filter="url(#filter_readability_loftspace)"/>
            </g>
            <rect width="37" height="7" x="593" y="15" fill="#MENU_COLOR" opacity="1" class="svgc_text" filter="url(#filter_readability_loftspace)"/>
        </g>
        <g class="s_cover">
            <rect class="img_reference_s_cover_default_image" fill="url(#theme_loftspace_s_cover_default_image_id)" width="700" height="310" transform="translate(0 36)"/>
            <rect width="700" height="310" transform="translate(0 36)" opacity="0.5" fill="#000000"/>
            <rect width="94" height="29" rx="3" transform="translate(303 214.832)" fill="#3AADAA"/>
            <text transform="translate(350 233)" text-anchor="middle" fill="#FFFFFF" font-size="11.5" font-family="Arial-BoldMT, Arial" font-weight="bold">Discover</text>
            <g transform="translate(284.132 192.832)" opacity="0.4">
                <rect width="131" height="2" transform="translate(-0.132)" fill="#FFFFFF"/>
                <rect width="116" height="2" transform="translate(7.868 5)" fill="#FFFFFF"/>
            </g>
            <text transform="translate(350 178)" text-anchor="middle" fill="#FFFFFF" font-size="50" font-family="Arial-BoldMT, Arial" font-weight="bold">Section Title</text>
        </g>
        <g class="s_three_columns">
            <rect width="700" height="355" transform="translate(0 346)" fill="#F6F6F6"/>
            <g transform="translate(70 385)">
                <g transform="translate(0 31)" fill="#FBFBFB" stroke="rgba(0,0,0,0.12)" stroke-width="1">
                    <rect width="173" height="246" rx="3" stroke="none"/>
                    <rect x="0.5" y="0.5" width="172" height="245" rx="2.5" fill="none"/>
                </g>
                <g transform="translate(17 232.857)" opacity="0.4">
                    <rect width="138.933" height="2" fill="#212529"/>
                    <rect width="123.933" height="2" transform="translate(0 5)" fill="#212529"/>
                    <rect width="129" height="2" transform="translate(0 10)" fill="#212529"/>
                    <rect width="123.933" height="2" transform="translate(0 15)" fill="#212529"/>
                </g>
                <text transform="translate(15 218)" fill="#000000" font-size="25" font-family="Arial-BoldMT, Arial" font-weight="bold">Entry Title</text>
                <path class="img_reference_s_three_columns_default_image_1" fill="url(#theme_loftspace_s_three_columns_default_image_1_id)" d="M3,0H170a3,3,0,0,1,3,3V182a0,0,0,0,1,0,0H0a0,0,0,0,1,0,0V3A3,3,0,0,1,3,0Z"/>
            </g>
            <g transform="translate(457 385)">
                <g transform="translate(0 31)" fill="#FBFBFB" stroke="rgba(0,0,0,0.12)" stroke-width="1">
                    <rect width="173" height="246" rx="3" stroke="none"/>
                    <rect x="0.5" y="0.5" width="172" height="245" rx="2.5" fill="none"/>
                </g>
                <g transform="translate(17 232.857)" opacity="0.4">
                    <rect width="138.933" height="2" fill="#212529"/>
                    <rect width="123.933" height="2" transform="translate(0 5)" fill="#212529"/>
                    <rect width="129" height="2" transform="translate(0 10)" fill="#212529"/>
                    <rect width="123.933" height="2" transform="translate(0 15)" fill="#212529"/>
                </g>
                <text transform="translate(15 218)" fill="#000000" font-size="25" font-family="Arial-BoldMT, Arial" font-weight="bold">Entry Title</text>
                <path class="img_reference_s_three_columns_default_image_3" fill="url(#theme_loftspace_s_three_columns_default_image_3_id)" d="M3,0H170a3,3,0,0,1,3,3V182a0,0,0,0,1,0,0H0a0,0,0,0,1,0,0V3A3,3,0,0,1,3,0Z"/>
            </g>
            <g transform="translate(264 385)">
                <g transform="translate(0 31)" fill="#FBFBFB" stroke="rgba(0,0,0,0.12)" stroke-width="1">
                    <rect width="173" height="246" rx="3" stroke="none"/>
                    <rect x="0.5" y="0.5" width="172" height="245" rx="2.5" fill="none"/>
                </g>
                <g transform="translate(17 232.857)" opacity="0.4">
                    <rect width="138.933" height="2" fill="#212529"/>
                    <rect width="123.933" height="2" transform="translate(0 5)" fill="#212529"/>
                    <rect width="129" height="2" transform="translate(0 10)" fill="#212529"/>
                    <rect width="123.933" height="2" transform="translate(0 15)" fill="#212529"/>
                </g>
                <text transform="translate(15 218)" fill="#000000" font-size="25" font-family="Arial-BoldMT, Arial" font-weight="bold">Entry Title</text>
                <path class="img_reference_s_three_columns_default_image_2" fill="url(#theme_loftspace_s_three_columns_default_image_2_id)" d="M3,0H170a3,3,0,0,1,3,3V182a0,0,0,0,1,0,0H0a0,0,0,0,1,0,0V3A3,3,0,0,1,3,0Z"/>
            </g>
        </g>
        <g class="s_title" transform="translate(0 5)">
            <rect class="img_reference_s_banner_default_image" fill="url(#theme_loftspace_s_banner_default_image_id)" width="700" height="250" transform="translate(0 696)"/>
            <rect width="700" height="250" transform="translate(0 696)" opacity="0.5" fill="#000000"/>
            <text transform="translate(350 838)" text-anchor="middle" fill="#FFFFFF" font-size="50" font-family="Arial-BoldMT, Arial" font-weight="bold">Section Title</text>
        </g>
        <g class="s_images_wall" transform="translate(70 1051)">
            <rect class="img_reference_library_image_03" fill="url(#theme_loftspace_library_image_03_id)" width="180" height="134"/>
            <rect class="img_reference_library_image_02" fill="url(#theme_loftspace_library_image_02_id)" width="180" height="134" transform="translate(190)"/>
            <rect class="img_reference_library_image_10" fill="url(#theme_loftspace_library_image_10_id)" width="180" height="134" transform="translate(380)"/>
            <rect class="img_reference_library_image_05" fill="url(#theme_loftspace_library_image_05_id)" width="180" height="134" transform="translate(0 144)"/>
            <rect class="img_reference_library_image_16" fill="url(#theme_loftspace_library_image_16_id)" width="180" height="134" transform="translate(190 144)"/>
            <rect class="img_reference_library_image_13" fill="url(#theme_loftspace_library_image_13_id)" width="180" height="134" transform="translate(380 144)"/>
        </g>
        <g class="s_call_to_action" transform="translate(0 103)">
            <rect width="700" height="270" transform="translate(0 1327)" fill="#3AADAA"/>
             <g transform="translate(0 1404.663)">
                <path d="M0,311.748c14.3,9.7,31.2,17.4,57.9,17.4,72.895,0,72.895-25.6,145.79-25.6s72.895,26.2,145.79,26.2S422.37,283.6,495.265,283.6s72.895,44.5,145.79,44.5c27.448,0,44.2-2.3,58.746-5.15l.2,7.8L0,330.7Z" transform="translate(0 -138.41)" fill="#FOOTER_COLOR"/>
                <path d="M0,292.247C14.3,304.9,31.2,314.9,57.9,314.9c72.895,0,72.895-33.4,145.79-33.4s72.895,34.1,145.79,34.1,72.895-60.1,145.84-60.1,72.895,58,145.79,58c27.4,0,44.2-3,58.746-6.7" transform="translate(0 -124.359)" fill="none" stroke="#383E45" stroke-width="0.75" opacity="0.25"/>
                <path d="M0,286.9c14.3,12.549,31.2,22.448,57.9,22.448,72.895,0,72.895-37.1,145.79-37.1S276.58,310.3,349.525,310.3s72.895-64.7,145.84-64.7,72.895,60.3,145.79,60.3c27.3,0,44.247-4.15,58.746-9.4" transform="translate(0 -119.409)" fill="none" stroke="#383E45" stroke-width="0.875"/>
                <path d="M0,281.4c14.3,12.449,31.2,22.248,57.9,22.248,72.895,0,72.895-40.747,145.79-40.747s72.895,41.947,145.79,41.947S422.37,235.6,495.315,235.6s72.895,62.5,145.79,62.5c27.448,0,44.2-5.45,58.746-12.2" transform="translate(0 -114.408)" fill="none" stroke="#383E45" stroke-width="0.75" opacity="0.25"/>
                <path d="M0,276.3c14.3,12.4,31.2,22.2,57.9,22.2,72.895,0,72.895-44.7,145.79-44.7s72.895,46.1,145.79,46.1S422.37,225.7,495.315,225.7s72.895,65.1,145.79,65.1c27.3,0,44.247-6.6,58.746-14.9" transform="translate(0 -109.458)" fill="none" stroke="#383E45" stroke-width="0.75" stroke-dasharray="9" opacity="0.25"/>
                <path d="M0,270.746c14.3,12.3,31.2,22,57.9,22,72.895,0,72.895-48.4,145.79-48.4s72.945,50,145.84,50S422.42,215.6,495.315,215.6,568.209,283,641.1,283c27.348,0,44.2-7.849,58.746-17.7" transform="translate(0 -104.407)" fill="none" stroke="#383E45" stroke-width="0.75" opacity="0.25"/>
                <path d="M0,265.9c14.3,12.249,31.2,21.9,57.9,21.9,72.895,0,72.895-52.246,145.79-52.246s72.945,54.1,145.84,54.1S422.42,206.1,495.315,206.1s72.895,69.845,145.79,69.845c27.2,0,44.3-9,58.746-20.249" transform="translate(0 -99.657)" fill="none" stroke="#383E45" stroke-width="0.75" opacity="0.25"/>
                <path d="M0,260.345c14.3,12.1,31.248,21.748,57.9,21.748,72.895,0,72.895-56,145.79-56s72.895,58.1,145.79,58.1S422.37,196,495.265,196s72.895,72.195,145.79,72.195c27.4,0,44.2-10.349,58.746-23.248" transform="translate(0 -94.607)" fill="none" stroke="#383E45" stroke-width="0.75" opacity="0.25"/>
                <path d="M0,255.645c14.3,12.049,31.2,21.548,57.9,21.548,72.895,0,72.895-59.746,145.79-59.746s72.945,62.1,145.84,62.1S422.42,186.7,495.315,186.7s72.895,74.545,145.79,74.545c27.248,0,44.247-11.449,58.746-25.748" transform="translate(0 -89.956)" fill="none" stroke="#383E45" stroke-width="0.75" opacity="0.25"/>
                <path d="M0,249.995c14.3,11.949,31.2,21.4,57.9,21.4,72.895,0,72.895-63.5,145.79-63.5s72.895,66,145.79,66S422.37,176.4,495.265,176.4s72.895,76.895,145.79,76.895c27.348,0,44.247-12.749,58.746-28.648" transform="translate(0 -84.806)" fill="none" stroke="#383E45" stroke-width="0.75" opacity="0.25"/>
                <path d="M0,244.444c14.3,11.849,31.2,21.248,57.9,21.248,72.895,0,72.895-67.245,145.79-67.245s72.895,69.995,145.79,69.995S422.37,166.3,495.315,166.3s72.895,79.244,145.79,79.244c27.3,0,44.247-13.9,58.746-31.248" transform="translate(0 -79.756)" fill="none" stroke="#383E45" stroke-width="0.75" opacity="0.25"/>
                <path d="M0,238.844c14.3,11.8,31.2,21.048,57.9,21.048,72.895,0,72.895-70.995,145.79-70.995s72.945,73.995,145.84,73.995S422.42,156.1,495.315,156.1s72.895,81.594,145.79,81.594c27.2,0,44.3-15.749,58.746-35.5" transform="translate(0 -74.655)" fill="none" stroke="#383E45" stroke-width="0.75" opacity="0.25"/>
                <path d="M0,220.843c14.3,11.7,31.2,21,57.9,21,72.895,0,72.845-82.394,145.74-82.394s72.995,85.644,145.89,85.644S422.52,120,495.415,120s72.845,97.493,145.74,97.493c27.2,0,44.3-20,58.746-45.1" transform="translate(0 -56.604)" fill="none" stroke="#383E45" stroke-width="0.75" opacity="0.25"/>
                <path d="M0,149.29c14.3,19.049,31.2,34.148,57.9,34.148,72.945,0,72.945-121.941,145.84-121.941s72.895,127.191,145.79,127.191S422.42,6.8,495.315,6.8,568.209,143.79,641.1,143.79c27.3,0,44.247-26.6,58.746-59.9" transform="translate(0 0)" fill="none" stroke="#383E45" stroke-width="0.75" opacity="0.25"/>
            </g>
            <text transform="translate(350 1458)" text-anchor="middle" fill="#FFFFFF" font-size="33" font-family="Arial-BoldMT, Arial" font-weight="bold">Section Title</text>
            <rect width="94" height="29" rx="3" transform="translate(251 1481.832)" fill="#FFFFFF"/>
            <text transform="translate(298 1500)" text-anchor="middle" fill="#000000" font-size="11.5" font-family="Arial-BoldMT, Arial" font-weight="bold">Discover</text>
            <rect width="94" height="29" rx="3" transform="translate(356 1482)" fill="#383E45"/>
            <text transform="translate(403 1500)" text-anchor="middle" fill="#FFFFFF" font-size="11.5" font-family="Arial-BoldMT, Arial" font-weight="bold">Contact Us</text>
        </g>
        <g class="svgc_footer" transform="translate(0 41)">
            <rect width="700" height="151" transform="translate(0 1658)" class="svgc_footer_bg" fill="#FOOTER_COLOR"/>
            <g opacity="0.6">
                <rect width="47" height="2" transform="translate(70 1740)" fill="#FOOTER_COLOR" class="svgc_text" filter="url(#filter_readability_loftspace)"/>
                <rect width="39" height="2" transform="translate(70 1745)" fill="#FOOTER_COLOR" class="svgc_text" filter="url(#filter_readability_loftspace)"/>
                <rect width="47" height="2" transform="translate(70 1729)" fill="#FOOTER_COLOR" class="svgc_text" filter="url(#filter_readability_loftspace)"/>
                <rect width="39" height="2" transform="translate(70 1734)" fill="#FOOTER_COLOR" class="svgc_text" filter="url(#filter_readability_loftspace)"/>
                <rect width="47" height="2" transform="translate(70 1718)" fill="#FOOTER_COLOR" class="svgc_text" filter="url(#filter_readability_loftspace)"/>
                <rect width="39" height="2" transform="translate(70 1723)" fill="#FOOTER_COLOR" class="svgc_text" filter="url(#filter_readability_loftspace)"/>
                <rect width="72" height="2" transform="translate(490 1718)" fill="#FOOTER_COLOR" class="svgc_text" filter="url(#filter_readability_loftspace)"/>
                <rect width="60" height="2" transform="translate(490 1723)" fill="#FOOTER_COLOR" class="svgc_text" filter="url(#filter_readability_loftspace)"/>
            </g>
            <g transform="translate(163 1718)" opacity="0.4">
                <rect width="140" height="2" fill="#FOOTER_COLOR" class="svgc_text" filter="url(#filter_readability_loftspace)"/>
                <rect width="125" height="2" transform="translate(0 5)" fill="#FOOTER_COLOR" class="svgc_text" filter="url(#filter_readability_loftspace)"/>
                <rect width="79" height="2" transform="translate(0 10)" fill="#FOOTER_COLOR" class="svgc_text" filter="url(#filter_readability_loftspace)"/>
                <rect width="91" height="2" transform="translate(0 15)" fill="#FOOTER_COLOR" class="svgc_text" filter="url(#filter_readability_loftspace)"/>
            </g>
            <g transform="translate(163 1745)" opacity="0.4">
                <rect width="140" height="2" fill="#FOOTER_COLOR" class="svgc_text" filter="url(#filter_readability_loftspace)"/>
                <rect width="125" height="2" transform="translate(0 5)" fill="#FOOTER_COLOR" class="svgc_text" filter="url(#filter_readability_loftspace)"/>
                <rect width="79" height="2" transform="translate(0 10)" fill="#FOOTER_COLOR" class="svgc_text" filter="url(#filter_readability_loftspace)"/>
                <rect width="91" height="2" transform="translate(0 15)" fill="#FOOTER_COLOR" class="svgc_text" filter="url(#filter_readability_loftspace)"/>
            </g>
            <rect width="47" height="4" transform="translate(70 1704)" fill="#FOOTER_COLOR" class="svgc_text" filter="url(#filter_readability_loftspace)"/>
            <rect width="47" height="4" transform="translate(163 1704)" fill="#FOOTER_COLOR" class="svgc_text" filter="url(#filter_readability_loftspace)"/>
            <rect width="47" height="4" transform="translate(490 1704)" fill="#FOOTER_COLOR" class="svgc_text" filter="url(#filter_readability_loftspace)"/>
            <circle icx="12.5" cy="12.5" r="12.5" transform="translate(502 1740)" fill="#FOOTER_COLOR" class="svgc_text" filter="url(#filter_readability_loftspace)"/>
            <circle icx="12.5" cy="12.5" r="12.5" transform="translate(531 1740)" fill="#FOOTER_COLOR" class="svgc_text" filter="url(#filter_readability_loftspace)"/>
            <circle cx="12.5" cy="12.5" r="12.5" transform="translate(550 1740)" fill="#FOOTER_COLOR" class="svgc_text" filter="url(#filter_readability_loftspace)"/>
            <circle cx="12.5" cy="12.5" r="12.5" transform="translate(605 1740)" fill="#FOOTER_COLOR" class="svgc_text" filter="url(#filter_readability_loftspace)"/>
        </g>
    </g>
</svg>
