<svg width="700" height="2027" viewBox="0 0 700 2027" fill="none" xmlns="http://www.w3.org/2000/svg" data-vsvg="002" class="theme_anelusia_svg_preview">
    <defs>
        <pattern id="theme_anelusia_s_cover_default_image_id" width="1" height="1" patternunits="objectBoundingBox">
            <image width="233" height="310" href="#s_cover_default_image_url" preserveAspectRatio="xMidYMid slice"></image>
        </pattern>
        <pattern id="theme_anelusia_library_image_05_id" width="1" height="1" patternunits="objectBoundingBox">
            <image href="#library_image_05_url" preserveAspectRatio="xMidYMid slice" width="234" height="175"></image>
        </pattern>
        <pattern id="theme_anelusia_library_image_10_id" width="1" height="1" patternunits="objectBoundingBox">
            <image href="#library_image_10_url" preserveAspectRatio="xMidYMid slice" width="234" height="175"></image>
        </pattern>
        <pattern id="theme_anelusia_library_image_13_id" width="1" height="1" patternunits="objectBoundingBox">
            <image href="#library_image_13_url" preserveAspectRatio="xMidYMid slice" width="234" height="175"></image>
        </pattern>
        <pattern id="theme_anelusia_library_image_14_id" width="1" height="1" patternunits="objectBoundingBox">
            <image href="#library_image_14_url" preserveAspectRatio="xMidYMid slice" width="234" height="175"></image>
        </pattern>
        <pattern id="theme_anelusia_library_image_16_id" width="1" height="1" patternunits="objectBoundingBox">
            <image href="#library_image_16_url" preserveAspectRatio="xMidYMid slice" width="234" height="175"></image>
        </pattern>
        <pattern id="theme_anelusia_library_image_03_id" width="1" height="1" patternunits="objectBoundingBox">
            <image href="#library_image_03_url" preserveAspectRatio="xMidYMid slice" width="234" height="175"></image>
        </pattern>
        <pattern id="theme_anelusia_s_reference_demo_image_1_id" preserveAspectRatio="xMidYMid slice" width="100%" height="100%" viewBox="0 0 24 24">
            <image width="24" height="24" href="/web/image/website.s_reference_demo_image_1"></image>
        </pattern>
        <pattern id="theme_anelusia_s_reference_demo_image_2_id" preserveAspectRatio="xMidYMid slice" width="100%" height="100%" viewBox="0 0 24 24">
            <image width="24" height="24" href="/web/image/website.s_reference_demo_image_2"></image>
        </pattern>
        <pattern id="theme_anelusia_s_reference_demo_image_3_id" preserveAspectRatio="xMidYMid slice" width="100%" height="100%" viewBox="0 0 24 24">
            <image width="24" height="24" href="/web/image/website.s_reference_demo_image_3"></image>
        </pattern>
        <pattern id="theme_anelusia_s_reference_demo_image_4_id" preserveAspectRatio="xMidYMid slice" width="100%" height="100%" viewBox="0 0 24 24">
            <image width="24" height="24"  href="/web/image/website.s_reference_demo_image_4"></image>
        </pattern>
        <pattern id="theme_anelusia_s_reference_demo_image_5_id" preserveAspectRatio="xMidYMid slice" width="100%" height="100%" viewBox="0 0 24 24">
            <image width="24" height="24" href="/web/image/website.s_reference_demo_image_1"></image>
        </pattern>
        <pattern id="theme_anelusia_s_reference_demo_image_6_id" preserveAspectRatio="xMidYMid slice" width="100%" height="100%" viewBox="0 0 24 24">
            <image width="24" height="24" href="/web/image/website.s_reference_demo_image_2"></image>
        </pattern>
        <pattern id="theme_anelusia_s_media_list_default_image_1_id" width="1" height="1" patternunits="objectBoundingBox">
            <image href="#s_media_list_default_image_1_url" preserveAspectRatio="xMidYMid slice" width="257" height="172"></image>
        </pattern>
        <pattern id="theme_anelusia_s_media_list_default_image_2_id" width="1" height="1" patternunits="objectBoundingBox">
            <image href="#s_media_list_default_image_2_url" preserveAspectRatio="xMidYMid slice" width="257" height="172"></image>
        </pattern>
        <pattern id="theme_anelusia_s_image_text_default_image_id" width="1" height="1" patternunits="objectBoundingBox">
            <image href="#s_image_text_default_image_url" preserveAspectRatio="xMidYMid slice" width="257" height="172"></image>
        </pattern>
        <pattern id="theme_anelusia_s_text_image_default_image_id" width="1" height="1" patternunits="objectBoundingBox">
            <image href="#s_text_image_default_image_url" preserveAspectRatio="xMidYMid slice" width="257" height="172"></image>
        </pattern>
        <filter id="filter_readability_theme_anelusia">
            <feColorMatrix in="SourceGraphic" type="saturate" values="0"></feColorMatrix>
            <feComponentTransfer>
                <feFuncR type="table" tableValues="1 0"></feFuncR>
                <feFuncG type="table" tableValues="1 0"></feFuncG>
                <feFuncB type="table" tableValues="1 0"></feFuncB>
            </feComponentTransfer>
            <feComponentTransfer>
                <feFuncR type="linear" slope="10000" intercept="-4999.5"></feFuncR>
                <feFuncG type="linear" slope="10000" intercept="-4999.5"></feFuncG>
                <feFuncB type="linear" slope="10000" intercept="-4999.5"></feFuncB>
            </feComponentTransfer>
        </filter>
    </defs>
    <rect width="700" height="2027" fill="#ACACAC"></rect>
    <g clip-path="url(#clip0_62_2)" class="theme_anelusia">
        <rect width="700" height="2027" fill="#FFFFFF"></rect>
        <g class="svgc_menu">
            <path d="M700 0H0V37H700V0Z" fill="#MENU_COLOR" class="svgc_menu_bg"></path>
            <path d="M622.5 11H591.5C587.358 11 584 14.3579 584 18.5C584 22.6421 587.358 26 591.5 26H622.5C626.642 26 630 22.6421 630 18.5C630 14.3579 626.642 11 622.5 11Z" fill="#3AADAA"></path>
            <path d="M356 15H319V22H356V15Z" fill="#MENU_COLOR" fill-opacity="0.3" class="svgc_invert" filter="url(#filter_readability_theme_anelusia)"></path>
            <path d="M298 15H261V22H298V15Z" fill="#MENU_COLOR" fill-opacity="0.3" class="svgc_invert" filter="url(#filter_readability_theme_anelusia)"></path>
            <path d="M240 15H203V22H240V15Z" fill="#MENU_COLOR" fill-opacity="0.3" class="svgc_invert" filter="url(#filter_readability_theme_anelusia)"></path>
            <path d="M182 15H145V22H182V15Z" fill="#MENU_COLOR" class="svgc_invert" filter="url(#filter_readability_theme_anelusia)"></path>
            <path d="M76.345 23V21.479H72.604V14.273H70.759V23H76.345ZM81.025 23.12C81.795 23.12 82.488 22.944 83.105 22.593C83.724 22.243 84.212 21.733 84.572 21.065C84.932 20.398 85.111 19.588 85.111 18.636C85.111 17.685 84.931 16.875 84.571 16.207C84.212 15.54 83.724 15.031 83.106 14.68C82.488 14.329 81.794 14.153 81.024 14.153C80.249 14.153 79.553 14.329 78.936 14.68C78.32 15.03 77.832 15.54 77.475 16.207C77.117 16.875 76.938 17.685 76.938 18.637C76.938 19.585 77.117 20.393 77.475 21.061C77.8052 21.7006 78.3124 22.2317 78.936 22.591C79.553 22.943 80.249 23.119 81.024 23.119L81.025 23.12ZM81.025 21.487C80.6118 21.4962 80.2051 21.382 79.857 21.159C79.524 20.94 79.267 20.619 79.083 20.196C78.9 19.773 78.808 19.253 78.808 18.636C78.808 18.02 78.9 17.5 79.083 17.076C79.266 16.653 79.524 16.332 79.857 16.114C80.2047 15.891 80.6111 15.7767 81.024 15.786C81.47 15.786 81.859 15.895 82.192 16.114C82.524 16.332 82.782 16.654 82.965 17.077C83.149 17.5 83.24 18.02 83.24 18.637C83.24 19.253 83.149 19.773 82.965 20.196C82.782 20.619 82.525 20.94 82.192 21.159C81.8441 21.3823 81.4383 21.4965 81.025 21.487ZM90.302 23.119C91.035 23.119 91.686 22.971 92.254 22.674C92.812 22.3868 93.2762 21.9462 93.592 21.404C93.916 20.854 94.078 20.196 94.078 19.429V18.329H90.426V19.719H92.298L92.294 19.845C92.277 20.082 92.224 20.297 92.137 20.49L92.064 20.63C91.9049 20.9043 91.6674 21.1247 91.382 21.263C91.086 21.413 90.728 21.487 90.311 21.487C89.851 21.487 89.451 21.376 89.113 21.153C88.775 20.93 88.513 20.605 88.329 20.179C88.145 19.753 88.052 19.236 88.052 18.628C88.052 18.02 88.146 17.505 88.333 17.083C88.521 16.661 88.783 16.339 89.12 16.118C89.4695 15.8928 89.8784 15.7772 90.294 15.786C90.532 15.786 90.75 15.816 90.948 15.875C91.145 15.935 91.321 16.021 91.476 16.133C91.631 16.245 91.762 16.381 91.87 16.542C91.978 16.702 92.062 16.886 92.122 17.094H93.997C93.9419 16.6754 93.8043 16.272 93.592 15.907C93.383 15.5479 93.1074 15.2319 92.78 14.976C92.4396 14.7096 92.0556 14.5042 91.645 14.369C91.1996 14.2222 90.7331 14.1492 90.264 14.153C89.7137 14.148 89.1677 14.2509 88.657 14.456C88.1664 14.6551 87.7234 14.9557 87.357 15.338C86.973 15.7437 86.6777 16.2249 86.49 16.751C86.284 17.306 86.181 17.937 86.181 18.645C86.181 19.565 86.354 20.36 86.699 21.029C87.0215 21.6738 87.5242 22.2112 88.146 22.576C88.766 22.938 89.484 23.119 90.302 23.119ZM99.26 23.119C100.03 23.119 100.723 22.944 101.341 22.593C101.959 22.243 102.448 21.733 102.807 21.065C103.167 20.398 103.347 19.588 103.347 18.636C103.347 17.685 103.167 16.875 102.807 16.207C102.447 15.54 101.959 15.031 101.341 14.68C100.723 14.329 100.03 14.153 99.26 14.153C98.484 14.153 97.788 14.329 97.172 14.68C96.555 15.03 96.068 15.54 95.71 16.207C95.352 16.875 95.173 17.685 95.173 18.637C95.173 19.585 95.352 20.393 95.71 21.061C96.068 21.729 96.555 22.239 97.172 22.591C97.788 22.943 98.484 23.119 99.26 23.119ZM99.26 21.487C98.814 21.487 98.424 21.377 98.092 21.159C97.76 20.94 97.502 20.619 97.319 20.196C97.135 19.773 97.044 19.253 97.044 18.636C97.044 18.02 97.135 17.5 97.319 17.076C97.502 16.653 97.759 16.332 98.092 16.114C98.44 15.8908 98.8467 15.7765 99.26 15.786C99.706 15.786 100.095 15.895 100.427 16.114C100.76 16.332 101.017 16.654 101.201 17.077C101.384 17.5 101.476 18.02 101.476 18.637C101.476 19.253 101.384 19.773 101.201 20.196C101.017 20.619 100.76 20.94 100.427 21.159C100.079 21.3821 99.673 21.4963 99.26 21.487Z" fill="#MENU_COLOR" class="svgc_invert" filter="url(#filter_readability_theme_anelusia)"></path>
        </g>
        <g class="s_text_cover">
            <path d="M467 37H0V347H467V37Z" fill="#FFFFFF"></path>
            <path d="M700 37H467V347H700V37Z" fill="url(#theme_anelusia_s_cover_default_image_id)" class="img_reference_s_cover_default_image"></path>
            <text transform="translate(415 147)" text-anchor="end" fill="#000000" class="svgc_text" filter="url(#filter_readability_anelusia)" font-size="30" font-family="Arial-BoldMT, Arial, sans-serif" font-weight="700">
                <tspan x="10" y="0">Welcome</tspan>
                <tspan x="0" y="37">Message</tspan>
            </text>            
            <path d="M402 236H336C328.268 236 322 242.268 322 250C322 257.732 328.268 264 336 264H402C409.732 264 416 257.732 416 250C416 242.268 409.732 236 402 236Z" fill="#3AADAA"></path>
            <text transform="translate(392 254)" text-anchor="middle" fill="#FFFFFF" font-size="12" font-family="Arial-BoldMT, Arial, sans-serif" font-weight="700"><tspan x="-22.471" y="0">Discover</tspan></text>
            <path d="M416.36 207.644H220V209.644H416.36V207.644Z" fill="#FFFFFF" fill-opacity="0.4" class="svgc_invert" filter="url(#filter_readability_theme_anelusia)"></path>
            <path d="M415.876 212.644H242V214.644H415.876V212.644Z" fill="#FFFFFF" fill-opacity="0.4" class="svgc_invert" filter="url(#filter_readability_theme_anelusia)"></path>
        </g>
        <g class="s_images_wall">
            <path d="M467 522H234V697H467V522Z" fill="url(#theme_anelusia_library_image_05_id)" class="img_reference_library_image_05"></path>
            <path d="M234 522H0V697H234V522Z" fill="url(#theme_anelusia_library_image_10_id)" class="img_reference_library_image_10"></path>
            <path d="M467 347H234V522H467V347Z" fill="url(#theme_anelusia_library_image_13_id)" class="img_reference_library_image_13"></path>
            <path d="M700 347H467V522H700V347Z" fill="url(#theme_anelusia_library_image_14_id)" class="img_reference_library_image_14"></path>
            <path d="M700 522H467V697H700V522Z" fill="url(#theme_anelusia_library_image_16_id)" class="img_reference_library_image_16"></path>
            <path d="M234 347H0V522H234V347Z" fill="url(#theme_anelusia_library_image_03_id)" class="img_reference_library_image_03"></path>
        </g>
        <g class="s_color_blocks_2">
            <g>
                <path d="M234 697H0V897H234V697Z" fill="#7C6576"></path>
                <path d="M151 836H85C77.268 836 71 842.268 71 850C71 857.732 77.268 864 85 864H151C158.732 864 165 857.732 165 850C165 842.268 158.732 836 151 836Z" fill="#3AADAA"></path>
                <text transform="translate(140 855)" text-anchor="middle" fill="#FFFFFF" font-size="12" font-family="Arial-BoldMT, Arial, sans-serif" font-weight="700"><tspan x="-22.471" y="0">Discover</tspan></text>
                <text transform="translate(140 792)" text-anchor="middle" fill="#FFFFFF" font-size="22" font-family="Arial-BoldMT, Arial, sans-serif" font-weight="700"><tspan x="-22.471" y="0">Entry Title</tspan></text>
                <path d="M183 814.191H52V816.191H183V814.191Z" fill="#7C6576" fill-opacity="0.4" class="svgc_invert" filter="url(#filter_readability_theme_anelusia)"></path>
                <path d="M176 819.191H60V821.191H176V819.191Z" fill="#7C6576" fill-opacity="0.4" class="svgc_invert" filter="url(#filter_readability_theme_anelusia)"></path>
                <path d="M118 757.966C125.732 757.966 132 751.698 132 743.966C132 736.234 125.732 729.966 118 729.966C110.268 729.966 104 736.234 104 743.966C104 751.698 110.268 757.966 118 757.966Z" fill="#7C6576" class="svgc_invert" filter="url(#filter_readability_theme_anelusia)"></path>
            </g>
            <g>
                <path d="M467 697H234V897H467V697Z" fill="#3AADAA"></path>
                <path d="M384.355 836H318.637C310.938 836 304.697 842.268 304.697 850C304.697 857.732 310.938 864 318.637 864H384.355C392.054 864 398.295 857.732 398.295 850C398.295 842.268 392.054 836 384.355 836Z" fill="#383E45"></path>
                <text transform="translate(375 855)" text-anchor="middle" fill="#FFFFFF" font-size="12" font-family="Arial-BoldMT, Arial, sans-serif" font-weight="700"><tspan x="-22.471" y="0">Discover</tspan></text>
                <text transform="translate(375 792)" text-anchor="middle" fill="#FFFFFF" font-size="22" font-family="Arial-BoldMT, Arial, sans-serif" font-weight="700"><tspan x="-22.471" y="0">Entry Title</tspan></text>
                <path d="M416.218 814.191H285.778V816.191H416.218V814.191Z" fill="#3AADAA" fill-opacity="0.4" class="svgc_invert" filter="url(#filter_readability_theme_anelusia)"></path>
                <path d="M409.248 819.191H293.744V821.191H409.248V819.191Z" fill="#3AADAA" fill-opacity="0.4" class="svgc_invert" filter="url(#filter_readability_theme_anelusia)"></path>
                <path d="M351.496 757.966C359.195 757.966 365.436 751.698 365.436 743.966C365.436 736.234 359.195 729.966 351.496 729.966C343.797 729.966 337.556 736.234 337.556 743.966C337.556 751.698 343.797 757.966 351.496 757.966Z" fill="#3AADAA" class="svgc_invert" filter="url(#filter_readability_theme_anelusia)"></path>
            </g>
            <g>
                <path d="M700 697H467V897H700V697Z" fill="#383E45"></path>
                <path d="M617.355 836H551.637C543.938 836 537.697 842.268 537.697 850C537.697 857.732 543.938 864 551.637 864H617.355C625.054 864 631.295 857.732 631.295 850C631.295 842.268 625.054 836 617.355 836Z" fill="#3AADAA"></path>
                <text transform="translate(605 855)" text-anchor="middle" fill="#FFFFFF" font-size="12" font-family="Arial-BoldMT, Arial, sans-serif" font-weight="700"><tspan x="-22.471" y="0">Discover</tspan></text>
                <text transform="translate(605 792)" text-anchor="middle" fill="#FFFFFF" font-size="22" font-family="Arial-BoldMT, Arial, sans-serif" font-weight="700"><tspan x="-22.471" y="0">Entry Title</tspan></text>
                <path d="M649.218 814.191H518.778V816.191H649.218V814.191Z" fill="#383E45" fill-opacity="0.4" class="svgc_invert" filter="url(#filter_readability_theme_anelusia)"></path>
                <path d="M642.248 819.191H526.744V821.191H642.248V819.191Z" fill="#383E45" fill-opacity="0.4" class="svgc_invert" filter="url(#filter_readability_theme_anelusia)"></path>
                <path d="M584.496 757.966C592.195 757.966 598.436 751.698 598.436 743.966C598.436 736.234 592.195 729.966 584.496 729.966C576.797 729.966 570.556 736.234 570.556 743.966C570.556 751.698 576.797 757.966 584.496 757.966Z" fill="#383E45" class="svgc_invert" filter="url(#filter_readability_theme_anelusia)"></path>
            </g>
        </g>
        <g class="s_references">
            <rect y="897" width="700" height="213" fill="#FFFFFF"></rect>
            <path d="M112 1078C135.196 1078 154 1059.2 154 1036C154 1012.8 135.196 994 112 994C88.804 994 70 1012.8 70 1036C70 1059.2 88.804 1078 112 1078Z" fill="url(#theme_anelusia_s_reference_demo_image_1_id)" class="img_reference_s_reference_demo_image_1"></path>
            <path d="M207 1078C230.196 1078 249 1059.2 249 1036C249 1012.8 230.196 994 207 994C183.804 994 165 1012.8 165 1036C165 1059.2 183.804 1078 207 1078Z" fill="url(#theme_anelusia_s_reference_demo_image_2_id)" class="img_reference_s_reference_demo_image_2"></path>
            <path d="M302.4 1078C325.596 1078 344.4 1059.2 344.4 1036C344.4 1012.8 325.596 994 302.4 994C279.204 994 260.4 1012.8 260.4 1036C260.4 1059.2 279.204 1078 302.4 1078Z" fill="url(#theme_anelusia_s_reference_demo_image_3_id)" class="img_reference_s_reference_demo_image_3"></path>
            <path d="M397.6 1078C420.796 1078 439.6 1059.2 439.6 1036C439.6 1012.8 420.796 994 397.6 994C374.404 994 355.6 1012.8 355.6 1036C355.6 1059.2 374.404 1078 397.6 1078Z" fill="url(#theme_anelusia_s_reference_demo_image_4_id)" class="img_reference_s_reference_demo_image_4"></path>
            <path d="M492.8 1078C515.996 1078 534.8 1059.2 534.8 1036C534.8 1012.8 515.996 994 492.8 994C469.604 994 450.8 1012.8 450.8 1036C450.8 1059.2 469.604 1078 492.8 1078Z" fill="url(#theme_anelusia_s_reference_demo_image_5_id)" class="img_reference_s_reference_demo_image_5"></path>
            <path d="M588 1078C611.196 1078 630 1059.2 630 1036C630 1012.8 611.196 994 588 994C564.804 994 546 1012.8 546 1036C546 1059.2 564.804 1078 588 1078Z" fill="url(#theme_anelusia_s_reference_demo_image_6_id)" class="img_reference_s_reference_demo_image_6"></path>
            <path d="M384 966.52H290.559V968.52H384V966.52Z" fill="#FFFFFF" fill-opacity="0.4" class="svgc_invert" filter="url(#filter_readability_theme_anelusia)"></path>
            <path d="M378.435 971.52H296.559V973.52H378.435V971.52Z" fill="#FFFFFF" fill-opacity="0.4" class="svgc_invert" filter="url(#filter_readability_theme_anelusia)"></path>
            <text transform="translate(359 949)" text-anchor="middle" fill="#000000" font-size="22" font-family="Arial-BoldMT, Arial, sans-serif" font-weight="700"><tspan x="-22.471" y="0">Section Title</tspan></text>
        </g>
        <g class="s_media_list">
            <path d="M700 1110H0V1430H700V1110Z" fill="#383E45"></path>
            <g>
                <g>
                    <g>
                        <path d="M350 1171.26H90.976V1260H350V1171.26Z" fill="#7C6576"></path>
                        <path fill-rule="evenodd" clip-rule="evenodd" d="M327.034 1246.55H70.406V1130L327.034 1155.28V1246.55Z" fill="url(#theme_anelusia_s_media_list_default_image_1_id)" class="img_reference_s_media_list_default_image_1"></path>
                    </g>
                    <g>
                        <path d="M270.502 1136.43H269.001V1137.92H270.502V1136.43Z" fill="#FFFFFF"></path>
                        <path d="M270.502 1145.53H269.001V1147.02H270.502V1145.53Z" fill="#FFFFFF"></path>
                        <path d="M270.502 1154.62H269.001V1156.11H270.502V1154.62Z" fill="#FFFFFF"></path>
                        <path d="M270.502 1163.72H269.001V1165.21H270.502V1163.72Z" fill="#FFFFFF"></path>
                        <path d="M270.502 1172.81H269.001V1174.3H270.502V1172.81Z" fill="#FFFFFF"></path>
                        <path d="M278.459 1136.43H276.958V1137.92H278.459V1136.43Z" fill="#FFFFFF"></path>
                        <path d="M278.459 1145.53H276.958V1147.02H278.459V1145.53Z" fill="#FFFFFF"></path>
                        <path d="M278.459 1154.62H276.958V1156.11H278.459V1154.62Z" fill="#FFFFFF"></path>
                        <path d="M278.459 1163.72H276.958V1165.21H278.459V1163.72Z" fill="#FFFFFF"></path>
                        <path d="M278.459 1172.81H276.958V1174.3H278.459V1172.81Z" fill="#FFFFFF"></path>
                        <path d="M286.416 1136.43H284.915V1137.92H286.416V1136.43Z" fill="#FFFFFF"></path>
                        <path d="M286.416 1145.53H284.915V1147.02H286.416V1145.53Z" fill="#FFFFFF"></path>
                        <path d="M286.416 1154.62H284.915V1156.11H286.416V1154.62Z" fill="#FFFFFF"></path>
                        <path d="M286.416 1163.72H284.915V1165.21H286.416V1163.72Z" fill="#FFFFFF"></path>
                        <path d="M286.416 1172.81H284.915V1174.3H286.416V1172.81Z" fill="#FFFFFF"></path>
                        <path d="M294.382 1136.43H292.881V1137.92H294.382V1136.43Z" fill="#FFFFFF"></path>
                        <path d="M294.382 1145.53H292.881V1147.02H294.382V1145.53Z" fill="#FFFFFF"></path>
                        <path d="M294.382 1154.62H292.881V1156.11H294.382V1154.62Z" fill="#FFFFFF"></path>
                        <path d="M294.382 1163.72H292.881V1165.21H294.382V1163.72Z" fill="#FFFFFF"></path>
                        <path d="M294.382 1172.81H292.881V1174.3H294.382V1172.81Z" fill="#FFFFFF"></path>
                    </g>
                </g>
                <path d="M477 1218.2H411C403.268 1218.2 397 1224.47 397 1232.2C397 1239.94 403.268 1246.2 411 1246.2H477C484.732 1246.2 491 1239.94 491 1232.2C491 1224.47 484.732 1218.2 477 1218.2Z" fill="#3AADAA"></path>
                <path d="M599.461 1179.01H397.205V1181.01H599.461V1179.01Z" fill="#383E45" fill-opacity="0.4" class="svgc_invert" filter="url(#filter_readability_theme_anelusia)"></path>
                <path d="M584.461 1184.01H397.205V1186.01H584.461V1184.01Z" fill="#383E45" fill-opacity="0.4" class="svgc_invert" filter="url(#filter_readability_theme_anelusia)"></path>
                <path d="M532.205 1189.01H397.205V1191.01H532.205V1189.01Z" fill="#383E45" fill-opacity="0.4" class="svgc_invert" filter="url(#filter_readability_theme_anelusia)"></path>
                <path d="M556.205 1194.01H397.205V1196.01H556.205V1194.01Z" fill="#383E45" fill-opacity="0.4" class="svgc_invert" filter="url(#filter_readability_theme_anelusia)"></path>
                <text transform="translate(466 1236)" text-anchor="middle" fill="#FFFFFF" font-size="12" font-family="Arial-BoldMT, Arial, sans-serif" font-weight="700"><tspan x="-22.471" y="0">Discover</tspan></text>
                <text transform="translate(418 1159)" text-anchor="start" fill="#FFFFFF" font-size="20" font-family="Arial-BoldMT, Arial, sans-serif" font-weight="700"><tspan x="-22.471" y="0">Entry Title</tspan></text>                
            </g>
            <g>
                <path d="M180.539 1367.2H114.539C106.807 1367.2 100.539 1373.47 100.539 1381.2C100.539 1388.94 106.807 1395.2 114.539 1395.2H180.539C188.271 1395.2 194.539 1388.94 194.539 1381.2C194.539 1373.47 188.271 1367.2 180.539 1367.2Z" fill="#3AADAA"></path>
                <path d="M303 1328.01H100.744V1330.01H303V1328.01Z" fill="#383E45" fill-opacity="0.4" class="svgc_invert" filter="url(#filter_readability_theme_anelusia)"></path>
                <path d="M288 1333.01H100.744V1335.01H288V1333.01Z" fill="#383E45" fill-opacity="0.4" class="svgc_invert" filter="url(#filter_readability_theme_anelusia)"></path>
                <path d="M235.744 1338.01H100.744V1340.01H235.744V1338.01Z" fill="#383E45" fill-opacity="0.4" class="svgc_invert" filter="url(#filter_readability_theme_anelusia)"></path>
                <path d="M259.744 1343.01H100.744V1345.01H259.744V1343.01Z" fill="#383E45" fill-opacity="0.4" class="svgc_invert" filter="url(#filter_readability_theme_anelusia)"></path>
                <text transform="translate(169 1385)" text-anchor="middle" fill="#FFFFFF" font-size="12" font-family="Arial-BoldMT, Arial, sans-serif" font-weight="700"><tspan x="-22.471" y="0">Discover</tspan></text>
                <text transform="translate(122 1305)" text-anchor="start" fill="#FFFFFF" font-size="20" font-family="Arial-BoldMT, Arial, sans-serif" font-weight="700"><tspan x="-22.471" y="0">Entry Title</tspan></text>                
                <g>
                    <g>
                        <path fill-rule="evenodd" clip-rule="evenodd" d="M379.024 1280H630V1383.91L379.024 1280Z" fill="#3AADAA"></path>
                        <path fill-rule="evenodd" clip-rule="evenodd" d="M350 1292.71H615V1410L350 1384.51V1292.71Z" fill="url(#theme_anelusia_s_media_list_default_image_2_id)" class="img_reference_s_media_list_default_image_2"></path>
                    </g>
                    <g>
                        <path fill-rule="evenodd" clip-rule="evenodd" d="M380.443 1370.01H381.843L381.143 1371.43L380.443 1372.85L379.743 1371.43L379.043 1370.01H380.443Z" fill="#7C6576"></path>
                        <path fill-rule="evenodd" clip-rule="evenodd" d="M396.299 1370.01H397.699L396.999 1371.43L396.299 1372.85L395.599 1371.43L394.899 1370.01H396.299Z" fill="#7C6576"></path>
                        <path fill-rule="evenodd" clip-rule="evenodd" d="M412.155 1370.01H413.555L412.855 1371.43L412.155 1372.85L411.455 1371.43L410.755 1370.01H412.155Z" fill="#7C6576"></path>
                        <path fill-rule="evenodd" clip-rule="evenodd" d="M380.443 1385.79H381.843L381.143 1387.21L380.443 1388.63L379.743 1387.21L379.043 1385.79H380.443Z" fill="#7C6576"></path>
                        <path fill-rule="evenodd" clip-rule="evenodd" d="M396.299 1385.79H397.699L396.999 1387.21L396.299 1388.63L395.599 1387.21L394.899 1385.79H396.299Z" fill="#7C6576"></path>
                        <path fill-rule="evenodd" clip-rule="evenodd" d="M412.155 1385.79H413.555L412.855 1387.21L412.155 1388.63L411.455 1387.21L410.755 1385.79H412.155Z" fill="#7C6576"></path>
                        <path fill-rule="evenodd" clip-rule="evenodd" d="M380.443 1401.57H381.843L381.143 1402.99L380.443 1404.43L379.743 1402.99L379.043 1401.57H380.443Z" fill="#7C6576"></path>
                        <path fill-rule="evenodd" clip-rule="evenodd" d="M396.299 1401.57H397.699L396.999 1402.99L396.299 1404.43L395.599 1402.99L394.899 1401.57H396.299Z" fill="#7C6576"></path>
                        <path fill-rule="evenodd" clip-rule="evenodd" d="M412.155 1401.57H413.555L412.855 1402.99L412.155 1404.43L411.455 1402.99L410.755 1401.57H412.155Z" fill="#7C6576"></path>
                    </g>
                </g>
            </g>
        </g>
        <g class="s_key_images">
            <rect y="1430" width="700" height="347" fill="#7C6576"></rect>
            <path d="M264 1490H70V1492H264V1490Z" fill="#7C6576" fill-opacity="0.4" class="svgc_invert" filter="url(#filter_readability_theme_anelusia)"></path>
            <path d="M250 1495H70V1497H250V1495Z" fill="#7C6576" fill-opacity="0.4" class="svgc_invert" filter="url(#filter_readability_theme_anelusia)"></path>
            <text transform="translate(93 1479)" text-anchor="start" fill="#FFFFFF" font-size="20" font-family="Arial-BoldMT, Arial, sans-serif" font-weight="700"><tspan x="-22.471" y="0">Entry Title</tspan></text>                
            <path d="M75.4883 1523.62C76.875 1523.62 77.959 1524.12 78.7402 1525.11C79.6712 1526.28 80.1367 1528.22 80.1367 1530.94C80.1367 1533.65 79.668 1535.59 78.7305 1536.78C77.9557 1537.76 76.875 1538.24 75.4883 1538.24C74.0951 1538.24 72.972 1537.71 72.1191 1536.64C71.2663 1535.57 70.8398 1533.66 70.8398 1530.91C70.8398 1528.21 71.3086 1526.27 72.2461 1525.09C73.0208 1524.11 74.1016 1523.62 75.4883 1523.62ZM75.4883 1525.9C75.1562 1525.9 74.86 1526.01 74.5996 1526.22C74.3392 1526.43 74.1374 1526.81 73.9941 1527.36C73.8053 1528.07 73.7109 1529.26 73.7109 1530.94C73.7109 1532.62 73.7956 1533.77 73.9648 1534.41C74.1341 1535.03 74.3457 1535.45 74.5996 1535.66C74.86 1535.86 75.1562 1535.97 75.4883 1535.97C75.8203 1535.97 76.1165 1535.86 76.377 1535.66C76.6374 1535.44 76.8392 1535.06 76.9824 1534.51C77.1712 1533.81 77.2656 1532.62 77.2656 1530.94C77.2656 1529.26 77.181 1528.11 77.0117 1527.48C76.8424 1526.85 76.6276 1526.43 76.3672 1526.22C76.1133 1526.01 75.8203 1525.9 75.4883 1525.9ZM89.0039 1538H86.2598V1527.66C85.2572 1528.6 84.0755 1529.29 82.7148 1529.74V1527.25C83.431 1527.01 84.209 1526.57 85.0488 1525.92C85.8887 1525.26 86.4648 1524.5 86.7773 1523.62H89.0039V1538Z" fill="#7C6576" class="svgc_invert" filter="url(#filter_readability_theme_anelusia)"></path>
            <path d="M220.488 1523.62C221.875 1523.62 222.959 1524.12 223.74 1525.11C224.671 1526.28 225.137 1528.22 225.137 1530.94C225.137 1533.65 224.668 1535.59 223.73 1536.78C222.956 1537.76 221.875 1538.24 220.488 1538.24C219.095 1538.24 217.972 1537.71 217.119 1536.64C216.266 1535.57 215.84 1533.66 215.84 1530.91C215.84 1528.21 216.309 1526.27 217.246 1525.09C218.021 1524.11 219.102 1523.62 220.488 1523.62ZM220.488 1525.9C220.156 1525.9 219.86 1526.01 219.6 1526.22C219.339 1526.43 219.137 1526.81 218.994 1527.36C218.805 1528.07 218.711 1529.26 218.711 1530.94C218.711 1532.62 218.796 1533.77 218.965 1534.41C219.134 1535.03 219.346 1535.45 219.6 1535.66C219.86 1535.86 220.156 1535.97 220.488 1535.97C220.82 1535.97 221.117 1535.86 221.377 1535.66C221.637 1535.44 221.839 1535.06 221.982 1534.51C222.171 1533.81 222.266 1532.62 222.266 1530.94C222.266 1529.26 222.181 1528.11 222.012 1527.48C221.842 1526.85 221.628 1526.43 221.367 1526.22C221.113 1526.01 220.82 1525.9 220.488 1525.9ZM236.25 1535.45V1538H226.631C226.735 1537.04 227.048 1536.12 227.568 1535.27C228.089 1534.4 229.118 1533.25 230.654 1531.83C231.891 1530.68 232.65 1529.89 232.93 1529.48C233.307 1528.92 233.496 1528.36 233.496 1527.8C233.496 1527.19 233.33 1526.72 232.998 1526.4C232.673 1526.07 232.22 1525.9 231.641 1525.9C231.068 1525.9 230.612 1526.07 230.273 1526.42C229.935 1526.76 229.74 1527.34 229.688 1528.14L226.953 1527.86C227.116 1526.35 227.627 1525.27 228.486 1524.61C229.346 1523.95 230.42 1523.62 231.709 1523.62C233.122 1523.62 234.232 1524.01 235.039 1524.77C235.846 1525.53 236.25 1526.48 236.25 1527.61C236.25 1528.25 236.133 1528.87 235.898 1529.46C235.671 1530.03 235.306 1530.64 234.805 1531.28C234.473 1531.7 233.874 1532.31 233.008 1533.11C232.142 1533.9 231.592 1534.43 231.357 1534.69C231.13 1534.95 230.944 1535.2 230.801 1535.45H236.25Z" fill="#7C6576" class="svgc_invert" filter="url(#filter_readability_theme_anelusia)"></path>
            <path d="M365.488 1523.62C366.875 1523.62 367.959 1524.12 368.74 1525.11C369.671 1526.28 370.137 1528.22 370.137 1530.94C370.137 1533.65 369.668 1535.59 368.73 1536.78C367.956 1537.76 366.875 1538.24 365.488 1538.24C364.095 1538.24 362.972 1537.71 362.119 1536.64C361.266 1535.57 360.84 1533.66 360.84 1530.91C360.84 1528.21 361.309 1526.27 362.246 1525.09C363.021 1524.11 364.102 1523.62 365.488 1523.62ZM365.488 1525.9C365.156 1525.9 364.86 1526.01 364.6 1526.22C364.339 1526.43 364.137 1526.81 363.994 1527.36C363.805 1528.07 363.711 1529.26 363.711 1530.94C363.711 1532.62 363.796 1533.77 363.965 1534.41C364.134 1535.03 364.346 1535.45 364.6 1535.66C364.86 1535.86 365.156 1535.97 365.488 1535.97C365.82 1535.97 366.117 1535.86 366.377 1535.66C366.637 1535.44 366.839 1535.06 366.982 1534.51C367.171 1533.81 367.266 1532.62 367.266 1530.94C367.266 1529.26 367.181 1528.11 367.012 1527.48C366.842 1526.85 366.628 1526.43 366.367 1526.22C366.113 1526.01 365.82 1525.9 365.488 1525.9ZM371.885 1534.2L374.541 1533.88C374.626 1534.56 374.854 1535.07 375.225 1535.43C375.596 1535.79 376.045 1535.97 376.572 1535.97C377.139 1535.97 377.614 1535.75 377.998 1535.32C378.389 1534.89 378.584 1534.32 378.584 1533.59C378.584 1532.9 378.398 1532.35 378.027 1531.95C377.656 1531.54 377.204 1531.34 376.67 1531.34C376.318 1531.34 375.898 1531.41 375.41 1531.54L375.713 1529.31C376.455 1529.33 377.021 1529.17 377.412 1528.83C377.803 1528.49 377.998 1528.03 377.998 1527.46C377.998 1526.98 377.855 1526.6 377.568 1526.31C377.282 1526.02 376.901 1525.88 376.426 1525.88C375.957 1525.88 375.557 1526.04 375.225 1526.37C374.893 1526.69 374.691 1527.17 374.619 1527.79L372.09 1527.37C372.266 1526.5 372.529 1525.81 372.881 1525.29C373.239 1524.77 373.734 1524.37 374.365 1524.07C375.003 1523.77 375.716 1523.62 376.504 1523.62C377.852 1523.62 378.932 1524.05 379.746 1524.91C380.417 1525.62 380.752 1526.41 380.752 1527.3C380.752 1528.55 380.065 1529.56 378.691 1530.3C379.512 1530.48 380.166 1530.87 380.654 1531.49C381.149 1532.1 381.396 1532.84 381.396 1533.7C381.396 1534.96 380.938 1536.03 380.02 1536.92C379.102 1537.8 377.959 1538.24 376.592 1538.24C375.296 1538.24 374.222 1537.87 373.369 1537.13C372.516 1536.38 372.021 1535.41 371.885 1534.2Z" fill="#7C6576" class="svgc_invert" filter="url(#filter_readability_theme_anelusia)"></path>
            <path d="M510.488 1523.62C511.875 1523.62 512.959 1524.12 513.74 1525.11C514.671 1526.28 515.137 1528.22 515.137 1530.94C515.137 1533.65 514.668 1535.59 513.73 1536.78C512.956 1537.76 511.875 1538.24 510.488 1538.24C509.095 1538.24 507.972 1537.71 507.119 1536.64C506.266 1535.57 505.84 1533.66 505.84 1530.91C505.84 1528.21 506.309 1526.27 507.246 1525.09C508.021 1524.11 509.102 1523.62 510.488 1523.62ZM510.488 1525.9C510.156 1525.9 509.86 1526.01 509.6 1526.22C509.339 1526.43 509.137 1526.81 508.994 1527.36C508.805 1528.07 508.711 1529.26 508.711 1530.94C508.711 1532.62 508.796 1533.77 508.965 1534.41C509.134 1535.03 509.346 1535.45 509.6 1535.66C509.86 1535.86 510.156 1535.97 510.488 1535.97C510.82 1535.97 511.117 1535.86 511.377 1535.66C511.637 1535.44 511.839 1535.06 511.982 1534.51C512.171 1533.81 512.266 1532.62 512.266 1530.94C512.266 1529.26 512.181 1528.11 512.012 1527.48C511.842 1526.85 511.628 1526.43 511.367 1526.22C511.113 1526.01 510.82 1525.9 510.488 1525.9ZM522.363 1538V1535.12H516.504V1532.72L522.715 1523.62H525.02V1532.71H526.797V1535.12H525.02V1538H522.363ZM522.363 1532.71V1527.81L519.072 1532.71H522.363Z" fill="#7C6576" class="svgc_invert" filter="url(#filter_readability_theme_anelusia)"></path>
            <path d="M176 1731H70V1733H176V1731Z" fill="#7C6576" fill-opacity="0.4" class="svgc_invert" filter="url(#filter_readability_theme_anelusia)"></path>
            <path d="M195 1736H70V1738H195V1736Z" fill="#7C6576" fill-opacity="0.4" class="svgc_invert" filter="url(#filter_readability_theme_anelusia)"></path>
            <path d="M321 1731H215V1733H321V1731Z" fill="#7C6576" fill-opacity="0.4" class="svgc_invert" filter="url(#filter_readability_theme_anelusia)"></path>
            <path d="M340 1736H215V1738H340V1736Z" fill="#7C6576" fill-opacity="0.4" class="svgc_invert" filter="url(#filter_readability_theme_anelusia)"></path>
            <path d="M466 1731H360V1733H466V1731Z" fill="#7C6576" fill-opacity="0.4" class="svgc_invert" filter="url(#filter_readability_theme_anelusia)"></path>
            <path d="M485 1736H360V1738H485V1736Z" fill="#7C6576" fill-opacity="0.4" class="svgc_invert" filter="url(#filter_readability_theme_anelusia)"></path>
            <path d="M611 1731H505V1733H611V1731Z" fill="#7C6576" fill-opacity="0.4" class="svgc_invert" filter="url(#filter_readability_theme_anelusia)"></path>
            <path d="M630 1736H505V1738H630V1736Z" fill="#7C6576" fill-opacity="0.4" class="svgc_invert" filter="url(#filter_readability_theme_anelusia)"></path>
            <path d="M70 1577.5L195 1549V1721H70V1577.5Z" fill="url(#theme_anelusia_s_media_list_default_image_1_id)" class="img_reference_s_media_list_default_image_1"></path>
            <rect x="215" y="1549" width="125" height="172" fill="url(#theme_anelusia_s_image_text_default_image_id)" class="img_reference_s_image_text_default_image"></rect>
            <rect x="360" y="1549" width="125" height="172" fill="url(#theme_anelusia_s_media_list_default_image_2_id)" class="img_reference_s_media_list_default_image_2"></rect>
            <path d="M630 1692.5L505 1721L505 1549L630 1549L630 1692.5Z" fill="url(#theme_anelusia_s_text_image_default_image_id)" class="img_reference_s_text_image_default_image"></path>
        </g>
        <g class="s_call_to_action">
            <path d="M700 1777H0V1927H700V1777Z" fill="#3AADAA"></path>
            <g>
                <path d="M383 1868H317C309.268 1868 303 1874.27 303 1882C303 1889.73 309.268 1896 317 1896H383C390.732 1896 397 1889.73 397 1882C397 1874.27 390.732 1868 383 1868Z" fill="#383E45"></path>
                <path d="M416 1846H285V1848H416V1846Z" fill="#3AADAA" fill-opacity="0.4" class="svgc_invert" filter="url(#filter_readability_theme_anelusia)"></path>
                <path d="M409 1851H293V1853H409V1851Z" fill="#3AADAA" fill-opacity="0.4" class="svgc_invert" filter="url(#filter_readability_theme_anelusia)"></path>
                <text transform="translate(373 1885)" text-anchor="middle" fill="#FFFFFF" font-size="12" font-family="Arial-BoldMT, Arial, sans-serif" font-weight="700"><tspan x="-22.471" y="0">Discover</tspan></text>
                <text transform="translate(373 1825)" text-anchor="middle" fill="#FFFFFF" font-size="22" font-family="Arial-BoldMT, Arial, sans-serif" font-weight="700"><tspan x="-22.471" y="0">Section Title</tspan></text>                
            </g>
            <g>
                <path fill-rule="evenodd" clip-rule="evenodd" d="M636.232 1834.43L618.798 1809.16L593.527 1791.73L614.871 1777H657.594L678.938 1791.73L653.665 1809.16L636.231 1834.43L636.232 1834.43Z" fill="url(#paint0_linear_62_2)"></path>
                <path fill-rule="evenodd" clip-rule="evenodd" d="M86.865 1927H27.492C25.0485 1922.16 23.3815 1916.97 22.552 1911.62C21.6743 1906.38 21.6261 1901.04 22.409 1895.78C23.6426 1888.16 26.9897 1881.03 32.07 1875.22C34.5515 1872.3 37.2799 1869.6 40.225 1867.15C42.909 1864.89 45.991 1862.57 49.65 1860.05C54.88 1856.35 60.439 1853.14 66.257 1850.46C72.471 1847.7 78.016 1846.36 83.209 1846.36C85.8184 1846.35 88.4151 1846.72 90.918 1847.46C94.3962 1848.57 97.6536 1850.27 100.542 1852.5C103.637 1854.86 106.383 1857.64 108.699 1860.76C111.081 1863.93 113.003 1867.42 114.409 1871.13C115.809 1874.77 116.582 1878.62 116.693 1882.52C116.848 1889.84 114.362 1897.39 109.302 1904.96C106.766 1908.69 103.881 1912.18 100.686 1915.37C97.2448 1918.82 93.5617 1922.01 89.665 1924.93C88.744 1925.63 87.8 1926.33 86.865 1927Z" fill="url(#paint1_linear_62_2)"></path>
                <path fill-rule="evenodd" clip-rule="evenodd" d="M90.033 1850.93C89.8708 1850.93 89.7102 1850.9 89.5604 1850.84C89.4105 1850.78 89.2745 1850.69 89.16 1850.57C89.0452 1850.46 88.9542 1850.32 88.8921 1850.17C88.83 1850.02 88.798 1849.86 88.798 1849.7C88.798 1849.54 88.83 1849.37 88.8921 1849.22C88.9542 1849.07 89.0452 1848.94 89.16 1848.82L151.706 1786.28C151.821 1786.16 151.957 1786.07 152.107 1786.01C152.257 1785.95 152.417 1785.92 152.579 1785.92C152.742 1785.92 152.902 1785.95 153.052 1786.01C153.202 1786.07 153.338 1786.16 153.453 1786.28C153.568 1786.39 153.659 1786.53 153.721 1786.68C153.783 1786.83 153.815 1786.99 153.815 1787.15C153.815 1787.31 153.783 1787.47 153.721 1787.62C153.659 1787.77 153.568 1787.91 153.453 1788.02L90.906 1850.57C90.7915 1850.69 90.6554 1850.78 90.5056 1850.84C90.3558 1850.9 90.1952 1850.93 90.033 1850.93Z" fill="#383E45"></path>
                <path fill-rule="evenodd" clip-rule="evenodd" d="M90.033 1858.2C89.8708 1858.2 89.7102 1858.17 89.5604 1858.11C89.4105 1858.04 89.2745 1857.95 89.16 1857.84C89.0452 1857.72 88.9542 1857.59 88.8921 1857.44C88.83 1857.29 88.798 1857.13 88.798 1856.96C88.798 1856.8 88.83 1856.64 88.8921 1856.49C88.9542 1856.34 89.0452 1856.21 89.16 1856.09L151.706 1793.55C151.821 1793.43 151.957 1793.34 152.107 1793.28C152.257 1793.22 152.417 1793.18 152.579 1793.18C152.742 1793.18 152.902 1793.22 153.052 1793.28C153.202 1793.34 153.338 1793.43 153.453 1793.55C153.568 1793.66 153.659 1793.8 153.721 1793.95C153.783 1794.1 153.815 1794.26 153.815 1794.42C153.815 1794.58 153.783 1794.74 153.721 1794.89C153.659 1795.04 153.568 1795.18 153.453 1795.29L90.906 1857.84C90.7915 1857.95 90.6554 1858.04 90.5056 1858.11C90.3558 1858.17 90.1952 1858.2 90.033 1858.2Z" fill="#383E45"></path>
                <path fill-rule="evenodd" clip-rule="evenodd" d="M90.033 1865.47C89.8708 1865.47 89.7102 1865.44 89.5604 1865.37C89.4105 1865.31 89.2745 1865.22 89.16 1865.1C89.0452 1864.99 88.9542 1864.85 88.8921 1864.7C88.83 1864.55 88.798 1864.39 88.798 1864.23C88.798 1864.07 88.83 1863.91 88.8921 1863.76C88.9542 1863.61 89.0452 1863.47 89.16 1863.36L151.706 1800.81C151.821 1800.7 151.957 1800.61 152.107 1800.54C152.257 1800.48 152.417 1800.45 152.579 1800.45C152.742 1800.45 152.902 1800.48 153.052 1800.54C153.202 1800.61 153.338 1800.7 153.453 1800.81C153.568 1800.93 153.659 1801.06 153.721 1801.21C153.783 1801.36 153.815 1801.52 153.815 1801.69C153.815 1801.85 153.783 1802.01 153.721 1802.16C153.659 1802.31 153.568 1802.44 153.453 1802.56L90.906 1865.1C90.7915 1865.22 90.6554 1865.31 90.5056 1865.37C90.3558 1865.44 90.1952 1865.47 90.033 1865.47Z" fill="#383E45"></path>
                <path fill-rule="evenodd" clip-rule="evenodd" d="M90.033 1872.73C89.8708 1872.74 89.7102 1872.7 89.5604 1872.64C89.4105 1872.58 89.2745 1872.49 89.16 1872.37C89.0452 1872.26 88.9542 1872.12 88.8921 1871.97C88.83 1871.82 88.798 1871.66 88.798 1871.5C88.798 1871.34 88.83 1871.18 88.8921 1871.03C88.9542 1870.88 89.0452 1870.74 89.16 1870.63L151.706 1808.08C151.821 1807.97 151.957 1807.87 152.107 1807.81C152.257 1807.75 152.417 1807.72 152.579 1807.72C152.742 1807.72 152.902 1807.75 153.052 1807.81C153.202 1807.87 153.338 1807.97 153.453 1808.08C153.568 1808.19 153.659 1808.33 153.721 1808.48C153.783 1808.63 153.815 1808.79 153.815 1808.95C153.815 1809.12 153.783 1809.28 153.721 1809.43C153.659 1809.58 153.568 1809.71 153.453 1809.83L90.906 1872.37C90.7915 1872.49 90.6554 1872.58 90.5056 1872.64C90.3558 1872.7 90.1952 1872.74 90.033 1872.73Z" fill="#383E45"></path>
                <path d="M604.267 1908.54H600.809V1912H604.267V1908.54Z" fill="#383E45"></path>
                <path d="M616.089 1908.54H612.631V1912H616.089V1908.54Z" fill="#383E45"></path>
                <path d="M627.907 1908.54H624.449V1912H627.907V1908.54Z" fill="#383E45"></path>
                <path d="M639.724 1908.54H636.266V1912H639.724V1908.54Z" fill="#383E45"></path>
                <path d="M651.547 1908.54H648.089V1912H651.547V1908.54Z" fill="#383E45"></path>
                <path d="M663.365 1908.54H659.907V1912H663.365V1908.54Z" fill="#383E45"></path>
                <path d="M675.182 1908.54H671.724V1912H675.182V1908.54Z" fill="#383E45"></path>
                <path d="M604.267 1919.76H600.809V1923.22H604.267V1919.76Z" fill="#383E45"></path>
                <path d="M616.089 1919.76H612.631V1923.22H616.089V1919.76Z" fill="#383E45"></path>
                <path d="M627.907 1919.76H624.449V1923.22H627.907V1919.76Z" fill="#383E45"></path>
                <path d="M639.724 1919.76H636.266V1923.22H639.724V1919.76Z" fill="#383E45"></path>
                <path d="M651.547 1919.76H648.089V1923.22H651.547V1919.76Z" fill="#383E45"></path>
                <path d="M663.365 1919.76H659.907V1923.22H663.365V1919.76Z" fill="#383E45"></path>
                <path d="M675.182 1919.76H671.724V1923.22H675.182V1919.76Z" fill="#383E45"></path>
            </g>
        </g>
        <g class="svgc_footer">
            <path d="M700 1927H0V2027H700V1927Z" fill="#FOOTER_COLOR" class="svgc_footer_bg"></path>
            <path d="M355 1993H222V1995H355V1993Z" fill="#FOOTER_COLOR" class="svgc_invert" filter="url(#filter_readability_theme_anelusia)"></path>
            <path d="M317 1987H222V1989H317V1987Z" fill="#FOOTER_COLOR" class="svgc_invert" filter="url(#filter_readability_theme_anelusia)"></path>
            <path d="M468 1956H223V1958H468V1956Z" fill="#FOOTER_COLOR" fill-opacity="0.4" class="svgc_invert" filter="url(#filter_readability_theme_anelusia)"></path>
            <path d="M434 1962H223V1964H434V1962Z" fill="#FOOTER_COLOR" fill-opacity="0.4" class="svgc_invert" filter="url(#filter_readability_theme_anelusia)"></path>
            <path d="M108 1988H70V1990H108V1988Z" fill="#FOOTER_COLOR" class="svgc_invert" filter="url(#filter_readability_theme_anelusia)"></path>
            <path d="M115 1994H70V1996H115V1994Z" fill="#FOOTER_COLOR" class="svgc_invert" filter="url(#filter_readability_theme_anelusia)"></path>
            <path d="M623 1994C626.866 1994 630 1990.87 630 1987C630 1983.13 626.866 1980 623 1980C619.134 1980 616 1983.13 616 1987C616 1990.87 619.134 1994 623 1994Z" fill="#FOOTER_COLOR" class="svgc_invert" filter="url(#filter_readability_theme_anelusia)"></path>
            <path d="M604 1994C607.866 1994 611 1990.87 611 1987C611 1983.13 607.866 1980 604 1980C600.134 1980 597 1983.13 597 1987C597 1990.87 600.134 1994 604 1994Z" fill="#FOOTER_COLOR" class="svgc_invert" filter="url(#filter_readability_theme_anelusia)"></path>
            <path d="M585 1994C588.866 1994 592 1990.87 592 1987C592 1983.13 588.866 1980 585 1980C581.134 1980 578 1983.13 578 1987C578 1990.87 581.134 1994 585 1994Z" fill="#FOOTER_COLOR" class="svgc_invert" filter="url(#filter_readability_theme_anelusia)"></path>
            <path d="M139 1950H70V1960H139V1950Z" fill="#FOOTER_COLOR" class="svgc_invert" filter="url(#filter_readability_theme_anelusia)"></path>
            <path d="M160 1963H70V1973H160V1963Z" fill="#FOOTER_COLOR" class="svgc_invert" filter="url(#filter_readability_theme_anelusia)"></path>
        </g>
    </g>
    <defs>
        <linearGradient x1="583.79" y1="1763.28" x2="650.539" y2="1882.81" gradientUnits="userSpaceOnUse">
            <stop stop-color="#7C6576"></stop>
            <stop offset="1" stop-color="#7C6576" stop-opacity="0"></stop>
        </linearGradient>
        <linearGradient x1="138.324" y1="1798.14" x2="57.7264" y2="1937.99" gradientUnits="userSpaceOnUse">
            <stop stop-color="#7C6576" stop-opacity="0"></stop>
            <stop offset="1" stop-color="#7C6576"></stop>
        </linearGradient>
        <clipPath id="clip0_62_2">
            <rect width="700" height="2027" fill="#FFFFFF"></rect>
        </clipPath>
    </defs>
</svg>
