<svg width="700" height="2519" viewBox="0 0 700 2519" fill="none" xmlns="http://www.w3.org/2000/svg" data-vsvg="002" class="theme_notes_svg_preview">
    <defs>
        <pattern id="theme_notes_s_call_to_action_default_image_id" width="1" height="1" patternunits="objectBoundingBox">
            <image width="700" height="120" preserveAspectRatio="xMidYMid slice" href="/theme_notes/static/src/img/content/s_call_to_action_default_image.jpg"></image>
        </pattern>
        <pattern id="theme_notes_s_company_team_image_1_id" width="1" height="1" patternunits="objectBoundingBox">
            <image width="110" height="110" preserveAspectRatio="xMidYMid slice" href="/web/image/website.s_company_team_image_1"></image>
        </pattern>
        <pattern id="theme_notes_s_company_team_image_4_id" width="1" height="1" patternunits="objectBoundingBox">
            <image width="110" height="110" preserveAspectRatio="xMidYMid slice" href="/web/image/website.s_company_team_image_4"></image>
        </pattern>
        <pattern id="theme_notes_s_company_team_image_5_id" width="1" height="1" patternunits="objectBoundingBox">
            <image width="110" height="110" preserveAspectRatio="xMidYMid slice" href="/web/image/website.s_company_team_image_5"></image>
        </pattern>
        <pattern id="theme_notes_s_company_team_image_2_id" width="1" height="1" patternunits="objectBoundingBox">
            <image width="110" height="110" preserveAspectRatio="xMidYMid slice" href="/web/image/website.s_company_team_image_2"></image>
        </pattern>
        <pattern id="theme_notes_s_company_team_image_3_id" width="1" height="1" patternunits="objectBoundingBox">
            <image width="110" height="110" preserveAspectRatio="xMidYMid slice" href="/web/image/website.s_company_team_image_3"></image>
        </pattern>
        <pattern id="theme_notes_s_company_team_image_6_id" width="1" height="1" patternunits="objectBoundingBox">
            <image width="110" height="110" preserveAspectRatio="xMidYMid slice" href="/web/image/website.s_company_team_image_6"></image>
        </pattern>
        <pattern id="theme_notes_s_text_image_default_image_id" width="1" height="1" patternunits="objectBoundingBox">
            <image width="175" height="263" preserveAspectRatio="xMidYMid slice" href="#s_text_image_default_image_url"></image>
        </pattern>
        <pattern id="theme_notes_library_image_19_id" width="1" height="1" patternunits="objectBoundingBox">
            <image width="185" height="271" preserveAspectRatio="xMidYMid slice" href="#library_image_03_url"></image>
        </pattern>
        <pattern id="theme_notes_s_cover_default_image_id" width="1" height="1" patternunits="objectBoundingBox">
            <image width="186" height="121" preserveAspectRatio="xMidYMid slice" href="#s_cover_default_image_url"></image>
        </pattern>
        <pattern id="theme_notes_library_image_16_id" width="1" height="1" patternunits="objectBoundingBox">
            <image width="186" height="121" preserveAspectRatio="xMidYMid slice" href="#library_image_16_url"></image>
        </pattern>
        <pattern id="theme_notes_library_image_10_id" width="1" height="1" patternunits="objectBoundingBox">
            <image width="185" height="121" preserveAspectRatio="xMidYMid slice" href="#library_image_10_url"></image>
        </pattern>
        <pattern id="theme_notes_library_image_14_id" width="1" height="1" patternunits="objectBoundingBox">
            <image width="186" height="273" preserveAspectRatio="xMidYMid slice" href="#library_image_14_url"></image>
        </pattern>
        <pattern id="theme_notes_library_image_05_id" width="1" height="1" patternunits="objectBoundingBox">
            <image width="186" height="273" preserveAspectRatio="xMidYMid slice" href="#library_image_05_url"></image>
        </pattern>
        <pattern id="theme_notes_s_three_columns_default_image_1_id" width="1" height="1" patternunits="objectBoundingBox">
            <image width="168" height="90" preserveAspectRatio="xMidYMid slice" href="#s_three_columns_default_image_1_url"></image>
        </pattern>
        <pattern id="theme_notes_s_carousel_default_image_2_id" width="1" height="1" patternunits="objectBoundingBox">
            <image width="168" height="90" preserveAspectRatio="xMidYMid slice" href="#s_carousel_default_image_2_url"></image>
        </pattern>
        <pattern id="theme_notes_s_three_columns_default_image_3_id" width="1" height="1" patternunits="objectBoundingBox">
            <image width="168" height="90" preserveAspectRatio="xMidYMid slice" href="#s_three_columns_default_image_3_url"></image>
        </pattern>
        <pattern id="theme_notes_s_image_text_default_image_id" width="1" height="1" patternunits="objectBoundingBox">
            <image width="175" height="263" preserveAspectRatio="xMidYMid slice" href="#s_image_text_default_image_url"></image>
        </pattern>
        <pattern id="theme_notes_s_three_columns_default_image_2_id" width="1" height="1" patternunits="objectBoundingBox">
            <image width="202" height="271" preserveAspectRatio="xMidYMid slice" href="#s_three_columns_default_image_2_url"></image>
        </pattern>
        <filter id="filter_readability_theme_notes">
            <feColorMatrix in="SourceGraphic" type="saturate" values="0"></feColorMatrix>
            <feComponentTransfer>
                <feFuncR type="table" tableValues="1 0"></feFuncR>
                <feFuncG type="table" tableValues="1 0"></feFuncG>
                <feFuncB type="table" tableValues="1 0"></feFuncB>
            </feComponentTransfer>
            <feComponentTransfer>
                <feFuncR type="linear" slope="10000" intercept="-4999.5"></feFuncR>
                <feFuncG type="linear" slope="10000" intercept="-4999.5"></feFuncG>
                <feFuncB type="linear" slope="10000" intercept="-4999.5"></feFuncB>
            </feComponentTransfer>
        </filter>
    </defs>
    <g clip-path="url(#clip0_296_158)" class="theme_notes">
        <rect width="700" height="2519" fill="#FFFFFF"></rect>
        <g class="svgc_footer">
            <path d="M700 2419H0V2519H700V2419Z" fill="#FOOTER_COLOR" class="svgc_footer_bg"></path>
            <path d="M355 2485H222V2487H355V2485Z" fill="#FOOTER_COLOR" class="svgc_invert" filter="url(#filter_readability_theme_notes)"></path>
            <path d="M317 2479H222V2481H317V2479Z" fill="#FOOTER_COLOR" class="svgc_invert" filter="url(#filter_readability_theme_notes)"></path>
            <path d="M468 2448H223V2450H468V2448Z" fill="#FOOTER_COLOR" fill-opacity="0.4" class="svgc_invert" filter="url(#filter_readability_theme_notes)"></path>
            <path d="M434 2454H223V2456H434V2454Z" fill="#FOOTER_COLOR" fill-opacity="0.4" class="svgc_invert" filter="url(#filter_readability_theme_notes)"></path>
            <path d="M108 2480H70V2482H108V2480Z" fill="#FOOTER_COLOR" class="svgc_invert" filter="url(#filter_readability_theme_notes)"></path>
            <path d="M115 2486H70V2488H115V2486Z" fill="#FOOTER_COLOR" class="svgc_invert" filter="url(#filter_readability_theme_notes)"></path>
            <path d="M623 2486C626.866 2486 630 2482.87 630 2479C630 2475.13 626.866 2472 623 2472C619.134 2472 616 2475.13 616 2479C616 2482.87 619.134 2486 623 2486Z" fill="#FOOTER_COLOR" class="svgc_invert" filter="url(#filter_readability_theme_notes)"></path>
            <path d="M604 2486C607.866 2486 611 2482.87 611 2479C611 2475.13 607.866 2472 604 2472C600.134 2472 597 2475.13 597 2479C597 2482.87 600.134 2486 604 2486Z" fill="#FOOTER_COLOR" class="svgc_invert" filter="url(#filter_readability_theme_notes)"></path>
            <path d="M585 2486C588.866 2486 592 2482.87 592 2479C592 2475.13 588.866 2472 585 2472C581.134 2472 578 2475.13 578 2479C578 2482.87 581.134 2486 585 2486Z" fill="#FOOTER_COLOR" class="svgc_invert" filter="url(#filter_readability_theme_notes)"></path>
            <path d="M139.596 2442H70.3003V2452H139.596V2442Z" fill="#FOOTER_COLOR" class="svgc_invert" filter="url(#filter_readability_theme_notes)"></path>
            <path d="M160.686 2455H70.3003V2465H160.686V2455Z" fill="#FOOTER_COLOR" class="svgc_invert" filter="url(#filter_readability_theme_notes)"></path>
        </g>
        <g class="s_call_to_action">
            <rect y="2307" width="700" height="112" fill="url(#theme_notes_s_call_to_action_default_image_id)" class="img_reference_s_call_to_action_default_image"></rect>
            <path d="M74.903 2363L76.967 2346.2H79.151L77.087 2363H74.903ZM65.927 2358.92V2356.74H81.095V2358.92H65.927ZM68.663 2363L70.751 2346.2H72.935L70.847 2363H68.663ZM66.743 2352.46V2350.28H81.863L81.887 2352.46H66.743ZM89.9015 2363.24C88.5895 2363.24 87.3335 2363.06 86.1335 2362.69C84.9335 2362.3 83.9815 2361.82 83.2775 2361.22L84.3575 2358.8C85.0295 2359.33 85.8615 2359.77 86.8535 2360.12C87.8455 2360.47 88.8615 2360.65 89.9015 2360.65C90.7815 2360.65 91.4935 2360.55 92.0375 2360.36C92.5815 2360.17 92.9815 2359.91 93.2375 2359.59C93.4935 2359.26 93.6215 2358.88 93.6215 2358.46C93.6215 2357.95 93.4375 2357.54 93.0695 2357.24C92.7015 2356.92 92.2215 2356.67 91.6295 2356.5C91.0535 2356.3 90.4055 2356.13 89.6855 2355.97C88.9815 2355.81 88.2695 2355.62 87.5495 2355.42C86.8455 2355.19 86.1975 2354.91 85.6055 2354.58C85.0295 2354.22 84.5575 2353.76 84.1895 2353.18C83.8215 2352.61 83.6375 2351.87 83.6375 2350.98C83.6375 2350.06 83.8775 2349.23 84.3575 2348.48C84.8535 2347.71 85.5975 2347.1 86.5895 2346.66C87.5975 2346.19 88.8695 2345.96 90.4055 2345.96C91.4135 2345.96 92.4135 2346.09 93.4055 2346.34C94.3975 2346.6 95.2615 2346.97 95.9975 2347.45L95.0135 2349.87C94.2615 2349.42 93.4855 2349.1 92.6855 2348.89C91.8855 2348.66 91.1175 2348.55 90.3815 2348.55C89.5175 2348.55 88.8135 2348.66 88.2695 2348.86C87.7415 2349.07 87.3495 2349.34 87.0935 2349.68C86.8535 2350.02 86.7335 2350.4 86.7335 2350.83C86.7335 2351.34 86.9095 2351.76 87.2615 2352.08C87.6295 2352.38 88.1015 2352.62 88.6775 2352.8C89.2695 2352.98 89.9255 2353.15 90.6455 2353.33C91.3655 2353.49 92.0775 2353.67 92.7815 2353.88C93.5015 2354.09 94.1495 2354.36 94.7255 2354.7C95.3175 2355.03 95.7895 2355.49 96.1415 2356.06C96.5095 2356.64 96.6935 2357.37 96.6935 2358.25C96.6935 2359.14 96.4455 2359.98 95.9495 2360.74C95.4695 2361.5 94.7255 2362.1 93.7175 2362.57C92.7095 2363.02 91.4375 2363.24 89.9015 2363.24ZM105.523 2363.17C104.099 2363.17 102.851 2362.89 101.779 2362.33C100.723 2361.75 99.8993 2360.97 99.3073 2359.98C98.7313 2358.98 98.4433 2357.86 98.4433 2356.59C98.4433 2355.31 98.7233 2354.18 99.2833 2353.21C99.8593 2352.22 100.643 2351.44 101.635 2350.88C102.643 2350.32 103.787 2350.04 105.067 2350.04C106.315 2350.04 107.427 2350.31 108.403 2350.86C109.379 2351.4 110.147 2352.17 110.707 2353.16C111.267 2354.15 111.547 2355.32 111.547 2356.66C111.547 2356.79 111.539 2356.94 111.523 2357.1C111.523 2357.26 111.515 2357.41 111.499 2357.55H100.819V2355.56H109.915L108.739 2356.18C108.755 2355.45 108.603 2354.8 108.283 2354.24C107.963 2353.68 107.523 2353.24 106.963 2352.92C106.419 2352.6 105.787 2352.44 105.067 2352.44C104.331 2352.44 103.683 2352.6 103.123 2352.92C102.579 2353.24 102.147 2353.69 101.827 2354.26C101.523 2354.82 101.371 2355.49 101.371 2356.26V2356.74C101.371 2357.5 101.547 2358.18 101.899 2358.78C102.251 2359.37 102.747 2359.82 103.387 2360.14C104.027 2360.46 104.763 2360.62 105.595 2360.62C106.315 2360.62 106.963 2360.51 107.539 2360.29C108.115 2360.06 108.627 2359.71 109.075 2359.23L110.683 2361.08C110.107 2361.75 109.379 2362.27 108.499 2362.64C107.635 2362.99 106.643 2363.17 105.523 2363.17ZM120.309 2363.17C118.965 2363.17 117.765 2362.89 116.709 2362.33C115.669 2361.75 114.853 2360.97 114.261 2359.98C113.669 2358.98 113.373 2357.86 113.373 2356.59C113.373 2355.31 113.669 2354.18 114.261 2353.21C114.853 2352.22 115.669 2351.44 116.709 2350.88C117.765 2350.32 118.965 2350.04 120.309 2350.04C121.557 2350.04 122.653 2350.3 123.597 2350.81C124.557 2351.3 125.285 2352.04 125.781 2353.02L123.477 2354.36C123.093 2353.75 122.621 2353.3 122.061 2353.02C121.517 2352.73 120.925 2352.58 120.285 2352.58C119.549 2352.58 118.885 2352.74 118.293 2353.06C117.701 2353.38 117.237 2353.85 116.901 2354.46C116.565 2355.05 116.397 2355.76 116.397 2356.59C116.397 2357.42 116.565 2358.14 116.901 2358.75C117.237 2359.34 117.701 2359.8 118.293 2360.12C118.885 2360.44 119.549 2360.6 120.285 2360.6C120.925 2360.6 121.517 2360.46 122.061 2360.17C122.621 2359.88 123.093 2359.43 123.477 2358.82L125.781 2360.17C125.285 2361.13 124.557 2361.87 123.597 2362.4C122.653 2362.91 121.557 2363.17 120.309 2363.17ZM133.362 2363.17C131.954 2363.17 130.866 2362.81 130.098 2362.09C129.33 2361.35 128.946 2360.27 128.946 2358.85V2347.35H131.946V2358.78C131.946 2359.38 132.098 2359.86 132.402 2360.19C132.722 2360.53 133.162 2360.7 133.722 2360.7C134.394 2360.7 134.954 2360.52 135.402 2360.17L136.242 2362.3C135.89 2362.59 135.458 2362.81 134.946 2362.95C134.434 2363.1 133.906 2363.17 133.362 2363.17ZM126.834 2352.68V2350.28H135.378V2352.68H126.834ZM138.71 2363V2350.18H141.71V2363H138.71ZM140.222 2348.07C139.662 2348.07 139.198 2347.9 138.83 2347.54C138.478 2347.19 138.302 2346.77 138.302 2346.27C138.302 2345.76 138.478 2345.34 138.83 2345C139.198 2344.65 139.662 2344.47 140.222 2344.47C140.782 2344.47 141.238 2344.64 141.59 2344.98C141.958 2345.3 142.142 2345.7 142.142 2346.2C142.142 2346.73 141.966 2347.18 141.614 2347.54C141.262 2347.9 140.798 2348.07 140.222 2348.07ZM151.408 2363.17C150.096 2363.17 148.928 2362.89 147.904 2362.33C146.88 2361.75 146.072 2360.97 145.48 2359.98C144.888 2358.98 144.592 2357.86 144.592 2356.59C144.592 2355.31 144.888 2354.18 145.48 2353.21C146.072 2352.22 146.88 2351.44 147.904 2350.88C148.928 2350.32 150.096 2350.04 151.408 2350.04C152.736 2350.04 153.912 2350.32 154.936 2350.88C155.976 2351.44 156.784 2352.21 157.36 2353.18C157.952 2354.16 158.248 2355.3 158.248 2356.59C158.248 2357.86 157.952 2358.98 157.36 2359.98C156.784 2360.97 155.976 2361.75 154.936 2362.33C153.912 2362.89 152.736 2363.17 151.408 2363.17ZM151.408 2360.6C152.144 2360.6 152.8 2360.44 153.376 2360.12C153.952 2359.8 154.4 2359.34 154.72 2358.73C155.056 2358.12 155.224 2357.41 155.224 2356.59C155.224 2355.76 155.056 2355.05 154.72 2354.46C154.4 2353.85 153.952 2353.38 153.376 2353.06C152.8 2352.74 152.152 2352.58 151.432 2352.58C150.696 2352.58 150.04 2352.74 149.464 2353.06C148.904 2353.38 148.456 2353.85 148.12 2354.46C147.784 2355.05 147.616 2355.76 147.616 2356.59C147.616 2357.41 147.784 2358.12 148.12 2358.73C148.456 2359.34 148.904 2359.8 149.464 2360.12C150.04 2360.44 150.688 2360.6 151.408 2360.6ZM168.388 2350.04C169.412 2350.04 170.324 2350.24 171.124 2350.64C171.94 2351.04 172.58 2351.66 173.044 2352.49C173.508 2353.3 173.74 2354.36 173.74 2355.66V2363H170.74V2356.04C170.74 2354.9 170.468 2354.06 169.924 2353.5C169.396 2352.94 168.652 2352.66 167.692 2352.66C166.988 2352.66 166.364 2352.8 165.82 2353.09C165.276 2353.38 164.852 2353.81 164.548 2354.38C164.26 2354.94 164.116 2355.66 164.116 2356.52V2363H161.116V2350.18H163.972V2353.64L163.468 2352.58C163.916 2351.77 164.564 2351.14 165.412 2350.71C166.276 2350.26 167.268 2350.04 168.388 2350.04ZM187.875 2363V2348.84H182.307V2346.2H196.563V2348.84H190.995V2363H187.875ZM198.616 2363V2350.18H201.616V2363H198.616ZM200.128 2348.07C199.568 2348.07 199.104 2347.9 198.736 2347.54C198.384 2347.19 198.208 2346.77 198.208 2346.27C198.208 2345.76 198.384 2345.34 198.736 2345C199.104 2344.65 199.568 2344.47 200.128 2344.47C200.688 2344.47 201.144 2344.64 201.496 2344.98C201.864 2345.3 202.048 2345.7 202.048 2346.2C202.048 2346.73 201.872 2347.18 201.52 2347.54C201.168 2347.9 200.704 2348.07 200.128 2348.07ZM210.378 2363.17C208.97 2363.17 207.882 2362.81 207.114 2362.09C206.346 2361.35 205.962 2360.27 205.962 2358.85V2347.35H208.962V2358.78C208.962 2359.38 209.114 2359.86 209.418 2360.19C209.738 2360.53 210.178 2360.7 210.738 2360.7C211.41 2360.7 211.97 2360.52 212.418 2360.17L213.258 2362.3C212.906 2362.59 212.474 2362.81 211.962 2362.95C211.45 2363.1 210.922 2363.17 210.378 2363.17ZM203.85 2352.68V2350.28H212.394V2352.68H203.85ZM215.726 2363V2345.19H218.726V2363H215.726ZM228.687 2363.17C227.263 2363.17 226.015 2362.89 224.943 2362.33C223.887 2361.75 223.063 2360.97 222.471 2359.98C221.895 2358.98 221.607 2357.86 221.607 2356.59C221.607 2355.31 221.887 2354.18 222.447 2353.21C223.023 2352.22 223.807 2351.44 224.799 2350.88C225.807 2350.32 226.951 2350.04 228.231 2350.04C229.479 2350.04 230.591 2350.31 231.567 2350.86C232.543 2351.4 233.311 2352.17 233.871 2353.16C234.431 2354.15 234.711 2355.32 234.711 2356.66C234.711 2356.79 234.703 2356.94 234.687 2357.1C234.687 2357.26 234.679 2357.41 234.663 2357.55H223.983V2355.56H233.079L231.903 2356.18C231.919 2355.45 231.767 2354.8 231.447 2354.24C231.127 2353.68 230.687 2353.24 230.127 2352.92C229.583 2352.6 228.951 2352.44 228.231 2352.44C227.495 2352.44 226.847 2352.6 226.287 2352.92C225.743 2353.24 225.311 2353.69 224.991 2354.26C224.687 2354.82 224.535 2355.49 224.535 2356.26V2356.74C224.535 2357.5 224.711 2358.18 225.063 2358.78C225.415 2359.37 225.911 2359.82 226.551 2360.14C227.191 2360.46 227.927 2360.62 228.759 2360.62C229.479 2360.62 230.127 2360.51 230.703 2360.29C231.279 2360.06 231.791 2359.71 232.239 2359.23L233.847 2361.08C233.271 2361.75 232.543 2362.27 231.663 2362.64C230.799 2362.99 229.807 2363.17 228.687 2363.17Z" fill="#383E45" class="svgc_invert" filter="url(#filter_readability_theme_notes)"></path>
            <path d="M283.595 2373H65.9059V2375H283.595V2373Z" fill="#F6F6F6" class="svgc_invert" filter="url(#filter_readability_theme_notes)"></path>
            <path d="M188.73 2379H65.9059V2380.99H188.73V2379Z" fill="#F6F6F6" class="svgc_invert" filter="url(#filter_readability_theme_notes)"></path>
            <g>
                <rect x="520" y="2347" width="105" height="22" rx="4" fill="#3AADAA"></rect>
            </g>
        </g>
        <g class="s_title">
            <rect y="2218" width="699.5" height="89" fill="#FFFFFF"></rect>
            <path d="M186.367 2307L0 2218V2307H186.367Z" fill="#3AADAA"></path>
            <path d="M513.633 2307L700 2218V2307H513.633Z" fill="#3AADAA"></path>
            <path d="M273.654 2266L275.718 2249.2H277.902L275.838 2266H273.654ZM264.678 2261.92V2259.74H279.846V2261.92H264.678ZM267.414 2266L269.502 2249.2H271.686L269.598 2266H267.414ZM265.494 2255.46V2253.28H280.614L280.638 2255.46H265.494ZM288.652 2266.24C287.34 2266.24 286.084 2266.06 284.884 2265.69C283.684 2265.3 282.732 2264.82 282.028 2264.22L283.108 2261.8C283.78 2262.33 284.612 2262.77 285.604 2263.12C286.596 2263.47 287.612 2263.65 288.652 2263.65C289.532 2263.65 290.244 2263.55 290.788 2263.36C291.332 2263.17 291.732 2262.91 291.988 2262.59C292.244 2262.26 292.372 2261.88 292.372 2261.46C292.372 2260.95 292.188 2260.54 291.82 2260.24C291.452 2259.92 290.972 2259.67 290.38 2259.5C289.804 2259.3 289.156 2259.13 288.436 2258.97C287.732 2258.81 287.02 2258.62 286.3 2258.42C285.596 2258.19 284.948 2257.91 284.356 2257.58C283.78 2257.22 283.308 2256.76 282.94 2256.18C282.572 2255.61 282.388 2254.87 282.388 2253.98C282.388 2253.06 282.628 2252.23 283.108 2251.48C283.604 2250.71 284.348 2250.1 285.34 2249.66C286.348 2249.19 287.62 2248.96 289.156 2248.96C290.164 2248.96 291.164 2249.09 292.156 2249.34C293.148 2249.6 294.012 2249.97 294.748 2250.45L293.764 2252.87C293.012 2252.42 292.236 2252.1 291.436 2251.89C290.636 2251.66 289.868 2251.55 289.132 2251.55C288.268 2251.55 287.564 2251.66 287.02 2251.86C286.492 2252.07 286.1 2252.34 285.844 2252.68C285.604 2253.02 285.484 2253.4 285.484 2253.83C285.484 2254.34 285.66 2254.76 286.012 2255.08C286.38 2255.38 286.852 2255.62 287.428 2255.8C288.02 2255.98 288.676 2256.15 289.396 2256.33C290.116 2256.49 290.828 2256.67 291.532 2256.88C292.252 2257.09 292.9 2257.36 293.476 2257.7C294.068 2258.03 294.54 2258.49 294.892 2259.06C295.26 2259.64 295.444 2260.37 295.444 2261.25C295.444 2262.14 295.196 2262.98 294.7 2263.74C294.22 2264.5 293.476 2265.1 292.468 2265.57C291.46 2266.02 290.188 2266.24 288.652 2266.24ZM304.274 2266.17C302.85 2266.17 301.602 2265.89 300.53 2265.33C299.474 2264.75 298.65 2263.97 298.058 2262.98C297.482 2261.98 297.194 2260.86 297.194 2259.59C297.194 2258.31 297.474 2257.18 298.034 2256.21C298.61 2255.22 299.394 2254.44 300.386 2253.88C301.394 2253.32 302.538 2253.04 303.818 2253.04C305.066 2253.04 306.178 2253.31 307.154 2253.86C308.13 2254.4 308.898 2255.17 309.458 2256.16C310.018 2257.15 310.298 2258.32 310.298 2259.66C310.298 2259.79 310.29 2259.94 310.274 2260.1C310.274 2260.26 310.266 2260.41 310.25 2260.55H299.57V2258.56H308.666L307.49 2259.18C307.506 2258.45 307.354 2257.8 307.034 2257.24C306.714 2256.68 306.274 2256.24 305.714 2255.92C305.17 2255.6 304.538 2255.44 303.818 2255.44C303.082 2255.44 302.434 2255.6 301.874 2255.92C301.33 2256.24 300.898 2256.69 300.578 2257.26C300.274 2257.82 300.122 2258.49 300.122 2259.26V2259.74C300.122 2260.5 300.298 2261.18 300.65 2261.78C301.002 2262.37 301.498 2262.82 302.138 2263.14C302.778 2263.46 303.514 2263.62 304.346 2263.62C305.066 2263.62 305.714 2263.51 306.29 2263.29C306.866 2263.06 307.378 2262.71 307.826 2262.23L309.434 2264.08C308.858 2264.75 308.13 2265.27 307.25 2265.64C306.386 2265.99 305.394 2266.17 304.274 2266.17ZM319.059 2266.17C317.715 2266.17 316.515 2265.89 315.459 2265.33C314.419 2264.75 313.603 2263.97 313.011 2262.98C312.419 2261.98 312.123 2260.86 312.123 2259.59C312.123 2258.31 312.419 2257.18 313.011 2256.21C313.603 2255.22 314.419 2254.44 315.459 2253.88C316.515 2253.32 317.715 2253.04 319.059 2253.04C320.307 2253.04 321.403 2253.3 322.347 2253.81C323.307 2254.3 324.035 2255.04 324.531 2256.02L322.227 2257.36C321.843 2256.75 321.371 2256.3 320.811 2256.02C320.267 2255.73 319.675 2255.58 319.035 2255.58C318.299 2255.58 317.635 2255.74 317.043 2256.06C316.451 2256.38 315.987 2256.85 315.651 2257.46C315.315 2258.05 315.147 2258.76 315.147 2259.59C315.147 2260.42 315.315 2261.14 315.651 2261.75C315.987 2262.34 316.451 2262.8 317.043 2263.12C317.635 2263.44 318.299 2263.6 319.035 2263.6C319.675 2263.6 320.267 2263.46 320.811 2263.17C321.371 2262.88 321.843 2262.43 322.227 2261.82L324.531 2263.17C324.035 2264.13 323.307 2264.87 322.347 2265.4C321.403 2265.91 320.307 2266.17 319.059 2266.17ZM332.113 2266.17C330.705 2266.17 329.617 2265.81 328.849 2265.09C328.081 2264.35 327.697 2263.27 327.697 2261.85V2250.35H330.697V2261.78C330.697 2262.38 330.849 2262.86 331.153 2263.19C331.473 2263.53 331.913 2263.7 332.473 2263.7C333.145 2263.7 333.705 2263.52 334.153 2263.17L334.993 2265.3C334.641 2265.59 334.209 2265.81 333.697 2265.95C333.185 2266.1 332.657 2266.17 332.113 2266.17ZM325.585 2255.68V2253.28H334.129V2255.68H325.585ZM337.461 2266V2253.18H340.461V2266H337.461ZM338.973 2251.07C338.413 2251.07 337.949 2250.9 337.581 2250.54C337.229 2250.19 337.053 2249.77 337.053 2249.27C337.053 2248.76 337.229 2248.34 337.581 2248C337.949 2247.65 338.413 2247.47 338.973 2247.47C339.533 2247.47 339.989 2247.64 340.341 2247.98C340.709 2248.3 340.893 2248.7 340.893 2249.2C340.893 2249.73 340.717 2250.18 340.365 2250.54C340.013 2250.9 339.549 2251.07 338.973 2251.07ZM350.158 2266.17C348.846 2266.17 347.678 2265.89 346.654 2265.33C345.63 2264.75 344.822 2263.97 344.23 2262.98C343.638 2261.98 343.342 2260.86 343.342 2259.59C343.342 2258.31 343.638 2257.18 344.23 2256.21C344.822 2255.22 345.63 2254.44 346.654 2253.88C347.678 2253.32 348.846 2253.04 350.158 2253.04C351.486 2253.04 352.662 2253.32 353.686 2253.88C354.726 2254.44 355.534 2255.21 356.11 2256.18C356.702 2257.16 356.998 2258.3 356.998 2259.59C356.998 2260.86 356.702 2261.98 356.11 2262.98C355.534 2263.97 354.726 2264.75 353.686 2265.33C352.662 2265.89 351.486 2266.17 350.158 2266.17ZM350.158 2263.6C350.894 2263.6 351.55 2263.44 352.126 2263.12C352.702 2262.8 353.15 2262.34 353.47 2261.73C353.806 2261.12 353.974 2260.41 353.974 2259.59C353.974 2258.76 353.806 2258.05 353.47 2257.46C353.15 2256.85 352.702 2256.38 352.126 2256.06C351.55 2255.74 350.902 2255.58 350.182 2255.58C349.446 2255.58 348.79 2255.74 348.214 2256.06C347.654 2256.38 347.206 2256.85 346.87 2257.46C346.534 2258.05 346.366 2258.76 346.366 2259.59C346.366 2260.41 346.534 2261.12 346.87 2261.73C347.206 2262.34 347.654 2262.8 348.214 2263.12C348.79 2263.44 349.438 2263.6 350.158 2263.6ZM367.139 2253.04C368.163 2253.04 369.075 2253.24 369.875 2253.64C370.691 2254.04 371.331 2254.66 371.795 2255.49C372.259 2256.3 372.491 2257.36 372.491 2258.66V2266H369.491V2259.04C369.491 2257.9 369.219 2257.06 368.675 2256.5C368.147 2255.94 367.403 2255.66 366.443 2255.66C365.739 2255.66 365.115 2255.8 364.571 2256.09C364.027 2256.38 363.603 2256.81 363.299 2257.38C363.011 2257.94 362.867 2258.66 362.867 2259.52V2266H359.867V2253.18H362.723V2256.64L362.219 2255.58C362.667 2254.77 363.315 2254.14 364.163 2253.71C365.027 2253.26 366.019 2253.04 367.139 2253.04ZM386.625 2266V2251.84H381.057V2249.2H395.313V2251.84H389.745V2266H386.625ZM397.367 2266V2253.18H400.367V2266H397.367ZM398.879 2251.07C398.319 2251.07 397.855 2250.9 397.487 2250.54C397.135 2250.19 396.959 2249.77 396.959 2249.27C396.959 2248.76 397.135 2248.34 397.487 2248C397.855 2247.65 398.319 2247.47 398.879 2247.47C399.439 2247.47 399.895 2247.64 400.247 2247.98C400.615 2248.3 400.799 2248.7 400.799 2249.2C400.799 2249.73 400.623 2250.18 400.271 2250.54C399.919 2250.9 399.455 2251.07 398.879 2251.07ZM409.128 2266.17C407.72 2266.17 406.632 2265.81 405.864 2265.09C405.096 2264.35 404.712 2263.27 404.712 2261.85V2250.35H407.712V2261.78C407.712 2262.38 407.864 2262.86 408.168 2263.19C408.488 2263.53 408.928 2263.7 409.488 2263.7C410.16 2263.7 410.72 2263.52 411.168 2263.17L412.008 2265.3C411.656 2265.59 411.224 2265.81 410.712 2265.95C410.2 2266.1 409.672 2266.17 409.128 2266.17ZM402.6 2255.68V2253.28H411.144V2255.68H402.6ZM414.476 2266V2248.19H417.476V2266H414.476ZM427.438 2266.17C426.014 2266.17 424.766 2265.89 423.694 2265.33C422.638 2264.75 421.814 2263.97 421.222 2262.98C420.646 2261.98 420.358 2260.86 420.358 2259.59C420.358 2258.31 420.638 2257.18 421.198 2256.21C421.774 2255.22 422.558 2254.44 423.55 2253.88C424.558 2253.32 425.702 2253.04 426.982 2253.04C428.23 2253.04 429.342 2253.31 430.318 2253.86C431.294 2254.4 432.062 2255.17 432.622 2256.16C433.182 2257.15 433.462 2258.32 433.462 2259.66C433.462 2259.79 433.454 2259.94 433.438 2260.1C433.438 2260.26 433.43 2260.41 433.414 2260.55H422.734V2258.56H431.83L430.654 2259.18C430.67 2258.45 430.518 2257.8 430.198 2257.24C429.878 2256.68 429.438 2256.24 428.878 2255.92C428.334 2255.6 427.702 2255.44 426.982 2255.44C426.246 2255.44 425.598 2255.6 425.038 2255.92C424.494 2256.24 424.062 2256.69 423.742 2257.26C423.438 2257.82 423.286 2258.49 423.286 2259.26V2259.74C423.286 2260.5 423.462 2261.18 423.814 2261.78C424.166 2262.37 424.662 2262.82 425.302 2263.14C425.942 2263.46 426.678 2263.62 427.51 2263.62C428.23 2263.62 428.878 2263.51 429.454 2263.29C430.03 2263.06 430.542 2262.71 430.99 2262.23L432.598 2264.08C432.022 2264.75 431.294 2265.27 430.414 2265.64C429.55 2265.99 428.558 2266.17 427.438 2266.17Z" fill="#383E45" class="svgc_invert" filter="url(#filter_readability_theme_notes)"></path>
        </g>
        <g class="s_company_team_shapes">
            <rect y="1875" width="700" height="340" fill="#FFFFFF"></rect>
            <path d="M359.724 2034.5L698.999 1874H0L359.724 2034.5Z" fill="#3AADAA"></path>
            <rect x="169.242" y="1944.02" width="109.156" height="109" rx="11" fill="url(#theme_notes_s_company_team_image_1_id)" class="img_reference_s_company_team_image_1"></rect>
            <rect x="169.242" y="2090.02" width="109.156" height="109" rx="11" fill="url(#theme_notes_s_company_team_image_4_id)" class="img_reference_s_company_team_image_4"></rect>
            <path d="M350 2084.02C404.578 2084.02 404.578 2144.52 404.578 2144.52C404.578 2144.52 404.578 2144.52 404.578 2144.52V2188.02C404.578 2194.09 399.653 2199.02 393.578 2199.02H306.422C300.347 2199.02 295.422 2194.09 295.422 2188.02V2144.52C295.422 2144.52 295.422 2144.52 295.422 2144.52C295.422 2144.52 295.422 2084.02 350 2084.02Z" fill="url(#theme_notes_s_company_team_image_5_id)" class="img_reference_s_company_team_image_5"></path>
            <rect x="295.422" y="1944.02" width="109.156" height="109" rx="7" fill="url(#theme_notes_s_company_team_image_2_id)" class="img_reference_s_company_team_image_2"></rect>
            <path d="M417.597 1950.7C417.597 1946.96 420.522 1943.94 424.251 1944.23C437.733 1945.25 469.361 1950.71 497.21 1978.52C525.175 2006.44 527.642 2035.25 527.257 2047.24C527.149 2050.61 524.302 2053.02 520.926 2053.02H424.597C420.731 2053.02 417.597 2049.89 417.597 2046.02V1950.7Z" fill="url(#theme_notes_s_company_team_image_3_id)" class="img_reference_s_company_team_image_3"></path>
            <ellipse cx="474.177" cy="2145.52" rx="55.5794" ry="55.5" fill="url(#theme_notes_s_company_team_image_6_id)" class="img_reference_s_company_team_image_6"></ellipse>
            <text transform="translate(372 1910)" text-anchor="Middle" fill="#000000" font-size="26" font-family="Arial" font-weight="700"><tspan x="-22.471" y="0">Section Title</tspan></text>
            <path d="M426.001 1917H274.001C273.448 1917 273.001 1917.45 273.001 1918C273.001 1918.55 273.448 1919 274.001 1919H426.001C426.553 1919 427.001 1918.55 427.001 1918C427.001 1917.45 426.553 1917 426.001 1917Z" fill="#7C6576" class="svgc_invert" filter="url(#filter_readability_theme_notes)"></path>
        </g>
        <g class="s_text_image">
            <rect y="1530" width="700" height="344" fill="#7C6576"></rect>
            <path d="M254.636 1697H65.9059V1699H254.636V1697Z" fill="#7C6576" class="svgc_invert" filter="url(#filter_readability_theme_notes)"></path>
            <path d="M254.636 1730H65.9059V1732H254.636V1730Z" fill="#7C6576" class="svgc_invert" filter="url(#filter_readability_theme_notes)"></path>
            <path d="M188.73 1703H65.9059V1705H188.73V1703Z" fill="#7C6576" class="svgc_invert" filter="url(#filter_readability_theme_notes)"></path>
            <path d="M188.73 1736H65.9059V1738H188.73V1736Z" fill="#7C6576" class="svgc_invert" filter="url(#filter_readability_theme_notes)"></path>
            <path d="M222.682 1709H65.9059V1711H222.682V1709Z" fill="#7C6576" class="svgc_invert" filter="url(#filter_readability_theme_notes)"></path>
            <path d="M222.682 1742H65.9059V1744H222.682V1742Z" fill="#7C6576" class="svgc_invert" filter="url(#filter_readability_theme_notes)"></path>
            <path d="M271.612 1691H65.9059V1693H271.612V1691Z" fill="#7C6576" class="svgc_invert" filter="url(#filter_readability_theme_notes)"></path>
            <path d="M218.686 1669H66.9059C66.3536 1669 65.9059 1669.45 65.9059 1670C65.9059 1670.55 66.3536 1671 66.9059 1671H218.686C219.238 1671 219.686 1670.55 219.686 1670C219.686 1669.45 219.238 1669 218.686 1669Z" fill="#7C6576" class="svgc_invert" filter="url(#filter_readability_theme_notes)"></path>
            <path d="M271.612 1724H65.9059V1726H271.612V1724Z" fill="#7C6576" class="svgc_invert" filter="url(#filter_readability_theme_notes)"></path>
            <text transform="translate(87 1664)" text-anchor="Start" fill="#FFFFFF" font-size="26" font-family="Arial" font-weight="700"><tspan x="-22.471" y="0">Section Title</tspan></text>
            <rect x="459" y="1571" width="175" height="263" rx="6" fill="url(#theme_notes_s_text_image_default_image_id)" class="img_reference_s_text_image_default_image"></rect>
        </g>
        <g class="s_images_wall">
            <rect y="1044" width="700" height="486" fill="#FFFFFF"></rect>
            <path d="M700 1530L700 1507L-7.86806e-06 1520L-1.12374e-05 1530L700 1530Z" fill="#3AADAA"></path>
            <path d="M700 1044L700 1121L0 1063L-1.7957e-06 1044L700 1044Z" fill="#3AADAA"></path>
            <text transform="translate(372 1068)" text-anchor="Middle" fill="#000000" font-size="26" font-family="Arial" font-weight="700"><tspan x="-22.471" y="0">Title</tspan></text>
            <rect x="322" y="1072" width="55" height="2" rx="1" fill="#FFFFFF"></rect>
            <rect x="66" y="1091" width="185" height="271" rx="6" fill="url(#theme_notes_library_image_19_id)" class="img_reference_library_image_19"></rect>
            <rect x="257" y="1091" width="186" height="121" rx="6" fill="url(#theme_notes_s_cover_default_image_id)" class="img_reference_s_cover_default_image"></rect>
            <rect x="449" y="1370" width="185" height="121" rx="6" fill="url(#theme_notes_library_image_16_id)" class="img_reference_library_image_16"></rect>
            <rect x="66" y="1370" width="185" height="121" rx="6" fill="url(#theme_notes_library_image_10_id)" class="img_reference_library_image_10"></rect>
            <rect x="449" y="1091" width="185" height="273" rx="6" fill="url(#theme_notes_library_image_14_id)" class="img_reference_library_image_14"></rect>
            <rect x="257" y="1218" width="186" height="273" rx="6" fill="url(#theme_notes_library_image_05_id)" class="img_reference_library_image_05"></rect>
        </g>
        <g class="s_three_columns">
            <rect y="728" width="700" height="318" fill="#3AADAA"></rect>
            <text transform="translate(372 779)" text-anchor="Middle" fill="#000000" font-size="26" font-family="Arial" font-weight="700"><tspan x="-22.471" y="0">Title</tspan></text>
            <rect x="323" y="783" width="54" height="2" rx="1" fill="#FFFFFF"></rect>
            <g>
                <path d="M66 816C66 812.686 68.6863 810 72 810H228C231.314 810 234 812.686 234 816V900H66V816Z" fill="url(#theme_notes_s_three_columns_default_image_1_id)" class="img_reference_s_three_columns_default_image_1"></path>
                <path d="M66 900H234V1016C234 1019.31 231.314 1022 228 1022H72C68.6863 1022 66 1019.31 66 1016V900Z" fill="#FFFFFF"></path>
                <rect x="73" y="933" width="42" height="5" fill="#FFFFFF" fill-opacity="0.4" class="svgc_invert" filter="url(#filter_readability_theme_notes)"></rect>
                <rect x="73" y="981" width="60" height="16" rx="4" fill="#FFFFFF" class="svgc_invert" filter="url(#filter_readability_theme_notes)"></rect>
                <rect x="73" y="947" width="147" height="2" fill="#FFFFFF" fill-opacity="0.4" class="svgc_invert" filter="url(#filter_readability_theme_notes)"></rect>
                <rect x="73" y="953" width="111.674" height="2" fill="#FFFFFF" fill-opacity="0.4" class="svgc_invert" filter="url(#filter_readability_theme_notes)"></rect>
                <rect x="73" y="959" width="133.326" height="2" fill="#FFFFFF" fill-opacity="0.4" class="svgc_invert" filter="url(#filter_readability_theme_notes)"></rect>
                <rect x="73" y="965" width="100.279" height="2" fill="#FFFFFF" fill-opacity="0.4" class="svgc_invert" filter="url(#filter_readability_theme_notes)"></rect>
                <text transform="translate(95 925)" text-anchor="Start" fill="#000000" font-size="16" font-family="Arial" font-weight="700"><tspan x="-22.471" y="0">Entry Title</tspan></text>
            </g>
            <g>
                <path d="M266 816C266 812.686 268.686 810 272 810H428C431.314 810 434 812.686 434 816V900H266V816Z" fill="url(#theme_notes_s_carousel_default_image_2_id)" class="img_reference_s_carousel_default_image_2"></path>
                <path d="M266 900H434V1016C434 1019.31 431.314 1022 428 1022H272C268.686 1022 266 1019.31 266 1016V900Z" fill="#FFFFFF"></path>
                <rect x="273" y="933" width="42" height="5" fill="#FFFFFF" fill-opacity="0.4" class="svgc_invert" filter="url(#filter_readability_theme_notes)"></rect>
                <rect x="273" y="981" width="60" height="16" rx="4" fill="#FFFFFF" class="svgc_invert" filter="url(#filter_readability_theme_notes)"></rect>
                <rect x="273" y="947" width="147" height="2" fill="#FFFFFF" fill-opacity="0.4" class="svgc_invert" filter="url(#filter_readability_theme_notes)"></rect>
                <rect x="273" y="953" width="111.674" height="2" fill="#FFFFFF" fill-opacity="0.4" class="svgc_invert" filter="url(#filter_readability_theme_notes)"></rect>
                <rect x="273" y="959" width="133.326" height="2" fill="#FFFFFF" fill-opacity="0.4" class="svgc_invert" filter="url(#filter_readability_theme_notes)"></rect>
                <rect x="273" y="965" width="100.279" height="2" fill="#FFFFFF" fill-opacity="0.4" class="svgc_invert" filter="url(#filter_readability_theme_notes)"></rect>
                <text transform="translate(295 925)" text-anchor="Start" fill="#000000" font-size="16" font-family="Arial" font-weight="700"><tspan x="-22.471" y="0">Entry Title</tspan></text>
            </g>
            <g>
                <path d="M466 816C466 812.686 468.686 810 472 810H628C631.314 810 634 812.686 634 816V900H466V816Z" fill="url(#theme_notes_s_three_columns_default_image_3_id)" class="img_reference_s_three_columns_default_image_3"></path>
                <path d="M466 900H634V1016C634 1019.31 631.314 1022 628 1022H472C468.686 1022 466 1019.31 466 1016V900Z" fill="#FFFFFF"></path>
                <rect x="473" y="933" width="42" height="5" fill="#FFFFFF" fill-opacity="0.4" class="svgc_invert" filter="url(#filter_readability_theme_notes)"></rect>
                <rect x="473" y="981" width="60" height="16" rx="4" fill="#FFFFFF" class="svgc_invert" filter="url(#filter_readability_theme_notes)"></rect>
                <rect x="473" y="947" width="147" height="2" fill="#FFFFFF" fill-opacity="0.4" class="svgc_invert" filter="url(#filter_readability_theme_notes)"></rect>
                <rect x="473" y="953" width="111.674" height="2" fill="#FFFFFF" fill-opacity="0.4" class="svgc_invert" filter="url(#filter_readability_theme_notes)"></rect>
                <rect x="473" y="959" width="133.326" height="2" fill="#FFFFFF" fill-opacity="0.4" class="svgc_invert" filter="url(#filter_readability_theme_notes)"></rect>
                <rect x="473" y="965" width="100.279" height="2" fill="#FFFFFF" fill-opacity="0.4" class="svgc_invert" filter="url(#filter_readability_theme_notes)"></rect>
                <text transform="translate(495 925)" text-anchor="Start" fill="#000000" font-size="16" font-family="Arial" font-weight="700"><tspan x="-22.471" y="0">Entry Title</tspan></text>
            </g>
        </g>
        <g class="s_image_text">
            <rect y="386" width="700" height="344" fill="#FFFFFF"></rect>
            <path d="M700 730V605L0 727.378V730H700Z" fill="#3AADAA"></path>
            <g>
                <rect x="370" y="589" width="64" height="16" rx="4" fill="#7C6576"></rect>
            </g>
            <path d="M560.2 538H371.469V540H560.2V538Z" fill="#FFFFFF" fill-opacity="0.4" class="svgc_invert" filter="url(#filter_readability_theme_notes)"></path>
            <path d="M560.2 562H371.469V564H560.2V562Z" fill="#FFFFFF" fill-opacity="0.4" class="svgc_invert" filter="url(#filter_readability_theme_notes)"></path>
            <path d="M494.294 544H371.469V546H494.294V544Z" fill="#FFFFFF" fill-opacity="0.4" class="svgc_invert" filter="url(#filter_readability_theme_notes)"></path>
            <path d="M494.294 568H371.469V570H494.294V568Z" fill="#FFFFFF" fill-opacity="0.4" class="svgc_invert" filter="url(#filter_readability_theme_notes)"></path>
            <path d="M528.245 550H371.469V552H528.245V550Z" fill="#FFFFFF" fill-opacity="0.4" class="svgc_invert" filter="url(#filter_readability_theme_notes)"></path>
            <path d="M577.175 532H371.469V534H577.175V532Z" fill="#FFFFFF" fill-opacity="0.4" class="svgc_invert" filter="url(#filter_readability_theme_notes)"></path>
            <path d="M521.254 509H371.471C370.918 509 370.471 509.448 370.471 510C370.471 510.552 370.918 511 371.471 511H521.254C521.806 511 522.254 510.552 522.254 510C522.254 509.448 521.806 509 521.254 509Z" fill="#3AADAA"></path>
            <text transform="translate(390 505)" text-anchor="Start" fill="#000000" font-size="24" font-family="Arial" font-weight="700"><tspan x="-22.471" y="0">Section Title</tspan></text>
            <rect x="66" y="427" width="175" height="263" rx="6" fill="url(#theme_notes_s_image_text_default_image_id)" class="img_reference_s_image_text_default_image"></rect>
        </g>
        <g class="s_framed_intro">
            <rect y="40" width="700" height="346" fill="#7C6576"></rect>
            <rect x="403" y="63" width="231" height="300" fill="#3AADAA"></rect>
            <rect x="418" y="78" width="202" height="271" fill="url(#theme_notes_s_three_columns_default_image_2_id)" class="img_reference_s_three_columns_default_image_2"></rect>
            <g>
                <rect x="66" y="330" width="65" height="22" rx="4" fill="#3AADAA"></rect>
            </g>
            <path d="M283.595 305.917H65.9059V307.914H283.595V305.917Z" fill="#7C6576" class="svgc_invert" filter="url(#filter_readability_theme_notes)"></path>
            <path d="M188.73 311.914H65.9059V313.91H188.73V311.914Z" fill="#7C6576" class="svgc_invert" filter="url(#filter_readability_theme_notes)"></path>
            <path d="M298.573 299.921H65.9059V301.917H298.573V299.921Z" fill="#7C6576" class="svgc_invert" filter="url(#filter_readability_theme_notes)"></path>
            <text transform="translate(68 99)" text-anchor="Start" fill="#FFFFFF" class="svgc_text" filter="url(#filter_readability_anelusia)" font-size="36" font-family="Arial" font-weight="500">
                <tspan x="0" y="0">Welcome</tspan>
                <tspan x="0" y="37">Message</tspan>
            </text>
            <rect x="66" y="147" width="139" height="2" rx="1" fill="#3AADAA"></rect>
        </g>
        <g class="svgc_menu">
            <rect width="700" height="40" fill="#MENU_COLOR" class="svgc_menu_bg"></rect>
            <path d="M74.3992 24.826V22.621H68.7742V12.1742H66V24.826H74.3992ZM81.4362 25C82.594 25 83.636 24.7448 84.5637 24.236C85.4944 23.7286 86.2282 22.9892 86.7695 22.0208C87.3108 21.0538 87.58 19.8795 87.58 18.4994C87.58 17.1207 87.3093 15.9464 86.768 14.978C86.2282 14.011 85.4944 13.2731 84.5652 12.7643C83.636 12.2554 82.5925 12.0003 81.4347 12.0003C80.2694 12.0003 79.2228 12.2554 78.2951 12.7643C77.3689 13.2717 76.6351 14.011 76.0983 14.978C75.56 15.9464 75.2909 17.1207 75.2909 18.5008C75.2909 19.8752 75.56 21.0466 76.0983 22.015C76.5948 22.9422 77.3574 23.7121 78.2951 24.2331C79.2228 24.7434 80.2694 24.9985 81.4347 24.9985L81.4362 25ZM81.4362 22.6326C80.8148 22.6459 80.2033 22.4803 79.6799 22.1571C79.1792 21.8396 78.7928 21.3742 78.5161 20.761C78.241 20.1477 78.1026 19.3939 78.1026 18.4994C78.1026 17.6064 78.241 16.8525 78.5161 16.2378C78.7913 15.6246 79.1792 15.1592 79.6799 14.8432C80.2027 14.5198 80.8137 14.3542 81.4347 14.3677C82.1053 14.3677 82.6902 14.5257 83.1909 14.8432C83.6901 15.1592 84.078 15.626 84.3532 16.2393C84.6299 16.8525 84.7667 17.6064 84.7667 18.5008C84.7667 19.3939 84.6299 20.1477 84.3532 20.761C84.078 21.3742 83.6916 21.8396 83.1909 22.1571C82.6677 22.4807 82.0576 22.6463 81.4362 22.6326ZM95.3853 24.9985C96.4874 24.9985 97.4663 24.784 98.3203 24.3534C99.1592 23.9371 99.8573 23.2983 100.332 22.5123C100.819 21.7149 101.063 20.761 101.063 19.649V18.0543H95.5717V20.0695H98.3865L98.3805 20.2521C98.3549 20.5957 98.2752 20.9074 98.1444 21.1872L98.0346 21.3902C97.7953 21.7878 97.4382 22.1073 97.0092 22.3078C96.5641 22.5253 96.0258 22.6326 95.3988 22.6326C94.7071 22.6326 94.1057 22.4717 93.5975 22.1484C93.0892 21.8251 92.6953 21.3539 92.4186 20.7363C92.142 20.1188 92.0021 19.3692 92.0021 18.4878C92.0021 17.6064 92.1435 16.8598 92.4246 16.248C92.7073 15.6362 93.1013 15.1694 93.608 14.849C94.1335 14.5225 94.7482 14.3549 95.3732 14.3677C95.7311 14.3677 96.0589 14.4112 96.3566 14.4967C96.6528 14.5837 96.9174 14.7084 97.1505 14.8707C97.3836 15.0331 97.5806 15.2303 97.7429 15.4637C97.9053 15.6956 98.0316 15.9624 98.1219 16.2639H100.941C100.858 15.6571 100.651 15.0722 100.332 14.5431C100.018 14.0225 99.6035 13.5644 99.1112 13.1934C98.5994 12.8072 98.0219 12.5095 97.4046 12.3134C96.7348 12.1005 96.0334 11.9947 95.3281 12.0003C94.5006 11.993 93.6797 12.1422 92.9118 12.4395C92.174 12.7281 91.5079 13.1639 90.9571 13.7182C90.3797 14.3063 89.9357 15.0039 89.6535 15.7667C89.3437 16.5713 89.1888 17.486 89.1888 18.5124C89.1888 19.8462 89.449 20.9987 89.9677 21.9686C90.4526 22.9034 91.2084 23.6825 92.1435 24.2113C93.0757 24.7361 94.1553 24.9985 95.3853 24.9985ZM108.855 24.9985C110.012 24.9985 111.055 24.7448 111.984 24.236C112.913 23.7286 113.648 22.9892 114.188 22.0208C114.729 21.0538 115 19.8795 115 18.4994C115 17.1207 114.729 15.9464 114.188 14.978C113.647 14.011 112.913 13.2731 111.984 12.7643C111.055 12.2554 110.012 12.0003 108.855 12.0003C107.688 12.0003 106.641 12.2554 105.715 12.7643C104.787 13.2717 104.055 14.011 103.517 14.978C102.979 15.9464 102.709 17.1207 102.709 18.5008C102.709 19.8752 102.979 21.0466 103.517 22.015C104.055 22.9834 104.787 23.7228 105.715 24.2331C106.641 24.7434 107.688 24.9985 108.855 24.9985ZM108.855 22.6326C108.184 22.6326 107.598 22.4731 107.098 22.1571C106.599 21.8396 106.211 21.3742 105.936 20.761C105.66 20.1477 105.523 19.3939 105.523 18.4994C105.523 17.6064 105.66 16.8525 105.936 16.2378C106.211 15.6246 106.598 15.1592 107.098 14.8432C107.622 14.5195 108.233 14.3539 108.855 14.3677C109.525 14.3677 110.11 14.5257 110.609 14.8432C111.11 15.1592 111.497 15.626 111.773 16.2393C112.048 16.8525 112.187 17.6064 112.187 18.5008C112.187 19.3939 112.048 20.1477 111.773 20.761C111.497 21.3742 111.11 21.8396 110.609 22.1571C110.087 22.4804 109.476 22.646 108.855 22.6326Z" fill="#MENU_COLOR" class="svgc_invert" filter="url(#filter_readability_theme_notes)"></path>
            <rect x="207" y="14" width="44" height="12" fill="#MENU_COLOR" fill-opacity="0.4" class="svgc_invert" filter="url(#filter_readability_theme_notes)"></rect>
            <rect x="155" y="14" width="44" height="12" fill="#MENU_COLOR" fill-opacity="0.4" class="svgc_invert" filter="url(#filter_readability_theme_notes)"></rect>
            <rect x="259" y="14" width="44" height="12" fill="#MENU_COLOR" fill-opacity="0.4" class="svgc_invert" filter="url(#filter_readability_theme_notes)"></rect>
            <rect x="310" y="14" width="44" height="12" fill="#MENU_COLOR" fill-opacity="0.4" class="svgc_invert" filter="url(#filter_readability_theme_notes)"></rect>
            <rect x="362" y="14" width="44" height="12" fill="#MENU_COLOR" fill-opacity="0.4" class="svgc_invert" filter="url(#filter_readability_theme_notes)"></rect>
            <rect x="555" y="14" width="79" height="12" fill="#MENU_COLOR" class="svgc_invert" filter="url(#filter_readability_theme_notes)"></rect>
        </g>
        <rect y="728" width="700" height="6" fill="#3AADAA"></rect>
    </g>
    <defs>
        <clipPath id="clip0_296_158">
            <rect width="700" height="2519" fill="#FFFFFF"></rect>
        </clipPath>
    </defs>
</svg>