<svg width="700" height="1461" viewBox="0 0 700 1461" fill="none" xmlns="http://www.w3.org/2000/svg" data-vsvg="002" class="theme_bistro_svg_preview">
    <defs>
        <pattern id="theme_bistro_s_cover_default_image_id" width="1" height="1" patternunits="objectBoundingBox">
            <image href="#s_cover_default_image_url" width="700" height="200" preserveAspectRatio="xMidYMid slice"></image>
        </pattern>
        <pattern id="theme_bistro_s_media_list_default_image_1_id" width="1" height="1" patternunits="objectBoundingBox">
            <image href="#s_media_list_default_image_1_url" width="125" height="116" preserveAspectRatio="xMidYMid slice"></image>
        </pattern>
        <pattern id="theme_bistro_s_image_text_default_image_id" width="1" height="1" patternunits="objectBoundingBox">
            <image href="#s_image_text_default_image_url" width="125" height="116" preserveAspectRatio="xMidYMid slice"></image>
        </pattern>
        <pattern id="theme_bistro_s_media_list_default_image_2_id" width="1" height="1" patternunits="objectBoundingBox">
            <image href="#s_media_list_default_image_2_url" width="125" height="116" preserveAspectRatio="xMidYMid slice"></image>
        </pattern>
        <pattern id="theme_bistro_s_text_image_default_image_id" width="1" height="1" patternunits="objectBoundingBox">
            <image href="#s_text_image_default_image_url" width="125" height="116" preserveAspectRatio="xMidYMid slice"></image>
        </pattern>
        <pattern id="theme_bistro_s_quotes_carousel_demo_image_1_id" width="1" height="1" patternunits="objectBoundingBox">
            <image href="#s_quotes_carousel_demo_image_1_url"  width="700" height="241" preserveAspectRatio="xMidYMid slice"></image>
        </pattern>
        <pattern id="theme_bistro_library_image_10_id" width="1" height="1" patternunits="objectBoundingBox">
            <image href="#library_image_10_url"  width="350" height="137" preserveAspectRatio="xMidYMid slice"></image>
        </pattern>
        <pattern id="theme_bistro_library_image_05_id" width="1" height="1" patternunits="objectBoundingBox">
            <image href="#library_image_05_url" width="350" height="136" preserveAspectRatio="xMidYMid slice"></image>
        </pattern>
        <pattern id="theme_bistro_s_pricelist_cafe_default_image_id" width="1" height="1" patternunits="objectBoundingBox">
            <image href="/website/static/src/img/snippets_demo/s_pricelist_cafe_default_image.png" width="110" height="110"></image>
        </pattern>
        <filter id="filter_readability_theme_bistro">
            <feColorMatrix in="SourceGraphic" type="saturate" values="0"></feColorMatrix>
            <feComponentTransfer>
                <feFuncR type="table" tableValues="1 0"></feFuncR>
                <feFuncG type="table" tableValues="1 0"></feFuncG>
                <feFuncB type="table" tableValues="1 0"></feFuncB>
            </feComponentTransfer>
            <feComponentTransfer>
                <feFuncR type="linear" slope="10000" intercept="-4999.5"></feFuncR>
                <feFuncG type="linear" slope="10000" intercept="-4999.5"></feFuncG>
                <feFuncB type="linear" slope="10000" intercept="-4999.5"></feFuncB>
            </feComponentTransfer>
        </filter>
    </defs>
    <rect width="700" height="1461" fill="#ACACAC"></rect>
    <g clip-path="url(#clip0_250_2)" class="theme_bistro">
        <rect width="700" height="1461" fill="#FFFFFF"></rect>
        <g class="svgc_menu">
            <path d="M700 0H0V65H700V0Z" fill="#MENU_COLOR" class="svgc_menu_bg"></path>
            <path d="M622.5 12H591.5C587.358 12 584 15.3579 584 19.5C584 23.6421 587.358 27 591.5 27H622.5C626.642 27 630 23.6421 630 19.5C630 15.3579 626.642 12 622.5 12Z" fill="#3AADAA"></path>
            <path d="M571.5 12H540.5C536.358 12 533 15.3579 533 19.5C533 23.6421 536.358 27 540.5 27H571.5C575.642 27 579 23.6421 579 19.5C579 15.3579 575.642 12 571.5 12Z" fill="#MENU_COLOR" fill-opacity="0.1" class="svgc_invert" filter="url(#filter_readability_theme_bistro)"></path>
            <path d="M108.5 12H77.5C73.3579 12 70 15.3579 70 19.5C70 23.6421 73.3579 27 77.5 27H108.5C112.642 27 116 23.6421 116 19.5C116 15.3579 112.642 12 108.5 12Z" fill="#MENU_COLOR" fill-opacity="0.1" class="svgc_invert" filter="url(#filter_readability_theme_bistro)"></path>
            <path d="M456 41H419V48H456V41Z" fill="#MENU_COLOR" fill-opacity="0.3" class="svgc_invert" filter="url(#filter_readability_theme_bistro)"></path>
            <path d="M398 41H361V48H398V41Z" fill="#MENU_COLOR" fill-opacity="0.3" class="svgc_invert" filter="url(#filter_readability_theme_bistro)"></path>
            <path d="M340 41H303V48H340V41Z" fill="#MENU_COLOR" fill-opacity="0.3" class="svgc_invert" filter="url(#filter_readability_theme_bistro)"></path>
            <path d="M282 41H245V48H282V41Z" fill="#MENU_COLOR" class="svgc_invert" filter="url(#filter_readability_theme_bistro)"></path>
            <path d="M339.586 24.8472V23.3262H335.845V16.1202H334V24.8472H339.586ZM344.266 24.9672C345.036 24.9672 345.729 24.7912 346.346 24.4402C346.965 24.0902 347.453 23.5802 347.813 22.9122C348.173 22.2452 348.352 21.4352 348.352 20.4832C348.352 19.5322 348.172 18.7222 347.812 18.0542C347.453 17.3872 346.965 16.8782 346.347 16.5272C345.729 16.1762 345.035 16.0002 344.265 16.0002C343.49 16.0002 342.794 16.1762 342.177 16.5272C341.561 16.8772 341.073 17.3872 340.716 18.0542C340.358 18.7222 340.179 19.5322 340.179 20.4842C340.179 21.4322 340.358 22.2402 340.716 22.9082C341.046 23.5477 341.553 24.0788 342.177 24.4382C342.794 24.7902 343.49 24.9662 344.265 24.9662L344.266 24.9672ZM344.266 23.3342C343.853 23.3433 343.446 23.2291 343.098 23.0062C342.765 22.7872 342.508 22.4662 342.324 22.0432C342.141 21.6202 342.049 21.1002 342.049 20.4832C342.049 19.8672 342.141 19.3472 342.324 18.9232C342.507 18.5002 342.765 18.1792 343.098 17.9612C343.446 17.7381 343.852 17.6239 344.265 17.6332C344.711 17.6332 345.1 17.7422 345.433 17.9612C345.765 18.1792 346.023 18.5012 346.206 18.9242C346.39 19.3472 346.481 19.8672 346.481 20.4842C346.481 21.1002 346.39 21.6202 346.206 22.0432C346.023 22.4662 345.766 22.7872 345.433 23.0062C345.085 23.2294 344.679 23.3436 344.266 23.3342ZM353.543 24.9662C354.276 24.9662 354.927 24.8182 355.495 24.5212C356.053 24.234 356.517 23.7934 356.833 23.2512C357.157 22.7012 357.319 22.0432 357.319 21.2762V20.1762H353.667V21.5662H355.539L355.535 21.6922C355.518 21.9292 355.465 22.1442 355.378 22.3372L355.305 22.4772C355.146 22.7514 354.908 22.9719 354.623 23.1102C354.327 23.2602 353.969 23.3342 353.552 23.3342C353.092 23.3342 352.692 23.2232 352.354 23.0002C352.016 22.7772 351.754 22.4522 351.57 22.0262C351.386 21.6002 351.293 21.0832 351.293 20.4752C351.293 19.8672 351.387 19.3522 351.574 18.9302C351.762 18.5082 352.024 18.1862 352.361 17.9652C352.711 17.74 353.119 17.6244 353.535 17.6332C353.773 17.6332 353.991 17.6632 354.189 17.7222C354.386 17.7822 354.562 17.8682 354.717 17.9802C354.872 18.0922 355.003 18.2282 355.111 18.3892C355.219 18.5492 355.303 18.7332 355.363 18.9412H357.238C357.183 18.5226 357.045 18.1191 356.833 17.7542C356.624 17.3951 356.348 17.0791 356.021 16.8232C355.681 16.5568 355.297 16.3514 354.886 16.2162C354.441 16.0693 353.974 15.9964 353.505 16.0002C352.955 15.9952 352.409 16.0981 351.898 16.3032C351.407 16.5023 350.964 16.8028 350.598 17.1852C350.214 17.5908 349.919 18.0721 349.731 18.5982C349.525 19.1532 349.422 19.7842 349.422 20.4922C349.422 21.4122 349.595 22.2072 349.94 22.8762C350.262 23.521 350.765 24.0584 351.387 24.4232C352.007 24.7852 352.725 24.9662 353.543 24.9662ZM362.501 24.9662C363.271 24.9662 363.964 24.7912 364.582 24.4402C365.2 24.0902 365.689 23.5802 366.048 22.9122C366.408 22.2452 366.588 21.4352 366.588 20.4832C366.588 19.5322 366.408 18.7222 366.048 18.0542C365.688 17.3872 365.2 16.8782 364.582 16.5272C363.964 16.1762 363.271 16.0002 362.501 16.0002C361.725 16.0002 361.029 16.1762 360.413 16.5272C359.796 16.8772 359.309 17.3872 358.951 18.0542C358.593 18.7222 358.414 19.5322 358.414 20.4842C358.414 21.4322 358.593 22.2402 358.951 22.9082C359.309 23.5762 359.796 24.0862 360.413 24.4382C361.029 24.7902 361.725 24.9662 362.501 24.9662ZM362.501 23.3342C362.055 23.3342 361.665 23.2242 361.333 23.0062C361.001 22.7872 360.743 22.4662 360.56 22.0432C360.376 21.6202 360.285 21.1002 360.285 20.4832C360.285 19.8672 360.376 19.3472 360.56 18.9232C360.743 18.5002 361 18.1792 361.333 17.9612C361.681 17.7379 362.088 17.6237 362.501 17.6332C362.947 17.6332 363.336 17.7422 363.668 17.9612C364.001 18.1792 364.258 18.5012 364.442 18.9242C364.625 19.3472 364.717 19.8672 364.717 20.4842C364.717 21.1002 364.625 21.6202 364.442 22.0432C364.258 22.4662 364.001 22.7872 363.668 23.0062C363.32 23.2292 362.914 23.3434 362.501 23.3342Z" fill="#MENU_COLOR" class="svgc_invert" filter="url(#filter_readability_theme_bistro)"></path>
        </g>
        <g class="s_image_title">
            <path d="M700 65H0V265H700V65Z" fill="url(#theme_bistro_s_cover_default_image_id)" class="img_reference_s_cover_default_image"></path>
            <path d="M700 65H0V265H700V65Z" fill="black" fill-opacity="0.5"></path>
            <text transform="translate(71 116)" text-anchor="Start" fill="#FFFFFF" class="svgc_text" filter="url(#filter_readability_anelusia)" font-size="29" font-family="Arial" font-weight="700">
                <tspan x="0" y="0">Welcome</tspan>
                <tspan x="0" y="37">Message</tspan>
            </text>
            <path d="M630 233H434V235H630V233Z" fill="#383E45" fill-opacity="0.4" class="svgc_invert" filter="url(#filter_readability_theme_bistro)"></path>
            <path d="M630 228H434V230H630V228Z" fill="#383E45" fill-opacity="0.4" class="svgc_invert" filter="url(#filter_readability_theme_bistro)"></path>
            <path d="M630 238H457V240H630V238Z" fill="#383E45" fill-opacity="0.4" class="svgc_invert" filter="url(#filter_readability_theme_bistro)"></path>
        </g>
        <g class="s_key_images">
            <rect y="265" width="700" height="285" fill="#3AADAA"></rect>
            <path d="M264 325H70V327H264V325Z" fill="#3AADAA" fill-opacity="0.4" class="svgc_invert" filter="url(#filter_readability_theme_bistro)"></path>
            <path d="M250 330H70V332H250V330Z" fill="#3AADAA" fill-opacity="0.4" class="svgc_invert" filter="url(#filter_readability_theme_bistro)"></path>
            <text transform="translate(71 314)" text-anchor="Start" fill="#FFFFFF" font-size="20" font-family="Arial" font-weight="700"><tspan x="0" y="0">Entry Title</tspan></text>
            <path d="M75.4883 350.625C76.875 350.625 77.959 351.12 78.7402 352.109C79.6712 353.281 80.1367 355.225 80.1367 357.939C80.1367 360.648 79.668 362.594 78.7305 363.779C77.9557 364.756 76.875 365.244 75.4883 365.244C74.0951 365.244 72.972 364.71 72.1191 363.643C71.2663 362.568 70.8398 360.658 70.8398 357.91C70.8398 355.215 71.3086 353.275 72.2461 352.09C73.0208 351.113 74.1016 350.625 75.4883 350.625ZM75.4883 352.9C75.1562 352.9 74.86 353.008 74.5996 353.223C74.3392 353.431 74.1374 353.809 73.9941 354.355C73.8053 355.065 73.7109 356.26 73.7109 357.939C73.7109 359.619 73.7956 360.775 73.9648 361.406C74.1341 362.031 74.3457 362.448 74.5996 362.656C74.86 362.865 75.1562 362.969 75.4883 362.969C75.8203 362.969 76.1165 362.865 76.377 362.656C76.6374 362.441 76.8392 362.061 76.9824 361.514C77.1712 360.811 77.2656 359.619 77.2656 357.939C77.2656 356.26 77.181 355.107 77.0117 354.482C76.8424 353.851 76.6276 353.431 76.3672 353.223C76.1133 353.008 75.8203 352.9 75.4883 352.9ZM89.0039 365H86.2598V354.658C85.2572 355.596 84.0755 356.289 82.7148 356.738V354.248C83.431 354.014 84.209 353.571 85.0488 352.92C85.8887 352.262 86.4648 351.497 86.7773 350.625H89.0039V365Z" fill="#3AADAA" class="svgc_invert" filter="url(#filter_readability_theme_bistro)"></path>
            <path d="M220.488 350.625C221.875 350.625 222.959 351.12 223.74 352.109C224.671 353.281 225.137 355.225 225.137 357.939C225.137 360.648 224.668 362.594 223.73 363.779C222.956 364.756 221.875 365.244 220.488 365.244C219.095 365.244 217.972 364.71 217.119 363.643C216.266 362.568 215.84 360.658 215.84 357.91C215.84 355.215 216.309 353.275 217.246 352.09C218.021 351.113 219.102 350.625 220.488 350.625ZM220.488 352.9C220.156 352.9 219.86 353.008 219.6 353.223C219.339 353.431 219.137 353.809 218.994 354.355C218.805 355.065 218.711 356.26 218.711 357.939C218.711 359.619 218.796 360.775 218.965 361.406C219.134 362.031 219.346 362.448 219.6 362.656C219.86 362.865 220.156 362.969 220.488 362.969C220.82 362.969 221.117 362.865 221.377 362.656C221.637 362.441 221.839 362.061 221.982 361.514C222.171 360.811 222.266 359.619 222.266 357.939C222.266 356.26 222.181 355.107 222.012 354.482C221.842 353.851 221.628 353.431 221.367 353.223C221.113 353.008 220.82 352.9 220.488 352.9ZM236.25 362.451V365H226.631C226.735 364.036 227.048 363.125 227.568 362.266C228.089 361.4 229.118 360.254 230.654 358.828C231.891 357.676 232.65 356.895 232.93 356.484C233.307 355.918 233.496 355.358 233.496 354.805C233.496 354.193 233.33 353.724 232.998 353.398C232.673 353.066 232.22 352.9 231.641 352.9C231.068 352.9 230.612 353.073 230.273 353.418C229.935 353.763 229.74 354.336 229.688 355.137L226.953 354.863C227.116 353.353 227.627 352.269 228.486 351.611C229.346 350.954 230.42 350.625 231.709 350.625C233.122 350.625 234.232 351.006 235.039 351.768C235.846 352.529 236.25 353.477 236.25 354.609C236.25 355.254 236.133 355.869 235.898 356.455C235.671 357.035 235.306 357.643 234.805 358.281C234.473 358.704 233.874 359.313 233.008 360.107C232.142 360.902 231.592 361.429 231.357 361.689C231.13 361.95 230.944 362.204 230.801 362.451H236.25Z" fill="#3AADAA" class="svgc_invert" filter="url(#filter_readability_theme_bistro)"></path>
            <path d="M365.488 350.625C366.875 350.625 367.959 351.12 368.74 352.109C369.671 353.281 370.137 355.225 370.137 357.939C370.137 360.648 369.668 362.594 368.73 363.779C367.956 364.756 366.875 365.244 365.488 365.244C364.095 365.244 362.972 364.71 362.119 363.643C361.266 362.568 360.84 360.658 360.84 357.91C360.84 355.215 361.309 353.275 362.246 352.09C363.021 351.113 364.102 350.625 365.488 350.625ZM365.488 352.9C365.156 352.9 364.86 353.008 364.6 353.223C364.339 353.431 364.137 353.809 363.994 354.355C363.805 355.065 363.711 356.26 363.711 357.939C363.711 359.619 363.796 360.775 363.965 361.406C364.134 362.031 364.346 362.448 364.6 362.656C364.86 362.865 365.156 362.969 365.488 362.969C365.82 362.969 366.117 362.865 366.377 362.656C366.637 362.441 366.839 362.061 366.982 361.514C367.171 360.811 367.266 359.619 367.266 357.939C367.266 356.26 367.181 355.107 367.012 354.482C366.842 353.851 366.628 353.431 366.367 353.223C366.113 353.008 365.82 352.9 365.488 352.9ZM371.885 361.201L374.541 360.879C374.626 361.556 374.854 362.074 375.225 362.432C375.596 362.79 376.045 362.969 376.572 362.969C377.139 362.969 377.614 362.754 377.998 362.324C378.389 361.895 378.584 361.315 378.584 360.586C378.584 359.896 378.398 359.349 378.027 358.945C377.656 358.542 377.204 358.34 376.67 358.34C376.318 358.34 375.898 358.408 375.41 358.545L375.713 356.309C376.455 356.328 377.021 356.169 377.412 355.83C377.803 355.485 377.998 355.029 377.998 354.463C377.998 353.981 377.855 353.597 377.568 353.311C377.282 353.024 376.901 352.881 376.426 352.881C375.957 352.881 375.557 353.044 375.225 353.369C374.893 353.695 374.691 354.17 374.619 354.795L372.09 354.365C372.266 353.499 372.529 352.809 372.881 352.295C373.239 351.774 373.734 351.367 374.365 351.074C375.003 350.775 375.716 350.625 376.504 350.625C377.852 350.625 378.932 351.055 379.746 351.914C380.417 352.617 380.752 353.411 380.752 354.297C380.752 355.553 380.065 356.556 378.691 357.305C379.512 357.48 380.166 357.874 380.654 358.486C381.149 359.098 381.396 359.837 381.396 360.703C381.396 361.96 380.938 363.031 380.02 363.916C379.102 364.801 377.959 365.244 376.592 365.244C375.296 365.244 374.222 364.873 373.369 364.131C372.516 363.382 372.021 362.406 371.885 361.201Z" fill="#3AADAA" class="svgc_invert" filter="url(#filter_readability_theme_bistro)"></path>
            <path d="M510.488 350.625C511.875 350.625 512.959 351.12 513.74 352.109C514.671 353.281 515.137 355.225 515.137 357.939C515.137 360.648 514.668 362.594 513.73 363.779C512.956 364.756 511.875 365.244 510.488 365.244C509.095 365.244 507.972 364.71 507.119 363.643C506.266 362.568 505.84 360.658 505.84 357.91C505.84 355.215 506.309 353.275 507.246 352.09C508.021 351.113 509.102 350.625 510.488 350.625ZM510.488 352.9C510.156 352.9 509.86 353.008 509.6 353.223C509.339 353.431 509.137 353.809 508.994 354.355C508.805 355.065 508.711 356.26 508.711 357.939C508.711 359.619 508.796 360.775 508.965 361.406C509.134 362.031 509.346 362.448 509.6 362.656C509.86 362.865 510.156 362.969 510.488 362.969C510.82 362.969 511.117 362.865 511.377 362.656C511.637 362.441 511.839 362.061 511.982 361.514C512.171 360.811 512.266 359.619 512.266 357.939C512.266 356.26 512.181 355.107 512.012 354.482C511.842 353.851 511.628 353.431 511.367 353.223C511.113 353.008 510.82 352.9 510.488 352.9ZM522.363 365V362.119H516.504V359.717L522.715 350.625H525.02V359.707H526.797V362.119H525.02V365H522.363ZM522.363 359.707V354.814L519.072 359.707H522.363Z" fill="#3AADAA" class="svgc_invert" filter="url(#filter_readability_theme_bistro)"></path>
            <path d="M176 508H70V510H176V508Z" fill="#3AADAA" fill-opacity="0.4" class="svgc_invert" filter="url(#filter_readability_theme_bistro)"></path>
            <path d="M195 513H70V515H195V513Z" fill="#3AADAA" fill-opacity="0.4" class="svgc_invert" filter="url(#filter_readability_theme_bistro)"></path>
            <path d="M321 508H215V510H321V508Z" fill="#3AADAA" fill-opacity="0.4" class="svgc_invert" filter="url(#filter_readability_theme_bistro)"></path>
            <path d="M340 513H215V515H340V513Z" fill="#3AADAA" fill-opacity="0.4" class="svgc_invert" filter="url(#filter_readability_theme_bistro)"></path>
            <path d="M466 508H360V510H466V508Z" fill="#3AADAA" fill-opacity="0.4" class="svgc_invert" filter="url(#filter_readability_theme_bistro)"></path>
            <path d="M485 513H360V515H485V513Z" fill="#3AADAA" fill-opacity="0.4" class="svgc_invert" filter="url(#filter_readability_theme_bistro)"></path>
            <path d="M611 508H505V510H611V508Z" fill="#3AADAA" fill-opacity="0.4" class="svgc_invert" filter="url(#filter_readability_theme_bistro)"></path>
            <path d="M630 513H505V515H630V513Z" fill="#3AADAA" fill-opacity="0.4" class="svgc_invert" filter="url(#filter_readability_theme_bistro)"></path>
            <rect x="215" y="375" width="125" height="116" fill="url(#theme_bistro_s_media_list_default_image_1_id)" class="img_reference_s_media_list_default_image_1"></rect>
            <rect x="70" y="375" width="125" height="116" fill="url(#theme_bistro_s_image_text_default_image_id)" class="img_reference_s_image_text_default_image"></rect>
            <rect x="505" y="375" width="125" height="116" fill="url(#theme_bistro_s_text_image_default_image_id)" class="img_reference_s_text_image_default_image"></rect>
            <rect x="360" y="375" width="125" height="116" fill="url(#theme_bistro_s_media_list_default_image_2_id)" class="img_reference_s_media_list_default_image_2"></rect>
        </g>
        <g class="s_pricelist_cafe">
            <g>
                <rect y="550" width="350" height="297" fill="#383E45"></rect>
                <path d="M264 610H70V612H264V610Z" fill="#383E45" fill-opacity="0.4" class="svgc_invert" filter="url(#filter_readability_theme_bistro)"></path>
                <path d="M250 615H70V617H250V615Z" fill="#383E45" fill-opacity="0.4" class="svgc_invert" filter="url(#filter_readability_theme_bistro)"></path>
                <path d="M184 651H70V659H184V651Z" fill="#383E45" class="svgc_invert" filter="url(#filter_readability_theme_bistro)"></path>
                <path d="M264 696H70V698H264V696Z" fill="#383E45" fill-opacity="0.4" class="svgc_invert" filter="url(#filter_readability_theme_bistro)"></path>
                <path d="M250 701H70V703H250V701Z" fill="#383E45" fill-opacity="0.4" class="svgc_invert" filter="url(#filter_readability_theme_bistro)"></path>
                <path d="M237 706H70V708H237V706Z" fill="#383E45" fill-opacity="0.4" class="svgc_invert" filter="url(#filter_readability_theme_bistro)"></path>
                <path d="M248 683H160V684H248V683Z" fill="#383E45" fill-opacity="0.4" class="svgc_invert" filter="url(#filter_readability_theme_bistro)"></path>
                <path d="M152 681H70V686H152V681Z" fill="#383E45" class="svgc_invert" filter="url(#filter_readability_theme_bistro)"></path>
                <path d="M276 681H256V686H276V681Z" fill="#383E45" class="svgc_invert" filter="url(#filter_readability_theme_bistro)"></path>
                <path d="M264 747H70V749H264V747Z" fill="#383E45" fill-opacity="0.4" class="svgc_invert" filter="url(#filter_readability_theme_bistro)"></path>
                <path d="M250 752H70V754H250V752Z" fill="#383E45" fill-opacity="0.4" class="svgc_invert" filter="url(#filter_readability_theme_bistro)"></path>
                <path d="M237 757H70V759H237V757Z" fill="#383E45" fill-opacity="0.4" class="svgc_invert" filter="url(#filter_readability_theme_bistro)"></path>
                <path d="M248 734H160V735H248V734Z" fill="#383E45" fill-opacity="0.4" class="svgc_invert" filter="url(#filter_readability_theme_bistro)"></path>
                <path d="M152 732H70V737H152V732Z" fill="#383E45" class="svgc_invert" filter="url(#filter_readability_theme_bistro)"></path>
                <path d="M276 732H256V737H276V732Z" fill="#383E45" class="svgc_invert" filter="url(#filter_readability_theme_bistro)"></path>
                <path d="M264 798H70V800H264V798Z" fill="#383E45" fill-opacity="0.4" class="svgc_invert" filter="url(#filter_readability_theme_bistro)"></path>
                <path d="M250 803H70V805H250V803Z" fill="#383E45" fill-opacity="0.4" class="svgc_invert" filter="url(#filter_readability_theme_bistro)"></path>
                <path d="M237 808H70V810H237V808Z" fill="#383E45" fill-opacity="0.4" class="svgc_invert" filter="url(#filter_readability_theme_bistro)"></path>
                <path d="M248 785H160V786H248V785Z" fill="#383E45" fill-opacity="0.4" class="svgc_invert" filter="url(#filter_readability_theme_bistro)"></path>
                <path d="M152 783H70V788H152V783Z" fill="#383E45" class="svgc_invert" filter="url(#filter_readability_theme_bistro)"></path>
                <path d="M276 783H256V788H276V783Z" fill="#383E45" class="svgc_invert" filter="url(#filter_readability_theme_bistro)"></path>
                <text transform="translate(71 600)" text-anchor="Start" fill="#FFFFFF" font-size="20" font-family="Arial" font-weight="700"><tspan x="0" y="0">Entry Title</tspan></text>
            </g>
            <g>
                <rect x="350" y="550" width="350" height="297" fill="#FFFFFF"></rect>
                <path d="M618 610H424V612H618V610Z" fill="#FFFFFF" fill-opacity="0.4" class="svgc_invert" filter="url(#filter_readability_theme_bistro)"></path>
                <path d="M604 615H424V617H604V615Z" fill="#FFFFFF" fill-opacity="0.4" class="svgc_invert" filter="url(#filter_readability_theme_bistro)"></path>
                <path d="M538 651H424V659H538V651Z" fill="#FFFFFF" class="svgc_invert" filter="url(#filter_readability_theme_bistro)"></path>
                <path d="M618 696H424V698H618V696Z" fill="#FFFFFF" fill-opacity="0.4" class="svgc_invert" filter="url(#filter_readability_theme_bistro)"></path>
                <path d="M604 701H424V703H604V701Z" fill="#FFFFFF" fill-opacity="0.4" class="svgc_invert" filter="url(#filter_readability_theme_bistro)"></path>
                <path d="M591 706H424V708H591V706Z" fill="#FFFFFF" fill-opacity="0.4" class="svgc_invert" filter="url(#filter_readability_theme_bistro)"></path>
                <path d="M602 683H514V684H602V683Z" fill="#FFFFFF" fill-opacity="0.4" class="svgc_invert" filter="url(#filter_readability_theme_bistro)"></path>
                <path d="M506 681H424V686H506V681Z" fill="#FFFFFF" class="svgc_invert" filter="url(#filter_readability_theme_bistro)"></path>
                <path d="M630 681H610V686H630V681Z" fill="#FFFFFF" class="svgc_invert" filter="url(#filter_readability_theme_bistro)"></path>
                <path d="M618 747H424V749H618V747Z" fill="#FFFFFF" fill-opacity="0.4" class="svgc_invert" filter="url(#filter_readability_theme_bistro)"></path>
                <path d="M604 752H424V754H604V752Z" fill="#FFFFFF" fill-opacity="0.4" class="svgc_invert" filter="url(#filter_readability_theme_bistro)"></path>
                <path d="M591 757H424V759H591V757Z" fill="#FFFFFF" fill-opacity="0.4" class="svgc_invert" filter="url(#filter_readability_theme_bistro)"></path>
                <path d="M602 734H514V735H602V734Z" fill="#FFFFFF" fill-opacity="0.4" class="svgc_invert" filter="url(#filter_readability_theme_bistro)"></path>
                <path d="M506 732H424V737H506V732Z" fill="#FFFFFF" class="svgc_invert" filter="url(#filter_readability_theme_bistro)"></path>
                <path d="M630 732H610V737H630V732Z" fill="#FFFFFF" class="svgc_invert" filter="url(#filter_readability_theme_bistro)"></path>
                <path d="M618 798H424V800H618V798Z" fill="#FFFFFF" fill-opacity="0.4" class="svgc_invert" filter="url(#filter_readability_theme_bistro)"></path>
                <path d="M604 803H424V805H604V803Z" fill="#FFFFFF" fill-opacity="0.4" class="svgc_invert" filter="url(#filter_readability_theme_bistro)"></path>
                <path d="M591 808H424V810H591V808Z" fill="#FFFFFF" fill-opacity="0.4" class="svgc_invert" filter="url(#filter_readability_theme_bistro)"></path>
                <path d="M602 785H514V786H602V785Z" fill="#FFFFFF" fill-opacity="0.4" class="svgc_invert" filter="url(#filter_readability_theme_bistro)"></path>
                <path d="M506 783H424V788H506V783Z" fill="#FFFFFF" class="svgc_invert" filter="url(#filter_readability_theme_bistro)"></path>
                <path d="M630 783H610V788H630V783Z" fill="#FFFFFF" class="svgc_invert" filter="url(#filter_readability_theme_bistro)"></path>
                <text transform="translate(423 600)" text-anchor="Start" fill="#000000" font-size="20" font-family="Arial" font-weight="700"><tspan x="0" y="0">Entry Title</tspan></text>
            </g>
            <circle cx="350" cy="748" r="55" fill="url(#theme_bistro_s_pricelist_cafe_default_image_id)"></circle>
        </g>
        <g class="s_quotes_carousel">
            <rect y="847" width="700" height="241" fill="url(#theme_bistro_s_quotes_carousel_demo_image_1_id)" class="img_reference_s_quotes_carousel_demo_image_1"></rect>
            <rect x="350" y="847" width="350" height="241" fill="#3AADAA"></rect>
            <path d="M659 975L667 967L659 959" stroke="white" stroke-opacity="0.4" stroke-width="3"></path>
            <path d="M41 959L33 967L41 975" stroke="white" stroke-opacity="0.4" stroke-width="3"></path>
            <rect x="224" y="890" width="252" height="155" rx="4" fill="#FFFFFF"></rect>
            <circle cx="351" cy="1003" r="8" fill="#FFFFFF" fill-opacity="0.6" class="svgc_invert" filter="url(#filter_readability_theme_bistro)"></circle>
            <rect x="324" y="1014" width="54" height="5" fill="#FFFFFF" fill-opacity="0.4" class="svgc_invert" filter="url(#filter_readability_theme_bistro)"></rect>
            <rect x="333" y="1022" width="34" height="5" fill="#FFFFFF" fill-opacity="0.4" class="svgc_invert" filter="url(#filter_readability_theme_bistro)"></rect>
            <rect x="259" y="918" width="183" height="5" fill="#FFFFFF" fill-opacity="0.4" class="svgc_invert" filter="url(#filter_readability_theme_bistro)"></rect>
            <rect x="281" y="928" width="139" height="5" fill="#FFFFFF" fill-opacity="0.4" class="svgc_invert" filter="url(#filter_readability_theme_bistro)"></rect>
            <rect x="268" y="938" width="166" height="5" fill="#FFFFFF" fill-opacity="0.4" class="svgc_invert" filter="url(#filter_readability_theme_bistro)"></rect>
            <rect x="294" y="948" width="114" height="5" fill="#FFFFFF" fill-opacity="0.4" class="svgc_invert" filter="url(#filter_readability_theme_bistro)"></rect>
        </g>
        <g class="s_quadrant">
            <rect y="1088" width="350" height="273" fill="#7C6576"></rect>
            <rect x="350" y="1088" width="350" height="137" fill="url(#theme_bistro_library_image_10_id)" class="img_reference_library_image_10"></rect>
            <rect x="350" y="1225" width="350" height="136" fill="url(#theme_bistro_library_image_05_id)" class="img_reference_library_image_05"></rect>
            <g>
                <rect x="173" y="1124" width="354" height="200" fill="#FFFFFF"></rect>
                <path d="M447 1207H253V1209H447V1207Z" fill="#FFFFFF" fill-opacity="0.4" class="svgc_invert" filter="url(#filter_readability_theme_bistro)"></path>
                <path d="M440 1212H260V1214H440V1212Z" fill="#FFFFFF" fill-opacity="0.4" class="svgc_invert" filter="url(#filter_readability_theme_bistro)"></path>
                <path d="M440 1227H260V1229H440V1227Z" fill="#FFFFFF" fill-opacity="0.4" class="svgc_invert" filter="url(#filter_readability_theme_bistro)"></path>
                <path d="M415 1217H285V1219H415V1217Z" fill="#FFFFFF" fill-opacity="0.4" class="svgc_invert" filter="url(#filter_readability_theme_bistro)"></path>
                <path d="M415 1232H285V1234H415V1232Z" fill="#FFFFFF" fill-opacity="0.4" class="svgc_invert" filter="url(#filter_readability_theme_bistro)"></path>
                <path d="M427 1222H274V1224H427V1222Z" fill="#FFFFFF" fill-opacity="0.4" class="svgc_invert" filter="url(#filter_readability_theme_bistro)"></path>
                <path d="M427 1237H274V1239H427V1237Z" fill="#FFFFFF" fill-opacity="0.4" class="svgc_invert" filter="url(#filter_readability_theme_bistro)"></path>
                <text transform="translate(350 1185)" text-anchor="Middle" fill="#000000" font-size="20" font-family="Arial" font-weight="700"><tspan x="0" y="0">Entry Title</tspan></text>
                <path d="M383 1252H317C309.268 1252 303 1258.27 303 1266C303 1273.73 309.268 1280 317 1280H383C390.732 1280 397 1273.73 397 1266C397 1258.27 390.732 1252 383 1252Z" fill="#3AADAA"></path>
                <text transform="translate(350 1270)" text-anchor="Middle" fill="#FFFFFF" font-size="11" font-family="Arial" font-weight="700"><tspan x="0" y="0">Discover</tspan></text>
            </g>
        </g>
        <g class="svgc_footer">
            <path d="M700 1361H0V1461H700V1361Z" fill="#FOOTER_COLOR" class="svgc_footer_bg"></path>
            <path d="M630 1409H578V1411H630V1409Z" fill="#FOOTER_COLOR" class="svgc_invert" filter="url(#filter_readability_theme_bistro)"></path>
            <path d="M615 1403H578V1405H615V1403Z" fill="#FOOTER_COLOR" class="svgc_invert" filter="url(#filter_readability_theme_bistro)"></path>
            <path d="M234 1407H70V1409H234V1407Z" fill="#FOOTER_COLOR" fill-opacity="0.4" class="svgc_invert" filter="url(#filter_readability_theme_bistro)"></path>
            <path d="M234 1413H70V1415H234V1413Z" fill="#FOOTER_COLOR" fill-opacity="0.4" class="svgc_invert" filter="url(#filter_readability_theme_bistro)"></path>
            <path d="M234 1419H70V1421H234V1419Z" fill="#FOOTER_COLOR" fill-opacity="0.4" class="svgc_invert" filter="url(#filter_readability_theme_bistro)"></path>
            <path d="M234 1425H70V1427H234V1425Z" fill="#FOOTER_COLOR" fill-opacity="0.4" class="svgc_invert" filter="url(#filter_readability_theme_bistro)"></path>
            <path d="M234 1431H70V1433H234V1431Z" fill="#FOOTER_COLOR" fill-opacity="0.4" class="svgc_invert" filter="url(#filter_readability_theme_bistro)"></path>
            <path d="M327 1407H280V1409H327V1407Z" fill="#FOOTER_COLOR" fill-opacity="0.4" class="svgc_invert" filter="url(#filter_readability_theme_bistro)"></path>
            <path d="M375 1413H280V1415H375V1413Z" fill="#FOOTER_COLOR" fill-opacity="0.4" class="svgc_invert" filter="url(#filter_readability_theme_bistro)"></path>
            <path d="M388 1419H280V1421H388V1419Z" fill="#FOOTER_COLOR" fill-opacity="0.4" class="svgc_invert" filter="url(#filter_readability_theme_bistro)"></path>
            <path d="M415 1425H280V1427H415V1425Z" fill="#FOOTER_COLOR" fill-opacity="0.4" class="svgc_invert" filter="url(#filter_readability_theme_bistro)"></path>
            <path d="M388 1431H280V1433H388V1431Z" fill="#FOOTER_COLOR" fill-opacity="0.4" class="svgc_invert" filter="url(#filter_readability_theme_bistro)"></path>
            <path d="M623 1432C626.866 1432 630 1428.87 630 1425C630 1421.13 626.866 1418 623 1418C619.134 1418 616 1421.13 616 1425C616 1428.87 619.134 1432 623 1432Z" fill="#FOOTER_COLOR" class="svgc_invert" filter="url(#filter_readability_theme_bistro)"></path>
            <path d="M604 1432C607.866 1432 611 1428.87 611 1425C611 1421.13 607.866 1418 604 1418C600.134 1418 597 1421.13 597 1425C597 1428.87 600.134 1432 604 1432Z" fill="#FOOTER_COLOR" class="svgc_invert" filter="url(#filter_readability_theme_bistro)"></path>
            <path d="M585 1432C588.866 1432 592 1428.87 592 1425C592 1421.13 588.866 1418 585 1418C581.134 1418 578 1421.13 578 1425C578 1428.87 581.134 1432 585 1432Z" fill="#FOOTER_COLOR" class="svgc_invert" filter="url(#filter_readability_theme_bistro)"></path>
            <path d="M139 1384H70V1394H139V1384Z" fill="#FOOTER_COLOR" class="svgc_invert" filter="url(#filter_readability_theme_bistro)"></path>
        </g>
    </g>
    <defs>
        <clipPath id="clip0_250_2">
            <rect width="700" height="1461" fill="#FFFFFF"></rect>
        </clipPath>
    </defs>
</svg>
