<svg width="700" height="1514" viewBox="0 0 700 1514" fill="none" xmlns="http://www.w3.org/2000/svg" data-vsvg="002" class="theme_graphene_svg_preview">
    <defs>
        <style type="text/css">
            @import url('https://fonts.googleapis.com/css?family=RyuGothic');
        </style>
        <pattern id="theme_graphene_s_reference_demo_image_6_id" width="1" height="1" patternunits="objectBoundingBox">
            <image width="64" height="36" preserveAspectRatio="xMidYMid slice" href="/web/image/website.s_reference_default_image_6"></image>
        </pattern>
        <pattern id="theme_graphene_s_reference_demo_image_5_id" width="1" height="1" patternunits="objectBoundingBox">
            <image width="64" height="36" preserveAspectRatio="xMidYMid slice" href="/web/image/website.s_reference_demo_image_5"></image>
        </pattern>
        <pattern id="theme_graphene_s_reference_demo_image_4_id" width="1" height="1" patternunits="objectBoundingBox">
            <image width="64" height="36" preserveAspectRatio="xMidYMid slice" href="/web/image/website.s_reference_demo_image_4"></image>
        </pattern>
        <pattern id="theme_graphene_s_reference_demo_image_3_id" width="1" height="1" patternunits="objectBoundingBox">
            <image width="64" height="36" preserveAspectRatio="xMidYMid slice" href="/web/image/website.s_reference_demo_image_3"></image>
        </pattern>
        <pattern id="theme_graphene_s_reference_demo_image_2_id" width="1" height="1" patternunits="objectBoundingBox">
            <image width="64" height="36" preserveAspectRatio="xMidYMid slice" href="/web/image/website.s_reference_demo_image_2"></image>
        </pattern>
        <pattern id="theme_graphene_s_reference_demo_image_1_id" width="1" height="1" patternunits="objectBoundingBox">
            <image width="64" height="36" preserveAspectRatio="xMidYMid slice" href="/web/image/website.s_reference_demo_image_1"></image>
        </pattern>
        <pattern id="theme_graphene_s_cta_mockups_default_image_id" width="1" height="1" patternunits="objectBoundingBox">
            <image width="186" height="117" preserveAspectRatio="xMidYMid slice" href="/web/image/website.s_mockup_image_default_image"></image>
        </pattern>
        <pattern id="theme_graphene_s_image_text_device_perspective_id" width="1" height="1" patternunits="objectBoundingBox">
            <image width="136" height="210" preserveAspectRatio="xMidYMid slice" href="/theme_graphene/static/src/img/pictures/s_image_text_device_perspective.jpg"></image>
        </pattern>
        <pattern id="theme_graphene_s_cover_default_image_id" width="1" height="1" patternunits="objectBoundingBox">
            <image width="700" height="254" preserveAspectRatio="xMidYMid slice" href="#s_cover_default_image_url"></image>
        </pattern>
        <filter id="filter_readability_theme_graphene">
            <feColorMatrix in="SourceGraphic" type="saturate" values="0"></feColorMatrix>
            <feComponentTransfer>
                <feFuncR type="table" tableValues="1 0"></feFuncR>
                <feFuncG type="table" tableValues="1 0"></feFuncG>
                <feFuncB type="table" tableValues="1 0"></feFuncB>
            </feComponentTransfer>
            <feComponentTransfer>
                <feFuncR type="linear" slope="10000" intercept="-4999.5"></feFuncR>
                <feFuncG type="linear" slope="10000" intercept="-4999.5"></feFuncG>
                <feFuncB type="linear" slope="10000" intercept="-4999.5"></feFuncB>
            </feComponentTransfer>
        </filter>
    </defs>
    <g clip-path="url(#clip0_147_7)" class="theme_graphene">
        <rect width="700" height="1514" fill="#FFFFFF"></rect>
        <g class="svgc_footer">
            <path d="M700 1388H0V1514H700V1388Z" fill="#FOOTER_COLOR" class="svgc_footer_bg"></path>
            <path d="M374 1428C378.971 1428 383 1423.97 383 1419C383 1414.03 378.971 1410 374 1410C369.029 1410 365 1414.03 365 1419C365 1423.97 369.029 1428 374 1428Z" fill="#FOOTER_COLOR" class="svgc_invert" filter="url(#filter_readability_theme_graphene)"></path>
            <path d="M349 1428C353.971 1428 358 1423.97 358 1419C358 1414.03 353.971 1410 349 1410C344.029 1410 340 1414.03 340 1419C340 1423.97 344.029 1428 349 1428Z" fill="#FOOTER_COLOR" class="svgc_invert" filter="url(#filter_readability_theme_graphene)"></path>
            <path d="M325 1428C329.971 1428 334 1423.97 334 1419C334 1414.03 329.971 1410 325 1410C320.029 1410 316 1414.03 316 1419C316 1423.97 320.029 1428 325 1428Z" fill="#FOOTER_COLOR" class="svgc_invert" filter="url(#filter_readability_theme_graphene)"></path>
            <path d="M472 1447H227V1449H472V1447Z" fill="#FOOTER_COLOR" fill-opacity="0.4" class="svgc_invert" filter="url(#filter_readability_theme_graphene)"></path>
            <path d="M430 1453H270V1455H430V1453Z" fill="#FOOTER_COLOR" class="svgc_invert" filter="url(#filter_readability_theme_graphene)"></path>
            <path d="M333.41 1491.32V1489.03H327.778V1478.18H325V1491.32H333.41ZM340.455 1491.5C341.615 1491.5 342.658 1491.24 343.587 1490.71C344.519 1490.18 345.253 1489.41 345.795 1488.41C346.337 1487.4 346.607 1486.18 346.607 1484.75C346.607 1483.32 346.336 1482.1 345.794 1481.09C345.253 1480.09 344.519 1479.32 343.588 1478.79C342.658 1478.27 341.613 1478 340.454 1478C339.287 1478 338.239 1478.27 337.31 1478.79C336.383 1479.32 335.648 1480.09 335.111 1481.09C334.572 1482.1 334.302 1483.32 334.302 1484.75C334.302 1486.18 334.572 1487.39 335.111 1488.4C335.608 1489.36 336.372 1490.16 337.31 1490.7C338.239 1491.23 339.287 1491.5 340.454 1491.5L340.455 1491.5ZM340.455 1489.04C339.833 1489.06 339.221 1488.88 338.697 1488.55C338.196 1488.22 337.809 1487.73 337.532 1487.1C337.256 1486.46 337.118 1485.68 337.118 1484.75C337.118 1483.82 337.256 1483.04 337.532 1482.4C337.807 1481.76 338.196 1481.28 338.697 1480.95C339.22 1480.62 339.832 1480.44 340.454 1480.46C341.125 1480.46 341.711 1480.62 342.212 1480.95C342.712 1481.28 343.101 1481.77 343.376 1482.4C343.653 1483.04 343.79 1483.82 343.79 1484.75C343.79 1485.68 343.653 1486.46 343.376 1487.1C343.101 1487.73 342.714 1488.22 342.212 1488.55C341.688 1488.88 341.078 1489.06 340.455 1489.04ZM354.422 1491.5C355.525 1491.5 356.505 1491.28 357.361 1490.83C358.2 1490.4 358.899 1489.73 359.375 1488.92C359.863 1488.09 360.107 1487.1 360.107 1485.94V1484.29H354.608V1486.38H357.427L357.421 1486.57C357.395 1486.93 357.315 1487.25 357.184 1487.54L357.074 1487.75C356.835 1488.16 356.477 1488.5 356.048 1488.7C355.602 1488.93 355.063 1489.04 354.435 1489.04C353.743 1489.04 353.141 1488.87 352.632 1488.54C352.123 1488.2 351.728 1487.71 351.451 1487.07C351.174 1486.43 351.034 1485.65 351.034 1484.74C351.034 1483.82 351.176 1483.05 351.457 1482.41C351.741 1481.78 352.135 1481.29 352.642 1480.96C353.168 1480.62 353.784 1480.45 354.41 1480.46C354.768 1480.46 355.096 1480.5 355.394 1480.59C355.691 1480.68 355.956 1480.81 356.189 1480.98C356.423 1481.15 356.62 1481.35 356.782 1481.6C356.945 1481.84 357.071 1482.11 357.162 1482.43H359.985C359.902 1481.8 359.694 1481.19 359.375 1480.64C359.06 1480.1 358.645 1479.62 358.152 1479.24C357.64 1478.84 357.062 1478.53 356.444 1478.33C355.773 1478.1 355.071 1477.99 354.365 1478C353.536 1477.99 352.714 1478.15 351.945 1478.46C351.207 1478.76 350.54 1479.21 349.988 1479.78C349.41 1480.39 348.965 1481.12 348.683 1481.91C348.373 1482.75 348.218 1483.7 348.218 1484.76C348.218 1486.15 348.478 1487.34 348.998 1488.35C349.483 1489.32 350.24 1490.13 351.176 1490.68C352.109 1491.23 353.19 1491.5 354.422 1491.5ZM367.908 1491.5C369.067 1491.5 370.111 1491.24 371.041 1490.71C371.971 1490.18 372.707 1489.41 373.248 1488.41C373.79 1487.4 374.061 1486.18 374.061 1484.75C374.061 1483.32 373.79 1482.1 373.248 1481.09C372.706 1480.09 371.971 1479.32 371.041 1478.79C370.111 1478.27 369.067 1478 367.908 1478C366.74 1478 365.692 1478.27 364.765 1478.79C363.836 1479.32 363.102 1480.09 362.563 1481.09C362.025 1482.1 361.755 1483.32 361.755 1484.75C361.755 1486.18 362.025 1487.39 362.563 1488.4C363.102 1489.41 363.836 1490.17 364.765 1490.7C365.692 1491.23 366.74 1491.5 367.908 1491.5ZM367.908 1489.04C367.237 1489.04 366.649 1488.88 366.15 1488.55C365.65 1488.22 365.261 1487.73 364.986 1487.1C364.709 1486.46 364.572 1485.68 364.572 1484.75C364.572 1483.82 364.709 1483.04 364.986 1482.4C365.261 1481.76 365.648 1481.28 366.15 1480.95C366.673 1480.62 367.286 1480.44 367.908 1480.46C368.579 1480.46 369.165 1480.62 369.665 1480.95C370.166 1481.28 370.553 1481.77 370.83 1482.4C371.106 1483.04 371.244 1483.82 371.244 1484.75C371.244 1485.68 371.106 1486.46 370.83 1487.1C370.553 1487.73 370.166 1488.22 369.665 1488.55C369.141 1488.88 368.53 1489.06 367.908 1489.04Z" fill="#FOOTER_COLOR" class="svgc_invert" filter="url(#filter_readability_theme_graphene)"></path>
        </g>
        <g class="s_references">
            <rect y="1205" width="700" height="183" fill="#FFFFFF"></rect>
            <rect x="518" y="1311" width="64" height="36" fill="url(#theme_graphene_s_reference_demo_image_6_id)" class="img_reference_s_reference_demo_image_6"></rect>
            <rect x="438" y="1311" width="64" height="36" fill="url(#theme_graphene_s_reference_demo_image_5_id)" class="img_reference_s_reference_demo_image_5"></rect>
            <rect x="358" y="1311" width="64" height="36" fill="url(#theme_graphene_s_reference_demo_image_4_id)" class="img_reference_s_reference_demo_image_4"></rect>
            <rect x="278" y="1311" width="64" height="36" fill="url(#theme_graphene_s_reference_demo_image_3_id)" class="img_reference_s_reference_demo_image_3"></rect>
            <rect x="198" y="1311" width="64" height="36" fill="url(#theme_graphene_s_reference_demo_image_2_id)" class="img_reference_s_reference_demo_image_2"></rect>
            <rect x="118" y="1311" width="64" height="36" fill="url(#theme_graphene_s_reference_demo_image_1_id)" class="img_reference_s_reference_demo_image_1"></rect>
            <path d="M1.09278e-05 1204L0 1329L700 1204L1.09278e-05 1204Z" fill="#F6F6F6"></path>
            <path d="M468 1277H223V1279H468V1277Z" fill="#FFFFFF" fill-opacity="0.4" class="svgc_invert" filter="url(#filter_readability_theme_graphene)"></path>
            <path d="M403 1283H288V1285H403V1283Z" fill="#F6F6F6" class="svgc_invert" filter="url(#filter_readability_theme_graphene)"></path>
            <text transform="translate(366 1263)" text-anchor="Middle" fill="#000000" font-size="22" font-family="Arial" font-weight="700"><tspan x="-22.471" y="0">Section Title</tspan></text>
        </g>
        <g class="s_comparisons">
            <rect y="972" width="700" height="232" fill="#F6F6F6"></rect>
            <g>
                <rect x="96" y="1032" width="148" height="152" rx="8" fill="#FFFFFF"></rect>
                <rect x="104" y="1083" width="132" height="16" rx="2" fill="#7C6576"></rect>
                <path d="M203 1068H105V1070H203V1068Z" fill="#FFFFFF" fill-opacity="0.4" class="svgc_invert" filter="url(#filter_readability_theme_graphene)"></path>
                <path d="M178 1115H104V1117H178V1115Z" fill="#FFFFFF" fill-opacity="0.4" class="svgc_invert" filter="url(#filter_readability_theme_graphene)"></path>
                <path d="M198 1133H104V1135H198V1133Z" fill="#FFFFFF" fill-opacity="0.4" class="svgc_invert" filter="url(#filter_readability_theme_graphene)"></path>
                <path d="M178 1151H104V1153H178V1151Z" fill="#FFFFFF" fill-opacity="0.4" class="svgc_invert" filter="url(#filter_readability_theme_graphene)"></path>
                <path d="M223 1171H112V1173H223V1171Z" fill="#FFFFFF" fill-opacity="0.2" class="svgc_invert" filter="url(#filter_readability_theme_graphene)"></path>
                <path d="M140 1054H105V1056H140V1054Z" fill="#FFFFFF" fill-opacity="0.2" class="svgc_invert" filter="url(#filter_readability_theme_graphene)"></path>
                <path d="M231 1063H105V1065H231V1063Z" fill="#FFFFFF" fill-opacity="0.4" class="svgc_invert" filter="url(#filter_readability_theme_graphene)"></path>
                <path d="M157 1043H105V1047H157V1043Z" fill="#FFFFFF" fill-opacity="0.8" class="svgc_invert" filter="url(#filter_readability_theme_graphene)"></path>
            </g>
            <g>
                <rect x="279" y="1032" width="148" height="152" rx="8" fill="#FFFFFF"></rect>
                <rect x="287" y="1083" width="132" height="16" rx="2" fill="#3AADAA"></rect>
                <path d="M386 1068H288V1070H386V1068Z" fill="#FFFFFF" fill-opacity="0.4" class="svgc_invert" filter="url(#filter_readability_theme_graphene)"></path>
                <path d="M361 1115H287V1117H361V1115Z" fill="#FFFFFF" fill-opacity="0.4" class="svgc_invert" filter="url(#filter_readability_theme_graphene)"></path>
                <path d="M381 1133H287V1135H381V1133Z" fill="#FFFFFF" fill-opacity="0.4" class="svgc_invert" filter="url(#filter_readability_theme_graphene)"></path>
                <path d="M361 1151H287V1153H361V1151Z" fill="#FFFFFF" fill-opacity="0.4" class="svgc_invert" filter="url(#filter_readability_theme_graphene)"></path>
                <path d="M406 1171H295V1173H406V1171Z" fill="#FFFFFF" fill-opacity="0.2" class="svgc_invert" filter="url(#filter_readability_theme_graphene)"></path>
                <path d="M323 1054H288V1056H323V1054Z" fill="#FFFFFF" fill-opacity="0.2" class="svgc_invert" filter="url(#filter_readability_theme_graphene)"></path>
                <path d="M414 1063H288V1065H414V1063Z" fill="#FFFFFF" fill-opacity="0.4" class="svgc_invert" filter="url(#filter_readability_theme_graphene)"></path>
                <path d="M340 1043H288V1047H340V1043Z" fill="#FFFFFF" fill-opacity="0.8" class="svgc_invert" filter="url(#filter_readability_theme_graphene)"></path>
            </g>
            <g>
                <rect x="456" y="1032" width="148" height="152" rx="8" fill="#FFFFFF"></rect>
                <rect x="464" y="1083" width="132" height="16" rx="2" fill="#7C6576"></rect>
                <path d="M563 1068H465V1070H563V1068Z" fill="#FFFFFF" fill-opacity="0.4" class="svgc_invert" filter="url(#filter_readability_theme_graphene)"></path>
                <path d="M538 1115H464V1117H538V1115Z" fill="#FFFFFF" fill-opacity="0.4" class="svgc_invert" filter="url(#filter_readability_theme_graphene)"></path>
                <path d="M558 1133H464V1135H558V1133Z" fill="#FFFFFF" fill-opacity="0.4" class="svgc_invert" filter="url(#filter_readability_theme_graphene)"></path>
                <path d="M538 1151H464V1153H538V1151Z" fill="#FFFFFF" fill-opacity="0.4" class="svgc_invert" filter="url(#filter_readability_theme_graphene)"></path>
                <path d="M583 1171H472V1173H583V1171Z" fill="#FFFFFF" fill-opacity="0.2" class="svgc_invert" filter="url(#filter_readability_theme_graphene)"></path>
                <path d="M500 1054H465V1056H500V1054Z" fill="#FFFFFF" fill-opacity="0.2" class="svgc_invert" filter="url(#filter_readability_theme_graphene)"></path>
                <path d="M591 1063H465V1065H591V1063Z" fill="#FFFFFF" fill-opacity="0.4" class="svgc_invert" filter="url(#filter_readability_theme_graphene)"></path>
                <path d="M517 1043H465V1047H517V1043Z" fill="#FFFFFF" fill-opacity="0.8" class="svgc_invert" filter="url(#filter_readability_theme_graphene)"></path>
            </g>
            <path d="M341 1017H96V1019H341V1017Z" fill="#FFFFFF" fill-opacity="0.4" class="svgc_invert" filter="url(#filter_readability_theme_graphene)"></path>
            <text transform="translate(120 1007)" text-anchor="Start" fill="#000000" font-size="24" font-family="RyuGothic" font-weight="700"><tspan x="-22.471" y="0">Section Title</tspan></text>
        </g>
        <g class="s_mockup_image">
            <rect y="739" width="700" height="233" fill="#FFFFFF"></rect>
            <path d="M700 972V847L0 972H700Z" fill="#F6F6F6"></path>
            <g>
                <rect x="96" y="896" width="64" height="16" rx="2" fill="#3AADAA"></rect>
            </g>
            <path d="M285 848H96V850H285V848Z" fill="#FFFFFF" fill-opacity="0.4" class="svgc_invert" filter="url(#filter_readability_theme_graphene)"></path>
            <path d="M285 873H96V875H285V873Z" fill="#FFFFFF" fill-opacity="0.4" class="svgc_invert" filter="url(#filter_readability_theme_graphene)"></path>
            <path d="M219 853H96V855H219V853Z" fill="#FFFFFF" fill-opacity="0.4" class="svgc_invert" filter="url(#filter_readability_theme_graphene)"></path>
            <path d="M219 878H96V880H219V878Z" fill="#FFFFFF" fill-opacity="0.4" class="svgc_invert" filter="url(#filter_readability_theme_graphene)"></path>
            <path d="M253 858H96V860H253V858Z" fill="#FFFFFF" fill-opacity="0.4" class="svgc_invert" filter="url(#filter_readability_theme_graphene)"></path>
            <path d="M302 843H96V845H302V843Z" fill="#FFFFFF" fill-opacity="0.4" class="svgc_invert" filter="url(#filter_readability_theme_graphene)"></path>
            <text transform="translate(118 824)" text-anchor="Start" fill="#000000" font-size="32" font-family="RyuGothic" font-weight="700"><tspan x="-22.471" y="0">Section Title</tspan></text>
            <g clip-path="url(#clip1_147_7)">
                <path d="M583.363 794.159H396.497V911.519H583.363V794.159Z" fill="url(#theme_graphene_s_cta_mockups_default_image_id)" class="img_reference_s_cta_mockups_default_image"></path>
                <g clip-path="url(#clip2_147_7)">
                    <path d="M376.152 788.148H376.015V788.007H376.152V788.148Z" fill="#A9A9A9"></path>
                </g>
                <g>
                    <path d="M386.984 926.001H400.298L399.397 926.902C399.366 926.933 399.33 926.958 399.289 926.975C399.248 926.991 399.205 927 399.161 927H388.121C388.077 927 388.033 926.991 387.993 926.975C387.952 926.958 387.915 926.933 387.884 926.902L386.984 926.001Z" fill="url(#paint0_linear_147_7)"></path>
                    <path d="M386.984 926.001H400.298L399.397 926.902C399.366 926.933 399.33 926.958 399.289 926.975C399.248 926.991 399.205 927 399.161 927H388.121C388.077 927 388.033 926.991 387.993 926.975C387.952 926.958 387.915 926.933 387.884 926.902L386.984 926.001Z" fill="url(#paint1_linear_147_7)" fill-opacity="0.7"></path>
                    <path d="M386.818 926.001H400.464L400.16 926.306C400.098 926.368 400.024 926.417 399.944 926.45C399.863 926.483 399.776 926.501 399.689 926.501H387.593C387.506 926.501 387.419 926.483 387.338 926.45C387.257 926.417 387.184 926.368 387.122 926.306L386.818 926.001Z" fill="url(#paint2_linear_147_7)"></path>
                    <path d="M579.702 926.001H593.016L592.116 926.902C592.085 926.933 592.048 926.958 592.007 926.975C591.967 926.991 591.923 927 591.879 927H580.839C580.795 927 580.751 926.991 580.711 926.975C580.67 926.958 580.633 926.933 580.603 926.902L579.702 926.001Z" fill="url(#paint3_linear_147_7)"></path>
                    <path d="M579.702 926.001H593.016L592.116 926.902C592.085 926.933 592.048 926.958 592.007 926.975C591.967 926.991 591.923 927 591.879 927H580.839C580.795 927 580.751 926.991 580.711 926.975C580.67 926.958 580.633 926.933 580.603 926.902L579.702 926.001Z" fill="url(#paint4_linear_147_7)" fill-opacity="0.7"></path>
                    <path d="M579.536 926.001H593.182L592.878 926.306C592.816 926.368 592.743 926.417 592.662 926.45C592.581 926.483 592.494 926.501 592.407 926.501H580.311C580.224 926.501 580.137 926.483 580.056 926.45C579.976 926.417 579.902 926.368 579.84 926.306L579.536 926.001Z" fill="url(#paint5_linear_147_7)"></path>
                    <g>
                        <path d="M376 918.344C376 918.255 376.035 918.171 376.097 918.108C376.16 918.046 376.245 918.011 376.333 918.011H603.667C603.755 918.011 603.84 918.046 603.902 918.108C603.965 918.171 604 918.255 604 918.344V921.84C604 922.943 603.562 924.002 602.781 924.782C602.001 925.563 600.943 926.001 599.839 926.001H380.161C379.057 926.001 377.999 925.563 377.219 924.782C376.438 924.002 376 922.943 376 921.84V918.344Z" fill="url(#paint6_linear_147_7)"></path>
                        <path d="M376 918.344C376 918.255 376.035 918.171 376.097 918.108C376.16 918.046 376.245 918.011 376.333 918.011H603.667C603.755 918.011 603.84 918.046 603.902 918.108C603.965 918.171 604 918.255 604 918.344V921.84C604 922.943 603.562 924.002 602.781 924.782C602.001 925.563 600.943 926.001 599.839 926.001H380.161C379.057 926.001 377.999 925.563 377.219 924.782C376.438 924.002 376 922.943 376 921.84V918.344Z" fill="url(#paint7_linear_147_7)" fill-opacity="0.7"></path>
                    </g>
                    <path d="M472.526 918.011H507.474C507.474 918.673 507.211 919.308 506.743 919.776C506.275 920.245 505.64 920.508 504.978 920.508H475.022C474.36 920.508 473.725 920.245 473.257 919.776C472.789 919.308 472.526 918.673 472.526 918.011Z" fill="url(#paint8_linear_147_7)"></path>
                    <path d="M581.366 788H398.634C397.354 788 396.126 788.509 395.221 789.414C394.316 790.319 393.807 791.547 393.807 792.828V918.011H586.193V792.828C586.193 791.547 585.684 790.319 584.779 789.414C583.874 788.509 582.646 788 581.366 788ZM583.363 911.519H396.497V794.159H583.363V911.519Z" fill="#6D6E70"></path>
                    <path d="M581.366 788.333H398.634C397.442 788.333 396.299 788.806 395.456 789.649C394.614 790.492 394.14 791.636 394.14 792.828V918.011H585.86V792.828C585.86 791.636 585.386 790.492 584.544 789.649C583.701 788.806 582.558 788.333 581.366 788.333ZM583.363 911.519H396.497V794.159H583.363V911.519Z" fill="#1F1F1F"></path>
                    <path d="M581.366 788.832H398.634C397.574 788.832 396.558 789.253 395.809 790.003C395.06 790.752 394.639 791.768 394.639 792.828V913.516H585.361V792.828C585.361 791.768 584.94 790.752 584.191 790.003C583.442 789.253 582.426 788.832 581.366 788.832ZM583.363 911.519H396.497V794.159H583.363V911.519Z" fill="black"></path>
                    <path d="M585.361 913.516H394.639V918.011H585.361V913.516Z" fill="url(#paint9_linear_147_7)"></path>
                    <path d="M581.034 790.83H398.966C398.348 790.83 397.756 791.075 397.319 791.513C396.882 791.95 396.636 792.542 396.636 793.16V794.159H583.363V793.16C583.363 792.542 583.118 791.95 582.681 791.513C582.244 791.075 581.651 790.83 581.034 790.83Z" fill="#FFFFFF"></path>
                    <path d="M478.184 790.83H479.682C479.814 790.83 479.941 790.883 480.035 790.976C480.128 791.07 480.181 791.197 480.181 791.329V793.16C480.181 793.425 480.286 793.679 480.474 793.867C480.661 794.054 480.915 794.159 481.18 794.159H498.987C499.208 794.159 499.419 794.072 499.575 793.915C499.731 793.759 499.819 793.548 499.819 793.327V791.329C499.819 791.197 499.872 791.07 499.965 790.976C500.059 790.883 500.186 790.83 500.318 790.83H478.184Z" fill="black"></path>
                    <path d="M583.705 790.768H396.497V794.159H583.705V790.768Z" fill="black"></path>
                    <path d="M490 792.495C490.46 792.495 490.832 792.122 490.832 791.662C490.832 791.203 490.46 790.83 490 790.83C489.54 790.83 489.168 791.203 489.168 791.662C489.168 792.122 489.54 792.495 490 792.495Z" fill="url(#paint10_radial_147_7)"></path>
                    <g style="mix-blend-mode:saturation">
                        <path d="M603.667 918.011H586.193V792.828C586.193 791.547 585.684 790.319 584.779 789.414C583.874 788.509 582.646 788 581.366 788H398.634C397.354 788 396.126 788.509 395.221 789.414C394.316 790.319 393.807 791.547 393.807 792.828V918.011H376.333C376.245 918.011 376.16 918.046 376.097 918.108C376.035 918.171 376 918.255 376 918.344V921.84C376 922.943 376.438 924.002 377.219 924.782C377.999 925.563 379.057 926.001 380.161 926.001H386.818L387.122 926.306C387.217 926.401 387.339 926.465 387.472 926.489L387.884 926.902C387.915 926.933 387.952 926.958 387.993 926.975C388.033 926.991 388.077 927 388.121 927H399.161C399.205 927 399.249 926.991 399.289 926.975C399.33 926.958 399.366 926.933 399.397 926.902L399.81 926.489C399.943 926.465 400.064 926.401 400.16 926.306L400.464 926.001H579.536L579.84 926.306C579.936 926.401 580.057 926.465 580.19 926.489L580.603 926.902C580.633 926.933 580.67 926.958 580.711 926.975C580.751 926.991 580.795 927 580.839 927H591.879C591.923 927 591.967 926.991 592.007 926.975C592.048 926.958 592.085 926.933 592.116 926.902L592.528 926.489C592.661 926.465 592.783 926.401 592.878 926.306L593.182 926.001H599.839C600.943 926.001 602.001 925.563 602.781 924.782C603.562 924.002 604 922.943 604 921.84V918.344C604 918.255 603.965 918.171 603.902 918.108C603.84 918.046 603.755 918.011 603.667 918.011ZM585.86 918.011H394.14V792.828C394.14 791.636 394.614 790.492 395.456 789.649C396.299 788.806 397.442 788.333 398.634 788.333H581.366C582.558 788.333 583.701 788.806 584.544 789.649C585.386 790.492 585.86 791.636 585.86 792.828V918.011Z" fill="black"></path>
                    </g>
                    <path opacity="0.25" d="M603.667 918.011H586.193V792.828C586.193 791.547 585.684 790.319 584.779 789.414C583.874 788.509 582.646 788 581.366 788H398.634C397.354 788 396.126 788.509 395.221 789.414C394.316 790.319 393.807 791.547 393.807 792.828V918.011H376.333C376.245 918.011 376.16 918.046 376.097 918.108C376.035 918.171 376 918.255 376 918.344V921.84C376 922.943 376.438 924.002 377.219 924.782C377.999 925.563 379.057 926.001 380.161 926.001H386.818L387.122 926.306C387.217 926.401 387.339 926.465 387.472 926.489L387.884 926.902C387.915 926.933 387.952 926.958 387.993 926.975C388.033 926.991 388.077 927 388.121 927H399.161C399.205 927 399.249 926.991 399.289 926.975C399.33 926.958 399.366 926.933 399.397 926.902L399.81 926.489C399.943 926.465 400.064 926.401 400.16 926.306L400.464 926.001H579.536L579.84 926.306C579.936 926.401 580.057 926.465 580.19 926.489L580.603 926.902C580.633 926.933 580.67 926.958 580.711 926.975C580.751 926.991 580.795 927 580.839 927H591.879C591.923 927 591.967 926.991 592.007 926.975C592.048 926.958 592.085 926.933 592.116 926.902L592.528 926.489C592.661 926.465 592.783 926.401 592.878 926.306L593.182 926.001H599.839C600.943 926.001 602.001 925.563 602.781 924.782C603.562 924.002 604 922.943 604 921.84V918.344C604 918.255 603.965 918.171 603.902 918.108C603.84 918.046 603.755 918.011 603.667 918.011ZM585.86 918.011H394.14V792.828C394.14 791.636 394.614 790.492 395.456 789.649C396.299 788.806 397.442 788.333 398.634 788.333H581.366C582.558 788.333 583.701 788.806 584.544 789.649C585.386 790.492 585.86 791.636 585.86 792.828V918.011Z" fill="black"></path>
                    <g style="mix-blend-mode:overlay" opacity="0.75">
                        <path d="M603.667 918.011H586.193V792.828C586.193 791.547 585.684 790.319 584.779 789.414C583.874 788.509 582.646 788 581.366 788H398.634C397.354 788 396.126 788.509 395.221 789.414C394.316 790.319 393.807 791.547 393.807 792.828V918.011H376.333C376.245 918.011 376.16 918.046 376.097 918.108C376.035 918.171 376 918.255 376 918.344V921.84C376 922.943 376.438 924.002 377.219 924.782C377.999 925.563 379.057 926.001 380.161 926.001H386.818L387.122 926.306C387.217 926.401 387.339 926.465 387.472 926.489L387.884 926.902C387.915 926.933 387.952 926.958 387.993 926.975C388.033 926.991 388.077 927 388.121 927H399.161C399.205 927 399.249 926.991 399.289 926.975C399.33 926.958 399.366 926.933 399.397 926.902L399.81 926.489C399.943 926.465 400.064 926.401 400.16 926.306L400.464 926.001H579.536L579.84 926.306C579.936 926.401 580.057 926.465 580.19 926.489L580.603 926.902C580.633 926.933 580.67 926.958 580.711 926.975C580.751 926.991 580.795 927 580.839 927H591.879C591.923 927 591.967 926.991 592.007 926.975C592.048 926.958 592.085 926.933 592.116 926.902L592.528 926.489C592.661 926.465 592.783 926.401 592.878 926.306L593.182 926.001H599.839C600.943 926.001 602.001 925.563 602.781 924.782C603.562 924.002 604 922.943 604 921.84V918.344C604 918.255 603.965 918.171 603.902 918.108C603.84 918.046 603.755 918.011 603.667 918.011ZM585.86 918.011H394.14V792.828C394.14 791.636 394.614 790.492 395.456 789.649C396.299 788.806 397.442 788.333 398.634 788.333H581.366C582.558 788.333 583.701 788.806 584.544 789.649C585.386 790.492 585.86 791.636 585.86 792.828V918.011Z" fill="#F6F6F6"></path>
                    </g>
                </g>
            </g>
        </g>
        <g class="s_numbers_grid">
            <path d="M0 543H700V739H0V543Z" fill="#383E45"></path>
            <rect x="241.477" y="549.374" width="44" height="232.267" rx="22" transform="rotate(60 241.477 549.374)" fill="#3AADAA"></rect>
            <path d="M0 671.47V641.447L112.492 576.5C118.71 572.91 126.661 575.041 130.251 581.258C133.84 587.476 131.71 595.427 125.492 599.017L0 671.47Z" fill="#3AADAA"></path>
            <path d="M73.0341 739H31.4724C31.9414 735.071 34.192 731.403 37.8828 729.272L172.117 651.772C178.335 648.183 186.285 650.313 189.875 656.531C193.465 662.749 191.335 670.699 185.117 674.289L73.0341 739Z" fill="#3AADAA"></path>
            <circle cx="153" cy="566" r="9" fill="#3AADAA"></circle>
            <g>
                <path d="M96 577C96 572.582 99.5817 569 104 569H208.542C212.961 569 216.542 572.582 216.542 577V625.688C216.542 630.106 212.961 633.688 208.542 633.688H104C99.5817 633.688 96 630.106 96 625.688V577Z" fill="black" fill-opacity="0.8"></path>
                <path d="M167.034 578.703H107.839V580.859H167.034V578.703Z" fill="#383E45" class="svgc_invert" filter="url(#filter_readability_theme_graphene)"></path>
                <path d="M116.265 619.766C115.225 619.766 114.295 619.646 113.475 619.406C112.655 619.166 111.925 618.846 111.285 618.446C110.665 618.046 110.105 617.596 109.605 617.096L111.465 614.486C112.045 615.026 112.675 615.486 113.355 615.866C114.055 616.246 114.835 616.436 115.695 616.436C116.355 616.436 116.935 616.316 117.435 616.076C117.955 615.816 118.355 615.456 118.635 614.996C118.915 614.516 119.055 613.926 119.055 613.226C119.055 612.226 118.765 611.456 118.185 610.916C117.605 610.376 116.845 610.106 115.905 610.106C115.345 610.106 114.865 610.186 114.465 610.346C114.065 610.486 113.575 610.736 112.995 611.096L111.135 609.896L111.675 600.356H122.295V603.806H115.215L114.885 607.706C115.265 607.526 115.625 607.396 115.965 607.316C116.305 607.236 116.695 607.196 117.135 607.196C118.215 607.196 119.215 607.416 120.135 607.856C121.055 608.276 121.785 608.926 122.325 609.806C122.885 610.666 123.165 611.776 123.165 613.136C123.165 614.536 122.845 615.736 122.205 616.736C121.565 617.716 120.715 618.466 119.655 618.986C118.615 619.506 117.485 619.766 116.265 619.766ZM133.468 619.406V608.096C133.468 607.516 133.488 606.826 133.528 606.026C133.588 605.206 133.628 604.506 133.648 603.926H133.528C133.288 604.446 133.038 604.966 132.778 605.486C132.518 606.006 132.248 606.536 131.968 607.076L129.148 611.606H139.588V614.756H125.188V611.906L132.328 600.356H137.308V619.406H133.468ZM146.472 619.766L157.062 599.486H159.492L148.872 619.766H146.472ZM145.962 611.426C145.022 611.426 144.182 611.186 143.442 610.706C142.722 610.206 142.152 609.496 141.732 608.576C141.332 607.636 141.132 606.506 141.132 605.186C141.132 603.226 141.582 601.706 142.482 600.626C143.402 599.546 144.562 599.006 145.962 599.006C147.362 599.006 148.512 599.546 149.412 600.626C150.312 601.706 150.762 603.226 150.762 605.186C150.762 606.506 150.552 607.636 150.132 608.576C149.732 609.496 149.162 610.206 148.422 610.706C147.702 611.186 146.882 611.426 145.962 611.426ZM145.962 609.116C146.502 609.116 146.952 608.816 147.312 608.216C147.692 607.616 147.882 606.606 147.882 605.186C147.882 603.786 147.692 602.796 147.312 602.216C146.952 601.636 146.502 601.346 145.962 601.346C145.422 601.346 144.962 601.636 144.582 602.216C144.202 602.796 144.012 603.786 144.012 605.186C144.012 606.606 144.202 607.616 144.582 608.216C144.962 608.816 145.422 609.116 145.962 609.116ZM160.032 619.766C159.092 619.766 158.262 619.516 157.542 619.016C156.822 618.516 156.252 617.806 155.832 616.886C155.432 615.946 155.232 614.826 155.232 613.526C155.232 611.566 155.682 610.046 156.582 608.966C157.482 607.886 158.632 607.346 160.032 607.346C161.432 607.346 162.582 607.886 163.482 608.966C164.402 610.046 164.862 611.566 164.862 613.526C164.862 614.826 164.652 615.946 164.232 616.886C163.812 617.806 163.242 618.516 162.522 619.016C161.802 619.516 160.972 619.766 160.032 619.766ZM160.032 617.456C160.592 617.456 161.052 617.156 161.412 616.556C161.772 615.956 161.952 614.946 161.952 613.526C161.952 612.106 161.772 611.106 161.412 610.526C161.052 609.946 160.592 609.656 160.032 609.656C159.512 609.656 159.062 609.946 158.682 610.526C158.302 611.106 158.112 612.106 158.112 613.526C158.112 614.946 158.302 615.956 158.682 616.556C159.062 617.156 159.512 617.456 160.032 617.456Z" fill="#383E45" class="svgc_invert" filter="url(#filter_readability_theme_graphene)"></path>
            </g>
            <g>
                <path d="M96.0001 650.312C96.0001 645.894 99.5818 642.312 104 642.312H208.542C212.961 642.312 216.542 645.894 216.542 650.313V699C216.542 703.418 212.961 707 208.542 707H104C99.5819 707 96.0001 703.418 96.0001 699V650.312Z" fill="black" fill-opacity="0.8"></path>
                <path d="M167.034 652.016H107.839V654.172H167.034V652.016Z" fill="#383E45" class="svgc_invert" filter="url(#filter_readability_theme_graphene)"></path>
                <path d="M116.295 693.079C115.635 693.079 114.935 692.989 114.195 692.809C113.455 692.629 112.725 692.369 112.005 692.029C111.305 691.669 110.685 691.239 110.145 690.739L111.945 687.949C112.705 688.529 113.435 688.979 114.135 689.299C114.835 689.599 115.555 689.749 116.295 689.749C117.175 689.749 117.825 689.559 118.245 689.179C118.665 688.799 118.875 688.249 118.875 687.529C118.875 686.969 118.685 686.489 118.305 686.089C117.925 685.689 117.425 685.329 116.805 685.009C116.205 684.689 115.565 684.359 114.885 684.019C114.205 683.679 113.555 683.289 112.935 682.849C112.335 682.389 111.835 681.849 111.435 681.229C111.055 680.589 110.865 679.809 110.865 678.889C110.865 677.749 111.115 676.759 111.615 675.919C112.115 675.079 112.825 674.439 113.745 673.999C114.665 673.539 115.735 673.309 116.955 673.309C118.235 673.309 119.315 673.549 120.195 674.029C121.075 674.489 121.865 675.079 122.565 675.799L120.495 678.169C119.955 677.649 119.425 677.259 118.905 676.999C118.405 676.739 117.825 676.609 117.165 676.609C116.425 676.609 115.845 676.779 115.425 677.119C115.025 677.459 114.825 677.989 114.825 678.709C114.825 679.209 115.015 679.639 115.395 679.999C115.775 680.359 116.265 680.689 116.865 680.989C117.485 681.289 118.135 681.609 118.815 681.949C119.495 682.269 120.135 682.659 120.735 683.119C121.355 683.559 121.855 684.109 122.235 684.769C122.615 685.429 122.805 686.249 122.805 687.229C122.805 688.369 122.555 689.379 122.055 690.259C121.555 691.139 120.815 691.829 119.835 692.329C118.875 692.829 117.695 693.079 116.295 693.079ZM115.395 696.019V691.429H118.155V696.019H115.395ZM115.395 674.599V670.369H118.155V674.599H115.395ZM131.879 693.079C130.859 693.079 129.939 692.959 129.119 692.719C128.299 692.499 127.569 692.189 126.929 691.789C126.289 691.369 125.739 690.899 125.279 690.379L127.199 687.769C127.779 688.329 128.419 688.799 129.119 689.179C129.839 689.559 130.629 689.749 131.489 689.749C132.449 689.749 133.229 689.539 133.829 689.119C134.429 688.679 134.729 688.069 134.729 687.289C134.729 686.709 134.579 686.209 134.279 685.789C133.979 685.349 133.449 685.009 132.689 684.769C131.929 684.529 130.849 684.409 129.449 684.409V681.469C130.629 681.469 131.549 681.359 132.209 681.139C132.889 680.899 133.369 680.579 133.649 680.179C133.949 679.779 134.099 679.309 134.099 678.769C134.099 678.049 133.879 677.499 133.439 677.119C132.999 676.719 132.389 676.519 131.609 676.519C130.909 676.519 130.269 676.669 129.689 676.969C129.109 677.269 128.529 677.689 127.949 678.229L125.849 675.739C126.729 674.979 127.649 674.389 128.609 673.969C129.569 673.529 130.629 673.309 131.789 673.309C133.069 673.309 134.189 673.509 135.149 673.909C136.109 674.309 136.859 674.889 137.399 675.649C137.939 676.409 138.209 677.349 138.209 678.469C138.209 679.469 137.929 680.329 137.369 681.049C136.809 681.749 136.019 682.319 134.999 682.759V682.879C135.739 683.079 136.399 683.389 136.979 683.809C137.559 684.229 138.009 684.749 138.329 685.369C138.669 685.989 138.839 686.709 138.839 687.529C138.839 688.709 138.519 689.719 137.879 690.559C137.259 691.379 136.419 692.009 135.359 692.449C134.299 692.869 133.139 693.079 131.879 693.079ZM148.182 693.079C146.142 693.079 144.512 692.229 143.292 690.529C142.072 688.829 141.462 686.359 141.462 683.119C141.462 679.859 142.072 677.409 143.292 675.769C144.512 674.129 146.142 673.309 148.182 673.309C150.202 673.309 151.822 674.139 153.042 675.799C154.262 677.439 154.872 679.879 154.872 683.119C154.872 686.359 154.262 688.829 153.042 690.529C151.822 692.229 150.202 693.079 148.182 693.079ZM148.182 689.899C148.702 689.899 149.172 689.699 149.592 689.299C150.032 688.899 150.372 688.209 150.612 687.229C150.852 686.229 150.972 684.859 150.972 683.119C150.972 681.359 150.852 679.999 150.612 679.039C150.372 678.079 150.032 677.419 149.592 677.059C149.172 676.679 148.702 676.489 148.182 676.489C147.642 676.489 147.152 676.679 146.712 677.059C146.292 677.419 145.962 678.079 145.722 679.039C145.482 679.999 145.362 681.359 145.362 683.119C145.362 684.859 145.482 686.229 145.722 687.229C145.962 688.209 146.292 688.899 146.712 689.299C147.152 689.699 147.642 689.899 148.182 689.899Z" fill="#383E45" class="svgc_invert" filter="url(#filter_readability_theme_graphene)"></path>
            </g>
            <g>
                <path d="M225.153 577C225.153 572.582 228.734 569 233.153 569H337.695C342.113 569 345.695 572.582 345.695 577V625.688C345.695 630.106 342.113 633.688 337.695 633.688H233.153C228.734 633.688 225.153 630.106 225.153 625.688V577Z" fill="black" fill-opacity="0.8"></path>
                <path d="M296.186 578.703H236.992V580.859H296.186V578.703Z" fill="#383E45" class="svgc_invert" filter="url(#filter_readability_theme_graphene)"></path>
                <path d="M239.178 619.406V617.036C240.858 615.456 242.328 614.026 243.588 612.746C244.848 611.446 245.828 610.266 246.528 609.206C247.228 608.146 247.578 607.146 247.578 606.206C247.578 605.246 247.328 604.506 246.828 603.986C246.328 603.466 245.628 603.206 244.728 603.206C244.048 603.206 243.418 603.406 242.838 603.806C242.258 604.206 241.728 604.676 241.248 605.216L238.998 602.996C239.918 601.996 240.858 601.246 241.818 600.746C242.798 600.246 243.958 599.996 245.298 599.996C246.538 599.996 247.618 600.246 248.538 600.746C249.478 601.226 250.208 601.916 250.728 602.816C251.248 603.716 251.508 604.776 251.508 605.996C251.508 607.076 251.208 608.176 250.608 609.296C250.008 610.416 249.218 611.556 248.238 612.716C247.278 613.856 246.238 615.006 245.118 616.166C245.618 616.106 246.158 616.056 246.738 616.016C247.338 615.976 247.868 615.956 248.328 615.956H252.438V619.406H239.178ZM261.631 619.766C259.591 619.766 257.961 618.916 256.741 617.216C255.521 615.516 254.911 613.046 254.911 609.806C254.911 606.546 255.521 604.096 256.741 602.456C257.961 600.816 259.591 599.996 261.631 599.996C263.651 599.996 265.271 600.826 266.491 602.486C267.711 604.126 268.321 606.566 268.321 609.806C268.321 613.046 267.711 615.516 266.491 617.216C265.271 618.916 263.651 619.766 261.631 619.766ZM261.631 616.586C262.151 616.586 262.621 616.386 263.041 615.986C263.481 615.586 263.821 614.896 264.061 613.916C264.301 612.916 264.421 611.546 264.421 609.806C264.421 608.046 264.301 606.686 264.061 605.726C263.821 604.766 263.481 604.106 263.041 603.746C262.621 603.366 262.151 603.176 261.631 603.176C261.091 603.176 260.601 603.366 260.161 603.746C259.741 604.106 259.411 604.766 259.171 605.726C258.931 606.686 258.811 608.046 258.811 609.806C258.811 611.546 258.931 612.916 259.171 613.916C259.411 614.896 259.741 615.586 260.161 615.986C260.601 616.386 261.091 616.586 261.631 616.586ZM277.334 619.766C275.294 619.766 273.664 618.916 272.444 617.216C271.224 615.516 270.614 613.046 270.614 609.806C270.614 606.546 271.224 604.096 272.444 602.456C273.664 600.816 275.294 599.996 277.334 599.996C279.354 599.996 280.974 600.826 282.194 602.486C283.414 604.126 284.024 606.566 284.024 609.806C284.024 613.046 283.414 615.516 282.194 617.216C280.974 618.916 279.354 619.766 277.334 619.766ZM277.334 616.586C277.854 616.586 278.324 616.386 278.744 615.986C279.184 615.586 279.524 614.896 279.764 613.916C280.004 612.916 280.124 611.546 280.124 609.806C280.124 608.046 280.004 606.686 279.764 605.726C279.524 604.766 279.184 604.106 278.744 603.746C278.324 603.366 277.854 603.176 277.334 603.176C276.794 603.176 276.304 603.366 275.864 603.746C275.444 604.106 275.114 604.766 274.874 605.726C274.634 606.686 274.514 608.046 274.514 609.806C274.514 611.546 274.634 612.916 274.874 613.916C275.114 614.896 275.444 615.586 275.864 615.986C276.304 616.386 276.794 616.586 277.334 616.586Z" fill="#383E45" class="svgc_invert" filter="url(#filter_readability_theme_graphene)"></path>
            </g>
            <g>
                <path d="M225.153 650.312C225.153 645.894 228.734 642.312 233.153 642.312H337.695C342.113 642.312 345.695 645.894 345.695 650.313V699C345.695 703.418 342.113 707 337.695 707H233.153C228.734 707 225.153 703.418 225.153 699V650.312Z" fill="black" fill-opacity="0.8"></path>
                <path d="M296.186 652.016H236.992V654.172H296.186V652.016Z" fill="#383E45" class="svgc_invert" filter="url(#filter_readability_theme_graphene)"></path>
                <path d="M239.268 692.719V689.389H243.468V677.899H239.898V675.349C240.898 675.149 241.758 674.919 242.478 674.659C243.198 674.379 243.888 674.049 244.548 673.669H247.578V689.389H251.208V692.719H239.268ZM260.254 693.079C258.214 693.079 256.584 692.229 255.364 690.529C254.144 688.829 253.534 686.359 253.534 683.119C253.534 679.859 254.144 677.409 255.364 675.769C256.584 674.129 258.214 673.309 260.254 673.309C262.274 673.309 263.894 674.139 265.114 675.799C266.334 677.439 266.944 679.879 266.944 683.119C266.944 686.359 266.334 688.829 265.114 690.529C263.894 692.229 262.274 693.079 260.254 693.079ZM260.254 689.899C260.774 689.899 261.244 689.699 261.664 689.299C262.104 688.899 262.444 688.209 262.684 687.229C262.924 686.229 263.044 684.859 263.044 683.119C263.044 681.359 262.924 679.999 262.684 679.039C262.444 678.079 262.104 677.419 261.664 677.059C261.244 676.679 260.774 676.489 260.254 676.489C259.714 676.489 259.224 676.679 258.784 677.059C258.364 677.419 258.034 678.079 257.794 679.039C257.554 679.999 257.434 681.359 257.434 683.119C257.434 684.859 257.554 686.229 257.794 687.229C258.034 688.209 258.364 688.899 258.784 689.299C259.224 689.699 259.714 689.899 260.254 689.899ZM275.957 693.079C273.917 693.079 272.287 692.229 271.067 690.529C269.847 688.829 269.237 686.359 269.237 683.119C269.237 679.859 269.847 677.409 271.067 675.769C272.287 674.129 273.917 673.309 275.957 673.309C277.977 673.309 279.597 674.139 280.817 675.799C282.037 677.439 282.647 679.879 282.647 683.119C282.647 686.359 282.037 688.829 280.817 690.529C279.597 692.229 277.977 693.079 275.957 693.079ZM275.957 689.899C276.477 689.899 276.947 689.699 277.367 689.299C277.807 688.899 278.147 688.209 278.387 687.229C278.627 686.229 278.747 684.859 278.747 683.119C278.747 681.359 278.627 679.999 278.387 679.039C278.147 678.079 277.807 677.419 277.367 677.059C276.947 676.679 276.477 676.489 275.957 676.489C275.417 676.489 274.927 676.679 274.487 677.059C274.067 677.419 273.737 678.079 273.497 679.039C273.257 679.999 273.137 681.359 273.137 683.119C273.137 684.859 273.257 686.229 273.497 687.229C273.737 688.209 274.067 688.899 274.487 689.299C274.927 689.699 275.417 689.899 275.957 689.899Z" fill="#383E45" class="svgc_invert" filter="url(#filter_readability_theme_graphene)"></path>
            </g>
            <g>
                <path d="M354.305 577C354.305 572.582 357.887 569 362.305 569H466.848C471.266 569 474.848 572.582 474.848 577V625.688C474.848 630.106 471.266 633.688 466.848 633.688H362.305C357.887 633.688 354.305 630.106 354.305 625.688V577Z" fill="black" fill-opacity="0.8"></path>
                <path d="M425.339 578.703H366.144V580.859H425.339V578.703Z" fill="#383E45" class="svgc_invert" filter="url(#filter_readability_theme_graphene)"></path>
                <path d="M374.6 619.766C373.94 619.766 373.24 619.676 372.5 619.496C371.76 619.316 371.03 619.056 370.31 618.716C369.61 618.356 368.99 617.926 368.45 617.426L370.25 614.636C371.01 615.216 371.74 615.666 372.44 615.986C373.14 616.286 373.86 616.436 374.6 616.436C375.48 616.436 376.13 616.246 376.55 615.866C376.97 615.486 377.18 614.936 377.18 614.216C377.18 613.656 376.99 613.176 376.61 612.776C376.23 612.376 375.73 612.016 375.11 611.696C374.51 611.376 373.87 611.046 373.19 610.706C372.51 610.366 371.86 609.976 371.24 609.536C370.64 609.076 370.14 608.536 369.74 607.916C369.36 607.276 369.17 606.496 369.17 605.576C369.17 604.436 369.42 603.446 369.92 602.606C370.42 601.766 371.13 601.126 372.05 600.686C372.97 600.226 374.04 599.996 375.26 599.996C376.54 599.996 377.62 600.236 378.5 600.716C379.38 601.176 380.17 601.766 380.87 602.486L378.8 604.856C378.26 604.336 377.73 603.946 377.21 603.686C376.71 603.426 376.13 603.296 375.47 603.296C374.73 603.296 374.15 603.466 373.73 603.806C373.33 604.146 373.13 604.676 373.13 605.396C373.13 605.896 373.32 606.326 373.7 606.686C374.08 607.046 374.57 607.376 375.17 607.676C375.79 607.976 376.44 608.296 377.12 608.636C377.8 608.956 378.44 609.346 379.04 609.806C379.66 610.246 380.16 610.796 380.54 611.456C380.92 612.116 381.11 612.936 381.11 613.916C381.11 615.056 380.86 616.066 380.36 616.946C379.86 617.826 379.12 618.516 378.14 619.016C377.18 619.516 376 619.766 374.6 619.766ZM373.7 622.706V618.116H376.46V622.706H373.7ZM373.7 601.286V597.056H376.46V601.286H373.7ZM390.184 619.766C389.164 619.766 388.244 619.646 387.424 619.406C386.604 619.186 385.874 618.876 385.234 618.476C384.594 618.056 384.044 617.586 383.584 617.066L385.504 614.456C386.084 615.016 386.724 615.486 387.424 615.866C388.144 616.246 388.934 616.436 389.794 616.436C390.754 616.436 391.534 616.226 392.134 615.806C392.734 615.366 393.034 614.756 393.034 613.976C393.034 613.396 392.884 612.896 392.584 612.476C392.284 612.036 391.754 611.696 390.994 611.456C390.234 611.216 389.154 611.096 387.754 611.096V608.156C388.934 608.156 389.854 608.046 390.514 607.826C391.194 607.586 391.674 607.266 391.954 606.866C392.254 606.466 392.404 605.996 392.404 605.456C392.404 604.736 392.184 604.186 391.744 603.806C391.304 603.406 390.694 603.206 389.914 603.206C389.214 603.206 388.574 603.356 387.994 603.656C387.414 603.956 386.834 604.376 386.254 604.916L384.154 602.426C385.034 601.666 385.954 601.076 386.914 600.656C387.874 600.216 388.934 599.996 390.094 599.996C391.374 599.996 392.494 600.196 393.454 600.596C394.414 600.996 395.164 601.576 395.704 602.336C396.244 603.096 396.514 604.036 396.514 605.156C396.514 606.156 396.234 607.016 395.674 607.736C395.114 608.436 394.324 609.006 393.304 609.446V609.566C394.044 609.766 394.704 610.076 395.284 610.496C395.864 610.916 396.314 611.436 396.634 612.056C396.974 612.676 397.144 613.396 397.144 614.216C397.144 615.396 396.824 616.406 396.184 617.246C395.564 618.066 394.724 618.696 393.664 619.136C392.604 619.556 391.444 619.766 390.184 619.766ZM406.487 619.766C404.447 619.766 402.817 618.916 401.597 617.216C400.377 615.516 399.767 613.046 399.767 609.806C399.767 606.546 400.377 604.096 401.597 602.456C402.817 600.816 404.447 599.996 406.487 599.996C408.507 599.996 410.127 600.826 411.347 602.486C412.567 604.126 413.177 606.566 413.177 609.806C413.177 613.046 412.567 615.516 411.347 617.216C410.127 618.916 408.507 619.766 406.487 619.766ZM406.487 616.586C407.007 616.586 407.477 616.386 407.897 615.986C408.337 615.586 408.677 614.896 408.917 613.916C409.157 612.916 409.277 611.546 409.277 609.806C409.277 608.046 409.157 606.686 408.917 605.726C408.677 604.766 408.337 604.106 407.897 603.746C407.477 603.366 407.007 603.176 406.487 603.176C405.947 603.176 405.457 603.366 405.017 603.746C404.597 604.106 404.267 604.766 404.027 605.726C403.787 606.686 403.667 608.046 403.667 609.806C403.667 611.546 403.787 612.916 404.027 613.916C404.267 614.896 404.597 615.586 405.017 615.986C405.457 616.386 405.947 616.586 406.487 616.586Z" fill="#383E45" class="svgc_invert" filter="url(#filter_readability_theme_graphene)"></path>
            </g>
            <g>
                <path d="M354.153 650C354.153 645.582 357.734 642 362.153 642H466.695C471.113 642 474.695 645.582 474.695 650V698.688C474.695 703.106 471.113 706.688 466.695 706.688H362.153C357.734 706.688 354.153 703.106 354.153 698.688V650Z" fill="black" fill-opacity="0.8"></path>
                <path d="M425.186 651.703H365.992V653.859H425.186V651.703Z" fill="#383E45" class="svgc_invert" filter="url(#filter_readability_theme_graphene)"></path>
                <path d="M368.178 692.406V690.036C369.858 688.456 371.328 687.026 372.588 685.746C373.848 684.446 374.828 683.266 375.528 682.206C376.228 681.146 376.578 680.146 376.578 679.206C376.578 678.246 376.328 677.506 375.828 676.986C375.328 676.466 374.628 676.206 373.728 676.206C373.048 676.206 372.418 676.406 371.838 676.806C371.258 677.206 370.728 677.676 370.248 678.216L367.998 675.996C368.918 674.996 369.858 674.246 370.818 673.746C371.798 673.246 372.958 672.996 374.298 672.996C375.538 672.996 376.618 673.246 377.538 673.746C378.478 674.226 379.208 674.916 379.728 675.816C380.248 676.716 380.508 677.776 380.508 678.996C380.508 680.076 380.208 681.176 379.608 682.296C379.008 683.416 378.218 684.556 377.238 685.716C376.278 686.856 375.238 688.006 374.118 689.166C374.618 689.106 375.158 689.056 375.738 689.016C376.338 688.976 376.868 688.956 377.328 688.956H381.438V692.406H368.178ZM390.631 692.766C388.591 692.766 386.961 691.916 385.741 690.216C384.521 688.516 383.911 686.046 383.911 682.806C383.911 679.546 384.521 677.096 385.741 675.456C386.961 673.816 388.591 672.996 390.631 672.996C392.651 672.996 394.271 673.826 395.491 675.486C396.711 677.126 397.321 679.566 397.321 682.806C397.321 686.046 396.711 688.516 395.491 690.216C394.271 691.916 392.651 692.766 390.631 692.766ZM390.631 689.586C391.151 689.586 391.621 689.386 392.041 688.986C392.481 688.586 392.821 687.896 393.061 686.916C393.301 685.916 393.421 684.546 393.421 682.806C393.421 681.046 393.301 679.686 393.061 678.726C392.821 677.766 392.481 677.106 392.041 676.746C391.621 676.366 391.151 676.176 390.631 676.176C390.091 676.176 389.601 676.366 389.161 676.746C388.741 677.106 388.411 677.766 388.171 678.726C387.931 679.686 387.811 681.046 387.811 682.806C387.811 684.546 387.931 685.916 388.171 686.916C388.411 687.896 388.741 688.586 389.161 688.986C389.601 689.386 390.091 689.586 390.631 689.586ZM406.334 692.766C404.294 692.766 402.664 691.916 401.444 690.216C400.224 688.516 399.614 686.046 399.614 682.806C399.614 679.546 400.224 677.096 401.444 675.456C402.664 673.816 404.294 672.996 406.334 672.996C408.354 672.996 409.974 673.826 411.194 675.486C412.414 677.126 413.024 679.566 413.024 682.806C413.024 686.046 412.414 688.516 411.194 690.216C409.974 691.916 408.354 692.766 406.334 692.766ZM406.334 689.586C406.854 689.586 407.324 689.386 407.744 688.986C408.184 688.586 408.524 687.896 408.764 686.916C409.004 685.916 409.124 684.546 409.124 682.806C409.124 681.046 409.004 679.686 408.764 678.726C408.524 677.766 408.184 677.106 407.744 676.746C407.324 676.366 406.854 676.176 406.334 676.176C405.794 676.176 405.304 676.366 404.864 676.746C404.444 677.106 404.114 677.766 403.874 678.726C403.634 679.686 403.514 681.046 403.514 682.806C403.514 684.546 403.634 685.916 403.874 686.916C404.114 687.896 404.444 688.586 404.864 688.986C405.304 689.386 405.794 689.586 406.334 689.586Z" fill="#383E45" class="svgc_invert" filter="url(#filter_readability_theme_graphene)"></path>
            </g>
            <g>
                <path d="M483.458 577C483.458 572.582 487.039 569 491.458 569H596C600.418 569 604 572.582 604 577V625.688C604 630.106 600.418 633.688 596 633.688H491.458C487.039 633.688 483.458 630.106 483.458 625.688V577Z" fill="black" fill-opacity="0.8"></path>
                <path d="M554.492 578.703H495.297V580.859H554.492V578.703Z" fill="#383E45" class="svgc_invert" filter="url(#filter_readability_theme_graphene)"></path>
                <path d="M497.573 619.406V616.076H501.773V604.586H498.203V602.036C499.203 601.836 500.063 601.606 500.783 601.346C501.503 601.066 502.193 600.736 502.853 600.356H505.883V616.076H509.513V619.406H497.573ZM518.559 619.766C516.519 619.766 514.889 618.916 513.669 617.216C512.449 615.516 511.839 613.046 511.839 609.806C511.839 606.546 512.449 604.096 513.669 602.456C514.889 600.816 516.519 599.996 518.559 599.996C520.579 599.996 522.199 600.826 523.419 602.486C524.639 604.126 525.249 606.566 525.249 609.806C525.249 613.046 524.639 615.516 523.419 617.216C522.199 618.916 520.579 619.766 518.559 619.766ZM518.559 616.586C519.079 616.586 519.549 616.386 519.969 615.986C520.409 615.586 520.749 614.896 520.989 613.916C521.229 612.916 521.349 611.546 521.349 609.806C521.349 608.046 521.229 606.686 520.989 605.726C520.749 604.766 520.409 604.106 519.969 603.746C519.549 603.366 519.079 603.176 518.559 603.176C518.019 603.176 517.529 603.366 517.089 603.746C516.669 604.106 516.339 604.766 516.099 605.726C515.859 606.686 515.739 608.046 515.739 609.806C515.739 611.546 515.859 612.916 516.099 613.916C516.339 614.896 516.669 615.586 517.089 615.986C517.529 616.386 518.019 616.586 518.559 616.586ZM534.262 619.766C532.222 619.766 530.592 618.916 529.372 617.216C528.152 615.516 527.542 613.046 527.542 609.806C527.542 606.546 528.152 604.096 529.372 602.456C530.592 600.816 532.222 599.996 534.262 599.996C536.282 599.996 537.902 600.826 539.122 602.486C540.342 604.126 540.952 606.566 540.952 609.806C540.952 613.046 540.342 615.516 539.122 617.216C537.902 618.916 536.282 619.766 534.262 619.766ZM534.262 616.586C534.782 616.586 535.252 616.386 535.672 615.986C536.112 615.586 536.452 614.896 536.692 613.916C536.932 612.916 537.052 611.546 537.052 609.806C537.052 608.046 536.932 606.686 536.692 605.726C536.452 604.766 536.112 604.106 535.672 603.746C535.252 603.366 534.782 603.176 534.262 603.176C533.722 603.176 533.232 603.366 532.792 603.746C532.372 604.106 532.042 604.766 531.802 605.726C531.562 606.686 531.442 608.046 531.442 609.806C531.442 611.546 531.562 612.916 531.802 613.916C532.042 614.896 532.372 615.586 532.792 615.986C533.232 616.386 533.722 616.586 534.262 616.586Z" fill="#383E45" class="svgc_invert" filter="url(#filter_readability_theme_graphene)"></path>
            </g>
            <g>
                <path d="M483 650C483 645.582 486.582 642 491 642H595.542C599.961 642 603.542 645.582 603.542 650V698.688C603.542 703.106 599.961 706.688 595.542 706.688H491C486.582 706.688 483 703.106 483 698.688V650Z" fill="black" fill-opacity="0.8"></path>
                <path d="M554.034 651.703H494.839V653.859H554.034V651.703Z" fill="#383E45" class="svgc_invert" filter="url(#filter_readability_theme_graphene)"></path>
                <path d="M503.265 692.766C502.225 692.766 501.295 692.646 500.475 692.406C499.655 692.166 498.925 691.846 498.285 691.446C497.665 691.046 497.105 690.596 496.605 690.096L498.465 687.486C499.045 688.026 499.675 688.486 500.355 688.866C501.055 689.246 501.835 689.436 502.695 689.436C503.355 689.436 503.935 689.316 504.435 689.076C504.955 688.816 505.355 688.456 505.635 687.996C505.915 687.516 506.055 686.926 506.055 686.226C506.055 685.226 505.765 684.456 505.185 683.916C504.605 683.376 503.845 683.106 502.905 683.106C502.345 683.106 501.865 683.186 501.465 683.346C501.065 683.486 500.575 683.736 499.995 684.096L498.135 682.896L498.675 673.356H509.295V676.806H502.215L501.885 680.706C502.265 680.526 502.625 680.396 502.965 680.316C503.305 680.236 503.695 680.196 504.135 680.196C505.215 680.196 506.215 680.416 507.135 680.856C508.055 681.276 508.785 681.926 509.325 682.806C509.885 683.666 510.165 684.776 510.165 686.136C510.165 687.536 509.845 688.736 509.205 689.736C508.565 690.716 507.715 691.466 506.655 691.986C505.615 692.506 504.485 692.766 503.265 692.766ZM520.468 692.406V681.096C520.468 680.516 520.488 679.826 520.528 679.026C520.588 678.206 520.628 677.506 520.648 676.926H520.528C520.288 677.446 520.038 677.966 519.778 678.486C519.518 679.006 519.248 679.536 518.968 680.076L516.148 684.606H526.588V687.756H512.188V684.906L519.328 673.356H524.308V692.406H520.468ZM533.472 692.766L544.062 672.486H546.492L535.872 692.766H533.472ZM532.962 684.426C532.022 684.426 531.182 684.186 530.442 683.706C529.722 683.206 529.152 682.496 528.732 681.576C528.332 680.636 528.132 679.506 528.132 678.186C528.132 676.226 528.582 674.706 529.482 673.626C530.402 672.546 531.562 672.006 532.962 672.006C534.362 672.006 535.512 672.546 536.412 673.626C537.312 674.706 537.762 676.226 537.762 678.186C537.762 679.506 537.552 680.636 537.132 681.576C536.732 682.496 536.162 683.206 535.422 683.706C534.702 684.186 533.882 684.426 532.962 684.426ZM532.962 682.116C533.502 682.116 533.952 681.816 534.312 681.216C534.692 680.616 534.882 679.606 534.882 678.186C534.882 676.786 534.692 675.796 534.312 675.216C533.952 674.636 533.502 674.346 532.962 674.346C532.422 674.346 531.962 674.636 531.582 675.216C531.202 675.796 531.012 676.786 531.012 678.186C531.012 679.606 531.202 680.616 531.582 681.216C531.962 681.816 532.422 682.116 532.962 682.116ZM547.032 692.766C546.092 692.766 545.262 692.516 544.542 692.016C543.822 691.516 543.252 690.806 542.832 689.886C542.432 688.946 542.232 687.826 542.232 686.526C542.232 684.566 542.682 683.046 543.582 681.966C544.482 680.886 545.632 680.346 547.032 680.346C548.432 680.346 549.582 680.886 550.482 681.966C551.402 683.046 551.862 684.566 551.862 686.526C551.862 687.826 551.652 688.946 551.232 689.886C550.812 690.806 550.242 691.516 549.522 692.016C548.802 692.516 547.972 692.766 547.032 692.766ZM547.032 690.456C547.592 690.456 548.052 690.156 548.412 689.556C548.772 688.956 548.952 687.946 548.952 686.526C548.952 685.106 548.772 684.106 548.412 683.526C548.052 682.946 547.592 682.656 547.032 682.656C546.512 682.656 546.062 682.946 545.682 683.526C545.302 684.106 545.112 685.106 545.112 686.526C545.112 687.946 545.302 688.956 545.682 689.556C546.062 690.156 546.512 690.456 547.032 690.456Z" fill="#383E45" class="svgc_invert" filter="url(#filter_readability_theme_graphene)"></path>
            </g>
        </g>
        <g class="s_text_image">
            <rect y="284" width="700" height="258" fill="#FFFFFF"></rect>
            <path d="M320.662 410.401L0 284H700L379.338 410.401C360.485 417.832 339.515 417.832 320.662 410.401Z" fill="#F6F6F6"></path>
            <path d="M595.577 321.402C595.136 323.296 578.812 377.895 564.413 426.057L564.321 426.366C554.093 460.575 544.857 491.468 543.005 497.814C538.868 511.99 529.382 509.789 525.478 508.883C525.17 508.811 524.896 508.748 524.663 508.701C521.475 508.063 472.937 496.659 465.987 494.981C459.037 493.302 459.505 485.993 460.717 482.122C461.928 478.25 510.396 334.344 513.063 326.601C515.73 318.858 522.5 316.689 526.75 316.487C528.655 316.392 532.979 316.082 536.123 315.857L536.133 315.856L536.143 315.856L536.162 315.854C537.963 315.725 539.369 315.625 539.698 315.609C539.743 315.606 539.788 315.602 539.834 315.599L539.903 315.593L570.029 313.074L570.082 313.069C570.16 313.063 570.349 313.045 570.637 313.019L570.704 313.013L570.746 313.009C572.944 312.808 580.005 312.163 587.935 311.612C597.126 310.974 596.331 318.161 595.577 321.402Z" fill="url(#theme_graphene_s_image_text_device_perspective_id)" class="img_reference_s_image_text_device_perspective"></path>
            <g>
                <rect x="153" y="425.452" width="80" height="21.9151" rx="2" fill="#7C6576"></rect>
            </g>
            <path d="M342 397.56H153V399.552H342V397.56Z" fill="#FFFFFF" fill-opacity="0.4" class="svgc_invert" filter="url(#filter_readability_theme_graphene)"></path>
            <path d="M276 402.541H153V404.533H276V402.541Z" fill="#FFFFFF" fill-opacity="0.4" class="svgc_invert" filter="url(#filter_readability_theme_graphene)"></path>
            <path d="M310 407.521H153V409.514H310V407.521Z" fill="#FFFFFF" fill-opacity="0.4" class="svgc_invert" filter="url(#filter_readability_theme_graphene)"></path>
            <path d="M359 392.579H153V394.571H359V392.579Z" fill="#FFFFFF" fill-opacity="0.4" class="svgc_invert" filter="url(#filter_readability_theme_graphene)"></path>
            <text transform="translate(175 374)" text-anchor="Start" fill="#000000" font-size="32" font-family="RyuGothic" font-weight="700"><tspan x="-22.471" y="0">Section Title</tspan></text>
            <g>
                <path d="M600.97 314.19L596.814 310.859C596.814 310.859 593.489 308.656 588.14 309.061C582.811 309.465 543.936 312.721 529.656 313.849C522.857 314.381 514.982 317.169 511.679 326.459C508.077 336.6 460.175 477.849 459.205 480.786C458.236 483.723 456.147 491.757 461.72 496.812C467.294 501.866 468.626 502.069 469.35 502.26C470.075 502.452 525.553 515.976 528.452 516.594C531.351 517.211 546.344 522.606 552.962 499.568C559.58 476.53 603.006 327.289 603.613 324.852C604.221 322.415 604.572 316.892 600.97 314.19ZM594.811 322.117C594.054 325.363 547.527 481.712 543.052 497.014C538.576 512.316 527.855 508.538 524.658 507.9C521.461 507.261 473.997 496.429 467.027 494.747C460.058 493.066 460.527 485.756 461.742 481.882C462.956 478.009 511.263 334.748 513.938 327.001C516.613 319.255 523.401 317.084 527.663 316.882C530.669 316.733 538.8 316.009 539.705 315.967C540.611 315.903 541.762 315.679 541.389 317.318C540.728 320.255 542.86 321.319 544.309 321.245C545.961 321.149 558.003 320.329 562.575 320.138C567.146 319.946 568.809 316.328 569.352 314.977C569.896 313.626 570.652 313.604 571.292 313.551C571.931 313.498 577.931 312.955 587.149 312.317C596.367 311.678 595.567 318.872 594.811 322.117Z" fill="url(#paint11_linear_147_7)"></path>
                <path opacity="0.2" d="M600.97 314.179L596.814 310.848C596.814 310.848 593.479 308.645 588.14 309.05C582.801 309.454 543.936 312.721 529.656 313.838C522.857 314.37 514.982 317.169 511.679 326.448C508.077 336.589 460.175 477.838 459.206 480.775C458.238 483.712 456.147 491.746 461.72 496.801C467.294 501.855 468.615 502.058 469.35 502.249C470.086 502.441 525.564 515.965 528.452 516.583C531.34 517.2 546.345 522.595 552.962 499.557C559.58 476.519 603.006 327.278 603.613 324.841C604.221 322.404 604.572 316.881 600.97 314.179ZM544.772 317.139C545.274 316.479 546.069 316.239 546.546 316.607C547.023 316.975 547.004 317.8 546.501 318.458C545.998 319.117 545.204 319.359 544.727 318.99C544.249 318.622 544.269 317.798 544.772 317.139ZM596.235 321.351C595.478 324.596 547.991 482.546 543.515 497.848C539.039 513.15 528.319 509.379 525.122 508.74C521.925 508.102 473.251 496.692 466.281 495.013C459.312 493.334 459.781 486.021 460.996 482.148C462.21 478.275 510.814 334.299 513.489 326.552C516.164 318.805 522.952 316.635 527.215 316.432C530.231 316.283 539.293 315.597 540.199 315.554C541.105 315.491 542.256 315.267 541.883 316.906C541.222 319.843 543.072 320.941 544.521 320.866C546.173 320.771 558.215 319.951 562.787 319.76C567.358 319.568 568.185 315.787 568.729 314.439C569.272 313.091 570.029 313.067 570.668 313.013C571.308 312.96 579.354 312.194 588.571 311.556C597.788 310.917 596.991 318.107 596.235 321.351Z" fill="url(#paint12_linear_147_7)"></path>
                <path opacity="0.5" d="M461.709 496.822C462.775 497.759 464.267 498.546 466.196 499.025C476.884 501.664 523.784 513.103 525.788 513.433C533.514 514.689 543.318 513.359 547.367 499.749C551.683 485.213 598.253 327.235 599.063 324.064C599.627 321.894 601.215 315.296 597.849 311.689L596.815 310.859C596.815 310.859 593.469 308.656 588.141 309.061C582.812 309.465 543.937 312.721 529.646 313.849C522.847 314.381 514.972 317.169 511.669 326.459C508.067 336.61 460.165 477.849 459.195 480.786C458.226 483.723 456.147 491.757 461.709 496.822ZM460.569 478.743C462.136 474.285 508.311 337.217 511.923 326.852C515.28 317.201 524.37 314.966 527.248 314.764C529.347 314.615 574.424 310.965 587.713 309.922C601.002 308.88 597.688 320.755 596.878 323.884C596.068 327.012 550.063 483.106 545.79 497.482C541.783 510.933 532.896 512.433 525.265 511.199C523.273 510.869 476.874 499.898 466.313 497.291C455.752 494.684 459.013 483.202 460.569 478.743Z" fill="#FFFFFF"></path>
                <path d="M465.823 498.919C475.606 501.324 523.923 513.125 525.948 513.454C527.44 513.675 528.947 513.789 530.455 513.795C533.429 513.795 536.103 513.178 538.427 511.965C542.679 509.741 545.78 505.463 547.613 499.27C550.863 488.363 598.178 327.927 599.031 324.66L599.084 324.458C599.084 324.458 599.937 320.702 599.937 317.839C599.937 313.711 597.933 311.742 597.933 311.742C597.933 311.742 599.702 313.487 599.723 317.861C599.734 319.723 598.679 324.352 598.679 324.352L598.626 324.554C597.773 327.821 550.458 488.235 547.208 499.153C545.396 505.239 542.37 509.432 538.224 511.592C534.995 513.295 530.764 513.837 526.246 513.103C524.285 512.784 477.194 501.27 465.653 498.45C464.065 498.057 462.733 497.514 461.742 496.705L461.219 496.333C463.159 498.365 465.823 498.919 465.823 498.919Z" fill="#515151"></path>
                <path d="M587.713 309.933C574.425 310.976 529.336 314.615 527.258 314.764C524.381 314.966 515.291 317.201 511.927 326.852C508.314 337.217 462.139 474.285 460.573 478.743C459.006 483.202 455.766 494.673 466.316 497.291C476.866 499.908 523.276 510.869 525.269 511.198C532.899 512.433 541.787 510.932 545.793 497.482C550.067 483.106 596.071 327.023 596.881 323.894C597.691 320.766 601.002 308.89 587.713 309.933ZM594.811 322.117C594.054 325.363 547.527 481.712 543.052 497.014C538.576 512.316 527.855 508.538 524.658 507.9C521.461 507.261 473.997 496.429 467.027 494.747C460.058 493.066 460.527 485.756 461.742 481.882C462.956 478.009 511.263 334.748 513.938 327.001C516.612 319.255 523.401 317.084 527.663 316.882C530.669 316.733 538.8 316.009 539.705 315.966C540.611 315.903 541.762 315.679 541.389 317.318C540.728 320.255 542.86 321.319 544.309 321.244C545.961 321.149 558.003 320.329 562.574 320.138C567.146 319.946 568.809 316.328 569.352 314.977C569.896 313.625 570.652 313.604 571.292 313.551C571.931 313.498 577.931 312.955 587.149 312.317C596.367 311.678 595.567 318.871 594.811 322.117Z" fill="black"></path>
                <g>
                    <g>
                        <path d="M546.495 318.449C546.998 317.789 547.018 316.96 546.54 316.597C546.062 316.234 545.268 316.475 544.765 317.134C544.263 317.794 544.243 318.622 544.72 318.985C545.198 319.348 545.993 319.108 546.495 318.449Z" fill="#131516"></path>
                        <path d="M546.628 317.898C546.958 317.465 546.97 316.92 546.655 316.68C546.339 316.439 545.816 316.595 545.486 317.028C545.155 317.46 545.143 318.006 545.459 318.246C545.774 318.486 546.298 318.33 546.628 317.898Z" fill="url(#paint13_radial_147_7)"></path>
                    </g>
                    <g>
                        <path d="M568.467 433.104C568.702 432.444 569.086 431.092 570.055 431.401C571.025 431.71 570.887 432.752 570.652 433.753C570.418 434.753 566.262 448.703 564.929 453.779C564.738 454.503 564.237 456.163 563.235 456.078C562.096 455.982 562.416 453.917 562.629 453.215C564.13 448.182 568.244 433.763 568.467 433.104Z" stroke="#0D0D0D" stroke-miterlimit="10"></path>
                    </g>
                    <g>
                        <path d="M585.358 382.856C584.932 383.048 584.772 383.048 584.559 383.048C584.456 383.051 584.353 383.029 584.26 382.984C584.159 382.94 584.068 382.874 583.994 382.793C583.711 382.499 583.512 382.134 583.418 381.737C583.325 381.341 583.339 380.926 583.461 380.537L589.141 361.234C589.187 361.079 589.256 360.932 589.344 360.797C589.417 360.697 589.516 360.62 589.631 360.574C589.775 360.513 589.925 360.47 590.079 360.446C590.143 360.436 590.218 360.414 590.303 360.404C590.431 360.382 590.708 360.436 590.91 360.446C591.038 360.468 590.995 360.468 591.123 360.648C591.274 360.864 591.393 361.101 591.475 361.351C591.579 361.621 591.647 361.904 591.677 362.191C591.708 362.437 591.694 362.686 591.635 362.926L585.358 382.856Z" fill="url(#paint14_linear_147_7)"></path>
                        <path d="M586.051 381.994C586.01 382.161 585.931 382.316 585.82 382.447C585.709 382.578 585.569 382.682 585.412 382.75C585.275 382.807 585.124 382.819 584.981 382.784C584.837 382.75 584.708 382.671 584.612 382.558C584.143 382.026 584.005 381.186 584.239 380.377L589.866 361.266C589.916 361.094 590.007 360.938 590.132 360.81C590.256 360.682 590.41 360.586 590.58 360.531C590.728 360.475 590.889 360.464 591.043 360.5C591.197 360.536 591.336 360.617 591.443 360.734C591.912 361.255 591.934 362.064 591.688 362.872L586.051 381.994Z" fill="#898989" stroke="#1C1C1C" stroke-width="0.71"></path>
                    </g>
                    <g>
                        <path d="M519.213 513.231C519.394 513.508 519.873 513.795 520.3 513.869C520.747 513.944 520.96 513.774 520.758 513.476C520.555 513.178 520.023 512.88 519.596 512.827C519.191 512.773 519.021 512.954 519.213 513.231Z" fill="#000102"></path>
                        <path fill-rule="evenodd" clip-rule="evenodd" d="M520.001 513.774L520.758 513.465C520.96 513.774 520.747 513.944 520.3 513.859C520.196 513.847 520.095 513.818 520.001 513.774Z" fill="#7A7A7A"></path>
                        <path fill-rule="evenodd" clip-rule="evenodd" d="M520.31 513.316L520.566 513.422L520.289 513.859C520.051 513.811 519.823 513.721 519.617 513.593L520.31 513.316Z" fill="#F4F4F4"></path>
                        <path d="M519.5 513.284C519.65 513.508 520.055 513.742 520.406 513.806C520.779 513.869 520.95 513.731 520.79 513.486C520.63 513.242 520.182 513.007 519.831 512.954C519.479 512.901 519.341 513.05 519.5 513.284Z" fill="#0A0E0E"></path>
                    </g>
                    <g>
                        <path d="M521.837 513.848C522.019 514.125 522.498 514.412 522.924 514.487C523.372 514.561 523.585 514.391 523.383 514.093C523.18 513.795 522.647 513.497 522.221 513.444C521.813 513.391 521.642 513.571 521.837 513.848Z" fill="#000102"></path>
                        <path fill-rule="evenodd" clip-rule="evenodd" d="M522.623 514.391L523.379 514.082C523.582 514.391 523.369 514.561 522.921 514.476C522.818 514.464 522.717 514.435 522.623 514.391Z" fill="#7A7A7A"></path>
                        <path fill-rule="evenodd" clip-rule="evenodd" d="M522.932 513.933L523.187 514.04L522.91 514.476C522.672 514.428 522.445 514.338 522.239 514.21L522.932 513.933Z" fill="#F4F4F4"></path>
                        <path d="M522.122 513.901C522.271 514.125 522.676 514.359 523.028 514.423C523.401 514.487 523.571 514.348 523.411 514.104C523.251 513.859 522.804 513.625 522.452 513.571C522.1 513.518 521.962 513.667 522.122 513.901Z" fill="#0A0E0E"></path>
                    </g>
                    <g>
                        <path d="M524.349 514.55C524.53 514.827 525.01 515.114 525.436 515.189C525.884 515.263 526.097 515.093 525.894 514.795C525.692 514.497 525.159 514.199 524.733 514.146C524.328 514.093 524.157 514.274 524.349 514.55Z" fill="#000102"></path>
                        <path fill-rule="evenodd" clip-rule="evenodd" d="M525.141 515.093L525.897 514.785C526.1 515.093 525.887 515.263 525.439 515.178C525.336 515.166 525.235 515.137 525.141 515.093Z" fill="#7A7A7A"></path>
                        <path fill-rule="evenodd" clip-rule="evenodd" d="M525.447 514.636L525.702 514.742L525.425 515.178C525.187 515.131 524.96 515.041 524.754 514.912L525.447 514.636Z" fill="#F4F4F4"></path>
                        <path d="M524.637 514.604C524.786 514.827 525.191 515.061 525.543 515.125C525.916 515.189 526.086 515.051 525.926 514.806C525.766 514.561 525.319 514.327 524.967 514.274C524.616 514.221 524.477 514.37 524.637 514.604Z" fill="#0A0E0E"></path>
                    </g>
                    <g>
                        <path d="M516.591 512.55C516.772 512.827 517.252 513.114 517.678 513.188C518.126 513.263 518.339 513.093 518.136 512.795C517.934 512.497 517.401 512.199 516.975 512.146C516.57 512.092 516.41 512.273 516.591 512.55Z" fill="#000102"></path>
                        <path fill-rule="evenodd" clip-rule="evenodd" d="M517.38 513.093L518.136 512.784C518.339 513.093 518.126 513.263 517.678 513.178C517.575 513.164 517.474 513.136 517.38 513.093Z" fill="#7A7A7A"></path>
                        <path fill-rule="evenodd" clip-rule="evenodd" d="M517.699 512.635L517.955 512.741L517.678 513.178C517.44 513.13 517.212 513.04 517.007 512.912L517.699 512.635Z" fill="#F4F4F4"></path>
                        <path d="M516.879 512.603C517.028 512.827 517.433 513.061 517.785 513.125C518.158 513.188 518.328 513.05 518.168 512.805C518.008 512.561 517.561 512.326 517.209 512.273C516.858 512.22 516.73 512.369 516.879 512.603Z" fill="#0A0E0E"></path>
                    </g>
                    <g>
                        <path d="M513.863 511.89C514.044 512.167 514.524 512.454 514.95 512.529C515.398 512.603 515.611 512.433 515.408 512.135C515.206 511.837 514.673 511.539 514.247 511.486C513.845 511.433 513.671 511.614 513.863 511.89Z" fill="#000102"></path>
                        <path fill-rule="evenodd" clip-rule="evenodd" d="M514.652 512.433L515.408 512.124C515.611 512.433 515.398 512.603 514.95 512.518C514.847 512.506 514.746 512.477 514.652 512.433Z" fill="#7A7A7A"></path>
                        <path fill-rule="evenodd" clip-rule="evenodd" d="M514.961 511.975L515.216 512.082L514.939 512.518C514.701 512.471 514.474 512.38 514.268 512.252L514.961 511.975Z" fill="#F4F4F4"></path>
                        <path d="M514.14 511.943C514.289 512.167 514.694 512.401 515.046 512.465C515.419 512.529 515.589 512.39 515.429 512.146C515.27 511.901 514.822 511.667 514.47 511.614C514.119 511.56 513.991 511.709 514.14 511.943Z" fill="#0A0E0E"></path>
                    </g>
                    <g>
                        <path d="M511.287 511.209C511.468 511.486 511.948 511.773 512.374 511.848C512.822 511.922 513.035 511.752 512.833 511.454C512.63 511.156 512.097 510.858 511.671 510.805C511.263 510.752 511.092 510.932 511.287 511.209Z" fill="#000102"></path>
                        <path fill-rule="evenodd" clip-rule="evenodd" d="M512.062 511.752L512.819 511.443C513.021 511.752 512.808 511.922 512.36 511.837C512.257 511.824 512.157 511.795 512.062 511.752Z" fill="#7A7A7A"></path>
                        <path fill-rule="evenodd" clip-rule="evenodd" d="M512.382 511.294L512.637 511.401L512.36 511.837C512.122 511.789 511.895 511.699 511.689 511.571L512.382 511.294Z" fill="#F4F4F4"></path>
                        <path d="M511.561 511.262C511.71 511.486 512.115 511.72 512.467 511.784C512.84 511.848 513.011 511.709 512.851 511.465C512.691 511.22 512.243 510.986 511.892 510.932C511.54 510.879 511.412 511.028 511.561 511.262Z" fill="#0A0E0E"></path>
                    </g>
                    <g>
                        <path d="M503.867 509.453C504.048 509.73 504.528 510.017 504.954 510.092C505.402 510.166 505.615 509.996 505.412 509.698C505.21 509.4 504.677 509.102 504.251 509.049C503.846 508.996 503.675 509.177 503.867 509.453Z" fill="#000102"></path>
                        <path fill-rule="evenodd" clip-rule="evenodd" d="M504.656 510.007L505.412 509.698C505.615 510.007 505.402 510.177 504.954 510.092C504.853 510.07 504.753 510.041 504.656 510.007Z" fill="#7A7A7A"></path>
                        <path fill-rule="evenodd" clip-rule="evenodd" d="M504.975 509.549L505.231 509.656L504.954 510.092C504.716 510.044 504.489 509.954 504.283 509.826L504.975 509.549Z" fill="#F4F4F4"></path>
                        <path d="M504.155 509.507C504.304 509.73 504.709 509.964 505.061 510.028C505.434 510.092 505.604 509.953 505.444 509.709C505.284 509.464 504.837 509.23 504.485 509.177C504.133 509.123 503.995 509.283 504.155 509.507Z" fill="#3C3D3D"></path>
                    </g>
                    <g>
                        <path d="M488.074 505.676C488.255 505.952 488.735 506.24 489.161 506.314C489.608 506.389 489.822 506.218 489.619 505.921C489.417 505.623 488.884 505.325 488.458 505.271C488.056 505.218 487.882 505.399 488.074 505.676Z" fill="#000102"></path>
                        <path fill-rule="evenodd" clip-rule="evenodd" d="M488.862 506.229L489.619 505.921C489.822 506.229 489.608 506.399 489.161 506.314C489.065 506.293 488.958 506.261 488.862 506.229Z" fill="#7A7A7A"></path>
                        <path fill-rule="evenodd" clip-rule="evenodd" d="M489.182 505.772L489.438 505.878L489.161 506.314C488.923 506.267 488.696 506.177 488.49 506.048L489.182 505.772Z" fill="#F4F4F4"></path>
                        <path d="M488.362 505.729C488.511 505.952 488.916 506.187 489.267 506.25C489.64 506.314 489.811 506.176 489.651 505.931C489.491 505.686 489.045 505.452 488.692 505.399C488.339 505.346 488.202 505.506 488.362 505.729Z" fill="#3C3D3D"></path>
                    </g>
                    <g>
                        <path d="M481.275 504.058C481.456 504.335 481.936 504.622 482.362 504.697C482.81 504.771 483.023 504.601 482.82 504.303C482.618 504.005 482.085 503.707 481.659 503.654C481.254 503.601 481.083 503.782 481.275 504.058Z" fill="#000102"></path>
                        <path fill-rule="evenodd" clip-rule="evenodd" d="M482.064 504.612L482.82 504.303C483.023 504.612 482.81 504.782 482.362 504.697C482.261 504.675 482.161 504.646 482.064 504.612Z" fill="#7A7A7A"></path>
                        <path fill-rule="evenodd" clip-rule="evenodd" d="M482.373 504.154L482.628 504.261L482.351 504.697C482.113 504.649 481.886 504.559 481.68 504.431L482.373 504.154Z" fill="#F4F4F4"></path>
                        <path d="M481.563 504.112C481.712 504.335 482.117 504.569 482.469 504.633C482.842 504.697 483.012 504.558 482.852 504.314C482.692 504.069 482.245 503.835 481.893 503.782C481.541 503.728 481.403 503.888 481.563 504.112Z" fill="#0A0E0E"></path>
                    </g>
                    <g>
                        <path d="M478.891 503.452C479.072 503.728 479.552 504.016 479.978 504.09C480.426 504.165 480.639 503.994 480.436 503.697C480.234 503.399 479.701 503.101 479.275 503.047C478.849 502.994 478.696 503.186 478.891 503.452Z" fill="#000102"></path>
                        <path fill-rule="evenodd" clip-rule="evenodd" d="M479.666 503.994L480.423 503.686C480.625 503.994 480.412 504.165 479.964 504.08C479.863 504.06 479.763 504.031 479.666 503.994Z" fill="#7A7A7A"></path>
                        <path fill-rule="evenodd" clip-rule="evenodd" d="M479.986 503.537L480.241 503.643L479.964 504.08C479.726 504.032 479.499 503.942 479.293 503.814L479.986 503.537Z" fill="#F4F4F4"></path>
                        <path d="M479.165 503.494C479.314 503.718 479.719 503.952 480.071 504.016C480.444 504.08 480.614 503.941 480.455 503.697C480.295 503.452 479.847 503.218 479.495 503.164C479.154 503.133 479.016 503.282 479.165 503.494Z" fill="#0A0E0E"></path>
                    </g>
                    <g>
                        <path d="M476.597 502.92C476.778 503.196 477.258 503.484 477.684 503.558C478.131 503.633 478.344 503.462 478.142 503.164C477.94 502.866 477.407 502.569 476.98 502.515C476.554 502.462 476.405 502.643 476.597 502.92Z" fill="#000102"></path>
                        <path fill-rule="evenodd" clip-rule="evenodd" d="M477.375 503.462L478.131 503.154C478.334 503.462 478.121 503.633 477.673 503.548C477.577 503.526 477.481 503.494 477.375 503.462Z" fill="#7A7A7A"></path>
                        <path fill-rule="evenodd" clip-rule="evenodd" d="M477.694 503.015L477.95 503.122L477.673 503.558C477.435 503.511 477.208 503.421 477.002 503.292L477.694 503.015Z" fill="#F4F4F4"></path>
                        <path d="M476.874 502.973C477.023 503.196 477.428 503.43 477.78 503.494C478.153 503.558 478.323 503.42 478.163 503.175C478.003 502.93 477.556 502.696 477.204 502.643C476.852 502.59 476.725 502.749 476.874 502.973Z" fill="#0A0E0E"></path>
                    </g>
                    <g>
                        <path d="M500.137 509.145L494.13 507.729C493.343 507.538 492.618 507.123 492.319 506.708C492.019 506.293 492.521 506.059 493.257 506.229L498.65 507.485C499.392 507.666 500.084 508.012 500.674 508.496C501.224 508.985 500.968 509.336 500.137 509.145Z" fill="#3D3D3D"></path>
                        <path d="M500.468 509.177L494.159 507.698C493.392 507.527 492.688 507.123 492.401 506.719C492.113 506.314 492.592 506.091 493.306 506.261L498.986 507.581C499.713 507.751 500.391 508.086 500.968 508.56C501.512 509.038 501.27 509.379 500.468 509.177Z" fill="url(#paint15_linear_147_7)"></path>
                        <path d="M500.286 509.102L494.404 507.698C493.733 507.538 493.104 507.176 492.837 506.814C492.571 506.453 492.987 506.25 493.637 506.399L498.986 507.666C499.635 507.824 500.239 508.126 500.755 508.549C501.235 508.975 501.011 509.272 500.286 509.102Z" fill="#131313"></path>
                    </g>
                    <path d="M601.705 331.407L597.827 328.363L595.622 328.097L596.037 326.661L598.189 326.98L602.058 330.151L601.705 331.407Z" fill="url(#paint16_linear_147_7)"></path>
                    <path d="M553.037 499.163L548.657 495.247L546.623 494.524L547.058 493.045L549.106 493.736L553.421 497.78L553.037 499.163Z" fill="url(#paint17_linear_147_7)"></path>
                    <path d="M472.153 502.941L469.031 500.057C469.031 500.057 468.103 499.014 469.031 497.95L467.507 497.578C467.507 497.578 466.569 498.685 467.816 499.781L470.778 502.611L472.153 502.941Z" fill="url(#paint18_linear_147_7)"></path>
                </g>
                <g style="mix-blend-mode:overlay" opacity="0.75">
                    <path d="M600.97 314.179L596.814 310.848C596.814 310.848 593.479 308.645 588.14 309.05C582.801 309.454 543.936 312.721 529.656 313.838C522.857 314.37 514.982 317.169 511.679 326.448C508.077 336.589 460.175 477.838 459.206 480.775C458.238 483.712 456.147 491.746 461.72 496.801C467.294 501.855 468.615 502.058 469.35 502.249C470.086 502.441 525.564 515.965 528.452 516.583C531.34 517.2 546.345 522.595 552.962 499.557C559.58 476.519 603.006 327.278 603.613 324.841C604.221 322.404 604.572 316.881 600.97 314.179ZM544.772 317.139C545.274 316.479 546.069 316.239 546.546 316.607C547.023 316.975 547.004 317.8 546.501 318.458C545.998 319.117 545.204 319.359 544.727 318.99C544.249 318.622 544.269 317.798 544.772 317.139ZM596.235 321.351C595.478 324.596 547.991 482.546 543.515 497.848C539.039 513.15 528.319 509.379 525.122 508.74C521.925 508.102 473.251 496.692 466.281 495.013C459.312 493.334 459.781 486.021 460.996 482.148C462.21 478.275 510.814 334.299 513.489 326.552C516.164 318.805 522.952 316.635 527.215 316.432C530.231 316.283 539.293 315.597 540.199 315.554C541.105 315.491 542.256 315.267 541.883 316.906C541.222 319.843 543.072 320.941 544.521 320.866C546.173 320.771 558.215 319.951 562.787 319.76C567.358 319.568 568.185 315.787 568.729 314.439C569.272 313.091 570.029 313.067 570.668 313.013C571.308 312.96 579.354 312.194 588.571 311.556C597.788 310.917 596.991 318.107 596.235 321.351Z" fill="#383E45"></path>
                </g>
                <path opacity="0.4" d="M587.138 312.317C577.92 312.955 571.92 313.498 571.281 313.551C570.641 313.604 569.885 313.625 569.341 314.977C568.798 316.328 567.135 319.946 562.564 320.138C557.992 320.329 545.95 321.149 544.298 321.244C542.849 321.319 540.718 320.255 541.378 317.318C541.751 315.679 540.6 315.903 539.695 315.966C538.789 316.009 530.669 316.733 527.653 316.882C523.39 317.084 516.602 319.255 513.927 327.001C512.215 331.959 491.814 392.415 477.027 436.322C512.752 402.416 566.992 355.45 591.214 334.459C593.358 327.172 594.679 322.647 594.8 322.115C595.557 318.871 596.356 311.689 587.138 312.317Z" fill="url(#paint19_linear_147_7)"></path>
            </g>
        </g>
        <g class="s_cover">
            <rect y="30" width="700" height="253.501" fill="#FFFFFF"></rect>
            <path d="M700 284V159L0 284H700Z" fill="#F6F6F6"></path>
            <path d="M0 30H700V159.246L0 284V30Z" fill="url(#theme_graphene_s_cover_default_image_id)" class="img_reference_s_cover_default_image"></path>
            <path d="M0 30H700V159.246L0 284V30Z" fill="black" fill-opacity="0.2"></path>
            <g>
                <rect x="96" y="145.772" width="80" height="21.9568" rx="2" fill="#3AADAA"></rect>
            </g>
            <path d="M314 117.827H96V119.823H314V117.827Z" fill="#383E45" fill-opacity="0.4" class="svgc_invert" filter="url(#filter_readability_theme_graphene)"></path>
            <path d="M219 122.817H96V124.813H219V122.817Z" fill="#383E45" fill-opacity="0.4" class="svgc_invert" filter="url(#filter_readability_theme_graphene)"></path>
            <path d="M253 127.807H96V129.804H253V127.807Z" fill="#383E45" fill-opacity="0.4" class="svgc_invert" filter="url(#filter_readability_theme_graphene)"></path>
            <path d="M329 112.837H96V114.833H329V112.837Z" fill="#383E45" fill-opacity="0.4" class="svgc_invert" filter="url(#filter_readability_theme_graphene)"></path>
            <text transform="translate(115 105)" text-anchor="Start" fill="#FFFFFF" font-size="32" font-family="RyuGothic" font-weight="700"><tspan x="-22.471" y="0">Welcome Message</tspan></text>
        </g>
        <g class="svgc_menu">
            <path d="M700 0H0V30H700V0Z" fill="#MENU_COLOR" class="svgc_menu_bg"></path>
            <path d="M604 0H560V30H604V0Z" fill="#3AADAA"></path>
            <path d="M490 12H454V18H490V12Z" fill="#MENU_COLOR" fill-opacity="0.3" class="svgc_invert" filter="url(#filter_readability_theme_graphene)"></path>
            <path d="M548 12H530V18H548V12Z" fill="#MENU_COLOR" fill-opacity="0.3" class="svgc_invert" filter="url(#filter_readability_theme_graphene)"></path>
            <path d="M432 12H396V18H432V12Z" fill="#MENU_COLOR" fill-opacity="0.3" class="svgc_invert" filter="url(#filter_readability_theme_graphene)"></path>
            <path d="M189 12H163V18H189V12Z" fill="#MENU_COLOR" fill-opacity="0.3" class="svgc_invert" filter="url(#filter_readability_theme_graphene)"></path>
            <path d="M158 12H142V18H158V12Z" fill="#MENU_COLOR" class="svgc_invert" filter="url(#filter_readability_theme_graphene)"></path>
            <path d="M101.606 19.8796V18.353H97.8517V11.1206H96V19.8796H101.606ZM106.304 20C107.076 20 107.772 19.8234 108.391 19.4711C109.012 19.1198 109.502 18.6079 109.864 17.9375C110.225 17.268 110.405 16.4551 110.405 15.4996C110.405 14.5451 110.224 13.7321 109.863 13.0617C109.502 12.3923 109.012 11.8814 108.392 11.5291C107.772 11.1768 107.075 11.0002 106.303 11.0002C105.525 11.0002 104.826 11.1768 104.207 11.5291C103.589 11.8804 103.099 12.3923 102.741 13.0617C102.381 13.7321 102.202 14.5451 102.202 15.5006C102.202 16.4521 102.381 17.263 102.741 17.9335C103.072 18.5753 103.581 19.1084 104.207 19.4691C104.826 19.8224 105.525 19.999 106.303 19.999L106.304 20ZM106.304 18.361C105.889 18.3702 105.481 18.2556 105.131 18.0318C104.797 17.812 104.539 17.4898 104.354 17.0653C104.171 16.6407 104.078 16.1188 104.078 15.4996C104.078 14.8813 104.171 14.3594 104.354 13.9339C104.538 13.5093 104.797 13.1872 105.131 12.9684C105.48 12.7445 105.888 12.6299 106.303 12.6392C106.75 12.6392 107.141 12.7486 107.475 12.9684C107.808 13.1872 108.067 13.5103 108.251 13.9349C108.435 14.3594 108.527 14.8813 108.527 15.5006C108.527 16.1188 108.435 16.6407 108.251 17.0653C108.067 17.4898 107.809 17.812 107.475 18.0318C107.126 18.2559 106.718 18.3705 106.304 18.361ZM115.615 19.999C116.35 19.999 117.004 19.8505 117.574 19.5524C118.134 19.2642 118.6 18.8219 118.917 18.2777C119.242 17.7257 119.404 17.0653 119.404 16.2955V15.1915H115.739V16.5865H117.618L117.614 16.713C117.597 16.9509 117.544 17.1667 117.456 17.3604L117.383 17.5009C117.223 17.7761 116.985 17.9974 116.698 18.1362C116.401 18.2868 116.042 18.361 115.624 18.361C115.162 18.361 114.76 18.2496 114.421 18.0258C114.082 17.802 113.819 17.4758 113.634 17.0482C113.45 16.6207 113.356 16.1018 113.356 15.4916C113.356 14.8813 113.451 14.3644 113.638 13.9409C113.827 13.5174 114.09 13.1942 114.428 12.9724C114.779 12.7464 115.189 12.6303 115.607 12.6392C115.845 12.6392 116.064 12.6693 116.263 12.7285C116.461 12.7887 116.637 12.875 116.793 12.9874C116.948 13.0998 117.08 13.2363 117.188 13.3979C117.297 13.5585 117.381 13.7432 117.441 13.9519H119.323C119.268 13.5318 119.13 13.1269 118.917 12.7606C118.707 12.4002 118.43 12.083 118.102 11.8262C117.76 11.5588 117.375 11.3527 116.962 11.217C116.515 11.0696 116.047 10.9964 115.576 11.0002C115.024 10.9951 114.476 11.0985 113.964 11.3043C113.471 11.5041 113.026 11.8058 112.659 12.1895C112.273 12.5967 111.977 13.0797 111.789 13.6077C111.582 14.1647 111.478 14.798 111.478 15.5086C111.478 16.432 111.652 17.2299 111.998 17.9013C112.322 18.5485 112.826 19.0879 113.451 19.454C114.073 19.8173 114.794 19.999 115.615 19.999ZM124.605 19.999C125.378 19.999 126.074 19.8234 126.694 19.4711C127.314 19.1198 127.805 18.6079 128.165 17.9375C128.527 17.268 128.707 16.4551 128.707 15.4996C128.707 14.5451 128.527 13.7321 128.165 13.0617C127.804 12.3923 127.314 11.8814 126.694 11.5291C126.074 11.1768 125.378 11.0002 124.605 11.0002C123.826 11.0002 123.128 11.1768 122.51 11.5291C121.89 11.8804 121.402 12.3923 121.042 13.0617C120.683 13.7321 120.503 14.5451 120.503 15.5006C120.503 16.4521 120.683 17.263 121.042 17.9335C121.402 18.6039 121.89 19.1158 122.51 19.4691C123.128 19.8224 123.826 19.999 124.605 19.999ZM124.605 18.361C124.158 18.361 123.766 18.2506 123.433 18.0318C123.1 17.812 122.841 17.4898 122.657 17.0653C122.473 16.6407 122.381 16.1188 122.381 15.4996C122.381 14.8813 122.473 14.3594 122.657 13.9339C122.841 13.5093 123.099 13.1872 123.433 12.9684C123.782 12.7443 124.191 12.6297 124.605 12.6392C125.053 12.6392 125.443 12.7486 125.777 12.9684C126.111 13.1872 126.369 13.5103 126.553 13.9349C126.737 14.3594 126.829 14.8813 126.829 15.5006C126.829 16.1188 126.737 16.6407 126.553 17.0653C126.369 17.4898 126.111 17.812 125.777 18.0318C125.428 18.2557 125.02 18.3703 124.605 18.361Z" fill="#MENU_COLOR" class="svgc_invert" filter="url(#filter_readability_theme_graphene)"></path>
        </g>
    </g>
    <defs>
        <linearGradient x1="387.483" y1="926.501" x2="399.715" y2="926.501" gradientUnits="userSpaceOnUse">
            <stop stop-color="#494949"></stop>
            <stop offset="0.2" stop-color="#202020"></stop>
            <stop offset="0.79" stop-color="#202020"></stop>
            <stop offset="1" stop-color="#494949"></stop>
        </linearGradient>
        <linearGradient x1="393.641" y1="927" x2="393.641" y2="926.501" gradientUnits="userSpaceOnUse">
            <stop offset="0.46" stop-color="#555555"></stop>
            <stop offset="1" stop-color="#494949" stop-opacity="0"></stop>
        </linearGradient>
        <linearGradient x1="386.818" y1="926.251" x2="400.298" y2="926.251" gradientUnits="userSpaceOnUse">
            <stop stop-color="#8E8F93"></stop>
            <stop offset="0.05" stop-color="#A7A7A9"></stop>
            <stop offset="0.15" stop-color="#535459"></stop>
            <stop offset="0.38" stop-color="#A7A7A9"></stop>
            <stop offset="0.57" stop-color="#A7A7A9"></stop>
            <stop offset="0.84" stop-color="#535459"></stop>
            <stop offset="0.94" stop-color="#A7A7A9"></stop>
            <stop offset="1" stop-color="#8E8F93"></stop>
        </linearGradient>
        <linearGradient x1="580.201" y1="926.501" x2="592.434" y2="926.501" gradientUnits="userSpaceOnUse">
            <stop stop-color="#494949"></stop>
            <stop offset="0.2" stop-color="#202020"></stop>
            <stop offset="0.79" stop-color="#202020"></stop>
            <stop offset="1" stop-color="#494949"></stop>
        </linearGradient>
        <linearGradient x1="586.359" y1="927" x2="586.359" y2="926.501" gradientUnits="userSpaceOnUse">
            <stop offset="0.46" stop-color="#555555"></stop>
            <stop offset="1" stop-color="#494949" stop-opacity="0"></stop>
        </linearGradient>
        <linearGradient x1="579.536" y1="926.251" x2="593.016" y2="926.251" gradientUnits="userSpaceOnUse">
            <stop stop-color="#8E8F93"></stop>
            <stop offset="0.05" stop-color="#A7A7A9"></stop>
            <stop offset="0.15" stop-color="#535459"></stop>
            <stop offset="0.38" stop-color="#A7A7A9"></stop>
            <stop offset="0.57" stop-color="#A7A7A9"></stop>
            <stop offset="0.84" stop-color="#535459"></stop>
            <stop offset="0.94" stop-color="#A7A7A9"></stop>
            <stop offset="1" stop-color="#8E8F93"></stop>
        </linearGradient>
        <linearGradient x1="376" y1="922.006" x2="604" y2="922.006" gradientUnits="userSpaceOnUse">
            <stop stop-color="#A0A1A5"></stop>
            <stop offset="0.02" stop-color="#D3D4D9"></stop>
            <stop offset="0.06" stop-color="#6A6B70"></stop>
            <stop offset="0.09" stop-color="#797A7F"></stop>
            <stop offset="0.21" stop-color="#A8A9AE"></stop>
            <stop offset="0.79" stop-color="#A8A9AE"></stop>
            <stop offset="0.92" stop-color="#797A7F"></stop>
            <stop offset="0.95" stop-color="#6A6B70"></stop>
            <stop offset="0.98" stop-color="#D3D4D9"></stop>
            <stop offset="1" stop-color="#A0A1A5"></stop>
        </linearGradient>
        <linearGradient x1="490" y1="918.011" x2="490" y2="926.001" gradientUnits="userSpaceOnUse">
            <stop stop-color="#858688" stop-opacity="0"></stop>
            <stop offset="0.65" stop-color="#737479"></stop>
            <stop offset="0.93" stop-color="#B7B8BD"></stop>
            <stop offset="1" stop-color="#858688"></stop>
        </linearGradient>
        <linearGradient x1="472.526" y1="919.259" x2="507.474" y2="919.259" gradientUnits="userSpaceOnUse">
            <stop stop-color="#575759"></stop>
            <stop offset="0.1" stop-color="#CBCCD1"></stop>
            <stop offset="0.5" stop-color="#D0D1D6"></stop>
            <stop offset="0.9" stop-color="#CBCCD1"></stop>
            <stop offset="1" stop-color="#575759"></stop>
        </linearGradient>
        <linearGradient x1="490" y1="913.516" x2="490" y2="918.011" gradientUnits="userSpaceOnUse">
            <stop stop-color="#232323"></stop>
            <stop offset="1" stop-color="#0A0A0C"></stop>
        </linearGradient>
        <radialGradient cx="0" cy="0" r="1" gradientUnits="userSpaceOnUse" gradientTransform="translate(489.997 791.661) rotate(90) scale(0.832335 0.832117)">
            <stop stop-color="#9797AB"></stop>
            <stop offset="0.39" stop-color="#2C2C46"></stop>
            <stop offset="1" stop-color="#3F3F46"></stop>
        </radialGradient>
        <linearGradient x1="499" y1="331.088" x2="568.861" y2="492.53" gradientUnits="userSpaceOnUse">
            <stop stop-color="#4D4D4D"></stop>
            <stop offset="0.01" stop-color="#121212"></stop>
            <stop offset="0.04" stop-color="#3A3330"></stop>
            <stop offset="0.07" stop-color="#575757"></stop>
            <stop offset="0.46" stop-color="#8A8A8A"></stop>
            <stop offset="0.48" stop-color="#A1A1A1"></stop>
            <stop offset="0.51" stop-color="#8A8A8A"></stop>
            <stop offset="0.56" stop-color="#787878"></stop>
            <stop offset="0.87" stop-color="#646464"></stop>
            <stop offset="0.93" stop-color="#414141"></stop>
            <stop offset="0.97" stop-color="#2C2C2C"></stop>
            <stop offset="1"></stop>
        </linearGradient>
        <linearGradient x1="499" y1="331.087" x2="568.861" y2="492.529" gradientUnits="userSpaceOnUse">
            <stop stop-color="white"></stop>
            <stop offset="0.5" stop-color="white" stop-opacity="0.5"></stop>
            <stop offset="1" stop-color="white"></stop>
        </linearGradient>
        <radialGradient cx="0" cy="0" r="1" gradientUnits="userSpaceOnUse" gradientTransform="translate(546.056 317.469) rotate(0.055404) scale(0.863033 0.861775)">
            <stop stop-color="#658088"></stop>
            <stop offset="0.07" stop-color="#4F6571"></stop>
            <stop offset="0.16" stop-color="#374756"></stop>
            <stop offset="0.27" stop-color="#232D40"></stop>
            <stop offset="0.39" stop-color="#131A2F"></stop>
            <stop offset="0.52" stop-color="#080C23"></stop>
            <stop offset="0.69" stop-color="#02041C"></stop>
            <stop offset="1" stop-color="#00021A"></stop>
        </radialGradient>
        <linearGradient x1="591.69" y1="371.723" x2="583.361" y2="371.723" gradientUnits="userSpaceOnUse">
            <stop stop-color="#141414"></stop>
            <stop offset="0.35" stop-color="#343434"></stop>
            <stop offset="0.5" stop-color="#424242"></stop>
            <stop offset="0.65" stop-color="#343434"></stop>
            <stop offset="1" stop-color="#141414"></stop>
        </linearGradient>
        <linearGradient x1="500.808" y1="496.734" x2="500.23" y2="502.831" gradientUnits="userSpaceOnUse">
            <stop offset="0.05" stop-color="#333333"></stop>
            <stop offset="0.49" stop-color="#C4C4C4"></stop>
            <stop offset="0.67" stop-color="#C4C4C4"></stop>
            <stop offset="0.92" stop-color="#333333"></stop>
            <stop offset="0.98" stop-color="#C4C4C4"></stop>
            <stop offset="1" stop-color="#333333"></stop>
        </linearGradient>
        <linearGradient x1="602.256" y1="329.789" x2="595.522" y2="328.045" gradientUnits="userSpaceOnUse">
            <stop offset="0.65" stop-color="#0D0D0D"></stop>
            <stop offset="1" stop-color="#5C5C5C"></stop>
        </linearGradient>
        <linearGradient x1="553.035" y1="497.158" x2="546.642" y2="494.847" gradientUnits="userSpaceOnUse">
            <stop offset="0.62" stop-color="#0D0D0D"></stop>
            <stop offset="1" stop-color="#5C5C5C"></stop>
        </linearGradient>
        <linearGradient x1="469.66" y1="502.216" x2="469.66" y2="498.455" gradientUnits="userSpaceOnUse">
            <stop offset="0.62" stop-color="#1F1F1F"></stop>
            <stop offset="1" stop-color="#C4C4C4"></stop>
        </linearGradient>
        <linearGradient x1="606.607" y1="358.436" x2="481.062" y2="409.006" gradientUnits="userSpaceOnUse">
            <stop stop-color="white" stop-opacity="0.5"></stop>
            <stop offset="1" stop-color="white"></stop>
        </linearGradient>
        <clipPath id="clip0_147_7">
            <rect width="700" height="1514" fill="#FFFFFF"></rect>
        </clipPath>
        <clipPath id="clip1_147_7">
            <rect width="228" height="139" fill="#FFFFFF" transform="translate(376 788)"></rect>
        </clipPath>
        <clipPath id="clip2_147_7">
            <rect width="0.167153" height="0.166467" fill="#FFFFFF" transform="translate(376 788)"></rect>
        </clipPath>
    </defs>
</svg>