<svg width="700" height="1463" viewBox="0 0 700 1463" fill="none" xmlns="http://www.w3.org/2000/svg" data-vsvg="002" class="theme_graphene_svg_preview">
    <defs>
        <style type="text/css">
            @import url('https://fonts.googleapis.com/css2?family=Assistant:wght@700&amp;display=swap');
        </style>
        <pattern id="theme_graphene_s_reference_demo_image_6_id" width="1" height="1" patternunits="objectBoundingBox">
            <image width="64" height="36" preserveAspectRatio="xMidYMid slice" href="/web/image/website.s_reference_default_image_6"></image>
        </pattern>
        <pattern id="theme_graphene_s_reference_demo_image_5_id" width="1" height="1" patternunits="objectBoundingBox">
            <image width="64" height="36" preserveAspectRatio="xMidYMid slice" href="/web/image/website.s_reference_demo_image_5"></image>
        </pattern>
        <pattern id="theme_graphene_s_reference_demo_image_4_id" width="1" height="1" patternunits="objectBoundingBox">
            <image width="64" height="36" preserveAspectRatio="xMidYMid slice" href="/web/image/website.s_reference_demo_image_4"></image>
        </pattern>
        <pattern id="theme_graphene_s_reference_demo_image_3_id" width="1" height="1" patternunits="objectBoundingBox">
            <image width="64" height="36" preserveAspectRatio="xMidYMid slice" href="/web/image/website.s_reference_demo_image_3"></image>
        </pattern>
        <pattern id="theme_graphene_s_reference_demo_image_2_id" width="1" height="1" patternunits="objectBoundingBox">
            <image width="64" height="36" preserveAspectRatio="xMidYMid slice" href="/web/image/website.s_reference_demo_image_2"></image>
        </pattern>
        <pattern id="theme_graphene_s_reference_demo_image_1_id" width="1" height="1" patternunits="objectBoundingBox">
            <image width="64" height="36" preserveAspectRatio="xMidYMid slice" href="/web/image/website.s_reference_demo_image_1"></image>
        </pattern>
        <pattern id="theme_graphene_s_cta_mockups_default_image_id" width="1" height="1" patternunits="objectBoundingBox">
            <image width="186" height="117" preserveAspectRatio="xMidYMid slice" href="/web/image/website.s_mockup_image_default_image"></image>
        </pattern>
        <pattern id="theme_graphene_s_image_text_device_perspective_id" width="1" height="1" patternunits="objectBoundingBox">
            <image width="136" height="210" preserveAspectRatio="xMidYMid slice" href="/theme_graphene/static/src/img/pictures/s_image_text_device_perspective.webp"></image>
        </pattern>
        <pattern id="theme_graphene_s_cover_default_image_id" width="1" height="1" patternunits="objectBoundingBox">
            <image width="700" height="254" preserveAspectRatio="xMidYMid slice" href="#s_cover_default_image_url"></image>
        </pattern>
        <filter id="filter_readability_theme_graphene">
            <feColorMatrix in="SourceGraphic" type="saturate" values="0"></feColorMatrix>
            <feComponentTransfer>
                <feFuncR type="table" tableValues="1 0"></feFuncR>
                <feFuncG type="table" tableValues="1 0"></feFuncG>
                <feFuncB type="table" tableValues="1 0"></feFuncB>
            </feComponentTransfer>
            <feComponentTransfer>
                <feFuncR type="linear" slope="10000" intercept="-4999.5"></feFuncR>
                <feFuncG type="linear" slope="10000" intercept="-4999.5"></feFuncG>
                <feFuncB type="linear" slope="10000" intercept="-4999.5"></feFuncB>
            </feComponentTransfer>
        </filter>
    </defs>
    <g clip-path="url(#clip0_819_425)" class="theme_graphene">
        <rect width="700" height="1463" fill="#FFFFFF"></rect>
        <g class="svgc_footer">
            <path d="M700 1337H0V1463H700V1337Z" fill="#FOOTER_COLOR" class="svgc_footer_bg"></path>
            <path d="M374 1377C378.971 1377 383 1372.97 383 1368C383 1363.03 378.971 1359 374 1359C369.029 1359 365 1363.03 365 1368C365 1372.97 369.029 1377 374 1377Z" fill="#FOOTER_COLOR" class="svgc_invert" filter="url(#filter_readability_theme_graphene)"></path>
            <path d="M349 1377C353.971 1377 358 1372.97 358 1368C358 1363.03 353.971 1359 349 1359C344.029 1359 340 1363.03 340 1368C340 1372.97 344.029 1377 349 1377Z" fill="#FOOTER_COLOR" class="svgc_invert" filter="url(#filter_readability_theme_graphene)"></path>
            <path d="M325 1377C329.971 1377 334 1372.97 334 1368C334 1363.03 329.971 1359 325 1359C320.029 1359 316 1363.03 316 1368C316 1372.97 320.029 1377 325 1377Z" fill="#FOOTER_COLOR" class="svgc_invert" filter="url(#filter_readability_theme_graphene)"></path>
            <path d="M472 1396H227V1398H472V1396Z" fill="#FOOTER_COLOR" fill-opacity="0.4" class="svgc_invert" filter="url(#filter_readability_theme_graphene)"></path>
            <path d="M430 1402H270V1404H430V1402Z" fill="#FOOTER_COLOR" class="svgc_invert" filter="url(#filter_readability_theme_graphene)"></path>
            <path d="M333.41 1440.32V1438.03H327.778V1427.18H325V1440.32H333.41ZM340.455 1440.5C341.615 1440.5 342.658 1440.24 343.587 1439.71C344.519 1439.18 345.253 1438.41 345.795 1437.41C346.337 1436.4 346.607 1435.18 346.607 1433.75C346.607 1432.32 346.336 1431.1 345.794 1430.09C345.253 1429.09 344.519 1428.32 343.588 1427.79C342.658 1427.27 341.613 1427 340.454 1427C339.287 1427 338.239 1427.27 337.31 1427.79C336.383 1428.32 335.648 1429.09 335.111 1430.09C334.572 1431.1 334.302 1432.32 334.302 1433.75C334.302 1435.18 334.572 1436.39 335.111 1437.4C335.608 1438.36 336.372 1439.16 337.31 1439.7C338.239 1440.23 339.287 1440.5 340.454 1440.5L340.455 1440.5ZM340.455 1438.04C339.833 1438.06 339.221 1437.88 338.697 1437.55C338.196 1437.22 337.809 1436.73 337.532 1436.1C337.256 1435.46 337.118 1434.68 337.118 1433.75C337.118 1432.82 337.256 1432.04 337.532 1431.4C337.807 1430.76 338.196 1430.28 338.697 1429.95C339.22 1429.62 339.832 1429.44 340.454 1429.46C341.125 1429.46 341.711 1429.62 342.212 1429.95C342.712 1430.28 343.101 1430.77 343.376 1431.4C343.653 1432.04 343.79 1432.82 343.79 1433.75C343.79 1434.68 343.653 1435.46 343.376 1436.1C343.101 1436.73 342.714 1437.22 342.212 1437.55C341.688 1437.88 341.078 1438.06 340.455 1438.04ZM354.422 1440.5C355.525 1440.5 356.505 1440.28 357.361 1439.83C358.2 1439.4 358.899 1438.73 359.375 1437.92C359.863 1437.09 360.107 1436.1 360.107 1434.94V1433.29H354.608V1435.38H357.427L357.421 1435.57C357.395 1435.93 357.315 1436.25 357.184 1436.54L357.074 1436.75C356.835 1437.16 356.477 1437.5 356.048 1437.7C355.602 1437.93 355.063 1438.04 354.435 1438.04C353.743 1438.04 353.141 1437.87 352.632 1437.54C352.123 1437.2 351.728 1436.71 351.451 1436.07C351.174 1435.43 351.034 1434.65 351.034 1433.74C351.034 1432.82 351.176 1432.05 351.457 1431.41C351.741 1430.78 352.135 1430.29 352.642 1429.96C353.168 1429.62 353.784 1429.45 354.41 1429.46C354.768 1429.46 355.096 1429.5 355.394 1429.59C355.691 1429.68 355.956 1429.81 356.189 1429.98C356.423 1430.15 356.62 1430.35 356.782 1430.6C356.945 1430.84 357.071 1431.11 357.162 1431.43H359.985C359.902 1430.8 359.694 1430.19 359.375 1429.64C359.06 1429.1 358.645 1428.62 358.152 1428.24C357.64 1427.84 357.062 1427.53 356.444 1427.33C355.773 1427.1 355.071 1426.99 354.365 1427C353.536 1426.99 352.714 1427.15 351.945 1427.46C351.207 1427.76 350.54 1428.21 349.988 1428.78C349.41 1429.39 348.965 1430.12 348.683 1430.91C348.373 1431.75 348.218 1432.7 348.218 1433.76C348.218 1435.15 348.478 1436.34 348.998 1437.35C349.483 1438.32 350.24 1439.13 351.176 1439.68C352.109 1440.23 353.19 1440.5 354.422 1440.5ZM367.908 1440.5C369.067 1440.5 370.111 1440.24 371.041 1439.71C371.971 1439.18 372.707 1438.41 373.248 1437.41C373.79 1436.4 374.061 1435.18 374.061 1433.75C374.061 1432.32 373.79 1431.1 373.248 1430.09C372.706 1429.09 371.971 1428.32 371.041 1427.79C370.111 1427.27 369.067 1427 367.908 1427C366.74 1427 365.692 1427.27 364.765 1427.79C363.836 1428.32 363.102 1429.09 362.563 1430.09C362.025 1431.1 361.755 1432.32 361.755 1433.75C361.755 1435.18 362.025 1436.39 362.563 1437.4C363.102 1438.41 363.836 1439.17 364.765 1439.7C365.692 1440.23 366.74 1440.5 367.908 1440.5ZM367.908 1438.04C367.237 1438.04 366.649 1437.88 366.15 1437.55C365.65 1437.22 365.261 1436.73 364.986 1436.1C364.709 1435.46 364.572 1434.68 364.572 1433.75C364.572 1432.82 364.709 1432.04 364.986 1431.4C365.261 1430.76 365.648 1430.28 366.15 1429.95C366.673 1429.62 367.286 1429.44 367.908 1429.46C368.579 1429.46 369.165 1429.62 369.665 1429.95C370.166 1430.28 370.553 1430.77 370.83 1431.4C371.106 1432.04 371.244 1432.82 371.244 1433.75C371.244 1434.68 371.106 1435.46 370.83 1436.1C370.553 1436.73 370.166 1437.22 369.665 1437.55C369.141 1437.88 368.53 1438.06 367.908 1438.04Z" fill="#FOOTER_COLOR" class="svgc_invert" filter="url(#filter_readability_theme_graphene)"></path>
        </g>
        <g class="s_references">
            <rect y="1154" width="700" height="183" fill="#FFFFFF"></rect>
            <rect x="518" y="1260" width="64" height="36" fill="url(#theme_graphene_s_reference_demo_image_6_id)" class="img_reference_s_reference_demo_image_6"></rect>
            <rect x="438" y="1260" width="64" height="36" fill="url(#theme_graphene_s_reference_demo_image_5_id)" class="img_reference_s_reference_demo_image_5"></rect>
            <rect x="358" y="1260" width="64" height="36" fill="url(#theme_graphene_s_reference_demo_image_4_id)" class="img_reference_s_reference_demo_image_4"></rect>
            <rect x="278" y="1260" width="64" height="36" fill="url(#theme_graphene_s_reference_demo_image_3_id)" class="img_reference_s_reference_demo_image_3"></rect>
            <rect x="198" y="1260" width="64" height="36" fill="url(#theme_graphene_s_reference_demo_image_2_id)" class="img_reference_s_reference_demo_image_2"></rect>
            <rect x="118" y="1260" width="64" height="36" fill="url(#theme_graphene_s_reference_demo_image_1_id)" class="img_reference_s_reference_demo_image_1"></rect>
            <path d="M1.43597e-05 1153L3.43189e-06 1278L700 1153L1.43597e-05 1153Z" fill="#F6F6F6"></path>
            <path d="M468 1226H223V1228H468V1226Z" fill="#FFFFFF" fill-opacity="0.4" class="svgc_invert" filter="url(#filter_readability_theme_graphene)"></path>
            <path d="M403 1232H288V1234H403V1232Z" fill="#3AADAA"></path>
            <text fill="#F6F6F6" style="white-space: pre" xml:space="preserve" font-family="Assistant" font-size="24" font-weight="bold" letter-spacing="0em" class="svgc_invert" filter="url(#filter_readability_theme_graphene)">
                <tspan x="279" y="1212.31">Section Title</tspan>
            </text>
        </g>
        <g class="s_comparisons">
            <rect y="921" width="700" height="232" fill="#F6F6F6"></rect>
            <g>
                <rect x="96" y="981" width="148" height="152" rx="8" fill="#FFFFFF"></rect>
                <rect x="104" y="1032" width="132" height="16" rx="2" fill="#7C6576"></rect>
                <path d="M203 1017H105V1019H203V1017Z" fill="#FFFFFF" fill-opacity="0.4" class="svgc_invert" filter="url(#filter_readability_theme_graphene)"></path>
                <path d="M178 1064H104V1066H178V1064Z" fill="#FFFFFF" fill-opacity="0.4" class="svgc_invert" filter="url(#filter_readability_theme_graphene)"></path>
                <path d="M198 1082H104V1084H198V1082Z" fill="#FFFFFF" fill-opacity="0.4" class="svgc_invert" filter="url(#filter_readability_theme_graphene)"></path>
                <path d="M178 1100H104V1102H178V1100Z" fill="#FFFFFF" fill-opacity="0.4" class="svgc_invert" filter="url(#filter_readability_theme_graphene)"></path>
                <path d="M223 1120H112V1122H223V1120Z" fill="#FFFFFF" fill-opacity="0.2" class="svgc_invert" filter="url(#filter_readability_theme_graphene)"></path>
                <path d="M140 1003H105V1005H140V1003Z" fill="#FFFFFF" fill-opacity="0.2" class="svgc_invert" filter="url(#filter_readability_theme_graphene)"></path>
                <path d="M231 1012H105V1014H231V1012Z" fill="#FFFFFF" fill-opacity="0.4" class="svgc_invert" filter="url(#filter_readability_theme_graphene)"></path>
                <path d="M157 992H105V996H157V992Z" fill="#FFFFFF" fill-opacity="0.8" class="svgc_invert" filter="url(#filter_readability_theme_graphene)"></path>
            </g>
            <g>
                <rect x="279" y="981" width="148" height="152" rx="8" fill="#FFFFFF"></rect>
                <rect x="287" y="1032" width="132" height="16" rx="2" fill="#3AADAA"></rect>
                <path d="M386 1017H288V1019H386V1017Z" fill="#FFFFFF" fill-opacity="0.4" class="svgc_invert" filter="url(#filter_readability_theme_graphene)"></path>
                <path d="M361 1064H287V1066H361V1064Z" fill="#FFFFFF" fill-opacity="0.4" class="svgc_invert" filter="url(#filter_readability_theme_graphene)"></path>
                <path d="M381 1082H287V1084H381V1082Z" fill="#FFFFFF" fill-opacity="0.4" class="svgc_invert" filter="url(#filter_readability_theme_graphene)"></path>
                <path d="M361 1100H287V1102H361V1100Z" fill="#FFFFFF" fill-opacity="0.4" class="svgc_invert" filter="url(#filter_readability_theme_graphene)"></path>
                <path d="M406 1120H295V1122H406V1120Z" fill="#FFFFFF" fill-opacity="0.2" class="svgc_invert" filter="url(#filter_readability_theme_graphene)"></path>
                <path d="M323 1003H288V1005H323V1003Z" fill="#FFFFFF" fill-opacity="0.2" class="svgc_invert" filter="url(#filter_readability_theme_graphene)"></path>
                <path d="M414 1012H288V1014H414V1012Z" fill="#FFFFFF" fill-opacity="0.4" class="svgc_invert" filter="url(#filter_readability_theme_graphene)"></path>
                <path d="M340 992H288V996H340V992Z" fill="#FFFFFF" fill-opacity="0.8" class="svgc_invert" filter="url(#filter_readability_theme_graphene)"></path>
            </g>
            <g>
                <rect x="456" y="981" width="148" height="152" rx="8" fill="#FFFFFF"></rect>
                <rect x="464" y="1032" width="132" height="16" rx="2" fill="#7C6576"></rect>
                <path d="M563 1017H465V1019H563V1017Z" fill="#FFFFFF" fill-opacity="0.4" class="svgc_invert" filter="url(#filter_readability_theme_graphene)"></path>
                <path d="M538 1064H464V1066H538V1064Z" fill="#FFFFFF" fill-opacity="0.4" class="svgc_invert" filter="url(#filter_readability_theme_graphene)"></path>
                <path d="M558 1082H464V1084H558V1082Z" fill="#FFFFFF" fill-opacity="0.4" class="svgc_invert" filter="url(#filter_readability_theme_graphene)"></path>
                <path d="M538 1100H464V1102H538V1100Z" fill="#FFFFFF" fill-opacity="0.4" class="svgc_invert" filter="url(#filter_readability_theme_graphene)"></path>
                <path d="M583 1120H472V1122H583V1120Z" fill="#FFFFFF" fill-opacity="0.2" class="svgc_invert" filter="url(#filter_readability_theme_graphene)"></path>
                <path d="M500 1003H465V1005H500V1003Z" fill="#FFFFFF" fill-opacity="0.2" class="svgc_invert" filter="url(#filter_readability_theme_graphene)"></path>
                <path d="M591 1012H465V1014H591V1012Z" fill="#FFFFFF" fill-opacity="0.4" class="svgc_invert" filter="url(#filter_readability_theme_graphene)"></path>
                <path d="M517 992H465V996H517V992Z" fill="#FFFFFF" fill-opacity="0.8" class="svgc_invert" filter="url(#filter_readability_theme_graphene)"></path>
            </g>
            <path d="M341 966H96V968H341V966Z" fill="#FFFFFF" fill-opacity="0.4" class="svgc_invert" filter="url(#filter_readability_theme_graphene)"></path>
            <text fill="#F6F6F6" style="white-space: pre" xml:space="preserve" font-family="Assistant" font-size="24" font-weight="bold" letter-spacing="0em" class="svgc_invert" filter="url(#filter_readability_theme_graphene)">
                <tspan x="96" y="956.308">Section Title</tspan>
            </text>
        </g>
        <g class="s_mockup_image">
            <rect y="688" width="700" height="233" fill="#FFFFFF"></rect>
            <path d="M700 921V796L0 921H700Z" fill="#F6F6F6"></path>
            <g>
                <rect x="96" y="845" width="64" height="16" rx="2" fill="#3AADAA"></rect>
            </g>
            <path d="M285 797H96V799H285V797Z" fill="#FFFFFF" fill-opacity="0.4" class="svgc_invert" filter="url(#filter_readability_theme_graphene)"></path>
            <path d="M285 822H96V824H285V822Z" fill="#FFFFFF" fill-opacity="0.4" class="svgc_invert" filter="url(#filter_readability_theme_graphene)"></path>
            <path d="M219 802H96V804H219V802Z" fill="#FFFFFF" fill-opacity="0.4" class="svgc_invert" filter="url(#filter_readability_theme_graphene)"></path>
            <path d="M219 827H96V829H219V827Z" fill="#FFFFFF" fill-opacity="0.4" class="svgc_invert" filter="url(#filter_readability_theme_graphene)"></path>
            <path d="M253 807H96V809H253V807Z" fill="#FFFFFF" fill-opacity="0.4" class="svgc_invert" filter="url(#filter_readability_theme_graphene)"></path>
            <path d="M302 792H96V794H302V792Z" fill="#FFFFFF" fill-opacity="0.4" class="svgc_invert" filter="url(#filter_readability_theme_graphene)"></path>
            <text fill="#FFFFFF" style="white-space: pre" xml:space="preserve" font-family="Assistant" font-size="30" font-weight="bold" letter-spacing="0em" class="svgc_invert" filter="url(#filter_readability_theme_graphene)">
                <tspan x="96" y="772.51">Section Title</tspan>
            </text>
            <g clip-path="url(#clip1_819_425)">
                <path d="M583.363 743.159H396.497V860.519H583.363V743.159Z" fill="url(#theme_graphene_s_cta_mockups_default_image_id)" class="img_reference_s_cta_mockups_default_image"></path>
                <g clip-path="url(#clip2_819_425)">
                    <path d="M376.152 737.148H376.015V737.007H376.152V737.148Z" fill="#A9A9A9"></path>
                </g>
                <g>
                    <path d="M386.984 875.001H400.298L399.397 875.902C399.366 875.933 399.33 875.958 399.289 875.975C399.248 875.991 399.205 876 399.161 876H388.121C388.077 876 388.033 875.991 387.993 875.975C387.952 875.958 387.915 875.933 387.884 875.902L386.984 875.001Z" fill="url(#paint0_linear_819_425)"></path>
                    <path d="M386.984 875.001H400.298L399.397 875.902C399.366 875.933 399.33 875.958 399.289 875.975C399.248 875.991 399.205 876 399.161 876H388.121C388.077 876 388.033 875.991 387.993 875.975C387.952 875.958 387.915 875.933 387.884 875.902L386.984 875.001Z" fill="url(#paint1_linear_819_425)" fill-opacity="0.7"></path>
                    <path d="M386.817 875.001H400.464L400.16 875.306C400.098 875.368 400.024 875.417 399.943 875.45C399.863 875.483 399.776 875.501 399.689 875.501H387.593C387.505 875.501 387.419 875.483 387.338 875.45C387.257 875.417 387.184 875.368 387.122 875.306L386.817 875.001Z" fill="url(#paint2_linear_819_425)"></path>
                    <path d="M579.702 875.001H593.016L592.116 875.902C592.085 875.933 592.048 875.958 592.007 875.975C591.967 875.991 591.923 876 591.879 876H580.839C580.795 876 580.751 875.991 580.711 875.975C580.67 875.958 580.633 875.933 580.603 875.902L579.702 875.001Z" fill="url(#paint3_linear_819_425)"></path>
                    <path d="M579.702 875.001H593.016L592.116 875.902C592.085 875.933 592.048 875.958 592.007 875.975C591.967 875.991 591.923 876 591.879 876H580.839C580.795 876 580.751 875.991 580.711 875.975C580.67 875.958 580.633 875.933 580.603 875.902L579.702 875.001Z" fill="url(#paint4_linear_819_425)" fill-opacity="0.7"></path>
                    <path d="M579.536 875.001H593.182L592.878 875.306C592.816 875.368 592.742 875.417 592.662 875.45C592.581 875.483 592.494 875.501 592.407 875.501H580.311C580.224 875.501 580.137 875.483 580.056 875.45C579.976 875.417 579.902 875.368 579.84 875.306L579.536 875.001Z" fill="url(#paint5_linear_819_425)"></path>
                    <g>
                        <path d="M376 867.344C376 867.255 376.035 867.171 376.097 867.108C376.16 867.046 376.245 867.011 376.333 867.011H603.667C603.755 867.011 603.84 867.046 603.902 867.108C603.965 867.171 604 867.255 604 867.344V870.84C604 871.943 603.562 873.002 602.781 873.782C602.001 874.563 600.943 875.001 599.839 875.001H380.161C379.057 875.001 377.999 874.563 377.219 873.782C376.438 873.002 376 871.943 376 870.84V867.344Z" fill="url(#paint6_linear_819_425)"></path>
                        <path d="M376 867.344C376 867.255 376.035 867.171 376.097 867.108C376.16 867.046 376.245 867.011 376.333 867.011H603.667C603.755 867.011 603.84 867.046 603.902 867.108C603.965 867.171 604 867.255 604 867.344V870.84C604 871.943 603.562 873.002 602.781 873.782C602.001 874.563 600.943 875.001 599.839 875.001H380.161C379.057 875.001 377.999 874.563 377.219 873.782C376.438 873.002 376 871.943 376 870.84V867.344Z" fill="url(#paint7_linear_819_425)" fill-opacity="0.7"></path>
                    </g>
                    <path d="M472.525 867.011H507.474C507.474 867.673 507.211 868.308 506.743 868.776C506.275 869.245 505.64 869.508 504.978 869.508H475.022C474.36 869.508 473.725 869.245 473.257 868.776C472.788 868.308 472.525 867.673 472.525 867.011Z" fill="url(#paint8_linear_819_425)"></path>
                    <path d="M581.366 737H398.633C397.353 737 396.126 737.509 395.221 738.414C394.316 739.319 393.807 740.547 393.807 741.828V867.011H586.193V741.828C586.193 740.547 585.684 739.319 584.779 738.414C583.874 737.509 582.646 737 581.366 737ZM583.363 860.519H396.497V743.159H583.363V860.519Z" fill="#6D6E70"></path>
                    <path d="M581.366 737.333H398.634C397.442 737.333 396.299 737.806 395.456 738.649C394.614 739.492 394.14 740.635 394.14 741.828V867.011H585.86V741.828C585.86 740.635 585.386 739.492 584.544 738.649C583.701 737.806 582.558 737.333 581.366 737.333ZM583.363 860.519H396.497V743.159H583.363V860.519Z" fill="#1F1F1F"></path>
                    <path d="M581.367 737.832H398.634C397.574 737.832 396.559 738.253 395.81 739.003C395.06 739.752 394.64 740.768 394.64 741.828V862.516H585.361V741.828C585.361 740.768 584.94 739.752 584.191 739.003C583.442 738.253 582.426 737.832 581.367 737.832ZM583.364 860.519H396.497V743.159H583.364V860.519Z" fill="black"></path>
                    <path d="M585.361 862.516H394.64V867.011H585.361V862.516Z" fill="url(#paint9_linear_819_425)"></path>
                    <path d="M581.034 739.83H398.967C398.349 739.83 397.756 740.075 397.319 740.513C396.882 740.95 396.637 741.542 396.637 742.16V743.159H583.364V742.16C583.364 741.542 583.118 740.95 582.681 740.513C582.244 740.075 581.652 739.83 581.034 739.83Z" fill="#FFFFFF"></path>
                    <path d="M478.184 739.83H479.682C479.814 739.83 479.941 739.883 480.035 739.976C480.129 740.07 480.181 740.197 480.181 740.329V742.16C480.181 742.425 480.286 742.679 480.474 742.867C480.661 743.054 480.915 743.159 481.18 743.159H498.987C499.208 743.159 499.419 743.072 499.575 742.915C499.731 742.759 499.819 742.548 499.819 742.327V740.329C499.819 740.197 499.872 740.07 499.965 739.976C500.059 739.883 500.186 739.83 500.318 739.83H478.184Z" fill="black"></path>
                    <path d="M583.705 739.768H396.497V743.159H583.705V739.768Z" fill="black"></path>
                    <path d="M490 741.495C490.46 741.495 490.832 741.122 490.832 740.662C490.832 740.203 490.46 739.83 490 739.83C489.541 739.83 489.168 740.203 489.168 740.662C489.168 741.122 489.541 741.495 490 741.495Z" fill="url(#paint10_radial_819_425)"></path>
                    <g style="mix-blend-mode:saturation">
                        <path d="M603.667 867.011H586.193V741.828C586.193 740.547 585.684 739.319 584.779 738.414C583.874 737.509 582.646 737 581.366 737H398.634C397.354 737 396.126 737.509 395.221 738.414C394.316 739.319 393.807 740.547 393.807 741.828V867.011H376.333C376.245 867.011 376.16 867.046 376.097 867.108C376.035 867.171 376 867.255 376 867.344V870.84C376 871.943 376.438 873.002 377.219 873.782C377.999 874.563 379.057 875.001 380.161 875.001H386.818L387.122 875.306C387.217 875.401 387.339 875.465 387.472 875.489L387.884 875.902C387.915 875.933 387.952 875.958 387.993 875.975C388.033 875.991 388.077 876 388.121 876H399.161C399.205 876 399.249 875.991 399.289 875.975C399.33 875.958 399.366 875.933 399.397 875.902L399.81 875.489C399.943 875.465 400.064 875.401 400.16 875.306L400.464 875.001H579.536L579.84 875.306C579.936 875.401 580.057 875.465 580.19 875.489L580.603 875.902C580.634 875.933 580.67 875.958 580.711 875.975C580.751 875.991 580.795 876 580.839 876H591.879C591.923 876 591.967 875.991 592.007 875.975C592.048 875.958 592.085 875.933 592.116 875.902L592.528 875.489C592.661 875.465 592.783 875.401 592.878 875.306L593.182 875.001H599.839C600.943 875.001 602.001 874.563 602.781 873.782C603.562 873.002 604 871.943 604 870.84V867.344C604 867.255 603.965 867.171 603.902 867.108C603.84 867.046 603.755 867.011 603.667 867.011ZM585.86 867.011H394.14V741.828C394.14 740.636 394.614 739.492 395.456 738.649C396.299 737.806 397.442 737.333 398.634 737.333H581.366C582.558 737.333 583.701 737.806 584.544 738.649C585.386 739.492 585.86 740.636 585.86 741.828V867.011Z" fill="black"></path>
                    </g>
                    <path opacity="0.25" d="M603.667 867.011H586.193V741.828C586.193 740.547 585.684 739.319 584.779 738.414C583.874 737.509 582.646 737 581.366 737H398.634C397.354 737 396.126 737.509 395.221 738.414C394.316 739.319 393.807 740.547 393.807 741.828V867.011H376.333C376.245 867.011 376.16 867.046 376.097 867.108C376.035 867.171 376 867.255 376 867.344V870.84C376 871.943 376.438 873.002 377.219 873.782C377.999 874.563 379.057 875.001 380.161 875.001H386.818L387.122 875.306C387.217 875.401 387.339 875.465 387.472 875.489L387.884 875.902C387.915 875.933 387.952 875.958 387.993 875.975C388.033 875.991 388.077 876 388.121 876H399.161C399.205 876 399.249 875.991 399.289 875.975C399.33 875.958 399.366 875.933 399.397 875.902L399.81 875.489C399.943 875.465 400.064 875.401 400.16 875.306L400.464 875.001H579.536L579.84 875.306C579.936 875.401 580.057 875.465 580.19 875.489L580.603 875.902C580.634 875.933 580.67 875.958 580.711 875.975C580.751 875.991 580.795 876 580.839 876H591.879C591.923 876 591.967 875.991 592.007 875.975C592.048 875.958 592.085 875.933 592.116 875.902L592.528 875.489C592.661 875.465 592.783 875.401 592.878 875.306L593.182 875.001H599.839C600.943 875.001 602.001 874.563 602.781 873.782C603.562 873.002 604 871.943 604 870.84V867.344C604 867.255 603.965 867.171 603.902 867.108C603.84 867.046 603.755 867.011 603.667 867.011ZM585.86 867.011H394.14V741.828C394.14 740.636 394.614 739.492 395.456 738.649C396.299 737.806 397.442 737.333 398.634 737.333H581.366C582.558 737.333 583.701 737.806 584.544 738.649C585.386 739.492 585.86 740.636 585.86 741.828V867.011Z" fill="black"></path>
                    <g opacity="0.75" style="mix-blend-mode:overlay">
                        <path d="M603.667 867.011H586.193V741.828C586.193 740.547 585.684 739.319 584.779 738.414C583.874 737.509 582.646 737 581.366 737H398.634C397.354 737 396.126 737.509 395.221 738.414C394.316 739.319 393.807 740.547 393.807 741.828V867.011H376.333C376.245 867.011 376.16 867.046 376.097 867.108C376.035 867.171 376 867.255 376 867.344V870.84C376 871.943 376.438 873.002 377.219 873.782C377.999 874.563 379.057 875.001 380.161 875.001H386.818L387.122 875.306C387.217 875.401 387.339 875.465 387.472 875.489L387.884 875.902C387.915 875.933 387.952 875.958 387.993 875.975C388.033 875.991 388.077 876 388.121 876H399.161C399.205 876 399.249 875.991 399.289 875.975C399.33 875.958 399.366 875.933 399.397 875.902L399.81 875.489C399.943 875.465 400.064 875.401 400.16 875.306L400.464 875.001H579.536L579.84 875.306C579.936 875.401 580.057 875.465 580.19 875.489L580.603 875.902C580.634 875.933 580.67 875.958 580.711 875.975C580.751 875.991 580.795 876 580.839 876H591.879C591.923 876 591.967 875.991 592.007 875.975C592.048 875.958 592.085 875.933 592.116 875.902L592.528 875.489C592.661 875.465 592.783 875.401 592.878 875.306L593.182 875.001H599.839C600.943 875.001 602.001 874.563 602.781 873.782C603.562 873.002 604 871.943 604 870.84V867.344C604 867.255 603.965 867.171 603.902 867.108C603.84 867.046 603.755 867.011 603.667 867.011ZM585.86 867.011H394.14V741.828C394.14 740.636 394.614 739.492 395.456 738.649C396.299 737.806 397.442 737.333 398.634 737.333H581.366C582.558 737.333 583.701 737.806 584.544 738.649C585.386 739.492 585.86 740.636 585.86 741.828V867.011Z" fill="#F6F6F6"></path>
                    </g>
                </g>
            </g>
        </g>
        <g class="s_numbers_grid">
            <path d="M0 492H700V688H0V492Z" fill="#383E45"></path>
            <rect x="241.477" y="498.374" width="44" height="232.267" rx="22" transform="rotate(60 241.477 498.374)" fill="#3AADAA"></rect>
            <path d="M0 620.47V590.447L112.492 525.5C118.71 521.91 126.661 524.041 130.251 530.258C133.84 536.476 131.71 544.427 125.492 548.017L0 620.47Z" fill="#3AADAA"></path>
            <path d="M73.0343 688H31.4727C31.9416 684.071 34.1922 680.403 37.883 678.272L172.117 600.772C178.335 597.183 186.285 599.313 189.875 605.531C193.465 611.749 191.335 619.699 185.117 623.289L73.0343 688Z" fill="#3AADAA"></path>
            <circle cx="153" cy="515" r="9" fill="#3AADAA"></circle>
            <g>
                <path d="M96 526C96 521.582 99.5817 518 104 518H208.542C212.961 518 216.542 521.582 216.542 526V574.688C216.542 579.106 212.961 582.688 208.542 582.688H104C99.5817 582.688 96 579.106 96 574.688V526Z" fill="black" fill-opacity="0.8"></path>
                <path d="M167.034 527.703H107.839V529.859H167.034V527.703Z" fill="#383E45" class="svgc_invert" filter="url(#filter_readability_theme_graphene)"></path>
                <text fill="#383E45" style="white-space: pre" xml:space="preserve" font-family="Assistant" font-size="30" font-weight="bold" letter-spacing="0em" class="svgc_invert" filter="url(#filter_readability_theme_graphene)">
                    <tspan x="108.915" y="567.916">54%</tspan>
                </text>
            </g>
            <g>
                <path d="M96 599.312C96 594.894 99.5817 591.312 104 591.312H208.542C212.961 591.312 216.542 594.894 216.542 599.313V648C216.542 652.418 212.961 656 208.542 656H104C99.5817 656 96 652.418 96 648V599.312Z" fill="black" fill-opacity="0.8"></path>
                <path d="M167.034 601.016H107.839V603.172H167.034V601.016Z" fill="#383E45" class="svgc_invert" filter="url(#filter_readability_theme_graphene)"></path>
                <text fill="#383E45" style="white-space: pre" xml:space="preserve" font-family="Assistant" font-size="30" font-weight="bold" letter-spacing="0em" class="svgc_invert" filter="url(#filter_readability_theme_graphene)">
                    <tspan x="108.915" y="641.229">$30</tspan>
                </text>
            </g>
            <g>
                <path d="M225.153 526C225.153 521.582 228.735 518 233.153 518H337.695C342.113 518 345.695 521.582 345.695 526V574.688C345.695 579.106 342.113 582.688 337.695 582.688H233.153C228.735 582.688 225.153 579.106 225.153 574.688V526Z" fill="black" fill-opacity="0.8"></path>
                <path d="M296.187 527.703H236.992V529.859H296.187V527.703Z" fill="#383E45" class="svgc_invert" filter="url(#filter_readability_theme_graphene)"></path>
                <text fill="#383E45" style="white-space: pre" xml:space="preserve" font-family="Assistant" font-size="30" font-weight="bold" letter-spacing="0em" class="svgc_invert" filter="url(#filter_readability_theme_graphene)">
                    <tspan x="238.068" y="567.916">200</tspan>
                </text>
            </g>
            <g>
                <path d="M225.153 599.312C225.153 594.894 228.735 591.312 233.153 591.312H337.695C342.113 591.312 345.695 594.894 345.695 599.313V648C345.695 652.418 342.113 656 337.695 656H233.153C228.735 656 225.153 652.418 225.153 648V599.312Z" fill="black" fill-opacity="0.8"></path>
                <path d="M296.187 601.016H236.992V603.172H296.187V601.016Z" fill="#383E45" class="svgc_invert" filter="url(#filter_readability_theme_graphene)"></path>
                <text fill="#383E45" style="white-space: pre" xml:space="preserve" font-family="Assistant" font-size="30" font-weight="bold" letter-spacing="0em" class="svgc_invert" filter="url(#filter_readability_theme_graphene)">
                    <tspan x="238.068" y="641.229">100</tspan>
                </text>
            </g>
            <g>
                <path d="M354.305 526C354.305 521.582 357.887 518 362.305 518H466.848C471.266 518 474.848 521.582 474.848 526V574.688C474.848 579.106 471.266 582.688 466.848 582.688H362.305C357.887 582.688 354.305 579.106 354.305 574.688V526Z" fill="black" fill-opacity="0.8"></path>
                <path d="M425.339 527.703H366.144V529.859H425.339V527.703Z" fill="#383E45" class="svgc_invert" filter="url(#filter_readability_theme_graphene)"></path>
                <text fill="#383E45" style="white-space: pre" xml:space="preserve" font-family="Assistant" font-size="30" font-weight="bold" letter-spacing="0em" class="svgc_invert" filter="url(#filter_readability_theme_graphene)">
                    <tspan x="367.22" y="567.916">$30</tspan>
                </text>
            </g>
            <g>
                <path d="M354.152 599C354.152 594.582 357.734 591 362.152 591H466.695C471.113 591 474.695 594.582 474.695 599V647.688C474.695 652.106 471.113 655.688 466.695 655.688H362.152C357.734 655.688 354.152 652.106 354.152 647.688V599Z" fill="black" fill-opacity="0.8"></path>
                <path d="M425.186 600.703H365.991V602.859H425.186V600.703Z" fill="#383E45" class="svgc_invert" filter="url(#filter_readability_theme_graphene)"></path>
                <text fill="#383E45" style="white-space: pre" xml:space="preserve" font-family="Assistant" font-size="30" font-weight="bold" letter-spacing="0em" class="svgc_invert" filter="url(#filter_readability_theme_graphene)">
                    <tspan x="367.067" y="640.916">200</tspan>
                </text>
            </g>
            <g>
                <path d="M483.458 526C483.458 521.582 487.039 518 491.458 518H596C600.418 518 604 521.582 604 526V574.688C604 579.106 600.418 582.688 596 582.688H491.458C487.039 582.688 483.458 579.106 483.458 574.688V526Z" fill="black" fill-opacity="0.8"></path>
                <path d="M554.491 527.703H495.296V529.859H554.491V527.703Z" fill="#383E45" class="svgc_invert" filter="url(#filter_readability_theme_graphene)"></path>
                <text fill="#383E45" style="white-space: pre" xml:space="preserve" font-family="Assistant" font-size="30" font-weight="bold" letter-spacing="0em" class="svgc_invert" filter="url(#filter_readability_theme_graphene)">
                    <tspan x="496.373" y="567.916">100</tspan>
                </text>
            </g>
            <g>
                <path d="M483 599C483 594.582 486.582 591 491 591H595.542C599.961 591 603.542 594.582 603.542 599V647.688C603.542 652.106 599.961 655.688 595.542 655.688H491C486.582 655.688 483 652.106 483 647.688V599Z" fill="black" fill-opacity="0.8"></path>
                <path d="M554.034 600.703H494.839V602.859H554.034V600.703Z" fill="#383E45" class="svgc_invert" filter="url(#filter_readability_theme_graphene)"></path>
                <text fill="#383E45" style="white-space: pre" xml:space="preserve" font-family="Assistant" font-size="30" font-weight="bold" letter-spacing="0em" class="svgc_invert" filter="url(#filter_readability_theme_graphene)">
                    <tspan x="495.915" y="640.916">54%</tspan>
                </text>
            </g>
        </g>
        <g class="s_text_image">
            <rect y="233" width="700" height="258" fill="#FFFFFF"></rect>
            <path d="M320.662 359.401L0 233H700L379.338 359.401C360.485 366.832 339.515 366.832 320.662 359.401Z" fill="#F6F6F6"></path>
            <path d="M595.577 270.403C595.136 272.296 578.812 326.895 564.413 375.057L564.321 375.366C554.093 409.575 544.857 440.468 543.005 446.814C538.868 460.99 529.382 458.789 525.478 457.883C525.17 457.811 524.896 457.748 524.663 457.701C521.475 457.063 472.937 445.659 465.987 443.981C459.037 442.302 459.505 434.993 460.717 431.122C461.928 427.25 510.396 283.344 513.063 275.601C515.73 267.858 522.5 265.689 526.75 265.487C528.655 265.392 532.979 265.082 536.123 264.857L536.133 264.856L536.143 264.856L536.162 264.854C537.963 264.725 539.369 264.625 539.698 264.609C539.743 264.606 539.788 264.602 539.834 264.599L539.903 264.593L570.029 262.074L570.082 262.069C570.16 262.063 570.349 262.046 570.637 262.019L570.704 262.013L570.746 262.009C572.944 261.808 580.005 261.163 587.935 260.612C597.126 259.974 596.331 267.161 595.577 270.403Z" fill="url(#theme_graphene_s_image_text_device_perspective_id)" class="img_reference_s_image_text_device_perspective"></path>
            <g>
                <rect x="153" y="374.452" width="80" height="21.9151" rx="2" fill="#7C6576"></rect>
            </g>
            <path d="M342 346.56H153V348.552H342V346.56Z" fill="#FFFFFF" fill-opacity="0.4" class="svgc_invert" filter="url(#filter_readability_theme_graphene)"></path>
            <path d="M276 351.541H153V353.533H276V351.541Z" fill="#FFFFFF" fill-opacity="0.4" class="svgc_invert" filter="url(#filter_readability_theme_graphene)"></path>
            <path d="M310 356.521H153V358.514H310V356.521Z" fill="#FFFFFF" fill-opacity="0.4" class="svgc_invert" filter="url(#filter_readability_theme_graphene)"></path>
            <path d="M359 341.579H153V343.571H359V341.579Z" fill="#FFFFFF" fill-opacity="0.4" class="svgc_invert" filter="url(#filter_readability_theme_graphene)"></path>
            <text fill="#FFFFFF" style="white-space: pre" xml:space="preserve" font-family="Assistant" font-size="30" font-weight="bold" letter-spacing="0em" class="svgc_invert" filter="url(#filter_readability_theme_graphene)">
                <tspan x="153" y="322.282">Section Title</tspan>
            </text>
            <g>
                <path d="M600.97 263.189L596.814 259.859C596.814 259.859 593.489 257.656 588.14 258.06C582.811 258.465 543.936 261.721 529.656 262.849C522.857 263.381 514.982 266.169 511.678 275.459C508.076 285.6 460.175 426.849 459.205 429.786C458.235 432.723 456.147 440.757 461.72 445.812C467.294 450.866 468.626 451.069 469.35 451.26C470.075 451.452 525.553 464.976 528.452 465.594C531.351 466.211 546.344 471.606 552.962 448.568C559.58 425.53 603.006 276.289 603.613 273.852C604.22 271.415 604.572 265.892 600.97 263.189ZM594.811 271.117C594.054 274.363 547.527 430.712 543.051 446.014C538.576 461.316 527.855 457.538 524.658 456.9C521.461 456.261 473.997 445.429 467.027 443.747C460.058 442.066 460.527 434.756 461.741 430.882C462.956 427.009 511.263 283.748 513.938 276.001C516.612 268.255 523.401 266.084 527.663 265.882C530.668 265.733 538.799 265.009 539.705 264.967C540.611 264.903 541.762 264.679 541.389 266.318C540.728 269.255 542.86 270.319 544.309 270.245C545.961 270.149 558.003 269.329 562.574 269.138C567.146 268.946 568.809 265.328 569.352 263.977C569.896 262.626 570.652 262.604 571.292 262.551C571.931 262.498 577.931 261.955 587.149 261.317C596.367 260.678 595.567 267.872 594.811 271.117Z" fill="url(#paint11_linear_819_425)"></path>
                <path opacity="0.2" d="M600.97 263.179L596.814 259.848C596.814 259.848 593.479 257.645 588.14 258.05C582.801 258.454 543.936 261.721 529.656 262.838C522.857 263.37 514.982 266.169 511.678 275.448C508.076 285.589 460.175 426.838 459.206 429.775C458.238 432.712 456.147 440.746 461.72 445.801C467.294 450.855 468.615 451.058 469.35 451.249C470.086 451.441 525.564 464.965 528.452 465.583C531.34 466.2 546.344 471.595 552.962 448.557C559.58 425.519 603.006 276.278 603.613 273.841C604.221 271.404 604.572 265.881 600.97 263.179ZM544.771 266.139C545.273 265.479 546.068 265.239 546.546 265.607C547.023 265.975 547.004 266.8 546.501 267.458C545.998 268.117 545.204 268.359 544.727 267.99C544.249 267.622 544.268 266.798 544.771 266.139ZM596.234 270.351C595.478 273.596 547.991 431.546 543.515 446.848C539.039 462.15 528.319 458.379 525.122 457.74C521.925 457.102 473.251 445.692 466.281 444.013C459.312 442.334 459.781 435.021 460.996 431.148C462.21 427.275 510.814 283.299 513.489 275.552C516.164 267.805 522.952 265.635 527.215 265.432C530.231 265.283 539.293 264.597 540.199 264.554C541.105 264.491 542.255 264.267 541.882 265.906C541.222 268.843 543.072 269.941 544.521 269.866C546.173 269.771 558.215 268.951 562.786 268.76C567.358 268.568 568.185 264.787 568.729 263.439C569.272 262.091 570.029 262.067 570.668 262.013C571.308 261.96 579.354 261.194 588.571 260.556C597.788 259.917 596.991 267.107 596.234 270.351Z" fill="url(#paint12_linear_819_425)"></path>
                <path opacity="0.5" d="M461.709 445.822C462.775 446.759 464.267 447.546 466.196 448.025C476.884 450.664 523.784 462.103 525.788 462.433C533.514 463.689 543.318 462.359 547.367 448.749C551.683 434.213 598.253 276.235 599.063 273.064C599.627 270.894 601.215 264.296 597.849 260.689L596.815 259.859C596.815 259.859 593.469 257.656 588.141 258.06C582.812 258.465 543.937 261.721 529.646 262.849C522.847 263.381 514.972 266.169 511.669 275.459C508.067 285.61 460.165 426.849 459.195 429.786C458.226 432.723 456.147 440.757 461.709 445.822ZM460.569 427.743C462.136 423.285 508.311 286.217 511.923 275.852C515.28 266.201 524.37 263.966 527.248 263.764C529.347 263.615 574.424 259.965 587.713 258.922C601.002 257.88 597.688 269.755 596.878 272.884C596.068 276.012 550.063 432.106 545.79 446.482C541.783 459.933 532.896 461.433 525.265 460.199C523.273 459.869 476.874 448.898 466.313 446.291C455.752 443.684 459.013 432.202 460.569 427.743Z" fill="#FFFFFF"></path>
                <path d="M465.823 447.919C475.606 450.324 523.923 462.125 525.948 462.454C527.44 462.675 528.947 462.789 530.455 462.795C533.429 462.795 536.103 462.178 538.426 460.965C542.678 458.741 545.78 454.463 547.612 448.27C550.863 437.363 598.178 276.927 599.031 273.66L599.084 273.458C599.084 273.458 599.936 269.702 599.936 266.839C599.936 262.711 597.933 260.742 597.933 260.742C597.933 260.742 599.702 262.487 599.723 266.861C599.734 268.723 598.679 273.352 598.679 273.352L598.626 273.554C597.773 276.821 550.458 437.235 547.208 448.153C545.396 454.239 542.369 458.432 538.224 460.592C534.995 462.295 530.764 462.837 526.246 462.103C524.285 461.784 477.194 450.27 465.652 447.45C464.065 447.057 462.732 446.514 461.741 445.705L461.219 445.333C463.159 447.365 465.823 447.919 465.823 447.919Z" fill="#515151"></path>
                <path d="M587.713 258.933C574.424 259.976 529.336 263.615 527.258 263.764C524.381 263.966 515.291 266.201 511.927 275.852C508.314 286.217 462.139 423.285 460.572 427.743C459.006 432.202 455.766 443.673 466.316 446.291C476.866 448.908 523.276 459.869 525.269 460.198C532.899 461.433 541.786 459.932 545.793 446.482C550.067 432.106 596.071 276.023 596.881 272.894C597.691 269.766 601.002 257.89 587.713 258.933ZM594.811 271.117C594.054 274.363 547.527 430.712 543.051 446.014C538.576 461.316 527.855 457.538 524.658 456.9C521.461 456.261 473.996 445.429 467.027 443.747C460.058 442.066 460.526 434.756 461.741 430.882C462.956 427.009 511.263 283.748 513.937 276.001C516.612 268.255 523.4 266.084 527.663 265.882C530.668 265.733 538.799 265.009 539.705 264.966C540.611 264.903 541.762 264.679 541.389 266.318C540.728 269.255 542.859 270.319 544.309 270.244C545.961 270.149 558.003 269.329 562.574 269.138C567.146 268.946 568.808 265.328 569.352 263.977C569.895 262.625 570.652 262.604 571.291 262.551C571.931 262.498 577.93 261.955 587.148 261.317C596.366 260.678 595.567 267.871 594.811 271.117Z" fill="black"></path>
                <g>
                    <g>
                        <path d="M546.495 267.449C546.998 266.789 547.018 265.96 546.54 265.597C546.063 265.234 545.268 265.475 544.765 266.134C544.263 266.794 544.243 267.622 544.72 267.985C545.198 268.348 545.993 268.108 546.495 267.449Z" fill="#131516"></path>
                        <path d="M546.628 266.898C546.958 266.465 546.97 265.92 546.655 265.68C546.34 265.439 545.816 265.595 545.486 266.028C545.155 266.461 545.143 267.006 545.459 267.246C545.774 267.486 546.298 267.33 546.628 266.898Z" fill="url(#paint13_radial_819_425)"></path>
                    </g>
                    <g>
                        <path d="M568.468 382.104C568.702 381.444 569.086 380.092 570.055 380.401C571.025 380.71 570.887 381.752 570.652 382.753C570.418 383.753 566.262 397.703 564.93 402.779C564.738 403.503 564.237 405.163 563.235 405.078C562.096 404.982 562.416 402.918 562.629 402.215C564.13 397.182 568.244 382.763 568.468 382.104Z" stroke="#0D0D0D" stroke-miterlimit="10"></path>
                    </g>
                    <g>
                        <path d="M585.358 331.856C584.932 332.048 584.772 332.048 584.559 332.048C584.456 332.051 584.354 332.029 584.261 331.984C584.16 331.94 584.069 331.874 583.994 331.793C583.711 331.499 583.512 331.134 583.419 330.737C583.325 330.341 583.34 329.926 583.462 329.537L589.142 310.234C589.188 310.079 589.256 309.932 589.344 309.797C589.417 309.698 589.517 309.62 589.632 309.574C589.775 309.513 589.925 309.47 590.079 309.446C590.143 309.436 590.218 309.414 590.303 309.404C590.431 309.382 590.708 309.436 590.911 309.446C591.038 309.468 590.996 309.468 591.124 309.648C591.275 309.864 591.393 310.101 591.475 310.351C591.579 310.621 591.647 310.904 591.678 311.191C591.709 311.437 591.694 311.686 591.635 311.926L585.358 331.856Z" fill="url(#paint14_linear_819_425)"></path>
                        <path d="M586.051 330.995C586.011 331.161 585.932 331.316 585.821 331.447C585.71 331.579 585.57 331.682 585.412 331.75C585.276 331.807 585.125 331.819 584.981 331.784C584.838 331.75 584.709 331.671 584.613 331.559C584.144 331.026 584.005 330.186 584.24 329.377L589.867 310.266C589.917 310.094 590.008 309.938 590.132 309.81C590.257 309.682 590.411 309.587 590.581 309.531C590.728 309.475 590.889 309.464 591.043 309.5C591.197 309.536 591.337 309.617 591.444 309.734C591.913 310.255 591.935 311.064 591.689 311.872L586.051 330.995Z" fill="#898989" stroke="#1C1C1C" stroke-width="0.71"></path>
                    </g>
                    <g>
                        <path d="M519.213 462.231C519.394 462.508 519.874 462.795 520.3 462.869C520.748 462.944 520.961 462.774 520.758 462.476C520.556 462.178 520.023 461.88 519.597 461.827C519.192 461.773 519.021 461.954 519.213 462.231Z" fill="#000102"></path>
                        <path fill-rule="evenodd" clip-rule="evenodd" d="M520.001 462.774L520.758 462.465C520.961 462.774 520.747 462.944 520.3 462.859C520.196 462.847 520.096 462.818 520.001 462.774Z" fill="#7A7A7A"></path>
                        <path fill-rule="evenodd" clip-rule="evenodd" d="M520.31 462.316L520.566 462.423L520.289 462.859C520.051 462.811 519.824 462.721 519.618 462.593L520.31 462.316Z" fill="#F4F4F4"></path>
                        <path d="M519.501 462.284C519.65 462.508 520.055 462.742 520.406 462.806C520.779 462.869 520.95 462.731 520.79 462.486C520.63 462.242 520.183 462.008 519.831 461.954C519.479 461.901 519.341 462.05 519.501 462.284Z" fill="#0A0E0E"></path>
                    </g>
                    <g>
                        <path d="M521.837 462.848C522.019 463.125 522.498 463.412 522.924 463.487C523.372 463.561 523.585 463.391 523.383 463.093C523.18 462.795 522.647 462.497 522.221 462.444C521.813 462.391 521.642 462.571 521.837 462.848Z" fill="#000102"></path>
                        <path fill-rule="evenodd" clip-rule="evenodd" d="M522.623 463.391L523.38 463.082C523.582 463.391 523.369 463.561 522.921 463.476C522.818 463.464 522.717 463.435 522.623 463.391Z" fill="#7A7A7A"></path>
                        <path fill-rule="evenodd" clip-rule="evenodd" d="M522.932 462.933L523.188 463.04L522.911 463.476C522.673 463.428 522.445 463.338 522.239 463.21L522.932 462.933Z" fill="#F4F4F4"></path>
                        <path d="M522.122 462.901C522.271 463.125 522.676 463.359 523.027 463.423C523.4 463.487 523.571 463.348 523.411 463.104C523.251 462.859 522.804 462.625 522.452 462.571C522.1 462.518 521.962 462.667 522.122 462.901Z" fill="#0A0E0E"></path>
                    </g>
                    <g>
                        <path d="M524.349 463.55C524.53 463.827 525.01 464.114 525.436 464.189C525.884 464.263 526.097 464.093 525.894 463.795C525.692 463.497 525.159 463.199 524.733 463.146C524.328 463.093 524.157 463.274 524.349 463.55Z" fill="#000102"></path>
                        <path fill-rule="evenodd" clip-rule="evenodd" d="M525.141 464.093L525.898 463.785C526.1 464.093 525.887 464.263 525.439 464.178C525.336 464.166 525.235 464.138 525.141 464.093Z" fill="#7A7A7A"></path>
                        <path fill-rule="evenodd" clip-rule="evenodd" d="M525.447 463.636L525.702 463.742L525.425 464.178C525.187 464.131 524.96 464.041 524.754 463.912L525.447 463.636Z" fill="#F4F4F4"></path>
                        <path d="M524.637 463.604C524.786 463.827 525.191 464.061 525.543 464.125C525.916 464.189 526.087 464.051 525.927 463.806C525.767 463.561 525.319 463.327 524.968 463.274C524.616 463.221 524.477 463.37 524.637 463.604Z" fill="#0A0E0E"></path>
                    </g>
                    <g>
                        <path d="M516.591 461.55C516.772 461.827 517.252 462.114 517.678 462.188C518.126 462.263 518.339 462.093 518.136 461.795C517.934 461.497 517.401 461.199 516.975 461.146C516.57 461.092 516.41 461.273 516.591 461.55Z" fill="#000102"></path>
                        <path fill-rule="evenodd" clip-rule="evenodd" d="M517.38 462.093L518.137 461.784C518.339 462.093 518.126 462.263 517.678 462.178C517.575 462.164 517.475 462.136 517.38 462.093Z" fill="#7A7A7A"></path>
                        <path fill-rule="evenodd" clip-rule="evenodd" d="M517.7 461.635L517.955 461.741L517.678 462.178C517.44 462.13 517.213 462.04 517.007 461.912L517.7 461.635Z" fill="#F4F4F4"></path>
                        <path d="M516.879 461.603C517.028 461.827 517.433 462.061 517.785 462.125C518.158 462.188 518.328 462.05 518.168 461.805C518.008 461.561 517.561 461.326 517.209 461.273C516.857 461.22 516.73 461.369 516.879 461.603Z" fill="#0A0E0E"></path>
                    </g>
                    <g>
                        <path d="M513.863 460.89C514.045 461.167 514.524 461.454 514.95 461.529C515.398 461.603 515.611 461.433 515.409 461.135C515.206 460.837 514.673 460.539 514.247 460.486C513.845 460.433 513.672 460.614 513.863 460.89Z" fill="#000102"></path>
                        <path fill-rule="evenodd" clip-rule="evenodd" d="M514.652 461.433L515.408 461.124C515.611 461.433 515.398 461.603 514.95 461.518C514.847 461.506 514.746 461.477 514.652 461.433Z" fill="#7A7A7A"></path>
                        <path fill-rule="evenodd" clip-rule="evenodd" d="M514.961 460.975L515.217 461.082L514.939 461.518C514.701 461.471 514.474 461.38 514.268 461.252L514.961 460.975Z" fill="#F4F4F4"></path>
                        <path d="M514.14 460.943C514.29 461.167 514.695 461.401 515.046 461.465C515.419 461.529 515.59 461.39 515.43 461.146C515.27 460.901 514.822 460.667 514.471 460.614C514.119 460.56 513.991 460.709 514.14 460.943Z" fill="#0A0E0E"></path>
                    </g>
                    <g>
                        <path d="M511.288 460.209C511.469 460.486 511.948 460.773 512.375 460.848C512.822 460.922 513.035 460.752 512.833 460.454C512.63 460.156 512.098 459.858 511.671 459.805C511.263 459.752 511.093 459.933 511.288 460.209Z" fill="#000102"></path>
                        <path fill-rule="evenodd" clip-rule="evenodd" d="M512.062 460.752L512.819 460.443C513.021 460.752 512.808 460.922 512.36 460.837C512.257 460.824 512.157 460.795 512.062 460.752Z" fill="#7A7A7A"></path>
                        <path fill-rule="evenodd" clip-rule="evenodd" d="M512.382 460.294L512.638 460.401L512.361 460.837C512.123 460.789 511.895 460.699 511.689 460.571L512.382 460.294Z" fill="#F4F4F4"></path>
                        <path d="M511.562 460.262C511.711 460.486 512.116 460.72 512.468 460.784C512.841 460.848 513.011 460.709 512.851 460.465C512.691 460.22 512.244 459.986 511.892 459.933C511.541 459.879 511.413 460.028 511.562 460.262Z" fill="#0A0E0E"></path>
                    </g>
                    <g>
                        <path d="M503.867 458.453C504.048 458.73 504.528 459.017 504.954 459.092C505.402 459.166 505.615 458.996 505.413 458.698C505.21 458.4 504.677 458.102 504.251 458.049C503.846 457.996 503.675 458.177 503.867 458.453Z" fill="#000102"></path>
                        <path fill-rule="evenodd" clip-rule="evenodd" d="M504.656 459.007L505.412 458.698C505.615 459.007 505.402 459.177 504.954 459.092C504.853 459.07 504.753 459.041 504.656 459.007Z" fill="#7A7A7A"></path>
                        <path fill-rule="evenodd" clip-rule="evenodd" d="M504.975 458.549L505.231 458.656L504.954 459.092C504.716 459.044 504.489 458.954 504.283 458.826L504.975 458.549Z" fill="#F4F4F4"></path>
                        <path d="M504.155 458.507C504.304 458.73 504.709 458.964 505.061 459.028C505.434 459.092 505.604 458.953 505.444 458.709C505.284 458.464 504.837 458.23 504.485 458.177C504.134 458.123 503.995 458.283 504.155 458.507Z" fill="#3C3D3D"></path>
                    </g>
                    <g>
                        <path d="M488.074 454.676C488.255 454.952 488.735 455.24 489.161 455.314C489.609 455.389 489.822 455.218 489.619 454.921C489.417 454.623 488.884 454.325 488.458 454.271C488.056 454.218 487.882 454.399 488.074 454.676Z" fill="#000102"></path>
                        <path fill-rule="evenodd" clip-rule="evenodd" d="M488.863 455.229L489.619 454.921C489.822 455.229 489.609 455.399 489.161 455.314C489.065 455.293 488.959 455.261 488.863 455.229Z" fill="#7A7A7A"></path>
                        <path fill-rule="evenodd" clip-rule="evenodd" d="M489.182 454.772L489.438 454.878L489.161 455.314C488.923 455.267 488.696 455.177 488.49 455.048L489.182 454.772Z" fill="#F4F4F4"></path>
                        <path d="M488.362 454.729C488.511 454.952 488.916 455.187 489.268 455.25C489.641 455.314 489.811 455.176 489.651 454.931C489.492 454.686 489.045 454.452 488.692 454.399C488.34 454.346 488.202 454.506 488.362 454.729Z" fill="#3C3D3D"></path>
                    </g>
                    <g>
                        <path d="M481.275 453.058C481.456 453.335 481.936 453.622 482.362 453.697C482.81 453.771 483.023 453.601 482.82 453.303C482.618 453.005 482.085 452.707 481.659 452.654C481.254 452.601 481.083 452.782 481.275 453.058Z" fill="#000102"></path>
                        <path fill-rule="evenodd" clip-rule="evenodd" d="M482.063 453.612L482.82 453.303C483.023 453.612 482.809 453.782 482.362 453.697C482.261 453.675 482.161 453.646 482.063 453.612Z" fill="#7A7A7A"></path>
                        <path fill-rule="evenodd" clip-rule="evenodd" d="M482.372 453.154L482.628 453.261L482.351 453.697C482.113 453.649 481.886 453.559 481.68 453.431L482.372 453.154Z" fill="#F4F4F4"></path>
                        <path d="M481.563 453.112C481.712 453.335 482.117 453.569 482.468 453.633C482.841 453.697 483.012 453.558 482.852 453.314C482.692 453.069 482.245 452.835 481.893 452.782C481.541 452.728 481.403 452.888 481.563 453.112Z" fill="#0A0E0E"></path>
                    </g>
                    <g>
                        <path d="M478.891 452.452C479.073 452.729 479.552 453.016 479.978 453.09C480.426 453.165 480.639 452.995 480.437 452.697C480.234 452.399 479.701 452.101 479.275 452.047C478.849 451.994 478.696 452.186 478.891 452.452Z" fill="#000102"></path>
                        <path fill-rule="evenodd" clip-rule="evenodd" d="M479.666 452.995L480.423 452.686C480.625 452.995 480.412 453.165 479.964 453.08C479.863 453.06 479.763 453.031 479.666 452.995Z" fill="#7A7A7A"></path>
                        <path fill-rule="evenodd" clip-rule="evenodd" d="M479.986 452.537L480.241 452.643L479.964 453.08C479.726 453.032 479.499 452.942 479.293 452.814L479.986 452.537Z" fill="#F4F4F4"></path>
                        <path d="M479.165 452.494C479.314 452.718 479.719 452.952 480.071 453.016C480.444 453.08 480.614 452.941 480.455 452.697C480.295 452.452 479.847 452.218 479.495 452.165C479.154 452.133 479.016 452.282 479.165 452.494Z" fill="#0A0E0E"></path>
                    </g>
                    <g>
                        <path d="M476.597 451.92C476.778 452.196 477.258 452.484 477.684 452.558C478.132 452.633 478.345 452.462 478.142 452.164C477.94 451.867 477.407 451.569 476.981 451.515C476.554 451.462 476.405 451.643 476.597 451.92Z" fill="#000102"></path>
                        <path fill-rule="evenodd" clip-rule="evenodd" d="M477.375 452.462L478.132 452.154C478.334 452.462 478.121 452.633 477.673 452.548C477.577 452.526 477.482 452.494 477.375 452.462Z" fill="#7A7A7A"></path>
                        <path fill-rule="evenodd" clip-rule="evenodd" d="M477.695 452.016L477.95 452.122L477.673 452.558C477.435 452.511 477.208 452.421 477.002 452.292L477.695 452.016Z" fill="#F4F4F4"></path>
                        <path d="M476.874 451.973C477.023 452.196 477.428 452.431 477.78 452.494C478.153 452.558 478.323 452.42 478.163 452.175C478.003 451.93 477.556 451.696 477.204 451.643C476.853 451.59 476.725 451.75 476.874 451.973Z" fill="#0A0E0E"></path>
                    </g>
                    <g>
                        <path d="M500.137 458.145L494.13 456.729C493.343 456.538 492.618 456.123 492.319 455.708C492.019 455.293 492.521 455.059 493.257 455.229L498.65 456.485C499.392 456.666 500.084 457.012 500.674 457.496C501.224 457.985 500.968 458.336 500.137 458.145Z" fill="#3D3D3D"></path>
                        <path d="M500.468 458.177L494.159 456.698C493.392 456.527 492.688 456.123 492.401 455.719C492.113 455.314 492.593 455.091 493.307 455.261L498.987 456.581C499.714 456.751 500.392 457.086 500.969 457.56C501.512 458.038 501.27 458.379 500.468 458.177Z" fill="url(#paint15_linear_819_425)"></path>
                        <path d="M500.287 458.102L494.404 456.698C493.733 456.538 493.104 456.176 492.838 455.814C492.571 455.453 492.987 455.25 493.637 455.399L498.986 456.666C499.635 456.824 500.239 457.126 500.755 457.549C501.235 457.975 501.011 458.272 500.287 458.102Z" fill="#131313"></path>
                    </g>
                    <path d="M601.705 280.407L597.827 277.363L595.622 277.097L596.037 275.661L598.189 275.98L602.058 279.151L601.705 280.407Z" fill="url(#paint16_linear_819_425)"></path>
                    <path d="M553.037 448.163L548.657 444.248L546.623 443.524L547.058 442.045L549.106 442.737L553.421 446.78L553.037 448.163Z" fill="url(#paint17_linear_819_425)"></path>
                    <path d="M472.153 451.941L469.031 449.057C469.031 449.057 468.104 448.014 469.031 446.95L467.507 446.578C467.507 446.578 466.569 447.685 467.816 448.781L470.778 451.611L472.153 451.941Z" fill="url(#paint18_linear_819_425)"></path>
                </g>
                <g opacity="0.75" style="mix-blend-mode:overlay">
                    <path d="M600.97 263.179L596.814 259.848C596.814 259.848 593.479 257.645 588.14 258.05C582.801 258.454 543.936 261.721 529.656 262.838C522.857 263.37 514.982 266.169 511.678 275.448C508.076 285.589 460.175 426.838 459.206 429.775C458.238 432.712 456.147 440.746 461.72 445.801C467.294 450.855 468.615 451.058 469.35 451.249C470.086 451.441 525.564 464.965 528.452 465.583C531.34 466.2 546.344 471.595 552.962 448.557C559.58 425.519 603.006 276.278 603.613 273.841C604.221 271.404 604.572 265.881 600.97 263.179ZM544.771 266.139C545.273 265.479 546.068 265.239 546.546 265.607C547.023 265.975 547.004 266.8 546.501 267.458C545.998 268.117 545.204 268.359 544.727 267.99C544.249 267.622 544.268 266.798 544.771 266.139ZM596.234 270.351C595.478 273.596 547.991 431.546 543.515 446.848C539.039 462.15 528.319 458.379 525.122 457.74C521.925 457.102 473.251 445.692 466.281 444.013C459.312 442.334 459.781 435.021 460.996 431.148C462.21 427.275 510.814 283.299 513.489 275.552C516.164 267.805 522.952 265.635 527.215 265.432C530.231 265.283 539.293 264.597 540.199 264.554C541.105 264.491 542.255 264.267 541.882 265.906C541.222 268.843 543.072 269.941 544.521 269.866C546.173 269.771 558.215 268.951 562.786 268.76C567.358 268.568 568.185 264.787 568.729 263.439C569.272 262.091 570.029 262.067 570.668 262.013C571.308 261.96 579.354 261.194 588.571 260.556C597.788 259.917 596.991 267.107 596.234 270.351Z" fill="#383E45"></path>
                </g>
                <path opacity="0.4" d="M587.138 261.317C577.92 261.955 571.92 262.498 571.281 262.551C570.641 262.604 569.885 262.625 569.341 263.977C568.798 265.328 567.135 268.946 562.564 269.138C557.992 269.329 545.95 270.149 544.298 270.244C542.849 270.319 540.718 269.255 541.378 266.318C541.751 264.679 540.6 264.903 539.695 264.966C538.789 265.009 530.669 265.733 527.653 265.882C523.39 266.084 516.602 268.255 513.927 276.001C512.216 280.959 491.814 341.415 477.027 385.322C512.752 351.416 566.992 304.45 591.214 283.459C593.358 276.171 594.679 271.647 594.8 271.115C595.557 267.871 596.356 260.689 587.138 261.317Z" fill="url(#paint19_linear_819_425)"></path>
            </g>
        </g>
        <g class="s_cover">
            <rect y="30" width="700" height="203" fill="#FFFFFF"></rect>
            <path d="M700 233H0L700 159.25V233Z" fill="#F6F6F6"></path>
            <path d="M0 30H700V159.25L0 233V30Z" fill="url(#theme_graphene_s_cover_default_image_id)" class="img_reference_s_cover_default_image"></path>
            <path d="M0 30H700V159.25L0 233V30Z" fill="black" fill-opacity="0.2"></path>
            <g>
                <rect x="96" y="145.772" width="80" height="21.9568" rx="2" fill="#3AADAA"></rect>
            </g>
            <path d="M314 117.827H96V119.823H314V117.827Z" fill="#383E45" fill-opacity="0.4" class="svgc_invert" filter="url(#filter_readability_theme_graphene)"></path>
            <path d="M219 122.817H96V124.813H219V122.817Z" fill="#383E45" fill-opacity="0.4" class="svgc_invert" filter="url(#filter_readability_theme_graphene)"></path>
            <path d="M253 127.807H96V129.804H253V127.807Z" fill="#383E45" fill-opacity="0.4" class="svgc_invert" filter="url(#filter_readability_theme_graphene)"></path>
            <path d="M329 112.837H96V114.833H329V112.837Z" fill="#383E45" fill-opacity="0.4" class="svgc_invert" filter="url(#filter_readability_theme_graphene)"></path>
            <text fill="#383E45" style="white-space: pre" xml:space="preserve" font-family="Assistant" font-size="32" font-weight="bold" letter-spacing="0em" class="svgc_invert" filter="url(#filter_readability_theme_graphene)">
                <tspan x="96" y="105.66">Welcome message</tspan>
            </text>
        </g>
        <g class="svgc_menu">
            <path d="M700 0H0V30H700V0Z" fill="#MENU_COLOR" class="svgc_menu_bg"></path>
            <path d="M604 0H560V30H604V0Z" fill="#3AADAA"></path>
            <path d="M490 12H454V18H490V12Z" fill="#MENU_COLOR" fill-opacity="0.3" class="svgc_invert" filter="url(#filter_readability_theme_graphene)"></path>
            <path d="M548 12H530V18H548V12Z" fill="#MENU_COLOR" fill-opacity="0.3" class="svgc_invert" filter="url(#filter_readability_theme_graphene)"></path>
            <path d="M432 12H396V18H432V12Z" fill="#MENU_COLOR" fill-opacity="0.3" class="svgc_invert" filter="url(#filter_readability_theme_graphene)"></path>
            <path d="M189 12H163V18H189V12Z" fill="#MENU_COLOR" fill-opacity="0.3" class="svgc_invert" filter="url(#filter_readability_theme_graphene)"></path>
            <path d="M158 12H142V18H158V12Z" fill="#MENU_COLOR" class="svgc_invert" filter="url(#filter_readability_theme_graphene)"></path>
            <path d="M101.606 19.8796V18.353H97.8517V11.1206H96V19.8796H101.606ZM106.304 20C107.076 20 107.772 19.8234 108.391 19.4711C109.012 19.1198 109.502 18.6079 109.864 17.9375C110.225 17.268 110.405 16.4551 110.405 15.4996C110.405 14.5451 110.224 13.7321 109.863 13.0617C109.502 12.3923 109.012 11.8814 108.392 11.5291C107.772 11.1768 107.075 11.0002 106.303 11.0002C105.525 11.0002 104.826 11.1768 104.207 11.5291C103.589 11.8804 103.099 12.3923 102.741 13.0617C102.381 13.7321 102.202 14.5451 102.202 15.5006C102.202 16.4521 102.381 17.263 102.741 17.9335C103.072 18.5754 103.581 19.1084 104.207 19.4691C104.826 19.8224 105.525 19.999 106.303 19.999L106.304 20ZM106.304 18.361C105.889 18.3702 105.481 18.2556 105.131 18.0318C104.797 17.812 104.539 17.4898 104.354 17.0653C104.171 16.6407 104.078 16.1188 104.078 15.4996C104.078 14.8813 104.171 14.3594 104.354 13.9339C104.538 13.5093 104.797 13.1872 105.131 12.9684C105.48 12.7445 105.888 12.6299 106.303 12.6392C106.75 12.6392 107.141 12.7486 107.475 12.9684C107.808 13.1872 108.067 13.5103 108.251 13.9349C108.435 14.3594 108.527 14.8813 108.527 15.5006C108.527 16.1188 108.435 16.6407 108.251 17.0653C108.067 17.4898 107.809 17.812 107.475 18.0318C107.126 18.2559 106.718 18.3705 106.304 18.361ZM115.615 19.999C116.35 19.999 117.004 19.8505 117.574 19.5524C118.134 19.2642 118.6 18.8219 118.917 18.2777C119.242 17.7257 119.404 17.0653 119.404 16.2955V15.1915H115.739V16.5865H117.618L117.614 16.713C117.597 16.9509 117.544 17.1667 117.456 17.3604L117.383 17.5009C117.223 17.7761 116.985 17.9974 116.698 18.1362C116.401 18.2868 116.042 18.361 115.624 18.361C115.162 18.361 114.76 18.2496 114.421 18.0258C114.082 17.802 113.819 17.4758 113.634 17.0482C113.45 16.6207 113.356 16.1018 113.356 15.4916C113.356 14.8813 113.451 14.3644 113.638 13.9409C113.827 13.5174 114.09 13.1942 114.428 12.9724C114.779 12.7464 115.189 12.6303 115.607 12.6392C115.845 12.6392 116.064 12.6693 116.263 12.7285C116.461 12.7887 116.637 12.875 116.793 12.9874C116.948 13.0998 117.08 13.2363 117.188 13.3979C117.297 13.5585 117.381 13.7432 117.441 13.9519H119.323C119.268 13.5318 119.13 13.1269 118.917 12.7606C118.707 12.4002 118.43 12.083 118.102 11.8262C117.76 11.5588 117.375 11.3527 116.962 11.217C116.515 11.0696 116.047 10.9964 115.576 11.0002C115.024 10.9951 114.476 11.0985 113.964 11.3043C113.471 11.5041 113.026 11.8058 112.659 12.1895C112.273 12.5967 111.977 13.0797 111.789 13.6077C111.582 14.1647 111.478 14.798 111.478 15.5086C111.478 16.432 111.652 17.2299 111.998 17.9013C112.322 18.5485 112.826 19.0879 113.451 19.454C114.073 19.8173 114.794 19.999 115.615 19.999ZM124.605 19.999C125.378 19.999 126.074 19.8234 126.694 19.4711C127.314 19.1198 127.805 18.6079 128.165 17.9375C128.527 17.268 128.707 16.4551 128.707 15.4996C128.707 14.5451 128.527 13.7321 128.165 13.0617C127.804 12.3923 127.314 11.8814 126.694 11.5291C126.074 11.1768 125.378 11.0002 124.605 11.0002C123.826 11.0002 123.128 11.1768 122.51 11.5291C121.89 11.8804 121.402 12.3923 121.042 13.0617C120.683 13.7321 120.503 14.5451 120.503 15.5006C120.503 16.4521 120.683 17.263 121.042 17.9335C121.402 18.6039 121.89 19.1158 122.51 19.4691C123.128 19.8224 123.826 19.999 124.605 19.999ZM124.605 18.361C124.158 18.361 123.766 18.2506 123.433 18.0318C123.1 17.812 122.841 17.4898 122.657 17.0653C122.473 16.6407 122.381 16.1188 122.381 15.4996C122.381 14.8813 122.473 14.3594 122.657 13.9339C122.841 13.5093 123.099 13.1872 123.433 12.9684C123.782 12.7443 124.191 12.6297 124.605 12.6392C125.053 12.6392 125.443 12.7486 125.777 12.9684C126.111 13.1872 126.369 13.5103 126.553 13.9349C126.737 14.3594 126.829 14.8813 126.829 15.5006C126.829 16.1188 126.737 16.6407 126.553 17.0653C126.369 17.4898 126.111 17.812 125.777 18.0318C125.428 18.2557 125.02 18.3703 124.605 18.361Z" fill="#MENU_COLOR" class="svgc_invert" filter="url(#filter_readability_theme_graphene)"></path>
        </g>
    </g>
    <defs>
        <linearGradient x1="387.483" y1="875.501" x2="399.715" y2="875.501" gradientUnits="userSpaceOnUse">
            <stop stop-color="#494949"></stop>
            <stop offset="0.2" stop-color="#202020"></stop>
            <stop offset="0.79" stop-color="#202020"></stop>
            <stop offset="1" stop-color="#494949"></stop>
        </linearGradient>
        <linearGradient x1="393.641" y1="876" x2="393.641" y2="875.501" gradientUnits="userSpaceOnUse">
            <stop offset="0.46" stop-color="#555555"></stop>
            <stop offset="1" stop-color="#494949" stop-opacity="0"></stop>
        </linearGradient>
        <linearGradient x1="386.817" y1="875.251" x2="400.298" y2="875.251" gradientUnits="userSpaceOnUse">
            <stop stop-color="#8E8F93"></stop>
            <stop offset="0.05" stop-color="#A7A7A9"></stop>
            <stop offset="0.15" stop-color="#535459"></stop>
            <stop offset="0.38" stop-color="#A7A7A9"></stop>
            <stop offset="0.57" stop-color="#A7A7A9"></stop>
            <stop offset="0.84" stop-color="#535459"></stop>
            <stop offset="0.94" stop-color="#A7A7A9"></stop>
            <stop offset="1" stop-color="#8E8F93"></stop>
        </linearGradient>
        <linearGradient x1="580.201" y1="875.501" x2="592.434" y2="875.501" gradientUnits="userSpaceOnUse">
            <stop stop-color="#494949"></stop>
            <stop offset="0.2" stop-color="#202020"></stop>
            <stop offset="0.79" stop-color="#202020"></stop>
            <stop offset="1" stop-color="#494949"></stop>
        </linearGradient>
        <linearGradient x1="586.359" y1="876" x2="586.359" y2="875.501" gradientUnits="userSpaceOnUse">
            <stop offset="0.46" stop-color="#555555"></stop>
            <stop offset="1" stop-color="#494949" stop-opacity="0"></stop>
        </linearGradient>
        <linearGradient x1="579.536" y1="875.251" x2="593.016" y2="875.251" gradientUnits="userSpaceOnUse">
            <stop stop-color="#8E8F93"></stop>
            <stop offset="0.05" stop-color="#A7A7A9"></stop>
            <stop offset="0.15" stop-color="#535459"></stop>
            <stop offset="0.38" stop-color="#A7A7A9"></stop>
            <stop offset="0.57" stop-color="#A7A7A9"></stop>
            <stop offset="0.84" stop-color="#535459"></stop>
            <stop offset="0.94" stop-color="#A7A7A9"></stop>
            <stop offset="1" stop-color="#8E8F93"></stop>
        </linearGradient>
        <linearGradient x1="376" y1="871.006" x2="604" y2="871.006" gradientUnits="userSpaceOnUse">
            <stop stop-color="#A0A1A5"></stop>
            <stop offset="0.02" stop-color="#D3D4D9"></stop>
            <stop offset="0.06" stop-color="#6A6B70"></stop>
            <stop offset="0.09" stop-color="#797A7F"></stop>
            <stop offset="0.21" stop-color="#A8A9AE"></stop>
            <stop offset="0.79" stop-color="#A8A9AE"></stop>
            <stop offset="0.92" stop-color="#797A7F"></stop>
            <stop offset="0.95" stop-color="#6A6B70"></stop>
            <stop offset="0.98" stop-color="#D3D4D9"></stop>
            <stop offset="1" stop-color="#A0A1A5"></stop>
        </linearGradient>
        <linearGradient x1="490" y1="867.011" x2="490" y2="875.001" gradientUnits="userSpaceOnUse">
            <stop stop-color="#858688" stop-opacity="0"></stop>
            <stop offset="0.65" stop-color="#737479"></stop>
            <stop offset="0.93" stop-color="#B7B8BD"></stop>
            <stop offset="1" stop-color="#858688"></stop>
        </linearGradient>
        <linearGradient x1="472.525" y1="868.259" x2="507.474" y2="868.259" gradientUnits="userSpaceOnUse">
            <stop stop-color="#575759"></stop>
            <stop offset="0.1" stop-color="#CBCCD1"></stop>
            <stop offset="0.5" stop-color="#D0D1D6"></stop>
            <stop offset="0.9" stop-color="#CBCCD1"></stop>
            <stop offset="1" stop-color="#575759"></stop>
        </linearGradient>
        <linearGradient x1="490" y1="862.516" x2="490" y2="867.011" gradientUnits="userSpaceOnUse">
            <stop stop-color="#232323"></stop>
            <stop offset="1" stop-color="#0A0A0C"></stop>
        </linearGradient>
        <radialGradient cx="0" cy="0" r="1" gradientUnits="userSpaceOnUse" gradientTransform="translate(489.997 740.661) rotate(90) scale(0.832335 0.832117)">
            <stop stop-color="#9797AB"></stop>
            <stop offset="0.39" stop-color="#2C2C46"></stop>
            <stop offset="1" stop-color="#3F3F46"></stop>
        </radialGradient>
        <linearGradient x1="499" y1="280.088" x2="568.86" y2="441.53" gradientUnits="userSpaceOnUse">
            <stop stop-color="#4D4D4D"></stop>
            <stop offset="0.01" stop-color="#121212"></stop>
            <stop offset="0.04" stop-color="#3A3330"></stop>
            <stop offset="0.07" stop-color="#575757"></stop>
            <stop offset="0.46" stop-color="#8A8A8A"></stop>
            <stop offset="0.48" stop-color="#A1A1A1"></stop>
            <stop offset="0.51" stop-color="#8A8A8A"></stop>
            <stop offset="0.56" stop-color="#787878"></stop>
            <stop offset="0.87" stop-color="#646464"></stop>
            <stop offset="0.93" stop-color="#414141"></stop>
            <stop offset="0.97" stop-color="#2C2C2C"></stop>
            <stop offset="1"></stop>
        </linearGradient>
        <linearGradient x1="499" y1="280.087" x2="568.86" y2="441.529" gradientUnits="userSpaceOnUse">
            <stop stop-color="white"></stop>
            <stop offset="0.5" stop-color="white" stop-opacity="0.5"></stop>
            <stop offset="1" stop-color="white"></stop>
        </linearGradient>
        <radialGradient cx="0" cy="0" r="1" gradientTransform="matrix(0.863032 0.000834537 -0.000836807 0.861775 546.056 266.469)" gradientUnits="userSpaceOnUse">
            <stop stop-color="#658088"></stop>
            <stop offset="0.07" stop-color="#4F6571"></stop>
            <stop offset="0.16" stop-color="#374756"></stop>
            <stop offset="0.27" stop-color="#232D40"></stop>
            <stop offset="0.39" stop-color="#131A2F"></stop>
            <stop offset="0.52" stop-color="#080C23"></stop>
            <stop offset="0.69" stop-color="#02041C"></stop>
            <stop offset="1" stop-color="#00021A"></stop>
        </radialGradient>
        <linearGradient x1="591.691" y1="320.723" x2="583.361" y2="320.723" gradientUnits="userSpaceOnUse">
            <stop stop-color="#141414"></stop>
            <stop offset="0.35" stop-color="#343434"></stop>
            <stop offset="0.5" stop-color="#424242"></stop>
            <stop offset="0.65" stop-color="#343434"></stop>
            <stop offset="1" stop-color="#141414"></stop>
        </linearGradient>
        <linearGradient x1="500.809" y1="445.734" x2="500.231" y2="451.831" gradientUnits="userSpaceOnUse">
            <stop offset="0.05" stop-color="#333333"></stop>
            <stop offset="0.49" stop-color="#C4C4C4"></stop>
            <stop offset="0.67" stop-color="#C4C4C4"></stop>
            <stop offset="0.92" stop-color="#333333"></stop>
            <stop offset="0.98" stop-color="#C4C4C4"></stop>
            <stop offset="1" stop-color="#333333"></stop>
        </linearGradient>
        <linearGradient x1="602.256" y1="278.789" x2="595.522" y2="277.045" gradientUnits="userSpaceOnUse">
            <stop offset="0.65" stop-color="#0D0D0D"></stop>
            <stop offset="1" stop-color="#5C5C5C"></stop>
        </linearGradient>
        <linearGradient x1="553.035" y1="446.158" x2="546.642" y2="443.847" gradientUnits="userSpaceOnUse">
            <stop offset="0.62" stop-color="#0D0D0D"></stop>
            <stop offset="1" stop-color="#5C5C5C"></stop>
        </linearGradient>
        <linearGradient x1="469.661" y1="451.216" x2="469.661" y2="447.455" gradientUnits="userSpaceOnUse">
            <stop offset="0.62" stop-color="#1F1F1F"></stop>
            <stop offset="1" stop-color="#C4C4C4"></stop>
        </linearGradient>
        <linearGradient x1="606.607" y1="307.436" x2="481.062" y2="358.006" gradientUnits="userSpaceOnUse">
            <stop stop-color="white" stop-opacity="0.5"></stop>
            <stop offset="1" stop-color="white"></stop>
        </linearGradient>
        <clipPath id="clip0_819_425">
            <rect width="700" height="1463" fill="#FFFFFF"></rect>
        </clipPath>
        <clipPath id="clip1_819_425">
            <rect width="228" height="139" fill="#FFFFFF" transform="translate(376 737)"></rect>
        </clipPath>
        <clipPath id="clip2_819_425">
            <rect width="0.167153" height="0.166467" fill="#FFFFFF" transform="translate(376 737)"></rect>
        </clipPath>
    </defs>
</svg>
