<svg xmlns="http://www.w3.org/2000/svg" xmlns:xlink="http://www.w3.org/1999/xlink" width="700" height="1850" viewBox="0 0 700 1850">
    <defs>
        <linearGradient id="theme_clean_linear-gradient" y1="4.667" x2="4.667" y2="4.667" gradientUnits="objectBoundingBox">
            <stop offset="0" stop-color="#3AADAA" stop-opacity=".25"/>
            <stop offset="1" stop-color="#3AADAA" stop-opacity="1"/>
        </linearGradient>
        <clipPath id="theme_clean_clip-path">
            <rect width="700" height="125" transform="translate(0 1415)" fill="none"/>
        </clipPath>
        <pattern id="theme_clean_pattern" width="4" height="4" viewBox="0 -4 4 4" patternUnits="userSpaceOnUse">
            <circle cx="1" cy="-1" r="0.5" fill="#3AADAA"/>
        </pattern>
        <pattern width="1" height="1" id="theme_clean_s_cover_default_image_id" patternunits="objectBoundingBox">
            <image width="700" height="310" preserveAspectRatio="xMidYMid slice" href="#s_cover_default_image_url"/>
        </pattern>
        <pattern width="1" height="1" id="theme_clean_s_text_image_default_image_id" patternunits="objectBoundingBox">
            <image width="187" height="141" preserveAspectRatio="xMidYMid slice" href="#s_text_image_default_image_url"/>
        </pattern>
        <pattern width="1" height="1" id="theme_clean_s_banner_default_image_id" patternunits="objectBoundingBox">
            <image width="700" height="230" preserveAspectRatio="xMidYMid slice" href="#s_banner_default_image_url"/>
        </pattern>
        <pattern width="1" height="1" id="theme_clean_s_carousel_default_image_1_id" patternunits="objectBoundingBox">
            <image width="700" height="220" preserveAspectRatio="xMidYMid slice" href="#s_carousel_default_image_1_url"/>
        </pattern>
        <pattern width="1" height="1" id="theme_clean_s_three_columns_default_image_1_id" patternunits="objectBoundingBox">
            <image width="173" height="180" preserveAspectRatio="xMidYMid slice" href="#s_three_columns_default_image_1_url"/>
        </pattern>
        <pattern width="1" height="1" id="theme_clean_s_three_columns_default_image_2_id" patternunits="objectBoundingBox">
            <image width="173" height="180" preserveAspectRatio="xMidYMid slice" href="#s_three_columns_default_image_2_url"/>
        </pattern>
        <pattern width="1" height="1" id="theme_clean_s_three_columns_default_image_3_id" patternunits="objectBoundingBox">
            <image width="173" height="180" preserveAspectRatio="xMidYMid slice" href="#s_three_columns_default_image_3_url"/>
        </pattern>
        <filter id="filter_readability_clean">
            <feColorMatrix in="SourceGraphic" type="saturate" values="0"/>
            <feComponentTransfer>
                <feFuncR type="table" tableValues="1 0"/>
                <feFuncG type="table" tableValues="1 0"/>
                <feFuncB type="table" tableValues="1 0"/>
            </feComponentTransfer>
            <feComponentTransfer>
                <feFuncR type="linear" slope="10000" intercept="-4999.5"/>
                <feFuncG type="linear" slope="10000" intercept="-4999.5"/>
                <feFuncB type="linear" slope="10000" intercept="-4999.5"/>
            </feComponentTransfer>
        </filter>
    </defs>
    <g fill="none" fill-rule="evenodd" class="theme_clean">
        <rect width="700" height="1850" fill="#FFFFFF"/>
        <g class="svgc_menu" transform="translate(0)">
            <rect width="700" height="37" transform="translate(0)" class="svgc_menu_bg" fill="#MENU_COLOR"/>
            <path class="svgc_text" opacity="1" fill="#MENU_COLOR" filter="url(#filter_readability_clean)" d="M76.345,23V21.479H72.6V14.273H70.759V23Zm4.68.12a4.131,4.131,0,0,0,2.08-.527,3.749,3.749,0,0,0,1.467-1.528,5.054,5.054,0,0,0,.539-2.429,5.059,5.059,0,0,0-.54-2.429,3.755,3.755,0,0,0-1.465-1.527,4.388,4.388,0,0,0-4.17,0,3.739,3.739,0,0,0-1.461,1.527,5.084,5.084,0,0,0-.537,2.43,5.07,5.07,0,0,0,.537,2.424,3.753,3.753,0,0,0,1.461,1.53,4.138,4.138,0,0,0,2.088.528Zm0-1.633a2.08,2.08,0,0,1-1.168-.328,2.128,2.128,0,0,1-.774-.963,3.929,3.929,0,0,1-.275-1.56,3.935,3.935,0,0,1,.275-1.56,2.114,2.114,0,0,1,.774-.962,2.242,2.242,0,0,1,2.335,0,2.121,2.121,0,0,1,.773.963,3.911,3.911,0,0,1,.275,1.56,3.909,3.909,0,0,1-.275,1.559,2.12,2.12,0,0,1-.773.963,2.075,2.075,0,0,1-1.168.328ZM90.3,23.119a4.152,4.152,0,0,0,1.952-.445,3.292,3.292,0,0,0,1.338-1.27,3.823,3.823,0,0,0,.486-1.975v-1.1H90.426v1.39H92.3l0,.126a1.886,1.886,0,0,1-.157.645l-.073.14a1.591,1.591,0,0,1-.682.633,2.35,2.35,0,0,1-1.071.224,2.127,2.127,0,0,1-1.2-.334,2.151,2.151,0,0,1-.784-.974,3.9,3.9,0,0,1-.277-1.551,3.805,3.805,0,0,1,.281-1.545,2.174,2.174,0,0,1,.787-.965,2.086,2.086,0,0,1,1.174-.332,2.283,2.283,0,0,1,.654.089,1.778,1.778,0,0,1,.528.258,1.6,1.6,0,0,1,.394.409,1.94,1.94,0,0,1,.252.552H94a3.19,3.19,0,0,0-.4-1.187,3.27,3.27,0,0,0-.812-.931,3.741,3.741,0,0,0-1.135-.607,4.3,4.3,0,0,0-1.381-.216,4.21,4.21,0,0,0-1.607.3,3.756,3.756,0,0,0-1.3.882,4.021,4.021,0,0,0-.867,1.413,5.417,5.417,0,0,0-.309,1.894,5.141,5.141,0,0,0,.518,2.384,3.725,3.725,0,0,0,1.447,1.547,4.2,4.2,0,0,0,2.156.543Zm8.958,0a4.137,4.137,0,0,0,2.081-.526,3.747,3.747,0,0,0,1.466-1.528,5.054,5.054,0,0,0,.54-2.429,5.059,5.059,0,0,0-.54-2.429,3.763,3.763,0,0,0-1.466-1.527,4.386,4.386,0,0,0-4.169,0,3.742,3.742,0,0,0-1.462,1.527,5.084,5.084,0,0,0-.537,2.43,5.07,5.07,0,0,0,.537,2.424,3.756,3.756,0,0,0,1.462,1.53A4.133,4.133,0,0,0,99.26,23.119Zm0-1.632a2.081,2.081,0,0,1-1.168-.328,2.127,2.127,0,0,1-.773-.963,3.911,3.911,0,0,1-.275-1.56,3.918,3.918,0,0,1,.275-1.56,2.112,2.112,0,0,1,.773-.962,2.242,2.242,0,0,1,2.335,0,2.123,2.123,0,0,1,.774.963,3.929,3.929,0,0,1,.275,1.56A3.927,3.927,0,0,1,101.2,20.2a2.128,2.128,0,0,1-.774.963A2.075,2.075,0,0,1,99.26,21.487Z" transform="translate(-0.76)"/>
            <rect width="37" height="7" transform="translate(593 15)" class="svgc_text" opacity="1" fill="#MENU_COLOR" filter="url(#filter_readability_clean)"/>
            <g transform="translate(569.424 -19.525)" opacity="0.6">
                <rect width="12" height="2" transform="translate(1.575 32.025)" fill="#MENU_COLOR" class="svgc_text" filter="url(#filter_readability_clean)"/>
                <rect width="12" height="2" transform="translate(1.575 37.025)" fill="#MENU_COLOR" class="svgc_text" filter="url(#filter_readability_clean)"/>
                <rect width="12" height="2" transform="translate(1.575 42.025)" fill="#MENU_COLOR" class="svgc_text" filter="url(#filter_readability_clean)"/>
            </g>
        </g>
        <g class="s_cover">
            <rect fill="url(#theme_clean_s_cover_default_image_id)" class="img_reference_s_cover_default_image" width="700" height="310" transform="translate(0 37)"/>
            <rect fill="#000" opacity="0.5" width="700" height="310" transform="translate(0 37)"/>
            <g transform="translate(0 37)">
                <rect width="700" height="310" fill="url(#theme_clean_linear-gradient)"/>
                <path d="M0,0V95L700,0Z" fill="#MENU_COLOR"/>
                <path d="M0,500H700L0,456.9Z" transform="translate(0 -190)" fill="#F6F6F6"/>
            </g>
            <text transform="translate(350 193)" text-anchor="middle" fill="#FFFFFF" font-size="32" font-family="Dosis" font-weight="700">Welcome Message</text>
            <g transform="translate(228.63 184)" opacity="0.4">
                <rect width="238.689" height="2" transform="translate(2.37 32.025)" fill="#FFFFFF"/>
                <rect width="223.689" height="2" transform="translate(9.37 37.025)" fill="#FFFFFF"/>
            </g>
        </g>
        <g class="s_title" transform="translate(0 -50)">
            <rect fill="url(#theme_clean_s_banner_default_image_id)" class="img_reference_s_banner_default_image" width="700" height="230" transform="translate(0 646)"/>
            <rect fill="#000000" opacity="0.5" width="700" height="230" transform="translate(0 646)"/>
            <g transform="translate(0 646)">
                <rect width="700" height="229.792" fill="url(#linear-gradient)"/>
                <path d="M0,0V95L700,0Z" fill="#F6F6F6"/>
                <path d="M0,500H700L0,456.9Z" transform="translate(0 -270)" fill="#F6F6F6"/>
            </g>
            <text transform="translate(350 775)" text-anchor="middle" fill="#FFFFFF" font-size="32" font-family="Dosis" font-weight="bold">Section Title</text>
        </g>
        <g class="s_text_image" transform="translate(0 -25.764)">
            <rect width="700" height="252" transform="translate(0 371.764)" fill="#F6F6F6"/>
            <g transform="translate(19.431 -233)" opacity="0.4">
                <rect width="185.364" height="2" transform="translate(98.205 717.377)" fill="#212529"/>
                <rect width="170.364" height="2" transform="translate(98.205 722.377)" fill="#212529"/>
                <rect width="79" height="2" transform="translate(98.205 727.377)" fill="#212529"/>
                <rect width="91" height="2" transform="translate(98.205 732.377)" fill="#212529"/>
            </g>
            <rect width="94" height="28" rx="2" transform="translate(117.636 513.225)" fill="#3AADAA"/>
            <text transform="translate(164 533)" text-anchor="middle" fill="#FFFFFF" font-size="14" font-family="Dosis" font-weight="bold">Discover</text>
            <text transform="translate(115 470)" fill="#3AADAA" font-size="25" font-family="Dosis">Section Title</text>
            <g transform="translate(295.994 402.764)">
                <path d="M288.011.256c13.278,2.805,5.424,46.661-2.151,76.117-7.387,29.456-14.588,44.7-14.588,59.753,0,15.242,7.387,30.484-1.122,32.261s-32.728-9.819-45.82-6.733c-13.278,3.086-15.242,20.666-19.824,24.593-4.395,3.927-10.941-5.7-27.866-6.546-17.019-.842-44.043,7.013-52.085,1.309-8.322-5.891,2.618-25.248,17.673-36.188,14.868-11.128,33.757-13.278,44.7-14.4,10.941-.842,13.746-.655,15.71-10.006,1.964-9.164,3.273-27.866,20.666-56.48C240.975,35.509,274.919-2.643,288.011.256Z" transform="translate(-14.92 0)" fill="url(#theme_clean_pattern)"/>
                <path fill="url(#theme_clean_s_text_image_default_image_id)" class="img_reference_s_text_image_default_image" d="M232.813,107.667c25.534,17.916,52.74,36.974,54.136,57.284,1.4,20.161-22.991,41.5-48.725,47.989-25.709,6.49-52.465-2-72.963-6.845C144.59,201.12,130.2,199.624,120,193.153c-10.249-6.359-16.732-17.8-19.051-31.195-2.344-13.391-.748-28.483,9.55-46.269,10.373-17.991,29.449-38.526,51.044-40.546C183.165,73.218,207.079,89.881,232.813,107.667Z" transform="translate(0 -51.617)"/>
            </g>
        </g>
        <g class="s_features" transform="translate(0 -131)">
            <rect width="700" height="172" transform="translate(0 955)" fill="#F6F6F6"/>
            <g transform="translate(-15 4.68)">
                <g transform="translate(113 -5)">
                    <g transform="translate(-94.569 370.263)" opacity="0.4">
                        <rect width="122.57" height="2" transform="translate(98.569 717.377)"/>
                        <rect width="107.57" height="2" transform="translate(105.569 722.377)"/>
                    </g>
                    <text transform="translate(65 1068)" text-anchor="middle" fill="#3AADAA" font-size="20" font-family="Dosis">Section Entry</text>
                </g>
                <g transform="translate(2)">
                    <rect width="50" height="50" rx="4" transform="translate(151 983)" fill="#FFFFFF"/>
                    <circle cx="10" cy="10" r="10" transform="translate(166 998)" fill="#383E45"/>
                </g>
            </g>
            <g transform="translate(172 4.68)">
                <g transform="translate(113 -5)">
                    <g transform="translate(-94.569 370.263)" opacity="0.4">
                        <rect width="122.57" height="2" transform="translate(98.569 717.377)"/>
                        <rect width="107.57" height="2" transform="translate(105.569 722.377)"/>
                    </g>
                    <text transform="translate(65 1068)" text-anchor="middle" fill="#3AADAA" font-size="20" font-family="Dosis">Section Entry</text>
                </g>
                <g transform="translate(2)">
                    <rect width="50" height="50" rx="4" transform="translate(151 983)" fill="#3AADAA"/>
                    <circle cx="10" cy="10" r="10" transform="translate(166 998)" fill="#FFFFFF"/>
                </g>
            </g>
            <g transform="translate(359 4.68)">
                <g transform="translate(113 -5)">
                    <g transform="translate(-94.569 370.263)" opacity="0.4">
                        <rect width="122.57" height="2" transform="translate(98.569 717.377)"/>
                        <rect width="107.57" height="2" transform="translate(105.569 722.377)"/>
                    </g>
                    <text transform="translate(65 1068)" text-anchor="middle" fill="#3AADAA" font-size="20" font-family="Dosis">Section Entry</text>
                </g>
                <g transform="translate(2)">
                    <rect width="50" height="50" rx="4" transform="translate(151 983)" fill="#383E45"/>
                    <circle cx="10" cy="10" r="10" transform="translate(166 998)" fill="#FFFFFF"/>
                </g>
            </g>
        </g>
        <g class="s_carousel" transform="translate(0 -210)">
            <rect fill="url(#theme_clean_s_carousel_default_image_1_id)" class="img_reference_s_carousel_default_image_1" width="700" height="220" transform="translate(0 1206)"/>
            <rect width="700" height="220" transform="translate(0 1206)" opacity="0.5" fill="#000000"/>
            <path d="M3.874,16.465H0V0H16.465V3.874H3.874v12.59Z" transform="translate(25 1315.643) rotate(-45)" fill="#fbfbfb"/>
            <path d="M3.874,16.465H0V0H16.465V3.874H3.874v12.59Z" transform="translate(674.67 1315.643) rotate(135)" fill="#fbfbfb"/>
            <g transform="translate(313 1402.86)">
                <rect width="20" height="6" rx="2" transform="translate(0 0.14)" fill="#fbfbfb" opacity="0.5"/>
                <rect width="20" height="6" rx="2" transform="translate(27 0.14)" fill="#fbfbfb"/>
                <rect width="20" height="6" rx="2" transform="translate(54 0.14)" fill="#fbfbfb" opacity="0.5"/>
            </g>
            <g transform="translate(116.914 1297.615)" opacity="0.4">
                <rect width="131" height="2" transform="translate(0.086 32.025)" fill="#FFFFFF"/>
                <rect width="116" height="2" transform="translate(0.086 37.025)" fill="#FFFFFF"/>
                <rect width="79" height="2" transform="translate(0.086 42.025)" fill="#FFFFFF"/>
                <rect width="91" height="2" transform="translate(0.086 47.025)" fill="#FFFFFF"/>
            </g>
            <text transform="translate(116 1309)" fill="#FFFFFF" font-size="32" font-family="Dosis">Section Title</text>
        </g>
        <g class="s_numbers" transform="translate(0 -199)">
            <rect width="700" height="125" transform="translate(0 1415)" fill="#3AADAA"/>
            <g clip-path="url(#theme_clean_clip-path)">
                <g transform="translate(0 1255)" opacity="0.3">
                    <path d="M697.4,0,0,285H0L700,0Z" fill="#FFFFFF"/>
                    <path d="M0,294.5H0L700,20.1V19Z" transform="translate(0 -9.5)" fill="#FFFFFF"/>
                    <path d="M0,305.5H0L700,42.05V41Z" transform="translate(0 -20.5)" fill="#FFFFFF"/>
                    <path d="M0,316.85H0L700,64.75V63.7Z" transform="translate(0 -31.85)" fill="#FFFFFF"/>
                    <path d="M0,328.55H0L700,88.15V87.1Z" transform="translate(0 -43.55)" fill="#FFFFFF"/>
                    <path d="M1389.05,5l-10.95.9.05,1,10.9-.9Z" transform="translate(-689.05 -2.5)" fill="#FFFFFF"/>
                    <path d="M0,340.65H0l700-228.3V111.3Z" transform="translate(0 -55.65)" fill="#FFFFFF"/>
                    <rect width="23.55" height="1" transform="translate(676.45 8.55)" fill="#FFFFFF"/>
                    <path d="M699.9,137.8,0,353.9H0L700,138.85v-.65Z" transform="translate(0 -68.9)" fill="#FFFFFF"/>
                    <path d="M1361.2,31.3l-38.75-1.8-.05,1,38.8,1.8Z" transform="translate(-661.2 -14.75)" fill="#FFFFFF"/>
                    <path d="M0,366.2H0L700,163.45V162.4Z" transform="translate(0 -81.2)" fill="#FFFFFF"/>
                    <path d="M1347.2,47.95l-52.8-6.05.1-1,52.7,6.05Z" transform="translate(-647.2 -20.45)" fill="#FFFFFF"/>
                    <path d="M0,379.7H0L700,190.45V189.4Z" transform="translate(0 -94.7)" fill="#FFFFFF"/>
                    <path d="M1333.15,65.7,1266.3,53.3l.2-1,66.65,12.35Z" transform="translate(-633.15 -26.15)" fill="#FFFFFF"/>
                    <path d="M0,393.7H0L700,218.45V217.4Z" transform="translate(0 -108.7)" fill="#FFFFFF"/>
                    <path d="M1238.35,63.8l-.25.95,80.95,20.8v-1Z" transform="translate(-619.05 -31.9)" fill="#FFFFFF"/>
                    <path d="M0,408.2H0L700,247.45V246.4Z" transform="translate(0 -123.2)" fill="#FFFFFF"/>
                    <path d="M1209.5,75.1l-.3.95,95.3,31.35.1-.35v-.65Z" transform="translate(-604.6 -37.55)" fill="#FFFFFF"/>
                    <path d="M0,423.3H0L700,277.6v-1Z" transform="translate(0 -138.3)" fill="#FFFFFF"/>
                    <path d="M1181.1,86.7l-.4.95,109.65,44.05v-1.05Z" transform="translate(-590.35 -43.35)" fill="#FFFFFF"/>
                    <path d="M0,439H0L700,309v-1Z" transform="translate(0 -154)" fill="#FFFFFF"/>
                    <path d="M1152.7,98.4l-.4.9,123.85,59.05V157.2Z" transform="translate(-576.15 -49.2)" fill="#FFFFFF"/>
                    <path d="M0,455.25H0l700-113.7V340.5Z" transform="translate(0 -170.25)" fill="#FFFFFF"/>
                    <path d="M1125.6,109.8l-.5.9,137.45,76.35V185.9Z" transform="translate(-562.55 -54.9)" fill="#FFFFFF"/>
                    <path d="M0,472.25H0L700,375.5v-1Z" transform="translate(0 -187.25)" fill="#FFFFFF"/>
                    <path d="M1097.1,121.4l-.5.85,151.7,96V217.1Z" transform="translate(-548.3 -60.7)" fill="#FFFFFF"/>
                    <path d="M0,490H0l700-79v-1Z" transform="translate(0 -205)" fill="#FFFFFF"/>
                    <path d="M1068.7,133.1l-.6.8,165.95,118.15V250.8Z" transform="translate(-534.05 -66.55)" fill="#FFFFFF"/>
                    <path d="M0,508.45H0L700,447.9v-1Z" transform="translate(0 -223.45)" fill="#FFFFFF"/>
                    <path d="M1040.35,144.4l-.65.8L1219.85,288v-1.25Z" transform="translate(-519.85 -72.2)" fill="#FFFFFF"/>
                    <path d="M0,527.7H0l700-41.3v-1Z" transform="translate(0 -242.7)" fill="#FFFFFF"/>
                    <path d="M1011.85,156l-.65.8,194.4,170v-1.35Z" transform="translate(-505.6 -78)" fill="#FFFFFF"/>
                    <path d="M0,547.85H0L700,526.7v-1Z" transform="translate(0 -262.85)" fill="#FFFFFF"/>
                    <path d="M983.1,168.4l208.45,200.45v-1.4L983.8,167.7Z" transform="translate(-491.55 -83.85)" fill="#FFFFFF"/>
                    <path d="M0,569.5l700-.5v.5Z" transform="translate(0 -284.5)" fill="#FFFFFF"/>
                </g>
            </g>
            <rect width="45" height="2" transform="translate(118 1493.018)" fill="#3AADAA" class="svgc_text" filter="url(#filter_readability_clean)" opacity="0.6"/>
            <path d="M-15.844-3.74h4.726V-17.17l.51-2.312-1.632,2.006L-15.266-15.4l-1.87-2.55,7.752-6.256H-6.9V-3.74h4.624V0H-15.844ZM16.15-17.986a10.4,10.4,0,0,1-.629,3.5,21.657,21.657,0,0,1-1.6,3.468,32.575,32.575,0,0,1-2.142,3.281q-1.173,1.581-2.3,2.907l-1.8,1.394v.17l2.448-.476H16.66V0H2.346V-2.278q.816-.85,1.836-1.989T6.239-6.681Q7.276-7.956,8.262-9.316a29.413,29.413,0,0,0,1.768-2.737,16.862,16.862,0,0,0,1.241-2.669,7.319,7.319,0,0,0,.459-2.448,3.33,3.33,0,0,0-.8-2.3,3.222,3.222,0,0,0-2.533-.9,5.934,5.934,0,0,0-2.227.459A6.316,6.316,0,0,0,4.25-18.734L2.482-21.862a11.147,11.147,0,0,1,3.009-1.751,10.779,10.779,0,0,1,3.961-.663,8.451,8.451,0,0,1,2.686.408,6,6,0,0,1,2.108,1.19,5.487,5.487,0,0,1,1.394,1.955A6.817,6.817,0,0,1,16.15-17.986Z" transform="translate(139.136 1484.276)" fill="#3AADAA" class="svgc_text" filter="url(#filter_readability_clean)"/>
            <rect width="75" height="2" transform="translate(243 1493.018)" fill="#3AADAA" class="svgc_text" filter="url(#filter_readability_clean)" opacity="0.6"/>
            <path d="M-.476-6.63h-3.74V0H-8.33V-6.63h-10.3V-9.146L-7.854-23.97h3.638v13.8h3.74ZM-8.33-15.368l.306-2.856H-8.16l-1.156,2.448-3.536,4.59-1.7,1.292,2.176-.272H-8.33ZM7.48-3.434a4.917,4.917,0,0,0,3.434-1.088A3.851,3.851,0,0,0,12.1-7.514a3.367,3.367,0,0,0-1.394-2.992,7.018,7.018,0,0,0-3.978-.952l-2.686.1V-23.8h11.7v4.148H7.854v4.59L9.248-15.2a8.936,8.936,0,0,1,3.009.612,6.7,6.7,0,0,1,2.3,1.513,6.537,6.537,0,0,1,1.462,2.346,8.806,8.806,0,0,1,.51,3.077,8.633,8.633,0,0,1-.68,3.536,7.01,7.01,0,0,1-1.887,2.55,8.072,8.072,0,0,1-2.839,1.53,11.919,11.919,0,0,1-3.57.51A15.949,15.949,0,0,1,4.641.221a9.8,9.8,0,0,1-2.329-.7L3.5-4.148a8.455,8.455,0,0,0,1.717.527A11.721,11.721,0,0,0,7.48-3.434Z" transform="translate(281.632 1482.97)" fill="#3AADAA" class="svgc_text" filter="url(#filter_readability_clean)"/>
            <rect width="75" height="2" transform="translate(383 1493.018)" fill="#3AADAA" class="svgc_text" filter="url(#filter_readability_clean)" opacity="0.6"/>
            <path d="M-7.565-5.814a6.82,6.82,0,0,1,.306-2.125,6.019,6.019,0,0,1,.867-1.7,7.251,7.251,0,0,1,1.326-1.377,13.166,13.166,0,0,1,1.649-1.122,8.907,8.907,0,0,1-2.618-2.431,5.866,5.866,0,0,1-.952-3.417,6.26,6.26,0,0,1,.493-2.482,5.707,5.707,0,0,1,1.428-2.006A6.661,6.661,0,0,1-2.8-23.8a8.816,8.816,0,0,1,2.992-.476,9,9,0,0,1,2.788.408,6.457,6.457,0,0,1,2.159,1.156,5.112,5.112,0,0,1,1.394,1.819,5.583,5.583,0,0,1,.493,2.363,6.132,6.132,0,0,1-.9,3.4,9.023,9.023,0,0,1-2.635,2.55A9.867,9.867,0,0,1,6.562-9.962,6.1,6.1,0,0,1,7.6-6.29a6.652,6.652,0,0,1-.561,2.771A6.106,6.106,0,0,1,5.457-1.394,7.355,7.355,0,0,1,3.009-.017,9.529,9.529,0,0,1-.119.476,9.694,9.694,0,0,1-3.2.017,7.065,7.065,0,0,1-5.542-1.258a5.563,5.563,0,0,1-1.5-1.972A6.159,6.159,0,0,1-7.565-5.814ZM3.383-6.256a2.8,2.8,0,0,0-.374-1.428A4.731,4.731,0,0,0,2.04-8.857,9.075,9.075,0,0,0,.714-9.826q-.731-.442-1.479-.85A5.6,5.6,0,0,0-2.958-8.687a4.348,4.348,0,0,0-.6,2.125,3.234,3.234,0,0,0,.935,2.329,3.445,3.445,0,0,0,2.6.969,3.829,3.829,0,0,0,2.465-.748A2.7,2.7,0,0,0,3.383-6.256ZM-2.771-17.918a3.155,3.155,0,0,0,.306,1.428,3.463,3.463,0,0,0,.833,1.071,7.969,7.969,0,0,0,1.19.85q.663.391,1.377.731a4.983,4.983,0,0,0,2.04-3.808,2.72,2.72,0,0,0-.833-2.159,2.96,2.96,0,0,0-2.023-.731,2.8,2.8,0,0,0-2.193.782A2.671,2.671,0,0,0-2.771-17.918Z" transform="translate(420.565 1483.276)" fill="#3AADAA" class="svgc_text" filter="url(#filter_readability_clean)"/>
            <rect width="75" height="2" transform="translate(523 1493.018)" fill="#3AADAA" class="svgc_text" filter="url(#filter_readability_clean)" opacity="0.6"/>
            <path d="M-11.084-3.264A4.313,4.313,0,0,0-7.871-4.386a3.733,3.733,0,0,0,1.105-2.72A3.426,3.426,0,0,0-7.922-9.962a5.838,5.838,0,0,0-3.638-.918h-2.448v-2.346l4.114-5.61,1.938-1.53-2.686.306h-5.712V-23.8H-3.366v2.414L-8.16-14.96l-1.5.918v.17l1.428-.2a7.589,7.589,0,0,1,2.261.544A5.437,5.437,0,0,1-4.1-12.257,6.148,6.148,0,0,1-2.822-10.2a7.751,7.751,0,0,1,.476,2.822A8.341,8.341,0,0,1-3.009-3.91,6.836,6.836,0,0,1-4.845-1.462,7.67,7.67,0,0,1-7.582,0a11.506,11.506,0,0,1-3.366.476A18.434,18.434,0,0,1-14.042.2a8.966,8.966,0,0,1-2.584-.782l1.19-3.672a9.7,9.7,0,0,0,1.955.714A9.748,9.748,0,0,0-11.084-3.264ZM3.536,0l7.786-18.326,1.5-1.666-2.04.34H2.04V-23.8H17.374v1.292L7.854,0Z" transform="translate(560.626 1483.8)" fill="#3AADAA" class="svgc_text" filter="url(#filter_readability_clean)"/>
            
        </g>
        <g class="s_three_columns" transform="translate(0 -174)">
            <rect width="700" height="100" transform="translate(0 1515)" fill="#3AADAA"/>
            <rect width="700" height="147" transform="translate(0 1639)" fill="#FFFFFF"/>
            <g transform="translate(-1513 -264)">
                <rect fill="url(#theme_clean_s_three_columns_default_image_1_id)" class="img_reference_s_three_columns_default_image_1" width="173" height="180" transform="translate(1583 1779)"/>
                <g transform="translate(1600 2012.88)" opacity="0.4">
                    <rect width="138.933" height="2" fill="#212529"/>
                    <rect width="123.933" height="2" transform="translate(0 5)" fill="#212529"/>
                    <rect width="129" height="2" transform="translate(0 10)" fill="#212529"/>
                    <rect width="123.933" height="2" transform="translate(0 15)" fill="#212529"/>
                </g>
                <text transform="translate(1598 1998)" fill="#000000" font-size="24" font-family="Dosis">Entry Title</text>
            </g>
            <g transform="translate(-1319 -264)">
                <rect fill="url(#theme_clean_s_three_columns_default_image_2_id)" class="img_reference_s_three_columns_default_image_2" width="173" height="180" transform="translate(1583 1779)"/>
                <g transform="translate(1600 2012.88)" opacity="0.4">
                    <rect width="138.933" height="2" fill="#212529"/>
                    <rect width="123.933" height="2" transform="translate(0 5)" fill="#212529"/>
                    <rect width="129" height="2" transform="translate(0 10)" fill="#212529"/>
                    <rect width="123.933" height="2" transform="translate(0 15)" fill="#22263c"/>
                </g>
                <text transform="translate(1598 1998)" fill="#000000" font-size="24" font-family="Dosis">Entry Title</text>54.854,0,0,1-.492-.156.529.529,0,0,1-.228-.468v-16.32a.506.506,0,0,1,.228-.444.854.854,0,0,1,.492-.156h8.544a.5.5,0,0,1,.456.228.866.866,0,0,1,.144.468.933.933,0,0,1-.156.54.506.506,0,0,1-.444.228h-7.68v6.6h3.768a.515.515,0,0,1,.444.216.838.838,0,0,1,.156.5.774.774,0,0,1-.144.432.509.509,0,0,1-.456.216h-3.768v6.648h7.68a.515.515,0,0,1,.444.216.878.878,0,0,1,.156.528.9.9,0,0,1-.144.492A.5.5,0,0,1-35.244,0Zm11.9,0a.812.812,0,0,1-.54-.192.558.558,0,0,1-.228-.432V-10.776a.485.485,0,0,1,.228-.42.933.933,0,0,1,.54-.156.878.878,0,0,1,.528.156.492.492,0,0,1,.216.42v1.1a3.786,3.786,0,0,1,1.2-1.26,3.461,3.461,0,0,1,2.016-.564,3.909,3.909,0,0,1,2.124.612,4.554,4.554,0,0,1,1.548,1.62,4.466,4.466,0,0,1,.576,2.256V-.624a.521.521,0,0,1-.24.468A.99.99,0,0,1-24.468,0a.969.969,0,0,1-.516-.156.514.514,0,0,1-.252-.468V-7.008a2.852,2.852,0,0,0-.408-1.464,3.424,3.424,0,0,0-1.08-1.14,2.642,2.642,0,0,0-1.488-.444,2.772,2.772,0,0,0-1.38.372,3,3,0,0,0-1.08,1.044,3.019,3.019,0,0,0-.42,1.632V-.624a.558.558,0,0,1-.228.432A.846.846,0,0,1-31.884,0Zm14.856,0A4.244,4.244,0,0,1-19.86-.84a3.35,3.35,0,0,1-.984-2.688V-16.176a.475.475,0,0,1,.252-.42.969.969,0,0,1,.516-.156.99.99,0,0,1,.552.156.479.479,0,0,1,.24.42v4.824h3.12a.456.456,0,0,1,.384.192.739.739,0,0,1,.144.456.739.739,0,0,1-.144.456.456.456,0,0,1-.384.192h-3.12v6.528a2.184,2.184,0,0,0,.5,1.644,2.568,2.568,0,0,0,1.752.468h.672a.652.652,0,0,1,.516.2.718.718,0,0,1,.18.492.763.763,0,0,1-.18.5A.634.634,0,0,1-16.356,0Zm4.08,0a.812.812,0,0,1-.54-.192.558.558,0,0,1-.228-.432V-10.776a.485.485,0,0,1,.228-.42.933.933,0,0,1,.54-.156.878.878,0,0,1,.528.156.492.492,0,0,1,.216.42V-9.6a3.759,3.759,0,0,1,.72-.912,3.773,3.773,0,0,1,1.08-.708A3.467,3.467,0,0,1-8.988-11.5h.84a.569.569,0,0,1,.444.2.751.751,0,0,1,.18.516.763.763,0,0,1-.18.5.556.556,0,0,1-.444.216h-.84a3.021,3.021,0,0,0-1.524.42,3.227,3.227,0,0,0-1.188,1.2,3.672,3.672,0,0,0-.456,1.884V-.624a.558.558,0,0,1-.228.432A.846.846,0,0,1-12.948,0ZM-6.2,5.568a.825.825,0,0,1-.516-.156.64.64,0,0,1-.2-.54,1.113,1.113,0,0,1,.108-.5.382.382,0,0,1,.372-.216,1.931,1.931,0,0,0,1.1-.36,3.881,3.881,0,0,0,.984-1.02A8.743,8.743,0,0,0-3.54,1.284,10.122,10.122,0,0,0-2.964-.48L-6.876-10.536a.43.43,0,0,1-.072-.216.548.548,0,0,1,.156-.384,1.1,1.1,0,0,1,.384-.264,1.091,1.091,0,0,1,.42-.1.722.722,0,0,1,.348.084.4.4,0,0,1,.2.252l3.288,8.832,3.1-8.832a.517.517,0,0,1,.216-.252.608.608,0,0,1,.312-.084,1.091,1.091,0,0,1,.42.1,1.1,1.1,0,0,1,.384.264.578.578,0,0,1,.156.408.341.341,0,0,1-.048.192L-1.332-.456Q-1.692.5-2.1,1.56a13.171,13.171,0,0,1-.948,1.968A4.891,4.891,0,0,1-4.356,5,3.036,3.036,0,0,1-6.2,5.568ZM13.332,0a.99.99,0,0,1-.552-.156.521.521,0,0,1-.24-.468V-16.056H8.508a.506.506,0,0,1-.444-.228.892.892,0,0,1-.156-.516.892.892,0,0,1,.156-.516.506.506,0,0,1,.444-.228h9.624a.508.508,0,0,1,.456.216.887.887,0,0,1,.144.5,1.007,1.007,0,0,1-.144.528.493.493,0,0,1-.456.24H14.124V-.624a.514.514,0,0,1-.252.468A1.008,1.008,0,0,1,13.332,0Zm7.656,0a.812.812,0,0,1-.54-.192.558.558,0,0,1-.228-.432V-10.776a.485.485,0,0,1,.228-.42.933.933,0,0,1,.54-.156.976.976,0,0,1,.564.156.485.485,0,0,1,.228.42V-.624a.558.558,0,0,1-.228.432A.846.846,0,0,1,20.988,0Zm0-14.712a1.036,1.036,0,0,1-.744-.3.95.95,0,0,1-.312-.708.913.913,0,0,1,.312-.7,1.059,1.059,0,0,1,.744-.288,1.048,1.048,0,0,1,.756.288.93.93,0,0,1,.3.7.968.968,0,0,1-.3.708A1.025,1.025,0,0,1,20.988-14.712ZM28.524,0a4.244,4.244,0,0,1-2.832-.84,3.35,3.35,0,0,1-.984-2.688V-16.176a.475.475,0,0,1,.252-.42.969.969,0,0,1,.516-.156.99.99,0,0,1,.552.156.479.479,0,0,1,.24.42v4.824h3.12a.456.456,0,0,1,.384.192.739.739,0,0,1,.144.456.739.739,0,0,1-.144.456.456.456,0,0,1-.384.192h-3.12v6.528a2.184,2.184,0,0,0,.5,1.644,2.568,2.568,0,0,0,1.752.468H29.2a.652.652,0,0,1,.516.2.718.718,0,0,1,.18.492.763.763,0,0,1-.18.5A.634.634,0,0,1,29.2,0Zm4.3,0a.812.812,0,0,1-.54-.192.558.558,0,0,1-.228-.432V-17.736a.485.485,0,0,1,.228-.42.933.933,0,0,1,.54-.156.976.976,0,0,1,.564.156.485.485,0,0,1,.228.42V-.624a.558.558,0,0,1-.228.432A.846.846,0,0,1,32.82,0Zm8.76.168A5.958,5.958,0,0,1,38.9-.408,4.492,4.492,0,0,1,37.08-2a4.3,4.3,0,0,1-.66-2.388V-7.08a4.115,4.115,0,0,1,.624-2.208A4.659,4.659,0,0,1,38.712-10.9,4.519,4.519,0,0,1,41-11.5a4.513,4.513,0,0,1,2.22.564,4.489,4.489,0,0,1,1.644,1.548,4.122,4.122,0,0,1,.624,2.256A2.188,2.188,0,0,1,45.18-5.8a1.3,1.3,0,0,1-.78.492,4.951,4.951,0,0,1-1,.1H37.98v.888a2.784,2.784,0,0,0,1.032,2.28,4.009,4.009,0,0,0,2.616.84,3.693,3.693,0,0,0,1.488-.24,3.977,3.977,0,0,0,.828-.48.925.925,0,0,1,.564-.24.525.525,0,0,1,.348.132.947.947,0,0,1,.24.3.7.7,0,0,1,.084.312q0,.264-.432.648a3.621,3.621,0,0,1-1.248.66A6,6,0,0,1,41.58.168ZM37.98-6.36h4.8a1.971,1.971,0,0,0,.96-.156.74.74,0,0,0,.24-.66,3.063,3.063,0,0,0-.372-1.464,2.975,2.975,0,0,0-1.056-1.128A2.881,2.881,0,0,0,40.98-10.2a2.941,2.941,0,0,0-1.5.4,3.071,3.071,0,0,0-1.092,1.056,2.75,2.75,0,0,0-.408,1.476Z" transform="translate(1644.508 1997.312)" fill="#212529"/>
            </g>
            <g transform="translate(-1126 -264)">
                <rect fill="url(#theme_clean_s_three_columns_default_image_3_id)" class="img_reference_s_three_columns_default_image_3" width="173" height="180" transform="translate(1583 1779)"/>
                <g transform="translate(1600 2012.88)" opacity="0.4">
                    <rect width="138.933" height="2" fill="#212529"/>
                    <rect width="123.933" height="2" transform="translate(0 5)" fill="#212529"/>
                    <rect width="129" height="2" transform="translate(0 10)" fill="#212529"/>
                    <rect width="123.933" height="2" transform="translate(0 15)" fill="#212529"/>
                </g>
                <text transform="translate(1598 1998)" fill="#000000" font-size="24" font-family="Dosis">Entry Title</text>
            </g>
        </g>
        <g class="s_call_to_action">
            <rect width="700" height="100" transform="translate(0 1612)" fill="#F6F6F6"/>
            <text transform="translate(67 1680)" fill="#3AADAA" font-size="34" font-family="Dosis">Section Title</text>            
            <rect width="93" height="2" transform="translate(70 1691.296)" fill="#F6F6F6" class="svgc_text" filter="url(#filter_readability_clean)" opacity="0.4"/>
            <rect width="94" height="28" rx="2" transform="translate(536 1661)" fill="#3AADAA"/>
            <text transform="translate(584 1680)" text-anchor="middle" fill="#FFFFFF" font-size="14" font-family="Dosis" font-weight="bold">Discover</text>            
            <path d="M0,1354.3v22.85H700V1354.3C457.85,1374.7,224,1375.9,0,1354.3Z" transform="translate(700 2989.15) rotate(180)" fill="#FFFFFF"/>
        </g>
        <g class="svgc_footer">
            <rect width="700" height="138" transform="translate(0 1712)" class="svgc_footer_bg" fill="#FOOTER_COLOR"/>
            <g transform="translate(9 -17)" opacity="0.4">
                <rect width="28" height="2" transform="translate(593 1823)" fill="#FOOTER_COLOR" class="svgc_text" filter="url(#filter_readability_clean)"/>
                <rect width="28" height="2" transform="translate(560 1823)" fill="#FOOTER_COLOR" class="svgc_text" filter="url(#filter_readability_clean)"/>
                <rect width="28" height="2" transform="translate(527 1823)" fill="#FOOTER_COLOR" class="svgc_text" filter="url(#filter_readability_clean)"/>
                <rect width="28" height="2" transform="translate(494 1823)" fill="#FOOTER_COLOR" class="svgc_text" filter="url(#filter_readability_clean)"/>
            </g>
            <path d="M76.345,23V21.479H72.6V14.273H70.759V23Zm4.68.12a4.131,4.131,0,0,0,2.08-.527,3.749,3.749,0,0,0,1.467-1.528,5.054,5.054,0,0,0,.539-2.429,5.059,5.059,0,0,0-.54-2.429,3.755,3.755,0,0,0-1.465-1.527,4.388,4.388,0,0,0-4.17,0,3.739,3.739,0,0,0-1.461,1.527,5.084,5.084,0,0,0-.537,2.43,5.07,5.07,0,0,0,.537,2.424,3.753,3.753,0,0,0,1.461,1.53,4.138,4.138,0,0,0,2.088.528Zm0-1.633a2.08,2.08,0,0,1-1.168-.328,2.128,2.128,0,0,1-.774-.963,3.929,3.929,0,0,1-.275-1.56,3.935,3.935,0,0,1,.275-1.56,2.114,2.114,0,0,1,.774-.962,2.242,2.242,0,0,1,2.335,0,2.121,2.121,0,0,1,.773.963,3.911,3.911,0,0,1,.275,1.56,3.909,3.909,0,0,1-.275,1.559,2.12,2.12,0,0,1-.773.963,2.075,2.075,0,0,1-1.168.328ZM90.3,23.119a4.152,4.152,0,0,0,1.952-.445,3.292,3.292,0,0,0,1.338-1.27,3.823,3.823,0,0,0,.486-1.975v-1.1H90.426v1.39H92.3l0,.126a1.886,1.886,0,0,1-.157.645l-.073.14a1.591,1.591,0,0,1-.682.633,2.35,2.35,0,0,1-1.071.224,2.127,2.127,0,0,1-1.2-.334,2.151,2.151,0,0,1-.784-.974,3.9,3.9,0,0,1-.277-1.551,3.805,3.805,0,0,1,.281-1.545,2.174,2.174,0,0,1,.787-.965,2.086,2.086,0,0,1,1.174-.332,2.283,2.283,0,0,1,.654.089,1.778,1.778,0,0,1,.528.258,1.6,1.6,0,0,1,.394.409,1.94,1.94,0,0,1,.252.552H94a3.19,3.19,0,0,0-.4-1.187,3.27,3.27,0,0,0-.812-.931,3.741,3.741,0,0,0-1.135-.607,4.3,4.3,0,0,0-1.381-.216,4.21,4.21,0,0,0-1.607.3,3.756,3.756,0,0,0-1.3.882,4.021,4.021,0,0,0-.867,1.413,5.417,5.417,0,0,0-.309,1.894,5.141,5.141,0,0,0,.518,2.384,3.725,3.725,0,0,0,1.447,1.547,4.2,4.2,0,0,0,2.156.543Zm8.958,0a4.137,4.137,0,0,0,2.081-.526,3.747,3.747,0,0,0,1.466-1.528,5.054,5.054,0,0,0,.54-2.429,5.059,5.059,0,0,0-.54-2.429,3.763,3.763,0,0,0-1.466-1.527,4.386,4.386,0,0,0-4.169,0,3.742,3.742,0,0,0-1.462,1.527,5.084,5.084,0,0,0-.537,2.43,5.07,5.07,0,0,0,.537,2.424,3.756,3.756,0,0,0,1.462,1.53A4.133,4.133,0,0,0,99.26,23.119Zm0-1.632a2.081,2.081,0,0,1-1.168-.328,2.127,2.127,0,0,1-.773-.963,3.911,3.911,0,0,1-.275-1.56,3.918,3.918,0,0,1,.275-1.56,2.112,2.112,0,0,1,.773-.962,2.242,2.242,0,0,1,2.335,0,2.123,2.123,0,0,1,.774.963,3.929,3.929,0,0,1,.275,1.56A3.927,3.927,0,0,1,101.2,20.2a2.128,2.128,0,0,1-.774.963A2.075,2.075,0,0,1,99.26,21.487Z" transform="translate(-0.759 1787.847)" fill="#FOOTER_COLOR" opacity="1" class="svgc_text" filter="url(#filter_readability_clean)"/>
            <line x2="560" transform="translate(70.5 1787)" fill="none" stroke="#6c757d" stroke-width="1"/>
            <g transform="translate(0 -19)" opacity="0.4">
                <circle cx="5" cy="5" r="5" transform="translate(583 1781)" fill="#FOOTER_COLOR" class="svgc_text" filter="url(#filter_readability_clean)"/>
                <circle cx="5" cy="5" r="5" transform="translate(602 1781)" fill="#FOOTER_COLOR" class="svgc_text" filter="url(#filter_readability_clean)"/>
                <circle cx="5" cy="5" r="5" transform="translate(620 1781)" fill="#FOOTER_COLOR" class="svgc_text" filter="url(#filter_readability_clean)"/>
            </g>
            <rect width="93" height="7" transform="translate(70 1765)" fill="#FOOTER_COLOR" class="svgc_text" filter="url(#filter_readability_clean)"/>
            <rect width="93" height="7" transform="translate(210 1765)" fill="#FOOTER_COLOR" class="svgc_text" filter="url(#filter_readability_clean)" opacity="0.4"/>
            <rect width="93" height="7" transform="translate(350 1765)" fill="#FOOTER_COLOR" class="svgc_text" filter="url(#filter_readability_clean)" opacity="0.4"/>
            <rect width="46" height="4" transform="translate(210 1752)" fill="#FOOTER_COLOR" class="svgc_text" filter="url(#filter_readability_clean)"/>
            <rect width="47" height="4" transform="translate(350 1752)" fill="#FOOTER_COLOR" class="svgc_text" filter="url(#filter_readability_clean)"/>
            <rect width="47" height="4" transform="translate(583 1752)" fill="#FOOTER_COLOR" class="svgc_text" filter="url(#filter_readability_clean)"/>
            <rect width="47" height="4" transform="translate(70 1752)" fill="#FOOTER_COLOR" class="svgc_text" filter="url(#filter_readability_clean)"/>
        </g>
    </g>
</svg>
