<svg xmlns="http://www.w3.org/2000/svg" width="700" height="1850" viewBox="0 0 700 1850">
    <defs>
        <pattern width="1" height="1" id="theme_artists_s_carousel_default_image_1_id" patternunits="objectBoundingBox">
            <image width="700" height="309" preserveAspectRatio="xMidYMid slice" href="#s_carousel_default_image_1_url"/>
        </pattern>
        <pattern width="1" height="1" id="theme_artists_s_text_image_default_image_id" patternunits="objectBoundingBox">
            <image width="233" height="169" preserveAspectRatio="xMidYMid slice" href="#s_text_image_default_image_url"/>
        </pattern>
        <pattern width="1" height="1" id="theme_artists_s_three_columns_default_image_1_id" patternunits="objectBoundingBox">
            <image width="164" height="205" preserveAspectRatio="xMidYMid slice" href="#s_three_columns_default_image_1_url"/>
        </pattern>
        <pattern width="1" height="1" id="theme_artists_s_three_columns_default_image_2_id" patternunits="objectBoundingBox">
            <image width="164" height="205" preserveAspectRatio="xMidYMid slice" href="#s_three_columns_default_image_2_url"/>
        </pattern>
        <pattern width="1" height="1" id="theme_artists_s_three_columns_default_image_3_id" patternunits="objectBoundingBox">
            <image width="164" height="205" preserveAspectRatio="xMidYMid slice" href="#s_three_columns_default_image_3_url"/>
        </pattern>
        <pattern width="1" height="1" id="theme_artists_s_cover_default_image_id" patternunits="objectBoundingBox">
            <image width="700" height="490" preserveAspectRatio="xMidYMid slice" href="#s_cover_default_image_url"/>
        </pattern>
        <pattern width="1" height="1" id="theme_artists_library_image_02_id" patternunits="objectBoundingBox">
            <image width="180" height="134" preserveAspectRatio="xMidYMid slice" href="#library_image_02_url"/>
        </pattern>
        <pattern width="1" height="1" id="theme_artists_library_image_05_id" patternunits="objectBoundingBox">
            <image width="180" height="134" preserveAspectRatio="xMidYMid slice" href="#library_image_05_url"/>
        </pattern>
        <pattern width="1" height="1" id="theme_artists_library_image_08_id" patternunits="objectBoundingBox">
            <image width="180" height="134" preserveAspectRatio="xMidYMid slice" href="#library_image_08_url"/>
        </pattern>
        <pattern width="1" height="1" id="theme_artists_library_image_10_id" patternunits="objectBoundingBox">
            <image width="180" height="134" preserveAspectRatio="xMidYMid slice" href="#library_image_10_url"/>
        </pattern>
        <pattern width="1" height="1" id="theme_artists_library_image_14_id" patternunits="objectBoundingBox">
            <image width="180" height="134" preserveAspectRatio="xMidYMid slice" href="#library_image_14_url"/>
        </pattern>
        <pattern width="1" height="1" id="theme_artists_library_image_16_id" patternunits="objectBoundingBox">
            <image width="180" height="134" preserveAspectRatio="xMidYMid slice" href="#library_image_16_url"/>
        </pattern>
        <filter id="filter_readability_artists">
            <feColorMatrix in="SourceGraphic" type="saturate" values="0"/>
            <feComponentTransfer>
                <feFuncR type="table" tableValues="1 0"/>
                <feFuncG type="table" tableValues="1 0"/>
                <feFuncB type="table" tableValues="1 0"/>
            </feComponentTransfer>
            <feComponentTransfer>
                <feFuncR type="linear" slope="10000" intercept="-4999.5"/>
                <feFuncG type="linear" slope="10000" intercept="-4999.5"/>
                <feFuncB type="linear" slope="10000" intercept="-4999.5"/>
            </feComponentTransfer>
        </filter>
    </defs>
    <g fill="none" fill-rule="evenodd" class="theme_artists">
        <rect width="700" height="1850" fill="#383E45"/>
        <g class="svgc_menu">
            <rect width="700" height="37" class="svgc_menu_bg" fill="#MENU_COLOR"/>
            <path d="M76.345,23V21.479H72.6V14.273H70.759V23Zm4.68.12a4.131,4.131,0,0,0,2.08-.527,3.749,3.749,0,0,0,1.467-1.528,5.054,5.054,0,0,0,.539-2.429,5.059,5.059,0,0,0-.54-2.429,3.755,3.755,0,0,0-1.465-1.527,4.388,4.388,0,0,0-4.17,0,3.739,3.739,0,0,0-1.461,1.527,5.084,5.084,0,0,0-.537,2.43,5.07,5.07,0,0,0,.537,2.424,3.753,3.753,0,0,0,1.461,1.53,4.138,4.138,0,0,0,2.088.528Zm0-1.633a2.08,2.08,0,0,1-1.168-.328,2.128,2.128,0,0,1-.774-.963,3.929,3.929,0,0,1-.275-1.56,3.935,3.935,0,0,1,.275-1.56,2.114,2.114,0,0,1,.774-.962,2.242,2.242,0,0,1,2.335,0,2.121,2.121,0,0,1,.773.963,3.911,3.911,0,0,1,.275,1.56,3.909,3.909,0,0,1-.275,1.559,2.12,2.12,0,0,1-.773.963,2.075,2.075,0,0,1-1.168.328ZM90.3,23.119a4.152,4.152,0,0,0,1.952-.445,3.292,3.292,0,0,0,1.338-1.27,3.823,3.823,0,0,0,.486-1.975v-1.1H90.426v1.39H92.3l0,.126a1.886,1.886,0,0,1-.157.645l-.073.14a1.591,1.591,0,0,1-.682.633,2.35,2.35,0,0,1-1.071.224,2.127,2.127,0,0,1-1.2-.334,2.151,2.151,0,0,1-.784-.974,3.9,3.9,0,0,1-.277-1.551,3.805,3.805,0,0,1,.281-1.545,2.174,2.174,0,0,1,.787-.965,2.086,2.086,0,0,1,1.174-.332,2.283,2.283,0,0,1,.654.089,1.778,1.778,0,0,1,.528.258,1.6,1.6,0,0,1,.394.409,1.94,1.94,0,0,1,.252.552H94a3.19,3.19,0,0,0-.4-1.187,3.27,3.27,0,0,0-.812-.931,3.741,3.741,0,0,0-1.135-.607,4.3,4.3,0,0,0-1.381-.216,4.21,4.21,0,0,0-1.607.3,3.756,3.756,0,0,0-1.3.882,4.021,4.021,0,0,0-.867,1.413,5.417,5.417,0,0,0-.309,1.894,5.141,5.141,0,0,0,.518,2.384,3.725,3.725,0,0,0,1.447,1.547,4.2,4.2,0,0,0,2.156.543Zm8.958,0a4.137,4.137,0,0,0,2.081-.526,3.747,3.747,0,0,0,1.466-1.528,5.054,5.054,0,0,0,.54-2.429,5.059,5.059,0,0,0-.54-2.429,3.763,3.763,0,0,0-1.466-1.527,4.386,4.386,0,0,0-4.169,0,3.742,3.742,0,0,0-1.462,1.527,5.084,5.084,0,0,0-.537,2.43,5.07,5.07,0,0,0,.537,2.424,3.756,3.756,0,0,0,1.462,1.53A4.133,4.133,0,0,0,99.26,23.119Zm0-1.632a2.081,2.081,0,0,1-1.168-.328,2.127,2.127,0,0,1-.773-.963,3.911,3.911,0,0,1-.275-1.56,3.918,3.918,0,0,1,.275-1.56,2.112,2.112,0,0,1,.773-.962,2.242,2.242,0,0,1,2.335,0,2.123,2.123,0,0,1,.774.963,3.929,3.929,0,0,1,.275,1.56A3.927,3.927,0,0,1,101.2,20.2a2.128,2.128,0,0,1-.774.963A2.075,2.075,0,0,1,99.26,21.487Z" transform="translate(263.24)" class="svgc_text" opacity="1" fill="#MENU_COLOR" filter="url(#filter_readability_artists)"/>
            <rect width="37" height="7" transform="translate(593 15)" class="svgc_text" opacity="1" fill="#MENU_COLOR" filter="url(#filter_readability_artists)"/>
            <g transform="translate(68.424 -19.525)" opacity="0.4">
                <rect width="12" height="2" transform="translate(1.575 32.025)" class="svgc_text" fill="#MENU_COLOR" filter="url(#filter_readability_artists)"/>
                <rect width="12" height="2" transform="translate(1.575 37.025)" class="svgc_text" fill="#MENU_COLOR" filter="url(#filter_readability_artists)"/>
                <rect width="12" height="2" transform="translate(1.575 42.025)" class="svgc_text" fill="#MENU_COLOR" filter="url(#filter_readability_artists)"/>
            </g>
        </g>
        <g class="s_carousel" transform="translate(0 8)">
            <rect fill="url(#theme_artists_s_carousel_default_image_1_id)" class="img_reference_s_carousel_default_image_1" width="700" height="309" transform="translate(0 29)"/>
            <rect fill="#000000" opacity="0.25" width="700" height="309" transform="translate(0 29)"/>
            <path d="M0,0V310H700V0ZM627.506,234.222,57.1,282.348,35.379,48.016,662.273,27.852Z" transform="translate(0 29)" fill="#383E45"/>
            <g transform="translate(1.914 -294)">
                <g transform="translate(0 -29.377)">
                    <rect x="302" y="529.225" width="94" height="28" rx="2" fill="#3AADAA"/>
                    <text x="349" y="548.225" text-anchor="middle" font-size="12" font-family="Nunito, sans-serif" font-weight="bold" fill="#FFFFFF">Discover</text>
                </g>
                <g transform="translate(281.63 435.823)" opacity="0.4">
                    <rect width="131" height="2" transform="translate(1.37 32.025)" fill="#FFFFFF"/>
                    <rect width="116" height="2" transform="translate(9.37 37.025)" fill="#FFFFFF"/>
                    <rect width="79" height="2" transform="translate(27.37 42.025)" fill="#FFFFFF"/>
                    <rect width="91" height="2" transform="translate(21.37 47.025)" fill="#FFFFFF"/>
                </g>
                <text x="349" y="446.5" text-anchor="middle" font-size="24" font-family="Nunito, sans-serif" fill="#FFFFFF">Welcome Message</text>
            </g>
            <path d="M3.874,16.465H0V0H16.465V3.874H3.874v12.59Z" transform="translate(56.615 176.643) rotate(-45)" fill="#fbfbfb"/>
            <path d="M3.874,16.465H0V0H16.465V3.874H3.874v12.59Z" transform="translate(644.285 176.643) rotate(135)" fill="#fbfbfb"/>
            <g transform="translate(10 -7)">
                <rect width="20" height="6" rx="2" transform="translate(303 297)" fill="#fbfbfb" opacity="0.5"/>
                <rect width="20" height="6" rx="2" transform="translate(330 297)" fill="#fbfbfb"/>
                <rect width="20" height="6" rx="2" transform="translate(357 297)" fill="#fbfbfb" opacity="0.5"/>
            </g>
        </g>
        <g class="s_text_image" transform="translate(70 372)">
            <g transform="translate(-70 56)">
                <path d="M700,58.621c-144.5-61.162-177.3-53.31-370.95,0C153.25,107.011,69.6,90.975,0,58.621V159.705l700,.047Z" transform="translate(0 0.049)" fill="#3AADAA" opacity="0.2"/>
                <path d="M700,33.547C579.5-35.841,454.15,17.435,363.65,57.691,238.15,113.511,98.05,119.1,0,53.1V159.753H700Z" transform="translate(0 0.049)" fill="#3AADAA" opacity="0.5"/>
                <path d="M700,63.958c-75.65-43.417-161.1-51.885-326.05,9.633C270.35,112.214,60.75,109.077,0,63.958v95.75H0l700,.045Z" transform="translate(0 0.049)" fill="#3AADAA" opacity="0.5"/>
                <path d="M700,74.681C503.85,9.659,437.3,114.926,182.25,116.724,52.95,117.643.4,74.761,0,74.681v85.4l700,.04Z" transform="translate(0 -0.324)" fill="#3AADAA"/>
            </g>
            <g transform="translate(21 48.927)">
                <g transform="translate(0.205 34.025)" opacity="0.4">
                    <rect width="131" height="2" fill="#FFFFFF"/>
                    <rect width="116" height="2" transform="translate(0 5)" fill="#FFFFFF"/>
                    <rect width="79" height="2" transform="translate(0 10)" fill="#FFFFFF"/>
                    <rect width="91" height="2" transform="translate(0 15)" fill="#FFFFFF"/>
                </g>
                <rect x="0.355" y="73.225" width="94" height="28" rx="2" fill="#3AADAA"/>
                <text x="47.355" y="92.225" text-anchor="middle" font-size="12" font-family="Nunito, sans-serif" font-weight="bold" fill="#FFFFFF">Discover</text>
                <text x="0" y="16" font-size="22" font-family="Nunito, sans-serif" fill="#FFFFFF">Section Title</text>
            </g>
            <path fill="url(#theme_artists_s_text_image_default_image_id)" class="img_reference_s_text_image_default_image_1" d="M233,166.826,0,168.7,53.52,0,210.772,29.995Z" transform="translate(327 10.802)"/>
        </g>
        <g class="s_three_columns" transform="translate(0 -379)">
            <rect width="700" height="365" transform="translate(0 966)" fill="#3AADAA"/>
            <g transform="translate(70 984)">
                <rect width="164" height="323" rx="3" fill="#FFFFFF"/>
                <g transform="translate(14 232)">
                    <g transform="translate(0 28)" opacity="0.394">
                        <rect width="84" height="2" transform="translate(0 0)" fill="#22263c"/>
                        <rect width="74.382" height="2" transform="translate(0 5)" fill="#22263c"/>
                    </g>
                    <rect x="0" y="45" width="71.25" height="21.25" rx="1" fill="#383E45"/>
                    <text x="35" y="59.5" text-anchor="middle" font-size="11.2" font-family="Nunito, sans-serif" font-weight="bold" fill="#FFFFFF">Discover</text>
                    <text x="0" y="14" font-size="18.2" font-family="Nunito, sans-serif" fill="#212529">Section Title</text>
                </g>
                <path fill="url(#theme_artists_s_three_columns_default_image_1_id)" class="img_reference_s_three_columns_default_image_1" d="M3,0H161a3,3,0,0,1,3,3V205a0,0,0,0,1,0,0H0a0,0,0,0,1,0,0V3A3,3,0,0,1,3,0Z"/>
            </g>
            <g transform="translate(268 984)">
                <rect width="164" height="323" rx="3" fill="#FFFFFF"/>
                <g transform="translate(14 232)">
                    <g transform="translate(0 28)" opacity="0.394">
                        <rect width="84" height="2" transform="translate(0 0)" fill="#22263c"/>
                        <rect width="74.382" height="2" transform="translate(0 5)" fill="#22263c"/>
                    </g>
                    <rect x="0" y="45" width="71.25" height="21.25" rx="1" fill="#383E45"/>
                    <text x="35" y="59.5" text-anchor="middle" font-size="11.2" font-family="Nunito, sans-serif" font-weight="bold" fill="#FFFFFF">Discover</text>
                    <text x="0" y="14" font-size="18.2" font-family="Nunito, sans-serif" fill="#212529">Section Title</text>
                </g>
                <path fill="url(#theme_artists_s_three_columns_default_image_2_id)" class="img_reference_s_three_columns_default_image_2" d="M3,0H161a3,3,0,0,1,3,3V205a0,0,0,0,1,0,0H0a0,0,0,0,1,0,0V3A3,3,0,0,1,3,0Z"/>
            </g>
            <g transform="translate(466 984)">
                <rect width="164" height="323" rx="3" fill="#FFFFFF"/>
                <g transform="translate(14 232)">
                    <g transform="translate(0 28)" opacity="0.394">
                        <rect width="84" height="2" transform="translate(0 0)" fill="#22263c"/>
                        <rect width="74.382" height="2" transform="translate(0 5)" fill="#22263c"/>
                    </g>
                    <rect x="0" y="45" width="71.25" height="21.25" rx="1" fill="#383E45"/>
                    <text x="35" y="59.5" text-anchor="middle" font-size="11.2" font-family="Nunito, sans-serif" font-weight="bold" fill="#FFFFFF">Discover</text>
                    <text x="0" y="14" font-size="18.2" font-family="Nunito, sans-serif" fill="#212529">Section Title</text>
                </g>
                <path fill="url(#theme_artists_s_three_columns_default_image_3_id)" class="img_reference_s_three_columns_default_image_3" d="M3,0H161a3,3,0,0,1,3,3V205a0,0,0,0,1,0,0H0a0,0,0,0,1,0,0V3A3,3,0,0,1,3,0Z"/>
            </g>
        </g>
        <g class="s_image_gallery" transform="translate(0 64.683)">
            <rect fill="url(#theme_artists_s_cover_default_image_id)" class="img_reference_s_cover_default_image" width="700" height="490" transform="translate(0 885.065)"/>
            <rect width="700" height="490" transform="translate(0 885.065)" fill="#000000" opacity="0.5"/>
            <g transform="translate(0 1222.273)">
                <path d="M700,61.072c-144.5-64.65-177.3-56.35-370.95,0-175.8,51.15-259.45,34.2-329.05,0v106.85l700,.05Z" transform="translate(0 -7.797)" fill="#3AADAA" opacity="0.2"/>
                <path d="M700,33.625c-120.5-69.55-245.85-16.15-336.35,24.2-125.5,55.95-265.6,61.55-363.65-4.6v106.9H700Z" transform="translate(0 0.049)" fill="#3AADAA" opacity="0.5"/>
                <path d="M700,67.961c-75.65-48.45-161.1-57.9-326.05,10.75-103.6,43.1-313.2,39.6-373.95-10.75v106.85H0l700,.05Z" transform="translate(0 -14.687)" fill="#3AADAA" opacity="0.5"/>
                <path d="M700,80C503.85-1.35,437.3,130.35,182.25,132.6,52.95,133.75.4,80.1,0,80V186.85l700,.05Z" transform="translate(0 -26.726)" fill="#3AADAA"/>
            </g>
            <g transform="translate(70 1067.317)">
                <rect fill="url(#theme_artists_library_image_02_id)" class="img_reference_library_image_02" width="180" height="134" rx="5"/>
                <rect fill="url(#theme_artists_library_image_05_id)" class="img_reference_library_image_05" width="180" height="134" rx="5" transform="translate(190)"/>
                <rect fill="url(#theme_artists_library_image_08_id)" class="img_reference_library_image_08" width="180" height="134" rx="5" transform="translate(380)"/>
                <rect fill="url(#theme_artists_library_image_10_id)" class="img_reference_library_image_10" width="180" height="134.516" rx="5" transform="translate(0 144)"/>
                <rect fill="url(#theme_artists_library_image_14_id)" class="img_reference_library_image_14" width="180" height="134.516" rx="5" transform="translate(190 144)"/>
                <rect fill="url(#theme_artists_library_image_16_id)" class="img_reference_library_image_16" width="180" height="134.516" rx="5" transform="translate(380 144)"/>
            </g>
        </g>
        <g class="s_title" transform="translate(0 32.065)">
            <g transform="translate(0 914)">
                <path d="M175.2,25.7c76.4,0,175,22.15,175,22.15S448.8,70,525.2,70c74.45,0,170.385-21.018,175.284-22.118V-.064L-.375,0V47.989C4.525,46.889,100.75,25.7,175.2,25.7Z" transform="translate(-0.2)" fill="#3AADAA"/>
                <path d="M0,72.95S98.6,50.7,175,50.7,350,72.95,350,72.95,448.6,95.2,525,95.2,700,72.95,700,72.95" transform="translate(0 -25.35)" fill="none" stroke="#3AADAA" stroke-width="2" opacity="0.24"/>
                <path d="M0,84.05S98.6,72.9,175,72.9,350,84.05,350,84.05,448.6,95.2,525,95.2,700,84.05,700,84.05" transform="translate(0 -36.45)" fill="none" stroke="#3AADAA" stroke-width="2" opacity="0.24"/>
                <path d="M0,50.65S98.6,6.1,175,6.1,350,50.65,350,50.65,448.6,95.2,525,95.2,700,50.65,700,50.65" transform="translate(0 -3.05)" fill="none" stroke="#3AADAA" stroke-width="2" opacity="0.24"/>
                <path d="M-1.819,61.845S98.34,28.4,174.542,28.4,349.088,61.8,349.088,61.8s98.345,33.4,174.547,33.4S698.181,61.8,698.181,61.8" transform="translate(1.819 -14.2)" fill="none" stroke="#3AADAA" stroke-width="2"/>
            </g>
            <text x="349" y="1040" text-anchor="middle" font-size="29" font-family="Nunito, sans-serif" fill="#FFFFFF">Section Title</text>
        </g>
        <g class="svgc_footer" transform="translate(0 1663)">
            <rect width="700" height="287" transform="translate(0 -100)" fill="#FOOTER_COLOR" class="svgc_footer_bg"/>
            <g transform="translate(284 81)" opacity="0.4">
                <circle cx="38.5" cy="7.5" r="7.5" fill="#FOOTER_COLOR" class="svgc_text" filter="url(#filter_readability_artists)"/>
                <circle cx="66.5" cy="7.5" r="7.5" fill="#FOOTER_COLOR" class="svgc_text" filter="url(#filter_readability_artists)"/>
                <circle cx="94.5" cy="7.5" r="7.5" fill="#FOOTER_COLOR" class="svgc_text" filter="url(#filter_readability_artists)"/>
                <g opacity="0.4" transform="translate(0 30)">
                    <rect width="131" height="2" fill="#FOOTER_COLOR" class="svgc_text" filter="url(#filter_readability_artists)"/>
                    <rect width="116" height="2" x="8" y="5" fill="#FOOTER_COLOR" class="svgc_text" filter="url(#filter_readability_artists)"/>
                    <rect width="79" height="2" x="26" y="10" fill="#FOOTER_COLOR" class="svgc_text" filter="url(#filter_readability_artists)"/>
                    <rect width="91" height="2" x="20" y="15" fill="#FOOTER_COLOR" class="svgc_text" filter="url(#filter_readability_artists)"/>
                </g>
            </g>
        </g>
        <g class="s_call_to_action">
            <rect width="700" height="134" transform="translate(0 1421)" fill="#3AADAA"/>
            <path d="M-121.075-2.621A11.854,11.854,0,0,0-115.758-1.4q3.491,0,3.491-3.18a2.462,2.462,0,0,0-.553-1.67,3.889,3.889,0,0,0-2.014-1l-3.158-.795q-3.62-.913-3.62-3.867a3.846,3.846,0,0,1,1.558-3.368,7.359,7.359,0,0,1,4.308-1.1,11.181,11.181,0,0,1,2.7.312,7.336,7.336,0,0,1,2.105.838l-.537,1.515a8.446,8.446,0,0,0-1.907-.709,9.42,9.42,0,0,0-2.4-.312q-3.889,0-3.889,2.7a1.905,1.905,0,0,0,.6,1.466,3.988,3.988,0,0,0,1.789.843l3.019.73a5.964,5.964,0,0,1,2.933,1.477,3.939,3.939,0,0,1,1,2.884,4.472,4.472,0,0,1-1.488,3.658,6.157,6.157,0,0,1-4.044,1.23,13.382,13.382,0,0,1-3.4-.392,8.839,8.839,0,0,1-2.358-.929ZM-101.138-9.6a2.654,2.654,0,0,0-2.159-.945,2.875,2.875,0,0,0-2.245.972,4.465,4.465,0,0,0-1.021,2.659h6.22A4.034,4.034,0,0,0-101.138-9.6Zm-1.8,9.851a5.179,5.179,0,0,1-4.044-1.633,6.415,6.415,0,0,1-1.477-4.469,6.678,6.678,0,0,1,1.429-4.442,4.76,4.76,0,0,1,3.76-1.735,4.339,4.339,0,0,1,3.475,1.5,5.941,5.941,0,0,1,1.284,4q0,.129-.005.473t-.005.494h-8.089a4.65,4.65,0,0,0,1.037,3.131,3.445,3.445,0,0,0,2.7,1.123A8,8,0,0,0-99.129-2.3l.279,1.45A7.693,7.693,0,0,1-102.942.247Zm11.9,0a5.1,5.1,0,0,1-4.066-1.687,6.488,6.488,0,0,1-1.466-4.415,6.6,6.6,0,0,1,1.5-4.463A5.118,5.118,0,0,1-91-12.031a6.89,6.89,0,0,1,1.767.226,3.978,3.978,0,0,1,1.348.591l-.494,1.4a5.517,5.517,0,0,0-2.653-.677,3.271,3.271,0,0,0-2.7,1.246,5.318,5.318,0,0,0-.994,3.405,5.2,5.2,0,0,0,.983,3.335,3.292,3.292,0,0,0,2.723,1.23,6.137,6.137,0,0,0,2.836-.752L-87.957-.6A5.136,5.136,0,0,1-91.04.247Zm9.174-.032a3.113,3.113,0,0,1-2.471-.849,4.323,4.323,0,0,1-.773-2.739v-7.079h-1.751l.075-1.182,1.665-.15.612-2.7,1.182-.043v2.739h3.276v1.332h-3.276V-3.7A3.271,3.271,0,0,0-82.919-1.8a1.631,1.631,0,0,0,1.4.548,14.043,14.043,0,0,0,1.536-.172l.075,1.418A12.19,12.19,0,0,1-81.866.215Zm5.983-12V0h-1.8V-11.784Zm0-4.286v2.127h-1.8V-16.07ZM-71.2-5.865a5.535,5.535,0,0,0,.929,3.357,3.158,3.158,0,0,0,2.712,1.262A3.055,3.055,0,0,0-64.9-2.5,5.717,5.717,0,0,0-64-5.887a5.754,5.754,0,0,0-.886-3.4,3.1,3.1,0,0,0-2.7-1.241A3.116,3.116,0,0,0-70.275-9.26,5.643,5.643,0,0,0-71.2-5.865Zm9.056-.032A6.582,6.582,0,0,1-63.6-1.456a5.039,5.039,0,0,1-4.039,1.7,4.923,4.923,0,0,1-3.948-1.719,6.564,6.564,0,0,1-1.466-4.415,6.546,6.546,0,0,1,1.472-4.447,5.066,5.066,0,0,1,4.039-1.7,4.913,4.913,0,0,1,3.964,1.7A6.629,6.629,0,0,1-62.144-5.9ZM-59.608,0V-11.784h1.5l.226,1.687a5.254,5.254,0,0,1,1.746-1.4,4.924,4.924,0,0,1,2.261-.532,3.755,3.755,0,0,1,3.019,1.144,5.324,5.324,0,0,1,.978,3.518V0H-51.67q0-7.09-.011-7.595a3.664,3.664,0,0,0-.607-2.2,2.29,2.29,0,0,0-1.885-.7,3.847,3.847,0,0,0-2.31.666,3.03,3.03,0,0,0-1.2,1.729,11.316,11.316,0,0,0-.107,1.654V0Zm23.5,0h-1.869V-14.244h-4.888v-1.644h11.645v1.644H-36.1Zm8.626-11.784V0h-1.8V-11.784Zm0-4.286v2.127h-1.8V-16.07ZM-20.346.215a3.113,3.113,0,0,1-2.471-.849,4.322,4.322,0,0,1-.773-2.739v-7.079h-1.751l.075-1.182,1.665-.15.612-2.7,1.182-.043v2.739h3.276v1.332h-3.276V-3.7A3.27,3.27,0,0,0-21.4-1.8a1.631,1.631,0,0,0,1.4.548,14.043,14.043,0,0,0,1.536-.172l.075,1.418A12.19,12.19,0,0,1-20.346.215Zm7.036,0a2.894,2.894,0,0,1-2.433-.924,5.407,5.407,0,0,1-.714-3.212V-16.36l1.783-.107V-4.63q0,.73.016,1.171a7.605,7.605,0,0,0,.081.865,2.249,2.249,0,0,0,.172.639,1.277,1.277,0,0,0,.312.392,1.059,1.059,0,0,0,.489.236,3.535,3.535,0,0,0,.7.059A13.315,13.315,0,0,0-11.548-1.4l.1,1.429A11.757,11.757,0,0,1-13.31.215ZM-3.577-9.6a2.654,2.654,0,0,0-2.159-.945,2.875,2.875,0,0,0-2.245.972A4.465,4.465,0,0,0-9-6.918h6.22A4.034,4.034,0,0,0-3.577-9.6ZM-5.382.247A5.179,5.179,0,0,1-9.426-1.386,6.415,6.415,0,0,1-10.9-5.854,6.678,6.678,0,0,1-9.475-10.3a4.76,4.76,0,0,1,3.76-1.735,4.339,4.339,0,0,1,3.475,1.5,5.941,5.941,0,0,1,1.284,4q0,.129-.005.473t-.005.494H-9.056A4.65,4.65,0,0,0-8.019-2.433a3.445,3.445,0,0,0,2.7,1.123A8,8,0,0,0-1.568-2.3l.279,1.45A7.693,7.693,0,0,1-5.382.247Z" transform="translate(191.634 1522.468)" class="svgc_text" fill="#3AADAA"/>
            <rect x="536" y="1501" width="94" height="28" rx="1" fill="#383E45"/>
            <text x="582.5" y="1520" text-anchor="middle" font-size="11.2" font-family="Nunito, sans-serif" font-weight="bold" fill="#FFFFFF">Discover</text>
            <g transform="translate(0 1554)">
                <path d="M525.2,25.7c-76.4,0-175,22.15-175,22.15S251.6,70,175.2,70C100.75,70,5.3,49,.4,47.9V0H700V47.8C695.1,46.7,599.65,25.7,525.2,25.7Z" transform="translate(-0.2)" fill="#3AADAA"/>
                <path d="M700,72.95S601.4,50.7,525,50.7,350,72.95,350,72.95,251.4,95.2,175,95.2,0,72.95,0,72.95" transform="translate(0 -25.43)" fill="none" stroke="#3AADAA" stroke-width="2" opacity="0.24"/>
                <path d="M700,84.05S601.4,72.9,525,72.9,350,84.05,350,84.05,251.4,95.2,175,95.2,0,84.05,0,84.05" transform="translate(0 -36.528)" fill="none" stroke="#3AADAA" stroke-width="2" opacity="0.24"/>
                <path d="M700,50.575S601.4,6.1,525,6.1,350,50.575,350,50.575,251.4,95.05,175,95.05,0,50.575,0,50.575" transform="translate(0 -3.05)" fill="none" stroke="#3AADAA" stroke-width="2" opacity="0.24"/>
                <path d="M700,61.8S601.4,28.4,525,28.4,350,61.8,350,61.8,251.4,95.2,175,95.2,0,61.8,0,61.8" transform="translate(0 -14.35)" fill="none" stroke="#3AADAA" stroke-width="2"/>
            </g>
        </g>
    </g>
</svg>
