<svg width="700" height="1948" viewBox="0 0 700 1948" fill="none" xmlns="http://www.w3.org/2000/svg" data-vsvg="002" class="theme_artists_svg_preview">
    <defs>
        <pattern id="theme_artists_library_image_05_id" width="1" height="1" patternunits="objectBoundingBox">
            <image width="390" height="75" preserveAspectRatio="xMidYMid slice" href="#library_image_05_url"></image>
        </pattern>
        <pattern id="theme_artists_library_image_13_id" width="1" height="1" patternunits="objectBoundingBox">
            <image width="125" height="178" preserveAspectRatio="xMidYMid slice" href="#library_image_13_url"></image>
        </pattern>
        <pattern id="theme_artists_library_image_10_id" width="1" height="1" patternunits="objectBoundingBox">
            <image width="170" height="178" preserveAspectRatio="xMidYMid slice" href="#library_image_10_url"></image>
        </pattern>
        <pattern id="theme_artists_library_image_03_id" width="1" height="1" patternunits="objectBoundingBox">
            <image width="170" height="75" preserveAspectRatio="xMidYMid slice" href="#library_image_03_url"></image>
        </pattern>
        <pattern id="theme_artists_library_image_02_id" width="1" height="1" patternunits="objectBoundingBox">
            <image width="174" height="172" preserveAspectRatio="xMidYMid slice" href="#library_image_02_url"></image>
        </pattern>
        <pattern id="theme_artists_s_carousel_default_image_2_id" width="1" height="1" patternunits="objectBoundingBox">
            <image width="568" height="222" preserveAspectRatio="xMidYMid slice" href="#s_carousel_default_image_2_url"></image>
        </pattern>
        <pattern id="theme_artists_library_image_16_id" width="1" height="1" patternunits="objectBoundingBox">
            <image width="185" height="270" preserveAspectRatio="xMidYMid slice" href="#library_image_16_url"></image>
        </pattern>
        <pattern id="theme_artists_library_image_14_id" width="1" height="1" patternunits="objectBoundingBox">
            <image width="185" height="120" preserveAspectRatio="xMidYMid slice" href="#library_image_14_url"></image>
        </pattern>
        <pattern id="theme_artists_library_image_05_2_id" width="1" height="1" patternunits="objectBoundingBox">
            <image width="186" height="120" preserveAspectRatio="xMidYMid slice" href="#library_image_05_url"></image>
        </pattern>
        <pattern id="theme_artists_library_image_13_2_id" width="1" height="1" patternunits="objectBoundingBox">
            <image width="186" height="270" preserveAspectRatio="xMidYMid slice" href="#library_image_13_url"></image>
        </pattern>
        <pattern id="theme_artists_library_image_10_2_id" width="1" height="1" patternunits="objectBoundingBox">
            <image width="185" height="270" preserveAspectRatio="xMidYMid slice" href="#library_image_10_url"></image>
        </pattern>
        <pattern id="theme_artists_library_image_03_2_id" width="1" height="1" patternunits="objectBoundingBox">
            <image width="185" height="120" preserveAspectRatio="xMidYMid slice" href="#library_image_03_url"></image>
        </pattern>
        <pattern id="theme_artists_s_image_text_default_image_id" width="1" height="1" patternunits="objectBoundingBox">
            <image width="164" height="188" preserveAspectRatio="xMidYMid slice" href="#s_image_text_default_image_url"></image>
        </pattern>
        <filter id="filter_readability_theme_artists">
            <feColorMatrix in="SourceGraphic" type="saturate" values="0"></feColorMatrix>
            <feComponentTransfer>
                <feFuncR type="table" tableValues="1 0"></feFuncR>
                <feFuncG type="table" tableValues="1 0"></feFuncG>
                <feFuncB type="table" tableValues="1 0"></feFuncB>
            </feComponentTransfer>
            <feComponentTransfer>
                <feFuncR type="linear" slope="10000" intercept="-4999.5"></feFuncR>
                <feFuncG type="linear" slope="10000" intercept="-4999.5"></feFuncG>
                <feFuncB type="linear" slope="10000" intercept="-4999.5"></feFuncB>
            </feComponentTransfer>
        </filter>
        <style type="text/css">
            @import url('https://fonts.googleapis.com/css?family=Bebas+Neue');
        </style>
    </defs>
    <g clip-path="url(#clip0_433_146)" class="theme_artists">
        <rect width="700" height="1948" fill="#FFFFFF"></rect>
        <rect width="700" height="1948" fill="#383E45"></rect>
        <g class="svgc_menu">
            <path d="M700 0H0V65H700V0Z" fill="#MENU_COLOR" class="svgc_menu_bg"></path>
            <path d="M634 12H588V27H634V12Z" fill="#3AADAA"></path>
            <path d="M583 12H537V27H583V12Z" fill="#MENU_COLOR" fill-opacity="0.1" class="svgc_invert" filter="url(#filter_readability_theme_artists)"></path>
            <path d="M112 12H66V27H112V12Z" fill="#MENU_COLOR" fill-opacity="0.1" class="svgc_invert" filter="url(#filter_readability_theme_artists)"></path>
            <path d="M456 41H419V48H456V41Z" fill="#MENU_COLOR" fill-opacity="0.3" class="svgc_invert" filter="url(#filter_readability_theme_artists)"></path>
            <path d="M398 41H361V48H398V41Z" fill="#MENU_COLOR" fill-opacity="0.3" class="svgc_invert" filter="url(#filter_readability_theme_artists)"></path>
            <path d="M340 41H303V48H340V41Z" fill="#MENU_COLOR" fill-opacity="0.3" class="svgc_invert" filter="url(#filter_readability_theme_artists)"></path>
            <path d="M282 41H245V48H282V41Z" fill="#MENU_COLOR" class="svgc_invert" filter="url(#filter_readability_theme_artists)"></path>
            <path d="M339.586 24.8472V23.3262H335.845V16.1202H334V24.8472H339.586ZM344.266 24.9672C345.036 24.9672 345.729 24.7912 346.346 24.4402C346.965 24.0902 347.453 23.5802 347.813 22.9122C348.173 22.2452 348.352 21.4352 348.352 20.4832C348.352 19.5322 348.172 18.7222 347.812 18.0542C347.453 17.3872 346.965 16.8782 346.347 16.5272C345.729 16.1762 345.035 16.0002 344.265 16.0002C343.49 16.0002 342.794 16.1762 342.177 16.5272C341.561 16.8772 341.073 17.3872 340.716 18.0542C340.358 18.7222 340.179 19.5322 340.179 20.4842C340.179 21.4322 340.358 22.2402 340.716 22.9082C341.046 23.5477 341.553 24.0788 342.177 24.4382C342.794 24.7902 343.49 24.9662 344.265 24.9662L344.266 24.9672ZM344.266 23.3342C343.853 23.3433 343.446 23.2291 343.098 23.0062C342.765 22.7872 342.508 22.4662 342.324 22.0432C342.141 21.6202 342.049 21.1002 342.049 20.4832C342.049 19.8672 342.141 19.3472 342.324 18.9232C342.507 18.5002 342.765 18.1792 343.098 17.9612C343.446 17.7381 343.852 17.6239 344.265 17.6332C344.711 17.6332 345.1 17.7422 345.433 17.9612C345.765 18.1792 346.023 18.5012 346.206 18.9242C346.39 19.3472 346.481 19.8672 346.481 20.4842C346.481 21.1002 346.39 21.6202 346.206 22.0432C346.023 22.4662 345.766 22.7872 345.433 23.0062C345.085 23.2294 344.679 23.3436 344.266 23.3342ZM353.543 24.9662C354.276 24.9662 354.927 24.8182 355.495 24.5212C356.053 24.234 356.517 23.7934 356.833 23.2512C357.157 22.7012 357.319 22.0432 357.319 21.2762V20.1762H353.667V21.5662H355.539L355.535 21.6922C355.518 21.9292 355.465 22.1442 355.378 22.3372L355.305 22.4772C355.146 22.7514 354.908 22.9719 354.623 23.1102C354.327 23.2602 353.969 23.3342 353.552 23.3342C353.092 23.3342 352.692 23.2232 352.354 23.0002C352.016 22.7772 351.754 22.4522 351.57 22.0262C351.386 21.6002 351.293 21.0832 351.293 20.4752C351.293 19.8672 351.387 19.3522 351.574 18.9302C351.762 18.5082 352.024 18.1862 352.361 17.9652C352.711 17.74 353.119 17.6244 353.535 17.6332C353.773 17.6332 353.991 17.6632 354.189 17.7222C354.386 17.7822 354.562 17.8682 354.717 17.9802C354.872 18.0922 355.003 18.2282 355.111 18.3892C355.219 18.5492 355.303 18.7332 355.363 18.9412H357.238C357.183 18.5226 357.045 18.1191 356.833 17.7542C356.624 17.3951 356.348 17.0791 356.021 16.8232C355.681 16.5568 355.297 16.3514 354.886 16.2162C354.441 16.0693 353.974 15.9964 353.505 16.0002C352.955 15.9952 352.409 16.0981 351.898 16.3032C351.407 16.5023 350.964 16.8028 350.598 17.1852C350.214 17.5908 349.919 18.0721 349.731 18.5982C349.525 19.1532 349.422 19.7842 349.422 20.4922C349.422 21.4122 349.595 22.2072 349.94 22.8762C350.262 23.521 350.765 24.0584 351.387 24.4232C352.007 24.7852 352.725 24.9662 353.543 24.9662ZM362.501 24.9662C363.271 24.9662 363.964 24.7912 364.582 24.4402C365.2 24.0902 365.689 23.5802 366.048 22.9122C366.408 22.2452 366.588 21.4352 366.588 20.4832C366.588 19.5322 366.408 18.7222 366.048 18.0542C365.688 17.3872 365.2 16.8782 364.582 16.5272C363.964 16.1762 363.271 16.0002 362.501 16.0002C361.725 16.0002 361.029 16.1762 360.413 16.5272C359.796 16.8772 359.309 17.3872 358.951 18.0542C358.593 18.7222 358.414 19.5322 358.414 20.4842C358.414 21.4322 358.593 22.2402 358.951 22.9082C359.309 23.5762 359.796 24.0862 360.413 24.4382C361.029 24.7902 361.725 24.9662 362.501 24.9662ZM362.501 23.3342C362.055 23.3342 361.665 23.2242 361.333 23.0062C361.001 22.7872 360.743 22.4662 360.56 22.0432C360.376 21.6202 360.285 21.1002 360.285 20.4832C360.285 19.8672 360.376 19.3472 360.56 18.9232C360.743 18.5002 361 18.1792 361.333 17.9612C361.681 17.7379 362.088 17.6237 362.501 17.6332C362.947 17.6332 363.336 17.7422 363.668 17.9612C364.001 18.1792 364.258 18.5012 364.442 18.9242C364.625 19.3472 364.717 19.8672 364.717 20.4842C364.717 21.1002 364.625 21.6202 364.442 22.0432C364.258 22.4662 364.001 22.7872 363.668 23.0062C363.32 23.2292 362.914 23.3434 362.501 23.3342Z" fill="#MENU_COLOR" class="svgc_invert" filter="url(#filter_readability_theme_artists)"></path>
        </g>
        <g class="s_sidegrid">
            <rect y="65" width="700" height="325" fill="#383E45"></rect>
            <path d="M568 219.208H428V221.208H568V219.208Z" fill="#383E45" fill-opacity="0.4" class="svgc_invert" filter="url(#filter_readability_theme_artists)"></path>
            <path d="M558.987 224.208H428V226.208H558.987V224.208Z" fill="#383E45" fill-opacity="0.4" class="svgc_invert" filter="url(#filter_readability_theme_artists)"></path>
            <text transform="translate(430 160)" text-anchor="start" fill="#FFFFFF" class="svgc_text" filter="url(#filter_readability_anelusia)" font-size="34" font-family="Bebas Neue" font-weight="700">
                <tspan x="0" y="0">Welcome</tspan>
                <tspan x="0" y="37">Message</tspan>
            </text> 
            <rect x="244" y="283" width="390" height="75" fill="url(#theme_artists_library_image_05_id)" class="img_reference_library_image_05"></rect>
            <rect x="244" y="97" width="125" height="178" fill="url(#theme_artists_library_image_13_id)" class="img_reference_library_image_13"></rect>
            <rect x="66" y="180" width="170" height="178" fill="url(#theme_artists_library_image_10_id)" class="img_reference_library_image_10"></rect>
            <rect x="66" y="97" width="170" height="75" fill="url(#theme_artists_library_image_03_id)" class="img_reference_library_image_03"></rect>
        </g>
        <g class="s_product_catalog">
            <rect y="390" width="700" height="221" fill="#383E45"></rect>
            <g>
                <path d="M619.495 475H385V477H619.495V475Z" fill="#383E45" fill-opacity="0.4" class="svgc_invert" filter="url(#filter_readability_theme_artists)"></path>
                <path d="M600.155 462H493.786V463H600.155V462Z" fill="#383E45" fill-opacity="0.4" class="svgc_invert" filter="url(#filter_readability_theme_artists)"></path>
                <path d="M484.117 460H385V465H484.117V460Z" fill="#383E45" class="svgc_invert" filter="url(#filter_readability_theme_artists)"></path>
                <path d="M634 460H609.825V465H634V460Z" fill="#383E45" class="svgc_invert" filter="url(#filter_readability_theme_artists)"></path>
                <path d="M619.495 526H385V528H619.495V526Z" fill="#383E45" fill-opacity="0.4" class="svgc_invert" filter="url(#filter_readability_theme_artists)"></path>
                <path d="M600.155 513H493.786V514H600.155V513Z" fill="#383E45" fill-opacity="0.4" class="svgc_invert" filter="url(#filter_readability_theme_artists)"></path>
                <path d="M484.117 511H385V516H484.117V511Z" fill="#383E45" class="svgc_invert" filter="url(#filter_readability_theme_artists)"></path>
                <path d="M634 511H609.825V516H634V511Z" fill="#383E45" class="svgc_invert" filter="url(#filter_readability_theme_artists)"></path>
                <path d="M619.495 577H385V579H619.495V577Z" fill="#383E45" fill-opacity="0.4" class="svgc_invert" filter="url(#filter_readability_theme_artists)"></path>
                <path d="M600.155 564H493.786V565H600.155V564Z" fill="#383E45" fill-opacity="0.4" class="svgc_invert" filter="url(#filter_readability_theme_artists)"></path>
                <path d="M484.117 562H385V567H484.117V562Z" fill="#383E45" class="svgc_invert" filter="url(#filter_readability_theme_artists)"></path>
                <path d="M634 562H609.825V567H634V562Z" fill="#383E45" class="svgc_invert" filter="url(#filter_readability_theme_artists)"></path>
            </g>
            <g>
                <path d="M300.495 429H66V431H300.495V429Z" fill="#383E45" fill-opacity="0.4" class="svgc_invert" filter="url(#filter_readability_theme_artists)"></path>
                <path d="M283.573 434H66V436H283.573V434Z" fill="#383E45" fill-opacity="0.4" class="svgc_invert" filter="url(#filter_readability_theme_artists)"></path>
                <path d="M300.495 475H66V477H300.495V475Z" fill="#383E45" fill-opacity="0.4" class="svgc_invert" filter="url(#filter_readability_theme_artists)"></path>
                <path d="M281.155 462H174.786V463H281.155V462Z" fill="#383E45" fill-opacity="0.4" class="svgc_invert" filter="url(#filter_readability_theme_artists)"></path>
                <path d="M165.117 460H66V465H165.117V460Z" fill="#383E45" class="svgc_invert" filter="url(#filter_readability_theme_artists)"></path>
                <path d="M315 460H290.825V465H315V460Z" fill="#383E45" class="svgc_invert" filter="url(#filter_readability_theme_artists)"></path>
                <path d="M300.495 526H66V528H300.495V526Z" fill="#383E45" fill-opacity="0.4" class="svgc_invert" filter="url(#filter_readability_theme_artists)"></path>
                <path d="M281.155 513H174.786V514H281.155V513Z" fill="#383E45" fill-opacity="0.4" class="svgc_invert" filter="url(#filter_readability_theme_artists)"></path>
                <path d="M165.117 511H66V516H165.117V511Z" fill="#383E45" class="svgc_invert" filter="url(#filter_readability_theme_artists)"></path>
                <path d="M315 511H290.825V516H315V511Z" fill="#383E45" class="svgc_invert" filter="url(#filter_readability_theme_artists)"></path>
                <path d="M300.495 577H66V579H300.495V577Z" fill="#383E45" fill-opacity="0.4" class="svgc_invert" filter="url(#filter_readability_theme_artists)"></path>
                <path d="M281.155 564H174.786V565H281.155V564Z" fill="#383E45" fill-opacity="0.4" class="svgc_invert" filter="url(#filter_readability_theme_artists)"></path>
                <path d="M165.117 562H66V567H165.117V562Z" fill="#383E45" class="svgc_invert" filter="url(#filter_readability_theme_artists)"></path>
                <path d="M315 562H290.825V567H315V562Z" fill="#383E45" class="svgc_invert" filter="url(#filter_readability_theme_artists)"></path>
                <text transform="translate(87 417)" text-anchor="start" fill="#FFFFFF" font-size="32" font-family="Bebas Neue" font-weight="700"><tspan x="-22.471" y="0">Discover</tspan></text>
            </g>
        </g>
        <g class="s_cta_box">
            <path d="M700 611H0V847H700V611Z" fill="#3AADAA"></path>
            <path d="M224 722H66V724H224V722Z" fill="#3AADAA" fill-opacity="0.4" class="svgc_invert" filter="url(#filter_readability_theme_artists)"></path>
            <path d="M214 727H66V729H214V727Z" fill="#3AADAA" fill-opacity="0.4" class="svgc_invert" filter="url(#filter_readability_theme_artists)"></path>
            <rect x="66" y="750" width="94" height="28" fill="#FFFFFF"></rect>
            <rect x="460" y="643" width="174" height="172" fill="url(#theme_artists_library_image_02_id)" class="img_reference_library_image_02"></rect>
        
            <text transform="translate(87 707)" text-anchor="Start" fill="#FFFFFF" font-size="32" font-family="Bebas Neue" font-weight="700"><tspan x="-22.471" y="0">Section Title</tspan></text>
            <text transform="translate(135 768)" text-anchor="Middle" fill="#000000" font-size="10" font-family="Bebas Neue" font-weight="700"><tspan x="-22.471" y="0">Discover</tspan></text>
        </g>
        <g class="s_title">
            <rect y="847" width="700" height="64" fill="#383E45"></rect>
            <text transform="translate(375 900)" text-anchor="Middle" fill="#FFFFFF" font-size="28" font-family="Bebas Neue" font-weight="700"><tspan x="-22.471" y="0">Section Title</tspan></text>
        </g>
        <g class="s_image_frame">
            <path d="M700 911H0V1143H700V911Z" fill="#383E45"></path>
            <rect x="66" y="915" width="568" height="222" fill="url(#theme_artists_s_carousel_default_image_2_id)" class="img_reference_s_carousel_default_image_2"></rect>
            <rect x="427" y="1033" width="191" height="88" fill="#FFFFFF"></rect>
            <text transform="translate(465 1076)" text-anchor="Start" fill="#000000" font-size="28" font-family="Bebas Neue" font-weight="700"><tspan x="-22.471" y="0">Section Title</tspan></text>
            <path d="M602 1091H444V1093H602V1091Z" fill="#FFFFFF" fill-opacity="0.4" class="svgc_invert" filter="url(#filter_readability_theme_artists)"></path>
            <path d="M543 1103H444V1105H543V1103Z" fill="#FFFFFF" fill-opacity="0.4" class="svgc_invert" filter="url(#filter_readability_theme_artists)"></path>
            <path d="M592 1097H444V1099H592V1097Z" fill="#FFFFFF" fill-opacity="0.4" class="svgc_invert" filter="url(#filter_readability_theme_artists)"></path>
        </g>
        <g class="s_images_wall">
            <rect y="1143" width="700" height="428" fill="#383E45"></rect>
            <rect x="257" y="1419" width="186" height="120" fill="url(#theme_artists_library_image_05_2_id)" class="img_reference_library_image_05_2"></rect>
            <rect x="257" y="1142.93" width="186" height="270" fill="url(#theme_artists_library_image_13_2_id)" class="img_reference_library_image_13_2"></rect>
            <path d="M66 1269H251V1539H66V1269Z" fill="url(#theme_artists_library_image_10_2_id)" class="img_reference_library_image_10_2"></path>
            <path d="M449 1269H634V1539H449V1269Z" fill="url(#theme_artists_library_image_16_id)" class="img_reference_library_image_16"></path>
            <rect x="66" y="1143" width="185" height="120" fill="url(#theme_artists_library_image_03_2_id)" class="img_reference_library_image_03_2"></rect>
            <rect x="449" y="1143" width="185" height="120" fill="url(#theme_artists_library_image_14_id)" class="img_reference_library_image_14"></rect>
        </g>
        <g class="s_shape_image">
            <path d="M700 1571H0V1822H700V1571Z" fill="#3AADAA"></path>
            <text transform="translate(435 1675)" text-anchor="Start" fill="#FFFFFF" font-size="28" font-family="Bebas Neue" font-weight="700"><tspan x="-22.471" y="0">Section Title</tspan></text>
            <path d="M573 1691H415V1693H573V1691Z" fill="#3AADAA" fill-opacity="0.4" class="svgc_invert" filter="url(#filter_readability_theme_artists)"></path>
            <path d="M563 1696H415V1698H563V1696Z" fill="#3AADAA" fill-opacity="0.4" class="svgc_invert" filter="url(#filter_readability_theme_artists)"></path>
            <g>
                <rect x="415" y="1721" width="86" height="23" fill="#383E45"></rect>
                <text transform="translate(480 1735)" text-anchor="Middle" fill="#FFFFFF" font-size="11" font-family="Bebas Neue" font-weight="700"><tspan x="-22.471" y="0">Contact Me</tspan></text>
            </g>
            

            
            <path d="M66 1602L230 1612V1790L66 1779V1602Z" fill="url(#theme_artists_s_image_text_default_image_id)" class="img_reference_s_image_text_default_image"></path>
        </g>
        <g class="svgc_footer">
            <path d="M700 1822H0V1948H700V1822Z" fill="#FOOTER_COLOR" class="svgc_footer_bg"></path>
            <path d="M374 1862C378.971 1862 383 1857.97 383 1853C383 1848.03 378.971 1844 374 1844C369.029 1844 365 1848.03 365 1853C365 1857.97 369.029 1862 374 1862Z" fill="#FOOTER_COLOR" class="svgc_invert" filter="url(#filter_readability_theme_artists)"></path>
            <path d="M349 1862C353.971 1862 358 1857.97 358 1853C358 1848.03 353.971 1844 349 1844C344.029 1844 340 1848.03 340 1853C340 1857.97 344.029 1862 349 1862Z" fill="#FOOTER_COLOR" class="svgc_invert" filter="url(#filter_readability_theme_artists)"></path>
            <path d="M325 1862C329.971 1862 334 1857.97 334 1853C334 1848.03 329.971 1844 325 1844C320.029 1844 316 1848.03 316 1853C316 1857.97 320.029 1862 325 1862Z" fill="#FOOTER_COLOR" class="svgc_invert" filter="url(#filter_readability_theme_artists)"></path>
            <path d="M472 1881H227V1883H472V1881Z" fill="#FOOTER_COLOR" fill-opacity="0.4" class="svgc_invert" filter="url(#filter_readability_theme_artists)"></path>
            <path d="M430 1887H270V1889H430V1887Z" fill="#FOOTER_COLOR" class="svgc_invert" filter="url(#filter_readability_theme_artists)"></path>
            <path d="M333.41 1925.32V1923.03H327.778V1912.18H325V1925.32H333.41ZM340.455 1925.5C341.615 1925.5 342.658 1925.24 343.587 1924.71C344.519 1924.18 345.253 1923.41 345.795 1922.41C346.337 1921.4 346.607 1920.18 346.607 1918.75C346.607 1917.32 346.336 1916.1 345.794 1915.09C345.253 1914.09 344.519 1913.32 343.588 1912.79C342.658 1912.27 341.613 1912 340.454 1912C339.287 1912 338.239 1912.27 337.31 1912.79C336.383 1913.32 335.648 1914.09 335.111 1915.09C334.572 1916.1 334.302 1917.32 334.302 1918.75C334.302 1920.18 334.572 1921.39 335.111 1922.4C335.608 1923.36 336.372 1924.16 337.31 1924.7C338.239 1925.23 339.287 1925.5 340.454 1925.5L340.455 1925.5ZM340.455 1923.04C339.833 1923.06 339.221 1922.88 338.697 1922.55C338.196 1922.22 337.809 1921.73 337.532 1921.1C337.256 1920.46 337.118 1919.68 337.118 1918.75C337.118 1917.82 337.256 1917.04 337.532 1916.4C337.807 1915.76 338.196 1915.28 338.697 1914.95C339.22 1914.62 339.832 1914.44 340.454 1914.46C341.125 1914.46 341.711 1914.62 342.212 1914.95C342.712 1915.28 343.101 1915.77 343.376 1916.4C343.653 1917.04 343.79 1917.82 343.79 1918.75C343.79 1919.68 343.653 1920.46 343.376 1921.1C343.101 1921.73 342.714 1922.22 342.212 1922.55C341.688 1922.88 341.078 1923.06 340.455 1923.04ZM354.422 1925.5C355.525 1925.5 356.505 1925.28 357.361 1924.83C358.2 1924.4 358.899 1923.73 359.375 1922.92C359.863 1922.09 360.107 1921.1 360.107 1919.94V1918.29H354.608V1920.38H357.427L357.421 1920.57C357.395 1920.93 357.315 1921.25 357.184 1921.54L357.074 1921.75C356.835 1922.16 356.477 1922.5 356.048 1922.7C355.602 1922.93 355.063 1923.04 354.435 1923.04C353.743 1923.04 353.141 1922.87 352.632 1922.54C352.123 1922.2 351.728 1921.71 351.451 1921.07C351.174 1920.43 351.034 1919.65 351.034 1918.74C351.034 1917.82 351.176 1917.05 351.457 1916.41C351.741 1915.78 352.135 1915.29 352.642 1914.96C353.168 1914.62 353.784 1914.45 354.41 1914.46C354.768 1914.46 355.096 1914.5 355.394 1914.59C355.691 1914.68 355.956 1914.81 356.189 1914.98C356.423 1915.15 356.62 1915.35 356.782 1915.6C356.945 1915.84 357.071 1916.11 357.162 1916.43H359.985C359.902 1915.8 359.694 1915.19 359.375 1914.64C359.06 1914.1 358.645 1913.62 358.152 1913.24C357.64 1912.84 357.062 1912.53 356.444 1912.33C355.773 1912.1 355.071 1911.99 354.365 1912C353.536 1911.99 352.714 1912.15 351.945 1912.46C351.207 1912.76 350.54 1913.21 349.988 1913.78C349.41 1914.39 348.965 1915.12 348.683 1915.91C348.373 1916.75 348.218 1917.7 348.218 1918.76C348.218 1920.15 348.478 1921.34 348.998 1922.35C349.483 1923.32 350.24 1924.13 351.176 1924.68C352.109 1925.23 353.19 1925.5 354.422 1925.5ZM367.908 1925.5C369.067 1925.5 370.111 1925.24 371.041 1924.71C371.971 1924.18 372.707 1923.41 373.248 1922.41C373.79 1921.4 374.061 1920.18 374.061 1918.75C374.061 1917.32 373.79 1916.1 373.248 1915.09C372.706 1914.09 371.971 1913.32 371.041 1912.79C370.111 1912.27 369.067 1912 367.908 1912C366.74 1912 365.692 1912.27 364.765 1912.79C363.836 1913.32 363.102 1914.09 362.563 1915.09C362.025 1916.1 361.755 1917.32 361.755 1918.75C361.755 1920.18 362.025 1921.39 362.563 1922.4C363.102 1923.41 363.836 1924.17 364.765 1924.7C365.692 1925.23 366.74 1925.5 367.908 1925.5ZM367.908 1923.04C367.237 1923.04 366.649 1922.88 366.15 1922.55C365.65 1922.22 365.261 1921.73 364.986 1921.1C364.709 1920.46 364.572 1919.68 364.572 1918.75C364.572 1917.82 364.709 1917.04 364.986 1916.4C365.261 1915.76 365.648 1915.28 366.15 1914.95C366.673 1914.62 367.286 1914.44 367.908 1914.46C368.579 1914.46 369.165 1914.62 369.665 1914.95C370.166 1915.28 370.553 1915.77 370.83 1916.4C371.106 1917.04 371.244 1917.82 371.244 1918.75C371.244 1919.68 371.106 1920.46 370.83 1921.1C370.553 1921.73 370.166 1922.22 369.665 1922.55C369.141 1922.88 368.53 1923.06 367.908 1923.04Z" fill="#FOOTER_COLOR" class="svgc_invert" filter="url(#filter_readability_theme_artists)"></path>
        </g>
    </g>
    <defs>
        <clipPath id="clip0_433_146">
            <rect width="700" height="1948" fill="#FFFFFF"></rect>
        </clipPath>
    </defs>
</svg>