<svg width="700" height="1641" viewBox="0 0 700 1641" fill="none" xmlns="http://www.w3.org/2000/svg" data-vsvg="002" class="theme_treehouse_svg_preview">
    <defs>
        <pattern id="theme_treehouse_library_image_10_id" width="1" height="1" patternunits="objectBoundingBox">
            <image href="#library_image_10_url" width="125" height="178" preserveAspectRatio="xMidYMid slice"></image>
        </pattern>
        <pattern id="theme_treehouse_library_image_10_id_2" width="1" height="1" patternunits="objectBoundingBox">
            <image href="#library_image_10_url" width="181" height="98" preserveAspectRatio="xMidYMid slice"></image>
        </pattern>
        <pattern id="theme_treehouse_library_image_03_id" width="1" height="1" patternunits="objectBoundingBox">
            <image href="#library_image_03_url" width="170" height="75" preserveAspectRatio="xMidYMid slice"></image>
        </pattern>
        <pattern id="theme_treehouse_library_image_03_id_2" width="1" height="1" patternunits="objectBoundingBox">
            <image href="#library_image_03_url" width="70" height="174" preserveAspectRatio="xMidYMid slice"></image>
        </pattern>
        <pattern id="theme_treehouse_library_image_05_id" width="1" height="1" patternunits="objectBoundingBox">
            <image href="#library_image_05_url" width="170" height="178" preserveAspectRatio="xMidYMid slice"></image>
        </pattern>
        <pattern id="theme_treehouse_library_image_05_id_2" width="1" height="1" patternunits="objectBoundingBox">
            <image href="#library_image_05_url" width="175" height="174" preserveAspectRatio="xMidYMid slice"></image>
        </pattern>
        <pattern id="theme_treehouse_library_image_13_id" width="1" height="1" patternunits="objectBoundingBox">
            <image href="#library_image_13_url" width="382" height="75" preserveAspectRatio="xMidYMid slice"></image>
        </pattern>
        <pattern id="theme_treehouse_library_image_13_id_2" width="1" height="1" patternunits="objectBoundingBox">
            <image href="#library_image_13_url" width="181" height="110" preserveAspectRatio="xMidYMid slice"></image>
        </pattern>
        <pattern id="theme_treehouse_s_text_image_default_image_id" width="1" height="1" patternunits="objectBoundingBox">
            <image href="#s_text_image_default_image_url"  width="350" height="310" preserveAspectRatio="xMidYMid slice"></image>
        </pattern>
        <pattern id="theme_treehouse_s_reference_demo_image_1_id" preserveAspectRatio="xMidYMid slice" width="100%" height="100%" viewBox="0 0 24 24" patternunits="objectBoundingBox">
            <image href="/web/image/website.s_reference_demo_image_1" width="24" height="24"></image>
        </pattern>
        <pattern id="theme_treehouse_s_reference_demo_image_2_id" preserveAspectRatio="xMidYMid slice" width="100%" height="100%" viewBox="0 0 24 24" patternunits="objectBoundingBox">
            <image href="/web/image/website.s_reference_demo_image_2" width="24" height="24"></image>
        </pattern>
        <pattern id="theme_treehouse_s_reference_demo_image_3_id" preserveAspectRatio="xMidYMid slice" width="100%" height="100%" viewBox="0 0 24 24" patternunits="objectBoundingBox">
            <image href="/web/image/website.s_reference_demo_image_3" width="24" height="24"></image>
        </pattern>
        <pattern id="theme_treehouse_s_reference_demo_image_4_id" preserveAspectRatio="xMidYMid slice" width="100%" height="100%" viewBox="0 0 24 24" patternunits="objectBoundingBox">
            <image href="/web/image/website.s_reference_demo_image_4" width="24" height="24"></image>
        </pattern>
        <pattern id="theme_treehouse_s_reference_demo_image_5_id" preserveAspectRatio="xMidYMid slice" width="100%" height="100%" viewBox="0 0 24 24" patternunits="objectBoundingBox">
            <image href="/web/image/website.s_reference_demo_image_5" width="24" height="24"></image>
        </pattern>
        <pattern id="theme_treehouse_library_image_16_id" width="1" height="1" patternunits="objectBoundingBox">
            <image href="#library_image_16_url" width="99" height="174" preserveAspectRatio="xMidYMid slice"></image>
        </pattern>
        <pattern id="theme_treehouse_library_image_14_id" width="1" height="1" patternunits="objectBoundingBox">
            <image href="#library_image_14_url" width="143" height="216" preserveAspectRatio="xMidYMid slice"></image>
        </pattern>
        <filter id="filter_readability_theme_treehouse">
            <feColorMatrix in="SourceGraphic" type="saturate" values="0"></feColorMatrix>
            <feComponentTransfer>
                <feFuncR type="table" tableValues="1 0"></feFuncR>
                <feFuncG type="table" tableValues="1 0"></feFuncG>
                <feFuncB type="table" tableValues="1 0"></feFuncB>
            </feComponentTransfer>
            <feComponentTransfer>
                <feFuncR type="linear" slope="10000" intercept="-4999.5"></feFuncR>
                <feFuncG type="linear" slope="10000" intercept="-4999.5"></feFuncG>
                <feFuncB type="linear" slope="10000" intercept="-4999.5"></feFuncB>
            </feComponentTransfer>
        </filter>
    </defs>
    <rect width="700" height="1641" fill="#ACACAC"></rect>
    <g clip-path="url(#clip0_148_2)" class="theme_treehouse">
        <rect width="700" height="1641" fill="#F6F6F6"></rect>
        <g class="svgc_menu">
            <path d="M700 0H0V65H700V0Z" fill="#MENU_COLOR" class="svgc_menu_bg"></path>
            <path d="M622.5 12H591.5C587.358 12 584 15.3579 584 19.5C584 23.6421 587.358 27 591.5 27H622.5C626.642 27 630 23.6421 630 19.5C630 15.3579 626.642 12 622.5 12Z" fill="#3AADAA"></path>
            <path d="M571.5 12H540.5C536.358 12 533 15.3579 533 19.5C533 23.6421 536.358 27 540.5 27H571.5C575.642 27 579 23.6421 579 19.5C579 15.3579 575.642 12 571.5 12Z" fill="#MENU_COLOR" fill-opacity="0.1" class="svgc_invert" filter="url(#filter_readability_theme_treehouse)"></path>
            <path d="M108.5 12H77.5C73.3579 12 70 15.3579 70 19.5C70 23.6421 73.3579 27 77.5 27H108.5C112.642 27 116 23.6421 116 19.5C116 15.3579 112.642 12 108.5 12Z" fill="#MENU_COLOR" fill-opacity="0.1" class="svgc_invert" filter="url(#filter_readability_theme_treehouse)"></path>
            <path d="M456 41H419V48H456V41Z" fill="#MENU_COLOR" fill-opacity="0.3" class="svgc_invert" filter="url(#filter_readability_theme_treehouse)"></path>
            <path d="M398 41H361V48H398V41Z" fill="#MENU_COLOR" fill-opacity="0.3" class="svgc_invert" filter="url(#filter_readability_theme_treehouse)"></path>
            <path d="M340 41H303V48H340V41Z" fill="#MENU_COLOR" fill-opacity="0.3" class="svgc_invert" filter="url(#filter_readability_theme_treehouse)"></path>
            <path d="M282 41H245V48H282V41Z" fill="#MENU_COLOR" class="svgc_invert" filter="url(#filter_readability_theme_treehouse)"></path>
            <path d="M339.586 24.8472V23.3262H335.845V16.1202H334V24.8472H339.586ZM344.266 24.9672C345.036 24.9672 345.729 24.7912 346.346 24.4402C346.965 24.0902 347.453 23.5802 347.813 22.9122C348.173 22.2452 348.352 21.4352 348.352 20.4832C348.352 19.5322 348.172 18.7222 347.812 18.0542C347.453 17.3872 346.965 16.8782 346.347 16.5272C345.729 16.1762 345.035 16.0002 344.265 16.0002C343.49 16.0002 342.794 16.1762 342.177 16.5272C341.561 16.8772 341.073 17.3872 340.716 18.0542C340.358 18.7222 340.179 19.5322 340.179 20.4842C340.179 21.4322 340.358 22.2402 340.716 22.9082C341.046 23.5477 341.553 24.0788 342.177 24.4382C342.794 24.7902 343.49 24.9662 344.265 24.9662L344.266 24.9672ZM344.266 23.3342C343.853 23.3433 343.446 23.2291 343.098 23.0062C342.765 22.7872 342.508 22.4662 342.324 22.0432C342.141 21.6202 342.049 21.1002 342.049 20.4832C342.049 19.8672 342.141 19.3472 342.324 18.9232C342.507 18.5002 342.765 18.1792 343.098 17.9612C343.446 17.7381 343.852 17.6239 344.265 17.6332C344.711 17.6332 345.1 17.7422 345.433 17.9612C345.765 18.1792 346.023 18.5012 346.206 18.9242C346.39 19.3472 346.481 19.8672 346.481 20.4842C346.481 21.1002 346.39 21.6202 346.206 22.0432C346.023 22.4662 345.766 22.7872 345.433 23.0062C345.085 23.2294 344.679 23.3436 344.266 23.3342ZM353.543 24.9662C354.276 24.9662 354.927 24.8182 355.495 24.5212C356.053 24.234 356.517 23.7934 356.833 23.2512C357.157 22.7012 357.319 22.0432 357.319 21.2762V20.1762H353.667V21.5662H355.539L355.535 21.6922C355.518 21.9292 355.465 22.1442 355.378 22.3372L355.305 22.4772C355.146 22.7514 354.908 22.9719 354.623 23.1102C354.327 23.2602 353.969 23.3342 353.552 23.3342C353.092 23.3342 352.692 23.2232 352.354 23.0002C352.016 22.7772 351.754 22.4522 351.57 22.0262C351.386 21.6002 351.293 21.0832 351.293 20.4752C351.293 19.8672 351.387 19.3522 351.574 18.9302C351.762 18.5082 352.024 18.1862 352.361 17.9652C352.711 17.74 353.119 17.6244 353.535 17.6332C353.773 17.6332 353.991 17.6632 354.189 17.7222C354.386 17.7822 354.562 17.8682 354.717 17.9802C354.872 18.0922 355.003 18.2282 355.111 18.3892C355.219 18.5492 355.303 18.7332 355.363 18.9412H357.238C357.183 18.5226 357.045 18.1191 356.833 17.7542C356.624 17.3951 356.348 17.0791 356.021 16.8232C355.681 16.5568 355.297 16.3514 354.886 16.2162C354.441 16.0693 353.974 15.9964 353.505 16.0002C352.955 15.9952 352.409 16.0981 351.898 16.3032C351.407 16.5023 350.964 16.8028 350.598 17.1852C350.214 17.5908 349.919 18.0721 349.731 18.5982C349.525 19.1532 349.422 19.7842 349.422 20.4922C349.422 21.4122 349.595 22.2072 349.94 22.8762C350.262 23.521 350.765 24.0584 351.387 24.4232C352.007 24.7852 352.725 24.9662 353.543 24.9662ZM362.501 24.9662C363.271 24.9662 363.964 24.7912 364.582 24.4402C365.2 24.0902 365.689 23.5802 366.048 22.9122C366.408 22.2452 366.588 21.4352 366.588 20.4832C366.588 19.5322 366.408 18.7222 366.048 18.0542C365.688 17.3872 365.2 16.8782 364.582 16.5272C363.964 16.1762 363.271 16.0002 362.501 16.0002C361.725 16.0002 361.029 16.1762 360.413 16.5272C359.796 16.8772 359.309 17.3872 358.951 18.0542C358.593 18.7222 358.414 19.5322 358.414 20.4842C358.414 21.4322 358.593 22.2402 358.951 22.9082C359.309 23.5762 359.796 24.0862 360.413 24.4382C361.029 24.7902 361.725 24.9662 362.501 24.9662ZM362.501 23.3342C362.055 23.3342 361.665 23.2242 361.333 23.0062C361.001 22.7872 360.743 22.4662 360.56 22.0432C360.376 21.6202 360.285 21.1002 360.285 20.4832C360.285 19.8672 360.376 19.3472 360.56 18.9232C360.743 18.5002 361 18.1792 361.333 17.9612C361.681 17.7379 362.088 17.6237 362.501 17.6332C362.947 17.6332 363.336 17.7422 363.668 17.9612C364.001 18.1792 364.258 18.5012 364.442 18.9242C364.625 19.3472 364.717 19.8672 364.717 20.4842C364.717 21.1002 364.625 21.6202 364.442 22.0432C364.258 22.4662 364.001 22.7872 363.668 23.0062C363.32 23.2292 362.914 23.3434 362.501 23.3342Z" fill="#MENU_COLOR" class="svgc_invert" filter="url(#filter_readability_theme_treehouse)"></path>
        </g>
        <g class="s_sidegrid">
            <rect y="65" width="700" height="342" fill="#FFFFFF"></rect>
            <path d="M700 407L612.1 347.79C547.95 304.619 464.95 300.672 397.2 337.947C311.8 384.915 235.45 405.601 184.4 353.136C177.95 346.541 169.35 342.494 160.2 341.644L141.55 339.895C126.7 338.496 113.25 330.552 104.95 318.21C84.45 287.83 57.4 257.801 0 273.14V407H700Z" fill="#7C6576"></path>
            <path d="M572 231.208H432V233.208H572V231.208Z" fill="#FFFFFF" fill-opacity="0.4" class="svgc_invert" filter="url(#filter_readability_theme_treehouse)"></path>
            <path d="M562.987 236.208H432V238.208H562.987V236.208Z" fill="#FFFFFF" fill-opacity="0.4" class="svgc_invert" filter="url(#filter_readability_theme_treehouse)"></path>
            <text transform="translate(432 174)" text-anchor="Start" fill="#000000" class="svgc_text" filter="url(#filter_readability_anelusia)" font-size="32" font-family="Arial" font-weight="700">
                <tspan x="0" y="0">Welcome</tspan>
                <tspan x="0" y="37">Message</tspan>
            </text>
            <rect x="248" y="109" width="125" height="178" fill="url(#theme_treehouse_library_image_10_id)" class="img_reference_library_image_10"></rect>
            <rect x="70" y="109" width="170" height="75" fill="url(#theme_treehouse_library_image_03_id)" class="img_reference_library_image_03"></rect>
            <rect width="170" height="178" x="70" y="192" fill="url(#theme_treehouse_library_image_05_id)" class="img_reference_library_image_05"></rect>
            <rect x="248" y="295" width="382" height="75" fill="url(#theme_treehouse_library_image_13_id)" class="img_reference_library_image_13"></rect>
        </g>
        <g class="s_numbers_list">
            <rect y="407" width="700" height="233" fill="#7C6576"></rect>
            <path d="M630 497H390V498H630V497Z" fill="#7C6576" fill-opacity="0.1" class="svgc_invert" filter="url(#filter_readability_theme_treehouse)"></path>
            <path d="M630 549H390V550H630V549Z" fill="#7C6576" fill-opacity="0.1" class="svgc_invert" filter="url(#filter_readability_theme_treehouse)"></path>
            <path d="M265 499H71V501H265V499Z" fill="#7C6576" fill-opacity="0.4" class="svgc_invert" filter="url(#filter_readability_theme_treehouse)"></path>
            <path d="M251 504H71V506H251V504Z" fill="#7C6576" fill-opacity="0.4" class="svgc_invert" filter="url(#filter_readability_theme_treehouse)"></path>
            <path d="M201 509H71V511H201V509Z" fill="#7C6576" fill-opacity="0.4" class="svgc_invert" filter="url(#filter_readability_theme_treehouse)"></path>
            <path d="M224 514H71V516H224V514Z" fill="#7C6576" fill-opacity="0.4" class="svgc_invert" filter="url(#filter_readability_theme_treehouse)"></path>
            <text transform="translate(93 481)" text-anchor="Start" fill="#FFFFFF" font-size="20" font-family="Arial" font-weight="700"><tspan x="-22.471" y="0">Entry Title</tspan></text>
            <path d="M489 530H415V532H489V530Z" fill="#7C6576" fill-opacity="0.4" class="svgc_invert" filter="url(#filter_readability_theme_treehouse)"></path>
            <path d="M452 515H415V525H452V515Z" fill="#7C6576" class="svgc_invert" filter="url(#filter_readability_theme_treehouse)"></path>
            <path d="M606 530H532V532H606V530Z" fill="#7C6576" fill-opacity="0.4" class="svgc_invert" filter="url(#filter_readability_theme_treehouse)"></path>
            <path d="M569 515H532V525H569V515Z" fill="#7C6576" class="svgc_invert" filter="url(#filter_readability_theme_treehouse)"></path>
            <path d="M489 478H415V480H489V478Z" fill="#7C6576" fill-opacity="0.4" class="svgc_invert" filter="url(#filter_readability_theme_treehouse)"></path>
            <path d="M452 463H415V473H452V463Z" fill="#7C6576" class="svgc_invert" filter="url(#filter_readability_theme_treehouse)"></path>
            <path d="M606 478H532V480H606V478Z" fill="#7C6576" fill-opacity="0.4" class="svgc_invert" filter="url(#filter_readability_theme_treehouse)"></path>
            <path d="M569 463H532V473H569V463Z" fill="#7C6576" class="svgc_invert" filter="url(#filter_readability_theme_treehouse)"></path>
            <path d="M489 582H415V584H489V582Z" fill="#7C6576" fill-opacity="0.4" class="svgc_invert" filter="url(#filter_readability_theme_treehouse)"></path>
            <path d="M452 567H415V577H452V567Z" fill="#7C6576" class="svgc_invert" filter="url(#filter_readability_theme_treehouse)"></path>
            <path d="M606 582H532V584H606V582Z" fill="#7C6576" fill-opacity="0.4" class="svgc_invert" filter="url(#filter_readability_theme_treehouse)"></path>
            <path d="M569 567H532V577H569V567Z" fill="#7C6576" class="svgc_invert" filter="url(#filter_readability_theme_treehouse)"></path>
        </g>
        <g class="s_color_blocks_2">
            <path d="M350 640H0V950H350V640Z" fill="#3AADAA"></path>
            <path d="M700 640H350V950H700V640Z" fill="url(#theme_treehouse_s_text_image_default_image_id)" class="img_reference_s_text_image_default_image"></path>
            <path d="M151 816H85C77.268 816 71 822.268 71 830C71 837.732 77.268 844 85 844H151C158.732 844 165 837.732 165 830C165 822.268 158.732 816 151 816Z" fill="#383E45"></path>
            <text transform="translate(140 834)" text-anchor="Middle" fill="#FFFFFF" font-size="12" font-family="Arial" font-weight="700"><tspan x="-22.471" y="0">Discover</tspan></text>
            <path d="M265 781H71V783H265V781Z" fill="#3AADAA" fill-opacity="0.4" class="svgc_invert" filter="url(#filter_readability_theme_treehouse)"></path>
            <path d="M251 786H71V788H251V786Z" fill="#3AADAA" fill-opacity="0.4" class="svgc_invert" filter="url(#filter_readability_theme_treehouse)"></path>
            <path d="M201 791H71V793H201V791Z" fill="#3AADAA" fill-opacity="0.4" class="svgc_invert" filter="url(#filter_readability_theme_treehouse)"></path>
            <path d="M224 796H71V798H224V796Z" fill="#3AADAA" fill-opacity="0.4" class="svgc_invert" filter="url(#filter_readability_theme_treehouse)"></path>
            <text transform="translate(93 763)" text-anchor="Start" fill="#FFFFFF" font-size="20" font-family="Arial" font-weight="700"><tspan x="-22.471" y="0">Entry Title</tspan></text>
        </g>
        <g class="s_references">
            <rect y="950" width="700" height="213" fill="#FFFFFF"></rect>
            <path d="M112 1131C135.196 1131 154 1112.2 154 1089C154 1065.8 135.196 1047 112 1047C88.804 1047 70 1065.8 70 1089C70 1112.2 88.804 1131 112 1131Z" fill="url(#theme_treehouse_s_reference_demo_image_1_id)" class="img_reference_s_reference_demo_image_1"></path>
            <path d="M207 1131C230.196 1131 249 1112.2 249 1089C249 1065.8 230.196 1047 207 1047C183.804 1047 165 1065.8 165 1089C165 1112.2 183.804 1131 207 1131Z" fill="url(#theme_treehouse_s_reference_demo_image_2_id)" class="img_reference_s_reference_demo_image_2"></path>
            <path d="M302.4 1131C325.596 1131 344.4 1112.2 344.4 1089C344.4 1065.8 325.596 1047 302.4 1047C279.204 1047 260.4 1065.8 260.4 1089C260.4 1112.2 279.204 1131 302.4 1131Z" fill="url(#theme_treehouse_s_reference_demo_image_3_id)" class="img_reference_s_reference_demo_image_3"></path>
            <path d="M397.6 1131C420.796 1131 439.6 1112.2 439.6 1089C439.6 1065.8 420.796 1047 397.6 1047C374.404 1047 355.6 1065.8 355.6 1089C355.6 1112.2 374.404 1131 397.6 1131Z" fill="url(#theme_treehouse_s_reference_demo_image_4_id)" class="img_reference_s_reference_demo_image_4"></path>
            <path d="M492.8 1131C515.996 1131 534.8 1112.2 534.8 1089C534.8 1065.8 515.996 1047 492.8 1047C469.604 1047 450.8 1065.8 450.8 1089C450.8 1112.2 469.604 1131 492.8 1131Z" fill="url(#theme_treehouse_s_reference_demo_image_5_id)" class="img_reference_s_reference_demo_image_5"></path>
            <path d="M588 1131C611.196 1131 630 1112.2 630 1089C630 1065.8 611.196 1047 588 1047C564.804 1047 546 1065.8 546 1089C546 1112.2 564.804 1131 588 1131Z" fill="url(#theme_treehouse_s_reference_demo_image_1_id)" class="img_reference_s_reference_demo_image_6"></path>
            <path d="M384 1019.52H290.559V1021.52H384V1019.52Z" fill="#FFFFFF" fill-opacity="0.4" class="svgc_invert" filter="url(#filter_readability_theme_treehouse)"></path>
            <path d="M378.435 1024.52H296.559V1026.52H378.435V1024.52Z" fill="#FFFFFF" fill-opacity="0.4" class="svgc_invert" filter="url(#filter_readability_theme_treehouse)"></path>
            <text transform="translate(361 1002)" text-anchor="Middle" fill="#000000" font-size="23" font-family="Arial" font-weight="700"><tspan x="-22.471" y="0">Section Title</tspan></text>
        </g>
        <g class="s_freegrid">
            <rect y="1163" width="700" height="378" fill="#FFFFFF"></rect>
            <path d="M700 1219H601V1393H700V1219Z" fill="url(#theme_treehouse_library_image_16_id)" class="img_reference_library_image_16"></path>
            <path d="M70 1219H0V1393H70V1219Z" fill="url(#theme_treehouse_library_image_03_id_2)" class="img_reference_library_image_03"></path>
            <path d="M593 1198H450V1414H593V1198Z" fill="url(#theme_treehouse_library_image_14_id)" class="img_reference_library_image_14"></path>
            <path d="M442 1219H267V1393H442V1219Z" fill="url(#theme_treehouse_library_image_05_id_2)" class="img_reference_library_image_05"></path>
            <path d="M259 1198H78V1308H259V1198Z" fill="url(#theme_treehouse_library_image_13_id_2)" class="img_reference_library_image_13"></path>
            <path d="M259 1316H78V1414H259V1316Z" fill="url(#theme_treehouse_library_image_10_id_2)" class="img_reference_library_image_10"></path>
            <path d="M616 1460H550C542.268 1460 536 1466.27 536 1474C536 1481.73 542.268 1488 550 1488H616C623.732 1488 630 1481.73 630 1474C630 1466.27 623.732 1460 616 1460Z" fill="#3AADAA"></path>
            <text transform="translate(605 1477)" text-anchor="Middle" fill="#FFFFFF" font-size="11" font-family="Arial" font-weight="700"><tspan x="-22.471" y="0">Discover</tspan></text>
            <path d="M398 1496H70V1498H398V1496Z" fill="#FFFFFF" fill-opacity="0.4" class="svgc_invert" filter="url(#filter_readability_theme_treehouse)"></path>
            <path d="M374 1501H70V1503H374V1501Z" fill="#FFFFFF" fill-opacity="0.4" class="svgc_invert" filter="url(#filter_readability_theme_treehouse)"></path>
            <path d="M290 1506H70V1508H290V1506Z" fill="#FFFFFF" fill-opacity="0.4" class="svgc_invert" filter="url(#filter_readability_theme_treehouse)"></path>
            <text transform="translate(92 1478)" text-anchor="Start" fill="#000000" font-size="23" font-family="Arial" font-weight="700"><tspan x="-22.471" y="0">Entry Title</tspan></text>
        </g>
        <g class="svgc_footer">
            <path d="M700 1541H0V1641H700V1541Z" fill="#FOOTER_COLOR" class="svgc_footer_bg"></path>
            <path d="M630 1589H578V1591H630V1589Z" fill="#FOOTER_COLOR" class="svgc_invert" filter="url(#filter_readability_theme_treehouse)"></path>
            <path d="M615 1583H578V1585H615V1583Z" fill="#FOOTER_COLOR" class="svgc_invert" filter="url(#filter_readability_theme_treehouse)"></path>
            <path d="M234 1587H70V1589H234V1587Z" fill="#FOOTER_COLOR" fill-opacity="0.4" class="svgc_invert" filter="url(#filter_readability_theme_treehouse)"></path>
            <path d="M234 1593H70V1595H234V1593Z" fill="#FOOTER_COLOR" fill-opacity="0.4" class="svgc_invert" filter="url(#filter_readability_theme_treehouse)"></path>
            <path d="M234 1599H70V1601H234V1599Z" fill="#FOOTER_COLOR" fill-opacity="0.4" class="svgc_invert" filter="url(#filter_readability_theme_treehouse)"></path>
            <path d="M234 1605H70V1607H234V1605Z" fill="#FOOTER_COLOR" fill-opacity="0.4" class="svgc_invert" filter="url(#filter_readability_theme_treehouse)"></path>
            <path d="M234 1611H70V1613H234V1611Z" fill="#FOOTER_COLOR" fill-opacity="0.4" class="svgc_invert" filter="url(#filter_readability_theme_treehouse)"></path>
            <path d="M327 1587H280V1589H327V1587Z" fill="#FOOTER_COLOR" fill-opacity="0.4" class="svgc_invert" filter="url(#filter_readability_theme_treehouse)"></path>
            <path d="M375 1593H280V1595H375V1593Z" fill="#FOOTER_COLOR" fill-opacity="0.4" class="svgc_invert" filter="url(#filter_readability_theme_treehouse)"></path>
            <path d="M388 1599H280V1601H388V1599Z" fill="#FOOTER_COLOR" fill-opacity="0.4" class="svgc_invert" filter="url(#filter_readability_theme_treehouse)"></path>
            <path d="M415 1605H280V1607H415V1605Z" fill="#FOOTER_COLOR" fill-opacity="0.4" class="svgc_invert" filter="url(#filter_readability_theme_treehouse)"></path>
            <path d="M388 1611H280V1613H388V1611Z" fill="#FOOTER_COLOR" fill-opacity="0.4" class="svgc_invert" filter="url(#filter_readability_theme_treehouse)"></path>
            <path d="M623 1612C626.866 1612 630 1608.87 630 1605C630 1601.13 626.866 1598 623 1598C619.134 1598 616 1601.13 616 1605C616 1608.87 619.134 1612 623 1612Z" fill="#FOOTER_COLOR" class="svgc_invert" filter="url(#filter_readability_theme_treehouse)"></path>
            <path d="M604 1612C607.866 1612 611 1608.87 611 1605C611 1601.13 607.866 1598 604 1598C600.134 1598 597 1601.13 597 1605C597 1608.87 600.134 1612 604 1612Z" fill="#FOOTER_COLOR" class="svgc_invert" filter="url(#filter_readability_theme_treehouse)"></path>
            <path d="M585 1612C588.866 1612 592 1608.87 592 1605C592 1601.13 588.866 1598 585 1598C581.134 1598 578 1601.13 578 1605C578 1608.87 581.134 1612 585 1612Z" fill="#FOOTER_COLOR" class="svgc_invert" filter="url(#filter_readability_theme_treehouse)"></path>
            <path d="M139 1564H70V1574H139V1564Z" fill="#FOOTER_COLOR" class="svgc_invert" filter="url(#filter_readability_theme_treehouse)"></path>
        </g>
    </g>
    <path d="M16 401L0 407L16 410.5H696L699.5 407.5L700 407L698.5 406.5L16 401Z" fill="#7C6576"></path>
    <defs>
        <clipPath id="clip0_148_2">
            <rect width="700" height="1641" fill="#FFFFFF"></rect>
        </clipPath>
    </defs>
</svg>
