<svg width="700" height="1884" viewBox="0 0 700 1884" fill="none" xmlns="http://www.w3.org/2000/svg" data-vsvg="002" class="theme_bewise_svg_preview">
    <defs>
        <style type="text/css">
            @import url('https://fonts.googleapis.com/css2?family=Darker+Grotesque&amp;display=swap');
        </style>
        <pattern id="theme_bewise_s_company_team_image_1_id" width="1" height="1" patternunits="objectBoundingBox">
            <image preserveAspectRatio="xMidYMid slice" width="109" height="109" href="/web/image/website.s_company_team_image_1"/>
        </pattern>
        <pattern id="theme_bewise_s_company_team_image_4_id" width="1" height="1" patternunits="objectBoundingBox">
            <image preserveAspectRatio="xMidYMid slice" width="109" height="109" href="/web/image/website.s_company_team_image_4"/>
        </pattern>
        <pattern id="theme_bewise_s_company_team_image_5_id" width="1" height="1" patternunits="objectBoundingBox">
            <image preserveAspectRatio="xMidYMid slice" width="109" height="109" href="/web/image/website.s_company_team_image_5"/>
        </pattern>
        <pattern id="theme_bewise_s_company_team_image_2_id" width="1" height="1" patternunits="objectBoundingBox">
            <image preserveAspectRatio="xMidYMid slice" width="109" height="109" href="/web/image/website.s_company_team_image_2"/>
        </pattern>
        <pattern id="theme_bewise_s_company_team_image_3_id" width="1" height="1" patternunits="objectBoundingBox">
            <image preserveAspectRatio="xMidYMid slice" width="109" height="109" href="/web/image/website.s_company_team_image_3"/>
        </pattern>
        <pattern id="theme_bewise_s_company_team_image_6_id" width="1" height="1" patternunits="objectBoundingBox">
            <image preserveAspectRatio="xMidYMid slice" width="109" height="109" href="/web/image/website.s_company_team_image_6"/>
        </pattern>
        <pattern id="theme_bewise_s_masonry_block_default_image_1_id" width="1" height="1" patternunits="objectBoundingBox">
            <image preserveAspectRatio="xMidYMid slice" width="209" height="265" href="#s_masonry_block_default_image_1_url"/>
        </pattern>
        <pattern id="theme_bewise_s_media_list_default_image_2_id" width="1" height="1" patternunits="objectBoundingBox">
            <image preserveAspectRatio="xMidYMid slice" width="349.501" height="235" href="#s_media_list_default_image_2_url"/>
        </pattern>
        <pattern id="theme_bewise_s_media_list_default_image_1_id" width="1" height="1" patternunits="objectBoundingBox">
            <image preserveAspectRatio="xMidYMid slice" width="348.502" height="235" href="#s_media_list_default_image_1_url"/>
        </pattern>
        <pattern id="theme_bewise_s_picture_default_image_id" width="1" height="1" patternunits="objectBoundingBox">
            <image preserveAspectRatio="xMidYMid slice" width="443" height="278" href="#s_picture_default_image_url"/>
        </pattern>
        <filter id="filter_readability_theme_bewise">
            <feColorMatrix in="SourceGraphic" type="saturate" values="0"/>
            <feComponentTransfer>
                <feFuncR type="table" tableValues="1 0"/>
                <feFuncG type="table" tableValues="1 0"/>
                <feFuncB type="table" tableValues="1 0"/>
            </feComponentTransfer>
            <feComponentTransfer>
                <feFuncR type="linear" slope="10000" intercept="-4999.5"/>
                <feFuncG type="linear" slope="10000" intercept="-4999.5"/>
                <feFuncB type="linear" slope="10000" intercept="-4999.5"/>
            </feComponentTransfer>
        </filter>
        <clipPath id="clip0_220_5">
            <rect width="700" height="1884" fill="#FFFFFF"/>
        </clipPath>
        <clipPath id="clip1_220_5">
            <rect width="8" height="8" fill="#FFFFFF" transform="translate(638 1032)"/>
        </clipPath>
        <clipPath id="clip2_220_5">
            <rect width="8" height="8" fill="#FFFFFF" transform="translate(638 1060)"/>
        </clipPath>
    </defs>
    <rect width="700" height="1884" fill="#ACACAC"/>
    <g clip-path="url(#clip0_220_5)" class="theme_bewise">
        <rect width="700" height="1884" fill="#FFFFFF"/>
        <g class="svgc_footer">
            <path d="M700 1784H0V1884H700V1784Z" fill="#FOOTER_COLOR" class="svgc_footer_bg"/>
            <path d="M355 1850H222V1852H355V1850Z" fill="#FOOTER_COLOR" class="svgc_invert" filter="url(#filter_readability_theme_bewise)"/>
            <path d="M317 1844H222V1846H317V1844Z" fill="#FOOTER_COLOR" class="svgc_invert" filter="url(#filter_readability_theme_bewise)"/>
            <path d="M468 1813H223V1815H468V1813Z" fill="#FOOTER_COLOR" fill-opacity="0.4" class="svgc_invert" filter="url(#filter_readability_theme_bewise)"/>
            <path d="M434 1819H223V1821H434V1819Z" fill="#FOOTER_COLOR" fill-opacity="0.4" class="svgc_invert" filter="url(#filter_readability_theme_bewise)"/>
            <path d="M108 1845H70V1847H108V1845Z" fill="#FOOTER_COLOR" class="svgc_invert" filter="url(#filter_readability_theme_bewise)"/>
            <path d="M115 1851H70V1853H115V1851Z" fill="#FOOTER_COLOR" class="svgc_invert" filter="url(#filter_readability_theme_bewise)"/>
            <path d="M623 1851C626.866 1851 630 1847.87 630 1844C630 1840.13 626.866 1837 623 1837C619.134 1837 616 1840.13 616 1844C616 1847.87 619.134 1851 623 1851Z" fill="#FOOTER_COLOR" class="svgc_invert" filter="url(#filter_readability_theme_bewise)"/>
            <path d="M604 1851C607.866 1851 611 1847.87 611 1844C611 1840.13 607.866 1837 604 1837C600.134 1837 597 1840.13 597 1844C597 1847.87 600.134 1851 604 1851Z" fill="#FOOTER_COLOR" class="svgc_invert" filter="url(#filter_readability_theme_bewise)"/>
            <path d="M585 1851C588.866 1851 592 1847.87 592 1844C592 1840.13 588.866 1837 585 1837C581.134 1837 578 1840.13 578 1844C578 1847.87 581.134 1851 585 1851Z" fill="#FOOTER_COLOR" class="svgc_invert" filter="url(#filter_readability_theme_bewise)"/>
            <path d="M139.397 1807H70.2V1817H139.397V1807Z" fill="#FOOTER_COLOR" class="svgc_invert" filter="url(#filter_readability_theme_bewise)"/>
            <path d="M160.457 1820H70.2V1830H160.457V1820Z" fill="#FOOTER_COLOR" class="svgc_invert" filter="url(#filter_readability_theme_bewise)"/>
        </g>
        <g class="s_company_team_shapes">
            <rect x="2" y="1402" width="699" height="382" fill="#F6F6F6"/>
            <path d="M361.21 1551L700 1401H2L361.21 1551Z" fill="#FFFFFF"/>
            <rect x="171" y="1479.02" width="109" height="109" rx="11" fill="url(#theme_bewise_s_company_team_image_1_id)" class="img_reference_s_company_team_image_1"/>
            <rect x="171" y="1625.02" width="109" height="109" rx="11" fill="url(#theme_bewise_s_company_team_image_4_id)" class="img_reference_s_company_team_image_4"/>
            <path d="M351.5 1619.02C406 1619.02 406 1679.52 406 1679.52C406 1679.52 406 1679.52 406 1679.52V1723.02C406 1729.09 401.075 1734.02 395 1734.02H308C301.925 1734.02 297 1729.09 297 1723.02V1679.52C297 1679.52 297 1679.52 297 1679.52C297 1679.52 297 1619.02 351.5 1619.02Z" fill="url(#theme_bewise_s_company_team_image_5_id)" class="img_reference_s_company_team_image_5"/>
            <rect x="297" y="1479.02" width="109" height="109" rx="7" fill="url(#theme_bewise_s_company_team_image_2_id)" class="img_reference_s_company_team_image_2"/>
            <path d="M419 1485.7C419 1481.96 421.925 1478.94 425.654 1479.23C439.122 1480.25 470.697 1485.72 498.5 1513.52C526.424 1541.44 528.888 1570.24 528.504 1582.24C528.396 1585.61 525.549 1588.02 522.172 1588.02H426C422.134 1588.02 419 1584.89 419 1581.02V1485.7Z" fill="url(#theme_bewise_s_company_team_image_3_id)" class="img_reference_s_company_team_image_3"/>
            <circle cx="475.5" cy="1680.52" r="55.5" fill="url(#theme_bewise_s_company_team_image_6_id)" class="img_reference_s_company_team_image_6"></circle>
            <text xmlns="http://www.w3.org/2000/svg" fill="black" xml:space="preserve" style="white-space: pre" font-family="Darker Grotesque" font-size="22" font-weight="600" letter-spacing="0em" y="1447.4" x="50%" text-anchor="middle">Section Title</text>
        </g>
        <g class="s_masonry_block">
            <rect x="2" y="1114" width="700" height="240.804" fill="#FFFFFF"/>
            <g>
                <rect x="68" y="1114" width="209" height="265" fill="url(#theme_bewise_s_masonry_block_default_image_1_id)" class="img_reference_s_masonry_block_default_image_1"/>
            </g>
            <g>
                <rect x="285" y="1114" width="146" height="127.891" fill="#F6F6F6"/>
                <rect x="295" y="1207.33" width="71" height="11.5217" fill="#F6F6F6" fill-opacity="0.4" class="svgc_invert" filter="url(#filter_readability_theme_bewise)"/>
                <rect x="295" y="1224.61" width="54" height="5.76087" fill="#F6F6F6" fill-opacity="0.4" class="svgc_invert" filter="url(#filter_readability_theme_bewise)"/>
            </g>
            <g>
                <rect x="439" y="1114" width="197" height="127.891" rx="4" fill="#7C6576"/>
                <rect x="449" y="1207.33" width="71" height="11.5217" fill="#7C6576" fill-opacity="0.4" class="svgc_invert" filter="url(#filter_readability_theme_bewise)"/>
                <rect x="449" y="1224.61" width="54" height="5.76087" fill="#7C6576" fill-opacity="0.4" class="svgc_invert" filter="url(#filter_readability_theme_bewise)"/>
            </g>
            <g>
                <rect x="285" y="1251.11" width="197" height="127.891" rx="4" fill="#3AADAA"/>
                <rect x="295" y="1344.43" width="71" height="11.5217" fill="#3AADAA" fill-opacity="0.4" class="svgc_invert" filter="url(#filter_readability_theme_bewise)"/>
                <rect x="295" y="1361.72" width="54" height="5.76087" fill="#3AADAA" fill-opacity="0.4" class="svgc_invert" filter="url(#filter_readability_theme_bewise)"/>
            </g>
            <g>
                <rect x="490" y="1251.11" width="146" height="127.891" rx="4" fill="#F6F6F6"/>
                <rect x="500" y="1344.43" width="71" height="11.5217" fill="#F6F6F6" fill-opacity="0.4" class="svgc_invert" filter="url(#filter_readability_theme_bewise)"/>
                <rect x="500" y="1361.72" width="54" height="5.76087" fill="#F6F6F6" fill-opacity="0.4" class="svgc_invert" filter="url(#filter_readability_theme_bewise)"/>
            </g>
        </g>
        <g class="s_faq_collapse">
            <text fill="#FFFFFF" xml:space="preserve" style="white-space: pre" font-family="Darker Grotesque" font-size="24" font-weight="600" letter-spacing="0em" class="svgc_invert" filter="url(#filter_readability_theme_bewise)">
                <tspan x="71.7949" y="966.668">Section title</tspan>
            </text>
            <g>
                <rect x="311" y="947" width="202" height="4" fill="#FFFFFF" class="svgc_invert" filter="url(#filter_readability_theme_bewise)"/>
                <rect x="311" y="974" width="323" height="2" fill="#FFFFFF" fill-opacity="0.4" class="svgc_invert" filter="url(#filter_readability_theme_bewise)"/>
                <rect x="311" y="986" width="332" height="2" fill="#FFFFFF" fill-opacity="0.4" class="svgc_invert" filter="url(#filter_readability_theme_bewise)"/>
                <rect x="311" y="998" width="112" height="2" fill="#FFFFFF" fill-opacity="0.4" class="svgc_invert" filter="url(#filter_readability_theme_bewise)"/>
                <g>
                    <path d="M642 945.714L646 949.724L645.44 950.286L642 946.837L638.56 950.286L638 949.724L642 945.714Z" fill="black"/>
                </g>
                <path d="M658 1021H311" stroke="black" stroke-opacity="0.4"/>
            </g>
            <g>
                <rect x="311" y="1033" width="132" height="4" fill="#FFFFFF" class="svgc_invert" filter="url(#filter_readability_theme_bewise)"/>
                <g clip-path="url(#clip1_220_5)">
                    <path d="M642 1038.29L638 1034.28L638.56 1033.71L642 1037.16L645.44 1033.71L646 1034.28L642 1038.29Z" fill="black"/>
                </g>
                <path d="M658 1049H311" stroke="black" stroke-opacity="0.4"/>
            </g>
            <g>
                <g clip-path="url(#clip2_220_5)">
                    <path d="M642 1066.29L638 1062.28L638.56 1061.71L642 1065.16L645.44 1061.71L646 1062.28L642 1066.29Z" fill="black"/>
                </g>
                <g>
                    <rect x="311" y="1061" width="94" height="4" fill="#FFFFFF" class="svgc_invert" filter="url(#filter_readability_theme_bewise)"/>
                </g>
            </g>
        </g>
        <g class="s_color_blocks_2">
            <g>
                <rect x="349.501" y="671" width="349.501" height="235" fill="url(#theme_bewise_s_media_list_default_image_2_id)" class="img_reference_s_media_list_default_image_2"/>
                <rect x="349.501" y="671" width="350.499" height="235" fill="black" fill-opacity="0.34"/>
                <g>
                    <rect x="555.207" y="784.066" width="98.8588" height="1.47799" fill="#FDFDFD" fill-opacity="0.4"/>
                    <rect x="555.207" y="791.456" width="80.3852" height="1.47799" fill="#FDFDFD" fill-opacity="0.4"/>
                    <rect x="555.207" y="798.846" width="97.8602" height="1.47799" fill="#FDFDFD" fill-opacity="0.4"/>
                    <rect x="555.207" y="807.714" width="54.9215" height="1.47799" fill="#FDFDFD" fill-opacity="0.4"/>
                </g>
                <g>
                    <rect x="421.897" y="769.286" width="86.8759" height="1.47799" fill="#F7F7F7" fill-opacity="0.4"/>
                    <rect x="421.897" y="776.676" width="96.8616" height="1.47799" fill="#F7F7F7" fill-opacity="0.4"/>
                    <rect x="421.897" y="784.066" width="92.8673" height="1.47799" fill="#F7F7F7" fill-opacity="0.4"/>
                    <rect x="421.897" y="791.456" width="96.8616" height="1.47799" fill="#F7F7F7" fill-opacity="0.4"/>
                    <rect x="421.897" y="798.846" width="80.8845" height="1.47799" fill="#F7F7F7" fill-opacity="0.4"/>
                    <rect x="421.897" y="806.236" width="93.3666" height="1.47799" fill="#F7F7F7" fill-opacity="0.4"/>
                    <rect x="421.897" y="813.626" width="68.9016" height="1.47799" fill="#F7F7F7" fill-opacity="0.4"/>
                </g>
                <text fill="#FFFFFF" xml:space="preserve" style="white-space: pre" font-family="Darker Grotesque" font-size="20" font-weight="600" letter-spacing="0em">
                    <tspan x="422.397" y="748.821">Entry Title</tspan>
                </text>
            </g>
            <g>
                <rect x="0.998535" y="671" width="348.502" height="235" fill="url(#theme_bewise_s_media_list_default_image_1_id)" class="img_reference_s_media_list_default_image_1"/>
                <rect y="671" width="349.501" height="235" fill="black" fill-opacity="0.34"/>
                <g>
                    <rect x="204.708" y="784.066" width="98.8588" height="1.47799" fill="#FDFDFD" fill-opacity="0.4"/>
                    <rect x="204.708" y="791.456" width="80.3852" height="1.47799" fill="#FDFDFD" fill-opacity="0.4"/>
                    <rect x="204.708" y="798.846" width="97.8602" height="1.47799" fill="#FDFDFD" fill-opacity="0.4"/>
                    <rect x="204.708" y="807.714" width="54.9215" height="1.47799" fill="#FDFDFD" fill-opacity="0.4"/>
                </g>
                <g>
                    <rect x="71.3979" y="769.286" width="86.8759" height="1.47799" fill="#FEFEFE" fill-opacity="0.4"/>
                    <rect x="71.3979" y="776.676" width="96.8616" height="1.47799" fill="#FEFEFE" fill-opacity="0.4"/>
                    <rect x="71.3979" y="784.066" width="92.8673" height="1.47799" fill="#FEFEFE" fill-opacity="0.4"/>
                    <rect x="71.3979" y="791.456" width="96.8616" height="1.47799" fill="#FEFEFE" fill-opacity="0.4"/>
                    <rect x="71.3979" y="798.846" width="80.8845" height="1.47799" fill="#FEFEFE" fill-opacity="0.4"/>
                    <rect x="71.3979" y="806.236" width="93.3666" height="1.47799" fill="#FEFEFE" fill-opacity="0.4"/>
                    <rect x="71.3979" y="813.626" width="68.9016" height="1.47799" fill="#FEFEFE" fill-opacity="0.4"/>
                </g>
                <text fill="#383E45" xml:space="preserve" style="white-space: pre" font-family="Darker Grotesque" font-size="20" font-weight="600" letter-spacing="0em" class="svgc_invert" filter="url(#filter_readability_theme_bewise)">
                    <tspan x="70.8987" y="748.821">Entry Title</tspan>
                </text>
            </g>
        </g>
        <g class="s_title">
            <text xmlns="http://www.w3.org/2000/svg" fill="#F6F6F6" xml:space="preserve" style="white-space: pre" font-family="Darker Grotesque" font-size="25" font-weight="600" letter-spacing="0em" class="svgc_invert" filter="url(#filter_readability_theme_bewise)" y="639.55" x="50%" text-anchor="middle">Section Title</text>
        </g>
        <g class="s_striped_center_top">
            <rect y="37" width="700" height="366" fill="#7C6576"/>
            <rect x="312" y="168" width="76" height="26" rx="4" fill="#3AADAA"/>
            <rect x="210" y="126" width="280" height="2" fill="#383E45" fill-opacity="0.4" class="svgc_invert" filter="url(#filter_readability_theme_bewise)"/>
            <rect x="257.5" y="142" width="185" height="2" fill="#383E45" fill-opacity="0.4" class="svgc_invert" filter="url(#filter_readability_theme_bewise)"/>
            <rect x="257.5" y="531" width="185" height="2" fill="#FFFFFF" fill-opacity="0.4" class="svgc_invert" filter="url(#filter_readability_theme_bewise)"/>
            <rect x="129" y="243" width="443" height="278" fill="url(#theme_bewise_s_picture_default_image_id)" class="img_reference_s_picture_default_image"/>
            <text xmlns="http://www.w3.org/2000/svg" fill="#383E45" xml:space="preserve" style="white-space: pre" font-family="Darker Grotesque" font-size="28" font-weight="bold" letter-spacing="0em" class="svgc_invert" filter="url(#filter_readability_theme_bewise)" y="98.696" x="50%" text-anchor="middle">Welcome message</text>
        </g>
        <g class="svgc_menu">
            <rect width="700" height="37" fill="#MENU_COLOR" class="svgc_menu_bg"></rect>
            <rect opacity="0.3" x="103" y="14" width="36" height="9.86667" fill="#MENU_COLOR" class="svgc_invert" filter="url(#filter_readability_theme_bewise)"></rect>
            <rect opacity="0.3" x="146" y="14" width="36" height="9.86667" fill="#MENU_COLOR" class="svgc_invert" filter="url(#filter_readability_theme_bewise)"></rect>
            <rect opacity="0.3" x="189" y="14" width="36" height="9.86667" fill="#MENU_COLOR" class="svgc_invert" filter="url(#filter_readability_theme_bewise)"></rect>
            <rect opacity="0.3" x="631" y="13.5667" width="36" height="9.86667" fill="#MENU_COLOR" class="svgc_invert" filter="url(#filter_readability_theme_bewise)"></rect>
            <rect opacity="0.3" x="586" y="13.5667" width="36" height="9.86667" fill="#MENU_COLOR" class="svgc_invert" filter="url(#filter_readability_theme_bewise)"></rect>
            <g class="svgc_invert" fill="#MENU_COLOR" filter="url(#filter_readability_theme_bewise)">
                <path d="M32.5332 26V11.8008H35.4238V23.5879H42.6113V26H32.5332Z" fill="black"></path>
                <path d="M44.0957 18.9297C44.0957 17.4714 44.3138 16.2474 44.75 15.2578C45.0755 14.5286 45.5182 13.8743 46.0781 13.2949C46.6445 12.7155 47.263 12.2858 47.9336 12.0059C48.8255 11.6283 49.8542 11.4395 51.0195 11.4395C53.1289 11.4395 54.8151 12.0938 56.0781 13.4023C57.3477 14.7109 57.9824 16.5306 57.9824 18.8613C57.9824 21.1725 57.3542 22.9824 56.0977 24.291C54.8411 25.5931 53.1615 26.2441 51.0586 26.2441C48.9297 26.2441 47.237 25.5964 45.9805 24.3008C44.724 22.9987 44.0957 21.2083 44.0957 18.9297ZM47.0742 18.832C47.0742 20.4531 47.4486 21.6836 48.1973 22.5234C48.946 23.3568 49.8965 23.7734 51.0488 23.7734C52.2012 23.7734 53.1452 23.36 53.8809 22.5332C54.623 21.6999 54.9941 20.4531 54.9941 18.793C54.9941 17.1523 54.6328 15.9284 53.9102 15.1211C53.194 14.3138 52.2402 13.9102 51.0488 13.9102C49.8574 13.9102 48.8971 14.3203 48.168 15.1406C47.4388 15.9544 47.0742 17.1849 47.0742 18.832Z" fill="black"></path>
                <path d="M66.9082 20.7363V18.3242H73.1387V24.0273C72.5332 24.6133 71.6543 25.1309 70.502 25.5801C69.3561 26.0228 68.194 26.2441 67.0156 26.2441C65.5182 26.2441 64.2129 25.9316 63.0996 25.3066C61.9863 24.6751 61.1497 23.7767 60.5898 22.6113C60.0299 21.4395 59.75 20.1667 59.75 18.793C59.75 17.3021 60.0625 15.9772 60.6875 14.8184C61.3125 13.6595 62.2272 12.7708 63.4316 12.1523C64.3496 11.6771 65.4922 11.4395 66.8594 11.4395C68.6367 11.4395 70.0234 11.8138 71.0195 12.5625C72.0221 13.3047 72.6667 14.3333 72.9531 15.6484L70.082 16.1855C69.8802 15.4824 69.4993 14.929 68.9395 14.5254C68.3861 14.1152 67.6927 13.9102 66.8594 13.9102C65.5964 13.9102 64.5905 14.3105 63.8418 15.1113C63.0996 15.9121 62.7285 17.1003 62.7285 18.6758C62.7285 20.375 63.1061 21.651 63.8613 22.5039C64.6165 23.3503 65.6061 23.7734 66.8301 23.7734C67.4355 23.7734 68.041 23.6562 68.6465 23.4219C69.2585 23.181 69.7826 22.8913 70.2188 22.5527V20.7363H66.9082Z" fill="black"></path>
                <path d="M75.2285 18.9297C75.2285 17.4714 75.4466 16.2474 75.8828 15.2578C76.2083 14.5286 76.651 13.8743 77.2109 13.2949C77.7773 12.7155 78.3958 12.2858 79.0664 12.0059C79.9583 11.6283 80.987 11.4395 82.1523 11.4395C84.2617 11.4395 85.9479 12.0938 87.2109 13.4023C88.4805 14.7109 89.1152 16.5306 89.1152 18.8613C89.1152 21.1725 88.487 22.9824 87.2305 24.291C85.974 25.5931 84.2943 26.2441 82.1914 26.2441C80.0625 26.2441 78.3698 25.5964 77.1133 24.3008C75.8568 22.9987 75.2285 21.2083 75.2285 18.9297ZM78.207 18.832C78.207 20.4531 78.5814 21.6836 79.3301 22.5234C80.0788 23.3568 81.0293 23.7734 82.1816 23.7734C83.334 23.7734 84.278 23.36 85.0137 22.5332C85.7559 21.6999 86.127 20.4531 86.127 18.793C86.127 17.1523 85.7656 15.9284 85.043 15.1211C84.3268 14.3138 83.373 13.9102 82.1816 13.9102C80.9902 13.9102 80.0299 14.3203 79.3008 15.1406C78.5716 15.9544 78.207 17.1849 78.207 18.832Z" fill="black"></path>
            </g>
        </g>
    </g>
</svg>