<svg width="700" height="1850" viewBox="0 0 700 1850" fill="none" xmlns="http://www.w3.org/2000/svg">>
    <defs>
        <pattern width="1" height="1" id="theme_vehicle_s_cover_default_image_id" patternunits="objectBoundingBox">
            <image width="700" height="398" preserveAspectRatio="xMidYMid slice" href="#s_cover_default_image_url"></image>
        </pattern>
        <pattern width="1" height="1" id="theme_vehicle_s_text_image_default_image_id" patternunits="objectBoundingBox">
            <image width="182" height="165" preserveAspectRatio="xMidYMid slice" href="#s_text_image_default_image_url"></image>
        </pattern>
        <pattern width="1" height="1" id="theme_vehicle_s_image_text_default_image_id" patternunits="objectBoundingBox">
            <image width="182" height="165" preserveAspectRatio="xMidYMid slice" href="#s_image_text_default_image_url"></image>
        </pattern>
        <pattern width="1" height="1" id="theme_vehicle_s_picture_default_image_id" patternunits="objectBoundingBox">
            <image width="700" height="455" preserveAspectRatio="xMidYMid slice" href="#s_picture_default_image_url"></image>
        </pattern>
        <pattern width="1" height="1" id="theme_vehicle_s_masonry_block_default_image_1_id" patternunits="objectBoundingBox">
            <image width="350" height="225" preserveAspectRatio="xMidYMid slice" href="#s_masonry_block_default_image_1_url"></image>
        </pattern>
        <pattern width="1" height="1" id="theme_vehicle_s_parallax_default_image_id" patternunits="objectBoundingBox">
            <image width="178" height="225" preserveAspectRatio="xMidYMid slice" href="#s_parallax_default_image_url"></image>
        </pattern>

        <clipPath id="clip0">
            <rect width="700" height="1850" fill="#FFFFFF"/>
        </clipPath>
        <clipPath id="clip1">
            <rect width="250" height="154" fill="#FFFFFF" transform="translate(450 1651)"/>
        </clipPath>
        <filter id="filter_readability_vehicle">
            <feColorMatrix in="SourceGraphic" type="saturate" values="0"/>
            <feComponentTransfer>
                <feFuncR type="table" tableValues="1 0"/>
                <feFuncG type="table" tableValues="1 0"/>
                <feFuncB type="table" tableValues="1 0"/>
            </feComponentTransfer>
            <feComponentTransfer>
                <feFuncR type="linear" slope="10000" intercept="-4999.5"/>
                <feFuncG type="linear" slope="10000" intercept="-4999.5"/>
                <feFuncB type="linear" slope="10000" intercept="-4999.5"/>
            </feComponentTransfer>
        </filter>
    </defs>
    <g fill="none" fill-rule="evenodd" class="theme_vehicle">
        <rect width="700" height="1850" fill="#FFFFFF"/>
        <g class="svgc_menu">
            <!-- Menu Background -->
            <rect class="svgc_menu_bg" fill="#MENU_COLOR" width="700" height="38"></rect>
            <!-- Logo -->
            <path d="M72.0813 13.236V22.994H76.7393L76.4673 25H69.5823V13.236H72.0813ZM82.1423 12.964C83.2189 12.964 84.1483 13.2077 84.9303 13.695C85.7123 14.171 86.3129 14.868 86.7323 15.786C87.1516 16.704 87.3613 17.8147 87.3613 19.118C87.3613 20.3987 87.1516 21.5037 86.7323 22.433C86.3129 23.351 85.7123 24.0537 84.9303 24.541C84.1483 25.0283 83.2189 25.272 82.1423 25.272C81.0656 25.272 80.1306 25.034 79.3373 24.558C78.5553 24.0707 77.9546 23.368 77.5353 22.45C77.1159 21.5207 76.9063 20.41 76.9063 19.118C76.9063 17.8487 77.1159 16.755 77.5353 15.837C77.9659 14.9077 78.5723 14.1993 79.3543 13.712C80.1476 13.2133 81.0769 12.964 82.1423 12.964ZM82.1423 14.834C81.2809 14.834 80.6293 15.174 80.1873 15.854C79.7566 16.534 79.5413 17.622 79.5413 19.118C79.5413 20.614 79.7623 21.702 80.2043 22.382C80.6463 23.062 81.2923 23.402 82.1423 23.402C83.0036 23.402 83.6496 23.0677 84.0803 22.399C84.5109 21.719 84.7263 20.6253 84.7263 19.118C84.7263 17.6107 84.5109 16.5227 84.0803 15.854C83.6496 15.174 83.0036 14.834 82.1423 14.834ZM94.1682 12.964C94.9615 12.964 95.6642 13.0887 96.2762 13.338C96.8995 13.576 97.4775 13.9217 98.0102 14.375L96.7012 15.735C96.2818 15.4177 95.8852 15.1853 95.5112 15.038C95.1485 14.8907 94.7348 14.817 94.2702 14.817C93.3748 14.817 92.6495 15.174 92.0942 15.888C91.5502 16.5907 91.2782 17.6673 91.2782 19.118C91.2782 20.648 91.4878 21.7473 91.9072 22.416C92.3378 23.0733 93.0008 23.402 93.8962 23.402C94.5422 23.402 95.1258 23.2603 95.6472 22.977V20.104H93.9982L93.7432 18.285H98.0782V24.082C97.4662 24.456 96.8032 24.7507 96.0892 24.966C95.3865 25.17 94.6725 25.272 93.9472 25.272C92.2132 25.272 90.8985 24.7507 90.0032 23.708C89.1078 22.6653 88.6602 21.1297 88.6602 19.101C88.6602 17.8203 88.9038 16.7153 89.3912 15.786C89.8785 14.8567 90.5358 14.154 91.3632 13.678C92.2018 13.202 93.1368 12.964 94.1682 12.964ZM104.787 12.964C105.863 12.964 106.793 13.2077 107.575 13.695C108.357 14.171 108.957 14.868 109.377 15.786C109.796 16.704 110.006 17.8147 110.006 19.118C110.006 20.3987 109.796 21.5037 109.377 22.433C108.957 23.351 108.357 24.0537 107.575 24.541C106.793 25.0283 105.863 25.272 104.787 25.272C103.71 25.272 102.775 25.034 101.982 24.558C101.2 24.0707 100.599 23.368 100.18 22.45C99.7605 21.5207 99.5508 20.41 99.5508 19.118C99.5508 17.8487 99.7605 16.755 100.18 15.837C100.61 14.9077 101.217 14.1993 101.999 13.712C102.792 13.2133 103.721 12.964 104.787 12.964ZM104.787 14.834C103.925 14.834 103.274 15.174 102.832 15.854C102.401 16.534 102.186 17.622 102.186 19.118C102.186 20.614 102.407 21.702 102.849 22.382C103.291 23.062 103.937 23.402 104.787 23.402C105.648 23.402 106.294 23.0677 106.725 22.399C107.155 21.719 107.371 20.6253 107.371 19.118C107.371 17.6107 107.155 16.5227 106.725 15.854C106.294 15.174 105.648 14.834 104.787 14.834Z" opacity="1" fill="#MENU_COLOR" class="svgc_text" filter="url(#filter_readability_vehicle)"/>
            <!-- Menu Links -->
            <g opacity=".5">
                <rect x="138" y="15" width="40" height="10" fill="#MENU_COLOR" class="svgc_text" filter="url(#filter_readability_vehicle)"/>
                <rect x="190" y="15" width="40" height="10" fill="#MENU_COLOR" class="svgc_text" filter="url(#filter_readability_vehicle)"/>
                <rect x="242" y="15" width="40" height="10" fill="#MENU_COLOR" class="svgc_text" filter="url(#filter_readability_vehicle)"/>
                <rect x="294" y="15" width="40" height="10" fill="#MENU_COLOR" class="svgc_text" filter="url(#filter_readability_vehicle)"/>
            </g>
            <!-- Menu Button -->
            <rect x="592" y="14" width="40" height="12" opacity="1" fill="#MENU_COLOR" class="svgc_text" filter="url(#filter_readability_vehicle)"/>
        </g>
        <g class="s_cover">
            <!-- Background Image -->
            <rect y="38" width="700" height="398" fill="url(#theme_vehicle_s_cover_default_image_id)" class="img_reference_s_cover_default_image"></rect>
            <!-- Filter -->
            <rect y="38" width="700" height="398" fill="#000000" fill-opacity="0.3"/>
            <!-- Text -->
            <rect x="237" y="177" width="226" height="7" fill="#FFFFFD" fill-opacity="0.66"/>
            <rect x="259" y="194" width="181" height="7" fill="#FFFFFD" fill-opacity="0.66"/>
            <!-- Title -->
            <text x="350" y="160" text-anchor="middle" fill="#FFFFFF" font-size="34" font-family="Lovtony" font-weight="bold">Welcome Message</text>
            <!-- Button -->
            <rect width="89" height="24" transform="translate(305 225)" fill="#3AADAA"/>

        </g>
        <g class="s_text_image">
            <!-- Background Image -->
            <rect y="436" width="700" height="289" fill="#FFFFFF"/>
            <!-- Title -->
            <text x="70" y="576" fill="#000000" font-size="20" font-family="Lovtony" font-weight="bold">A Section Title</text>
            <!-- Sub-title -->
            <rect x="68" y="547" width="72" height="5" fill="#3AADAA"/>
            <!-- Text -->
            <rect x="68.162" y="592.454" width="254" height="5" fill="#000" fill-opacity="0.33"/>
            <rect x="68.162" y="602.454" width="233.563" height="5" fill="#000" fill-opacity="0.33"/>
            <rect x="68.162" y="612.454" width="175.172" height="5" fill="#000" fill-opacity="0.33"/>
            <rect x="68.162" y="622.454" width="248.161" height="5" fill="#000" fill-opacity="0.33"/>
            <rect x="68.162" y="632.454" width="191.23" height="5" fill="#000" fill-opacity="0.33"/>
            <!-- Button -->
            <rect width="66" height="20" transform="translate(68.162 656.454)" fill="#3AADAA"/>
            <!-- Image -->
            <g>
                <path d="M421 531H594V675L421 531Z" fill="#3AADAA"/>
                <path d="M399 541H581V706L399 670.144V541Z" fill="url(#theme_vehicle_s_text_image_default_image_id)" class="img_reference_s_text_image_default_image" />
                <path d="M387.418 662.9H388.836L388.127 664.124L387.418 665.347L386.709 664.124L386 662.9H387.418Z" fill="#383E45"/>
                <path d="M403.514 662.9H404.932L404.223 664.124L403.514 665.347L402.805 664.124L402.096 662.9H403.514Z" fill="#383E45"/>
                <path d="M419.61 662.9H421.028L420.319 664.124L419.61 665.347L418.901 664.124L418.192 662.9H419.61Z" fill="#383E45"/>
                <path d="M387.418 676.467H388.836L388.127 677.691L387.418 678.915L386.709 677.691L386 676.467H387.418Z" fill="#383E45"/>
                <path d="M403.514 676.467H404.932L404.223 677.691L403.514 678.915L402.805 677.691L402.096 676.467H403.514Z" fill="#383E45"/>
                <path d="M419.61 676.467H421.028L420.319 677.691L419.61 678.915L418.901 677.691L418.192 676.467H419.61Z" fill="#383E45"/>
                <path d="M387.418 690.035H388.836L388.127 691.259L387.418 692.5L386.709 691.259L386 690.035H387.418Z" fill="#383E45"/>
                <path d="M403.514 690.035H404.932L404.223 691.259L403.514 692.5L402.805 691.259L402.096 690.035H403.514Z" fill="#383E45"/>
                <path d="M419.61 690.035H421.028L420.319 691.259L419.61 692.5L418.901 691.259L418.192 690.035H419.61Z" fill="#383E45"/> -->
            </g>
        </g>
        <g class="s_image_text">
            <!-- Background Image -->
            <rect y="725" width="700" height="331" fill="#FFFFFF"/>
            <!-- Title -->
            <text x="350" y="836" fill="#000000" font-size="20" font-family="Lovtony" font-weight="bold">A Section Title</text>
            <rect x="350" y="809" width="72" height="5" fill="#3AADAA"/>
            <!-- Text -->
            <rect x="350.162" y="852.454" width="254" height="5" fill="#000" fill-opacity="0.33"/>
            <rect x="350.162" y="862.454" width="233.563" height="5" fill="#000" fill-opacity="0.33"/>
            <rect x="350.162" y="872.454" width="175.172" height="5" fill="#000" fill-opacity="0.33"/>
            <rect x="350.162" y="882.454" width="248.161" height="5" fill="#000" fill-opacity="0.33"/>
            <rect x="350.162" y="892.454" width="191.23" height="5" fill="#000" fill-opacity="0.33"/>
            <!-- Button -->
            <rect width="66" height="20" transform="translate(350.162 916.454)" fill="#3AADAA"/>
            <!-- Image+Shape-->
            <g>
                <rect x="68" y="790" width="173" height="144" fill="#383E45"/>
                <path d="M263 801H81V966L263 930.144V801Z" fill="url(#theme_vehicle_s_image_text_default_image_id)" class="img_reference_s_image_text_default_image"/>/>
                <path d="M209.418 934.9H210.836L210.127 936.124L209.418 937.347L208.709 936.124L208 934.9H209.418Z" fill="#3AADAA"/>
                <rect x="208" y="934" width="3" height="3" fill="#3AADAA"/>
                <rect x="208" y="948" width="3" height="3" fill="#3AADAA"/>
                <rect x="208" y="962" width="3" height="3" fill="#3AADAA"/>
                <rect x="224" y="934" width="3" height="3" fill="#3AADAA"/>
                <rect x="224" y="948" width="3" height="3" fill="#3AADAA"/>
                <rect x="224" y="962" width="3" height="3" fill="#3AADAA"/>
                <rect x="240" y="934" width="3" height="3" fill="#3AADAA"/>
                <rect x="240" y="948" width="3" height="3" fill="#3AADAA"/>
                <rect x="240" y="962" width="3" height="3" fill="#3AADAA"/>
                <rect x="256" y="934" width="3" height="3" fill="#3AADAA"/>
                <rect x="256" y="948" width="3" height="3" fill="#3AADAA"/>
                <rect x="256" y="962" width="3" height="3" fill="#3AADAA"/>
            </g>
        </g>
        <g class="s_picture">
            <!-- Background Image -->
            <rect y="1056" width="700" height="370" fill="url(#theme_vehicle_s_picture_default_image_id)" class="img_reference_s_picture_default_image"/>
            <!-- Filter -->
            <rect y="1056" width="700" height="370" fill="#000" fill-opacity="0.5"/>
            <!-- Title -->
            <text x="350" y="1111" text-anchor="middle" fill="#FFFFFD" font-size="20" font-family="Lovtony" font-weight="bold">A Section Title</text>
            <!-- Text -->
            <rect x="237" y="1129" width="226" height="7" fill="#FFFFFD" fill-opacity="0.66"/>
            <rect x="259" y="1144" width="180" height="7" fill="#FFFFFD" fill-opacity="0.66"/>
            <rect x="114" y="1390" width="472" height="7" fill="#FFFFFD" fill-opacity="0.66"/>
        </g>
        <g class="s_masonry">
            <!-- Background Image -->
            <rect y="1651" width="700" height="154" fill="#383E45"/>
            <!-- Image Left -->
            <rect x="350" y="1426" width="350" height="225" fill="url(#theme_vehicle_s_masonry_block_default_image_1_id)" class="img_reference_s_masonry_block_default_image_1"/>
            <rect x="177" y="1426" width="174" height="112.5" fill="#F6F6F6"/>
            <text x="268" y="1488" text-anchor="middle" fill="#000000" font-size="20" font-family="Lovtony" font-weight="bold">Entry Title</text>
            <rect x="177" y="1539" width="174" height="112" fill="#3AADAA"/>
            <text x="268" y="1600" text-anchor="middle" fill="#FFFFFD" font-size="20" font-family="Lovtony" font-weight="bold">Entry Title</text>
            <rect y="1426" width="178" height="225" fill="url(#theme_vehicle_s_parallax_default_image_id)" class="img_reference_s_parallax_default_image"/>
            <rect y="1651" width="700" height="154" fill="#383E45"/>
        </g>
        <g class="s_call_to_action">
            <!-- Background Image -->
            <rect y="1651" width="700" height="154" fill="#383E45"/>
            <rect y="1651" width="700" height="154" fill="#000" fill-opacity=".20"/>
            <!-- Shape -->
            <g clip-path="url(#clip1)">
                <path d="M846.873 1872.54C827.882 1872.54 806.145 1870.48 784.018 1866.62C746 1859.96 716.673 1849.43 688.314 1839.24C684.382 1837.83 680.318 1836.36 676.336 1834.96L673.609 1833.97C658.505 1828.52 644.241 1823.38 634.777 1817.57C623.091 1810.38 623.364 1804.72 624.909 1800.6C626.696 1795.81 631.941 1789.7 637.495 1783.23C644.768 1774.77 653 1765.18 657.495 1754.41C662.9 1741.45 661.782 1729.45 654.086 1717.72C640.527 1697.06 604.046 1674.85 574.736 1657.01C557.918 1646.78 538.9 1635.19 536.527 1630.5L536.482 1630.42C536.345 1630.16 536.705 1629.67 537.032 1629.3C539.641 1626.4 548.777 1621.89 566.577 1617.95C583.745 1614.24 601.507 1612.31 619.368 1612.24C630 1612.24 639.555 1613.01 647.773 1614.52C654.382 1615.74 660.432 1616.91 666.282 1618.03C688.1 1622.24 705.332 1625.56 722.346 1625.56C733.973 1625.56 744.946 1624.05 756.891 1620.82C770.7 1617.07 786.891 1615 802.541 1615C820.223 1615 832.191 1617.6 836.214 1620.18L836.3 1620.24C836.418 1620.35 837.446 1621.43 837.441 1626.02C837.441 1629.96 836.714 1634.97 835.873 1640.78C833.6 1656.57 830.459 1678.21 840.5 1696.69V1696.73C850.177 1714.15 871.023 1728.4 891.182 1742.19C908.268 1753.87 925.932 1765.94 935.727 1779.41C945.214 1792.65 947.85 1808.47 943.155 1823.93C938.609 1838.86 927.432 1852.03 912.45 1860.08C896.709 1868.35 874.636 1872.54 846.873 1872.54Z" stroke="#FFFFFF" stroke-width="2"/>
                <path d="M941.746 1776.97C963.273 1807.02 950.223 1846.15 916.405 1864.29C882.109 1882.27 826.691 1879.35 782.473 1871.62C738.255 1863.88 705.45 1850.94 673.382 1839.6C641.691 1828.15 611.341 1817.85 618.309 1799.21C625.277 1780.58 669.923 1753.51 647.927 1720C625.932 1686.49 537.45 1646.8 530.132 1632.34C522.336 1617.71 601.496 1600.71 649.391 1609.54C697.286 1618.37 720.114 1625.33 754.568 1616C788.659 1606.76 829.159 1608.94 840.623 1616.3C852.441 1623.56 830.091 1664.01 846.795 1694.77C863.982 1725.7 919.736 1746.76 941.746 1776.97Z" stroke="#FFFFFF" stroke-width="4"/>
                <path d="M846.873 1888.96C826.241 1888.96 802.782 1886.77 779.073 1882.62C738.745 1875.56 708.332 1864.63 678.918 1854.07C675.005 1852.66 670.959 1851.21 667.023 1849.81L664.173 1848.79C647.859 1842.91 632.45 1837.35 620.991 1830.31C613.718 1825.86 608.718 1821.19 605.677 1816.08C601.923 1809.78 601.327 1803.08 603.914 1796.16C606.596 1788.99 612.709 1781.87 619.182 1774.33C626 1766.38 633.077 1758.15 636.677 1749.51C640.368 1740.66 639.682 1732.87 634.527 1725.02C623.064 1707.57 588.636 1686.62 560.995 1669.79C534.545 1653.68 520.486 1644.86 516.164 1636.45C513.332 1631.05 514.318 1625.25 518.936 1620.1C525.432 1612.87 539.391 1606.85 560.418 1602.19C579.578 1598.02 599.417 1595.87 619.364 1595.81C631.741 1595.81 643.041 1596.74 652.959 1598.55C659.677 1599.79 665.786 1600.97 671.691 1602.11C692.818 1606.19 708.082 1609.13 722.341 1609.13C731.368 1609.13 739.991 1607.93 749.482 1605.36C765.605 1600.99 784.441 1598.59 802.527 1598.59C831.573 1598.59 844.855 1604.21 850.255 1607.62C861.618 1614.69 859.8 1627 857.568 1642.57C855.427 1657.39 852.759 1675.82 860.677 1690.45C868.495 1704.48 886.655 1716.89 905.877 1730.04C924.3 1742.63 943.35 1755.65 954.918 1771.54L954.964 1771.61C966.973 1788.37 970.345 1808.25 964.468 1827.61C958.677 1846.69 944.705 1862.98 925.127 1873.49L924.991 1873.55C905.455 1883.78 879.195 1888.96 846.873 1888.96Z" stroke="#FFFFFF" stroke-width="6"/>
                <path d="M846.873 1872.54C827.882 1872.54 806.145 1870.48 784.018 1866.62C746 1859.96 716.673 1849.43 688.314 1839.24C684.382 1837.83 680.318 1836.36 676.336 1834.96L673.609 1833.97C658.505 1828.52 644.241 1823.38 634.777 1817.57C623.091 1810.38 623.364 1804.72 624.909 1800.6C626.696 1795.81 631.941 1789.7 637.495 1783.23C644.768 1774.77 653 1765.18 657.495 1754.41C662.9 1741.45 661.782 1729.45 654.086 1717.72C640.527 1697.06 604.046 1674.85 574.736 1657.01C557.918 1646.78 538.9 1635.19 536.527 1630.5L536.482 1630.42C536.345 1630.16 536.705 1629.67 537.032 1629.3C539.641 1626.4 548.777 1621.89 566.577 1617.95C583.745 1614.24 601.507 1612.31 619.368 1612.24C630 1612.24 639.555 1613.01 647.773 1614.52C654.382 1615.74 660.432 1616.91 666.282 1618.03C688.1 1622.24 705.332 1625.56 722.346 1625.56C733.973 1625.56 744.946 1624.05 756.891 1620.82C770.7 1617.07 786.891 1615 802.541 1615C820.223 1615 832.191 1617.6 836.214 1620.18L836.3 1620.24C836.418 1620.35 837.446 1621.43 837.441 1626.02C837.441 1629.96 836.714 1634.97 835.873 1640.78C833.6 1656.57 830.459 1678.21 840.5 1696.69V1696.73C850.177 1714.15 871.023 1728.4 891.182 1742.19C908.268 1753.87 925.932 1765.94 935.727 1779.41C945.214 1792.65 947.85 1808.47 943.155 1823.93C938.609 1838.86 927.432 1852.03 912.45 1860.08C896.709 1868.35 874.636 1872.54 846.873 1872.54Z" stroke="#FFFFFF" stroke-width="2" stroke-linecap="round" stroke-linejoin="round"/>
                <path d="M941.746 1776.97C963.273 1807.02 950.223 1846.15 916.405 1864.29C882.109 1882.27 826.691 1879.35 782.473 1871.62C738.255 1863.88 705.45 1850.94 673.382 1839.6C641.691 1828.15 611.341 1817.85 618.309 1799.21C625.277 1780.58 669.923 1753.51 647.927 1720C625.932 1686.49 537.45 1646.8 530.132 1632.34C522.336 1617.71 601.496 1600.71 649.391 1609.54C697.286 1618.37 720.114 1625.33 754.568 1616C788.659 1606.76 829.159 1608.94 840.623 1616.3C852.441 1623.56 830.091 1664.01 846.795 1694.77C863.982 1725.7 919.736 1746.76 941.746 1776.97Z" stroke="#FFFFFF" stroke-width="5" stroke-miterlimit="10" stroke-linecap="round"/>
                <path d="M846.873 1888.96C826.241 1888.96 802.782 1886.77 779.073 1882.62C738.745 1875.56 708.332 1864.63 678.918 1854.07C675.005 1852.66 670.959 1851.21 667.023 1849.81L664.173 1848.79C647.859 1842.91 632.45 1837.35 620.991 1830.31C613.718 1825.86 608.718 1821.19 605.677 1816.08C601.923 1809.78 601.327 1803.08 603.914 1796.16C606.596 1788.99 612.709 1781.87 619.182 1774.33C626 1766.38 633.077 1758.15 636.677 1749.51C640.368 1740.66 639.682 1732.87 634.527 1725.02C623.064 1707.57 588.636 1686.62 560.995 1669.79C534.545 1653.68 520.486 1644.86 516.164 1636.45C513.332 1631.05 514.318 1625.25 518.936 1620.1C525.432 1612.87 539.391 1606.85 560.418 1602.19C579.578 1598.02 599.417 1595.87 619.364 1595.81C631.741 1595.81 643.041 1596.74 652.959 1598.55C659.677 1599.79 665.786 1600.97 671.691 1602.11C692.818 1606.19 708.082 1609.13 722.341 1609.13C731.368 1609.13 739.991 1607.93 749.482 1605.36C765.605 1600.99 784.441 1598.59 802.527 1598.59C831.573 1598.59 844.855 1604.21 850.255 1607.62C861.618 1614.69 859.8 1627 857.568 1642.57C855.427 1657.39 852.759 1675.82 860.677 1690.45C868.496 1704.48 886.655 1716.89 905.877 1730.04C924.3 1742.63 943.35 1755.65 954.918 1771.54L954.964 1771.61C966.973 1788.37 970.345 1808.25 964.468 1827.61C958.677 1846.69 944.705 1862.98 925.127 1873.49L924.991 1873.55C905.455 1883.78 879.196 1888.96 846.873 1888.96Z" stroke="#FFFFFF" stroke-width="7" stroke-miterlimit="10" stroke-linecap="round"/>
            </g>
            <!-- Title -->
            <text x="68" y="1721" fill="#FFFFFD" font-size="20" font-family="Lovtony" font-weight="bold">Call-To-Action Title</text>
            <!-- Text -->
            <rect x="68" y="1739" width="176" height="5" fill="#FFF" fill-opacity="0.6"/>
            <rect x="68" y="1749" width="195" height="5" fill="#FFF" fill-opacity="0.6"/>
            <!-- Button -->
            <rect width="75" height="24" transform="translate(510 1716)" fill="#3AADAA"/>
        </g>
        <g class="svgc_footer">
            <!-- Menu Background -->
            <rect y="1805" width="700" height="45" class="svgc_footer_bg" fill="#FOOTER_COLOR"/>
            <!-- Logo -->
            <path opacity="1" fill="#FOOTER_COLOR" class="svgc_text" filter="url(#filter_readability_vehicle)" d="M71.74 1821.24V1830.99H76.398L76.126 1833H69.241V1821.24H71.74ZM81.8009 1820.96C82.8776 1820.96 83.8069 1821.21 84.5889 1821.69C85.3709 1822.17 85.9716 1822.87 86.3909 1823.79C86.8103 1824.7 87.0199 1825.81 87.0199 1827.12C87.0199 1828.4 86.8103 1829.5 86.3909 1830.43C85.9716 1831.35 85.3709 1832.05 84.5889 1832.54C83.8069 1833.03 82.8776 1833.27 81.8009 1833.27C80.7243 1833.27 79.7893 1833.03 78.9959 1832.56C78.2139 1832.07 77.6133 1831.37 77.1939 1830.45C76.7746 1829.52 76.5649 1828.41 76.5649 1827.12C76.5649 1825.85 76.7746 1824.75 77.1939 1823.84C77.6246 1822.91 78.2309 1822.2 79.0129 1821.71C79.8063 1821.21 80.7356 1820.96 81.8009 1820.96ZM81.8009 1822.83C80.9396 1822.83 80.2879 1823.17 79.8459 1823.85C79.4153 1824.53 79.1999 1825.62 79.1999 1827.12C79.1999 1828.61 79.4209 1829.7 79.8629 1830.38C80.3049 1831.06 80.9509 1831.4 81.8009 1831.4C82.6623 1831.4 83.3083 1831.07 83.7389 1830.4C84.1696 1829.72 84.3849 1828.63 84.3849 1827.12C84.3849 1825.61 84.1696 1824.52 83.7389 1823.85C83.3083 1823.17 82.6623 1822.83 81.8009 1822.83ZM93.8269 1820.96C94.6202 1820.96 95.3229 1821.09 95.9349 1821.34C96.5582 1821.58 97.1362 1821.92 97.6689 1822.38L96.3599 1823.73C95.9405 1823.42 95.5439 1823.19 95.1699 1823.04C94.8072 1822.89 94.3935 1822.82 93.9289 1822.82C93.0335 1822.82 92.3082 1823.17 91.7529 1823.89C91.2089 1824.59 90.9369 1825.67 90.9369 1827.12C90.9369 1828.65 91.1465 1829.75 91.5659 1830.42C91.9965 1831.07 92.6595 1831.4 93.5549 1831.4C94.2009 1831.4 94.7845 1831.26 95.3059 1830.98V1828.1H93.6569L93.4019 1826.28H97.7369V1832.08C97.1249 1832.46 96.4619 1832.75 95.7479 1832.97C95.0452 1833.17 94.3312 1833.27 93.6059 1833.27C91.8719 1833.27 90.5572 1832.75 89.6619 1831.71C88.7665 1830.67 88.3189 1829.13 88.3189 1827.1C88.3189 1825.82 88.5625 1824.72 89.0499 1823.79C89.5372 1822.86 90.1945 1822.15 91.0219 1821.68C91.8605 1821.2 92.7955 1820.96 93.8269 1820.96ZM104.445 1820.96C105.522 1820.96 106.451 1821.21 107.233 1821.69C108.015 1822.17 108.616 1822.87 109.035 1823.79C109.455 1824.7 109.664 1825.81 109.664 1827.12C109.664 1828.4 109.455 1829.5 109.035 1830.43C108.616 1831.35 108.015 1832.05 107.233 1832.54C106.451 1833.03 105.522 1833.27 104.445 1833.27C103.369 1833.27 102.434 1833.03 101.64 1832.56C100.858 1832.07 100.258 1831.37 99.8385 1830.45C99.4191 1829.52 99.2095 1828.41 99.2095 1827.12C99.2095 1825.85 99.4191 1824.75 99.8385 1823.84C100.269 1822.91 100.875 1822.2 101.657 1821.71C102.451 1821.21 103.38 1820.96 104.445 1820.96ZM104.445 1822.83C103.584 1822.83 102.932 1823.17 102.49 1823.85C102.06 1824.53 101.844 1825.62 101.844 1827.12C101.844 1828.61 102.065 1829.7 102.507 1830.38C102.949 1831.06 103.595 1831.4 104.445 1831.4C105.307 1831.4 105.953 1831.07 106.383 1830.4C106.814 1829.72 107.029 1828.63 107.029 1827.12C107.029 1825.61 106.814 1824.52 106.383 1823.85C105.953 1823.17 105.307 1822.83 104.445 1822.83Z" />
            <!-- Links -->
            <g opacity=".5">
                <rect x="138" y="1823.04" width="40" height="10" fill="#FOOTER_COLOR" class="svgc_text" filter="url(#filter_readability_vehicle)"/>
                <rect x="190" y="1823.04" width="40" height="10" fill="#FOOTER_COLOR" class="svgc_text" filter="url(#filter_readability_vehicle)"/>
                <rect x="242" y="1823.04" width="40" height="10" fill="#FOOTER_COLOR" class="svgc_text" filter="url(#filter_readability_vehicle)"/>
                <rect x="294" y="1823.04" width="40" height="10" fill="#FOOTER_COLOR" class="svgc_text" filter="url(#filter_readability_vehicle)"/>
            </g>
            <!-- Social -->
            <g opacity=".5">
                <circle cx="567" cy="1827.04" r="6" fill="#FOOTER_COLOR" class="svgc_text" filter="url(#filter_readability_vehicle)"/>
                <circle cx="545" cy="1827.04" r="6" fill="#FOOTER_COLOR" class="svgc_text" filter="url(#filter_readability_vehicle)"/>
                <circle cx="523" cy="1827.04" r="6" fill="#FOOTER_COLOR" class="svgc_text" filter="url(#filter_readability_vehicle)"/>
            </g>
            <!-- Button -->
            <rect x="588" y="1821.04" width="40" height="12" opacity="1" fill="#FOOTER_COLOR" class="svgc_text" filter="url(#filter_readability_vehicle)"/>
        </g>
    </g>
</svg>
