<svg xmlns="http://www.w3.org/2000/svg" xmlns:xlink="http://www.w3.org/1999/xlink" width="700" height="1850" viewBox="0 0 700 1850">
    <defs>
        <pattern width="1" height="1" id="theme_odoo_experts_s_cover_default_image_id" patternunits="objectBoundingBox">
            <image width="700" height="310" preserveAspectRatio="xMidYMid slice" href="#s_cover_default_image_url"/>
        </pattern>
        <pattern width="1" height="1" id="theme_odoo_experts_s_media_list_default_image_1_id" patternunits="objectBoundingBox">
            <image width="141" height="110" preserveAspectRatio="xMidYMid slice" href="#s_media_list_default_image_1_url"/>
        </pattern>
        <pattern width="1" height="1" id="theme_odoo_experts_s_media_list_default_image_2_id" patternunits="objectBoundingBox">
            <image width="141" height="110" preserveAspectRatio="xMidYMid slice" href="#s_media_list_default_image_2_url"/>
        </pattern>
        <pattern width="1" height="1" id="theme_odoo_experts_s_media_list_default_image_3_id" patternunits="objectBoundingBox">
            <image width="141" height="110" preserveAspectRatio="xMidYMid slice" href="#s_media_list_default_image_3_url"/>
        </pattern>
        <pattern id="theme_odoo_experts_member_1" preserveAspectRatio="xMidYMid slice" width="100%" height="100%" viewBox="0 0 118 128">
            <image width="118" height="128" href="/web/image/website.s_company_team_image_1"/>
        </pattern>
        <pattern id="theme_odoo_experts_member_2" preserveAspectRatio="xMidYMid slice" width="100%" height="100%" viewBox="0 0 128 128">
            <image width="128" height="128" href="/web/image/website.s_company_team_image_2"/>
        </pattern>
        <pattern id="theme_odoo_experts_member_3" preserveAspectRatio="xMidYMid slice" width="100%" height="100%" viewBox="0 0 128 128">
            <image width="128" height="128" href="/web/image/website.s_company_team_image_3"/>
        </pattern>
        <pattern id="theme_odoo_experts_member_4" preserveAspectRatio="xMidYMid slice" width="100%" height="100%" viewBox="0 0 128 128">
            <image width="128" height="128" href="/web/image/website.s_company_team_image_4"/>
        </pattern>
        <pattern id="theme_odoo_experts_s_reference_demo_image_1" preserveAspectRatio="xMidYMid slice" width="100%" height="100%" viewBox="0 0 24 24">
            <image width="24" height="24" href="/web/image/website.s_reference_demo_image_1"/>
        </pattern>
        <pattern id="theme_odoo_experts_s_reference_demo_image_2" preserveAspectRatio="xMidYMid slice" width="100%" height="100%" viewBox="0 0 24 24">
            <image width="24" height="24" href="/web/image/website.s_reference_demo_image_2"/>
        </pattern>
        <pattern id="theme_odoo_experts_s_reference_demo_image_3" preserveAspectRatio="xMidYMid slice" width="100%" height="100%" viewBox="0 0 24 24">
            <image width="24" height="24" href="/web/image/website.s_reference_demo_image_3"/>
        </pattern>
        <pattern id="theme_odoo_experts_s_reference_demo_image_4" preserveAspectRatio="xMidYMid slice" width="100%" height="100%" viewBox="0 0 24 24">
            <image width="24" height="24" href="/web/image/website.s_reference_demo_image_4"/>
        </pattern>
        <pattern id="theme_odoo_experts_s_reference_demo_image_5" preserveAspectRatio="xMidYMid slice" width="100%" height="100%" viewBox="0 0 24 24">
            <image width="24" height="24" href="/web/image/website.s_reference_demo_image_1"/>
        </pattern>
        <pattern id="theme_odoo_experts_s_reference_demo_image_6" preserveAspectRatio="xMidYMid slice" width="100%" height="100%" viewBox="0 0 24 24">
            <image width="24" height="24" href="/web/image/website.s_reference_demo_image_2"/>
        </pattern>
        <clipPath id="theme_odoo_experts_clip-path">
            <rect width="700" height="440" transform="translate(0 642)" fill="#3AADAA"/>
        </clipPath>
        <linearGradient id="theme_odoo_experts_linear-gradient" x1="0.528" y1="0.647" x2="0.407" y2="-1.002" gradientUnits="objectBoundingBox">
            <stop offset="0" stop-color="#7C6576" stop-opacity="0"/>
            <stop offset="1" stop-color="#7C6576"/>
        </linearGradient>
        <filter id="filter_readability_odoo_experts">
            <feColorMatrix in="SourceGraphic" type="saturate" values="0"/>
            <feComponentTransfer>
                <feFuncR type="table" tableValues="1 0"/>
                <feFuncG type="table" tableValues="1 0"/>
                <feFuncB type="table" tableValues="1 0"/>
            </feComponentTransfer>
            <feComponentTransfer>
                <feFuncR type="linear" slope="10000" intercept="-4999.5"/>
                <feFuncG type="linear" slope="10000" intercept="-4999.5"/>
                <feFuncB type="linear" slope="10000" intercept="-4999.5"/>
            </feComponentTransfer>
        </filter>
    </defs>
    <g fill="none" fill-rule="evenodd" class="theme_odoo_experts">
        <rect width="700" height="1850" fill="#FFFFFF"/>
        <g class="svgc_menu" transform="translate(-1428 -220)">
            <rect width="700" height="37" transform="translate(1428 247)" class="svgc_menu_bg" fill="#MENU_COLOR"/>
            <path d="M76.345,23V21.479H72.6V14.273H70.759V23Zm4.68.12a4.131,4.131,0,0,0,2.08-.527,3.749,3.749,0,0,0,1.467-1.528,5.054,5.054,0,0,0,.539-2.429,5.059,5.059,0,0,0-.54-2.429,3.755,3.755,0,0,0-1.465-1.527,4.388,4.388,0,0,0-4.17,0,3.739,3.739,0,0,0-1.461,1.527,5.084,5.084,0,0,0-.537,2.43,5.07,5.07,0,0,0,.537,2.424,3.753,3.753,0,0,0,1.461,1.53,4.138,4.138,0,0,0,2.088.528Zm0-1.633a2.08,2.08,0,0,1-1.168-.328,2.128,2.128,0,0,1-.774-.963,3.929,3.929,0,0,1-.275-1.56,3.935,3.935,0,0,1,.275-1.56,2.114,2.114,0,0,1,.774-.962,2.242,2.242,0,0,1,2.335,0,2.121,2.121,0,0,1,.773.963,3.911,3.911,0,0,1,.275,1.56,3.909,3.909,0,0,1-.275,1.559,2.12,2.12,0,0,1-.773.963,2.075,2.075,0,0,1-1.168.328ZM90.3,23.119a4.152,4.152,0,0,0,1.952-.445,3.292,3.292,0,0,0,1.338-1.27,3.823,3.823,0,0,0,.486-1.975v-1.1H90.426v1.39H92.3l0,.126a1.886,1.886,0,0,1-.157.645l-.073.14a1.591,1.591,0,0,1-.682.633,2.35,2.35,0,0,1-1.071.224,2.127,2.127,0,0,1-1.2-.334,2.151,2.151,0,0,1-.784-.974,3.9,3.9,0,0,1-.277-1.551,3.805,3.805,0,0,1,.281-1.545,2.174,2.174,0,0,1,.787-.965,2.086,2.086,0,0,1,1.174-.332,2.283,2.283,0,0,1,.654.089,1.778,1.778,0,0,1,.528.258,1.6,1.6,0,0,1,.394.409,1.94,1.94,0,0,1,.252.552H94a3.19,3.19,0,0,0-.4-1.187,3.27,3.27,0,0,0-.812-.931,3.741,3.741,0,0,0-1.135-.607,4.3,4.3,0,0,0-1.381-.216,4.21,4.21,0,0,0-1.607.3,3.756,3.756,0,0,0-1.3.882,4.021,4.021,0,0,0-.867,1.413,5.417,5.417,0,0,0-.309,1.894,5.141,5.141,0,0,0,.518,2.384,3.725,3.725,0,0,0,1.447,1.547,4.2,4.2,0,0,0,2.156.543Zm8.958,0a4.137,4.137,0,0,0,2.081-.526,3.747,3.747,0,0,0,1.466-1.528,5.054,5.054,0,0,0,.54-2.429,5.059,5.059,0,0,0-.54-2.429,3.763,3.763,0,0,0-1.466-1.527,4.386,4.386,0,0,0-4.169,0,3.742,3.742,0,0,0-1.462,1.527,5.084,5.084,0,0,0-.537,2.43,5.07,5.07,0,0,0,.537,2.424,3.756,3.756,0,0,0,1.462,1.53A4.133,4.133,0,0,0,99.26,23.119Zm0-1.632a2.081,2.081,0,0,1-1.168-.328,2.127,2.127,0,0,1-.773-.963,3.911,3.911,0,0,1-.275-1.56,3.918,3.918,0,0,1,.275-1.56,2.112,2.112,0,0,1,.773-.962,2.242,2.242,0,0,1,2.335,0,2.123,2.123,0,0,1,.774.963,3.929,3.929,0,0,1,.275,1.56A3.927,3.927,0,0,1,101.2,20.2a2.128,2.128,0,0,1-.774.963A2.075,2.075,0,0,1,99.26,21.487Z" transform="translate(1428 247)" class="svgc_text" opacity="1" fill="#MENU_COLOR" filter="url(#filter_readability_odoo_experts)"/>
            <g transform="translate(1587 262)" opacity="0.6">
                <rect width="37" height="7" fill="#MENU_COLOR" class="svgc_text" filter="url(#filter_readability_odoo_experts)"/>
                <rect width="37" height="7" transform="translate(58)" fill="#MENU_COLOR" class="svgc_text" filter="url(#filter_readability_odoo_experts)"/>
                <rect width="37" height="7" transform="translate(116)" fill="#MENU_COLOR" class="svgc_text" filter="url(#filter_readability_odoo_experts)"/>
                <rect width="37" height="7" transform="translate(174)" fill="#MENU_COLOR" class="svgc_text" filter="url(#filter_readability_odoo_experts)"/>
            </g>
            <rect width="37" height="7" transform="translate(2021 262)" fill="#MENU_COLOR" class="svgc_text" filter="url(#filter_readability_odoo_experts)"/>
            <rect width="700" height="28" transform="translate(1428 220)" fill="#F6F6F6"/>
            <circle cx="5" cy="5" r="5" transform="translate(2048 229.908)" fill="#3AADAA"/>
            <circle cx="5" cy="5" r="5" transform="translate(2036 229.908)" fill="#3AADAA"/>
            <circle cx="5" cy="5" r="5" transform="translate(2024 229.908)" fill="#3AADAA"/>
            <circle cx="5" cy="5" r="5" transform="translate(2012 229.908)" fill="#3AADAA"/>
            <rect width="53" height="2" transform="translate(1496 230.5)" fill="#3AADAA"/>
            <rect width="108" height="2" transform="translate(1554 230.5)" fill="#3AADAA"/>
        </g>
        <g class="s_cover">
            <rect class="img_reference_s_cover_default_image" fill="url(#theme_odoo_experts_s_cover_default_image_id)" width="700" height="310" transform="translate(0 64)"/>
            <rect width="700" height="310" transform="translate(0 64)" fill="#000" opacity="0.5"/>
            <g transform="translate(228.63 184)" opacity="0.4">
                <rect width="238.689" height="2" transform="translate(2.37 32.025)" fill="#FFFFFF"/>
                <rect width="223.689" height="2" transform="translate(9.37 37.025)" fill="#FFFFFF"/>
            </g>
            <g transform="translate(-505 1591)">
                <rect width="700" height="570" transform="translate(1205 -1217) rotate(180)" fill="url(#theme_odoo_experts_linear-gradient)"/>
                <path d="M0,1016.55,700,893.1v123.45Z" transform="translate(505 -2233.55)" fill="#FFFFFF"/>
                <text transform="translate(855 -1398)" fill="#fff" font-size="32" font-family="Arial-BoldMT, Arial" font-weight="700"><tspan x="-141.992" y="0">Welcome Message</tspan></text>
            </g>
            <rect width="94" height="28" transform="translate(303 239.386)" fill="#3AADAA"/>
            <text transform="translate(350 258)" fill="#FFFFFF" font-size="11" font-family="Arial-BoldMT, Arial" font-weight="700"><tspan x="-23.235" y="0">Discover</tspan></text>
        </g>
        <g class="s_image_text">
            <path d="M0,325.479V81H261.055c118.9,0,141.5-4.755,169.945,82.5l59,161.975Z" transform="translate(0 316.655)" fill="#F6F6F6"/>
            <g transform="translate(70 426.498)">
                <path d="M348.535,301.828a53.609,53.609,0,0,1-4.666,8.974,38.619,38.619,0,0,1-2.826,3.887.2.2,0,0,1-.031.034H25l.043-.034c.284-.222,1.953-1.572,4.55-3.887,1.862-1.658,4.2-3.813,6.824-6.406,21.466-21.113,62.7-71.087,28.358-116.868-31.924-42.559,2.448-50.281,25.122-51.183a64.778,64.778,0,0,1,25.552,4.177A227.018,227.018,0,0,0,170.012,153.4c.819.091,1.644.182,2.48.264a238.885,238.885,0,0,0,39.746.722h0c.39-.023.782-.051,1.177-.08a236.187,236.187,0,0,0,38.876-6.014c.827-.2,1.643-.392,2.457-.583,42.547-9.844,81.77,23.706,71.963,61.621-3.625,14.024-2.7,28.972,9.384,41.066C355.886,270.14,353.489,289.581,348.535,301.828Z" transform="translate(-25 -136.26)" fill="#3AADAA" opacity="0.1"/>
                <path d="M348.643,706.388a53.614,53.614,0,0,1-4.666,8.974,38.607,38.607,0,0,1-2.826,3.887h-316c.284-.222,1.953-1.573,4.55-3.887,1.862-1.658,4.2-3.813,6.824-6.406l33.306-6.881a6.476,6.476,0,0,1,1.308-.134l35.507-.051h.037l17.587-.023h.04l14.843-.017H158.82l40.781-.057h17.547l7-.08h2.315l20.371-.028h9.634l23.53-.031h7.006l22.287-.031,18.813-.023a6.669,6.669,0,0,1,1.555.185Z" transform="translate(-25.107 -540.821)" fill="#454b69"/>
                <path d="M29.7,750H343.977a38.616,38.616,0,0,1-2.826,3.887h-316C25.429,753.651,27.1,752.3,29.7,750Z" transform="translate(-25.107 -575.458)" fill="none"/>
                <path d="M29.7,750H343.977a38.616,38.616,0,0,1-2.826,3.887h-316C25.429,753.651,27.1,752.3,29.7,750Z" transform="translate(-25.107 -575.458)" opacity="0.4"/>
                <path d="M553.568,233.365l-.631.122L524.4,238.969c-8.289,1.592-16.7,3.193-25.117,2.582-6.1-.444-11.8-2.252-17.658-3.839-3.313-.9-6.824-1.257-7.948-4.965-1.55-5.118.973-12.7,1.567-17.883.569-5.09.9-10.308-.108-15.338a27.275,27.275,0,0,0-.887-3.338c-1.015-3.011-2.61-6.142-1.749-9.2.68-2.425,2.753-4.157,4.692-5.761,3.8-3.128,7.677-6.634,9.184-11.323.739-2.275.879-4.723,1.675-6.981,1.51-4.294,5.3-7.5,9.523-9.2s8.86-2.062,13.413-2.062a90.863,90.863,0,0,1,12.014.8,34.415,34.415,0,0,1,12.553,3.66c3.819,2.155,7.038,5.687,7.928,9.992,1.26,6.088-2.238,12.571-.361,18.483.944,2.989,3.128,5.4,4.643,8.138a19.384,19.384,0,0,1,1.422,15.071c-1.814,5.622-6.256,11.309-3.981,16.76,1.447,3.466,5.144,5.317,7.72,8.064Q553.269,233,553.568,233.365Z" transform="translate(-345.077 -147.256)" fill="#454b69"/>
                <path d="M555.271,319.485v.839l-28.537,5.482c-8.289,1.592-16.7,3.193-25.117,2.582-6.1-.444-11.8-2.252-17.658-3.839-3.313-.9-6.824-1.257-7.948-4.965-1.55-5.118.972-12.7,1.567-17.883.569-5.09,9.324-23.672,8.312-28.7l52.32,2.275c.353,2.778,14.181,16.723,13.319,19.387-1.814,5.622-6.256,11.309-3.981,16.759C549,314.887,552.695,316.739,555.271,319.485Z" transform="translate(-347.412 -234.093)" opacity="0.1"/>
                <path d="M525.207,344.92c.31,1.76.475,3.7-.424,5.232-1.2,2.059-3.807,2.716-6.142,3.182l-8.1,1.621a3.145,3.145,0,0,0-1.55.614,2.71,2.71,0,0,0-.722,1.772c-.327,2.934.711,5.826,1.658,8.621,1.914,5.661,3.52,11.442,5.94,16.9s5.741,10.677,10.481,14.328,11.013,5.6,16.816,4.169c5.056-1.243,9.2-4.811,12.776-8.6,2.949-3.128,5.707-6.54,7.137-10.6a37.74,37.74,0,0,0,1.618-8.7l1.439-13.524c.225-2.116.372-4.5-1-6.119a7.288,7.288,0,0,0-2.258-1.629c-3.111-1.652-6.386-3.017-9.281-5.007s-5.462-4.732-6.341-8.132c-.526-2.042-.432-4.265-1.328-6.168a8.327,8.327,0,0,0-5.4-4.211,18.426,18.426,0,0,0-7.018-.284c-2.343.264-11.374.941-12.344,3.583-.52,1.422,1.638,4.473,2.15,5.872A41,41,0,0,1,525.207,344.92Z" transform="translate(-370.805 -273.597)" fill="#efb7b9"/>
                <path d="M525.207,344.92c.31,1.76.475,3.7-.424,5.232-1.2,2.059-3.807,2.716-6.142,3.182l-8.1,1.621a3.145,3.145,0,0,0-1.55.614,2.71,2.71,0,0,0-.722,1.772c-.327,2.934.711,5.826,1.658,8.621,1.914,5.661,3.52,11.442,5.94,16.9s5.741,10.677,10.481,14.328,11.013,5.6,16.816,4.169c5.056-1.243,9.2-4.811,12.776-8.6,2.949-3.128,5.707-6.54,7.137-10.6a37.74,37.74,0,0,0,1.618-8.7l1.439-13.524c.225-2.116.372-4.5-1-6.119a7.288,7.288,0,0,0-2.258-1.629c-3.111-1.652-6.386-3.017-9.281-5.007s-5.462-4.732-6.341-8.132c-.526-2.042-.432-4.265-1.328-6.168a8.327,8.327,0,0,0-5.4-4.211,18.426,18.426,0,0,0-7.018-.284c-2.343.264-11.374.941-12.344,3.583-.52,1.422,1.638,4.473,2.15,5.872A41,41,0,0,1,525.207,344.92Z" transform="translate(-370.805 -273.597)" opacity="0.1"/>
                <path d="M535.4,425.487l4.751-10.06c2.226-4.714,4.5-9.668,4.265-14.874-.046-1.035-.057-2.329.853-2.8a2.439,2.439,0,0,1,1.248-.159,50.5,50.5,0,0,1,14.647,2.963A5.812,5.812,0,0,1,563.656,402a5.937,5.937,0,0,1,1.117,2.644,77.194,77.194,0,0,1,1.629,9.631c.853,8.024.429,16.12,0,24.17l-1.263,24.576a2.347,2.347,0,0,1-.208,1.012,2.185,2.185,0,0,1-1.652.867,35.871,35.871,0,0,1-7.413.239c-17.4-.66-34.9-1.672-52.184.438q.117-3.836-.122-7.677c-.685-11.058-3.552-21.847-6.367-32.561-1.641-6.256-3.23-13.08-.589-18.975a8.128,8.128,0,0,1,1.646-2.508,9.355,9.355,0,0,1,4.174-2.1,26.567,26.567,0,0,1,8.044-.91L528.4,439.881c.819,1.786,1.493,3.665,2.309,5.428.734-3.045-.148-6.614.734-9.915A62.432,62.432,0,0,1,535.4,425.487Z" transform="translate(-361.497 -323.244)" fill="#FFFFFF"/>
                <path d="M481.9,450.656a11.186,11.186,0,0,0,8.53-3.765,26.359,26.359,0,0,0,4.894-8.246,81.325,81.325,0,0,0,4.206-13.111,31.645,31.645,0,0,0,.87-11.616c-.813-5.332-3.83-10.177-4.345-15.545a2.836,2.836,0,0,1,.722-2.6,3,3,0,0,1,1.661-.432c5.363-.318,11.255-.259,15.409,3.145,1.265,1.035,2.292,2.329,3.529,3.4,2.946,2.559,7.109,3.862,9,7.259a25.2,25.2,0,0,1,1.436,3.8,34.923,34.923,0,0,0,4.834,8.272c-1.811,7.643-3.893,15.292-5.7,22.936a100.3,100.3,0,0,1-3.8,13.279c-1.092,2.815-2.465,5.687-2.13,8.7a19.875,19.875,0,0,0,.873,3.463,39.807,39.807,0,0,1,1.675,12.378l-81.136.2c3.887-5.573,5.027-12.409,4.632-19.191a20.969,20.969,0,0,0-2.559-9.332c-2.576-4.407-7.109-7.279-11.576-9.739-3.128-1.706-6.486,7.894-9.867,6.793.546-3.861.8-18.767.569-22.654a10.381,10.381,0,0,1,.2-3.8c.267-.833.759-1.578,1.092-2.388,1.334-3.244.063-7.393,2.218-10.154,1.49-1.919,4.1-2.465,6.227-3.648,2.181-1.217,3.867-3.128,5.767-4.76a25.646,25.646,0,0,1,13.126-5.86,16.532,16.532,0,0,1,2.505,7.393c.145,1.652.04,3.327.27,4.97a24.471,24.471,0,0,0,2.15,6.375c3.8,8.584,7.618,17.195,12.435,25.256a26.753,26.753,0,0,0,4.817,6.321A11.007,11.007,0,0,0,481.9,450.656Z" transform="translate(-309.872 -321.556)" fill="#3AADAA"/>
                <path d="M481.9,450.656a11.186,11.186,0,0,0,8.53-3.765,26.359,26.359,0,0,0,4.894-8.246,81.325,81.325,0,0,0,4.206-13.111,31.645,31.645,0,0,0,.87-11.616c-.813-5.332-3.83-10.177-4.345-15.545a2.836,2.836,0,0,1,.722-2.6,3,3,0,0,1,1.661-.432c5.363-.318,11.255-.259,15.409,3.145,1.265,1.035,2.292,2.329,3.529,3.4,2.946,2.559,7.109,3.862,9,7.259a25.2,25.2,0,0,1,1.436,3.8,34.923,34.923,0,0,0,4.834,8.272c-1.811,7.643-3.893,15.292-5.7,22.936a100.3,100.3,0,0,1-3.8,13.279c-1.092,2.815-2.465,5.687-2.13,8.7a19.875,19.875,0,0,0,.873,3.463,39.807,39.807,0,0,1,1.675,12.378l-81.136.2c3.887-5.573,5.027-12.409,4.632-19.191a20.969,20.969,0,0,0-2.559-9.332c-2.576-4.407-7.109-7.279-11.576-9.739-3.128-1.706-6.486,7.894-9.867,6.793.546-3.861.8-18.767.569-22.654a10.381,10.381,0,0,1,.2-3.8c.267-.833.759-1.578,1.092-2.388,1.334-3.244.063-7.393,2.218-10.154,1.49-1.919,4.1-2.465,6.227-3.648,2.181-1.217,3.867-3.128,5.767-4.76a25.646,25.646,0,0,1,13.126-5.86,16.532,16.532,0,0,1,2.505,7.393c.145,1.652.04,3.327.27,4.97a24.471,24.471,0,0,0,2.15,6.375c3.8,8.584,7.618,17.195,12.435,25.256a26.753,26.753,0,0,0,4.817,6.321A11.007,11.007,0,0,0,481.9,450.656Z" transform="translate(-309.872 -321.556)" opacity="0.1"/>
                <circle cx="24.374" cy="24.374" r="24.374" transform="translate(143.366 21.929)" fill="#efb7b9"/>
                <path d="M521.325,241.334c.668-6.307-1.953-12.477-4.922-18.082a36.431,36.431,0,0,1-3.66-8.292c-.714-2.943-.509-6.276,1.317-8.7,1.553-2.059,4.015-3.17,6.293-4.379,6.429-3.412,12.307-8.428,15.133-15.136-1.6.87-1.183,3.466.228,4.612s3.333,1.368,5.067,1.914c6.324,1.99,10.117,8.3,13.16,14.189a6.781,6.781,0,0,1,1,3.06,6.206,6.206,0,0,1-1.018,2.966c-1.5,2.673-3.338,5.241-4.021,8.229-.782,3.412.043,7,1.115,10.347,1.137,3.56,2.647,7.149,5.377,9.7s6.964,3.822,10.322,2.172c-3.352-5.764-6.824-12.2-5.516-18.739.631-3.128,2.329-5.971,3.051-9.082,1.376-5.934-.916-12.039-3.165-17.7l-6.722-16.9c-1.026-2.585-2.2-5.343-4.55-6.807a12.319,12.319,0,0,0-5.385-1.422c-6.005-.535-12.227-.358-17.817,1.877-10.185,4.069-16.572,14.1-21.639,23.831-1.518,2.915-3.017,6.011-2.954,9.3a25.8,25.8,0,0,0,.947,5.314c1.666,7.154,1.757,14.567,1.843,21.912.065,5.636-.227,10.947-2.693,16.08,3.378.671,8.277,2.482,11.621,1.157C518.092,251.03,520.776,245.721,521.325,241.334Z" transform="translate(-366.375 -162.55)" fill="#454b69"/>
                <g transform="translate(135.625 23.751)" opacity="0.1">
                    <path d="M504.756,320.451q.017-1.2,0-2.428c-.085-7.345-.176-14.758-1.843-21.912a36.98,36.98,0,0,1-.87-4.231,11.06,11.06,0,0,0-.077,1.476,25.8,25.8,0,0,0,.947,5.314C504.572,305.782,504.674,313.149,504.756,320.451Z" transform="translate(-501.966 -271.356)"/>
                    <path d="M712.488,311.817a17.207,17.207,0,0,0,.37-5.067,15.793,15.793,0,0,1-.37,2.508c-.722,3.128-2.42,5.946-3.051,9.082a15.069,15.069,0,0,0-.227,4.2,14.919,14.919,0,0,1,.227-1.644C710.068,317.763,711.766,314.934,712.488,311.817Z" transform="translate(-650.24 -281.997)"/>
                    <path d="M580.762,242.619a4.1,4.1,0,0,0,.222-1.254,6.851,6.851,0,0,0-1-3.06c-3.043-5.892-6.824-12.193-13.16-14.189-1.734-.546-3.654-.768-5.067-1.914a3.606,3.606,0,0,1-1.245-2.5c-3.082,5.659-8.377,9.986-14.115,13.026-2.275,1.208-4.74,2.32-6.293,4.379a9.7,9.7,0,0,0-1.629,6.884,8.7,8.7,0,0,1,1.629-4.325c1.553-2.059,4.015-3.17,6.293-4.379,5.738-3.04,11.033-7.368,14.115-13.026a3.606,3.606,0,0,0,1.245,2.5c1.422,1.137,3.333,1.368,5.067,1.914,6.324,1.99,10.117,8.3,13.16,14.189A11.2,11.2,0,0,1,580.762,242.619Z" transform="translate(-528.046 -219.7)"/>
                    <path d="M676.143,365.815c-2.73-2.559-4.234-6.142-5.377-9.7a28.087,28.087,0,0,1-1.365-6.173,22.482,22.482,0,0,0,1.365,8.732c1.137,3.56,2.647,7.149,5.377,9.7s6.964,3.822,10.322,2.172c-.4-.691-.8-1.393-1.2-2.1C682.143,369.324,678.56,368.073,676.143,365.815Z" transform="translate(-621.752 -312.906)"/>
                    <path d="M521.545,402.365c-.549,4.387-3.233,9.7-7.6,11.431-3.034,1.2-7.353-.179-10.649-.944a24.623,24.623,0,0,1-.972,2.346c3.378.671,8.277,2.482,11.621,1.157,4.37-1.735,7.055-7.043,7.6-11.431a19.755,19.755,0,0,0,.063-3.3C521.59,401.867,521.565,402.118,521.545,402.365Z" transform="translate(-502.219 -349.891)"/>
                </g>
                <path d="M640.41,648.556c-4.393-.7-8.852-2.042-13.208-1.137a18.361,18.361,0,0,0-6.932,3.3,7.983,7.983,0,0,1,4.254,5.84,23.88,23.88,0,0,1,1,5.221,7.947,7.947,0,0,1-1.342,5.053c5.539.546,10.908-.819,16.31-2.153a4.467,4.467,0,0,0,1.726-.7,3.705,3.705,0,0,0,1.109-2.954,20.226,20.226,0,0,0-1.1-5.707C641.562,653.083,641.073,650.78,640.41,648.556Z" transform="translate(-451.005 -501.829)" fill="#FFFFFF"/>
                <path d="M711.238,483.054c2.181.284,3.873,2.044,5.118,3.853,3.495,5.033,5,11.135,6.679,17.03a226.645,226.645,0,0,0,7.356,21.645,32.573,32.573,0,0,0,2.207,4.749,13.281,13.281,0,0,1,1.865,3.637c.751,3.225-1.908,6.256-4.68,8.053a18.524,18.524,0,0,1-4.791,2.309,28.534,28.534,0,0,1-5.1.87L704.112,546.9c-7.265.791-14.6,1.581-21.864.819-.458-1.592.441-2.718.375-4.376a9.777,9.777,0,0,0-1.035-3.381,21.613,21.613,0,0,1-1.686-6.116,8.289,8.289,0,0,0-.407-2.295,2.151,2.151,0,0,0-1.706-1.422c4.265-.424,7.5-1.228,11.769-1.655a10.508,10.508,0,0,0,4.581-1.18c1.675-1.044,2.613-2.926,3.358-4.751,1.845-4.521,3.034-9.5,2.064-14.291-.8-3.927-3.017-7.584-3.006-11.59a17.343,17.343,0,0,1,1.774-6.881c1.018-2.309,2.346-4.669,4.581-5.841S708.716,482.712,711.238,483.054Z" transform="translate(-492.17 -384.288)" fill="#3AADAA"/>
                <path d="M711.238,483.054c2.181.284,3.873,2.044,5.118,3.853,3.495,5.033,5,11.135,6.679,17.03a226.645,226.645,0,0,0,7.356,21.645,32.573,32.573,0,0,0,2.207,4.749,13.281,13.281,0,0,1,1.865,3.637c.751,3.225-1.908,6.256-4.68,8.053a18.524,18.524,0,0,1-4.791,2.309,28.534,28.534,0,0,1-5.1.87L704.112,546.9c-7.265.791-14.6,1.581-21.864.819-.458-1.592.441-2.718.375-4.376a9.777,9.777,0,0,0-1.035-3.381,21.613,21.613,0,0,1-1.686-6.116,8.289,8.289,0,0,0-.407-2.295,2.151,2.151,0,0,0-1.706-1.422c4.265-.424,7.5-1.228,11.769-1.655a10.508,10.508,0,0,0,4.581-1.18c1.675-1.044,2.613-2.926,3.358-4.751,1.845-4.521,3.034-9.5,2.064-14.291-.8-3.927-3.017-7.584-3.006-11.59a17.343,17.343,0,0,1,1.774-6.881c1.018-2.309,2.346-4.669,4.581-5.841S708.716,482.712,711.238,483.054Z" transform="translate(-492.17 -384.288)" opacity="0.08"/>
                <path d="M442.41,359.63c1.032-2.451,2.081-4.982,2.11-7.64.031-2.875-1.137-5.6-2.03-8.334a48.193,48.193,0,0,1-2.192-10.291,1.422,1.422,0,0,1,.142-.987,1.7,1.7,0,0,1,1.092-.489c1.968-.449,3.455-2.039,4.683-3.64a39.9,39.9,0,0,0,4.794-8.007c.941-2.1,2.215-4.652,4.513-4.672a130.335,130.335,0,0,1-3.435,12.867c2.4-.614,4.686-1.507,7.089-2.121a4.244,4.244,0,0,1,1.456-.193,2.2,2.2,0,0,1,1.484,3.279c1.174,1.376,3.128,1.746,4.663,2.69s2.639,3.281,1.274,4.467a3.809,3.809,0,0,0-.8.688c-.66,1.018.955,2.187.822,3.392-.108.987-1.373,1.447-2.332,1.186a10.493,10.493,0,0,1-2.559-1.5,2.676,2.676,0,0,0-2.8-.307,22.325,22.325,0,0,1-1.618,7.84c-.424.89-.967,1.723-1.308,2.647a13.046,13.046,0,0,0-.6,3.108l-1.032,9.438C450.9,364.032,446.488,362.556,442.41,359.63Z" transform="translate(-322.185 -264.558)" fill="#efb7b9"/>
                <path d="M440.932,470.764l-.907-6.139a7.5,7.5,0,0,1,1.086-5.585,37.379,37.379,0,0,0,15.98,3.179,2.5,2.5,0,0,0,2.019-.64,4.634,4.634,0,0,1,.569,4.2c-.4,1.376-1.171,2.616-1.683,3.958a5.644,5.644,0,0,1-.964,1.945,4.16,4.16,0,0,1-3.145.964,20.1,20.1,0,0,1-3.549-.338C447.307,471.747,443.963,470.221,440.932,470.764Z" transform="translate(-321.909 -367.232)" fill="#FFFFFF"/>
                <path d="M439.8,491.954q-5.843-.665-11.61-1.877a23.483,23.483,0,0,0-5.71-.759c-1.251.051-2.6.3-3.7-.318a17.8,17.8,0,0,1-.145,11.073c-.759,2.133-1.917,4.12-2.474,6.315-1.16,4.592.432,9.6-1.018,14.109a3.571,3.571,0,0,1-.876,1.57c-.444.407-1.049.617-1.459,1.058a3.61,3.61,0,0,0-.643,2.508l-.026,7.834c-.017,4.987.048,10.276,2.681,14.5a13.769,13.769,0,0,0,14.826,5.869,11.021,11.021,0,0,0,4.026-1.971A18.8,18.8,0,0,0,438,546.015a25.109,25.109,0,0,0,3.3-8.056,22.89,22.89,0,0,0-.091-6.17c-1.285-11.374-4.075-22.651-3.475-34.068A10.324,10.324,0,0,1,439.8,491.954Z" transform="translate(-302.06 -388.673)" fill="#3AADAA"/>
                <path d="M480.113,662.2a34.47,34.47,0,0,1-5.934,0c-1.422-.171-2.809-.52-4.22-.759a27.045,27.045,0,0,0-21.778,6.051c-1.092.933-2.2,2.363-1.592,3.668.648,1.4,2.63,1.365,4.157,1.1a12.51,12.51,0,0,0-4.265,3.335,2.518,2.518,0,0,0-.748,1.811c.173,1.408,2.084,1.664,3.5,1.541a1.177,1.177,0,0,0,.435,1.706,2.918,2.918,0,0,0,1.976.145,14.648,14.648,0,0,0,4.2-1.453,1.6,1.6,0,0,0,.853,1.86,3.514,3.514,0,0,0,2.192.2c3.475-.569,6.375-2.986,9.765-3.935,5.42-1.516,11.09.9,16.723,1.072a11.669,11.669,0,0,0,5.178-.853c1.971-.9,3.56-2.576,5.641-3.173,2.312-.66,4.965.1,7.08-1.041,1.538-.827.151-7.205-.242-8.434-.719-2.246-1.442-3.736-3.839-3.964C493.125,660.492,486.224,661.851,480.113,662.2Z" transform="translate(-326.09 -511.721)" fill="#efb7b9"/>
                <path d="M619.88,656.6s9.182,7.771,3.884,16.251L634,669.317V661.9c0-.353-3.887-5.65-3.887-5.65l-4.592-.708Z" transform="translate(-450.726 -507.858)" fill="#FFFFFF"/>
                <path d="M238.9,521.32h3.443a7.109,7.109,0,0,1,7.109,7.109v10.552H231.79V528.429A7.109,7.109,0,0,1,238.9,521.32Z" transform="translate(-165.881 -373.058)" fill="#3f3d56"/>
                <path d="M238.9,521.32h3.443a7.109,7.109,0,0,1,7.109,7.109v10.552H231.79V528.429A7.109,7.109,0,0,1,238.9,521.32Z" transform="translate(-165.881 -373.058)" opacity="0.1"/>
                <circle cx="1.413" cy="1.413" r="1.413" transform="translate(72.62 149.32)" fill="#3f3d56"/>
                <circle cx="1.413" cy="1.413" r="1.413" transform="translate(72.62 147.554)" fill="#3f3d56"/>
                <circle cx="1.413" cy="1.413" r="1.413" transform="translate(72.62 145.788)" fill="#3f3d56"/>
                <circle cx="1.413" cy="1.413" r="1.413" transform="translate(72.62 144.023)" fill="#3f3d56"/>
                <circle cx="1.413" cy="1.413" r="1.413" transform="translate(72.62 142.257)" fill="#3f3d56"/>
                <circle cx="1.413" cy="1.413" r="1.413" transform="translate(72.62 140.491)" fill="#3f3d56"/>
                <circle cx="1.413" cy="1.413" r="1.413" transform="translate(72.62 138.722)" fill="#3f3d56"/>
                <circle cx="1.413" cy="1.413" r="1.413" transform="translate(74.741 139.43)" fill="#3f3d56"/>
                <circle cx="1.413" cy="1.413" r="1.413" transform="translate(76.154 138.722)" fill="#3f3d56"/>
                <circle cx="1.413" cy="1.413" r="1.413" transform="translate(77.568 138.017)" fill="#3f3d56"/>
                <circle cx="1.413" cy="1.413" r="1.413" transform="translate(72.62 136.957)" fill="#3f3d56"/>
                <circle cx="1.413" cy="1.413" r="1.413" transform="translate(72.62 135.191)" fill="#3f3d56"/>
                <circle cx="1.413" cy="1.413" r="1.413" transform="translate(72.62 133.425)" fill="#3f3d56"/>
                <circle cx="1.413" cy="1.413" r="1.413" transform="translate(72.62 131.659)" fill="#3f3d56"/>
                <path d="M276.12,575.587q-.529.077-1.058.111a8.125,8.125,0,0,0,.91-.933,5.972,5.972,0,0,0-.853-1.658,2.905,2.905,0,0,1-1.137.358c-.35.051-.7.088-1.055.114a17.62,17.62,0,0,0,1.351-1.422,6,6,0,1,0,1.971,4.439,5.88,5.88,0,0,0-.091-1.032Z" transform="translate(-196.218 -447.073)" fill="#3AADAA"/>
                <path d="M308.407,611.078a2.741,2.741,0,0,1-1.189.4c-.35.051-.7.091-1.055.114a10.35,10.35,0,0,0,1.046-1.086,3.537,3.537,0,1,0,1.2.569Z" transform="translate(-223.793 -475.543)" fill="#3AADAA"/>
                <circle cx="1.413" cy="1.413" r="1.413" transform="translate(70.502 139.43)" fill="#3f3d56"/>
                <circle cx="1.413" cy="1.413" r="1.413" transform="translate(69.088 138.722)" fill="#3f3d56"/>
                <circle cx="1.413" cy="1.413" r="1.413" transform="translate(67.675 138.017)" fill="#3f3d56"/>
                <path d="M244.515,611.078a2.741,2.741,0,0,0,1.189.4c.35.051.7.091,1.055.114a10.068,10.068,0,0,1-1.046-1.086,3.537,3.537,0,1,1-1.2.569Z" transform="translate(-181.06 -475.543)" fill="#3AADAA"/>
                <path d="M238.877,525h3.443a7.109,7.109,0,0,1,7.109,7.109v9.347a1.206,1.206,0,0,1-1.206,1.206H232.966a1.206,1.206,0,0,1-1.206-1.206v-9.347A7.109,7.109,0,0,1,238.877,525Z" transform="translate(-165.859 -375.691)" fill="#3f3d56"/>
                <g transform="translate(68.113 123.611)" opacity="0.1">
                    <path d="M305.195,589.49a5.363,5.363,0,0,1-.455.432,4.631,4.631,0,0,0,.483-.043C305.218,589.749,305.209,589.618,305.195,589.49Z" transform="translate(-293.309 -584.2)"/>
                    <path d="M297.28,580.587c.355-.023.705-.06,1.058-.111a3.411,3.411,0,0,0,.918-.25,6.232,6.232,0,0,0-.495-.816,2.143,2.143,0,0,1-.569.242,8.2,8.2,0,0,1-.913.936Z" transform="translate(-287.97 -576.986)"/>
                    <path d="M265.163,577.52a5.994,5.994,0,0,1,9.241-5.05l.091-.1a6,6,0,1,0-7.911,9.023,5.971,5.971,0,0,1-1.422-3.876Z" transform="translate(-264.54 -570.885)"/>
                </g>
                <g transform="translate(78.981 134.838)" opacity="0.1">
                    <path d="M314.68,614.013c.353-.023.705-.06,1.055-.111a2.746,2.746,0,0,0,1.189-.4,3.535,3.535,0,0,1,1.422,2.5,3.231,3.231,0,0,0,.02-.372,3.52,3.52,0,0,0-1.422-2.844,2.741,2.741,0,0,1-1.189.4l-.284.037A7.217,7.217,0,0,1,314.68,614.013Z" transform="translate(-311.291 -612.102)"/>
                    <path d="M306.292,611.075a2.911,2.911,0,0,1,.353.026c.185-.2.367-.407.552-.611a3.526,3.526,0,0,0-4.436,3.412,2.416,2.416,0,0,0,.017.353A3.532,3.532,0,0,1,306.292,611.075Z" transform="translate(-302.76 -610.37)"/>
                </g>
                <g transform="translate(62.014 134.838)" opacity="0.1">
                    <path d="M246.775,614.013c-.353-.023-.705-.06-1.055-.111a2.746,2.746,0,0,1-1.189-.4,3.534,3.534,0,0,0-1.422,2.5,3.238,3.238,0,0,1-.02-.372,3.52,3.52,0,0,1,1.422-2.844,2.741,2.741,0,0,0,1.189.4l.284.037A6.724,6.724,0,0,0,246.775,614.013Z" transform="translate(-243.09 -612.102)"/>
                    <path d="M253.274,611.075a3.01,3.01,0,0,0-.355.026c-.182-.2-.364-.407-.549-.611a3.526,3.526,0,0,1,4.436,3.412,2.42,2.42,0,0,1-.017.353A3.532,3.532,0,0,0,253.274,611.075Z" transform="translate(-249.731 -610.37)"/>
                </g>
                <path d="M148.961,696.358H121.18a1.18,1.18,0,0,1-1.18-1.18V682.029a1.18,1.18,0,0,1,1.686-1.066c7.982,3.788,16.58,5.087,26.729.06a1.183,1.183,0,0,1,1.706,1.055v13.08A1.18,1.18,0,0,1,148.961,696.358Z" transform="translate(-92.987 -525.97)" fill="#3AADAA"/>
                <path d="M148.961,696.358H121.18a1.18,1.18,0,0,1-1.18-1.18V682.029a1.18,1.18,0,0,1,1.686-1.066c7.982,3.788,16.58,5.087,26.729.06a1.183,1.183,0,0,1,1.706,1.055v13.08A1.18,1.18,0,0,1,148.961,696.358Z" transform="translate(-92.987 -525.97)" opacity="0.1"/>
                <ellipse cx="1.644" cy="2.153" rx="1.644" ry="2.153" transform="translate(40.247 156.088)" fill="#3f3d56"/>
                <ellipse cx="1.644" cy="2.153" rx="1.644" ry="2.153" transform="translate(40.247 153.457)" fill="#3f3d56"/>
                <ellipse cx="1.644" cy="2.153" rx="1.644" ry="2.153" transform="translate(40.247 150.824)" fill="#3f3d56"/>
                <ellipse cx="1.644" cy="2.153" rx="1.644" ry="2.153" transform="translate(40.247 148.194)" fill="#3f3d56"/>
                <ellipse cx="1.644" cy="2.153" rx="1.644" ry="2.153" transform="translate(40.247 145.561)" fill="#3f3d56"/>
                <ellipse cx="1.644" cy="2.153" rx="1.644" ry="2.153" transform="translate(40.247 142.928)" fill="#3f3d56"/>
                <ellipse cx="1.644" cy="2.153" rx="1.644" ry="2.153" transform="translate(40.247 140.298)" fill="#3f3d56"/>
                <path d="M158.584,541.632a8.379,8.379,0,0,0,.611-.9l-4.322-.711,4.675.034a7.879,7.879,0,0,0,.151-6.256l-6.27,3.253,5.784-4.265A7.879,7.879,0,1,0,146.2,541.6a7.708,7.708,0,0,0-.9,1.436l5.607,2.946-5.971-2.019a7.888,7.888,0,0,0,1.271,7.393,7.879,7.879,0,1,0,12.386,0,7.879,7.879,0,0,0,0-9.742Z" transform="translate(-110.528 -417.193)" fill="#3AADAA"/>
                <path d="M144.49,590.638a7.845,7.845,0,0,0,1.686,4.871,7.879,7.879,0,1,0,12.386,0C159.617,594.169,144.49,589.753,144.49,590.638Z" transform="translate(-110.513 -461.327)" opacity="0.1"/>
                <path d="M148.961,697.054H121.18a1.18,1.18,0,0,1-1.18-1.18V682.029a1.18,1.18,0,0,1,1.686-1.066c7.982,3.788,14.311,8.2,26.729.06a1.157,1.157,0,0,1,1.706,1.055v13.791A1.18,1.18,0,0,1,148.961,697.054Z" transform="translate(-92.987 -525.97)" fill="#3AADAA"/>
                <path d="M763.084,551.705,722.1,557.128l-2.05.27L700.01,546.7V544.19l62.619-6.83Z" transform="translate(-500.963 -384.537)" fill="#9c9ca1"/>
                <path d="M740.85,561.015l44.4-5.235-.455,8.2-34.585,2.536Z" transform="translate(-530.19 -397.719)" fill="#939498"/>
                <path d="M747.091,707.885v2.69l-2.05.284L725,700.145V697.64l19.128,10.237A12.662,12.662,0,0,0,747.091,707.885Z" transform="translate(-525.955 -537.987)" opacity="0.4"/>
                <path d="M807.045,570.774l-9.2,42.667a2.724,2.724,0,0,0,3.02,3.279l58.215-7.706a2.724,2.724,0,0,0,2.229-1.843l12.56-37.875a2.73,2.73,0,0,0-2.718-3.583l-61.567,2.923A2.73,2.73,0,0,0,807.045,570.774Z" transform="translate(-578.042 -443.571)" fill="#3f3d56"/>
                <ellipse cx="2.474" cy="1.59" rx="2.474" ry="1.59" transform="translate(257.571 145.073) rotate(-84)" fill="#FFFFFF"/>
            </g>
            <g transform="translate(346.431 -209.478)" opacity="0.4">
                <rect width="123.2" height="2" transform="translate(98.205 717.377)" fill="#212529"/>
                <rect width="108.2" height="2" transform="translate(98.205 722.377)" fill="#212529"/>
                <rect width="79" height="2" transform="translate(98.205 727.377)" fill="#212529"/>
                <rect width="91" height="2" transform="translate(98.205 732.377)" fill="#212529"/>
            </g>
            <rect width="94" height="28" transform="translate(444.636 536.747)" fill="#3AADAA"/>
            <text transform="translate(514 492)" font-size="24" font-family="Arial-BoldMT, Arial" font-weight="700" fill="#212529"><tspan x="-71.127" y="0">Section Title</tspan></text>
            <text transform="translate(491 555)" fill="#FFFFFF" font-size="11" font-family="Arial-BoldMT, Arial" font-weight="700"><tspan x="-23.235" y="0">Discover</tspan></text>
        </g>
        <g class="s_media_list">
            <rect width="700" height="440" transform="translate(0 642)" fill="#3AADAA"/>
            <g clip-path="url(#theme_odoo_experts_clip-path)">
                <path d="M980.5,0l210,570.679V0Z" transform="translate(-490.5 642.134)" fill="#383E45"/>
            </g>
            <g transform="translate(0 4)">
                <rect width="374" height="110" rx="3" transform="translate(70 673)" fill="#FFFFFF"/>
                <path d="M0,0H138a3,3,0,0,1,3,3V107a3,3,0,0,1-3,3H0a0,0,0,0,1,0,0V0A0,0,0,0,1,0,0Z" transform="translate(303 673)" class="img_reference_s_media_list_default_image_1" fill="url(#theme_odoo_experts_s_media_list_default_image_1_id)"/>
                <g transform="translate(-3.205 20.384)" opacity="0.4">
                    <rect width="161" height="2" transform="translate(98.205 717.377)" fill="#212529"/>
                    <rect width="146" height="2" transform="translate(98.205 722.377)" fill="#212529"/>
                    <rect width="79" height="2" transform="translate(98.205 727.377)" fill="#212529"/>
                    <rect width="115" height="2" transform="translate(98.205 732.377)" fill="#212529"/>
                </g>
                <text fill="#212529" transform="translate(171 718)" font-size="22" font-family="Arial-BoldMT, Arial" font-weight="700"><tspan x="-53.587" y="0">Entry Title</tspan></text>
                <path d="M-492.746-218.8a2.34,2.34,0,0,1-1.606-.528,1.85,1.85,0,0,1-.594-1.452,1.878,1.878,0,0,1,.594-1.474,2.34,2.34,0,0,1,1.606-.528,2.333,2.333,0,0,1,1.617.528,1.9,1.9,0,0,1,.583,1.474,1.867,1.867,0,0,1-.583,1.452A2.333,2.333,0,0,1-492.746-218.8Zm-4.818-.2h-3.652v-8.36c0-.395,0-.791.012-1.177s.011-.819.011-1.243a8.78,8.78,0,0,1-1.607,1.155,5.936,5.936,0,0,1-1.848.671l-.352-3.124a4.545,4.545,0,0,0,1.221-.286,9.673,9.673,0,0,0,1.287-.594,8.071,8.071,0,0,0,1.144-.759,3.722,3.722,0,0,0,.77-.8h3.014V-219Z" transform="translate(600 936.862)" fill="#212529"/>
            </g>
            <g transform="translate(93 134)">
                <rect width="374" height="110" rx="3" transform="translate(70 673)" fill="#383E45"/>
                <path d="M0,0H138a3,3,0,0,1,3,3V107a3,3,0,0,1-3,3H0a0,0,0,0,1,0,0V0A0,0,0,0,1,0,0Z" transform="translate(303 673)" class="img_reference_s_media_list_default_image_2" fill="url(#theme_odoo_experts_s_media_list_default_image_2_id)"/>
                <g transform="translate(-3.205 20.384)" opacity="0.4">
                    <rect width="161" height="2" transform="translate(98.205 717.377)" fill="#FFFFFF"/>
                    <rect width="146" height="2" transform="translate(98.205 722.377)" fill="#FFFFFF"/>
                    <rect width="79" height="2" transform="translate(98.205 727.377)" fill="#FFFFFF"/>
                    <rect width="115" height="2" transform="translate(98.205 732.377)" fill="#FFFFFF"/>
                </g>
                <text transform="translate(170 718)" fill="#fff" font-size="22" font-family="Arial-BoldMT, Arial" font-weight="700"><tspan x="-53.587" y="0">Entry Title</tspan></text>
                <path d="M-492.746-218.8a2.34,2.34,0,0,1-1.606-.528,1.85,1.85,0,0,1-.594-1.452,1.878,1.878,0,0,1,.594-1.474,2.34,2.34,0,0,1,1.606-.528,2.333,2.333,0,0,1,1.617.528,1.9,1.9,0,0,1,.583,1.474,1.867,1.867,0,0,1-.583,1.452A2.333,2.333,0,0,1-492.746-218.8Zm-4.818-.2h-3.652v-8.36c0-.395,0-.791.012-1.177s.011-.819.011-1.243a8.78,8.78,0,0,1-1.607,1.155,5.936,5.936,0,0,1-1.848.671l-.352-3.124a4.545,4.545,0,0,0,1.221-.286,9.673,9.673,0,0,0,1.287-.594,8.071,8.071,0,0,0,1.144-.759,3.722,3.722,0,0,0,.77-.8h3.014V-219Z" transform="translate(600 936.862)" fill="#fff" stroke="rgba(0,0,0,0)" stroke-miterlimit="10" stroke-width="1"/>
            </g>
            <g transform="translate(186 264)">
                <rect width="374" height="110" rx="3" transform="translate(70 673)" fill="#FFFFFF"/>
                <path d="M0,0H138a3,3,0,0,1,3,3V107a3,3,0,0,1-3,3H0a0,0,0,0,1,0,0V0A0,0,0,0,1,0,0Z" transform="translate(303 673)" class="img_reference_s_media_list_default_image_3" fill="url(#theme_odoo_experts_s_media_list_default_image_3_id)"/>
                <g transform="translate(-3.205 20.385)" opacity="0.4">
                    <rect width="161" height="2" transform="translate(98.205 717.377)" fill="#212529"/>
                    <rect width="146" height="2" transform="translate(98.205 722.377)" fill="#212529"/>
                    <rect width="79" height="2" transform="translate(98.205 727.377)" fill="#212529"/>
                    <rect width="115" height="2" transform="translate(98.205 732.377)" fill="#212529"/>
                </g>
                <text fill="#212529" transform="translate(170 718)" font-size="22" font-family="Arial-BoldMT, Arial" font-weight="700"><tspan x="-53.587" y="0">Entry Title</tspan></text>
                <path d="M-492.746-218.8a2.34,2.34,0,0,1-1.606-.528,1.85,1.85,0,0,1-.594-1.452,1.878,1.878,0,0,1,.594-1.474,2.34,2.34,0,0,1,1.606-.528,2.333,2.333,0,0,1,1.617.528,1.9,1.9,0,0,1,.583,1.474,1.867,1.867,0,0,1-.583,1.452A2.333,2.333,0,0,1-492.746-218.8Zm-4.818-.2h-3.652v-8.36c0-.395,0-.791.012-1.177s.011-.819.011-1.243a8.78,8.78,0,0,1-1.607,1.155,5.936,5.936,0,0,1-1.848.671l-.352-3.124a4.545,4.545,0,0,0,1.221-.286,9.673,9.673,0,0,0,1.287-.594,8.071,8.071,0,0,0,1.144-.759,3.722,3.722,0,0,0,.77-.8h3.014V-219Z" transform="translate(600 936.862)" fill="#212529"/>
            </g>
        </g>
        <g class="s_company_team">
            <path d="M700,1016.1,0,893.1v123Z" transform="translate(0 331.4)" fill="#F6F6F6"/>
            <g transform="translate(184.404 1155.04)" opacity="0.4">
                <rect width="131" height="2" transform="translate(1.575 32.025)" fill="#212529"/>
                <rect width="116" height="2" transform="translate(1.575 37.025)" fill="#212529"/>
                <rect width="79" height="2" transform="translate(1.575 42.025)" fill="#212529"/>
                <rect width="91" height="2" transform="translate(1.575 47.025)" fill="#212529"/>
            </g>
            <g transform="translate(184.404 1242.04)" opacity="0.4">
                <rect width="131" height="2" transform="translate(1.575 32.025)" fill="#212529"/>
                <rect width="116" height="2" transform="translate(1.575 37.025)" fill="#212529"/>
                <rect width="79" height="2" transform="translate(1.575 42.025)" fill="#212529"/>
                <rect width="91" height="2" transform="translate(1.575 47.025)" fill="#212529"/>
            </g>
            <g transform="translate(464.425 1155.04)" opacity="0.4">
                <rect width="131" height="2" transform="translate(1.575 32.025)" fill="#212529"/>
                <rect width="116" height="2" transform="translate(1.575 37.025)" fill="#212529"/>
                <rect width="79" height="2" transform="translate(1.575 42.025)" fill="#212529"/>
                <rect width="91" height="2" transform="translate(1.575 47.025)" fill="#212529"/>
            </g>
            <g transform="translate(464.425 1242.04)" opacity="0.4">
                <rect width="131" height="2" transform="translate(1.575 32.025)" fill="#212529"/>
                <rect width="116" height="2" transform="translate(1.575 37.025)" fill="#212529"/>
                <rect width="79" height="2" transform="translate(1.575 42.025)" fill="#212529"/>
                <rect width="91" height="2" transform="translate(1.575 47.025)" fill="#212529"/>
            </g>
            <text fill="#212529" transform="translate(246 1171)" font-size="18" font-family="Arial-BoldMT, Arial" font-weight="700"><tspan x="-59.854" y="0">Team Member</tspan></text>
            <text fill="#212529" transform="translate(526 1171)" font-size="18" font-family="Arial-BoldMT, Arial" font-weight="700"><tspan x="-59.854" y="0">Team Member</tspan></text>
            <text fill="#212529" transform="translate(246 1259)" font-size="18" font-family="Arial-BoldMT, Arial" font-weight="700"><tspan x="-59.854" y="0">Team Member</tspan></text>
            <text fill="#212529" transform="translate(526 1259)" font-size="18" font-family="Arial-BoldMT, Arial" font-weight="700"><tspan x="-59.854" y="0">Team Member</tspan></text>
            <circle cx="30" cy="30" r="30" transform="translate(103 1152)" fill="url(#theme_odoo_experts_member_1)"/>
            <circle cx="30" cy="30" r="30" transform="translate(103 1239)" fill="url(#theme_odoo_experts_member_2)"/>
            <circle cx="30" cy="30" r="30" transform="translate(384 1152)" fill="url(#theme_odoo_experts_member_3)"/>
            <circle cx="30" cy="30" r="30" transform="translate(384 1239)" fill="url(#theme_odoo_experts_member_4)"/>
        </g>
        <g class="s_references">
            <rect width="700" height="240" transform="translate(0 1347)" fill="#F6F6F6"/>
            <text transform="translate(350 1387)" fill="#3AADAA" font-size="24" font-family="Arial-BoldMT, Arial" font-weight="700"><tspan x="-71.127" y="0">Section Title</tspan></text>
            <rect width="94" height="2" transform="translate(304 1405.065)" fill="#F6F6F6" class="svgc_text" opacity="0.4" filter="url(#filter_readability_odoo_experts)"/>
            <path d="M0,1016.1l700-123v123Z" transform="translate(0 570.9)" fill="#3AADAA"/>
            <rect width="60" height="20" transform="translate(243 1432)" fill="url(#theme_odoo_experts_s_reference_demo_image_1)"/>
            <rect width="60" height="20" transform="translate(243 1470)" fill="url(#theme_odoo_experts_s_reference_demo_image_2)"/>
            <rect width="60" height="20" transform="translate(320 1432)" fill="url(#theme_odoo_experts_s_reference_demo_image_3)"/>
            <rect width="60" height="20" transform="translate(320 1470)" fill="url(#theme_odoo_experts_s_reference_demo_image_4)"/>
            <rect width="60" height="20" transform="translate(397 1432)" fill="url(#theme_odoo_experts_s_reference_demo_image_5)"/>
            <rect width="60" height="20" transform="translate(397 1470)" fill="url(#theme_odoo_experts_s_reference_demo_image_6)"/>
        </g>
        <g class="s_call_to_action">
            <rect width="700" height="125" transform="translate(0 1587)" fill="#3AADAA"/>
            
            <g transform="translate(68.425 1599.508)" opacity="0.4">
                <rect width="131" height="2" transform="translate(1.575 32.025)" fill="#3AADAA" class="svgc_text" filter="url(#filter_readability_odoo_experts)"/>
                <rect width="116" height="2" transform="translate(1.575 37.025)" fill="#3AADAA" class="svgc_text" filter="url(#filter_readability_odoo_experts)"/>
            </g>
            <rect width="94" height="28" transform="translate(537 1597.468)" fill="#383E45"/>
            <text transform="translate(141 1615)" fill="#3AADAA" class="svgc_text" font-size="24" font-family="Arial-BoldMT, Arial" font-weight="700" filter="url(#filter_readability_odoo_experts)"><tspan x="-71.127" y="0">Section Title</tspan></text>
            <text transform="translate(584 1616)" fill="#FFFFFF" font-size="11" font-family="Arial-BoldMT, Arial" font-weight="700"><tspan x="-23.235" y="0">Discover</tspan></text>
            <g transform="translate(537 1602.954)">
                <path d="M589.667,0,562.5,27.167h27.167Z" transform="translate(-426.667)" fill="#383E45"/>
                <path d="M477.167,112.5,450,139.667h27.167Z" transform="translate(-341.333 -85.333)" fill="#383E45"/>
                <path d="M562.5,252.167,589.667,225H562.5Z" transform="translate(-426.667 -170.667)" fill="#383E45"/>
                <path d="M477.167,252.167,450,225v27.167Z" transform="translate(-341.333 -170.667)" fill="#7C6576"/>
                <path d="M337.5,337.5l27.167,27.167V337.5Z" transform="translate(-256 -256)" fill="#7C6576"/>
                <path d="M337.5,225l27.167,27.167V225Z" transform="translate(-256 -170.667)" fill="#F6F6F6"/>
                <path d="M225,252.167,252.167,225H225Z" transform="translate(-170.667 -170.667)" fill="#F6F6F6"/>
                <path d="M252.167,337.5,225,364.667h27.167Z" transform="translate(-170.667 -256)" fill="#383E45"/>
                <path d="M112.5,337.5l27.167,27.167V337.5Z" transform="translate(-85.333 -256)" fill="#383E45"/>
                <path d="M0,337.5l27.167,27.167V337.5Z" transform="translate(0 -256)" fill="#7C6576"/>
                <path d="M589.667,337.5,562.5,364.667h27.167Z" transform="translate(-426.667 -256)" fill="#383E45"/>
                <path d="M589.667,139.667,562.5,112.5h27.167Z" transform="translate(-426.667 -85.333)" fill="#7C6576"/>
            </g>
        </g>
        <g class="svgc_footer">
            <rect width="700" height="139" transform="translate(0 1711)" class="svgc_footer_bg" fill="#FOOTER_COLOR"/>
            <g transform="translate(9 -17)" opacity="0.4">
                <rect width="28" height="2" transform="translate(593 1823)" fill="#FOOTER_COLOR" class="svgc_text" filter="url(#filter_readability_odoo_experts)"/>
                <rect width="28" height="2" transform="translate(560 1823)" fill="#FOOTER_COLOR" class="svgc_text" filter="url(#filter_readability_odoo_experts)"/>
                <rect width="28" height="2" transform="translate(527 1823)" fill="#FOOTER_COLOR" class="svgc_text" filter="url(#filter_readability_odoo_experts)"/>
                <rect width="28" height="2" transform="translate(494 1823)" fill="#FOOTER_COLOR" class="svgc_text" filter="url(#filter_readability_odoo_experts)"/>
            </g>
            <path d="M76.345,23V21.479H72.6V14.273H70.759V23Zm4.68.12a4.131,4.131,0,0,0,2.08-.527,3.749,3.749,0,0,0,1.467-1.528,5.054,5.054,0,0,0,.539-2.429,5.059,5.059,0,0,0-.54-2.429,3.755,3.755,0,0,0-1.465-1.527,4.388,4.388,0,0,0-4.17,0,3.739,3.739,0,0,0-1.461,1.527,5.084,5.084,0,0,0-.537,2.43,5.07,5.07,0,0,0,.537,2.424,3.753,3.753,0,0,0,1.461,1.53,4.138,4.138,0,0,0,2.088.528Zm0-1.633a2.08,2.08,0,0,1-1.168-.328,2.128,2.128,0,0,1-.774-.963,3.929,3.929,0,0,1-.275-1.56,3.935,3.935,0,0,1,.275-1.56,2.114,2.114,0,0,1,.774-.962,2.242,2.242,0,0,1,2.335,0,2.121,2.121,0,0,1,.773.963,3.911,3.911,0,0,1,.275,1.56,3.909,3.909,0,0,1-.275,1.559,2.12,2.12,0,0,1-.773.963,2.075,2.075,0,0,1-1.168.328ZM90.3,23.119a4.152,4.152,0,0,0,1.952-.445,3.292,3.292,0,0,0,1.338-1.27,3.823,3.823,0,0,0,.486-1.975v-1.1H90.426v1.39H92.3l0,.126a1.886,1.886,0,0,1-.157.645l-.073.14a1.591,1.591,0,0,1-.682.633,2.35,2.35,0,0,1-1.071.224,2.127,2.127,0,0,1-1.2-.334,2.151,2.151,0,0,1-.784-.974,3.9,3.9,0,0,1-.277-1.551,3.805,3.805,0,0,1,.281-1.545,2.174,2.174,0,0,1,.787-.965,2.086,2.086,0,0,1,1.174-.332,2.283,2.283,0,0,1,.654.089,1.778,1.778,0,0,1,.528.258,1.6,1.6,0,0,1,.394.409,1.94,1.94,0,0,1,.252.552H94a3.19,3.19,0,0,0-.4-1.187,3.27,3.27,0,0,0-.812-.931,3.741,3.741,0,0,0-1.135-.607,4.3,4.3,0,0,0-1.381-.216,4.21,4.21,0,0,0-1.607.3,3.756,3.756,0,0,0-1.3.882,4.021,4.021,0,0,0-.867,1.413,5.417,5.417,0,0,0-.309,1.894,5.141,5.141,0,0,0,.518,2.384,3.725,3.725,0,0,0,1.447,1.547,4.2,4.2,0,0,0,2.156.543Zm8.958,0a4.137,4.137,0,0,0,2.081-.526,3.747,3.747,0,0,0,1.466-1.528,5.054,5.054,0,0,0,.54-2.429,5.059,5.059,0,0,0-.54-2.429,3.763,3.763,0,0,0-1.466-1.527,4.386,4.386,0,0,0-4.169,0,3.742,3.742,0,0,0-1.462,1.527,5.084,5.084,0,0,0-.537,2.43,5.07,5.07,0,0,0,.537,2.424,3.756,3.756,0,0,0,1.462,1.53A4.133,4.133,0,0,0,99.26,23.119Zm0-1.632a2.081,2.081,0,0,1-1.168-.328,2.127,2.127,0,0,1-.773-.963,3.911,3.911,0,0,1-.275-1.56,3.918,3.918,0,0,1,.275-1.56,2.112,2.112,0,0,1,.773-.962,2.242,2.242,0,0,1,2.335,0,2.123,2.123,0,0,1,.774.963,3.929,3.929,0,0,1,.275,1.56A3.927,3.927,0,0,1,101.2,20.2a2.128,2.128,0,0,1-.774.963A2.075,2.075,0,0,1,99.26,21.487Z" transform="translate(-0.759 1787.847)" fill="#FOOTER_COLOR" class="svgc_text" opacity="1" filter="url(#filter_readability_odoo_experts)"/>
            <line x2="560" transform="translate(70.5 1787)" stroke="#FOOTER_COLOR" class="svgc_text" filter="url(#filter_readability_odoo_experts)" opacity="0.4" stroke-width="1"/>
            <g transform="translate(0 -19)" opacity="0.4">
                <circle cx="5" cy="5" r="5" transform="translate(583 1781)" fill="#FOOTER_COLOR" class="svgc_text" filter="url(#filter_readability_odoo_experts)"/>
                <circle cx="5" cy="5" r="5" transform="translate(602 1781)" fill="#FOOTER_COLOR" class="svgc_text" filter="url(#filter_readability_odoo_experts)"/>
                <circle cx="5" cy="5" r="5" transform="translate(620 1781)" fill="#FOOTER_COLOR" class="svgc_text" filter="url(#filter_readability_odoo_experts)"/>
            </g>
            <rect width="93" height="7" transform="translate(70 1765)" fill="#FOOTER_COLOR" class="svgc_text" filter="url(#filter_readability_odoo_experts)"/>
            <rect width="93" height="7" transform="translate(210 1765)" fill="#FOOTER_COLOR" class="svgc_text" opacity="0.4" filter="url(#filter_readability_odoo_experts)"/>
            <rect width="93" height="7" transform="translate(350 1765)" fill="#FOOTER_COLOR" class="svgc_text" opacity="0.4" filter="url(#filter_readability_odoo_experts)"/>
            <rect width="46" height="4" transform="translate(210 1752)" fill="#FOOTER_COLOR" class="svgc_text" filter="url(#filter_readability_odoo_experts)"/>
            <rect width="47" height="4" transform="translate(350 1752)" fill="#FOOTER_COLOR" class="svgc_text" filter="url(#filter_readability_odoo_experts)"/>
            <rect width="47" height="4" transform="translate(583 1752)" fill="#FOOTER_COLOR" class="svgc_text" filter="url(#filter_readability_odoo_experts)"/>
            <rect width="47" height="4" transform="translate(70 1752)" fill="#FOOTER_COLOR" class="svgc_text" filter="url(#filter_readability_odoo_experts)"/>
        </g>
    </g>
</svg>
