<svg xmlns="http://www.w3.org/2000/svg" width="739" height="415" viewBox="0 0 739 415">
  <defs>
    <linearGradient id="linearGradient-1" x1="50%" x2="50%" y1="0%" y2="100%">
      <stop offset="0%" stop-color="#FBFAFA"/>
      <stop offset="100%" stop-color="#F6F4F2"/>
    </linearGradient>
    <linearGradient id="linearGradient-2" x1="50.005%" x2="50.005%" y1="100.027%" y2="-.01%">
      <stop offset="0%" stop-color="gray" stop-opacity=".25"/>
      <stop offset="54%" stop-color="gray" stop-opacity=".12"/>
      <stop offset="100%" stop-color="gray" stop-opacity=".1"/>
    </linearGradient>
    <linearGradient id="linearGradient-3" x1="50.989%" x2="48.976%" y1="100.245%" y2="-.814%">
      <stop offset="0%" stop-color="gray" stop-opacity=".25"/>
      <stop offset="54%" stop-color="gray" stop-opacity=".12"/>
      <stop offset="100%" stop-color="gray" stop-opacity=".1"/>
    </linearGradient>
    <linearGradient id="linearGradient-4" x1="50.006%" x2="50.006%" y1="99.984%" y2="-.001%">
      <stop offset="0%" stop-color="gray" stop-opacity=".25"/>
      <stop offset="54%" stop-color="gray" stop-opacity=".12"/>
      <stop offset="100%" stop-color="gray" stop-opacity=".1"/>
    </linearGradient>
  </defs>
  <g fill="none" fill-rule="evenodd" class="page_1">
    <g fill-rule="nonzero" class="desktop_hd_copy" transform="translate(0 -278)">
      <g class="status_update" transform="translate(0 278)">
        <path fill="url(#linearGradient-1)" d="M426.545 84.617c-46.413.354-90.995-10.136-133.63-21.826-42.634-11.69-84.921-24.818-130.422-30.177-29.267-3.464-62.574-2.92-85.584 10.496-22.137 12.897-28.683 34.034-31.917 53.544-2.433 14.682-3.62 30.086 4.946 43.449 5.95 9.27 16.195 16.88 23.403 25.71 25.095 30.727 9.537 70.266-15.348 102.017-11.656 14.872-25.299 29.186-34.18 44.93-8.881 15.745-12.58 33.53-3.798 48.94 8.71 15.279 28.559 26.28 49.902 33.752 43.356 15.18 93.908 18.172 143.14 19.136 108.974 2.126 218.23-4.356 327.184-10.83 40.326-2.395 80.829-4.81 120.347-11.251 21.947-3.576 44.557-8.81 60.18-20.075 19.836-14.3 24.06-37.471 9.84-54.016-23.856-27.743-87.237-32.591-104.291-62.67-9.386-16.558-1.03-35.668 11.15-51.767 26.198-34.539 71.062-65.602 72.118-104.064.728-26.405-22.3-52.01-56.854-63.26-36.233-11.809-85.781-8.39-111.401 14.183-26.342 23.203-73.79 33.47-114.785 33.779z" class="path"/>
        <path fill="#116466" d="M609 360.573s-7.534-6.561-15-1.901c0 0 2.299 5.849 11.751 5.29l3.249-3.39zm1.42 1.427s2.945 8.926-4.434 15c0 0-4.442-3.68-.04-12.693L610.42 362zm9.58-9.627s-.547-8.658-17-5.791c0 0-.072 5.591 5.703 8.237 5.775 2.645 8.416.415 11.297-2.446z" class="path"/>
        <path fill="#116466" d="M619.327 351s7.68 2.527.83 20c0 0-5.061-1.158-5.978-8.113-.917-6.955 1.82-9.36 5.148-11.887zm10.663-10.154s1.01-13.096-16.963-11.749c0 0-1.286 11.828 13.793 14.903l3.17-3.154zM645 325.412s-2.532-15.065-21-10.577c0 0-.073 13.025 17.985 14.165l3.015-3.588zm8-15.159s-4.142-14.87-22-10.423c0 0 4.252 13.377 20.813 13.168l1.187-2.745zm7-14.874s-4.18-15.038-22-10.539c0 0 5.947 14.287 20.82 13.089l1.18-2.55zm5-14.965s-3.241-17.781-20-13.845c0 0 4.862 16.176 18.763 16.431l1.237-2.586zm7-16.11s-3.915-18.745-21-13.318c0 0 6.7 17.712 19.794 15.881l1.206-2.563zm4-16.049s-6.409-18.751-20-18.245c0 0 6.555 19.811 18.828 21.99l1.172-3.745zm0-14.42s-6.571-20.314-17-18.749c0 0 4.554 15.529 16.625 21.914l.375-3.166zm-1-18.23s-5.622-16.927-15-17.605c0 0 3.822 16.657 14.808 22l.192-4.395zm4-16.649S671.56 180.42 665 180c0 0 3.233 18.255 13.364 22l.636-3.044zm1-17.38s-4.918-19.004-12-20.576c0 0 .966 15.544 11.288 22l.712-1.424zm3-21.431S678.254 144.4 673 142c0 0 1.042 18.563 8.788 22l1.212-3.855zm2.629-14.243L687 117s-14 21.814-2.402 34l1.03-5.098zm6.311-27.55S699.227 98.13 701 97c0 0-14.302 13.122-12.904 30l3.844-8.648zm-60.08 221.69s12.51-1.726 12.132 16.88c0 0-11.306 1.932-14.992-13.447l2.86-3.433z" class="path"/>
        <path fill="#116466" d="M644.025 326s15.164-.049 13.9 19.9c0 0-12.722 2.386-16.925-16.129l3.025-3.771zm8.096-12.726s12.73-6.686 20.879 10.574c0 0-11.762 5.569-22-7.783l1.12-2.79zm10.962-16.826s13.18-6.915 20.917 9.475c0 0-13.724 5.095-22-6.881l1.083-2.594zm4.49-13.497s12.47-13.49 22.427.151c0 0-12.745 11.093-23 2.853l.572-3.004zm4.874-18.178s12.623-13.39 22.553.616c0 0-14.166 11-23 2.196l.447-2.812zM674 248.152s10.106-16.257 22-12.622c0 0-10.481 17.212-21.892 16.445l-.108-3.823zm.273-14.808s10.653-21.681 20.727-17.902c0 0-7.677 16.663-21 21.558l.273-3.656zm.773-19.257s10.819-16.982 20.954-14.912c0 0-8.846 17.22-22 19.825l1.046-4.913zm1.954-15.26s8.272-18.693 15-18.827c0 0-3.977 18.564-14.442 22l-.558-3.174zm2-17.517s8.564-19.276 15-19.31c0 0-4.382 16.477-14.716 21l-.284-1.69zm1-19.543s7.11-15.959 13-17.767c0 0-3.555 19.452-12.215 22l-.785-4.233z" class="path"/>
        <path fill="#116466" d="M687.161 145.333L702 121s-3.802 24.01-17 29l2.161-4.667z" class="path"/>
        <path fill="#116466" d="M698.169 120.805S715.38 108.065 716 106c0 0-8.75 17.849-25 21l7.169-6.195zM696.507 115S717.612 93.98 723 94c0 0-17.406.823-27 19.886l.507 1.114z" class="path"/>
        <path fill="#444053" d="M681 165.899l.765.101c3.954-31.407 9.719-49.98 16.235-52.257l-.253-.743c-6.91 2.432-12.7 20.722-16.747 52.899z" class="path"/>
        <path fill="#444053" d="M675 237.9l1.195.1c.248-2.874.44-5.82.57-8.748 1.14-25.48 2.906-48.883 5.235-66.424l-.687-.828c-2.329 17.575-4.596 41.685-5.736 67.206-.124 2.9-.33 5.84-.577 8.695z" class="path"/>
        <path fill="#444053" d="M588.608 375c.202-.086 20.222-9.104 41-30.615a166.414 166.414 0 0 0 29.967-42.852c9.601-19.73 15.458-43.978 17.425-67.533l-1.19.56c-4.405 52.872-28.274 88.999-47.248 108.677-20.575 21.314-40.366 30.24-40.562 30.326l.608 1.437z" class="path"/>
        <path fill="#FFF" d="M637 20.411v339.265c0 10.085-9.755 18.324-21.799 18.324H153.8c-12.045 0-21.8-8.206-21.8-18.324V20.411C132 10.307 141.755 0 153.799 0l461.376 1.12C627.22 1.12 637 10.34 637 20.41z" class="path"/>
        <path fill="#2B3737" d="M637 20.957V37H132V20.957C132 0 132 0 152.585 0H616.44C637 0 637 0 637 20.957z" class="path"/>
        <circle cx="155.5" cy="17.5" r="7.5" fill="#FA5959" class="oval" opacity=".8"/>
        <circle cx="177.5" cy="17.5" r="7.5" fill="#FED253" class="oval" opacity=".8"/>
        <circle cx="199.5" cy="17.5" r="7.5" fill="#8CCF4D" class="oval" opacity=".8"/>
        <g fill="#116466" class="group" opacity=".055" transform="translate(322 122)">
          <path d="M107.602 2.533v37.334c0 1.113-2.073 2-4.638 2H5.09c-2.558 0-4.638-.9-4.638-2V2.533C.45 1.42 2.518.287 5.089.287h97.875c2.571-.007 4.638 1.126 4.638 2.246z" class="path"/>
        </g>
        <rect width="51" height="2" x="370" y="135" fill="#116466" class="rectangle"/>
        <path fill="#000" d="M345 131c-4.856.003-9.136 3.466-10.533 8.522-1.398 5.057.417 10.512 4.466 13.426v-.794c.003-1.374.947-2.53 2.201-2.695.766 1.521 2.234 2.467 3.83 2.467 1.594 0 3.062-.946 3.828-2.467 1.254.166 2.198 1.321 2.201 2.695V153c4.085-2.888 5.937-8.353 4.553-13.432-1.384-5.08-5.675-8.566-10.547-8.568zm4.317 15.174c-.148 2.494-2.052 4.436-4.35 4.436-2.3 0-4.203-1.942-4.351-4.436a5.612 5.612 0 0 1-.107-4.056c.472-1.312 1.414-2.36 2.609-2.902a1.717 1.717 0 0 1-.235-.859c0-.42.154-.823.428-1.12a1.396 1.396 0 0 1 1.031-.46h.103c-.76.058-1.35.745-1.351 1.574 0 .276.067.547.193.787h.042a1.86 1.86 0 0 1 0-.315c0-.33.097-.652.277-.918.186-.663.75-1.116 1.387-1.115h.103a1.425 1.425 0 0 0-1.11.708c.237-.173.517-.265.802-.262.803 0 1.454.708 1.454 1.58.003.06.003.118 0 .177 2.09.609 3.545 2.67 3.545 5.023a5.675 5.675 0 0 1-.47 2.158z" class="shape" opacity=".291"/>
        <rect width="51" height="2" x="370" y="140" fill="#4D4D4D" class="rectangle" opacity=".2"/>
        <rect width="51" height="2" x="370" y="145" fill="#4D4D4D" class="rectangle" opacity=".2"/>
        <rect width="51" height="2" x="370" y="148" fill="#4D4D4D" class="rectangle" opacity=".2"/>
        <g fill="#116466" class="group" opacity=".055" transform="translate(211 194)">
          <path d="M103.994 2.313v37.334c0 1.106-2.003 2-4.494 2H4.667c-2.478 0-4.494-.907-4.494-2V2.313C.173 1.2 2.176.067 4.667.067h94.846c2.478 0 4.48 1.133 4.48 2.246z" class="path"/>
        </g>
        <rect width="51" height="2" x="254" y="207" fill="#116466" class="rectangle"/>
        <path fill="#000" d="M231 203c-4.856-.001-9.137 3.462-10.534 8.52-1.397 5.06.42 10.517 4.472 13.428v-.8c.003-1.372.947-2.526 2.2-2.688.765 1.52 2.232 2.466 3.825 2.466 1.594 0 3.06-.945 3.826-2.466 1.252.162 2.196 1.316 2.2 2.688V225c4.086-2.885 5.94-8.352 4.557-13.434-1.383-5.082-5.675-8.568-10.547-8.566zm4.307 15.17c-.148 2.493-2.05 4.434-4.347 4.434-2.297 0-4.199-1.94-4.347-4.435a5.638 5.638 0 0 1-.428-2.156c0-2.095 1.154-3.986 2.928-4.8-.15-.253-.23-.55-.228-.851 0-.874.649-1.583 1.452-1.587h.108c-.499.037-.945.35-1.182.83a1.7 1.7 0 0 0 .02 1.53h.047a1.725 1.725 0 0 1 0-.308c.09-1 .762-1.822 1.663-2.039h.055c-.45.037-.86.298-1.11.708.237-.17.513-.261.796-.262.805 0 1.458.71 1.458 1.587.003.059.003.118 0 .177 1.367.392 2.503 1.423 3.103 2.815a5.61 5.61 0 0 1 .006 4.396l.006-.04z" class="shape" opacity=".291"/>
        <rect width="51" height="2" x="254" y="213" fill="#4D4D4D" class="rectangle" opacity=".2"/>
        <rect width="51" height="2" x="254" y="215" fill="#4D4D4D" class="rectangle" opacity=".2"/>
        <rect width="51" height="2" x="254" y="217" fill="#4D4D4D" class="rectangle" opacity=".2"/>
        <g fill="#116466" class="group" opacity=".055" transform="translate(183 76)">
          <path d="M107.404 2.587V39.92c0 1.107-2.068 2-4.638 2H4.903c-2.55 0-4.638-.907-4.638-2V2.587C.265 1.473 2.339.34 4.903.34h97.876c2.557 0 4.625 1.133 4.625 2.247z" class="path"/>
        </g>
        <rect width="51" height="2" x="229" y="90" fill="#116466" class="rectangle"/>
        <rect width="51" height="2" x="229" y="95" fill="#737476" class="rectangle" opacity=".2"/>
        <rect width="51" height="2" x="229" y="98" fill="#737476" class="rectangle" opacity=".2"/>
        <rect width="51" height="2" x="229" y="104" fill="#737476" class="rectangle" opacity=".2"/>
        <path fill="#000" d="M203.96 86c-4.848.026-9.11 3.496-10.498 8.547s.426 10.495 4.468 13.407v-2.026c.002-1.374.947-2.53 2.2-2.695.767 1.521 2.236 2.467 3.83 2.467 1.596 0 3.064-.946 3.83-2.467 1.256.163 2.202 1.32 2.202 2.695V108c4.091-2.892 5.942-8.367 4.549-13.451-1.394-5.084-5.7-8.564-10.58-8.549zm4.826 14.61a.802.802 0 0 1-.145.203.572.572 0 0 1-.32.118h-.223c-.626 2.252-2.672 3.668-4.814 3.33-2.141-.338-3.733-2.328-3.744-4.68a5 5 0 0 1 .573-2.335l-.048-.033c-.507-.654-.443-1.627.144-2.197a2.75 2.75 0 0 1 .905-.36c.954-.308 1.77-.987 2.292-1.908.015.24.015.48 0 .72a.94.94 0 0 1 .68-.34.935.935 0 0 1 .701.288c.114.177.246.34.392.486.151.087.318.139.489.15l1.097.151c.455.013.893.186 1.249.492.19.231.332.504.416.8.324.81.565 1.657.718 2.525a4.362 4.362 0 0 1-.332 2.577l-.03.013z" class="shape" opacity=".291"/>
        <g fill="#116466" class="group" opacity=".055" transform="translate(349 251)">
          <path d="M103.852 2.533v37.334c0 1.113-2.003 2-4.493 2H4.519c-2.478 0-4.493-.9-4.493-2V2.533C.026 1.42 2.029.293 4.52.293h94.85c2.478-.033 4.481 1.094 4.481 2.24z" class="path"/>
        </g>
        <rect width="51" height="2" x="395" y="265" fill="#116466" class="rectangle"/>
        <rect width="51" height="2" x="395" y="267" fill="#4D4D4D" class="rectangle" opacity=".2"/>
        <rect width="51" height="2" x="395" y="273" fill="#4D4D4D" class="rectangle" opacity=".2"/>
        <rect width="51" height="2" x="395" y="278" fill="#4D4D4D" class="rectangle" opacity=".2"/>
        <path fill="#000" d="M371 261c-4.856.003-9.136 3.466-10.533 8.522-1.398 5.057.417 10.512 4.466 13.426v-2.027c.006-1.37.95-2.523 2.201-2.688.766 1.521 2.234 2.467 3.83 2.467 1.594 0 3.062-.946 3.828-2.467 1.253.162 2.198 1.316 2.201 2.688V283c4.085-2.888 5.937-8.353 4.553-13.432-1.384-5.08-5.675-8.566-10.547-8.568zm4.823 14.603a.733.733 0 0 1-.144.21.572.572 0 0 1-.32.118h-.229c-.467 1.762-1.826 3.074-3.49 3.37-1.664.296-3.336-.476-4.295-1.984-.96-1.508-1.035-3.482-.193-5.071h-.048c-.506-.654-.442-1.628.145-2.197.28-.174.586-.296.904-.36.953-.306 1.77-.983 2.292-1.902.015.24.015.481 0 .721a.94.94 0 0 1 .68-.34c.26-.01.512.094.7.288.113.176.245.336.392.478.15.092.317.146.489.158l1.097.15c.455.01.894.183 1.249.492.19.231.332.504.416.8.325.81.565 1.657.717 2.525a4.34 4.34 0 0 1-.343 2.544h-.019z" class="shape" opacity=".291"/>
        <path fill="url(#linearGradient-2)" d="M341.996 371.234l-14.383-20.825s-.27-5.159-1.213-6.364c-.944-1.204-.203-3.882-.203-3.882s1.01-1.473.137-1.61c-.872-.138-.137-3.418-.137-3.418l-.066-5.237s.806-5.028.138-6.232a1.962 1.962 0 0 1 .065-2.141s.807-2.88 0-3.62c-.806-.74-.61-5.238-.406-8.773.203-3.535-1.41-5.558-1.41-6.095 0-.537-5.31-5.754-5.31-6.226 0-.471-3.363-2.409-5.382-2.946-2.019-.537-3.022-.936-2.957-1.204.066-.269-3.16-1.31-3.16-1.31s-2.818-.203-3.9-1.604c-1.082-1.4-4.36-1.82-4.458-1.826l-.059-.282-.059-.3c.25-.426.485-.865.702-1.31.065-.138.124-.269.183-.406a5.761 5.761 0 0 0 3.31-1.028 4.482 4.482 0 0 0 1.607-3.214 7.082 7.082 0 0 0-.78-3.568c-.59-1.205-1.455-2.455-1.16-3.765.13-.563.472-1.06.655-1.61a4.25 4.25 0 0 0-.485-3.175c-.505-.969-1.213-1.827-1.783-2.77a10.74 10.74 0 0 1-1.416-3.927 6.042 6.042 0 0 0-.525-2.135 4.088 4.088 0 0 0-1.18-1.191 11.812 11.812 0 0 0-7.21-2.187c-1.83.066-3.659.557-5.475.334a20.082 20.082 0 0 1-3.192-.831c-2.256-.655-4.858-.943-6.818.347s-2.747 3.823-4.078 5.807c-1.18 1.748-2.897 3.22-3.796 5.08v-.111a6.45 6.45 0 0 0-.498 1.355 9.637 9.637 0 0 0 .295 4.438 3.089 3.089 0 0 0 1.088 1.964c.656.426 1.574.328 2.354.465a7.985 7.985 0 0 0-.092.38 15.348 15.348 0 0 0 10.64 17.899v.405c-.001.385-.023.77-.066 1.153 0 0-6.758-1.388-8.568-.446-1.81.943-5.382 1.67-5.9 2.207-.518.536-1.881.137-3.094 3.273-1.213 3.136-1.344 6.363-2.885 7.856-1.54 1.493-2.353 2.481-2.425 3.555-.072 1.073.203 1.31-.4 1.67-.603.36-1.482 1.74-1.213 2.277a1.897 1.897 0 0 1-.74 2.01 2.231 2.231 0 0 0-.938 2.01s-.407 1.473-1.344 1.807c-.938.334-1.547 2.547-1.547 2.547l-3.049 3.502-6.044-6.678a2.553 2.553 0 0 0-3.592-.183l-2.977 2.638a5.862 5.862 0 0 0-2.97 1.768 7.692 7.692 0 0 0-1.533 2.285l-1.626 1.46a4.107 4.107 0 0 0-.42 4.55l3.875 4.275v.039a6.777 6.777 0 0 0-3.744 1.519c-5.775 5.093-5.847 9.78-4.969 11.921.879 2.141 8.201 10.383 8.201 10.383s4.255 5.526 10.398 8.465l-.046.046a5.73 5.73 0 0 0-.36.419l-.1.13a.936.936 0 0 0-.091.132l-.111.157-.086.13-.118.197-.072.125-.137.261-.046.086c-.013.026-.112.242-.164.366l-.06.138c0 .085-.065.176-.104.262l-.06.176c0 .085-.058.17-.084.262l-.06.19c-.026.092-.052.19-.078.295 0 .059-.033.117-.046.176-.013.06-.072.321-.105.485a1.634 1.634 0 0 0 0 .19c-.026.114-.046.23-.059.347 0 .078 0 .157-.033.242-.032.085-.032.216-.045.334-.014.118 0 .163 0 .255v1.27c-.138 7.856.32 8.976.32 8.976a4.352 4.352 0 0 0 3.567 2.67c.386.028.773.009 1.154-.058 3.494-.61 11.695-2.01 14.586-1.473 1.737.32 4.956-.157 7.244-.59l.603-.117.42 1.309 1.31-.367 1.128.655.715.406c1.311 4.491 6.713 2.96 6.713 2.96l1.278.739 12.974.334a26.094 26.094 0 0 0 4.589 2.2c.214.065.433.113.655.143a29.04 29.04 0 0 0 3.613.066c.996 0 1.763-.066 1.763-.066s-.131-3.515-.321-7.456c4.02-.1 8.033-.427 12.016-.982 6.93-1.218 9.834-7.51 10.883-10.868.314 1.374.533 2.767.655 4.17a30.384 30.384 0 0 0 1.075 3.614c.378.954.876 1.856 1.482 2.684 5.107-1.741 2.013-4.353.937-5.492-1.075-1.14.741-2.075.741-2.075s1.416-.943 1.311-1.814c-.105-.87-.203-1.807 4.373-1.741 4.576.065 4.268-3.712 4.268-3.712zM271.01 328.47c.06.386.695 4.51 1.272 5.597.165.723.216 1.468.15 2.207-2.707-.217-5.526-.334-5.526-.334.081.099.132.22.145.347l-.426-.099-.623-.15 4.995-7.575.013.007zm-9.886 15.712l4.688.746.393.06c-.13.73-.211 1.47-.243 2.212 0 .065.105.15.256.249-.06.365-.09.735-.092 1.106.079.373 2.269 1.172 4.786 1.84-.04.13-.072.262-.105.38-2.222-1.166-5.717-1.71-6.123-2.573-.406-.865-12.298-5.022-12.298-5.022s-.44-.229-1.187-.589l3.134.59.858-.086c1.953.487 3.935.848 5.933 1.08v.007z" class="shape"/>
        <path fill="#65617D" d="M325.955 376.901s-1.852 11.127-11.23 12.773c-9.377 1.645-40.68 1.295-40.68 1.295s-17.897-2.59-24.37-17.636c-6.472-15.046-10.638-21.07-5.088-21.328 5.55-.26 35.469 10.071 37.184 10.2 1.716.13 45.834-22.888 44.184 14.696z" class="path"/>
        <path fill="#000" d="M325.955 376.901s-1.852 11.127-11.23 12.773c-9.377 1.645-40.68 1.295-40.68 1.295s-17.897-2.59-24.37-17.636c-6.472-15.046-10.638-21.07-5.088-21.328 5.55-.26 35.469 10.071 37.184 10.2 1.716.13 45.834-22.888 44.184 14.696z" class="path" opacity=".05"/>
        <path fill="#3F3D56" d="M241.327 391.267c.585 1.494 1.924 2.54 3.487 2.722.378.027.757.004 1.13-.066 3.428-.604 11.48-1.992 14.317-1.48 1.707.324 4.87-.16 7.142-.592a55.773 55.773 0 0 0 2.597-.558s-2.636-8.978-2.967-9.244c-.331-.266-11.902-7.385-11.902-7.385l-9.148-.664a4.79 4.79 0 0 0-3.097 1.866c-.968 1.196-1.799 3.155-1.851 6.369-.162 7.91.292 9.032.292 9.032z" class="path"/>
        <path fill="#000" d="M241.446 391.276c.823 1.495 2.708 2.541 4.909 2.724a40.559 40.559 0 0 1-3.492-3.708l.064-6.551c-.534-3.649 1.35-7.264 5.073-9.741 0 0-6.782.339-6.965 8.24-.183 7.9.411 9.036.411 9.036z" class="path" opacity=".05"/>
        <path fill="#000" d="M281.664 372l9.068-6.986L305 351.17l-3.866-.17c-.581.36-2.2 1.505-2.262 2.894-.069 1.689-3.852.116-5.823 1.083-1.971.967-11.599 13.1-13.273 13.026-1.673-.075-3.022-.844-3.72.334a.681.681 0 0 1-.056.074l5.664 3.589zm-39.664.79l.986.41c6.94 2.701 15.444 8.355 16.082 9.386.389.633 5.338 3.365 9.156 5.414 1.596-.272 2.776-.531 2.776-.531s-2.818-8.55-3.172-8.804c-.354-.253-12.716-7.033-12.716-7.033l-9.78-.632c-1.324.179-2.52.821-3.332 1.79z" class="path" opacity=".1"/>
        <path fill="#65617D" d="M224.407 355.632c.868 2.157 8.152 10.454 8.152 10.454s4.602 6.073 11.176 8.907c6.574 2.834 14.634 8.768 15.232 9.85.388.664 5.608 3.863 9.283 6.046l.828.485 1.821 1.068.966.558s2.236-1.812 4.464-3.637c2.229-1.825 4.392-3.61 4.424-3.71.066-.206.934-2.496.73-2.655-.105-.067-.559-1.003-1.407-2.084a9.494 9.494 0 0 0-3.398-2.841 9.703 9.703 0 0 1-4.412-4.646s-.295-.213-.736-.498a8.898 8.898 0 0 0-3.004-1.328c-1.473-.185-4.208-3.219-4.208-3.219a8.282 8.282 0 0 1-2.63-2.767c-.703-1.48-11.063-8.629-12.023-9.293l25.139 16.255 6.015 3.896 8.619-6.81L303 356.17l-4.477-.2c-6.574-.291-18.295-.743-19.775-.404a11.072 11.072 0 0 1-3.674.239s-3.34.152-5.542-1.022c-2.203-1.175-5.687-1.726-6.088-2.596-.4-.869-12.228-5.057-12.228-5.057s-16.1-8.629-21.845-3.505c-5.746 5.124-5.844 9.85-4.964 12.007z" class="path"/>
        <path fill="#EE8E9E" d="M278 304.89l1.94 6.903 2.5 15.548 9.198.659 2.666-4.734 2.654-4.714s1.656-6.284 2.85-12.363c1.053-5.374 1.737-10.596.616-11.163-1.016-.5-1.68-2.314-2.118-4.26a13.648 13.648 0 0 1-.148-.724 40.474 40.474 0 0 1-.615-4.998s-19.278-1.075-16.588 7.437c.483 1.452.729 2.982.727 4.523-.001.386-.022.77-.062 1.154-.272 2.688-1.585 5.13-3.62 6.732z" class="path"/>
        <path fill="#E3E8F4" d="M273 304.563l.697 11.726 1.581 9.98 1.774 4.614 1.58 25.285s15.25 1.872 18.96 0c.266-.118.498-.31.671-.554 4.482-7.165 3.013-27.915 3.013-27.915L303 314.28l-1.139-6.954-2.751-.31-2.122-.237s-.48.62-1.164 1.589c-1.868 2.636-5.328 7.777-5.098 9.933.318 2.946-.38 5.932-1.456 6.427-1.077.494-1.96 1.278-2.148.474a3.824 3.824 0 0 1-.193-2.142c.193-1.14-.821-4.614-.821-4.614s-1.706-4.087-1.581-5.827c.124-1.74-.187-3.75-.697-4.219-.51-.468-1.201-.942-.623-3.084.58-2.143-2.49-6.315-2.49-6.315L273 304.563z" class="path"/>
        <path fill="#000" d="M293.028 332.322l.642 20.48 3.77 2.198c.276-.12.516-.319.693-.573 4.623-7.326 3.108-28.542 3.108-28.542L303 312.184l-1.175-7.11-2.838-.317c1.098-5.493 1.817-10.824.642-11.403-1.06-.52-1.76-2.366-2.21-4.354l-2.041 14.483s.173 1.3.231 2.649a7.86 7.86 0 0 1-.167 2.554c-.456 1.233-.128 3.424-.128 3.424-1.175 2.177-1.766 6.207-2.049 10.109-.385 5.176-.237 10.103-.237 10.103z" class="path" opacity=".1"/>
        <path fill="#3F3D56" d="M297.26 289s3.396.417 4.47 1.803c1.075 1.387 3.914 1.589 3.914 1.589s3.236 1.061 3.163 1.302c-.073.241.949.651 2.972 1.191 2.022.54 5.392 2.448 5.392 2.917 0 .469 5.305 5.619 5.305 6.153 0 .533 1.612 2.513 1.413 6.022-.199 3.509-.405 7.936.405 8.665.809.73 0 3.575 0 3.575a1.923 1.923 0 0 0-.067 2.116c.664 1.19-.139 6.152-.139 6.152l.073 5.163s-.743 3.255.133 3.372c.875.117-.133 1.589-.133 1.589s-.743 2.65.199 3.841c.942 1.191 1.214 6.283 1.214 6.283l14.425 20.58s.199 3.769-4.384 3.704c-4.583-.065-4.517.86-4.377 1.719.139.859-1.28 1.79-1.28 1.79s-1.824.924-.743 2.05c1.08 1.127 4.178 3.705-.942 5.424a11.903 11.903 0 0 1-1.486-2.643 30.395 30.395 0 0 1-1.08-3.575s-.472-5.032-1.413-5.69c-.942-.657-.81-3.84-.81-3.84s1.327-2.605-.537-3.64c-1.863-1.035-29.254-15.945-29.254-15.945l-.664-19.785s-.47-14.623 2.361-19.531c0 0-.338-2.116.133-3.308.47-1.191-.066-5.032-.066-5.032L297.26 289z" class="path"/>
        <path fill="#000" d="M279.194 297.779s-6.379-1.391-8.114-.455c-1.734.936-5.073 1.675-5.579 2.215-.505.541-1.779.132-2.92 3.297-1.143 3.165-1.249 6.363-2.728 7.84-1.479 1.477-2.222 2.479-2.284 3.547-.062 1.068.193 1.319-.38 1.675-.575.356-1.392 1.747-1.143 2.281.25.534 13.193 12.33 13.193 12.33s.625 4.49 1.205 5.631c.58 1.14-.624 16.82-1.904 17.888-1.279 1.068 8.588.97 8.588.97s.45-10.286.83-10.827c.38-.54-.256-11.526-.256-11.526s-.062-9.382.761-11.868c.824-2.486.73-10.721.73-10.721s.73-4.945 1.617-6.099c.886-1.154-1.616-6.178-1.616-6.178z" class="path" opacity=".1"/>
        <path fill="#3F3D56" d="M279.215 297.773s-6.385-1.384-8.122-.448c-1.737.936-5.08 1.675-5.586 2.209-.506.534-1.78.138-2.918 3.296-1.137 3.159-1.25 6.37-2.73 7.84-1.48 1.47-2.224 2.479-2.287 3.554-.062 1.074.188 1.318-.38 1.674-.57.357-1.4 1.741-1.144 2.282.256.54 13.208 12.33 13.208 12.33s.625 4.49 1.206 5.624c.58 1.134-.625 16.82-1.906 17.894-1.28 1.075 8.572.97 8.572.97s.444-10.286.825-10.82c.381-.535-.256-11.526-.256-11.526s-.063-9.382.762-11.868c.825-2.486.737-10.72.737-10.72s.725-4.946 1.612-6.1c.888-1.153-1.593-6.19-1.593-6.19z" class="path"/>
        <path fill="#000" d="M279.251 292.692c.47 1.492.71 3.066.708 4.65 6.168 2.076 12.792-.88 16.041-7.159a43.808 43.808 0 0 1-.6-5.138s-18.77-1.105-16.149 7.647z" class="path" opacity=".1"/>
        <path fill="#EE8E9E" d="M271 283.53c.016 7.712 6.066 14.062 13.768 14.451 7.703.39 14.362-5.32 15.154-12.99.793-7.672-4.559-14.62-12.178-15.814-7.62-1.194-14.84 3.785-16.432 11.331-.21.994-.314 2.007-.312 3.022z" class="path"/>
        <path fill="#3F3D56" d="M257.33 318l-3.38 1.175c.162.77-.105 1.575-.677 2.038-.583.465-.909 1.237-.859 2.038 0 0-.369 1.522-1.21 1.868-.84.347-1.409 2.622-1.409 2.622l-2.83 3.662s-1.046.965-.858 1.447c.187.482-1.107.618-1.107.618l.677 12.296 5.836 1.236 3.628-.414 2.951-1.237 2.583-1.732 1.167-3.397 5.158-8.83-9.67-13.39z" class="path"/>
        <path fill="#EE8E9E" d="M246.31 334.816s-7.619-10.993-13.302-5.057 2.31 15.547 4.184 15.234c1.874-.314 10.808-.812 10.808-.812l-1.69-9.365z" class="path"/>
        <path fill="#000" d="M271 278.705c.403.035.783.208 1.076.49.49.528.515 1.464 1.163 1.795.24.103.505.133.761.089 1.699-.248 2.68-2.19 4.316-2.724a4.357 4.357 0 0 1 2.862.249c.364.124.69.343.943.636.548.719.164 1.769.415 2.634.353 1.203 1.768 1.68 3 1.833 1.234.152 2.611.248 3.43 1.183.549.706.777 1.615.628 2.5a2.02 2.02 0 0 0 0 .93c.34.967 2 .827 2.434.057.315-.554.22-1.018.963-1.17a3.114 3.114 0 0 1 1.566.273c1.301.458 2.674.673 4.051.636 2.398-5.159 1.657-11.252-1.907-15.668-3.563-4.417-9.315-6.373-14.792-5.031-5.477 1.342-9.707 5.744-10.878 11.32l-.031-.032z" class="path" opacity=".1"/>
        <path fill="#3F3D56" d="M288.17 288.335a1.95 1.95 0 0 1 0-.912 3.11 3.11 0 0 0-.63-2.457c-.818-.919-2.202-1.006-3.429-1.162-1.227-.157-2.649-.625-3.001-1.8-.252-.85.132-1.875-.416-2.588a2.109 2.109 0 0 0-.943-.625 4.432 4.432 0 0 0-2.863-.25c-1.636.525-2.618 2.431-4.317 2.675a1.374 1.374 0 0 1-.761-.087c-.63-.325-.673-1.25-1.164-1.763-.78-.819-2.253-.294-3.203-.9a2.889 2.889 0 0 1-1.032-1.875 9.049 9.049 0 0 1-.283-4.213c.554-2.363 2.68-3.981 4.04-6 1.258-1.875 1.975-4.257 3.876-5.507 1.9-1.25 4.341-.962 6.487-.331.988.351 2.005.617 3.039.794 1.724.212 3.46-.257 5.204-.313 2.458-.08 4.873.65 6.87 2.075.45.292.832.676 1.12 1.125.293.639.464 1.325.504 2.026.203 1.312.66 2.573 1.346 3.712.542.894 1.215 1.707 1.7 2.632.543.903.708 1.983.459 3.006-.164.525-.485.994-.63 1.531-.283 1.25.542 2.425 1.102 3.57a6.7 6.7 0 0 1 .748 3.387 4.265 4.265 0 0 1-1.535 3.044 5.513 5.513 0 0 1-3.24.975 11.604 11.604 0 0 1-4.134-.625 3.165 3.165 0 0 0-1.56-.269c-.75.15-.63.625-.97 1.15-.384.788-2.045.925-2.385-.025z" class="path"/>
        <path fill="#000" d="M281.176 375l8.869-6.975L304 354.204l-4.607-.204a3.023 3.023 0 0 0-.974 1.883c-.067 1.693-3.768.123-5.696 1.088-1.928.965-11.344 13.08-12.981 12.998-1.637-.081-2.956-.836-3.64.333l-.053.082a1.953 1.953 0 0 1-1.049.625l6.176 3.991z" class="path" opacity=".1"/>
        <path fill="#65617D" d="M263 374.425l4.336 14.324.658 2.251 2.066-.587 4.553-1.296 20.266-5.77a17.102 17.102 0 0 0 7.298-2.047 21.422 21.422 0 0 1 12.593-2.85c2.678.258 5.66-.935 8.133-5.676 0 0 5.613-17.19-8.554-22.107-14.166-4.918-14.857 2.612-14.857 2.612l-.19.123c-.554.362-2.093 1.508-2.153 2.9-.065 1.69-3.664.115-5.54 1.084-1.875.968-11.021 13.178-12.613 13.103-1.593-.075-2.876-.846-3.54.334a.682.682 0 0 1-.053.075c-.493.682-1.974.873-2.967.9h-.928l-.125.042-1.027.313-7.356 2.272z" class="path"/>
        <path fill="#000" d="M266 347.666l1.412.334.588-8.581s-.646-.144-1.457-.419c.214 1.191-.276 5.825-.543 8.666z" class="path" opacity=".1"/>
        <path fill="#000" d="M319.016 307.21s6.289-1.809 4.738 15.894c-1.55 17.702-13.19 28.898-13.19 28.898s-13.398 5.833-19.414 4.896c-6.016-.937-10.402-1.141-10.402-1.141a15.498 15.498 0 0 0-6.09-1.61c-3.38-.132-10.481-2.21-10.648-2.884-.166-.672 1.764-10.523.952-11.262 0 0 9.47.383 10.415 1.062.945.68 2.296.191 3.328 0 1.031-.191 4.126-2.87 10.282-.528 0 0 2.097.205 2.909-.336a2.938 2.938 0 0 1 2.116-.132 5.836 5.836 0 0 0 1.464-.74c.206-.263 1.83 0 1.83 0a.724.724 0 0 0 .619.006.714.714 0 0 0 .393-.474 4.39 4.39 0 0 1 .945-1.47s1.83-10.195 5.277-14.015a2.18 2.18 0 0 0 .746-1.946c-.273-1.076 5.61-16.383 13.73-14.219zM269 371.298l9.15 9.701.061-.06c.068-.179.968-2.244.757-2.388-.211-.143-1.8-3.158-4.99-4.43-1.617-.695-2.974-1.777-3.914-3.122l-1.064.299z" class="path" opacity=".1"/>
        <path fill="#000" d="M270.176 391.464l.894.536s2.069-1.741 4.131-3.495c2.063-1.754 4.065-3.47 4.095-3.565.06-.198.864-2.399.675-2.552-.097-.063-.517-.963-1.302-2.002-5.536-1.627-2.007 2.404-1.539 2.59 0 0-6.741-1.62-7.112 6.071a9.6 9.6 0 0 0 .158 2.417z" class="path" opacity=".1"/>
        <path fill="#3F3D56" d="M277.582 393.808l1.208.67 12.207.306c1.369.8 2.816 1.47 4.32 2 .203.06.411.104.622.132 1.133.086 2.27.106 3.405.06.934 0 1.656-.06 1.656-.06s-.579-14.816-1.015-16.374c-.205-.748-1.245-.598-2.24-.21a14.72 14.72 0 0 0-2.185 1.067s-5.186.479-6.014.91c-.828.431-3.162-.245-4.618 0-1.457.246-4.047-1.647-4.047-1.647-7.083-2.252-3.112 1.947-2.595 2.132 0 0-6.891-1.52-7.271 5.702-.38 7.223 6.567 5.312 6.567 5.312z" class="path"/>
        <path fill="#565387" d="M295.007 388.094c.159 3.073 3.175 6.89 4.982 8.906 1.134 0 2.011-.06 2.011-.06s-.703-14.847-1.232-16.407c-.25-.75-1.512-.6-2.722-.21-1.49 2.214-3.168 5.293-3.04 7.771z" class="path"/>
        <path fill="#000" d="M295.007 388.094c.159 3.073 3.175 6.89 4.982 8.906 1.134 0 2.011-.06 2.011-.06s-.703-14.847-1.232-16.407c-.25-.75-1.512-.6-2.722-.21-1.49 2.214-3.168 5.293-3.04 7.771z" class="path" opacity=".1"/>
        <path fill="#000" d="M293.23 388.49c.94 2.961.926 6.287 2.42 8.295.228.06.46.103.696.131a36.89 36.89 0 0 0 3.804.06c1.043 0 1.85-.06 1.85-.06s-.647-14.826-1.134-16.384c-.229-.749-1.39-.6-2.503-.21a17.4 17.4 0 0 0-2.441 1.067s-3.894 3.308-2.691 7.102z" class="path" opacity=".05"/>
        <path fill="#000" d="M250 354s6.493 2.196 12 10l-12-10z" class="path" opacity=".1"/>
        <g fill="#000" class="group" opacity=".1" transform="translate(266 269)">
          <path d="M34.858 4.897l-.037.151c-.059.2-.13.397-.211.586.061-.254.144-.5.248-.737zM.646 1.497a6.75 6.75 0 0 1 .465-1.38 6.164 6.164 0 0 0-.087.366 11.13 11.13 0 0 0 .28 4.648c.089.809.453 1.549 1.017 2.069.938.69 2.39.09 3.153.986.49.573.516 1.593 1.149 1.945.237.12.502.153.757.097 1.676-.262 2.644-2.366 4.258-2.945a3.867 3.867 0 0 1 2.818.269c.363.13.688.368.937.69.54.772.161 1.917.41 2.855.347 1.296 1.744 1.813 2.954 1.986 1.21.172 2.576.262 3.39 1.283.547.762.773 1.75.62 2.71a2.47 2.47 0 0 0 0 1c.335 1.055 1.974.896 2.402.069.31-.607.217-1.104.95-1.276a2.88 2.88 0 0 1 1.545.297c1.31.504 2.692.738 4.078.69a5.119 5.119 0 0 0 3.197-1.077c.405-.364.739-.817.98-1.33a4.567 4.567 0 0 1-1.359 2.379 5.038 5.038 0 0 1-3.197 1.075 10.323 10.323 0 0 1-4.077-.69 2.832 2.832 0 0 0-1.546-.296c-.732.166-.62.69-.95 1.27-.428.834-2.067.985-2.402-.063a2.5 2.5 0 0 1 0-1.007 3.677 3.677 0 0 0-.62-2.71c-.814-1.014-2.173-1.11-3.39-1.283-1.216-.172-2.606-.69-2.954-1.986-.248-.938.13-2.069-.41-2.855a2.08 2.08 0 0 0-.93-.69 3.946 3.946 0 0 0-2.825-.276C9.646 8.897 8.677 11 7.001 11.27a1.24 1.24 0 0 1-.757-.097c-.62-.358-.658-1.379-1.148-1.944-.764-.904-2.216-.325-3.153-.994-.565-.52-.929-1.26-1.018-2.068a11.122 11.122 0 0 1-.28-4.67z" class="path"/>
        </g>
        <path fill="#000" d="M304.784 325.212c-1.324 1.654-2.848 3.19-4.008 4.943-1.27 1.714-1.889 3.77-1.759 5.845 1.21-1.153 1.766-2.748 2.535-4.191 1.295-2.452 3.232-4.528 4.862-6.775.314-.428 2.314-2.913 1.303-3.031-.833-.1-2.456 2.642-2.933 3.209z" class="path" opacity=".1"/>
        <path fill="#FFF" d="M268.636 298.565l13.282 25.69c.397.76-.685 2.141-2.413 3.081l-66.29 35.862c-1.727.934-3.455 1.074-3.846.307l-13.282-25.684c-.398-.767.6-2.308 2.328-3.242l66.29-35.861c1.734-.94 3.54-.92 3.931-.153z" class="path"/>
        <g fill="#116466" class="group" opacity=".09" transform="translate(196 298)">
          <path d="M72.602.977L85.774 26.4c.394.752-.68 2.119-2.393 3.05L17.64 64.936c-1.714.924-3.427 1.063-3.815.304L.653 39.824c-.394-.759.595-2.283 2.309-3.207L68.703 1.129c1.72-.931 3.511-.911 3.9-.152z" class="path"/>
        </g>
        <polygon fill="#116466" points="230.538 318.692 269.78 318.706 269.781 320.087 230.539 320.073" class="rectangle" transform="rotate(-27.87 250.16 319.39)"/>
        <polygon fill="#737476" points="232.118 321.679 271.361 321.693 271.361 323.075 232.119 323.061" class="rectangle" opacity=".2" transform="rotate(-27.87 251.74 322.377)"/>
        <polygon fill="#737476" points="233.696 324.655 272.938 324.669 272.938 326.05 233.696 326.036" class="rectangle" opacity=".2" transform="rotate(-27.87 253.317 325.353)"/>
        <polygon fill="#737476" points="235.276 327.643 274.518 327.657 274.519 329.038 235.276 329.024" class="rectangle" opacity=".2" transform="rotate(-27.87 254.897 328.34)"/>
        <path fill="#000" d="M215.53 334.993a8.522 8.522 0 0 0-4.369 9.177 8.506 8.506 0 0 0 7.518 6.83l-.67-1.271a1.94 1.94 0 0 1 .598-2.495 3.364 3.364 0 0 0 3.437.17 3.377 3.377 0 0 0 1.794-2.941c.91-.345 1.935.04 2.394.9l.689 1.307a8.53 8.53 0 0 0-1.345-10.11 8.486 8.486 0 0 0-10.057-1.567h.012zm8.159 7.443a.457.457 0 0 1-.03.18.503.503 0 0 1-.18.191l-.15.084a3.386 3.386 0 0 1-1.258 3.379 3.37 3.37 0 0 1-3.584.321 3.384 3.384 0 0 1-1.837-3.1h-.042a1.134 1.134 0 0 1-.629-1.44c.133-.21.301-.397.497-.55.55-.538.882-1.26.934-2.028.085.148.159.303.221.462a.754.754 0 0 1 .922-.534c.139.067.283.121.431.162a.98.98 0 0 0 .39-.078l.795-.306a1.195 1.195 0 0 1 1.568.216c.49.392.935.837 1.33 1.325.387.49.606 1.091.622 1.716z" class="shape" opacity=".291"/>
        <path fill="#EE8E9E" d="M241 337.908c-.064 8.314 17.62 10.081 17.62 10.081l4.519.695 2.02.316.841-8.128s-.924-.137-2.084-.397c-1.708-.39-3.925-1.06-4.39-2.002-.778-1.575-18.462-8.885-18.526-.565z" class="path"/>
        <path fill="#3F3D56" d="M319.017 305.203s6.287-1.809 4.737 15.896c-1.55 17.705-13.188 28.903-13.188 28.903s-13.394 5.833-19.409 4.896c-6.015-.937-10.413-1.141-10.413-1.141a15.49 15.49 0 0 0-6.088-1.61c-3.38-.133-10.48-2.211-10.646-2.884-.166-.673 1.763-10.558.952-11.264 0 0 9.468.382 10.413 1.062.945.68 2.295.191 3.327 0 1.031-.191 4.125-2.877 10.28-.528 0 0 2.096.205 2.907-.336a2.937 2.937 0 0 1 2.116-.132 5.834 5.834 0 0 0 1.464-.74c.206-.263 1.83 0 1.83 0 .194.097.423.1.62.009a.707.707 0 0 0 .391-.477c.214-.55.535-1.052.945-1.478 0 0 1.83-10.189 5.276-14.016.565-.48.845-1.21.746-1.94-.26-1.076 5.629-16.345 13.74-14.22z" class="path"/>
        <path fill="#FFF" d="M576 87.27v37.71c0 1.124-2.006 2.02-4.5 2.02h-95c-2.481 0-4.5-.91-4.5-2.02V87.27c0-1.125 2.006-2.27 4.5-2.27h95.012c2.482.02 4.488 1.145 4.488 2.27z" class="path"/>
        <g fill="#4D4D4D" class="group" opacity=".1" transform="translate(460 95)">
          <path d="M103.904 2.842v36.75c0 1.089-2.01 1.968-4.494 1.968H4.57c-2.477 0-4.493-.892-4.493-1.968V2.842C.077 1.746 2.08.63 4.571.63h94.852c2.471 0 4.48 1.116 4.48 2.212z" class="path"/>
        </g>
        <path fill="#FFF" d="M576 87.27v37.71c0 1.124-2.006 2.02-4.5 2.02h-95c-2.481 0-4.5-.91-4.5-2.02V87.27c0-1.125 2.006-2.27 4.5-2.27h95.012c2.482.02 4.488 1.145 4.488 2.27z" class="path"/>
        <g fill="#116466" class="group" opacity=".055" transform="translate(469 87)">
          <path d="M107.443 2.717v36.75c0 1.096-2.067 1.969-4.638 1.969H4.903c-2.557 0-4.638-.886-4.638-1.97V2.717c0-1.095 2.067-2.21 4.638-2.21h97.916c2.557.019 4.624 1.115 4.624 2.21z" class="path"/>
        </g>
        <rect width="51" height="2" x="517" y="100" fill="#116466" class="rectangle"/>
        <rect width="51" height="2" x="517" y="104" fill="#4D4D4D" class="rectangle" opacity=".2"/>
        <rect width="51" height="2" x="517" y="111" fill="#737476" class="rectangle" opacity=".2"/>
        <rect width="51" height="2" x="517" y="112" fill="#4D4D4D" class="rectangle" opacity=".2"/>
        <path fill="#000" d="M492.017 97c-4.858-.01-9.147 3.45-10.548 8.511-1.402 5.062.415 10.524 4.47 13.437v-2.026c.005-1.372.947-2.526 2.198-2.694.766 1.52 2.233 2.466 3.826 2.466 1.594 0 3.06-.946 3.826-2.466 1.252.168 2.194 1.322 2.2 2.694V119c4.083-2.883 5.939-8.345 4.56-13.424-1.379-5.08-5.663-8.57-10.532-8.576zm4.82 14.599a.475.475 0 0 1-.464.321 1.274 1.274 0 0 1-.222 0c-.618 2.26-2.665 3.684-4.809 3.345-2.144-.339-3.734-2.338-3.735-4.695a5.018 5.018 0 0 1 .566-2.334l-.048-.033c-.502-.655-.438-1.625.145-2.196a2.81 2.81 0 0 1 .904-.36c.953-.303 1.769-.98 2.29-1.901.017.24.017.48 0 .72a.939.939 0 0 1 .679-.34c.26-.01.511.094.7.288.138.151.229.36.397.479a.98.98 0 0 0 .489.15l1.09.158c.78-.086 1.495.478 1.663 1.31.327.81.568 1.656.717 2.525.15.875.027 1.78-.35 2.57l-.012-.007z" class="shape" opacity=".291"/>
        <path fill="url(#linearGradient-3)" d="M607.957 391.05c-.911-3.283-1.505-6.159-1.505-6.159s.04-3.604-1.69-6.243l-.033-.9-.265-6.67c.416-1.224.938-2.41 1.559-3.545 1.122-2.133-.377-9.749-.377-9.749s-4.885-10.629-4.06-17.515c.825-6.887-10.345-30.062-10.345-30.062-.02-2.269.216-4.532.706-6.749a5.34 5.34 0 0 0 .073-1.418 1.475 1.475 0 0 0 0-.17v.052c-.33-4.51-4.245-12.834-4.245-12.834l-.146-16.157s1.928-9.605-2.31-22.23c-1.48-4.404-2.45-7.943-3.083-10.674-.073-.309-.146-.604-.205-.893 7.652-1.457 13.488-2.626 13.488-2.626s-5.176-18.382-8.319-21.533c-3.142-3.152-5.942-13.255-5.942-13.255s-2.073-13.058.31-16.984c2.384-3.926 2.476-10.61 2.476-10.61s5.625-4.404 6.279-6.288c.654-1.885 1.697-6.113 1.61-8.312-.085-2.2-.884-4.156-.66-5.324.225-1.169-1.907-5.508-1.023-7.635a5.63 5.63 0 0 0 .31-2.029v-.085a28.166 28.166 0 0 0-.719-5.423 15.577 15.577 0 0 0-5.85-2.83l-.145-.492-.376-1.313a7.305 7.305 0 0 0-.58-.315v-.473l-.126-1.884.74-4.274c1.498-7.438-8.438-8.16-8.438-8.16a5.157 5.157 0 0 0-2.892-2.33c-2.02-.657.093 11.1 1.056 11.816.72.539 3.024 4.15 4.133 5.909l.185.289a4.485 4.485 0 0 0-.436.492l.476 2.54.072.395a10.275 10.275 0 0 0-1.472 2.73s1.882 1.905 1.604 4.124c-.277 2.219.746 4.937.8 5.081-.113-.118-1.44-1.438-2.694-1.05-1.255.387-4.774 1.575-4.774 1.575s-2.64.565-2.37 1.136-1.683 3.204-1.683 3.204l-7.394-6.447c-.08-.197-.159-.394-.232-.598a16.749 16.749 0 0 1-.732-2.921c.77-.213 1.522-.483 2.25-.807a4.946 4.946 0 0 0 1.929-1.313c.66-.874.779-2.036 1.03-3.1.482-2.087 1.624-3.971 2.416-5.967a18.985 18.985 0 0 0 .97-10.543 6.976 6.976 0 0 0-1.214-3.04c-1.228-1.55-3.36-2.12-4.945-3.328-1.585-1.208-2.641-3.112-4.476-3.999-1.65-.8-3.618-.656-5.427-.256a29.055 29.055 0 0 0-9.97 4.038c-1.01.656-2.125 1.405-3.3 1.234-1.03-.144-1.81-.932-2.502-1.687a.542.542 0 0 1 0-.099l-.086-.085a12.47 12.47 0 0 0-.898 5.344c0 .282 0 .565.066.847v.295a1.49 1.49 0 0 1 0 .25 1.47 1.47 0 0 1-.04.38 2.73 2.73 0 0 1-.66.979 5.907 5.907 0 0 0-.554.814c0-.099.052-.197.085-.296a4.132 4.132 0 0 0-.66 2.265 2.225 2.225 0 0 0 .594 1.583c.371.333.774.63 1.202.886a12.75 12.75 0 0 0-.126 2.363 13.72 13.72 0 0 0 7.17 11.443c.093.197.178.394.27.598 1.004 2.35 1.797 5.1 1.592 7.68 0 .191-.04.382-.066.565-.026.184-.172.204-.244.309 0 0-11.772.564-14.637-1.825-2.865-2.39-6.76 6.361-6.76 6.361s-4.186.979-5.064.197c-.878-.78-5.797.105-5.797.105a10.656 10.656 0 0 0-7.453-2.39 21.893 21.893 0 0 0-5.52-2.776l-.138-.04a6.093 6.093 0 0 0-2.641-.236s-5.975-4.537-7.764-7.025c-1.79-2.488-10.193-11.653-10.233-11.699l-.046-.453-.146-1.378a5.011 5.011 0 0 1-.72.092l-.177-.473a25.208 25.208 0 0 0-1.862-3.834s-.066-1.746.429-2.2c.495-.452-.475-6.814-.475-6.814s-5.685-11.929-10.009-2.692c0 0-8.583 6.198-.93 12.73 0 0 3.016 1.313 3.478 2.43.304.721 1.387 2.73 2.113 4.063.119.223.231.42.324.597l-.08.073.152 1.135.06.44c-1.36.84-2.278 1.661-2.027 2.245.453.988.777 2.03.964 3.1 0 0 10.748 12.374 12.286 17.784 0 0 28.124 15.198 37.215 16.012l-1.188 8.167a64.41 64.41 0 0 0-.106 6.63c.185 1.74-.713 9.678-.713 9.678s-1.122 11.666-2.383 13.346c-1.26 1.681-.76 8.627-.76 8.627a58.345 58.345 0 0 1-1.425 9.94c-1.156 4.457 0 9.88 0 9.88s-4.18 10.622 6.523 3.118c0 0 5.374-.538 11.566-.985v.617c0 .795.04 1.655.066 2.56.146 5.988.43 14.234.944 20.464.918 11.01 5.137 32.674 5.137 32.674l.422 10.964a14.977 14.977 0 0 0-.191 3.145 20.271 20.271 0 0 0 3.367 10.891l1.129 7.274s2.165 4.747 2.317 7.622c.001.236-.018.47-.06.703-.06.37-.078.747-.052 1.122 0 3.322 2.337 11.194 2.337 11.194s.43 8.003 1.65 8.423c1.05.354-1.195 4.668-1.868 5.908a2.345 2.345 0 0 1-.053-.23c-.086.165-.138.25-.138.25a5.676 5.676 0 0 0-.297 2.042 2.897 2.897 0 0 0 1.445 2.764c2.344 1.313 3.618 2.416 1.697 2.954a20.56 20.56 0 0 0-2.113.532c0-.092-.079-.184-.112-.27-.546.254-.85.843-.74 1.432a6.03 6.03 0 0 0 .826 2.691c2.1 4.222 3.5 5.797 3.5 5.797l.917-.138a4.74 4.74 0 0 1-.495 1.011 3.906 3.906 0 0 1-1.32 1.254 4.179 4.179 0 0 1-1.625.657 4.629 4.629 0 0 0-3.354 1.786c-1.142 1.588-1.815 3.729.66 5.488l8.742 2.626s14.907 1.352 13.99-1.93a100.372 100.372 0 0 1-1.506-6.158 13.07 13.07 0 0 0-1.433-5.823 7.217 7.217 0 0 0-.554-.847l.521-.079s.8-7.353 2.192-8.804c.324-.328.39-.577.304-.768.132-.407-.251-.656-.746-.735 0 .092-.06.19-.093.289a7.442 7.442 0 0 0-1.445-.105s-.66-3.808.884-5.252a1.47 1.47 0 0 0 .258-1.15 6.185 6.185 0 0 0-.225-1.549.4.4 0 0 0-.046.092c-.93-3.446-3.816-8.87-3.816-8.87s-.25-3.479.66-4.903c.911-1.425-.858-18.92-.858-18.92s.04-8.49-1.202-12.389c-1.24-3.9.997-8.64.997-8.64s0-.091-.04-.256v-.059s-.072-.518-.19-1.313a.424.424 0 0 1 0 .086c-.324-2.232-.945-6.277-1.321-8.148-.588-2.626-.475-15.44-.475-15.44l1.98-5.542 4.225 9.257 4.589 12.382s2.132 2.567 2.284 5.252v.394c-.016.28-.016.56 0 .84a7.443 7.443 0 0 0 1.42 4.412s1.32 5.908 3.063 7.326c1.743 1.419 1.862 4.347 1.862 4.347s2.383 8.534 3.406 9.985c.858 1.24 1.037 4.733 1.07 5.804v.315s.41 3.059.495 5.639v.853a9.291 9.291 0 0 1-.172 2.095v-.309a21.945 21.945 0 0 0-.41 5.37c.067 3.093.661 6.73 2.642 8.804 3.4 3.591 5.433 3.046 5.433 3.046s-1.386 4.7-3.3 5.705c-.073.04-.142.086-.205.138 0-.085-.04-.177-.053-.262a2.236 2.236 0 0 0-.502 1.746c-.06 2.048 1.367 5.318 2.64 6.795a3.85 3.85 0 0 0 1.664.88c-.093.073-.19.14-.29.203a6.252 6.252 0 0 1-.66.335 3.249 3.249 0 0 1-.977.289 4.662 4.662 0 0 0-3.354 1.785c-1.136 1.59-1.816 3.723.66 5.489l8.741 2.626s14.881 1.28 13.937-2.003z" class="path"/>
        <path fill="#2D293D" d="M550.367 396.724l-7.87-2.656c-2.204-1.785-1.597-3.95-.572-5.556.716-1.044 1.816-1.7 3.015-1.8a3.541 3.541 0 0 0 1.46-.663 3.586 3.586 0 0 0 1.186-1.268c.533-.995.8-2.13.773-3.28 0 0 8.423-3.053 10.854-.45.431.472.8 1.009 1.093 1.592a14.628 14.628 0 0 1 1.295 5.895s.54 2.908 1.363 6.227c.822 3.32-12.597 1.959-12.597 1.959zm40.986-5.016l-7.853-2.659c-2.207-1.782-1.6-3.949-.577-5.551.712-1.05 1.812-1.71 3.01-1.802.305-.051.6-.152.877-.3.211-.097.416-.21.613-.338 2.128-1.383 1.956-4.554 1.956-4.554s8.417-3.058 10.839-.452c.326.35.614.74.858 1.163 1.557 2.66 1.527 6.33 1.527 6.33s.54 2.925 1.36 6.242c.822 3.318-12.61 1.921-12.61 1.921z" class="path"/>
        <path fill="#000" d="M558.797 383.66c.475.298.88.635 1.203 1.001L546 386c.587-.625.882-1.338.851-2.06 0 0 9.27-1.914 11.946-.28zm44.107-6.623l.096 2.384c-1.926 3.337-12.015 2.989-15 1.46.221-.09.436-.194.642-.311 2.227-1.272 2.047-4.187 2.047-4.187s8.813-2.812 11.348-.416c.33.324.621.683.867 1.07z" class="path" opacity=".1"/>
        <path fill="#65617D" d="M600.605 364.627a22.71 22.71 0 0 0-1.459 3.536l.34 9.167c-2.126 3.928-13.984 3.103-15.655 1.08-1.67-2.023-3.578-7.392-1.792-8.394 1.786-1.002 3.084-5.683 3.084-5.683s-1.928.536-5.14-3.045c-3.212-3.582-2.608-11.838-2.113-13.829.495-1.99-.328-8.57-.328-8.57s-.058-4.637-1.021-6.103c-.964-1.467-3.212-9.96-3.212-9.96s-.11-2.893-1.754-4.34-2.89-7.308-2.89-7.308a7.704 7.704 0 0 1-1.324-4.93c.231-2.907-2.159-5.945-2.159-5.945l-4.336-12.35-3.99-9.238-1.83 5.533s-.09 12.755.469 15.4c.559 2.645 1.503 9.677 1.503 9.677s-2.1 4.721-.925 8.617c1.176 3.896 1.15 12.362 1.15 12.362s1.677 17.437.822 18.864c-.854 1.427-.642 4.891-.642 4.891s5.043 10.005 3.617 11.452c-1.427 1.447-.83 5.238-.83 5.238s3.213-.124 1.877 1.31c-1.336 1.434-2.062 8.78-2.062 8.78L546.335 383s-1.324-1.571-3.303-5.788c-1.978-4.217.2-3.83 2.011-4.367 1.812-.537.642-1.644-1.6-2.953-2.242-1.31-1.079-4.48-1.079-4.48s3.077-5.8 1.927-6.22c-1.15-.418-1.567-8.4-1.567-8.4s-2.628-9.403-2.159-11.976c.47-2.573-2.145-8.61-2.145-8.61l-1.067-7.261a20.371 20.371 0 0 1-3.019-13.679l-.398-11.268s-4.002-21.608-4.87-32.62c-.558-7.033-.841-16.645-.97-22.65-.07-3.365-.096-5.598-.096-5.598l48.868-7.13c.17 2.495.562 4.97 1.169 7.392.604 2.724 1.522 6.253 2.923 10.647 4.002 12.598 2.203 22.177 2.203 22.177l.154 16.107s4.722 10.594 3.951 14.34a31.714 31.714 0 0 0-.642 6.75s10.542 23.12 9.777 29.989c-.764 6.868 3.855 17.476 3.855 17.476s1.407 7.621.347 9.75z" class="path"/>
        <path fill="#000" d="M572 305.692L587 302s-8.204 12.885-15 3.692z" class="path" opacity=".05"/>
        <path fill="#000" d="M585.404 291s.41 4.994-1.404 7c.011 0 3.317-1.073 1.404-7zM582 273s-11.842 10.637-16.36 9.97C561.122 282.303 582 273 582 273zm-29 40s-9.857 2.451-9.999 6.165C542.86 322.879 553 313 553 313z" class="path" opacity=".1"/>
        <path fill="#000" d="M556.467 359s-13.722 2.908-9.743 4.408c3.98 1.5 10.499 2.592 10.499 2.592s4.463.056-.756-7z" class="path" opacity=".05"/>
        <g fill="#000" class="group" opacity=".05" transform="translate(526 236)">
          <path d="M16.786 131.35a2.742 2.742 0 0 1-1.322-1.95c-.079.16-.132.252-.132.252s-1.163 3.198 1.11 4.52c.265.151.51.297.74.442.41-.093.847-.165 1.27-.29 1.81-.51.574-1.653-1.666-2.974zm17.692-1.592c.363-.364.317-1.262.04-2.405a6.487 6.487 0 0 0-.662 3.409 2.7 2.7 0 0 1 .622-1.004zM30.116 71.72a15.854 15.854 0 0 0-.767 4.334c.226-1.026.547-2.028.958-2.993 0 0-.072-.516-.191-1.341zm31.332-7.348c.079-.422.106-.852.079-1.281a33.125 33.125 0 0 0-.29 2.405c.065-.364.131-.74.21-1.124zM31.385 113.26a7.425 7.425 0 0 0 .244-2.604 8.792 8.792 0 0 0-.542 3.304c.071-.245.17-.48.298-.7zm3.74 21.922a45.97 45.97 0 0 0-1.322 7.268l-14.063 2.18s-1.355-1.585-3.39-5.834a16.017 16.017 0 0 1-.443-1.017c-.833.423-1.13 1.321.08 3.839 2.035 4.248 3.396 5.834 3.396 5.834l14.064-2.18s.766-7.4 2.114-8.854c.655-.747.199-1.104-.436-1.236zM15.65 114.918s.43 8.06 1.613 8.484c.542-1.355.885-2.643.357-2.822-1.19-.422-1.613-8.483-1.613-8.483s-2.71-9.488-2.22-12.078c.489-2.59-2.208-8.688-2.208-8.688l-1.103-7.328A20.24 20.24 0 0 1 7.37 70.201L6.933 58.87s-4.118-21.804-5.01-32.917C1.348 18.857 1.057 9.15.925 3.099.925 2.002.885 1.03.865.21L.463.27s0 2.246.105 5.649c.133 6.052.423 15.758.992 22.854.898 11.08 5.016 32.917 5.016 32.917l.436 11.331a20.24 20.24 0 0 0 3.106 13.802l1.097 7.328s2.696 6.092 2.207 8.688c-.489 2.597 2.227 12.078 2.227 12.078zm42.62 25.021a13.662 13.662 0 0 1-2.445-5.457c-1.395 1.321.456 6.343 2.088 8.279 1.718 2.041 13.918 2.86 16.105-1.084l-.086-2.227c-3.033 3.264-14.036 2.432-15.662.49zm17.255-13.875a22.673 22.673 0 0 0-1.5 3.568l.06 1.639a30.06 30.06 0 0 1 1.083-2.385 7.08 7.08 0 0 0 .397-2.914l-.04.092zm-16.971 2.504a22.13 22.13 0 0 0 1.044-2.82s-1.982.54-5.287-3.073c-2.399-2.643-2.73-7.764-2.53-11.133-.51 1.982-1.124 10.34 2.173 13.954 2.175 2.365 3.76 2.947 4.6 3.072zM51.462 102.9c.293 2.292.46 4.6.502 6.91.043-.367.109-.73.198-1.09.51-1.982-.337-8.642-.337-8.642s-.066-4.677-1.057-6.164c-.991-1.487-3.304-10.05-3.304-10.05s-.113-2.92-1.811-4.373c-1.699-1.454-2.974-7.374-2.974-7.374a7.69 7.69 0 0 1-1.361-4.982c.237-2.933-2.221-5.993-2.221-5.993L34.63 48.675l-4.104-9.316-1.89 5.57v1.777l1.54-4.526 4.103 9.316 4.455 12.461s2.458 3.06 2.22 5.993a7.65 7.65 0 0 0 1.361 4.982s1.276 5.946 2.974 7.373c1.699 1.427 1.805 4.374 1.805 4.374s2.32 8.59 3.304 10.05c.985 1.46 1.064 6.17 1.064 6.17z" class="path"/>
        </g>
        <path fill="#FFCDD3" d="M580.85 125.553l-.716 3.879.126 1.71.093 1.262-4.874.596-.59-.894c-1.081-1.614-3.316-4.896-4.032-5.361-.928-.65-3.004-11.29-1.04-10.723 1.2.37 2.206 1.125 2.824 2.12 0 0 9.668.668 8.21 7.411z" class="path"/>
        <path fill="#000" d="M583 134.489l-6.244.511-.756-.767c1.664-1.234 4.544-1.59 6.881-.849l.119 1.105z" class="path" opacity=".1"/>
        <path fill="#DCE6F2" d="M583 135.766L576.634 138l-.172-1.223-.462-3.296s2.41-4.486 6.188-1.394l.37 1.7.442 1.979z" class="path"/>
        <path fill="#FFCDD3" d="M478 131.388L471.66 135s-.267-.482-.623-1.156c-.667-1.204-1.658-3.07-1.938-3.732-.424-1.018-3.18-2.228-3.18-2.228-7.025-6.02.836-11.673.836-11.673 3.94-8.464 9.144 2.48 9.144 2.48s.898 5.834.443 6.25c-.455.415-.387 2.01-.387 2.01a23.294 23.294 0 0 1 1.702 3.522c.225.554.343.915.343.915z" class="path"/>
        <path fill="#000" d="M478 130.395L471.627 136s-.27-.747-.627-1.794c.884-1.196 4.042-5.325 5.114-5.203a5.56 5.56 0 0 0 1.541 0c.226.831.345 1.392.345 1.392z" class="path" opacity=".1"/>
        <path fill="#DCE6F2" d="M478 131.77l-6.674 4.23-.192-1.706-.134-1.18s3.812-4.128 4.983-4.032a5.41 5.41 0 0 0 1.749-.082l.128 1.426.14 1.344z" class="path"/>
        <path fill="#FFCDD3" d="M563 154.627s-34.624 5.054-28.207 2.79c4.47-1.59 6.152-4.418 6.411-7.49.199-2.58-.594-5.33-1.606-7.687a33.145 33.145 0 0 0-3.349-5.907s26.02-15.025 21.188-2.061a19.607 19.607 0 0 0-1.265 6.104c-.078 2.07.237 4.137.93 6.098 1.144 3.189 3.185 6.01 5.898 8.153z" class="path"/>
        <path fill="#000" d="M557.43 134.303a20.524 20.524 0 0 0-1.218 6.146c-2.33 2.128-4.982 2.095-8.378 2.228-2.633.099-5.476.845-7.609-.338a33.811 33.811 0 0 0-3.225-5.948s25.057-15.135 20.43-2.088z" class="path" opacity=".1"/>
        <circle cx="546.5" cy="130.5" r="14.5" fill="#FFCDD3" class="oval"/>
        <path fill="#000" d="M563 156.572s-34.624 5.136-28.207 2.835c4.47-1.615 6.152-4.49 6.411-7.612 1.661-1.901 5.085-3.335 7.293-4.136a10.623 10.623 0 0 1 6.295-.333 8.906 8.906 0 0 1 2.337.947 18.544 18.544 0 0 0 5.871 8.299zm20-20.573L576.184 137l-.184-.548c1.43-1.146 4.038-1.688 6.526-1.355l.474.902zm-105-3.344L471.196 138l-.196-2.155a46.264 46.264 0 0 1 6.881-4.845l.119 1.655zM582 237.55c-13.318 2.588-32.288 6.018-35.37 5.223-2.544-.67-10.556-.275-17.528.227-.075-3.437-.102-5.718-.102-5.718L580.742 230a41.821 41.821 0 0 0 1.258 7.55z" class="path" opacity=".1"/>
        <path fill="#3F3D56" d="M592 233.497s-43.137 8.873-47.855 7.669c-4.718-1.204-28.582 1.185-28.582 1.185-10.486 7.421-6.404-3.105-6.404-3.105s-1.158-5.371 0-9.798a58.641 58.641 0 0 0 1.385-9.85s-.509-6.893.73-8.553c1.237-1.66 2.322-13.228 2.322-13.228s.87-7.87.669-9.596c-.201-1.725.1-6.568.1-6.568l1.205-8.111c-8.92-.82-36.532-15.923-36.532-15.923-1.52-5.358-12.046-17.642-12.046-17.642a12.948 12.948 0 0 0-.95-3.08c-.783-1.815 9.723-5.897 9.723-5.897s8.298 9.114 10.038 11.614c1.74 2.5 7.623 6.978 7.623 6.978a5.84 5.84 0 0 1 2.616.228l.134.039a21.4 21.4 0 0 1 5.414 2.76 10.47 10.47 0 0 1 7.321 2.376s4.825-.872 5.682-.097c.856.774 4.972-.183 4.972-.183s3.801-8.677 6.618-6.301c2.818 2.376 14.368 1.823 14.368 1.823 1.46-2.045 5.147-3.613 7.462-4.434 1.97-.73 4.123-.845 6.163-.332.884.21 1.724.567 2.483 1.055l7.268 6.412s1.914-2.604 1.653-3.177c-.261-.573 2.329-1.12 2.329-1.12s3.386-1.165 4.684-1.562 2.53.938 2.643 1.048c-.053-.143-1.05-2.896-.79-5.038.262-2.142-1.585-4.088-1.585-4.088 3.754-10.052 13.424-2.116 13.424-2.116s1.285 5.37.415 7.48c-.87 2.109 1.204 6.405 1.01 7.564-.194 1.159.596 3.092.67 5.28.073 2.187-.93 6.373-1.566 8.241-.636 1.868-6.157 6.223-6.157 6.223s-.094 6.575-2.43 10.468c-2.335 3.893-.28 16.841-.28 16.841s2.77 10.038 5.855 13.15c3.085 3.112 8.198 21.365 8.198 21.365z" class="path"/>
        <path fill="#000" d="M526.808 160s-1.604-3.825-2.957-4.13a33.498 33.498 0 0 1-3.851-1.396l.74-1.474s4.959 1.036 5.801 2.305c.843 1.268.267 4.695.267 4.695zM505 153.622c-.181 1.503-10 3.378-10 3.378l4.781-7 .125.05c1.818.85 3.534 2.054 5.094 3.572z" class="path" opacity=".1"/>
        <circle cx="473" cy="138" r="1" fill="#575988" class="oval"/>
        <circle cx="474" cy="141" r="1" fill="#575988" class="oval"/>
        <circle cx="475" cy="142" r="1" fill="#575988" class="oval"/>
        <circle cx="476" cy="146" r="1" fill="#575988" class="oval"/>
        <circle cx="586.5" cy="139.5" r="1" fill="#575988" class="oval"/>
        <circle cx="586.5" cy="139.5" r="1" fill="#575988" class="oval"/>
        <circle cx="586.5" cy="142.5" r="1" fill="#575988" class="oval"/>
        <path fill="#000" d="M528 196c-.116-.12 28.543 29.268 49 11.033-.007 0-33.357 5.125-49-11.033zm-14 13.001s15.086-.189 16.83 4.539l.17 4.993a2.635 2.635 0 0 1-2.805.12c-1.548-.84-10.834-5.596-13.961-2.973l-.234-6.679z" class="path" opacity=".1"/>
        <path fill="#656691" d="M514 208.001s15.084-.172 16.828 4.086l.172 4.495a2.896 2.896 0 0 1-2.808.105c-1.546-.759-10.836-5.016-13.96-2.673l-.232-6.013z" class="path"/>
        <path fill="#000" d="M522 176a54.6 54.6 0 0 0 5.95 10.722c2.557 3.635 5.614 6.769 9.05 9.278 0 0-14.686-17.746-15-20zm-6-19s3.069 11.354 10 15l-10-15zm-4.82 1.004c-.085-.216-2.105 9.25 9.82 13.996.021 0-5.037-1.443-9.82-13.996zm67.824-8.98c-.167 0 5.448 4.722 6.996 6.976 0 0-3.765-7.483-6.996-6.975z" class="path" opacity=".1"/>
        <path fill="#2D293D" d="M543.366 143.872a2.197 2.197 0 0 0 2.493 2.092c4.275.1 8.722.12 12.631-1.674a4.76 4.76 0 0 0 1.868-1.328c.665-.883.758-2.052 1.004-3.134.472-2.106 1.576-3.985 2.354-6.03a19.949 19.949 0 0 0 .944-10.712 7.128 7.128 0 0 0-1.184-3.074c-1.196-1.574-3.284-2.145-4.826-3.374-1.542-1.229-2.586-3.154-4.368-4.05-1.609-.811-3.53-.665-5.318-.266a27.778 27.778 0 0 0-9.706 4.077c-.99.664-2.074 1.414-3.251 1.242-1.03-.153-1.802-.983-2.493-1.76a13.01 13.01 0 0 0-.811 6.13c.053.303.053.613 0 .916-.135.37-.345.706-.618.99-1.004 1.261-1.59 3.22-.499 4.409.472.524 1.177.79 1.642 1.328.824.95.612 2.37.665 3.626-.031.439.096.875.359 1.228.48.41 1.14.542 1.742.346a4.705 4.705 0 0 1 1.828-.246c.667.19 1.248.603 1.649 1.169 2.08 2.397 2.951 5.12 3.895 8.095z" class="path"/>
        <g fill="#000" class="group" opacity=".1" transform="translate(532 116)">
          <path d="M28.78 25.564a4.521 4.521 0 0 1-1.778 1.276c-3.682 1.724-7.894 1.711-11.947 1.609a2.069 2.069 0 0 1-1.623-.471 2.122 2.122 0 0 1-.748-1.533c-.889-2.866-1.72-5.483-3.681-7.813a2.901 2.901 0 0 0-1.558-1.123 4.556 4.556 0 0 0-1.74.236 1.705 1.705 0 0 1-1.651-.332 1.823 1.823 0 0 1-.34-1.181c0-1.206.176-2.553-.631-3.485-.435-.51-1.11-.766-1.557-1.277a2.682 2.682 0 0 1-.36-2.687c-.662 1.168-.914 2.643-.05 3.606.447.498 1.122.754 1.557 1.277.782.913.586 2.279.63 3.491-.028.42.092.837.34 1.175a1.686 1.686 0 0 0 1.653.332 4.537 4.537 0 0 1 1.74-.236 2.933 2.933 0 0 1 1.557 1.123c1.96 2.336 2.786 4.947 3.682 7.813a2.84 2.84 0 0 0 1.103 1.774c.397.175.828.256 1.26.236 4.054.096 8.272.109 11.979-1.614a4.572 4.572 0 0 0 1.778-1.277 3.67 3.67 0 0 0 .53-1.11c-.045.066-.093.13-.146.19zM2.224 7.002c.173-.202.302-.44.379-.696.053-.29.053-.59 0-.88A12.643 12.643 0 0 1 3.044.543l-.082-.09a12.68 12.68 0 0 0-.77 5.892c.03.217.04.437.032.657z" class="path"/>
        </g>
        <path fill="#000" d="M544 149.676s15.688 1.069 17-.676m15-3.994s9.733-.224 12 1.994" class="path" opacity=".1"/>
        <path fill="#FFF" d="M104 110.27v37.71c0 1.124-2.013 2.02-4.501 2.02H4.5c-2.48 0-4.5-.91-4.5-2.02v-37.71c0-1.125 2.006-2.27 4.501-2.27h95.01c2.476 0 4.489 1.145 4.489 2.27z" class="path"/>
        <g fill="#116466" class="group" opacity=".055" transform="translate(0 110)">
          <path d="M107.808 2.658v36.75c0 1.096-2.074 1.969-4.638 1.969H5.287c-2.557 0-4.638-.886-4.638-1.97V2.658c0-1.095 2.068-2.21 4.638-2.21h97.896c2.551 0 4.625 1.115 4.625 2.21z" class="path"/>
        </g>
        <rect width="51" height="2" x="47" y="124" fill="#116466" class="rectangle"/>
        <path fill="#000" d="M23 119c-4.856.003-9.136 3.466-10.533 8.522-1.398 5.057.417 10.512 4.466 13.426v-.8c.003-1.373.948-2.527 2.201-2.689.766 1.521 2.234 2.467 3.83 2.467 1.594 0 3.062-.946 3.828-2.467 1.253.162 2.198 1.316 2.201 2.689V141c4.085-2.888 5.937-8.353 4.553-13.432-1.384-5.08-5.675-8.566-10.547-8.568zm4.31 15.167c-.169 2.475-2.065 4.389-4.347 4.389-2.282 0-4.178-1.914-4.347-4.389a5.612 5.612 0 0 1-.107-4.056c.472-1.312 1.414-2.359 2.609-2.901a1.618 1.618 0 0 1-.235-.853c0-.42.154-.823.428-1.12a1.396 1.396 0 0 1 1.031-.46h.103c-.763.059-1.353.75-1.351 1.58-.002.275.065.544.193.78h.042a1.725 1.725 0 0 1 0-.307c0-.33.095-.651.271-.919.189-.664.754-1.116 1.393-1.114h.103c-.45.036-.86.298-1.11.708a1.354 1.354 0 0 1 1.488-.076c.47.274.765.807.768 1.387.003.06.003.118 0 .177 1.359.395 2.49 1.42 3.09 2.805a5.609 5.609 0 0 1 .021 4.376l-.042-.007z" class="shape" opacity=".291"/>
        <rect width="51" height="2" x="47" y="127" fill="#737476" class="rectangle" opacity=".2"/>
        <rect width="51" height="2" x="47" y="133" fill="#737476" class="rectangle" opacity=".2"/>
        <rect width="51" height="2" x="47" y="135" fill="#737476" class="rectangle" opacity=".2"/>
        <path fill="url(#linearGradient-4)" d="M173.995 223.825a39.71 39.71 0 0 1-.658-6.051c0-2.43-3.288-4.599-3.288-4.599s-2.045-4.73-3.386-5.42c-1.342-.69-5.57-6.885-5.57-6.885a5.607 5.607 0 0 0-1.269-3.337 47.817 47.817 0 0 1-3.445-5.197c-.566-.696-.283-1.182-1.132-5.216-.048-.21-.1-.414-.157-.61 0-.093-.06-.172-.086-.257a6.815 6.815 0 0 0 1.605-7.056 2.897 2.897 0 0 0-.81-1.248c-.96-.782-2.491-.46-3.478-1.202l1.046-4.639c.256-1.13.388-2.575-.612-3.186a5.014 5.014 0 0 0-1.17-.394c-1.723-.545-2.69-2.358-3.13-4.093a14.02 14.02 0 0 1-.342-5.124c.19-1.643.657-3.246.855-4.895a13.504 13.504 0 0 0-2.085-8.71 6.797 6.797 0 0 0-2.755-2.596c-1.059-.473-2.288-.532-3.288-1.156-2.117-1.314-2.012-4.527-3.695-6.373-1.684-1.846-4.676-1.826-7.135-1.195-2.46.63-4.9 1.714-7.424 1.432-1.624-.178-3.15-.913-4.774-1.084a4.778 4.778 0 0 0-1.4.065l.032-.059c-1.21.217-2.315.887-2.597 2.03a3.13 3.13 0 0 0-.08.828c0 .657.159 1.354.172 1.971a1.921 1.921 0 0 1-.46 1.4c-.323.348-.803.532-1.118.886a1.445 1.445 0 0 0-.415 1.045c0 1.012 1.263 1.898 2.111 2.306-.23.23-.454.466-.657.71a14.918 14.918 0 0 0-3.703 9.94 15.143 15.143 0 0 0 9.206 13.868c-.039.125-.072.243-.118.368-.234.731-.51 1.449-.828 2.148a4.265 4.265 0 0 0-3.571.394c-1.624 1.11-4.794 1.045-5.642.834-.848-.21-9.66-1.314-10.363-1.044-.704.27-2.118-.973-3.032.696-.914 1.669-1.315 2.575-2.255 2.99-.94.413-2.538 1.74-2.328 2.016.21.276-2.328 1.971-2.328 1.971s-2.183 2.293-3.452 2.575c-1.27.283-3.946 2.017-3.946 2.017l-3.103 2.431s-2.328.348-1.624-1.248c.703-1.597-1.27-3.62-1.27-3.62s-3.945-7.995-3.945-9.657c0-1.663-3.242-8.692-3.242-8.692l-.401-.04c-.06-.17-.118-.341-.184-.518-.592-1.676-1.361-3.725-1.973-4.934-1.118-2.293-1.841-2.556-1.841-2.556s-13.678-10.262-22.561-7.134c-8.884 3.127 16.215 12.442 18.47 13.421.79.335 1.355 1.44 1.757 2.72a11.681 11.681 0 0 0-4.834 4.395s5.425 12.023 5.563 15.012c.139 2.989 3.742 11.332 3.742 11.332s1.315 6.19 8.601 5.84c0 0 10.008 1.834 12.192 0 2.183-1.832 4.162-3.284 5.22-3.488a4.11 4.11 0 0 0 1.973-1.392s-3.288 20.852-4.931 22.665c-1.644 1.813-16.006 25.234-10.864 29.399 4.08 3.166 8.393 6.02 12.902 8.54.44.217 1.75-1.97 3.623-3.514v1.202c.033 8.33 1.118 21.023 2.663 23.86 2.256 4.173 1.316 12.24 1.316 12.24a9.74 9.74 0 0 0 3.813.913c.066.27.145.552.224.848 1.243 4.69 3.255 11.943 4.28 13.875 1.56 2.923 2.684 12.167 2.684 12.167s.914 9.105.565 10.36c-.138.48.46 4.257 1.394 9.053-.572 6.517-1.644 19.085-1.828 23.65v.763c-.023.284-.023.57 0 .854.08.439.048.89-.092 1.314a21.098 21.098 0 0 1-1.532 3.64c-.033.118-.414.906-.658 1.767-.558.243-1.255.854-1.643 2.332-.704 2.713-1.763 10.222-1.763 10.222s-.42 4.599-1.269 5.63c-.848 1.032-1.69 7.575 4.3 8.41 5.991.834 8.602-3.18 8.602-3.18l-.21-18.198c.12-.154.224-.322.308-.5v-.039c.04-.092.086-.177.125-.282.04-.105 0-.086.053-.132.053-.046.06-.144.085-.223a.368.368 0 0 1 0-.079 11.95 11.95 0 0 0 .507-5.42v-.374a.84.84 0 0 0 0-.125 1.267 1.267 0 0 1 0-.158v-.111c0-.119 0-.243.04-.368a.243.243 0 0 1 0-.073v-.216a.505.505 0 0 0 0-.099c0-.072.032-.151.045-.23v-.052c.053-.27.125-.54.197-.822v-.059l.08-.276c.091-.295.19-.584.289-.873v-.06l.098-.269v-.033c.099-.276.204-.545.31-.801v-.073l.098-.23v-.065l.217-.513 1.664 5.131s.914 3.824.42 4.724c-.493.9.566 4.664 1.27 4.73l-.658 4.73a72.247 72.247 0 0 0-.657 7.884c-.047.295-.093.552-.125.749-.454 2.417.657 6.175.657 6.175 5.57 6.57 12.198.513 12.198.513s.776-3.482 0-4.172c-.776-.69-.42-3.2-.42-3.2s.348-6.188.42-10.708c.072-4.52-3.702-8.495-3.702-8.495l-.21.19c-.658-1.766-1.467-3.836-1.316-4.762.283-1.597-.776-18.487-.776-18.487.387-4.518.469-9.057.244-13.586.092-.769.177-1.524.263-2.253.427-3.633.77-6.74.907-8.364v-.19c.033-.44.053-.749.046-.9 0-.539 0-1.216.053-1.925.138-1.97.44-4.126.44-4.126l1.48-8.967s1.124-4.376 2.749-6.813l.19-.309a5.49 5.49 0 0 0 .198-.348v-.053l.197-.374v-.053c.23-.446.473-.965.723-1.53l.06-.125.19-.434.072-.17.191-.434c0-.06.046-.112.072-.171.073-.177.145-.355.224-.532l.105-.256c.06-.132.112-.263.165-.401l.144-.342.099-.256.158-.388c0-.059.052-.118.072-.177.401-1.005.796-1.97 1.138-2.904.111-.282.217-.552.315-.814 3.61.223 6.063.427 6.063.427s1.131-8.133.776-13.488c-.243-3.652.434-8.251.888-10.794l.138-.755.099.079c1.768 1.386 3.03-3.2 3.03-3.2s-.473-4.29-1.11-9.473c0-.171-.046-.348-.066-.52a27.21 27.21 0 0 0 3.084.474s.565-.053 1.315-.151a37.38 37.38 0 0 0 6.694 2.996l3.735-6.951a28.336 28.336 0 0 1 2.466-4.1c1.131-1.392 5.149-5.84 5.076-6.674-.072-.835 1.316-5.63 2.75-7.785 1.433-2.155 2.268-6.53 2.189-6.885zm-15.65 5.255c-1.48.624-2.894 4.1-2.96 5.144-.065 1.045-1.624 5.63-3.248 6.189-1.486.512-4.34 3.127-4.794 3.548-.466.046-.992.105-1.545.197-.618-4.389-1.23-8.015-1.624-8.751-1.124-2.09 1.243-8.757 1.243-8.757s.237-6.74 1.716-8.344c1.48-1.603 1.131-5.63 1.131-5.63s.349-1.669.493-2.43c.145-.763 2.098 0 2.111 0 0 0 3.807 2.082 4.373 5.209.565 3.127 4.721 8.54 4.721 8.54s-.657 1.873 0 2.852c.658.979-.131 1.636-1.61 2.26l-.007-.027z" class="shape"/>
        <path fill="#4C4981" d="M54 169.966c2.502-4.266 7.23-6.564 12-5.831V173h-5.176l-4.101-1.097L54 169.966z" class="path"/>
        <path fill="#000" d="M54 169.966c2.502-4.266 7.23-6.564 12-5.831V173h-5.176l-4.101-1.097L54 169.966z" class="path" opacity=".1"/>
        <path fill="#AE6E79" d="M67 166.782L60.904 171s-.053-.85-.205-2.001c-.305-2.178-.989-5.448-2.461-6.082-2.242-.968-27.196-10.222-18.347-13.328 8.848-3.106 22.413 7.083 22.413 7.083s.703.235 1.817 2.517c.59 1.197 1.327 3.238 1.95 4.899.538 1.504.929 2.694.929 2.694z" class="path"/>
        <polygon fill="#4C4981" points="115.16 175.413 115.641 175 117 177.769 115.891 182 114 180.645 114.439 177.264" class="path"/>
        <path fill="#444053" d="M105.87 371.004s-1.697-.205-2.378 2.512c-.682 2.717-1.697 10.267-1.697 10.267s-.405 4.628-1.222 5.653c-.816 1.025-1.626 7.61 4.14 8.449 5.767.84 8.287-3.193 8.287-3.193l-.206-18.314-6.923-5.374zm20.174.996s3.685 3.933 3.62 8.456c-.066 4.524-.418 10.666-.418 10.666s-.339 2.49.418 3.186c.756.695 0 4.15 0 4.15s-6.477 6.043-11.917-.505c0 0-1.063-3.744-.653-6.156.411-2.412 1.65-13.274 1.65-13.274l7.3-6.523z" class="path"/>
        <path fill="#AE6E79" d="M138 289.772s-3.826 10.352-5.454 12.707c-1.629 2.355-2.754 6.703-2.754 6.703l-1.488 8.819a46.734 46.734 0 0 0-.496 5.946c.067 1.98-3.679 30.88-3.679 30.88l-5.943 7.312s-2.62 5.124-2.198 7.246c.422 2.123-.281 5.532-1.132 6.554 0 0-.141 6.697-.356 8.204-.214 1.508.784 5.74 0 6.47-.784.732-11.177.408-11.465-.821-.288-1.23 1.28-7.175 1.28-7.175l.918-5.74s1.836-3.144 1.414-4.166c-.422-1.022.777-3.416.851-3.623.074-.207 2.01-3.552 1.628-4.846-.382-1.294 2.192-28.837 2.192-28.837l7.29-49.405L138 289.772z" class="path"/>
        <path fill="#000" d="M138 289.76s-.576 1.552-1.38 3.596c-1.26 3.236-3.077 7.648-4.075 9.11-1.629 2.394-2.762 6.697-2.762 6.697l-1.48 8.819a46.714 46.714 0 0 0-.497 5.94c0 .782-.543 5.777-1.24 11.522-1.072 8.793-2.44 19.365-2.44 19.365l-5.95 7.311s-.302.59-.67 1.443c-.745 1.676-1.797 4.4-1.515 5.823.422 2.123-.282 5.539-1.133 6.561 0 0-.14 6.703-.355 8.198-.215 1.494.784 5.745 0 6.47-.784.724-11.18.414-11.468-.822-.288-1.236 1.274-7.169 1.274-7.169l.925-5.745s1.836-3.145 1.414-4.167c-.422-1.022.777-3.416.851-3.623.074-.207 2.01-3.552 1.629-4.853-.275-.99 1.139-17.171 1.823-24.845.22-2.42.368-3.985.368-3.985l6.273-42.502.503-3.43.516-3.474L138 289.76z" class="path" opacity=".1"/>
        <path fill="#AE6E79" d="M130 392.679c.063.754-9.432 1.853-10.77 1.027-1.336-.826 0-11.055 0-11.055l.634-4.669c-.671-.072-1.672-3.778-1.203-4.676.469-.897-.406-4.669-.406-4.669l-1.577-5.072-.963-3.095c-1.558-3.544-3.8-13.656-5.232-21.2-.887-4.74-1.45-8.454-1.324-8.954.336-1.236-.539-10.23-.539-10.23s-1.064-9.103-2.533-12.017c-.976-1.912-2.883-9.104-4.067-13.714-.602-2.374-1.02-4.078-1.02-4.078s10.135-.871 16.242-1.177c2.825-.136 4.801-.156 4.567.085-.234.24-.285 1.495-.272 3.31 0 4.714.665 13.006 1.343 15.23.937 3.088 1.9 12.355 1.47 13.252-.432.898-.267 6.868-.267 6.868a31.596 31.596 0 0 1 1.172 7.458c.213 4.475.135 8.959-.234 13.422 0 0 1.007 16.687.735 18.267-.273 1.58 2.14 6.503 2.14 7.485 0 .982.609 7.485.609 7.485s1.431 9.962 1.495 10.717zm6-202.817l-1.149 1.29-.745.819-4.369 4.74L118.468 198l-5.984-1.638-1.484-.4s0-3.076.271-6.764c.38-4.727 1.295-10.473 3.466-12.033a8.77 8.77 0 0 0 2.526-3.283 18.6 18.6 0 0 0 1.092-2.753c.044-.123.076-.239.113-.355.495-1.65.85-3.342 1.061-5.055 0 0 1.44-.813 3.434-1.76 5.221-2.49 14.236-5.92 11.099 1.76a29.382 29.382 0 0 0-1.174 3.456 7.56 7.56 0 0 0-.133.51c-1.048 4.281-.353 6.874.43 8.305.134.245.286.48.454.703.21.301.466.567.757.787l1.301 8.415.107.697.196 1.27z" class="path"/>
        <path fill="#000" d="M134.328 166.987c-.616 1.539.302-1.26 0 0-2.467 1.825-8.288 7.013-11.563 7.013-2.205 0-2.868-.415-4.765-1.3a32.96 32.96 0 0 0 1.22-5.713s19.61-11.22 15.108 0z" class="path" opacity=".1"/>
        <path fill="#AE6E79" d="M139 155.487c.005 7.429-5.603 13.66-12.988 14.431-.504.056-1.01.083-1.518.082-8.005 0-14.494-6.492-14.494-14.5s6.489-14.5 14.494-14.5c8.004 0 14.493 6.492 14.493 14.5l.013-.013z" class="path"/>
        <path fill="#000" d="M139 224.059l-2.066 5.565s-1.693.078-4.32.163c-8.844.292-28.426.65-29.304-1.678a5.786 5.786 0 0 1-.304-1.846c-.12-3.576 1.504-9.07 1.504-9.07s.935-10.987.935-11.462c0-.475-.803-8.205-.803-8.205l1.599-6.176 4.472-3.251s2.002 3.16 3.203 3.433c1.2.273 2.804 1.788 2.804 1.788s3.93 2.47 5.2 1.092c1.269-1.379 11.142-7.412 11.142-7.412l5.205 5.903.733 31.156z" class="path" opacity=".1"/>
        <path fill="#FFF" d="M139 224.074l-2.066 5.568s-1.693.078-4.32.156h-.26l-3.834.104c-7.05.162-16.771.208-21.844-.553-1.895-.286-3.158-.65-3.366-1.236a4.665 4.665 0 0 1-.24-1.021 8.42 8.42 0 0 1-.064-.826c-.12-3.577 1.504-9.106 1.504-9.106s.935-10.992.935-11.473c0-.482-.803-8.176-.803-8.176l1.599-6.18 3.076-2.217 1.396-1.008c.469.724.982 1.417 1.535 2.075a4.038 4.038 0 0 0 1.668 1.352c1.2.28 2.804 1.79 2.804 1.79s3.93 2.477 5.2 1.098c.972-1.053 6.948-4.832 9.74-6.556l1.402-.865.701.8 4.504 5.112.733 31.162z" class="path"/>
        <path fill="#000" d="M68 166.728L61.228 171s-.059-.86-.228-2.026c3.345-1.265 5.379-4.073 5.968-4.974A119.076 119.076 0 0 1 68 166.728z" class="path" opacity=".1"/>
        <path fill="#3F3D56" d="M86.327 180.388l-1.29-.339s-2.113 2.27-3.338 2.543c-1.224.274-3.809 2.002-3.809 2.002l-2.996 2.407s-2.25.345-1.566-1.24c.683-1.584-1.225-3.58-1.225-3.58s-3.809-7.923-3.809-9.573c0-1.65-3.132-8.608-3.132-8.608s-3.95 7.78-11.162 5.302c0 0 5.24 11.914 5.375 14.875.135 2.96 3.609 11.23 3.609 11.23s1.289 6.13 8.3 5.784c0 0 9.668 1.82 11.775 0 2.107-1.82 4.015-3.26 5.04-3.456A3.991 3.991 0 0 0 90 196.359v-8.19l-3.673-7.78z" class="path"/>
        <path fill="#000" d="M78 190s1.718 6.318.65 7l-.65-7zm57 40.828c-8.961.236-28.803.523-29.693-1.343A3.791 3.791 0 0 1 105 228l29.373 1.265.627 1.563zm2 59.05s-.559 1.603-1.333 3.712c-3.79-.24-8.808-.487-13.573-.52-1.69 0-3.341 0-4.895.053a35.748 35.748 0 0 0-8.002.915 20.595 20.595 0 0 1-7.15.94 623.965 623.965 0 0 1-1.047-4.185s10.4-.894 16.667-1.208l.5-3.585L137 289.879z" class="path" opacity=".1"/>
        <path fill="#65617D" d="M144 263.904l-1.214 2.538s-.17.755-.387 1.957c-.461 2.578-1.153 7.246-.91 10.953.367 5.43-.786 13.677-.786 13.677s-26.365-2.184-34.099 0c-7.734 2.184-11.533 0-11.533 0s.93-8.18-1.357-12.408c-1.574-2.899-2.673-15.762-2.714-24.21 0-3.907.197-6.866.678-7.46C93.252 247.04 99.99 228 99.99 228l1.534.08 4.07.214 23.332 1.209 3.657.187.387 1.168L144 263.904z" class="path"/>
        <path fill="#4C4981" d="M153.802 256.793L154 259s-10.5-3.617-9.981-8.063c.518-4.446 0-3.917 0-3.917l8.45.757 1.333 9.016z" class="path"/>
        <path fill="#000" d="M153.802 256.793L154 259s-10.5-3.617-9.981-8.063c.518-4.446 0-3.917 0-3.917l8.45.757 1.333 9.016zm-70.674-64.398c1.412.76 3.078 1.309 4.872 1.605a4.174 4.174 0 0 1-1.437-.427c-.991-.448-1.933-.931-2.883-1.405-.764-.38-1.73-1.03-2.68-1.168.631.51 1.344.978 2.128 1.395z" class="path" opacity=".1"/>
        <path fill="#000" d="M83.193 193.956c.256.433.462.929.608 1.465.127.613.187 1.252.177 1.893a8.846 8.846 0 0 1-.219 2.686l-1.285-4.607a64.993 64.993 0 0 0-.706-2.328c-.116-.322-.845-1.655-.761-1.935.241-.806 1.95 2.384 2.186 2.826zm50.662 23.768c1.177-.162 2.278-.766 3.145-1.724-1.767.261-3.434 1.082-5.176 1.493-1.614.447-3.305.264-4.824-.523 1.981 1.18 4.704 1.217 6.855.754zM128 206.981c-.33.066-.668-.043-.935-.3a88.163 88.163 0 0 1-4.078-3.157A25.606 25.606 0 0 1 119 200c2.739 3.165 5.288 5.837 9 6.981zm4.426 13.013a9.933 9.933 0 0 0 1.96-.124c.652-.11 1.228-.414 1.614-.85a1.108 1.108 0 0 0-.685.086c-1.993.67-4.18.88-6.315.606 1.019.349 2.335.277 3.426.282zM117 252.39a29.554 29.554 0 0 1-4.262.59c-1.125.036-2.25.021-3.372-.045l-5.463-.244-2.734-.124c-.322 0-1.642 0-.991-.444.328-.217 2.153-.08 2.62-.088.91 0 1.813-.032 2.716-.036 1.806 0 3.618 0 5.424.08 2.029.056 4.05.16 6.062.31zm-5 2c-.966-.03-2.207.405-3.2.494-1.108.1-2.226.136-3.343.103A24.284 24.284 0 0 1 99 254c4.342.163 8.671.262 13 .39zm-10.114 3.792c.397.088.789.203 1.172.344 2.258.71 4.665.088 6.942-.527-.57.933-1.632 1.352-2.636 1.596a11.41 11.41 0 0 1-5.143.203c-.54-.115-1.861-.325-2.159-.933-.41-.9 1.321-.771 1.824-.683zm14.41 3.725c.662.104 1.316.236 1.96.396 2.488.471 5.073-.18 7.574-.623a44.794 44.794 0 0 1 9.17-.66c-.552 0-1.426.377-1.966.505-.71.165-1.427.316-2.143.471a56.369 56.369 0 0 1-13.073.948c-1.34-.057-3.64.052-4.818-.472a6.6 6.6 0 0 1 3.295-.565zm-2.291-85.67s.131 6.302-.865 9.17c-.307.894-.796 2.546-1.323 4.398a760.752 760.752 0 0 0-1.705 6.133c-.489 1.781-.808 3.012-.808 3.012s-2.238 18.82-2.821 27.783v.467c-.031.505-.088 1.03-.163 1.574-1.291 8.905-8.725 22.634-11.22 23.735A7.519 7.519 0 0 0 93 254c0-3.789.182-6.658.627-7.234 1.454-1.852 7.678-20.316 7.678-20.316l1.417.077a8.412 8.412 0 0 1-.063-.822c-.119-3.562 1.492-9.067 1.492-9.067s.928-10.945.928-11.425c0-.479-.796-8.14-.796-8.14l1.586-6.153 3.052-2.208c.376-4.748 1.285-10.518 3.442-12.085a8.796 8.796 0 0 0 2.507-3.297c.432.059-.351-.33-.351-.33l-.514 3.238z" class="path" opacity=".1"/>
        <path fill="#3F3D56" d="M117 175.217a4.467 4.467 0 0 0-3.634.396c-1.651 1.09-4.878 1.025-5.74.818-.863-.208-9.83-1.299-10.544-1.026-.713.273-2.153-.96-3.084.682-.93 1.642-1.359 2.538-2.296 2.953-.938.416-2.588 1.714-2.371 1.986.217.273-2.364 1.948-2.364 1.948l5.23 16.228s-3.396 20.564-5.02 22.342c-1.623 1.78-16.303 24.888-11.045 29.003a106.383 106.383 0 0 0 13.124 8.439c.578.272 2.656-3.428 5.53-4.596 2.874-1.168 11.766-16.624 12.35-25.374.584-8.75 3.084-28.315 3.084-28.315s3.084-10.697 4.165-13.573c1.08-2.875.903-9.198.903-9.198l1.712-2.713z" class="path"/>
        <path fill="#000" d="M143 263.578l-1.193 2.497s-.167.742-.38 1.925a1.115 1.115 0 0 1-.607-.256c-1.76-1.393-12.112-11.866-12.598-21.17a165.402 165.402 0 0 1-.08-15.4c.04-.828.066-1.314.073-1.439 0 0 8-9.58 7.106-12.976-.893-3.397-3.026-21.583-3.026-21.583l-.314-2.385-.533-4.028-1.26-9.763 1.333.302c.223.307.493.577.8.802l1.373 8.574 4.753 5.164.773 31.432-2.18 5.624s-1.786.079-4.559.158h-.273L143 263.578z" class="path" opacity=".1"/>
        <path fill="#3F3D56" d="M147.958 211.094s-1.824-.762-1.927 0c-.104.762-.45 2.424-.45 2.424s.316 4.027-1.027 5.623-1.562 8.323-1.562 8.323-2.158 6.66-1.137 8.743c.37.755.948 4.546 1.526 9.078.364 2.831.73 5.952 1.057 8.796a488.05 488.05 0 0 1 1.015 9.46s-1.154 4.598-2.76 3.192c-1.604-1.406-11.043-11.877-11.493-21.159a181.94 181.94 0 0 1-.085-15.003c.049-1.189.085-1.859.085-1.859s7.294-9.57 6.486-12.967c-.809-3.396-2.76-21.579-2.76-21.579l-.34-2.805-.359-3.022-.079-.656-1.16-9.683c.206.046 7.408 1.806 8.357 2.831.948 1.025 6.801 2.496 6.801 2.496 1.806.532 3.202 2.082 3.647 4.047.055.19.097.394.14.604.772 4.027.516 4.506 1.033 5.203.517.696-5.008 17.913-5.008 17.913z" class="path"/>
        <path fill="#000" d="M146 254c-2.868-.565-7.091-1.916-6.999-4.873.093-2.776 3.37-3.77 5.85-4.127.429 2.897.792 6.09 1.149 9z" class="path" opacity=".1"/>
        <path fill="#AE6E79" d="M152.983 252.498c-.11.26-.572.485-1.183.702a28.62 28.62 0 0 1-4.499.8s-9.435-.814-9.3-5.48c.097-3.354 4.358-4.21 6.755-4.442.938-.091 1.594-.077 1.594-.077s7.044 7.536 6.633 8.497z" class="path"/>
        <path fill="#000" d="M152.982 252.314c-.112.254-.587.473-1.213.686-2.526-3.515-6.048-8.024-7.769-8.423 0 0 .198-.199.521-.5.963-.09 1.636-.076 1.636-.076s7.247 7.372 6.825 8.313z" class="path" opacity=".1"/>
        <path fill="#3F3D56" d="M152.782 194l2.704.426a50.935 50.935 0 0 0 3.234 5.355 6.115 6.115 0 0 1 1.187 3.428s3.958 6.356 5.207 7.073c1.249.717 3.166 5.571 3.166 5.571s3.122 2.212 3.122 4.734a44.55 44.55 0 0 0 .593 6.207c.062.358-.462 4.787-1.786 6.998-1.324 2.211-2.635 7.14-2.566 7.999.069.859-3.697 5.41-4.752 6.856a29.464 29.464 0 0 0-2.304 4.213L157.09 260s-7.386-11.779-10.09-12.421c0 0 3.035-3.144 4.552-3.712 1.517-.568 2.966-5.288 3.035-6.356.068-1.068 1.38-4.645 2.766-5.288 1.386-.642 2.11-1.284 1.517-2.285-.593-1 0-2.928 0-2.928s-3.89-5.571-4.42-8.79c-.532-3.218-4.084-5.355-4.084-5.355l-2.048-5.41L152.782 194z" class="path"/>
        <path fill="#000" d="M159.86 218.417A9.642 9.642 0 0 1 166 216c-1.44.262-2.966.584-4.017 1.631-.416.46-.788.96-1.109 1.497-.367.538-3.297 4.414-3.765 3.808-.698-.928 2.16-3.996 2.75-4.52zM157 215c.48-.068.9-.552 1.099-1.265.188-.707.304-1.46.344-2.227a51.5 51.5 0 0 1 .48-3.806 3.81 3.81 0 0 0 .077-.796 3.352 3.352 0 0 0-.143-.766 7.35 7.35 0 0 0-.337-1.14c-.29.529-.366 1.71-.487 2.375-.142.855-.277 1.71-.407 2.566-.062.45-.6 5.059-.626 5.059zm-3-26.137c-.29.374-.619.714-.983 1.014-1.138.927-2.694 1.71-2.855 3.171.04.478-.017.959-.169 1.413-.37.636-1.286.588-2.02.46a3.547 3.547 0 0 1-1.704-.629c-.76-.676-.835-1.825-1.414-2.643a3.59 3.59 0 0 0-2.882-1.298c-1.09-.034-2.175.21-3.26.263a8.996 8.996 0 0 1-2.087-.142 8.811 8.811 0 0 1-2.094-.629 7.153 7.153 0 0 1-.673-.324 9.15 9.15 0 0 1-2.02-1.4c-1.065-.986-1.947-2.332-1.86-3.792.153-.876.356-1.743.607-2.596.438-2.522-1.232-4.908-3.044-6.713-.72-.71-1.488-1.413-2.209-2.143a10.695 10.695 0 0 1-2.606-3.718 11.373 11.373 0 0 1-.464-4.652 31.83 31.83 0 0 0 .141-4.793c-.539-5.679-5.387-10.026-10.195-12.398l-.209-.109a15.45 15.45 0 0 1 15.698-4.64 15.526 15.526 0 0 1 11.083 12.088 15.58 15.58 0 0 1-5.906 15.322 7.817 7.817 0 0 0-.141.534c-1.118 4.489-.377 7.206.458 8.707.229.048 8.209 1.86 9.26 2.914 1.05 1.055 7.535 2.569 7.535 2.569a5.716 5.716 0 0 1 4.013 4.164z" class="path" opacity=".1"/>
        <path fill="#444053" d="M112.418 145.56c.314-.339.795-.514 1.115-.847.995-1.017 0-2.682.367-4.025.394-1.495 2.338-2.148 3.967-1.985 1.63.164 3.151.86 4.774 1.03 2.524.27 4.968-.76 7.432-1.362 2.464-.603 5.435-.628 7.138 1.136 1.703 1.765 1.576 4.798 3.686 6.085.975.59 2.203.628 3.258 1.099a6.597 6.597 0 0 1 2.758 2.48c1.667 2.47 2.399 5.398 2.077 8.308-.174 1.57-.668 3.102-.855 4.672a12.839 12.839 0 0 0 .34 4.885c.448 1.652 1.41 3.385 3.139 3.906.405.079.797.206 1.168.377.995.578.868 1.959.615 3.033l-1.069 4.427c.989.71 2.518.402 3.48 1.149.378.322.657.734.807 1.193.942 2.548.12 5.378-2.07 7.12-1.128.867-2.67 1.59-2.831 2.952.043.442-.014.887-.167 1.306-.367.59-1.275.547-2.003.427a3.596 3.596 0 0 1-1.683-.584c-.761-.628-.828-1.695-1.402-2.455-.704-.795-1.758-1.24-2.858-1.206-1.088-.03-2.157.195-3.238.245-2.509.103-4.959-.73-6.818-2.317-1.138-.858-1.815-2.145-1.85-3.516.155-.816.355-1.623.601-2.418.434-2.336-1.221-4.559-3.011-6.229s-3.9-3.221-4.774-5.45c-1.095-2.764 0-5.84-.327-8.792-.535-5.275-5.342-9.312-10.103-11.51-1.089-.496-2.905-1.809-1.663-3.133z" class="path"/>
        <path fill="#000" d="M148.45 191.088c-.721-.637-.785-1.713-1.334-2.49a3.439 3.439 0 0 0-2.739-1.215c-1.034-.032-2.055.197-3.09.248a9.158 9.158 0 0 1-6.518-2.317c-1.015-.929-1.845-2.202-1.768-3.57.147-.825.34-1.641.574-2.445.415-2.374-1.168-4.621-2.885-6.32-1.718-1.7-3.722-3.266-4.565-5.526-1.04-2.795 0-5.92-.306-8.912-.511-5.347-5.108-9.446-9.666-11.674-1.066-.522-2.802-1.846-1.615-3.183.3-.343.753-.515 1.066-.853.951-1.03 0-2.724.351-4.086.066-.268.183-.521.345-.745a2.916 2.916 0 0 0-2.483 1.954c-.339 1.362.6 3.056-.352 4.087-.306.337-.766.509-1.066.853-1.187 1.35.55 2.673 1.622 3.182 4.577 2.235 9.148 6.328 9.659 11.675.28 2.966-.734 6.091.313 8.911.836 2.26 2.847 3.82 4.564 5.526 1.718 1.705 3.295 3.946 2.88 6.32-.235.805-.427 1.62-.575 2.445-.076 1.368.753 2.641 1.769 3.57a9.126 9.126 0 0 0 6.518 2.35c1.034-.051 2.055-.28 3.096-.249a3.426 3.426 0 0 1 2.732 1.216c.55.777.639 1.878 1.341 2.489.475.335 1.03.54 1.609.592.69.127 1.557.172 1.915-.433.122-.244.175-.517.153-.79a3.108 3.108 0 0 1-1.545-.61z" class="path" opacity=".1"/>
      </g>
    </g>
  </g>
</svg>
