<svg width="700" height="1902" viewBox="0 0 700 1902" fill="none" xmlns="http://www.w3.org/2000/svg" data-vsvg="002" class="theme_beauty_svg_preview">
    <defs>
        <pattern id="theme_beauty_library_image_14_id" width="1" height="1" patternunits="objectBoundingBox">
            <image href="#library_image_14_url" width="91" height="183" preserveAspectRatio="xMidYMid slice"></image>
        </pattern>
        <pattern id="theme_beauty_library_image_10_id" width="1" height="1" patternunits="objectBoundingBox">
            <image href="#library_image_10_url" width="82" height="164" preserveAspectRatio="xMidYMid slice"></image>
        </pattern>
        <pattern id="theme_beauty_s_text_image_default_image_id" width="1" height="1" patternunits="objectBoundingBox">
            <image href="#s_text_image_default_image_url" width="277" height="160" preserveAspectRatio="xMidYMid slice"></image>
        </pattern>
        <pattern id="theme_beauty_s_masonry_block_default_image_1_id" width="1" height="1" patternunits="objectBoundingBox">
            <image href="#s_masonry_block_default_image_1_url" width="275" height="160" preserveAspectRatio="xMidYMid slice"></image>
        </pattern>
        <pattern id="theme_beauty_s_product_catalog_default_image_id" width="1" height="1" patternunits="objectBoundingBox">
            <image href="#s_product_catalog_default_image_url" width="700" height="431" preserveAspectRatio="xMidYMid slice"></image>
        </pattern>
        <pattern id="theme_beauty_library_image_16_id" width="1" height="1" patternunits="objectBoundingBox">
            <image href="#library_image_16_url" width="105" height="105" preserveAspectRatio="xMidYMid slice"></image>
        </pattern>
        <pattern id="theme_beauty_library_image_03_id" width="1" height="1" patternunits="objectBoundingBox">
            <image href="#library_image_03_url" width="105" height="105" preserveAspectRatio="xMidYMid slice"></image>
        </pattern>
        <pattern id="theme_beauty_library_image_13_id" width="1" height="1" patternunits="objectBoundingBox">
            <image href="#library_image_13_url" width="105" height="105" preserveAspectRatio="xMidYMid slice"></image>
        </pattern>
        <pattern id="theme_beauty_s_carousel_default_image_2_id" width="1" height="1" patternunits="objectBoundingBox">
            <image href="#s_carousel_default_image_2_url" width="460" height="190" preserveAspectRatio="xMidYMid slice"></image>
        </pattern>
        <filter id="filter_readability_theme_beauty">
            <feColorMatrix in="SourceGraphic" type="saturate" values="0"></feColorMatrix>
            <feComponentTransfer>
                <feFuncR type="table" tableValues="1 0"></feFuncR>
                <feFuncG type="table" tableValues="1 0"></feFuncG>
                <feFuncB type="table" tableValues="1 0"></feFuncB>
            </feComponentTransfer>
            <feComponentTransfer>
                <feFuncR type="linear" slope="10000" intercept="-4999.5"></feFuncR>
                <feFuncG type="linear" slope="10000" intercept="-4999.5"></feFuncG>
                <feFuncB type="linear" slope="10000" intercept="-4999.5"></feFuncB>
            </feComponentTransfer>
        </filter>
    </defs>
    <rect width="700" height="1902" fill="#ACACAC"></rect>
    <g clip-path="url(#clip0_287_2)" class="theme_beauty">
        <rect width="700" height="1902" fill="#FFFFFF"></rect>
        <g class="svgc_menu">
            <path d="M700 0H0V37H700V0Z" fill="#MENU_COLOR" class="svgc_menu_bg"></path>
            <path d="M622.5 11H591.5C587.358 11 584 14.3579 584 18.5C584 22.6421 587.358 26 591.5 26H622.5C626.642 26 630 22.6421 630 18.5C630 14.3579 626.642 11 622.5 11Z" fill="#3AADAA"></path>
            <path d="M356 15H319V22H356V15Z" fill="#MENU_COLOR" fill-opacity="0.3" class="svgc_invert" filter="url(#filter_readability_theme_beauty)"></path>
            <path d="M298 15H261V22H298V15Z" fill="#MENU_COLOR" fill-opacity="0.3" class="svgc_invert" filter="url(#filter_readability_theme_beauty)"></path>
            <path d="M240 15H203V22H240V15Z" fill="#MENU_COLOR" fill-opacity="0.3" class="svgc_invert" filter="url(#filter_readability_theme_beauty)"></path>
            <path d="M182 15H145V22H182V15Z" fill="#MENU_COLOR" class="svgc_invert" filter="url(#filter_readability_theme_beauty)"></path>
            <path d="M76.3448 23V21.479H72.6038V14.273H70.7588V23H76.3448ZM81.0248 23.12C81.7948 23.12 82.4878 22.944 83.1048 22.593C83.7238 22.243 84.2118 21.733 84.5718 21.065C84.9318 20.398 85.1108 19.588 85.1108 18.636C85.1108 17.685 84.9308 16.875 84.5708 16.207C84.2118 15.54 83.7238 15.031 83.1058 14.68C82.4878 14.329 81.7938 14.153 81.0238 14.153C80.2488 14.153 79.5528 14.329 78.9358 14.68C78.3198 15.03 77.8318 15.54 77.4748 16.207C77.1168 16.875 76.9378 17.685 76.9378 18.637C76.9378 19.585 77.1168 20.393 77.4748 21.061C77.805 21.7006 78.3121 22.2317 78.9358 22.591C79.5528 22.943 80.2488 23.119 81.0238 23.119L81.0248 23.12ZM81.0248 21.487C80.6115 21.4962 80.2049 21.382 79.8568 21.159C79.5238 20.94 79.2668 20.619 79.0828 20.196C78.8998 19.773 78.8078 19.253 78.8078 18.636C78.8078 18.02 78.8998 17.5 79.0828 17.076C79.2658 16.653 79.5238 16.332 79.8568 16.114C80.2045 15.891 80.6108 15.7767 81.0238 15.786C81.4698 15.786 81.8588 15.895 82.1918 16.114C82.5238 16.332 82.7818 16.654 82.9648 17.077C83.1488 17.5 83.2398 18.02 83.2398 18.637C83.2398 19.253 83.1488 19.773 82.9648 20.196C82.7818 20.619 82.5248 20.94 82.1918 21.159C81.8438 21.3823 81.4381 21.4965 81.0248 21.487ZM90.3018 23.119C91.0348 23.119 91.6858 22.971 92.2538 22.674C92.8117 22.3868 93.2759 21.9462 93.5918 21.404C93.9158 20.854 94.0778 20.196 94.0778 19.429V18.329H90.4258V19.719H92.2978L92.2938 19.845C92.2768 20.082 92.2238 20.297 92.1368 20.49L92.0638 20.63C91.9046 20.9043 91.6671 21.1247 91.3818 21.263C91.0858 21.413 90.7278 21.487 90.3108 21.487C89.8508 21.487 89.4508 21.376 89.1128 21.153C88.7748 20.93 88.5128 20.605 88.3288 20.179C88.1448 19.753 88.0518 19.236 88.0518 18.628C88.0518 18.02 88.1458 17.505 88.3328 17.083C88.5208 16.661 88.7828 16.339 89.1198 16.118C89.4693 15.8928 89.8781 15.7772 90.2938 15.786C90.5318 15.786 90.7498 15.816 90.9478 15.875C91.1448 15.935 91.3208 16.021 91.4758 16.133C91.6308 16.245 91.7618 16.381 91.8698 16.542C91.9778 16.702 92.0618 16.886 92.1218 17.094H93.9968C93.9417 16.6754 93.804 16.272 93.5918 15.907C93.3827 15.5479 93.1071 15.2319 92.7798 14.976C92.4394 14.7096 92.0553 14.5042 91.6448 14.369C91.1993 14.2222 90.7328 14.1492 90.2638 14.153C89.7135 14.148 89.1675 14.2509 88.6568 14.456C88.1661 14.6551 87.7231 14.9557 87.3568 15.338C86.9728 15.7437 86.6775 16.2249 86.4898 16.751C86.2838 17.306 86.1808 17.937 86.1808 18.645C86.1808 19.565 86.3538 20.36 86.6988 21.029C87.0212 21.6738 87.5239 22.2112 88.1458 22.576C88.7658 22.938 89.4838 23.119 90.3018 23.119ZM99.2598 23.119C100.03 23.119 100.723 22.944 101.341 22.593C101.959 22.243 102.448 21.733 102.807 21.065C103.167 20.398 103.347 19.588 103.347 18.636C103.347 17.685 103.167 16.875 102.807 16.207C102.447 15.54 101.959 15.031 101.341 14.68C100.723 14.329 100.03 14.153 99.2598 14.153C98.4838 14.153 97.7878 14.329 97.1718 14.68C96.5548 15.03 96.0678 15.54 95.7098 16.207C95.3518 16.875 95.1728 17.685 95.1728 18.637C95.1728 19.585 95.3518 20.393 95.7098 21.061C96.0678 21.729 96.5548 22.239 97.1718 22.591C97.7878 22.943 98.4838 23.119 99.2598 23.119ZM99.2598 21.487C98.8138 21.487 98.4238 21.377 98.0918 21.159C97.7598 20.94 97.5018 20.619 97.3188 20.196C97.1348 19.773 97.0438 19.253 97.0438 18.636C97.0438 18.02 97.1348 17.5 97.3188 17.076C97.5018 16.653 97.7588 16.332 98.0918 16.114C98.4398 15.8908 98.8465 15.7765 99.2598 15.786C99.7058 15.786 100.095 15.895 100.427 16.114C100.76 16.332 101.017 16.654 101.201 17.077C101.384 17.5 101.476 18.02 101.476 18.637C101.476 19.253 101.384 19.773 101.201 20.196C101.017 20.619 100.76 20.94 100.427 21.159C100.079 21.3821 99.6728 21.4963 99.2598 21.487Z" fill="#MENU_COLOR" class="svgc_invert" filter="url(#filter_readability_theme_beauty)"></path>
        </g>
        <g class="s_intro_pill">
            <path d="M700 37H0V270H700V37Z" fill="#FFFFFF"></path>
            <rect x="539" y="70" width="91" height="183" rx="45.5" fill="url(#theme_beauty_library_image_14_id)" class="img_reference_library_image_14"></rect>
            <rect x="70" y="53" width="82" height="164" rx="41" fill="url(#theme_beauty_library_image_10_id)" class="img_reference_library_image_10"></rect>
            <path d="M386 181H320C312.268 181 306 187.268 306 195C306 202.732 312.268 209 320 209H386C393.732 209 400 202.732 400 195C400 187.268 393.732 181 386 181Z" fill="#3AADAA"></path>
            <text transform="translate(355 117)" text-anchor="Middle" fill="#000000" class="svgc_text" filter="url(#filter_readability_anelusia)" font-size="29" font-family="Arial" font-weight="700">
                <tspan x="0" y="0">Welcome</tspan>
                <tspan x="0" y="37">Message</tspan>
            </text>
            <text transform="translate(375 198)" text-anchor="Middle" fill="#FFFFFF" font-size="11" font-family="Arial" font-weight="700"><tspan x="-22.471" y="0">Discover</tspan></text>
        </g>
        <g class="s_masonry">
            <rect y="270" width="700" height="260" fill="#FFFFFF"></rect>
            <rect x="70" y="283" width="134" height="66" rx="4" fill="#7C6576"></rect>
            <rect x="212" y="283" width="133" height="66" rx="4" fill="#F6F6F6"></rect>
            <rect x="353" y="451" width="135" height="66" rx="4" fill="#F6F6F6"></rect>
            <rect x="496" y="451" width="134" height="66" rx="4" fill="#3AADAA"></rect>
            <path d="M145 313H79V315H145V313Z" fill="#7C6576" fill-opacity="0.4" class="svgc_invert" filter="url(#filter_readability_theme_beauty)"></path>
            <path d="M149 295H79V303H149V295Z" fill="#7C6576" fill-opacity="0.4" class="svgc_invert" filter="url(#filter_readability_theme_beauty)"></path>
            <path d="M287 313H221V315H287V313Z" fill="#F6F6F6" fill-opacity="0.4" class="svgc_invert" filter="url(#filter_readability_theme_beauty)"></path>
            <path d="M429 481H363V483H429V481Z" fill="#F6F6F6" fill-opacity="0.4" class="svgc_invert" filter="url(#filter_readability_theme_beauty)"></path>
            <path d="M291 295H221V303H291V295Z" fill="#F6F6F6" fill-opacity="0.4" class="svgc_invert" filter="url(#filter_readability_theme_beauty)"></path>
            <path d="M433 463H363V471H433V463Z" fill="#F6F6F6" fill-opacity="0.4" class="svgc_invert" filter="url(#filter_readability_theme_beauty)"></path>
            <path d="M570 481H504V483H570V481Z" fill="#3AADAA" fill-opacity="0.4" class="svgc_invert" filter="url(#filter_readability_theme_beauty)"></path>
            <path d="M574 463H504V471H574V463Z" fill="#3AADAA" fill-opacity="0.4" class="svgc_invert" filter="url(#filter_readability_theme_beauty)"></path>
            <rect x="353" y="283" width="277" height="160" rx="4" fill="url(#theme_beauty_s_text_image_default_image_id)" class="img_reference_s_masonry_block_default_image_2"></rect>
            <rect x="70" y="357" width="275" height="160" rx="4" fill="url(#theme_beauty_s_masonry_block_default_image_1_id)" class="img_reference_s_masonry_block_default_image_1"></rect>
        </g>
        <g class="s_pricelist_boxed">
            <rect y="530" width="700" height="431" fill="url(#theme_beauty_s_product_catalog_default_image_id)" class="img_reference_s_product_catalog_default_image"></rect>
            <g>
                <path d="M700 530H0V633L700 674V530Z" fill="#FFFFFF"></path>
                <path d="M700 819.5L0 859V961H700V819.5Z" fill="#FFFFFF"></path>
            </g>
            <g>
                <rect x="110" y="541" width="201" height="410" fill="#FFFFFF"></rect>
                <rect x="116" y="541" width="189" height="410" fill="#F6F6F6"></rect>
                <text transform="translate(232 585)" text-anchor="Middle" fill="#000000" font-size="20" font-family="Arial" font-weight="700"><tspan x="-22.471" y="0">Entry Title</tspan></text>
                <path d="M264 608H149V610H264V608Z" fill="#F6F6F6" fill-opacity="0.4" class="svgc_invert" filter="url(#filter_readability_theme_beauty)"></path>
                <path d="M264 616H149V618H264V616Z" fill="#F6F6F6" fill-opacity="0.4" class="svgc_invert" filter="url(#filter_readability_theme_beauty)"></path>
                <path d="M274 612H139V614H274V612Z" fill="#F6F6F6" fill-opacity="0.4" class="svgc_invert" filter="url(#filter_readability_theme_beauty)"></path>
                <path d="M279 840H133V842H279V840Z" fill="#F6F6F6" fill-opacity="0.4" class="svgc_invert" filter="url(#filter_readability_theme_beauty)"></path>
                <path d="M268 845H133V847H268V845Z" fill="#F6F6F6" fill-opacity="0.4" class="svgc_invert" filter="url(#filter_readability_theme_beauty)"></path>
                <path d="M259 850H133V852H259V850Z" fill="#F6F6F6" fill-opacity="0.4" class="svgc_invert" filter="url(#filter_readability_theme_beauty)"></path>
                <path d="M267 830H201V831H267V830Z" fill="#F6F6F6" fill-opacity="0.4" class="svgc_invert" filter="url(#filter_readability_theme_beauty)"></path>
                <path d="M195 828H133V833H195V828Z" fill="#F6F6F6" class="svgc_invert" filter="url(#filter_readability_theme_beauty)"></path>
                <path d="M288 828H273V833H288V828Z" fill="#F6F6F6" class="svgc_invert" filter="url(#filter_readability_theme_beauty)"></path>
                <path d="M279 879H133V881H279V879Z" fill="#F6F6F6" fill-opacity="0.4" class="svgc_invert" filter="url(#filter_readability_theme_beauty)"></path>
                <path d="M268 884H133V886H268V884Z" fill="#F6F6F6" fill-opacity="0.4" class="svgc_invert" filter="url(#filter_readability_theme_beauty)"></path>
                <path d="M259 889H133V891H259V889Z" fill="#F6F6F6" fill-opacity="0.4" class="svgc_invert" filter="url(#filter_readability_theme_beauty)"></path>
                <path d="M267 869H201V870H267V869Z" fill="#F6F6F6" fill-opacity="0.4" class="svgc_invert" filter="url(#filter_readability_theme_beauty)"></path>
                <path d="M195 867H133V872H195V867Z" fill="#F6F6F6" class="svgc_invert" filter="url(#filter_readability_theme_beauty)"></path>
                <path d="M288 867H273V872H288V867Z" fill="#F6F6F6" class="svgc_invert" filter="url(#filter_readability_theme_beauty)"></path>
                <path d="M279 918H133V920H279V918Z" fill="#F6F6F6" fill-opacity="0.4" class="svgc_invert" filter="url(#filter_readability_theme_beauty)"></path>
                <path d="M268 923H133V925H268V923Z" fill="#F6F6F6" fill-opacity="0.4" class="svgc_invert" filter="url(#filter_readability_theme_beauty)"></path>
                <path d="M259 928H133V930H259V928Z" fill="#F6F6F6" fill-opacity="0.4" class="svgc_invert" filter="url(#filter_readability_theme_beauty)"></path>
                <path d="M267 908H201V909H267V908Z" fill="#F6F6F6" fill-opacity="0.4" class="svgc_invert" filter="url(#filter_readability_theme_beauty)"></path>
                <path d="M195 906H133V911H195V906Z" fill="#F6F6F6" class="svgc_invert" filter="url(#filter_readability_theme_beauty)"></path>
                <path d="M288 906H273V911H288V906Z" fill="#F6F6F6" class="svgc_invert" filter="url(#filter_readability_theme_beauty)"></path>
                <rect x="133" y="806" width="119" height="8" fill="#F6F6F6" class="svgc_invert" filter="url(#filter_readability_theme_beauty)"></rect>
                <path d="M279 694H133V696H279V694Z" fill="#F6F6F6" fill-opacity="0.4" class="svgc_invert" filter="url(#filter_readability_theme_beauty)"></path>
                <path d="M268 699H133V701H268V699Z" fill="#F6F6F6" fill-opacity="0.4" class="svgc_invert" filter="url(#filter_readability_theme_beauty)"></path>
                <path d="M259 704H133V706H259V704Z" fill="#F6F6F6" fill-opacity="0.4" class="svgc_invert" filter="url(#filter_readability_theme_beauty)"></path>
                <path d="M267 684H201V685H267V684Z" fill="#F6F6F6" fill-opacity="0.4" class="svgc_invert" filter="url(#filter_readability_theme_beauty)"></path>
                <path d="M195 682H133V687H195V682Z" fill="#F6F6F6" class="svgc_invert" filter="url(#filter_readability_theme_beauty)"></path>
                <path d="M288 682H273V687H288V682Z" fill="#F6F6F6" class="svgc_invert" filter="url(#filter_readability_theme_beauty)"></path>
                <path d="M279 733H133V735H279V733Z" fill="#F6F6F6" fill-opacity="0.4" class="svgc_invert" filter="url(#filter_readability_theme_beauty)"></path>
                <path d="M268 738H133V740H268V738Z" fill="#F6F6F6" fill-opacity="0.4" class="svgc_invert" filter="url(#filter_readability_theme_beauty)"></path>
                <path d="M259 743H133V745H259V743Z" fill="#F6F6F6" fill-opacity="0.4" class="svgc_invert" filter="url(#filter_readability_theme_beauty)"></path>
                <path d="M267 723H201V724H267V723Z" fill="#F6F6F6" fill-opacity="0.4" class="svgc_invert" filter="url(#filter_readability_theme_beauty)"></path>
                <path d="M195 721H133V726H195V721Z" fill="#F6F6F6" class="svgc_invert" filter="url(#filter_readability_theme_beauty)"></path>
                <path d="M288 721H273V726H288V721Z" fill="#F6F6F6" class="svgc_invert" filter="url(#filter_readability_theme_beauty)"></path>
                <path d="M279 772H133V774H279V772Z" fill="#F6F6F6" fill-opacity="0.4" class="svgc_invert" filter="url(#filter_readability_theme_beauty)"></path>
                <path d="M268 777H133V779H268V777Z" fill="#F6F6F6" fill-opacity="0.4" class="svgc_invert" filter="url(#filter_readability_theme_beauty)"></path>
                <path d="M259 782H133V784H259V782Z" fill="#F6F6F6" fill-opacity="0.4" class="svgc_invert" filter="url(#filter_readability_theme_beauty)"></path>
                <path d="M267 762H201V763H267V762Z" fill="#F6F6F6" fill-opacity="0.4" class="svgc_invert" filter="url(#filter_readability_theme_beauty)"></path>
                <path d="M195 760H133V765H195V760Z" fill="#F6F6F6" class="svgc_invert" filter="url(#filter_readability_theme_beauty)"></path>
                <path d="M288 760H273V765H288V760Z" fill="#F6F6F6" class="svgc_invert" filter="url(#filter_readability_theme_beauty)"></path>
                <rect x="133" y="660" width="119" height="8" fill="#F6F6F6" class="svgc_invert" filter="url(#filter_readability_theme_beauty)"></rect>
            </g>
        </g>
        <g class="s_features_wall">
            <rect y="961" width="700" height="412" fill="#FFFFFF"></rect>
            <path d="M269 1052H70V1054H269V1052Z" fill="#FFFFFF" fill-opacity="0.4" class="svgc_invert" filter="url(#filter_readability_theme_beauty)"></path>
            <path d="M218 1064H70V1066H218V1064Z" fill="#FFFFFF" fill-opacity="0.4" class="svgc_invert" filter="url(#filter_readability_theme_beauty)"></path>
            <path d="M269 1058H70V1060H269V1058Z" fill="#FFFFFF" fill-opacity="0.4" class="svgc_invert" filter="url(#filter_readability_theme_beauty)"></path>
            <text transform="translate(92 1030)" text-anchor="Start" fill="#000000" font-size="25" font-family="Arial" font-weight="700"><tspan x="-22.471" y="0">Section Title</tspan></text>
            <g>
                <path d="M508 1128H408V1130H508V1128Z" fill="#FFFFFF" fill-opacity="0.4" class="svgc_invert" filter="url(#filter_readability_theme_beauty)"></path>
                <path d="M508 1134H408V1136H508V1134Z" fill="#FFFFFF" fill-opacity="0.4" class="svgc_invert" filter="url(#filter_readability_theme_beauty)"></path>
                <path d="M490 1140H408V1142H490V1140Z" fill="#FFFFFF" fill-opacity="0.4" class="svgc_invert" filter="url(#filter_readability_theme_beauty)"></path>
                <text transform="translate(464 1119)" text-anchor="Middle" fill="#000000" font-size="14" font-family="Arial" font-weight="700"><tspan x="-22.471" y="0">Entry Title</tspan></text>
                <rect x="408" y="991" width="105" height="105" rx="52.5" fill="url(#theme_beauty_library_image_16_id)" class="img_reference_library_image_16"></rect>
            </g>
            <g>
                <path d="M625 1219H525V1221H625V1219Z" fill="#FFFFFF" fill-opacity="0.4" class="svgc_invert" filter="url(#filter_readability_theme_beauty)"></path>
                <path d="M625 1225H525V1227H625V1225Z" fill="#FFFFFF" fill-opacity="0.4" class="svgc_invert" filter="url(#filter_readability_theme_beauty)"></path>
                <path d="M607 1231H525V1233H607V1231Z" fill="#FFFFFF" fill-opacity="0.4" class="svgc_invert" filter="url(#filter_readability_theme_beauty)"></path>
                <text transform="translate(582 1210)" text-anchor="Middle" fill="#000000" font-size="14" font-family="Arial" font-weight="700"><tspan x="-22.471" y="0">Entry Title</tspan></text>
                <rect x="525" y="1082" width="105" height="105" rx="52.5" fill="url(#theme_beauty_library_image_03_id)" class="img_reference_library_image_03"></rect>
            </g>
            <g>
                <path d="M508 1328H408V1330H508V1328Z" fill="#FFFFFF" fill-opacity="0.4" class="svgc_invert" filter="url(#filter_readability_theme_beauty)"></path>
                <path d="M508 1334H408V1336H508V1334Z" fill="#FFFFFF" fill-opacity="0.4" class="svgc_invert" filter="url(#filter_readability_theme_beauty)"></path>
                <path d="M490 1340H408V1342H490V1340Z" fill="#FFFFFF" fill-opacity="0.4" class="svgc_invert" filter="url(#filter_readability_theme_beauty)"></path>
                <text transform="translate(464 1319)" text-anchor="Middle" fill="#000000" font-size="14" font-family="Arial" font-weight="700"><tspan x="-22.471" y="0">Entry Title</tspan></text>
                <rect x="408" y="1191" width="105" height="105" rx="52.5" fill="url(#theme_beauty_library_image_13_id)" class="img_reference_library_image_13"></rect>
            </g>
            <path d="M700 1373L0 1351.5V1373H700Z" fill="#3AADAA"></path>
        </g>
        <g class="s_image_frame">
            <rect y="1373" width="700" height="253" fill="#3AADAA"></rect>
            <path d="M0 1626L700 1503V1626H0Z" fill="#383E45"></path>
            <rect x="120" y="1405" width="460" height="190" rx="4" fill="url(#theme_beauty_s_carousel_default_image_2_id)" class="img_reference_s_carousel_default_image_2"></rect>
            <rect x="350" y="1511" width="196" height="73" rx="4" fill="#FFFFFF"></rect>
            <path d="M531 1545H365V1547H531V1545Z" fill="#FFFFFF" fill-opacity="0.4" class="svgc_invert" filter="url(#filter_readability_theme_beauty)"></path>
            <path d="M531 1551H365V1553H531V1551Z" fill="#FFFFFF" fill-opacity="0.4" class="svgc_invert" filter="url(#filter_readability_theme_beauty)"></path>
            <path d="M501 1557H365V1559H501V1557Z" fill="#FFFFFF" fill-opacity="0.4" class="svgc_invert" filter="url(#filter_readability_theme_beauty)"></path>
            <text transform="translate(424 1536)" text-anchor="Middle" fill="#000000" font-size="15" font-family="Arial" font-weight="700"><tspan x="-22.471" y="0">Entry Title</tspan></text>
        </g>
        <g class="s_call_to_action">
            <rect y="1626" width="700" height="176" fill="#383E45"></rect>
            <path d="M455 1710H256V1712H455V1710Z" fill="#383E45" fill-opacity="0.4" class="svgc_invert" filter="url(#filter_readability_theme_beauty)"></path>
            <path d="M430 1716H282V1718H430V1716Z" fill="#383E45" fill-opacity="0.4" class="svgc_invert" filter="url(#filter_readability_theme_beauty)"></path>
            <text transform="translate(376 1694)" text-anchor="Middle" fill="#FFFFFF" font-size="24" font-family="Arial" font-weight="700"><tspan x="-22.471" y="0">Section Title</tspan></text>
            <path d="M389 1728H323C315.268 1728 309 1734.27 309 1742C309 1749.73 315.268 1756 323 1756H389C396.732 1756 403 1749.73 403 1742C403 1734.27 396.732 1728 389 1728Z" fill="#3AADAA"></path>
            <text transform="translate(378 1746)" text-anchor="Middle" fill="#FFFFFF" font-size="11" font-family="Arial" font-weight="700"><tspan x="-22.471" y="0">Contact</tspan></text>
        </g>
        <g class="svgc_footer">
            <path d="M700 1802H0V1902H700V1802Z" fill="#FOOTER_COLOR" class="svgc_footer_bg"></path>
            <path d="M630 1850H578V1852H630V1850Z" fill="#FOOTER_COLOR" class="svgc_invert" filter="url(#filter_readability_theme_beauty)"></path>
            <path d="M615 1844H578V1846H615V1844Z" fill="#FOOTER_COLOR" class="svgc_invert" filter="url(#filter_readability_theme_beauty)"></path>
            <path d="M234 1848H70V1850H234V1848Z" fill="#FOOTER_COLOR" fill-opacity="0.4" class="svgc_invert" filter="url(#filter_readability_theme_beauty)"></path>
            <path d="M234 1854H70V1856H234V1854Z" fill="#FOOTER_COLOR" fill-opacity="0.4" class="svgc_invert" filter="url(#filter_readability_theme_beauty)"></path>
            <path d="M234 1860H70V1862H234V1860Z" fill="#FOOTER_COLOR" fill-opacity="0.4" class="svgc_invert" filter="url(#filter_readability_theme_beauty)"></path>
            <path d="M234 1866H70V1868H234V1866Z" fill="#FOOTER_COLOR" fill-opacity="0.4" class="svgc_invert" filter="url(#filter_readability_theme_beauty)"></path>
            <path d="M234 1872H70V1874H234V1872Z" fill="#FOOTER_COLOR" fill-opacity="0.4" class="svgc_invert" filter="url(#filter_readability_theme_beauty)"></path>
            <path d="M327 1848H280V1850H327V1848Z" fill="#FOOTER_COLOR" fill-opacity="0.4" class="svgc_invert" filter="url(#filter_readability_theme_beauty)"></path>
            <path d="M375 1854H280V1856H375V1854Z" fill="#FOOTER_COLOR" fill-opacity="0.4" class="svgc_invert" filter="url(#filter_readability_theme_beauty)"></path>
            <path d="M388 1860H280V1862H388V1860Z" fill="#FOOTER_COLOR" fill-opacity="0.4" class="svgc_invert" filter="url(#filter_readability_theme_beauty)"></path>
            <path d="M415 1866H280V1868H415V1866Z" fill="#FOOTER_COLOR" fill-opacity="0.4" class="svgc_invert" filter="url(#filter_readability_theme_beauty)"></path>
            <path d="M388 1872H280V1874H388V1872Z" fill="#FOOTER_COLOR" fill-opacity="0.4" class="svgc_invert" filter="url(#filter_readability_theme_beauty)"></path>
            <path d="M623 1873C626.866 1873 630 1869.87 630 1866C630 1862.13 626.866 1859 623 1859C619.134 1859 616 1862.13 616 1866C616 1869.87 619.134 1873 623 1873Z" fill="#FOOTER_COLOR" class="svgc_invert" filter="url(#filter_readability_theme_beauty)"></path>
            <path d="M604 1873C607.866 1873 611 1869.87 611 1866C611 1862.13 607.866 1859 604 1859C600.134 1859 597 1862.13 597 1866C597 1869.87 600.134 1873 604 1873Z" fill="#FOOTER_COLOR" class="svgc_invert" filter="url(#filter_readability_theme_beauty)"></path>
            <path d="M585 1873C588.866 1873 592 1869.87 592 1866C592 1862.13 588.866 1859 585 1859C581.134 1859 578 1862.13 578 1866C578 1869.87 581.134 1873 585 1873Z" fill="#FOOTER_COLOR" class="svgc_invert" filter="url(#filter_readability_theme_beauty)"></path>
            <path d="M139 1825H70V1835H139V1825Z" fill="#FOOTER_COLOR" class="svgc_invert" filter="url(#filter_readability_theme_beauty)"></path>
        </g>
        <path d="M0 1356L700 1373L0 1379V1356Z" fill="#3AADAA"></path>
        <path d="M700 1645L1.66103e-06 1626L700 1615L700 1645Z" fill="#383E45"></path>
        <rect width="700" height="10" y="524" fill="#FFFFFF"></rect>
        <rect width="700" height="10" y="956" fill="#FFFFFF"></rect>

    </g>
    <defs>
        <clipPath id="clip0_287_2">
            <rect width="700" height="1902" fill="#FFFFFF"></rect>
        </clipPath>
    </defs>
</svg>
