<svg xmlns="http://www.w3.org/2000/svg" width="700" height="1850" viewBox="0 0 700 1850">
    <defs>
        <!-- Font -->
        <style type="text/css">
            @import url('https://fonts.googleapis.com/css2?family=Garamond:wght@700&amp;display=swap');
        </style>
        <pattern width="1" height="1" id="theme_orchid_s_cover_default_image_id" patternunits="objectBoundingBox">
            <image width="700" height="310" preserveAspectRatio="xMidYMid slice" href="#s_cover_default_image_url"/>
        </pattern>
        <pattern width="1" height="1" id="theme_orchid_s_image_text_default_image_id" patternunits="objectBoundingBox">
            <image width="267" height="185" preserveAspectRatio="xMidYMid slice"  href="#s_image_text_default_image_url"/>
        </pattern>
        <pattern width="1" height="1" id="theme_orchid_s_text_image_default_image_id" patternunits="objectBoundingBox">
            <image width="298" height="203" preserveAspectRatio="xMidYMid slice"  href="#s_text_image_default_image_url"/>
        </pattern>
        <pattern width="1" height="1" id="theme_orchid_s_three_columns_default_image_1_id" patternunits="objectBoundingBox">
            <image width="164" height="177.823974609375" preserveAspectRatio="xMidYMid slice"  href="#s_three_columns_default_image_1_url"/>
        </pattern>
        <pattern width="1" height="1" id="theme_orchid_s_three_columns_default_image_2_id" patternunits="objectBoundingBox">
            <image width="164" height="177.823974609375" preserveAspectRatio="xMidYMid slice"  href="#s_three_columns_default_image_2_url"/>
        </pattern>
        <pattern width="1" height="1" id="theme_orchid_s_three_columns_default_image_3_id" patternunits="objectBoundingBox">
            <image width="164" height="177.823974609375" preserveAspectRatio="xMidYMid slice"  href="#s_three_columns_default_image_3_url"/>
        </pattern>
        <pattern id="theme_orchid_s_quotes_carousel_demo_image_3" preserveAspectRatio="xMidYMid slice" width="100%" height="100%" viewBox="0 0 128 128">
            <image width="128" height="128" href="/web/image/website.s_quotes_carousel_demo_image_3"/>
        </pattern>
        <filter id="filter_readability_orchid">
            <feColorMatrix in="SourceGraphic" type="saturate" values="0"/>
            <feComponentTransfer>
                <feFuncR type="table" tableValues="1 0"/>
                <feFuncG type="table" tableValues="1 0"/>
                <feFuncB type="table" tableValues="1 0"/>
            </feComponentTransfer>
            <feComponentTransfer>
                <feFuncR type="linear" slope="10000" intercept="-4999.5"/>
                <feFuncG type="linear" slope="10000" intercept="-4999.5"/>
                <feFuncB type="linear" slope="10000" intercept="-4999.5"/>
            </feComponentTransfer>
        </filter>
    </defs>
    <g fill="none" fill-rule="evenodd" class="theme_orchid">
        <rect width="700" height="1850" fill="#FFFFFF"/>
        <g class="svgc_menu">
            <rect width="700" height="37" class="svgc_menu_bg" fill="#MENU_COLOR"/>
            <path class="svgc_text" opacity="1" fill="#MENU_COLOR" filter="url(#filter_readability_orchid)" fill-rule="nonzero" d="M76.345 23v-1.521h-3.741v-7.206h-1.845V23h5.586zm4.68.12c.77 0 1.463-.176 2.08-.527.619-.35 1.107-.86 1.467-1.528.36-.667.539-1.477.539-2.429 0-.951-.18-1.761-.54-2.429-.359-.667-.847-1.176-1.465-1.527-.618-.351-1.312-.527-2.082-.527-.775 0-1.471.176-2.088.527-.616.35-1.104.86-1.461 1.527-.358.668-.537 1.478-.537 2.43 0 .948.179 1.756.537 2.424a3.753 3.753 0 0 0 1.461 1.53c.617.352 1.313.528 2.088.528zm0-1.633a2.08 2.08 0 0 1-1.168-.328c-.333-.219-.59-.54-.774-.963-.183-.423-.275-.943-.275-1.56 0-.616.092-1.136.275-1.56.183-.423.441-.744.774-.962a2.075 2.075 0 0 1 1.167-.328c.446 0 .835.109 1.168.328.332.218.59.54.773.963.184.423.275.943.275 1.56 0 .616-.091 1.136-.275 1.559-.183.423-.44.744-.773.963a2.075 2.075 0 0 1-1.168.328zm9.277 1.632c.733 0 1.384-.148 1.952-.445a3.292 3.292 0 0 0 1.338-1.27c.324-.55.486-1.208.486-1.975v-1.1h-3.652v1.39h1.872l-.004.126c-.017.237-.07.452-.157.645l-.073.14a1.591 1.591 0 0 1-.682.633c-.296.15-.654.224-1.071.224-.46 0-.86-.111-1.198-.334-.338-.223-.6-.548-.784-.974-.184-.426-.277-.943-.277-1.551s.094-1.123.281-1.545c.188-.422.45-.744.787-.965a2.086 2.086 0 0 1 1.174-.332c.238 0 .456.03.654.089.197.06.373.146.528.258.155.112.286.248.394.409.108.16.192.344.252.552h1.875a3.19 3.19 0 0 0-.405-1.187 3.27 3.27 0 0 0-.812-.931 3.741 3.741 0 0 0-1.135-.607 4.3 4.3 0 0 0-1.381-.216 4.21 4.21 0 0 0-1.607.303 3.756 3.756 0 0 0-1.3.882 4.021 4.021 0 0 0-.867 1.413c-.206.555-.309 1.186-.309 1.894 0 .92.173 1.715.518 2.384a3.725 3.725 0 0 0 1.447 1.547c.62.362 1.338.543 2.156.543zm8.958 0c.77 0 1.463-.175 2.081-.526.618-.35 1.107-.86 1.466-1.528.36-.667.54-1.477.54-2.429 0-.951-.18-1.761-.54-2.429-.36-.667-.848-1.176-1.466-1.527s-1.311-.527-2.081-.527c-.776 0-1.472.176-2.088.527-.617.35-1.104.86-1.462 1.527-.358.668-.537 1.478-.537 2.43 0 .948.179 1.756.537 2.424.358.668.845 1.178 1.462 1.53.616.352 1.312.528 2.088.528zm0-1.632c-.446 0-.836-.11-1.168-.328-.332-.219-.59-.54-.773-.963-.184-.423-.275-.943-.275-1.56 0-.616.091-1.136.275-1.56.183-.423.44-.744.773-.962a2.075 2.075 0 0 1 1.168-.328c.446 0 .835.109 1.167.328.333.218.59.54.774.963.183.423.275.943.275 1.56 0 .616-.092 1.136-.275 1.559-.184.423-.441.744-.774.963a2.075 2.075 0 0 1-1.167.328z"/>
            <g opacity=".6" transform="translate(145 15)">
                <rect width="37" height="7" fill="#MENU_COLOR" class="svgc_text" filter="url(#filter_readability_orchid)"/>
                <rect width="37" height="7" x="58" fill="#MENU_COLOR" class="svgc_text" filter="url(#filter_readability_orchid)"/>
                <rect width="37" height="7" x="116" fill="#MENU_COLOR" class="svgc_text" filter="url(#filter_readability_orchid)"/>
                <rect width="37" height="7" x="174" fill="#MENU_COLOR" class="svgc_text" filter="url(#filter_readability_orchid)"/>
            </g>
            <rect width="37" height="7" x="593" y="15" fill="#MENU_COLOR" opacity="1" class="svgc_text" filter="url(#filter_readability_orchid)"/>
        </g>
        <g class="s_cover" transform="translate(0 37)">
            <rect fill="url(#theme_orchid_s_cover_default_image_id)" class="img_reference_s_cover_default_image" width="700" height="310"/>
            <rect fill="#000000" opacity="0.25" width="700" height="310" transform="translate(0 0.5)"/>
            <text transform="translate(350 163)" text-anchor="middle" font-size="34" font-family="Garamond" font-weight="700" fill="#FFFFFF" filter="url(#filter_readability_odoo_experts)" class="">
                <tspan x="0" y="0">Welcome Message</tspan>
            </text>
            <g transform="translate(0 322.5)">
                <path d="M700-59.921c-132,18.235-245.85,28-397.1-8.28C146.15-105.843,38.75-78.371,0-59.921V0L700-.024v-59.9Z" fill="#F6F6F6" opacity="0.2"/>
                <path d="M700-59.983c-93.5,20.745-156.85,25.632-310.05-5.869C274.1-89.687,145.05-92.322,0-59.982V0L700-.024V-59.983Z" fill="#F6F6F6" opacity="0.25"/>
                <path d="M700-59.828C550.45-39.854,473.45-42.936,349.45-68.1,191.85-100.135,47.1-76.6,0-59.828V0L700-.024Z" fill="#F6F6F6" opacity="0.31"/>
                <path d="M700-59.646c-104.4,31.252-260.25,23.534-414.95-6.67C169.7-88.8,34.6-74.486,0-59.646V0L700-.024Z" fill="#F6F6F6"/>
            </g>
        </g>
        <g class="s_image_text" transform="translate(70 370)">
            <rect width="700" height="211" fill="#F6F6F6" transform="translate(-70 -20)"/>
            <g transform="translate(-70 -1023.651)">
                <path d="M0,1138.38c144.5-61.246,177.3-53.383,370.95,0,175.8,48.457,259.45,32.4,329.05,0V1239.6l-700,.047Z" transform="translate(0 0)" fill="#3AADAA" opacity="0.2"/>
                <path d="M0,1113.289c120.5-69.474,245.85-16.132,336.35,24.173,125.5,55.889,265.6,61.483,363.65-4.595v106.783H0Z" fill="#3AADAA" opacity="0.5"/>
                <path d="M0,1143.71c75.65-43.483,161.1-51.964,326.05,9.648,103.6,38.681,313.2,35.54,373.95-9.648v95.9h0l-700,.045Z" fill="#3AADAA" opacity="0.5"/>
                <path d="M0,1154.381c196.15-65.022,262.7,40.244,517.75,42.043,129.3.919,181.85-41.963,182.25-42.043v85.4l-700,.04Z" transform="translate(0 -0.175)" fill="#3AADAA"/>
            </g>
            <g transform="translate(326.63 51)">
                <text transform="translate(0 16)" text-anchor="start" font-size="24" font-family="Garamond" font-weight="700" fill="#3AADAA" filter="url(#filter_readability_odoo_experts)" class="">
                    <tspan x="0" y="0">Section Title</tspan>
                </text>
                <g opacity="0.4">
                    <rect width="131" height="2" transform="translate(1.575 32.025)" fill="#212529"/>
                    <rect width="116" height="2" transform="translate(1.575 37.025)" fill="#212529"/>
                    <rect width="79" height="2" transform="translate(1.575 42.025)" fill="#212529"/>
                    <rect width="91" height="2" transform="translate(1.575 47.025)" fill="#212529"/>
                </g>
                <path d="M2,0H92a2,2,0,0,1,2,2V26a2,2,0,0,1-2,2H2a2,2,0,0,1-2-2V2A2,2,0,0,1,2,0Z" transform="translate(1.725 71.225)" fill="#3AADAA"/>
                <text transform="translate(48 90)" text-anchor="middle" font-size="12" font-family="Garamond" font-weight="700" fill="#FFFFFF" filter="url(#filter_readability_odoo_experts)" class="">
                    <tspan x="0" y="0">Discover</tspan>
                </text>
            </g>
            <g transform="translate(1.999 1.875)">
                <path fill="url(#theme_orchid_s_image_text_default_image_id)" class="img_reference_s_image_text_default_image" d="M257.389,65.624c22.666,24.641,35.021,47.993,26.784,68.094-8.237,19.447-38.1,35.028-73.124,47.993-35.021,12.331-76.205,22.044-113.3,14.927-37.1-7.137-70.042-30.468-76.205-55.784-7.2-25.295,13.392-52.553,42.251-77.827C92.653,37.732,129.719,14.38,165.777,15.034,199.7,15.668,233.686,40.963,257.389,65.624Z" transform="translate(-13.915 -11.22)"/>
                <path d="M26.961,60.925a.971.971,0,0,1-1.006.925A.956.956,0,0,1,25,60.925,1,1,0,0,1,26.006,60,.926.926,0,0,1,26.961,60.925Zm9.5-.925a.928.928,0,1,0,1.006.925A1,1,0,0,0,36.463,60ZM46.92,60a.928.928,0,1,0,1.005.925A1,1,0,0,0,46.92,60Zm10.457,0a.928.928,0,1,0,1.006.925A1,1,0,0,0,57.377,60ZM26.006,69.623a.928.928,0,1,0,1.006.925A1.042,1.042,0,0,0,26.006,69.623Zm10.457,0a.928.928,0,1,0,1.006.925A1.042,1.042,0,0,0,36.463,69.623Zm10.457,0a.928.928,0,1,0,1.005.925A1.041,1.041,0,0,0,46.92,69.623Zm10.457,0a.928.928,0,1,0,1.006.925A1.042,1.042,0,0,0,57.377,69.623ZM26.006,79.246a.928.928,0,1,0,1.006.925A1.042,1.042,0,0,0,26.006,79.246Zm10.457,0a.928.928,0,1,0,1.006.925A1.041,1.041,0,0,0,36.463,79.246Zm10.457,0a.928.928,0,1,0,1.005.925A1.041,1.041,0,0,0,46.92,79.246Zm10.457,0a.928.928,0,1,0,1.006.925A1.042,1.042,0,0,0,57.377,79.246ZM26.006,88.869a.928.928,0,1,0,1.006.925A1,1,0,0,0,26.006,88.869Zm10.457,0a.928.928,0,1,0,1.006.925A1,1,0,0,0,36.463,88.869Zm10.457,0a.928.928,0,1,0,1.005.925A1,1,0,0,0,46.92,88.869Zm10.457,0a.928.928,0,1,0,1.006.925A1,1,0,0,0,57.377,88.869Z" transform="translate(-17 -40.87)" fill="#383E45"/>
                <rect width="46.998" height="43.211" transform="translate(208.735 134.665)" fill="none" stroke="#7C6576" stroke-miterlimit="180" stroke-width="4" opacity="0.8"/>
                <path d="M133.332,379.077H80V330Z" transform="translate(-51.63 -218.851)" fill="#7C6576" opacity="0.66"/>
            </g>
        </g>
        <g class="s_text_image" transform="translate(68 672.058)">
            <g transform="translate(230.969 -22.686)">
                <path d="M256.828,76.209c41.639,30.714,82.122,66.154,72.869,93.718s-69.4,46.465-121.449,54.341c-52.049,8.663-94.845,6.3-131.858-5.513S9.3,185.678,4.678,162.052C.051,139.213,20.871,114.8,46.317,86.447s55.519-60.641,92.532-63.791C173.549,19.506,215.189,45.5,256.828,76.209Z" fill="#7C6576" opacity="0.33"/>
                <path d="M256.828,76.209c41.639,30.714,82.122,66.154,72.869,93.718s-69.4,46.465-121.449,54.341c-52.049,8.663-94.845,6.3-131.858-5.513S9.3,185.678,4.678,162.052C.051,139.213,20.871,114.8,46.317,86.447s55.519-60.641,92.532-63.791C173.549,19.506,215.189,45.5,256.828,76.209Z" fill="#7C6576" opacity="0.33"/>
                <path d="M256.828,76.209c41.639,30.714,82.122,66.154,72.869,93.718s-69.4,46.465-121.449,54.341c-52.049,8.663-94.845,6.3-131.858-5.513S9.3,185.678,4.678,162.052C.051,139.213,20.871,114.8,46.317,86.447s55.519-60.641,92.532-63.791C173.549,19.506,215.189,45.5,256.828,76.209Z" fill="#7C6576" opacity="0.33"/>
                <path fill="url(#theme_orchid_s_text_image_default_image_id)" class="img_reference_s_text_image_default_image" d="M270.024,82.678c37.891,30.054,74.724,64.746,66.293,91.694-8.431,26.97-63.152,45.475-110.533,53.175-47.381,8.465-86.3,6.168-119.989-5.381S44.727,189.816,40.528,166.7c-4.2-22.355,14.747-46.241,37.891-73.976S128.94,33.4,162.633,30.291C194.242,27.184,232.1,52.624,270.024,82.678Z" transform="translate(-21.069 -4.771)"/>
            </g>
            <g transform="translate(-12 -13)">
                <rect width="186" height="207" transform="translate(200 219.942) rotate(180)" fill="#383E45"/>
                <text transform="translate(36 88)" text-anchor="start" font-size="24" font-family="Garamond" font-weight="700" fill="#FFFFFF" filter="url(#filter_readability_odoo_experts)" class="">
                    <tspan x="0" y="0">Section Title</tspan>
                </text>
                <g opacity="0.4">
                    <rect width="131" height="2" transform="translate(42.205 103.319)" fill="#FFFFFF"/>
                    <rect width="116" height="2" transform="translate(42.205 108.319)" fill="#FFFFFF"/>
                    <rect width="79" height="2" transform="translate(42.205 113.319)" fill="#FFFFFF"/>
                    <rect width="91" height="2" transform="translate(42.205 118.319)" fill="#FFFFFF"/>
                </g>
                <rect width="94" height="28" rx="2" transform="translate(39.355 132.167)" fill="#3AADAA"/>
                <text transform="translate(85 151)" text-anchor="middle" font-size="12" font-family="Garamond" font-weight="700" fill="#FFFFFF" filter="url(#filter_readability_odoo_experts)" class="">
                    <tspan x="0" y="0">Discover</tspan>
                </text>
            </g>
            <path d="M700,62.1C558.3,132.3,420.15,8.85,167-4,79.2-8.45.45,14.45,0,14.6V-10H700Z" transform="translate(-68 -77.058)" fill="#3AADAA"/>
        </g>
        <g class="s_quotes_carousel" transform="translate(0 1259.014)">
            <rect width="700" height="343" transform="translate(0 -8.014)" fill="#3AADAA"/>
            <path d="M700,1261.813l-87.9-59.21a206.667,206.667,0,0,0-214.9-9.843c-85.4,46.968-161.75,67.654-212.8,15.19a38.872,38.872,0,0,0-24.2-11.492l-18.65-1.749a49.7,49.7,0,0,1-36.6-21.685c-20.5-30.38-47.55-60.409-104.95-45.07v133.859Z" transform="translate(0 -926.827)" fill="#7C6576"/>
            <g transform="translate(246 97.71)">
                <rect width="156" height="125" x="25" fill="#F9F9F9"/>
                <g fill="#212529" opacity="0.4" transform="translate(36 10)">
                    <g>
                        <rect width="109" height="2"/>
                        <rect width="96.519" height="2" y="5"/>
                        <rect width="65.733" height="2" y="10"/>
                        <rect width="75.718" height="2" y="15"/>
                    </g>
                </g>
                <g fill="#212529" opacity="0.4" transform="translate(36 32)">
                    <g>
                        <rect width="132" height="2"/>
                        <rect width="116.885" height="2" y="5"/>
                        <rect width="79.603" height="2" y="10"/>
                        <rect width="91.695" height="2" y="15"/>
                    </g>
                </g>
                <rect width="25" height="22" fill="#7C6576"/>
                <path fill="#FFFFFF" fill-rule="nonzero" d="M16.261 15c.76 0 1.407-.254 1.94-.763.533-.51.799-1.098.799-1.767 0-.639-.232-1.19-.697-1.654-.464-.464-.997-.696-1.599-.696-.517 0-.944.115-1.282.344-.105.07-.185.105-.237.105-.053 0-.1-.03-.143-.09-.063-.09-.095-.23-.095-.42 0-.877.312-1.723.934-2.537.623-.813 1.483-1.41 2.58-1.788V5c-1.888.649-3.271 1.507-4.147 2.575C13.438 8.643 13 9.85 13 11.198c0 1.157.322 2.08.966 2.77.643.688 1.409 1.032 2.295 1.032zm-7 0c.76 0 1.407-.254 1.94-.763.533-.51.799-1.098.799-1.767 0-.639-.232-1.19-.697-1.654-.464-.464-.997-.696-1.599-.696-.517 0-.944.115-1.282.344-.105.07-.185.105-.237.105-.053 0-.1-.03-.143-.09-.063-.09-.095-.23-.095-.42 0-.877.312-1.723.934-2.537.623-.813 1.483-1.41 2.58-1.788V5c-1.888.649-3.271 1.507-4.147 2.575C6.438 8.643 6 9.85 6 11.198c0 1.157.322 2.08.966 2.77C7.609 14.655 8.375 15 9.26 15z"/>
                <circle cx="47" cy="98" r="11" fill="url(#theme_orchid_s_quotes_carousel_demo_image_3)"/>
                <g fill="#212529" opacity="0.4" transform="translate(64 88)">
                    <g>
                        <rect width="50" height="2"/>
                        <rect width="44.275" height="2" y="5"/>
                        <rect width="30.153" height="2" y="10"/>
                        <rect width="34.733" height="2" y="15"/>
                    </g>
                </g>
            </g>
            <g transform="translate(0 39)">
                <path d="M3.874,16.465H0V0H16.465V3.874H3.874v12.59Z" transform="translate(56.615 124.629) rotate(-45)" fill="#3AADAA" class="svgc_text" filter="url(#filter_readability_orchid)"/>
                <path d="M3.874,16.465H0V0H16.465V3.874H3.874v12.59Z" transform="translate(644.285 124.629) rotate(135)" fill="#3AADAA" class="svgc_text" filter="url(#filter_readability_orchid)"/>
            </g>
            <g transform="translate(10 12)">
                <rect width="20" height="6" rx="2" transform="translate(303 297)" fill="#7C6576" opacity="0.5" class="svgc_text" filter="url(#filter_readability_orchid)"/>
                <rect width="20" height="6" rx="2" transform="translate(330 297)" fill="#7C6576" class="svgc_text" filter="url(#filter_readability_orchid)"/>
                <rect width="20" height="6" rx="2" transform="translate(357 297)" fill="#7C6576" opacity="0.5" class="svgc_text" filter="url(#filter_readability_orchid)"/>
            </g>
        </g>
        <g class="s_three_columns">
            <g transform="translate(70 999.858)">
                <path d="M700,43.088c-144.5-61.32-177.3-53.447-370.95,0C153.25,91.6,69.6,75.527,0,43.088V144.435l700,.047Z" transform="translate(-70 119.661)" fill="#3AADAA" opacity="0.2"/>
                <path d="M700,33.675c-120.5-69.55-245.85-16.15-336.35,24.2-125.5,55.95-265.6,61.55-363.65-4.6v106.9H700Z" transform="translate(-70 103.968)" fill="#3AADAA" opacity="0.5"/>
                <path d="M700,34.634C624.35-8.907,538.9-17.4,373.95,44.295,270.35,83.028,60.75,79.883,0,34.634v96.024H0l700,.045Z" transform="translate(-70 133.439)" fill="#3AADAA" opacity="0.5"/>
                <path d="M700,21.181C503.85-43.841,437.3,61.425,182.25,63.224,52.95,64.143.4,21.261,0,21.181v85.4l700,.04Z" transform="translate(-70 157.518)" fill="#3AADAA"/>
            </g>
            <g>
                <rect width="164" height="262.394" transform="translate(466 1001.606)" fill="#FBFBFB"/>
                <text transform="translate(485 1206)" text-anchor="start" font-size="14" font-family="Garamond" font-weight="400" fill="#000000" filter="url(#filter_readability_odoo_experts)" class="">
                    <tspan x="0" y="0">Entry Title</tspan>
                </text>
                <g transform="translate(486 1219.176)" opacity="0.4">
                    <rect width="131" height="2" fill="#212529"/>
                    <rect width="116" height="2" transform="translate(0 5)" fill="#212529"/>
                    <rect width="79" height="2" transform="translate(0 10)" fill="#212529"/>
                    <rect width="91" height="2" transform="translate(0 15)" fill="#212529"/>
                </g>
                <g>
                    <rect width="147" height="121" transform="translate(466 1001)" fill="#7C6576"/>
                    <path fill="url(#theme_orchid_s_three_columns_default_image_3_id)" class="img_reference_s_three_columns_default_image_3" d="M211.92,181.448,59.92,216V57h152Z" transform="translate(418.08 960)"/>
                    <g>
                        <rect width="0.887" height="0.887" transform="translate(604.709 1148.619)" fill="#3AADAA"/>
                        <rect width="0.887" height="0.887" transform="translate(599.284 1148.619)" fill="#3AADAA"/>
                        <rect width="0.887" height="0.887" transform="translate(593.858 1148.619)" fill="#3AADAA"/>
                        <rect width="0.887" height="0.887" transform="translate(588.433 1148.619)" fill="#3AADAA"/>
                        <rect width="0.887" height="0.887" transform="translate(604.704 1153.542)" fill="#3AADAA"/>
                        <rect width="0.887" height="0.887" transform="translate(599.28 1153.542)" fill="#3AADAA"/>
                        <rect width="0.887" height="0.887" transform="translate(593.857 1153.542)" fill="#3AADAA"/>
                        <rect width="0.887" height="0.887" transform="translate(588.433 1153.542)" fill="#3AADAA"/>
                        <rect width="0.887" height="0.887" transform="translate(604.71 1158.243)" fill="#3AADAA"/>
                        <rect width="0.887" height="0.887" transform="translate(599.286 1158.243)" fill="#3AADAA"/>
                        <rect width="0.887" height="0.887" transform="translate(593.862 1158.243)" fill="#3AADAA"/>
                        <rect width="0.887" height="0.887" transform="translate(588.438 1158.243)" fill="#3AADAA"/>
                    </g>
                </g>
            </g>
            <g>
                <rect width="164" height="262.394" transform="translate(268 1001.606)" fill="#FBFBFB"/>
                <g transform="translate(287 1221)" opacity="0.4">
                    <rect width="101" height="2" fill="#212529"/>
                    <rect width="89.435" height="2" transform="translate(0 5)" fill="#212529"/>
                    <rect width="60.908" height="2" transform="translate(0 10)" fill="#212529"/>
                    <rect width="70.16" height="2" transform="translate(0 15)" fill="#212529"/>
                </g>
                <g transform="translate(268 1000)">
                    <path d="M80,0H227V138.682Z" transform="translate(-63 1.602)" fill="#3AADAA"/>
                    <path fill="url(#theme_orchid_s_three_columns_default_image_2_id)" class="img_reference_s_three_columns_default_image_2" d="M0,58.5H155V216.138L0,181.882Z" transform="translate(0 -39.937)"/>
                    <g>
                        <path d="M46.8,434.55h.64l-.32.652-.32.652-.32-.652-.32-.652Z" transform="translate(-32.112 -292.197)" fill="#383E45"/>
                        <path d="M96.28,434.55h.64l-.32.652-.32.652-.32-.652-.32-.652Z" transform="translate(-74.333 -292.197)" fill="#383E45"/>
                        <path d="M145.762,434.55h.64l-.32.652-.32.652-.32-.652-.32-.652Z" transform="translate(-116.554 -292.197)" fill="#383E45"/>
                        <path d="M46.8,476.24h.64l-.32.652-.32.652-.32-.652-.32-.652Z" transform="translate(-32.112 -326.66)" fill="#383E45"/>
                        <path d="M96.28,476.24h.64l-.32.652-.32.652-.32-.652-.32-.652Z" transform="translate(-74.333 -326.66)" fill="#383E45"/>
                        <path d="M145.762,476.24h.64l-.32.652-.32.652-.32-.652-.32-.652Z" transform="translate(-116.554 -326.66)" fill="#383E45"/>
                        <path d="M46.8,517.929h.64l-.32.652-.32.661-.32-.661-.32-.652Z" transform="translate(-32.112 -361.122)" fill="#383E45"/>
                        <path d="M96.28,517.929h.64l-.32.652-.32.661-.32-.661-.32-.652Z" transform="translate(-74.333 -361.122)" fill="#383E45"/>
                        <path d="M145.762,517.929h.64l-.32.652-.32.661-.32-.661-.32-.652Z" transform="translate(-116.554 -361.122)" fill="#383E45"/>
                    </g>
                </g>
                <text transform="translate(286 1206)" text-anchor="start" font-size="14" font-family="Garamond" font-weight="400" fill="#000000" filter="url(#filter_readability_odoo_experts)" class="">
                    <tspan x="0" y="0">Entry Title</tspan>
                </text>
            </g>
            <g>
                <rect width="164" height="262.394" transform="translate(70 1001.606)" fill="#FBFBFB"/>
                <text transform="translate(83 1206)" text-anchor="start" font-size="14" font-family="Garamond" font-weight="400" fill="#000000" filter="url(#filter_readability_odoo_experts)" class="">
                    <tspan x="0" y="0">Entry Title</tspan>
                </text>
                <g transform="translate(71 1001.606)">
                    <rect width="146" height="116.366" transform="translate(12 54.702)" fill="#7C6576"/>
                    <path fill="url(#theme_orchid_s_three_columns_default_image_1_id)" class="img_reference_s_three_columns_default_image_1" d="M144.826,152.083H0V0L144.826,32.993Z" transform="translate(0.406 0.596)"/>
                    <g>
                        <rect width="1.182" height="1.172" transform="translate(107.382 7.031)" fill="#3AADAA"/>
                        <rect width="1.182" height="1.172" transform="translate(107.382 14.198)" fill="#3AADAA"/>
                        <rect width="1.182" height="1.172" transform="translate(107.382 21.364)" fill="#3AADAA"/>
                        <rect width="1.182" height="1.172" transform="translate(107.382 28.531)" fill="#3AADAA"/>
                        <rect width="1.182" height="1.172" transform="translate(107.382 35.697)" fill="#3AADAA"/>
                        <rect width="1.182" height="1.172" transform="translate(113.652 7.031)" fill="#3AADAA"/>
                        <rect width="1.182" height="1.172" transform="translate(113.652 14.198)" fill="#3AADAA"/>
                        <rect width="1.182" height="1.172" transform="translate(113.652 21.364)" fill="#3AADAA"/>
                        <rect width="1.182" height="1.172" transform="translate(113.652 28.531)" fill="#3AADAA"/>
                        <rect width="1.182" height="1.172" transform="translate(113.652 35.697)" fill="#3AADAA"/>
                        <rect width="1.182" height="1.172" transform="translate(119.922 7.031)" fill="#3AADAA"/>
                        <rect width="1.182" height="1.172" transform="translate(119.922 14.198)" fill="#3AADAA"/>
                        <rect width="1.182" height="1.172" transform="translate(119.922 21.364)" fill="#3AADAA"/>
                        <rect width="1.182" height="1.172" transform="translate(119.922 28.531)" fill="#3AADAA"/>
                        <rect width="1.182" height="1.172" transform="translate(119.922 35.697)" fill="#3AADAA"/>
                        <rect width="1.182" height="1.172" transform="translate(126.199 7.031)" fill="#3AADAA"/>
                        <rect width="1.182" height="1.172" transform="translate(126.199 14.198)" fill="#3AADAA"/>
                        <rect width="1.182" height="1.172" transform="translate(126.199 21.364)" fill="#3AADAA"/>
                        <rect width="1.182" height="1.172" transform="translate(126.199 28.531)" fill="#3AADAA"/>
                        <rect width="1.182" height="1.172" transform="translate(126.199 35.697)" fill="#3AADAA"/>
                    </g>
                </g>
                <g transform="translate(84 1221)" opacity="0.4">
                    <rect width="84" height="2" fill="#212529"/>
                    <rect width="74.382" height="2" transform="translate(0 5)" fill="#212529"/>
                    <rect width="50.656" height="2" transform="translate(0 10)" fill="#212529"/>
                    <rect width="58.351" height="2" transform="translate(0 15)" fill="#212529"/>
                </g>
            </g>
        </g>
        <g class="s_call_to_action" transform="translate(0 1593.992)">
            <rect width="700" height="120" transform="translate(0 -2)" fill="#7C6576"/>
            <rect width="93" height="28" rx="2" transform="translate(537 43)" fill="#3AADAA"/>
            <text transform="translate(583 61)" text-anchor="middle" font-size="13" font-family="Garamond" font-weight="700" fill="#FFFFFF" filter="url(#filter_readability_odoo_experts)" class="">
                <tspan x="0" y="0">Discover</tspan>
            </text>
            <text transform="translate(68 64)" text-anchor="start" font-size="24" font-family="Garamond" font-weight="700" fill="#FFFFFF" filter="url(#filter_readability_odoo_experts)" class="">
                <tspan x="0" y="0">Section Title</tspan>
            </text>
        </g>
        <g class="svgc_footer" transform="translate(0 1712)">
            <rect width="700" height="138" class="svgc_footer_bg" fill="#FOOTER_COLOR" />
            <g transform="translate(-69 -23)">
                <circle cx="7.5" cy="7.5" r="7.5" transform="translate(559 100)" fill="#FOOTER_COLOR" class="svgc_text" filter="url(#filter_readability_orchid)"/>
                <circle cx="7.5" cy="7.5" r="7.5" transform="translate(587 100)" fill="#FOOTER_COLOR" class="svgc_text" filter="url(#filter_readability_orchid)"/>
                <circle cx="7.5" cy="7.5" r="7.5" transform="translate(615 100)" fill="#FOOTER_COLOR" class="svgc_text" filter="url(#filter_readability_orchid)"/>
            </g>
            <g transform="translate(70 60)" opacity="0.4">
                <g>
                    <rect width="131" height="2" fill="#FOOTER_COLOR" class="svgc_text" filter="url(#filter_readability_orchid)"/>
                    <rect width="116" height="2" transform="translate(0 5)" fill="#FOOTER_COLOR" class="svgc_text" filter="url(#filter_readability_orchid)"/>
                    <rect width="79" height="2" transform="translate(0 10)" fill="#FOOTER_COLOR" class="svgc_text" filter="url(#filter_readability_orchid)"/>
                    <rect width="91" height="2" transform="translate(0 15)" fill="#FOOTER_COLOR" class="svgc_text" filter="url(#filter_readability_orchid)"/>
                </g>
            </g>
            <g transform="translate(263 60)" opacity="0.4">
                <g>
                    <rect width="131" height="2" fill="#FOOTER_COLOR" class="svgc_text" filter="url(#filter_readability_orchid)"/>
                    <rect width="116" height="2" transform="translate(0 5)" fill="#FOOTER_COLOR" class="svgc_text" filter="url(#filter_readability_orchid)"/>
                    <rect width="79" height="2" transform="translate(0 10)" fill="#FOOTER_COLOR" class="svgc_text" filter="url(#filter_readability_orchid)"/>
                    <rect width="91" height="2" transform="translate(0 15)" fill="#FOOTER_COLOR" class="svgc_text" filter="url(#filter_readability_orchid)"/>
                </g>
            </g>
            <g transform="translate(15 -1713)">
                <rect width="93" height="2" transform="translate(475 1773)" fill="#FOOTER_COLOR" class="svgc_text" filter="url(#filter_readability_orchid)"/>
                <rect width="78" height="2" transform="translate(475 1778)" fill="#FOOTER_COLOR" class="svgc_text" filter="url(#filter_readability_orchid)"/>
            </g>
        </g>
    </g>
</svg>
